  0
SECTION
  2
BLOCKS
  0
ENDSEC
  0
SECTION
  2
ENTITIES
  0
LINE
  8
0
 10
40.0164
 20
-14.8862
 11
42.1171
 21
-13.5254
  0
LINE
  8
0
 10
42.1171
 20
-13.5254
 11
43.6945
 21
-11.582
  0
LINE
  8
0
 10
43.6945
 20
-11.582
 11
50.6584
 21
0.447662
  0
LINE
  8
0
 10
50.6584
 20
0.447662
 11
51.2474
 21
1.97691
  0
LINE
  8
0
 10
51.2474
 20
1.97691
 11
52.6671
 21
2.79549
  0
LINE
  8
0
 10
52.6671
 20
2.79549
 11
62.984
 21
11.1401
  0
LINE
  8
0
 10
62.984
 20
11.1401
 11
63.1306
 21
11.1169
  0
LINE
  8
0
 10
63.1306
 20
11.1169
 11
64.6756
 21
11.3616
  0
LINE
  8
0
 10
64.6756
 20
11.3616
 11
66.0695
 21
12.0718
  0
LINE
  8
0
 10
66.0695
 20
12.0718
 11
67.1756
 21
13.178
  0
LINE
  8
0
 10
67.1756
 20
13.178
 11
67.2688
 21
13.3608
  0
LINE
  8
0
 10
67.2688
 20
13.3608
 11
79.41
 21
17.3057
  0
LINE
  8
0
 10
79.41
 20
17.3057
 11
81.6402
 21
18.442
  0
LINE
  8
0
 10
81.6402
 20
18.442
 11
81.7218
 21
18.5237
  0
LINE
  8
0
 10
81.7218
 20
18.5237
 11
81.8358
 21
18.5056
  0
LINE
  8
0
 10
81.8358
 20
18.5056
 11
84.3079
 21
18.8971
  0
LINE
  8
0
 10
84.3079
 20
18.8971
 11
97.5276
 21
23.1925
  0
LINE
  8
0
 10
97.5276
 20
23.1925
 11
98.7932
 21
23.8373
  0
LINE
  8
0
 10
98.7932
 20
23.8373
 11
98.9617
 21
23.8106
  0
LINE
  8
0
 10
98.9617
 20
23.8106
 11
100.507
 21
24.0553
  0
LINE
  8
0
 10
100.507
 20
24.0553
 11
101.901
 21
24.7655
  0
LINE
  8
0
 10
101.901
 20
24.7655
 11
103.007
 21
25.8717
  0
LINE
  8
0
 10
103.007
 20
25.8717
 11
103.717
 21
27.2655
  0
LINE
  8
0
 10
103.717
 20
27.2655
 11
103.962
 21
28.8106
  0
LINE
  8
0
 10
103.962
 20
28.8106
 11
103.717
 21
30.3557
  0
LINE
  8
0
 10
103.717
 20
30.3557
 11
103.007
 21
31.7495
  0
LINE
  8
0
 10
103.007
 20
31.7495
 11
102.886
 21
31.8702
  0
LINE
  8
0
 10
102.886
 20
31.8702
 11
102.664
 21
33.2731
  0
LINE
  8
0
 10
102.664
 20
33.2731
 11
98.9866
 21
44.5906
  0
LINE
  8
0
 10
98.9866
 20
44.5906
 11
131.418
 21
55.1281
  0
LINE
  8
0
 10
131.418
 20
55.1281
 11
132.533
 21
55.6963
  0
LINE
  8
0
 10
132.533
 20
55.6963
 11
133.418
 21
56.5812
  0
LINE
  8
0
 10
133.418
 20
56.5812
 11
133.986
 21
57.6963
  0
LINE
  8
0
 10
133.986
 20
57.6963
 11
134.182
 21
58.9323
  0
LINE
  8
0
 10
134.182
 20
58.9323
 11
133.986
 21
60.1684
  0
LINE
  8
0
 10
133.986
 20
60.1684
 11
114.209
 21
121.036
  0
LINE
  8
0
 10
114.209
 20
121.036
 11
113.641
 21
122.151
  0
LINE
  8
0
 10
113.641
 20
122.151
 11
112.756
 21
123.036
  0
LINE
  8
0
 10
112.756
 20
123.036
 11
111.641
 21
123.604
  0
LINE
  8
0
 10
111.641
 20
123.604
 11
110.404
 21
123.8
  0
LINE
  8
0
 10
110.404
 20
123.8
 11
109.168
 21
123.604
  0
LINE
  8
0
 10
109.168
 20
123.604
 11
23.285
 21
95.699
  0
LINE
  8
0
 10
23.285
 20
95.699
 11
22.9389
 21
96.0451
  0
LINE
  8
0
 10
22.9389
 20
96.0451
 11
21.5451
 21
96.7553
  0
LINE
  8
0
 10
21.5451
 20
96.7553
 11
20
 21
97
  0
LINE
  8
0
 10
20
 20
97
 11
18.4549
 21
96.7553
  0
LINE
  8
0
 10
18.4549
 20
96.7553
 11
17.0611
 21
96.0451
  0
LINE
  8
0
 10
17.0611
 20
96.0451
 11
15.9549
 21
94.9389
  0
LINE
  8
0
 10
15.9549
 20
94.9389
 11
15.4765
 21
94
  0
LINE
  8
0
 10
15.4765
 20
94
 11
-15.4765
 21
94
  0
LINE
  8
0
 10
-15.4765
 20
94
 11
-15.9549
 21
94.9389
  0
LINE
  8
0
 10
-15.9549
 20
94.9389
 11
-17.0611
 21
96.0451
  0
LINE
  8
0
 10
-17.0611
 20
96.0451
 11
-18.4549
 21
96.7553
  0
LINE
  8
0
 10
-18.4549
 20
96.7553
 11
-20
 21
97
  0
LINE
  8
0
 10
-20
 20
97
 11
-21.5451
 21
96.7553
  0
LINE
  8
0
 10
-21.5451
 20
96.7553
 11
-22.9389
 21
96.0451
  0
LINE
  8
0
 10
-22.9389
 20
96.0451
 11
-23.285
 21
95.699
  0
LINE
  8
0
 10
-23.285
 20
95.699
 11
-109.168
 21
123.604
  0
LINE
  8
0
 10
-109.168
 20
123.604
 11
-110.404
 21
123.8
  0
LINE
  8
0
 10
-110.404
 20
123.8
 11
-111.641
 21
123.604
  0
LINE
  8
0
 10
-111.641
 20
123.604
 11
-112.756
 21
123.036
  0
LINE
  8
0
 10
-112.756
 20
123.036
 11
-113.641
 21
122.151
  0
LINE
  8
0
 10
-113.641
 20
122.151
 11
-114.209
 21
121.036
  0
LINE
  8
0
 10
-114.209
 20
121.036
 11
-133.986
 21
60.1684
  0
LINE
  8
0
 10
-133.986
 20
60.1684
 11
-134.182
 21
58.9323
  0
LINE
  8
0
 10
-134.182
 20
58.9323
 11
-133.986
 21
57.6963
  0
LINE
  8
0
 10
-133.986
 20
57.6963
 11
-133.418
 21
56.5812
  0
LINE
  8
0
 10
-133.418
 20
56.5812
 11
-132.533
 21
55.6963
  0
LINE
  8
0
 10
-132.533
 20
55.6963
 11
-131.418
 21
55.1281
  0
LINE
  8
0
 10
-131.418
 20
55.1281
 11
-98.9866
 21
44.5906
  0
LINE
  8
0
 10
-98.9866
 20
44.5906
 11
-102.664
 21
33.2731
  0
LINE
  8
0
 10
-102.664
 20
33.2731
 11
-102.886
 21
31.8702
  0
LINE
  8
0
 10
-102.886
 20
31.8702
 11
-103.007
 21
31.7495
  0
LINE
  8
0
 10
-103.007
 20
31.7495
 11
-103.717
 21
30.3557
  0
LINE
  8
0
 10
-103.717
 20
30.3557
 11
-103.962
 21
28.8106
  0
LINE
  8
0
 10
-103.962
 20
28.8106
 11
-103.717
 21
27.2655
  0
LINE
  8
0
 10
-103.717
 20
27.2655
 11
-103.007
 21
25.8717
  0
LINE
  8
0
 10
-103.007
 20
25.8717
 11
-101.901
 21
24.7655
  0
LINE
  8
0
 10
-101.901
 20
24.7655
 11
-100.507
 21
24.0553
  0
LINE
  8
0
 10
-100.507
 20
24.0553
 11
-98.9617
 21
23.8106
  0
LINE
  8
0
 10
-98.9617
 20
23.8106
 11
-98.7932
 21
23.8373
  0
LINE
  8
0
 10
-98.7932
 20
23.8373
 11
-97.5276
 21
23.1925
  0
LINE
  8
0
 10
-97.5276
 20
23.1925
 11
-84.3079
 21
18.8971
  0
LINE
  8
0
 10
-84.3079
 20
18.8971
 11
-81.8358
 21
18.5056
  0
LINE
  8
0
 10
-81.8358
 20
18.5056
 11
-81.7218
 21
18.5237
  0
LINE
  8
0
 10
-81.7218
 20
18.5237
 11
-81.6402
 21
18.442
  0
LINE
  8
0
 10
-81.6402
 20
18.442
 11
-79.41
 21
17.3057
  0
LINE
  8
0
 10
-79.41
 20
17.3057
 11
-67.2688
 21
13.3608
  0
LINE
  8
0
 10
-67.2688
 20
13.3608
 11
-67.1756
 21
13.178
  0
LINE
  8
0
 10
-67.1756
 20
13.178
 11
-66.0695
 21
12.0718
  0
LINE
  8
0
 10
-66.0695
 20
12.0718
 11
-64.6756
 21
11.3616
  0
LINE
  8
0
 10
-64.6756
 20
11.3616
 11
-63.1306
 21
11.1169
  0
LINE
  8
0
 10
-63.1306
 20
11.1169
 11
-62.984
 21
11.1401
  0
LINE
  8
0
 10
-62.984
 20
11.1401
 11
-52.6671
 21
2.79549
  0
LINE
  8
0
 10
-52.6671
 20
2.79549
 11
-51.2474
 21
1.97691
  0
LINE
  8
0
 10
-51.2474
 20
1.97691
 11
-50.6584
 21
0.447662
  0
LINE
  8
0
 10
-50.6584
 20
0.447662
 11
-43.6945
 21
-11.582
  0
LINE
  8
0
 10
-43.6945
 20
-11.582
 11
-42.1171
 21
-13.5254
  0
LINE
  8
0
 10
-42.1171
 20
-13.5254
 11
-40.0164
 21
-14.8862
  0
LINE
  8
0
 10
-40.0164
 20
-14.8862
 11
-37.598
 21
-15.5312
  0
LINE
  8
0
 10
-37.598
 20
-15.5312
 11
-35.0986
 21
-15.3973
  0
LINE
  8
0
 10
-35.0986
 20
-15.3973
 11
-32.7629
 21
-14.4977
  0
LINE
  8
0
 10
-32.7629
 20
-14.4977
 11
-27.0308
 21
-11.1794
  0
LINE
  8
0
 10
-27.0308
 20
-11.1794
 11
-25.9193
 21
-11.7457
  0
LINE
  8
0
 10
-25.9193
 20
-11.7457
 11
-24.3743
 21
-11.9904
  0
LINE
  8
0
 10
-24.3743
 20
-11.9904
 11
-22.8292
 21
-11.7457
  0
LINE
  8
0
 10
-22.8292
 20
-11.7457
 11
-21.4353
 21
-11.0355
  0
LINE
  8
0
 10
-21.4353
 20
-11.0355
 11
-20.3292
 21
-9.92932
  0
LINE
  8
0
 10
-20.3292
 20
-9.92932
 11
-19.619
 21
-8.53549
  0
LINE
  8
0
 10
-19.619
 20
-8.53549
 11
-19.5341
 21
-8
  0
LINE
  8
0
 10
-19.5341
 20
-8
 11
19.5341
 21
-8
  0
LINE
  8
0
 10
19.5341
 20
-8
 11
19.619
 21
-8.53549
  0
LINE
  8
0
 10
19.619
 20
-8.53549
 11
20.3292
 21
-9.92932
  0
LINE
  8
0
 10
20.3292
 20
-9.92932
 11
21.4353
 21
-11.0355
  0
LINE
  8
0
 10
21.4353
 20
-11.0355
 11
22.8292
 21
-11.7457
  0
LINE
  8
0
 10
22.8292
 20
-11.7457
 11
24.3743
 21
-11.9904
  0
LINE
  8
0
 10
24.3743
 20
-11.9904
 11
25.9193
 21
-11.7457
  0
LINE
  8
0
 10
25.9193
 20
-11.7457
 11
27.0308
 21
-11.1794
  0
LINE
  8
0
 10
27.0308
 20
-11.1794
 11
32.7629
 21
-14.4977
  0
LINE
  8
0
 10
32.7629
 20
-14.4977
 11
35.0986
 21
-15.3973
  0
LINE
  8
0
 10
35.0986
 20
-15.3973
 11
37.598
 21
-15.5312
  0
LINE
  8
0
 10
37.598
 20
-15.5312
 11
40.0164
 21
-14.8862
  0
LINE
  8
0
 10
109.222
 20
116.876
 11
108.734
 21
117.124
  0
LINE
  8
0
 10
108.734
 20
117.124
 11
108.347
 21
117.511
  0
LINE
  8
0
 10
108.347
 20
117.511
 11
108.098
 21
117.999
  0
LINE
  8
0
 10
108.098
 20
117.999
 11
108.012
 21
118.54
  0
LINE
  8
0
 10
108.012
 20
118.54
 11
108.098
 21
119.081
  0
LINE
  8
0
 10
108.098
 20
119.081
 11
108.347
 21
119.569
  0
LINE
  8
0
 10
108.347
 20
119.569
 11
108.734
 21
119.956
  0
LINE
  8
0
 10
108.734
 20
119.956
 11
109.222
 21
120.204
  0
LINE
  8
0
 10
109.222
 20
120.204
 11
109.762
 21
120.29
  0
LINE
  8
0
 10
109.762
 20
120.29
 11
110.303
 21
120.204
  0
LINE
  8
0
 10
110.303
 20
120.204
 11
110.791
 21
119.956
  0
LINE
  8
0
 10
110.791
 20
119.956
 11
111.178
 21
119.568
  0
LINE
  8
0
 10
111.178
 20
119.568
 11
111.427
 21
119.081
  0
LINE
  8
0
 10
111.427
 20
119.081
 11
111.512
 21
118.54
  0
LINE
  8
0
 10
111.512
 20
118.54
 11
111.427
 21
117.999
  0
LINE
  8
0
 10
111.427
 20
117.999
 11
111.178
 21
117.511
  0
LINE
  8
0
 10
111.178
 20
117.511
 11
110.791
 21
117.124
  0
LINE
  8
0
 10
110.791
 20
117.124
 11
110.303
 21
116.876
  0
LINE
  8
0
 10
110.303
 20
116.876
 11
109.762
 21
116.79
  0
LINE
  8
0
 10
109.762
 20
116.79
 11
109.222
 21
116.876
  0
LINE
  8
0
 10
-110.303
 20
116.876
 11
-110.791
 21
117.124
  0
LINE
  8
0
 10
-110.791
 20
117.124
 11
-111.178
 21
117.511
  0
LINE
  8
0
 10
-111.178
 20
117.511
 11
-111.427
 21
117.999
  0
LINE
  8
0
 10
-111.427
 20
117.999
 11
-111.512
 21
118.54
  0
LINE
  8
0
 10
-111.512
 20
118.54
 11
-111.427
 21
119.081
  0
LINE
  8
0
 10
-111.427
 20
119.081
 11
-111.178
 21
119.568
  0
LINE
  8
0
 10
-111.178
 20
119.568
 11
-110.791
 21
119.956
  0
LINE
  8
0
 10
-110.791
 20
119.956
 11
-110.303
 21
120.204
  0
LINE
  8
0
 10
-110.303
 20
120.204
 11
-109.762
 21
120.29
  0
LINE
  8
0
 10
-109.762
 20
120.29
 11
-109.222
 21
120.204
  0
LINE
  8
0
 10
-109.222
 20
120.204
 11
-108.734
 21
119.956
  0
LINE
  8
0
 10
-108.734
 20
119.956
 11
-108.347
 21
119.569
  0
LINE
  8
0
 10
-108.347
 20
119.569
 11
-108.098
 21
119.081
  0
LINE
  8
0
 10
-108.098
 20
119.081
 11
-108.012
 21
118.54
  0
LINE
  8
0
 10
-108.012
 20
118.54
 11
-108.098
 21
117.999
  0
LINE
  8
0
 10
-108.098
 20
117.999
 11
-108.347
 21
117.511
  0
LINE
  8
0
 10
-108.347
 20
117.511
 11
-108.734
 21
117.124
  0
LINE
  8
0
 10
-108.734
 20
117.124
 11
-109.222
 21
116.876
  0
LINE
  8
0
 10
-109.222
 20
116.876
 11
-109.762
 21
116.79
  0
LINE
  8
0
 10
-109.762
 20
116.79
 11
-110.303
 21
116.876
  0
LINE
  8
0
 10
-53.2398
 20
98.3345
 11
-53.7277
 21
98.5831
  0
LINE
  8
0
 10
-53.7277
 20
98.5831
 11
-54.1148
 21
98.9702
  0
LINE
  8
0
 10
-54.1148
 20
98.9702
 11
-54.3634
 21
99.4581
  0
LINE
  8
0
 10
-54.3634
 20
99.4581
 11
-54.4491
 21
99.9989
  0
LINE
  8
0
 10
-54.4491
 20
99.9989
 11
-54.3634
 21
100.54
  0
LINE
  8
0
 10
-54.3634
 20
100.54
 11
-54.1148
 21
101.027
  0
LINE
  8
0
 10
-54.1148
 20
101.027
 11
-53.7277
 21
101.415
  0
LINE
  8
0
 10
-53.7277
 20
101.415
 11
-53.2398
 21
101.663
  0
LINE
  8
0
 10
-53.2398
 20
101.663
 11
-52.6991
 21
101.749
  0
LINE
  8
0
 10
-52.6991
 20
101.749
 11
-52.1583
 21
101.663
  0
LINE
  8
0
 10
-52.1583
 20
101.663
 11
-51.6704
 21
101.415
  0
LINE
  8
0
 10
-51.6704
 20
101.415
 11
-51.2833
 21
101.027
  0
LINE
  8
0
 10
-51.2833
 20
101.027
 11
-51.0347
 21
100.54
  0
LINE
  8
0
 10
-51.0347
 20
100.54
 11
-50.9491
 21
99.9989
  0
LINE
  8
0
 10
-50.9491
 20
99.9989
 11
-51.0347
 21
99.4581
  0
LINE
  8
0
 10
-51.0347
 20
99.4581
 11
-51.2833
 21
98.9702
  0
LINE
  8
0
 10
-51.2833
 20
98.9702
 11
-51.6704
 21
98.5831
  0
LINE
  8
0
 10
-51.6704
 20
98.5831
 11
-52.1583
 21
98.3345
  0
LINE
  8
0
 10
-52.1583
 20
98.3345
 11
-52.6991
 21
98.2489
  0
LINE
  8
0
 10
-52.6991
 20
98.2489
 11
-53.2398
 21
98.3345
  0
LINE
  8
0
 10
52.1583
 20
98.3345
 11
51.6704
 21
98.5831
  0
LINE
  8
0
 10
51.6704
 20
98.5831
 11
51.2833
 21
98.9702
  0
LINE
  8
0
 10
51.2833
 20
98.9702
 11
51.0347
 21
99.4581
  0
LINE
  8
0
 10
51.0347
 20
99.4581
 11
50.9491
 21
99.9989
  0
LINE
  8
0
 10
50.9491
 20
99.9989
 11
51.0347
 21
100.54
  0
LINE
  8
0
 10
51.0347
 20
100.54
 11
51.2833
 21
101.027
  0
LINE
  8
0
 10
51.2833
 20
101.027
 11
51.6704
 21
101.415
  0
LINE
  8
0
 10
51.6704
 20
101.415
 11
52.1583
 21
101.663
  0
LINE
  8
0
 10
52.1583
 20
101.663
 11
52.6991
 21
101.749
  0
LINE
  8
0
 10
52.6991
 20
101.749
 11
53.2398
 21
101.663
  0
LINE
  8
0
 10
53.2398
 20
101.663
 11
53.7277
 21
101.415
  0
LINE
  8
0
 10
53.7277
 20
101.415
 11
54.1148
 21
101.027
  0
LINE
  8
0
 10
54.1148
 20
101.027
 11
54.3634
 21
100.54
  0
LINE
  8
0
 10
54.3634
 20
100.54
 11
54.4491
 21
99.9989
  0
LINE
  8
0
 10
54.4491
 20
99.9989
 11
54.3634
 21
99.4581
  0
LINE
  8
0
 10
54.3634
 20
99.4581
 11
54.1148
 21
98.9702
  0
LINE
  8
0
 10
54.1148
 20
98.9702
 11
53.7277
 21
98.5831
  0
LINE
  8
0
 10
53.7277
 20
98.5831
 11
53.2398
 21
98.3345
  0
LINE
  8
0
 10
53.2398
 20
98.3345
 11
52.6991
 21
98.2489
  0
LINE
  8
0
 10
52.6991
 20
98.2489
 11
52.1583
 21
98.3345
  0
LINE
  8
0
 10
-20.5408
 20
90.3356
 11
-21.0286
 21
90.5842
  0
LINE
  8
0
 10
-21.0286
 20
90.5842
 11
-21.4158
 21
90.9714
  0
LINE
  8
0
 10
-21.4158
 20
90.9714
 11
-21.6643
 21
91.4592
  0
LINE
  8
0
 10
-21.6643
 20
91.4592
 11
-21.75
 21
92
  0
LINE
  8
0
 10
-21.75
 20
92
 11
-21.6643
 21
92.5408
  0
LINE
  8
0
 10
-21.6643
 20
92.5408
 11
-21.4158
 21
93.0286
  0
LINE
  8
0
 10
-21.4158
 20
93.0286
 11
-21.0286
 21
93.4158
  0
LINE
  8
0
 10
-21.0286
 20
93.4158
 11
-20.5408
 21
93.6643
  0
LINE
  8
0
 10
-20.5408
 20
93.6643
 11
-20
 21
93.75
  0
LINE
  8
0
 10
-20
 20
93.75
 11
-19.4592
 21
93.6643
  0
LINE
  8
0
 10
-19.4592
 20
93.6643
 11
-18.9714
 21
93.4158
  0
LINE
  8
0
 10
-18.9714
 20
93.4158
 11
-18.5842
 21
93.0286
  0
LINE
  8
0
 10
-18.5842
 20
93.0286
 11
-18.3356
 21
92.5408
  0
LINE
  8
0
 10
-18.3356
 20
92.5408
 11
-18.25
 21
92
  0
LINE
  8
0
 10
-18.25
 20
92
 11
-18.3356
 21
91.4592
  0
LINE
  8
0
 10
-18.3356
 20
91.4592
 11
-18.5842
 21
90.9714
  0
LINE
  8
0
 10
-18.5842
 20
90.9714
 11
-18.9714
 21
90.5842
  0
LINE
  8
0
 10
-18.9714
 20
90.5842
 11
-19.4592
 21
90.3356
  0
LINE
  8
0
 10
-19.4592
 20
90.3356
 11
-20
 21
90.25
  0
LINE
  8
0
 10
-20
 20
90.25
 11
-20.5408
 21
90.3356
  0
LINE
  8
0
 10
19.4592
 20
90.3356
 11
18.9714
 21
90.5842
  0
LINE
  8
0
 10
18.9714
 20
90.5842
 11
18.5842
 21
90.9714
  0
LINE
  8
0
 10
18.5842
 20
90.9714
 11
18.3356
 21
91.4592
  0
LINE
  8
0
 10
18.3356
 20
91.4592
 11
18.25
 21
92
  0
LINE
  8
0
 10
18.25
 20
92
 11
18.3356
 21
92.5408
  0
LINE
  8
0
 10
18.3356
 20
92.5408
 11
18.5842
 21
93.0286
  0
LINE
  8
0
 10
18.5842
 20
93.0286
 11
18.9714
 21
93.4158
  0
LINE
  8
0
 10
18.9714
 20
93.4158
 11
19.4592
 21
93.6643
  0
LINE
  8
0
 10
19.4592
 20
93.6643
 11
20
 21
93.75
  0
LINE
  8
0
 10
20
 20
93.75
 11
20.5408
 21
93.6643
  0
LINE
  8
0
 10
20.5408
 20
93.6643
 11
21.0286
 21
93.4158
  0
LINE
  8
0
 10
21.0286
 20
93.4158
 11
21.4158
 21
93.0286
  0
LINE
  8
0
 10
21.4158
 20
93.0286
 11
21.6643
 21
92.5408
  0
LINE
  8
0
 10
21.6643
 20
92.5408
 11
21.75
 21
92
  0
LINE
  8
0
 10
21.75
 20
92
 11
21.6643
 21
91.4592
  0
LINE
  8
0
 10
21.6643
 20
91.4592
 11
21.4158
 21
90.9714
  0
LINE
  8
0
 10
21.4158
 20
90.9714
 11
21.0286
 21
90.5842
  0
LINE
  8
0
 10
21.0286
 20
90.5842
 11
20.5408
 21
90.3356
  0
LINE
  8
0
 10
20.5408
 20
90.3356
 11
20
 21
90.25
  0
LINE
  8
0
 10
20
 20
90.25
 11
19.4592
 21
90.3356
  0
LINE
  8
0
 10
-129.462
 20
57.91
 11
-129.95
 21
58.1586
  0
LINE
  8
0
 10
-129.95
 20
58.1586
 11
-130.337
 21
58.5457
  0
LINE
  8
0
 10
-130.337
 20
58.5457
 11
-130.586
 21
59.0336
  0
LINE
  8
0
 10
-130.586
 20
59.0336
 11
-130.671
 21
59.5744
  0
LINE
  8
0
 10
-130.671
 20
59.5744
 11
-130.586
 21
60.1151
  0
LINE
  8
0
 10
-130.586
 20
60.1151
 11
-130.337
 21
60.603
  0
LINE
  8
0
 10
-130.337
 20
60.603
 11
-129.95
 21
60.9901
  0
LINE
  8
0
 10
-129.95
 20
60.9901
 11
-129.462
 21
61.2387
  0
LINE
  8
0
 10
-129.462
 20
61.2387
 11
-128.922
 21
61.3244
  0
LINE
  8
0
 10
-128.922
 20
61.3244
 11
-128.381
 21
61.2387
  0
LINE
  8
0
 10
-128.381
 20
61.2387
 11
-127.893
 21
60.9902
  0
LINE
  8
0
 10
-127.893
 20
60.9902
 11
-127.506
 21
60.603
  0
LINE
  8
0
 10
-127.506
 20
60.603
 11
-127.257
 21
60.1151
  0
LINE
  8
0
 10
-127.257
 20
60.1151
 11
-127.172
 21
59.5744
  0
LINE
  8
0
 10
-127.172
 20
59.5744
 11
-127.257
 21
59.0336
  0
LINE
  8
0
 10
-127.257
 20
59.0336
 11
-127.506
 21
58.5457
  0
LINE
  8
0
 10
-127.506
 20
58.5457
 11
-127.893
 21
58.1586
  0
LINE
  8
0
 10
-127.893
 20
58.1586
 11
-128.381
 21
57.91
  0
LINE
  8
0
 10
-128.381
 20
57.91
 11
-128.921
 21
57.8244
  0
LINE
  8
0
 10
-128.921
 20
57.8244
 11
-129.462
 21
57.91
  0
LINE
  8
0
 10
128.381
 20
57.91
 11
127.893
 21
58.1586
  0
LINE
  8
0
 10
127.893
 20
58.1586
 11
127.506
 21
58.5457
  0
LINE
  8
0
 10
127.506
 20
58.5457
 11
127.257
 21
59.0336
  0
LINE
  8
0
 10
127.257
 20
59.0336
 11
127.172
 21
59.5744
  0
LINE
  8
0
 10
127.172
 20
59.5744
 11
127.257
 21
60.1151
  0
LINE
  8
0
 10
127.257
 20
60.1151
 11
127.506
 21
60.603
  0
LINE
  8
0
 10
127.506
 20
60.603
 11
127.893
 21
60.9902
  0
LINE
  8
0
 10
127.893
 20
60.9902
 11
128.381
 21
61.2387
  0
LINE
  8
0
 10
128.381
 20
61.2387
 11
128.922
 21
61.3244
  0
LINE
  8
0
 10
128.922
 20
61.3244
 11
129.462
 21
61.2387
  0
LINE
  8
0
 10
129.462
 20
61.2387
 11
129.95
 21
60.9901
  0
LINE
  8
0
 10
129.95
 20
60.9901
 11
130.337
 21
60.603
  0
LINE
  8
0
 10
130.337
 20
60.603
 11
130.586
 21
60.1151
  0
LINE
  8
0
 10
130.586
 20
60.1151
 11
130.671
 21
59.5744
  0
LINE
  8
0
 10
130.671
 20
59.5744
 11
130.586
 21
59.0336
  0
LINE
  8
0
 10
130.586
 20
59.0336
 11
130.337
 21
58.5457
  0
LINE
  8
0
 10
130.337
 20
58.5457
 11
129.95
 21
58.1586
  0
LINE
  8
0
 10
129.95
 20
58.1586
 11
129.462
 21
57.91
  0
LINE
  8
0
 10
129.462
 20
57.91
 11
128.921
 21
57.8244
  0
LINE
  8
0
 10
128.921
 20
57.8244
 11
128.381
 21
57.91
  0
LINE
  8
0
 10
98.4209
 20
27.1463
 11
97.9331
 21
27.3948
  0
LINE
  8
0
 10
97.9331
 20
27.3948
 11
97.5459
 21
27.782
  0
LINE
  8
0
 10
97.5459
 20
27.782
 11
97.2973
 21
28.2698
  0
LINE
  8
0
 10
97.2973
 20
28.2698
 11
97.2117
 21
28.8106
  0
LINE
  8
0
 10
97.2117
 20
28.8106
 11
97.2973
 21
29.3514
  0
LINE
  8
0
 10
97.2973
 20
29.3514
 11
97.5459
 21
29.8392
  0
LINE
  8
0
 10
97.5459
 20
29.8392
 11
97.9331
 21
30.2264
  0
LINE
  8
0
 10
97.9331
 20
30.2264
 11
98.4209
 21
30.4749
  0
LINE
  8
0
 10
98.4209
 20
30.4749
 11
98.9617
 21
30.5606
  0
LINE
  8
0
 10
98.9617
 20
30.5606
 11
99.5025
 21
30.4749
  0
LINE
  8
0
 10
99.5025
 20
30.4749
 11
99.9903
 21
30.2264
  0
LINE
  8
0
 10
99.9903
 20
30.2264
 11
100.377
 21
29.8392
  0
LINE
  8
0
 10
100.377
 20
29.8392
 11
100.626
 21
29.3514
  0
LINE
  8
0
 10
100.626
 20
29.3514
 11
100.712
 21
28.8106
  0
LINE
  8
0
 10
100.712
 20
28.8106
 11
100.626
 21
28.2698
  0
LINE
  8
0
 10
100.626
 20
28.2698
 11
100.377
 21
27.782
  0
LINE
  8
0
 10
100.377
 20
27.782
 11
99.9903
 21
27.3948
  0
LINE
  8
0
 10
99.9903
 20
27.3948
 11
99.5025
 21
27.1462
  0
LINE
  8
0
 10
99.5025
 20
27.1462
 11
98.9617
 21
27.0606
  0
LINE
  8
0
 10
98.9617
 20
27.0606
 11
98.4209
 21
27.1463
  0
LINE
  8
0
 10
-99.5025
 20
27.1462
 11
-99.9903
 21
27.3948
  0
LINE
  8
0
 10
-99.9903
 20
27.3948
 11
-100.377
 21
27.782
  0
LINE
  8
0
 10
-100.377
 20
27.782
 11
-100.626
 21
28.2698
  0
LINE
  8
0
 10
-100.626
 20
28.2698
 11
-100.712
 21
28.8106
  0
LINE
  8
0
 10
-100.712
 20
28.8106
 11
-100.626
 21
29.3514
  0
LINE
  8
0
 10
-100.626
 20
29.3514
 11
-100.377
 21
29.8392
  0
LINE
  8
0
 10
-100.377
 20
29.8392
 11
-99.9903
 21
30.2264
  0
LINE
  8
0
 10
-99.9903
 20
30.2264
 11
-99.5025
 21
30.4749
  0
LINE
  8
0
 10
-99.5025
 20
30.4749
 11
-98.9617
 21
30.5606
  0
LINE
  8
0
 10
-98.9617
 20
30.5606
 11
-98.4209
 21
30.4749
  0
LINE
  8
0
 10
-98.4209
 20
30.4749
 11
-97.9331
 21
30.2264
  0
LINE
  8
0
 10
-97.9331
 20
30.2264
 11
-97.5459
 21
29.8392
  0
LINE
  8
0
 10
-97.5459
 20
29.8392
 11
-97.2973
 21
29.3514
  0
LINE
  8
0
 10
-97.2973
 20
29.3514
 11
-97.2117
 21
28.8106
  0
LINE
  8
0
 10
-97.2117
 20
28.8106
 11
-97.2973
 21
28.2698
  0
LINE
  8
0
 10
-97.2973
 20
28.2698
 11
-97.5459
 21
27.782
  0
LINE
  8
0
 10
-97.5459
 20
27.782
 11
-97.9331
 21
27.3948
  0
LINE
  8
0
 10
-97.9331
 20
27.3948
 11
-98.4209
 21
27.1463
  0
LINE
  8
0
 10
-98.4209
 20
27.1463
 11
-98.9617
 21
27.0606
  0
LINE
  8
0
 10
-98.9617
 20
27.0606
 11
-99.5025
 21
27.1462
  0
LINE
  8
0
 10
-30.5408
 20
23.3356
 11
-31.0286
 21
23.5842
  0
LINE
  8
0
 10
-31.0286
 20
23.5842
 11
-31.4158
 21
23.9714
  0
LINE
  8
0
 10
-31.4158
 20
23.9714
 11
-31.6643
 21
24.4592
  0
LINE
  8
0
 10
-31.6643
 20
24.4592
 11
-31.75
 21
25
  0
LINE
  8
0
 10
-31.75
 20
25
 11
-31.6643
 21
25.5408
  0
LINE
  8
0
 10
-31.6643
 20
25.5408
 11
-31.4158
 21
26.0286
  0
LINE
  8
0
 10
-31.4158
 20
26.0286
 11
-31.0286
 21
26.4158
  0
LINE
  8
0
 10
-31.0286
 20
26.4158
 11
-30.5408
 21
26.6643
  0
LINE
  8
0
 10
-30.5408
 20
26.6643
 11
-30
 21
26.75
  0
LINE
  8
0
 10
-30
 20
26.75
 11
-29.4592
 21
26.6643
  0
LINE
  8
0
 10
-29.4592
 20
26.6643
 11
-28.9714
 21
26.4158
  0
LINE
  8
0
 10
-28.9714
 20
26.4158
 11
-28.5842
 21
26.0286
  0
LINE
  8
0
 10
-28.5842
 20
26.0286
 11
-28.3356
 21
25.5408
  0
LINE
  8
0
 10
-28.3356
 20
25.5408
 11
-28.25
 21
25
  0
LINE
  8
0
 10
-28.25
 20
25
 11
-28.3356
 21
24.4592
  0
LINE
  8
0
 10
-28.3356
 20
24.4592
 11
-28.5842
 21
23.9714
  0
LINE
  8
0
 10
-28.5842
 20
23.9714
 11
-28.9714
 21
23.5842
  0
LINE
  8
0
 10
-28.9714
 20
23.5842
 11
-29.4592
 21
23.3356
  0
LINE
  8
0
 10
-29.4592
 20
23.3356
 11
-30
 21
23.25
  0
LINE
  8
0
 10
-30
 20
23.25
 11
-30.5408
 21
23.3356
  0
LINE
  8
0
 10
29.4592
 20
23.3356
 11
28.9714
 21
23.5842
  0
LINE
  8
0
 10
28.9714
 20
23.5842
 11
28.5842
 21
23.9714
  0
LINE
  8
0
 10
28.5842
 20
23.9714
 11
28.3356
 21
24.4592
  0
LINE
  8
0
 10
28.3356
 20
24.4592
 11
28.25
 21
25
  0
LINE
  8
0
 10
28.25
 20
25
 11
28.3356
 21
25.5408
  0
LINE
  8
0
 10
28.3356
 20
25.5408
 11
28.5842
 21
26.0286
  0
LINE
  8
0
 10
28.5842
 20
26.0286
 11
28.9714
 21
26.4158
  0
LINE
  8
0
 10
28.9714
 20
26.4158
 11
29.4592
 21
26.6643
  0
LINE
  8
0
 10
29.4592
 20
26.6643
 11
30
 21
26.75
  0
LINE
  8
0
 10
30
 20
26.75
 11
30.5408
 21
26.6643
  0
LINE
  8
0
 10
30.5408
 20
26.6643
 11
31.0286
 21
26.4158
  0
LINE
  8
0
 10
31.0286
 20
26.4158
 11
31.4158
 21
26.0286
  0
LINE
  8
0
 10
31.4158
 20
26.0286
 11
31.6643
 21
25.5408
  0
LINE
  8
0
 10
31.6643
 20
25.5408
 11
31.75
 21
25
  0
LINE
  8
0
 10
31.75
 20
25
 11
31.6643
 21
24.4592
  0
LINE
  8
0
 10
31.6643
 20
24.4592
 11
31.4158
 21
23.9714
  0
LINE
  8
0
 10
31.4158
 20
23.9714
 11
31.0286
 21
23.5842
  0
LINE
  8
0
 10
31.0286
 20
23.5842
 11
30.5408
 21
23.3356
  0
LINE
  8
0
 10
30.5408
 20
23.3356
 11
30
 21
23.25
  0
LINE
  8
0
 10
30
 20
23.25
 11
29.4592
 21
23.3356
  0
LINE
  8
0
 10
62.5898
 20
14.4525
 11
62.1019
 21
14.7011
  0
LINE
  8
0
 10
62.1019
 20
14.7011
 11
61.7148
 21
15.0883
  0
LINE
  8
0
 10
61.7148
 20
15.0883
 11
61.4662
 21
15.5761
  0
LINE
  8
0
 10
61.4662
 20
15.5761
 11
61.3806
 21
16.1169
  0
LINE
  8
0
 10
61.3806
 20
16.1169
 11
61.4662
 21
16.6577
  0
LINE
  8
0
 10
61.4662
 20
16.6577
 11
61.7148
 21
17.1455
  0
LINE
  8
0
 10
61.7148
 20
17.1455
 11
62.1019
 21
17.5327
  0
LINE
  8
0
 10
62.1019
 20
17.5327
 11
62.5898
 21
17.7812
  0
LINE
  8
0
 10
62.5898
 20
17.7812
 11
63.1306
 21
17.8669
  0
LINE
  8
0
 10
63.1306
 20
17.8669
 11
63.6713
 21
17.7812
  0
LINE
  8
0
 10
63.6713
 20
17.7812
 11
64.1592
 21
17.5327
  0
LINE
  8
0
 10
64.1592
 20
17.5327
 11
64.5463
 21
17.1455
  0
LINE
  8
0
 10
64.5463
 20
17.1455
 11
64.7949
 21
16.6577
  0
LINE
  8
0
 10
64.7949
 20
16.6577
 11
64.8806
 21
16.1169
  0
LINE
  8
0
 10
64.8806
 20
16.1169
 11
64.7949
 21
15.5761
  0
LINE
  8
0
 10
64.7949
 20
15.5761
 11
64.5463
 21
15.0883
  0
LINE
  8
0
 10
64.5463
 20
15.0883
 11
64.1592
 21
14.7011
  0
LINE
  8
0
 10
64.1592
 20
14.7011
 11
63.6713
 21
14.4525
  0
LINE
  8
0
 10
63.6713
 20
14.4525
 11
63.1306
 21
14.3669
  0
LINE
  8
0
 10
63.1306
 20
14.3669
 11
62.5898
 21
14.4525
  0
LINE
  8
0
 10
-63.6713
 20
14.4525
 11
-64.1592
 21
14.7011
  0
LINE
  8
0
 10
-64.1592
 20
14.7011
 11
-64.5463
 21
15.0883
  0
LINE
  8
0
 10
-64.5463
 20
15.0883
 11
-64.7949
 21
15.5761
  0
LINE
  8
0
 10
-64.7949
 20
15.5761
 11
-64.8806
 21
16.1169
  0
LINE
  8
0
 10
-64.8806
 20
16.1169
 11
-64.7949
 21
16.6577
  0
LINE
  8
0
 10
-64.7949
 20
16.6577
 11
-64.5463
 21
17.1455
  0
LINE
  8
0
 10
-64.5463
 20
17.1455
 11
-64.1592
 21
17.5327
  0
LINE
  8
0
 10
-64.1592
 20
17.5327
 11
-63.6713
 21
17.7812
  0
LINE
  8
0
 10
-63.6713
 20
17.7812
 11
-63.1306
 21
17.8669
  0
LINE
  8
0
 10
-63.1306
 20
17.8669
 11
-62.5898
 21
17.7812
  0
LINE
  8
0
 10
-62.5898
 20
17.7812
 11
-62.1019
 21
17.5327
  0
LINE
  8
0
 10
-62.1019
 20
17.5327
 11
-61.7148
 21
17.1455
  0
LINE
  8
0
 10
-61.7148
 20
17.1455
 11
-61.4662
 21
16.6577
  0
LINE
  8
0
 10
-61.4662
 20
16.6577
 11
-61.3806
 21
16.1169
  0
LINE
  8
0
 10
-61.3806
 20
16.1169
 11
-61.4662
 21
15.5761
  0
LINE
  8
0
 10
-61.4662
 20
15.5761
 11
-61.7148
 21
15.0883
  0
LINE
  8
0
 10
-61.7148
 20
15.0883
 11
-62.1019
 21
14.7011
  0
LINE
  8
0
 10
-62.1019
 20
14.7011
 11
-62.5898
 21
14.4525
  0
LINE
  8
0
 10
-62.5898
 20
14.4525
 11
-63.1306
 21
14.3669
  0
LINE
  8
0
 10
-63.1306
 20
14.3669
 11
-63.6713
 21
14.4525
  0
LINE
  8
0
 10
-24.915
 20
-8.65475
 11
-25.4029
 21
-8.40617
  0
LINE
  8
0
 10
-25.4029
 20
-8.40617
 11
-25.79
 21
-8.01903
  0
LINE
  8
0
 10
-25.79
 20
-8.01903
 11
-26.0386
 21
-7.53117
  0
LINE
  8
0
 10
-26.0386
 20
-7.53117
 11
-26.1242
 21
-6.9904
  0
LINE
  8
0
 10
-26.1242
 20
-6.9904
 11
-26.0386
 21
-6.44963
  0
LINE
  8
0
 10
-26.0386
 20
-6.44963
 11
-25.79
 21
-5.96178
  0
LINE
  8
0
 10
-25.79
 20
-5.96178
 11
-25.4029
 21
-5.57463
  0
LINE
  8
0
 10
-25.4029
 20
-5.57463
 11
-24.915
 21
-5.32605
  0
LINE
  8
0
 10
-24.915
 20
-5.32605
 11
-24.3743
 21
-5.2404
  0
LINE
  8
0
 10
-24.3743
 20
-5.2404
 11
-23.8335
 21
-5.32607
  0
LINE
  8
0
 10
-23.8335
 20
-5.32607
 11
-23.3456
 21
-5.57463
  0
LINE
  8
0
 10
-23.3456
 20
-5.57463
 11
-22.9585
 21
-5.96178
  0
LINE
  8
0
 10
-22.9585
 20
-5.96178
 11
-22.7099
 21
-6.44963
  0
LINE
  8
0
 10
-22.7099
 20
-6.44963
 11
-22.6243
 21
-6.9904
  0
LINE
  8
0
 10
-22.6243
 20
-6.9904
 11
-22.7099
 21
-7.53119
  0
LINE
  8
0
 10
-22.7099
 20
-7.53119
 11
-22.9585
 21
-8.01903
  0
LINE
  8
0
 10
-22.9585
 20
-8.01903
 11
-23.3456
 21
-8.40617
  0
LINE
  8
0
 10
-23.3456
 20
-8.40617
 11
-23.8335
 21
-8.65475
  0
LINE
  8
0
 10
-23.8335
 20
-8.65475
 11
-24.3743
 21
-8.7404
  0
LINE
  8
0
 10
-24.3743
 20
-8.7404
 11
-24.915
 21
-8.65475
  0
LINE
  8
0
 10
23.8335
 20
-8.65475
 11
23.3456
 21
-8.40617
  0
LINE
  8
0
 10
23.3456
 20
-8.40617
 11
22.9585
 21
-8.01903
  0
LINE
  8
0
 10
22.9585
 20
-8.01903
 11
22.7099
 21
-7.53119
  0
LINE
  8
0
 10
22.7099
 20
-7.53119
 11
22.6243
 21
-6.9904
  0
LINE
  8
0
 10
22.6243
 20
-6.9904
 11
22.7099
 21
-6.44963
  0
LINE
  8
0
 10
22.7099
 20
-6.44963
 11
22.9585
 21
-5.96178
  0
LINE
  8
0
 10
22.9585
 20
-5.96178
 11
23.3456
 21
-5.57463
  0
LINE
  8
0
 10
23.3456
 20
-5.57463
 11
23.8335
 21
-5.32607
  0
LINE
  8
0
 10
23.8335
 20
-5.32607
 11
24.3743
 21
-5.2404
  0
LINE
  8
0
 10
24.3743
 20
-5.2404
 11
24.915
 21
-5.32605
  0
LINE
  8
0
 10
24.915
 20
-5.32605
 11
25.4029
 21
-5.57463
  0
LINE
  8
0
 10
25.4029
 20
-5.57463
 11
25.79
 21
-5.96178
  0
LINE
  8
0
 10
25.79
 20
-5.96178
 11
26.0386
 21
-6.44963
  0
LINE
  8
0
 10
26.0386
 20
-6.44963
 11
26.1242
 21
-6.9904
  0
LINE
  8
0
 10
26.1242
 20
-6.9904
 11
26.0386
 21
-7.53117
  0
LINE
  8
0
 10
26.0386
 20
-7.53117
 11
25.79
 21
-8.01903
  0
LINE
  8
0
 10
25.79
 20
-8.01903
 11
25.4029
 21
-8.40617
  0
LINE
  8
0
 10
25.4029
 20
-8.40617
 11
24.915
 21
-8.65475
  0
LINE
  8
0
 10
24.915
 20
-8.65475
 11
24.3743
 21
-8.7404
  0
LINE
  8
0
 10
24.3743
 20
-8.7404
 11
23.8335
 21
-8.65475
  0
ENDSEC
  0
SECTION
  2
OBJECTS
  0
DICTIONARY
  0
ENDSEC
  0
EOF
