  0
SECTION
  2
BLOCKS
  0
ENDSEC
  0
SECTION
  2
ENTITIES
  0
LINE
  8
0
 10
25.8966
 20
-120.737
 11
28.5225
 21
-119.036
  0
LINE
  8
0
 10
28.5225
 20
-119.036
 11
41.3176
 21
-107.542
  0
LINE
  8
0
 10
41.3176
 20
-107.542
 11
53.1713
 21
-103
  0
LINE
  8
0
 10
53.1713
 20
-103
 11
135
 21
-103
  0
LINE
  8
0
 10
135
 20
-103
 11
136.545
 21
-102.755
  0
LINE
  8
0
 10
136.545
 20
-102.755
 11
137.939
 21
-102.045
  0
LINE
  8
0
 10
137.939
 20
-102.045
 11
139.045
 21
-100.939
  0
LINE
  8
0
 10
139.045
 20
-100.939
 11
139.755
 21
-99.5451
  0
LINE
  8
0
 10
139.755
 20
-99.5451
 11
140
 21
-98
  0
LINE
  8
0
 10
140
 20
-98
 11
140
 21
-5
  0
LINE
  8
0
 10
140
 20
-5
 11
139.755
 21
-3.45491
  0
LINE
  8
0
 10
139.755
 20
-3.45491
 11
139.045
 21
-2.06108
  0
LINE
  8
0
 10
139.045
 20
-2.06108
 11
137.939
 21
-0.95491
  0
LINE
  8
0
 10
137.939
 20
-0.95491
 11
136.545
 21
-0.24472
  0
LINE
  8
0
 10
136.545
 20
-0.24472
 11
135
 21
0
  0
LINE
  8
0
 10
135
 20
0
 11
-135
 21
0
  0
LINE
  8
0
 10
-135
 20
0
 11
-136.545
 21
-0.24472
  0
LINE
  8
0
 10
-136.545
 20
-0.24472
 11
-137.939
 21
-0.95491
  0
LINE
  8
0
 10
-137.939
 20
-0.95491
 11
-139.045
 21
-2.06108
  0
LINE
  8
0
 10
-139.045
 20
-2.06108
 11
-139.755
 21
-3.45491
  0
LINE
  8
0
 10
-139.755
 20
-3.45491
 11
-140
 21
-5
  0
LINE
  8
0
 10
-140
 20
-5
 11
-140
 21
-98
  0
LINE
  8
0
 10
-140
 20
-98
 11
-139.755
 21
-99.5451
  0
LINE
  8
0
 10
-139.755
 20
-99.5451
 11
-139.045
 21
-100.939
  0
LINE
  8
0
 10
-139.045
 20
-100.939
 11
-137.939
 21
-102.045
  0
LINE
  8
0
 10
-137.939
 20
-102.045
 11
-136.545
 21
-102.755
  0
LINE
  8
0
 10
-136.545
 20
-102.755
 11
-135
 21
-103
  0
LINE
  8
0
 10
-135
 20
-103
 11
-53.1713
 21
-103
  0
LINE
  8
0
 10
-53.1713
 20
-103
 11
-41.3176
 21
-107.542
  0
LINE
  8
0
 10
-41.3176
 20
-107.542
 11
-28.5225
 21
-119.036
  0
LINE
  8
0
 10
-28.5225
 20
-119.036
 11
-25.8966
 21
-120.737
  0
LINE
  8
0
 10
-25.8966
 20
-120.737
 11
-22.8736
 21
-121.544
  0
LINE
  8
0
 10
-22.8736
 20
-121.544
 11
-19.7494
 21
-121.376
  0
LINE
  8
0
 10
-19.7494
 20
-121.376
 11
-16.8298
 21
-120.252
  0
LINE
  8
0
 10
-16.8298
 20
-120.252
 11
-14.4007
 21
-118.28
  0
LINE
  8
0
 10
-14.4007
 20
-118.28
 11
-1.67003
 21
-104.108
  0
LINE
  8
0
 10
-1.67003
 20
-104.108
 11
-0.952026
 21
-103
  0
LINE
  8
0
 10
-0.952026
 20
-103
 11
0.952026
 21
-103
  0
LINE
  8
0
 10
0.952026
 20
-103
 11
1.67003
 21
-104.108
  0
LINE
  8
0
 10
1.67003
 20
-104.108
 11
14.4007
 21
-118.28
  0
LINE
  8
0
 10
14.4007
 20
-118.28
 11
16.8298
 21
-120.252
  0
LINE
  8
0
 10
16.8298
 20
-120.252
 11
19.7494
 21
-121.376
  0
LINE
  8
0
 10
19.7494
 20
-121.376
 11
22.8736
 21
-121.544
  0
LINE
  8
0
 10
22.8736
 20
-121.544
 11
25.8966
 21
-120.737
  0
LINE
  8
0
 10
-0.540771
 20
-7.66434
 11
-1.02861
 21
-7.41577
  0
LINE
  8
0
 10
-1.02861
 20
-7.41577
 11
-1.41577
 21
-7.02861
  0
LINE
  8
0
 10
-1.41577
 20
-7.02861
 11
-1.66434
 21
-6.54077
  0
LINE
  8
0
 10
-1.66434
 20
-6.54077
 11
-1.75
 21
-6
  0
LINE
  8
0
 10
-1.75
 20
-6
 11
-1.66434
 21
-5.45921
  0
LINE
  8
0
 10
-1.66434
 20
-5.45921
 11
-1.41577
 21
-4.97137
  0
LINE
  8
0
 10
-1.41577
 20
-4.97137
 11
-1.02861
 21
-4.58421
  0
LINE
  8
0
 10
-1.02861
 20
-4.58421
 11
-0.540771
 21
-4.33565
  0
LINE
  8
0
 10
-0.540771
 20
-4.33565
 11
0
 21
-4.25
  0
LINE
  8
0
 10
0
 20
-4.25
 11
0.540771
 21
-4.33565
  0
LINE
  8
0
 10
0.540771
 20
-4.33565
 11
1.02861
 21
-4.58421
  0
LINE
  8
0
 10
1.02861
 20
-4.58421
 11
1.41577
 21
-4.97137
  0
LINE
  8
0
 10
1.41577
 20
-4.97137
 11
1.66434
 21
-5.45921
  0
LINE
  8
0
 10
1.66434
 20
-5.45921
 11
1.75
 21
-6
  0
LINE
  8
0
 10
1.75
 20
-6
 11
1.66434
 21
-6.54077
  0
LINE
  8
0
 10
1.66434
 20
-6.54077
 11
1.41577
 21
-7.02861
  0
LINE
  8
0
 10
1.41577
 20
-7.02861
 11
1.02861
 21
-7.41577
  0
LINE
  8
0
 10
1.02861
 20
-7.41577
 11
0.540771
 21
-7.66434
  0
LINE
  8
0
 10
0.540771
 20
-7.66434
 11
0
 21
-7.75
  0
LINE
  8
0
 10
0
 20
-7.75
 11
-0.540771
 21
-7.66434
  0
LINE
  8
0
 10
64.4592
 20
-7.66434
 11
63.9714
 21
-7.41577
  0
LINE
  8
0
 10
63.9714
 20
-7.41577
 11
63.5842
 21
-7.02861
  0
LINE
  8
0
 10
63.5842
 20
-7.02861
 11
63.3356
 21
-6.54077
  0
LINE
  8
0
 10
63.3356
 20
-6.54077
 11
63.25
 21
-6
  0
LINE
  8
0
 10
63.25
 20
-6
 11
63.3356
 21
-5.45921
  0
LINE
  8
0
 10
63.3356
 20
-5.45921
 11
63.5842
 21
-4.97137
  0
LINE
  8
0
 10
63.5842
 20
-4.97137
 11
63.9714
 21
-4.58421
  0
LINE
  8
0
 10
63.9714
 20
-4.58421
 11
64.4592
 21
-4.33565
  0
LINE
  8
0
 10
64.4592
 20
-4.33565
 11
65
 21
-4.25
  0
LINE
  8
0
 10
65
 20
-4.25
 11
65.5408
 21
-4.33565
  0
LINE
  8
0
 10
65.5408
 20
-4.33565
 11
66.0286
 21
-4.58421
  0
LINE
  8
0
 10
66.0286
 20
-4.58421
 11
66.4158
 21
-4.97137
  0
LINE
  8
0
 10
66.4158
 20
-4.97137
 11
66.6643
 21
-5.45921
  0
LINE
  8
0
 10
66.6643
 20
-5.45921
 11
66.75
 21
-6
  0
LINE
  8
0
 10
66.75
 20
-6
 11
66.6643
 21
-6.54077
  0
LINE
  8
0
 10
66.6643
 20
-6.54077
 11
66.4158
 21
-7.02861
  0
LINE
  8
0
 10
66.4158
 20
-7.02861
 11
66.0286
 21
-7.41577
  0
LINE
  8
0
 10
66.0286
 20
-7.41577
 11
65.5408
 21
-7.66434
  0
LINE
  8
0
 10
65.5408
 20
-7.66434
 11
65
 21
-7.75
  0
LINE
  8
0
 10
65
 20
-7.75
 11
64.4592
 21
-7.66434
  0
LINE
  8
0
 10
-65.5408
 20
-7.66434
 11
-66.0286
 21
-7.41577
  0
LINE
  8
0
 10
-66.0286
 20
-7.41577
 11
-66.4158
 21
-7.02861
  0
LINE
  8
0
 10
-66.4158
 20
-7.02861
 11
-66.6643
 21
-6.54077
  0
LINE
  8
0
 10
-66.6643
 20
-6.54077
 11
-66.75
 21
-6
  0
LINE
  8
0
 10
-66.75
 20
-6
 11
-66.6643
 21
-5.45921
  0
LINE
  8
0
 10
-66.6643
 20
-5.45921
 11
-66.4158
 21
-4.97137
  0
LINE
  8
0
 10
-66.4158
 20
-4.97137
 11
-66.0286
 21
-4.58421
  0
LINE
  8
0
 10
-66.0286
 20
-4.58421
 11
-65.5408
 21
-4.33565
  0
LINE
  8
0
 10
-65.5408
 20
-4.33565
 11
-65
 21
-4.25
  0
LINE
  8
0
 10
-65
 20
-4.25
 11
-64.4592
 21
-4.33565
  0
LINE
  8
0
 10
-64.4592
 20
-4.33565
 11
-63.9714
 21
-4.58421
  0
LINE
  8
0
 10
-63.9714
 20
-4.58421
 11
-63.5842
 21
-4.97137
  0
LINE
  8
0
 10
-63.5842
 20
-4.97137
 11
-63.3356
 21
-5.45921
  0
LINE
  8
0
 10
-63.3356
 20
-5.45921
 11
-63.25
 21
-6
  0
LINE
  8
0
 10
-63.25
 20
-6
 11
-63.3356
 21
-6.54077
  0
LINE
  8
0
 10
-63.3356
 20
-6.54077
 11
-63.5842
 21
-7.02861
  0
LINE
  8
0
 10
-63.5842
 20
-7.02861
 11
-63.9714
 21
-7.41577
  0
LINE
  8
0
 10
-63.9714
 20
-7.41577
 11
-64.4592
 21
-7.66434
  0
LINE
  8
0
 10
-64.4592
 20
-7.66434
 11
-65
 21
-7.75
  0
LINE
  8
0
 10
-65
 20
-7.75
 11
-65.5408
 21
-7.66434
  0
LINE
  8
0
 10
129.459
 20
-7.66434
 11
128.971
 21
-7.41577
  0
LINE
  8
0
 10
128.971
 20
-7.41577
 11
128.584
 21
-7.02861
  0
LINE
  8
0
 10
128.584
 20
-7.02861
 11
128.336
 21
-6.54077
  0
LINE
  8
0
 10
128.336
 20
-6.54077
 11
128.25
 21
-6
  0
LINE
  8
0
 10
128.25
 20
-6
 11
128.336
 21
-5.45921
  0
LINE
  8
0
 10
128.336
 20
-5.45921
 11
128.584
 21
-4.97137
  0
LINE
  8
0
 10
128.584
 20
-4.97137
 11
128.971
 21
-4.58421
  0
LINE
  8
0
 10
128.971
 20
-4.58421
 11
129.459
 21
-4.33565
  0
LINE
  8
0
 10
129.459
 20
-4.33565
 11
130
 21
-4.25
  0
LINE
  8
0
 10
130
 20
-4.25
 11
130.541
 21
-4.33565
  0
LINE
  8
0
 10
130.541
 20
-4.33565
 11
131.029
 21
-4.58421
  0
LINE
  8
0
 10
131.029
 20
-4.58421
 11
131.416
 21
-4.97137
  0
LINE
  8
0
 10
131.416
 20
-4.97137
 11
131.664
 21
-5.45921
  0
LINE
  8
0
 10
131.664
 20
-5.45921
 11
131.75
 21
-6
  0
LINE
  8
0
 10
131.75
 20
-6
 11
131.664
 21
-6.54077
  0
LINE
  8
0
 10
131.664
 20
-6.54077
 11
131.416
 21
-7.02861
  0
LINE
  8
0
 10
131.416
 20
-7.02861
 11
131.029
 21
-7.41577
  0
LINE
  8
0
 10
131.029
 20
-7.41577
 11
130.541
 21
-7.66434
  0
LINE
  8
0
 10
130.541
 20
-7.66434
 11
130
 21
-7.75
  0
LINE
  8
0
 10
130
 20
-7.75
 11
129.459
 21
-7.66434
  0
LINE
  8
0
 10
-130.541
 20
-7.66434
 11
-131.029
 21
-7.41577
  0
LINE
  8
0
 10
-131.029
 20
-7.41577
 11
-131.416
 21
-7.02861
  0
LINE
  8
0
 10
-131.416
 20
-7.02861
 11
-131.664
 21
-6.54077
  0
LINE
  8
0
 10
-131.664
 20
-6.54077
 11
-131.75
 21
-6
  0
LINE
  8
0
 10
-131.75
 20
-6
 11
-131.664
 21
-5.45921
  0
LINE
  8
0
 10
-131.664
 20
-5.45921
 11
-131.416
 21
-4.97137
  0
LINE
  8
0
 10
-131.416
 20
-4.97137
 11
-131.029
 21
-4.58421
  0
LINE
  8
0
 10
-131.029
 20
-4.58421
 11
-130.541
 21
-4.33565
  0
LINE
  8
0
 10
-130.541
 20
-4.33565
 11
-130
 21
-4.25
  0
LINE
  8
0
 10
-130
 20
-4.25
 11
-129.459
 21
-4.33565
  0
LINE
  8
0
 10
-129.459
 20
-4.33565
 11
-128.971
 21
-4.58421
  0
LINE
  8
0
 10
-128.971
 20
-4.58421
 11
-128.584
 21
-4.97137
  0
LINE
  8
0
 10
-128.584
 20
-4.97137
 11
-128.336
 21
-5.45921
  0
LINE
  8
0
 10
-128.336
 20
-5.45921
 11
-128.25
 21
-6
  0
LINE
  8
0
 10
-128.25
 20
-6
 11
-128.336
 21
-6.54077
  0
LINE
  8
0
 10
-128.336
 20
-6.54077
 11
-128.584
 21
-7.02861
  0
LINE
  8
0
 10
-128.584
 20
-7.02861
 11
-128.971
 21
-7.41577
  0
LINE
  8
0
 10
-128.971
 20
-7.41577
 11
-129.459
 21
-7.66434
  0
LINE
  8
0
 10
-129.459
 20
-7.66434
 11
-130
 21
-7.75
  0
LINE
  8
0
 10
-130
 20
-7.75
 11
-130.541
 21
-7.66434
  0
LINE
  8
0
 10
113.484
 20
-8.03883
 11
113.135
 21
-7.86128
  0
LINE
  8
0
 10
113.135
 20
-7.86128
 11
112.859
 21
-7.58473
  0
LINE
  8
0
 10
112.859
 20
-7.58473
 11
112.681
 21
-7.23628
  0
LINE
  8
0
 10
112.681
 20
-7.23628
 11
112.62
 21
-6.85001
  0
LINE
  8
0
 10
112.62
 20
-6.85001
 11
112.681
 21
-6.46373
  0
LINE
  8
0
 10
112.681
 20
-6.46373
 11
112.859
 21
-6.11528
  0
LINE
  8
0
 10
112.859
 20
-6.11528
 11
113.135
 21
-5.83873
  0
LINE
  8
0
 10
113.135
 20
-5.83873
 11
113.484
 21
-5.66119
  0
LINE
  8
0
 10
113.484
 20
-5.66119
 11
113.87
 21
-5.60001
  0
LINE
  8
0
 10
113.87
 20
-5.60001
 11
114.256
 21
-5.66119
  0
LINE
  8
0
 10
114.256
 20
-5.66119
 11
114.605
 21
-5.83873
  0
LINE
  8
0
 10
114.605
 20
-5.83873
 11
114.881
 21
-6.11528
  0
LINE
  8
0
 10
114.881
 20
-6.11528
 11
115.059
 21
-6.46373
  0
LINE
  8
0
 10
115.059
 20
-6.46373
 11
115.12
 21
-6.85001
  0
LINE
  8
0
 10
115.12
 20
-6.85001
 11
115.059
 21
-7.23628
  0
LINE
  8
0
 10
115.059
 20
-7.23628
 11
114.881
 21
-7.58473
  0
LINE
  8
0
 10
114.881
 20
-7.58473
 11
114.605
 21
-7.86128
  0
LINE
  8
0
 10
114.605
 20
-7.86128
 11
114.256
 21
-8.03883
  0
LINE
  8
0
 10
114.256
 20
-8.03883
 11
113.87
 21
-8.10001
  0
LINE
  8
0
 10
113.87
 20
-8.10001
 11
113.484
 21
-8.03883
  0
LINE
  8
0
 10
80.7437
 20
-8.03883
 11
80.3953
 21
-7.86128
  0
LINE
  8
0
 10
80.3953
 20
-7.86128
 11
80.1187
 21
-7.58473
  0
LINE
  8
0
 10
80.1187
 20
-7.58473
 11
79.9412
 21
-7.23628
  0
LINE
  8
0
 10
79.9412
 20
-7.23628
 11
79.88
 21
-6.85001
  0
LINE
  8
0
 10
79.88
 20
-6.85001
 11
79.9412
 21
-6.46373
  0
LINE
  8
0
 10
79.9412
 20
-6.46373
 11
80.1187
 21
-6.11528
  0
LINE
  8
0
 10
80.1187
 20
-6.11528
 11
80.3953
 21
-5.83873
  0
LINE
  8
0
 10
80.3953
 20
-5.83873
 11
80.7437
 21
-5.66119
  0
LINE
  8
0
 10
80.7437
 20
-5.66119
 11
81.13
 21
-5.60001
  0
LINE
  8
0
 10
81.13
 20
-5.60001
 11
81.5163
 21
-5.66119
  0
LINE
  8
0
 10
81.5163
 20
-5.66119
 11
81.8647
 21
-5.83873
  0
LINE
  8
0
 10
81.8647
 20
-5.83873
 11
82.1413
 21
-6.11528
  0
LINE
  8
0
 10
82.1413
 20
-6.11528
 11
82.3188
 21
-6.46373
  0
LINE
  8
0
 10
82.3188
 20
-6.46373
 11
82.38
 21
-6.85001
  0
LINE
  8
0
 10
82.38
 20
-6.85001
 11
82.3188
 21
-7.23628
  0
LINE
  8
0
 10
82.3188
 20
-7.23628
 11
82.1413
 21
-7.58473
  0
LINE
  8
0
 10
82.1413
 20
-7.58473
 11
81.8647
 21
-7.86128
  0
LINE
  8
0
 10
81.8647
 20
-7.86128
 11
81.5163
 21
-8.03883
  0
LINE
  8
0
 10
81.5163
 20
-8.03883
 11
81.13
 21
-8.10001
  0
LINE
  8
0
 10
81.13
 20
-8.10001
 11
80.7437
 21
-8.03883
  0
LINE
  8
0
 10
-5.17668
 20
-39.0734
 11
-5.30472
 21
-38.9035
  0
LINE
  8
0
 10
-5.30472
 20
-38.9035
 11
-5.47899
 21
-38.7815
  0
LINE
  8
0
 10
-5.47899
 20
-38.7815
 11
-5.68245
 21
-38.7193
  0
LINE
  8
0
 10
-5.68245
 20
-38.7193
 11
-5.89517
 21
-38.723
  0
LINE
  8
0
 10
-5.89517
 20
-38.723
 11
-6.09633
 21
-38.7923
  0
LINE
  8
0
 10
-6.09633
 20
-38.7923
 11
-10.1491
 21
-40.9472
  0
LINE
  8
0
 10
-10.1491
 20
-40.9472
 11
-12.703
 21
-36.1439
  0
LINE
  8
0
 10
-12.703
 20
-36.1439
 11
-1.54399
 21
-30.2106
  0
LINE
  8
0
 10
-1.54399
 20
-30.2106
 11
5.81314
 21
-32.4599
  0
LINE
  8
0
 10
5.81314
 20
-32.4599
 11
-0.992889
 21
-36.0787
  0
LINE
  8
0
 10
-0.992889
 20
-36.0787
 11
-1.1628
 21
-36.2068
  0
LINE
  8
0
 10
-1.1628
 20
-36.2068
 11
-1.28484
 21
-36.3811
  0
LINE
  8
0
 10
-1.28484
 20
-36.3811
 11
-1.34703
 21
-36.5845
  0
LINE
  8
0
 10
-1.34703
 20
-36.5845
 11
-1.34332
 21
-36.7972
  0
LINE
  8
0
 10
-1.34332
 20
-36.7972
 11
-1.27405
 21
-36.9984
  0
LINE
  8
0
 10
-1.27405
 20
-36.9984
 11
16.763
 21
-70.9212
  0
LINE
  8
0
 10
16.763
 20
-70.9212
 11
12.8604
 21
-72.9963
  0
LINE
  8
0
 10
12.8604
 20
-72.9963
 11
-5.17668
 21
-39.0734
  0
LINE
  8
0
 10
9.25673
 20
-53.907
 11
10.2336
 21
-52.8955
  0
LINE
  8
0
 10
10.2336
 20
-52.8955
 11
10.3556
 21
-52.7212
  0
LINE
  8
0
 10
10.3556
 20
-52.7212
 11
12.5934
 21
-48.1332
  0
LINE
  8
0
 10
12.5934
 20
-48.1332
 11
12.6555
 21
-47.9297
  0
LINE
  8
0
 10
12.6555
 20
-47.9297
 11
13.366
 21
-42.8747
  0
LINE
  8
0
 10
13.366
 20
-42.8747
 11
13.3623
 21
-42.662
  0
LINE
  8
0
 10
13.3623
 20
-42.662
 11
12.4759
 21
-37.6348
  0
LINE
  8
0
 10
12.4759
 20
-37.6348
 11
12.4066
 21
-37.4337
  0
LINE
  8
0
 10
12.4066
 20
-37.4337
 11
10.0101
 21
-32.9265
  0
LINE
  8
0
 10
10.0101
 20
-32.9265
 11
9.88205
 21
-32.7566
  0
LINE
  8
0
 10
9.88205
 20
-32.7566
 11
7.76161
 21
-30.7089
  0
LINE
  8
0
 10
7.76161
 20
-30.7089
 11
9.74837
 21
-31.6779
  0
LINE
  8
0
 10
9.74837
 20
-31.6779
 11
13.5734
 21
-35.3717
  0
LINE
  8
0
 10
13.5734
 20
-35.3717
 11
16.0698
 21
-40.0667
  0
LINE
  8
0
 10
16.0698
 20
-40.0667
 11
16.9931
 21
-45.3034
  0
LINE
  8
0
 10
16.9931
 20
-45.3034
 11
16.2531
 21
-50.5691
  0
LINE
  8
0
 10
16.2531
 20
-50.5691
 11
13.9221
 21
-55.3484
  0
LINE
  8
0
 10
13.9221
 20
-55.3484
 11
12.2868
 21
-57.0417
  0
LINE
  8
0
 10
12.2868
 20
-57.0417
 11
12.2707
 21
-57.0591
  0
LINE
  8
0
 10
12.2707
 20
-57.0591
 11
11.4295
 21
-57.9933
  0
LINE
  8
0
 10
11.4295
 20
-57.9933
 11
9.25673
 21
-53.907
  0
LINE
  8
0
 10
20.0137
 20
-38.2888
 11
19.6653
 21
-38.1113
  0
LINE
  8
0
 10
19.6653
 20
-38.1113
 11
19.3887
 21
-37.8347
  0
LINE
  8
0
 10
19.3887
 20
-37.8347
 11
19.2112
 21
-37.4863
  0
LINE
  8
0
 10
19.2112
 20
-37.4863
 11
19.15
 21
-37.1
  0
LINE
  8
0
 10
19.15
 20
-37.1
 11
19.2112
 21
-36.7137
  0
LINE
  8
0
 10
19.2112
 20
-36.7137
 11
19.3887
 21
-36.3653
  0
LINE
  8
0
 10
19.3887
 20
-36.3653
 11
19.6653
 21
-36.0887
  0
LINE
  8
0
 10
19.6653
 20
-36.0887
 11
20.0137
 21
-35.9112
  0
LINE
  8
0
 10
20.0137
 20
-35.9112
 11
20.4
 21
-35.85
  0
LINE
  8
0
 10
20.4
 20
-35.85
 11
20.7863
 21
-35.9112
  0
LINE
  8
0
 10
20.7863
 20
-35.9112
 11
21.1347
 21
-36.0887
  0
LINE
  8
0
 10
21.1347
 20
-36.0887
 11
21.4113
 21
-36.3653
  0
LINE
  8
0
 10
21.4113
 20
-36.3653
 11
21.5888
 21
-36.7137
  0
LINE
  8
0
 10
21.5888
 20
-36.7137
 11
21.65
 21
-37.1
  0
LINE
  8
0
 10
21.65
 20
-37.1
 11
21.5888
 21
-37.4863
  0
LINE
  8
0
 10
21.5888
 20
-37.4863
 11
21.4113
 21
-37.8347
  0
LINE
  8
0
 10
21.4113
 20
-37.8347
 11
21.1347
 21
-38.1113
  0
LINE
  8
0
 10
21.1347
 20
-38.1113
 11
20.7863
 21
-38.2888
  0
LINE
  8
0
 10
20.7863
 20
-38.2888
 11
20.4
 21
-38.35
  0
LINE
  8
0
 10
20.4
 20
-38.35
 11
20.0137
 21
-38.2888
  0
LINE
  8
0
 10
-20.7863
 20
-38.2888
 11
-21.1347
 21
-38.1113
  0
LINE
  8
0
 10
-21.1347
 20
-38.1113
 11
-21.4113
 21
-37.8347
  0
LINE
  8
0
 10
-21.4113
 20
-37.8347
 11
-21.5888
 21
-37.4863
  0
LINE
  8
0
 10
-21.5888
 20
-37.4863
 11
-21.65
 21
-37.1
  0
LINE
  8
0
 10
-21.65
 20
-37.1
 11
-21.5888
 21
-36.7137
  0
LINE
  8
0
 10
-21.5888
 20
-36.7137
 11
-21.4113
 21
-36.3653
  0
LINE
  8
0
 10
-21.4113
 20
-36.3653
 11
-21.1347
 21
-36.0887
  0
LINE
  8
0
 10
-21.1347
 20
-36.0887
 11
-20.7863
 21
-35.9112
  0
LINE
  8
0
 10
-20.7863
 20
-35.9112
 11
-20.4
 21
-35.85
  0
LINE
  8
0
 10
-20.4
 20
-35.85
 11
-20.0137
 21
-35.9112
  0
LINE
  8
0
 10
-20.0137
 20
-35.9112
 11
-19.6653
 21
-36.0887
  0
LINE
  8
0
 10
-19.6653
 20
-36.0887
 11
-19.3887
 21
-36.3653
  0
LINE
  8
0
 10
-19.3887
 20
-36.3653
 11
-19.2112
 21
-36.7137
  0
LINE
  8
0
 10
-19.2112
 20
-36.7137
 11
-19.15
 21
-37.1
  0
LINE
  8
0
 10
-19.15
 20
-37.1
 11
-19.2112
 21
-37.4863
  0
LINE
  8
0
 10
-19.2112
 20
-37.4863
 11
-19.3887
 21
-37.8347
  0
LINE
  8
0
 10
-19.3887
 20
-37.8347
 11
-19.6653
 21
-38.1113
  0
LINE
  8
0
 10
-19.6653
 20
-38.1113
 11
-20.0137
 21
-38.2888
  0
LINE
  8
0
 10
-20.0137
 20
-38.2888
 11
-20.4
 21
-38.35
  0
LINE
  8
0
 10
-20.4
 20
-38.35
 11
-20.7863
 21
-38.2888
  0
LINE
  8
0
 10
7.13054
 20
-48.4598
 11
2.97717
 21
-40.6485
  0
LINE
  8
0
 10
2.97717
 20
-40.6485
 11
5.3531
 21
-41.0248
  0
LINE
  8
0
 10
5.3531
 20
-41.0248
 11
10.1822
 21
-43.4854
  0
LINE
  8
0
 10
10.1822
 20
-43.4854
 11
11.0922
 21
-44.3954
  0
LINE
  8
0
 10
11.0922
 20
-44.3954
 11
10.6654
 21
-47.4325
  0
LINE
  8
0
 10
10.6654
 20
-47.4325
 11
9.16972
 21
-50.499
  0
LINE
  8
0
 10
9.16972
 20
-50.499
 11
7.13054
 21
-48.4598
  0
LINE
  8
0
 10
-9.34235
 20
-50.1972
 11
-9.35715
 21
-50.1631
  0
LINE
  8
0
 10
-9.35715
 20
-50.1631
 11
-9.8475
 21
-49.2409
  0
LINE
  8
0
 10
-9.8475
 20
-49.2409
 11
-9.85622
 21
-49.1999
  0
LINE
  8
0
 10
-9.85622
 20
-49.1999
 11
-9.91682
 21
-48.9953
  0
LINE
  8
0
 10
-9.91682
 20
-48.9953
 11
-9.95494
 21
-48.896
  0
LINE
  8
0
 10
-9.95494
 20
-48.896
 11
-10.1677
 21
-48.5275
  0
LINE
  8
0
 10
-10.1677
 20
-48.5275
 11
-10.2346
 21
-48.4448
  0
LINE
  8
0
 10
-10.2346
 20
-48.4448
 11
-10.304
 21
-48.3824
  0
LINE
  8
0
 10
-10.304
 20
-48.3824
 11
-11.9616
 21
-45.2648
  0
LINE
  8
0
 10
-11.9616
 20
-45.2648
 11
-10.1822
 21
-43.4854
  0
LINE
  8
0
 10
-10.1822
 20
-43.4854
 11
-6.21584
 21
-41.4644
  0
LINE
  8
0
 10
-6.21584
 20
-41.4644
 11
-4.81342
 21
-44.102
  0
LINE
  8
0
 10
-4.81342
 20
-44.102
 11
-7.13052
 21
-48.4598
  0
LINE
  8
0
 10
-7.13052
 20
-48.4598
 11
-9.16867
 21
-50.498
  0
LINE
  8
0
 10
-9.16867
 20
-50.498
 11
-9.34235
 21
-50.1972
  0
LINE
  8
0
 10
-6.10391
 20
-54.9992
 11
-7.58707
 21
-53.6638
  0
LINE
  8
0
 10
-7.58707
 20
-53.6638
 11
-3.27312
 21
-45.5504
  0
LINE
  8
0
 10
-3.27312
 20
-45.5504
 11
-0.770142
 21
-50.2578
  0
LINE
  8
0
 10
-0.770142
 20
-50.2578
 11
-3.82959
 21
-56.0118
  0
LINE
  8
0
 10
-3.82959
 20
-56.0118
 11
-6.10391
 21
-54.9992
  0
LINE
  8
0
 10
-2.03423
 20
-62.2656
 11
-2.05777
 21
-62.2627
  0
LINE
  8
0
 10
-2.05777
 20
-62.2627
 11
-4.39882
 21
-62.0166
  0
LINE
  8
0
 10
-4.39882
 20
-62.0166
 11
-4.58516
 21
-61.9337
  0
LINE
  8
0
 10
-4.58516
 20
-61.9337
 11
-4.76709
 21
-61.8815
  0
LINE
  8
0
 10
-4.76709
 20
-61.8815
 11
-4.96906
 21
-61.8531
  0
LINE
  8
0
 10
-4.96906
 20
-61.8531
 11
-7.0847
 21
-60.8212
  0
LINE
  8
0
 10
-7.0847
 20
-60.8212
 11
-7.10622
 21
-60.8112
  0
LINE
  8
0
 10
-7.10622
 20
-60.8112
 11
-9.25653
 21
-59.8538
  0
LINE
  8
0
 10
-9.25653
 20
-59.8538
 11
-9.40808
 21
-59.7174
  0
LINE
  8
0
 10
-9.40808
 20
-59.7174
 11
-9.565
 21
-59.6115
  0
LINE
  8
0
 10
-9.565
 20
-59.6115
 11
-9.74835
 21
-59.5221
  0
LINE
  8
0
 10
-9.74835
 20
-59.5221
 11
-11.4417
 21
-57.8869
  0
LINE
  8
0
 10
-11.4417
 20
-57.8869
 11
-11.4591
 21
-57.8707
  0
LINE
  8
0
 10
-11.4591
 20
-57.8707
 11
-13.2082
 21
-56.2958
  0
LINE
  8
0
 10
-13.2082
 20
-56.2958
 11
-14.8545
 21
-53.4443
  0
LINE
  8
0
 10
-14.8545
 20
-53.4443
 11
-14.971
 21
-53.2951
  0
LINE
  8
0
 10
-14.971
 20
-53.2951
 11
-15.1453
 21
-53.1731
  0
LINE
  8
0
 10
-15.1453
 20
-53.1731
 11
-15.3487
 21
-53.1109
  0
LINE
  8
0
 10
-15.3487
 20
-53.1109
 11
-15.5615
 21
-53.1146
  0
LINE
  8
0
 10
-15.5615
 20
-53.1146
 11
-15.7626
 21
-53.1839
  0
LINE
  8
0
 10
-15.7626
 20
-53.1839
 11
-25.7277
 21
-58.4824
  0
LINE
  8
0
 10
-25.7277
 20
-58.4824
 11
-28.122
 21
-53.9794
  0
LINE
  8
0
 10
-28.122
 20
-53.9794
 11
-13.7123
 21
-46.3176
  0
LINE
  8
0
 10
-13.7123
 20
-46.3176
 11
-11.9886
 21
-49.5594
  0
LINE
  8
0
 10
-11.9886
 20
-49.5594
 11
-11.8241
 21
-49.7538
  0
LINE
  8
0
 10
-11.8241
 20
-49.7538
 11
-11.8032
 21
-49.852
  0
LINE
  8
0
 10
-11.8032
 20
-49.852
 11
-11.7384
 21
-50.0299
  0
LINE
  8
0
 10
-11.7384
 20
-50.0299
 11
-11.1635
 21
-51.1112
  0
LINE
  8
0
 10
-11.1635
 20
-51.1112
 11
-11.1382
 21
-51.1666
  0
LINE
  8
0
 10
-11.1382
 20
-51.1666
 11
-9.83363
 21
-53.4263
  0
LINE
  8
0
 10
-9.83363
 20
-53.4263
 11
-9.69974
 21
-53.5916
  0
LINE
  8
0
 10
-9.69974
 20
-53.5916
 11
-6.93388
 21
-56.082
  0
LINE
  8
0
 10
-6.93388
 20
-56.082
 11
-6.75546
 21
-56.1978
  0
LINE
  8
0
 10
-6.75546
 20
-56.1978
 11
-3.35542
 21
-57.7116
  0
LINE
  8
0
 10
-3.35542
 20
-57.7116
 11
-3.14992
 21
-57.7667
  0
LINE
  8
0
 10
-3.14992
 20
-57.7667
 11
0.551483
 21
-58.1557
  0
LINE
  8
0
 10
0.551483
 20
-58.1557
 11
0.763947
 21
-58.1446
  0
LINE
  8
0
 10
0.763947
 20
-58.1446
 11
3.15327
 21
-57.6367
  0
LINE
  8
0
 10
3.15327
 20
-57.6367
 11
5.31789
 21
-61.7078
  0
LINE
  8
0
 10
5.31789
 20
-61.7078
 11
3.2153
 21
-62.0785
  0
LINE
  8
0
 10
3.2153
 20
-62.0785
 11
3.192
 21
-62.083
  0
LINE
  8
0
 10
3.192
 20
-62.083
 11
0.889465
 21
-62.5724
  0
LINE
  8
0
 10
0.889465
 20
-62.5724
 11
0.6866
 21
-62.5511
  0
LINE
  8
0
 10
0.6866
 20
-62.5511
 11
0.497452
 21
-62.5577
  0
LINE
  8
0
 10
0.497452
 20
-62.5577
 11
0.2966
 21
-62.5932
  0
LINE
  8
0
 10
0.2966
 20
-62.5932
 11
-2.03423
 21
-62.2656
  0
LINE
  8
0
 10
134.459
 20
-51.6643
 11
133.971
 21
-51.4158
  0
LINE
  8
0
 10
133.971
 20
-51.4158
 11
133.584
 21
-51.0286
  0
LINE
  8
0
 10
133.584
 20
-51.0286
 11
133.336
 21
-50.5408
  0
LINE
  8
0
 10
133.336
 20
-50.5408
 11
133.25
 21
-50
  0
LINE
  8
0
 10
133.25
 20
-50
 11
133.336
 21
-49.4592
  0
LINE
  8
0
 10
133.336
 20
-49.4592
 11
133.584
 21
-48.9714
  0
LINE
  8
0
 10
133.584
 20
-48.9714
 11
133.971
 21
-48.5842
  0
LINE
  8
0
 10
133.971
 20
-48.5842
 11
134.459
 21
-48.3356
  0
LINE
  8
0
 10
134.459
 20
-48.3356
 11
135
 21
-48.25
  0
LINE
  8
0
 10
135
 20
-48.25
 11
135.541
 21
-48.3356
  0
LINE
  8
0
 10
135.541
 20
-48.3356
 11
136.029
 21
-48.5842
  0
LINE
  8
0
 10
136.029
 20
-48.5842
 11
136.416
 21
-48.9714
  0
LINE
  8
0
 10
136.416
 20
-48.9714
 11
136.664
 21
-49.4592
  0
LINE
  8
0
 10
136.664
 20
-49.4592
 11
136.75
 21
-50
  0
LINE
  8
0
 10
136.75
 20
-50
 11
136.664
 21
-50.5408
  0
LINE
  8
0
 10
136.664
 20
-50.5408
 11
136.416
 21
-51.0286
  0
LINE
  8
0
 10
136.416
 20
-51.0286
 11
136.029
 21
-51.4158
  0
LINE
  8
0
 10
136.029
 20
-51.4158
 11
135.541
 21
-51.6643
  0
LINE
  8
0
 10
135.541
 20
-51.6643
 11
135
 21
-51.75
  0
LINE
  8
0
 10
135
 20
-51.75
 11
134.459
 21
-51.6643
  0
LINE
  8
0
 10
-135.541
 20
-51.6643
 11
-136.029
 21
-51.4158
  0
LINE
  8
0
 10
-136.029
 20
-51.4158
 11
-136.416
 21
-51.0286
  0
LINE
  8
0
 10
-136.416
 20
-51.0286
 11
-136.664
 21
-50.5408
  0
LINE
  8
0
 10
-136.664
 20
-50.5408
 11
-136.75
 21
-50
  0
LINE
  8
0
 10
-136.75
 20
-50
 11
-136.664
 21
-49.4592
  0
LINE
  8
0
 10
-136.664
 20
-49.4592
 11
-136.416
 21
-48.9714
  0
LINE
  8
0
 10
-136.416
 20
-48.9714
 11
-136.029
 21
-48.5842
  0
LINE
  8
0
 10
-136.029
 20
-48.5842
 11
-135.541
 21
-48.3356
  0
LINE
  8
0
 10
-135.541
 20
-48.3356
 11
-135
 21
-48.25
  0
LINE
  8
0
 10
-135
 20
-48.25
 11
-134.459
 21
-48.3356
  0
LINE
  8
0
 10
-134.459
 20
-48.3356
 11
-133.971
 21
-48.5842
  0
LINE
  8
0
 10
-133.971
 20
-48.5842
 11
-133.584
 21
-48.9714
  0
LINE
  8
0
 10
-133.584
 20
-48.9714
 11
-133.336
 21
-49.4592
  0
LINE
  8
0
 10
-133.336
 20
-49.4592
 11
-133.25
 21
-50
  0
LINE
  8
0
 10
-133.25
 20
-50
 11
-133.336
 21
-50.5408
  0
LINE
  8
0
 10
-133.336
 20
-50.5408
 11
-133.584
 21
-51.0286
  0
LINE
  8
0
 10
-133.584
 20
-51.0286
 11
-133.971
 21
-51.4158
  0
LINE
  8
0
 10
-133.971
 20
-51.4158
 11
-134.459
 21
-51.6643
  0
LINE
  8
0
 10
-134.459
 20
-51.6643
 11
-135
 21
-51.75
  0
LINE
  8
0
 10
-135
 20
-51.75
 11
-135.541
 21
-51.6643
  0
LINE
  8
0
 10
12.9328
 20
-59.3724
 11
13.7708
 21
-58.4417
  0
LINE
  8
0
 10
13.7708
 20
-58.4417
 11
15.427
 21
-56.7267
  0
LINE
  8
0
 10
15.427
 20
-56.7267
 11
15.5627
 21
-56.562
  0
LINE
  8
0
 10
15.5627
 20
-56.562
 11
15.6237
 21
-56.4749
  0
LINE
  8
0
 10
15.6237
 20
-56.4749
 11
15.732
 21
-56.291
  0
LINE
  8
0
 10
15.732
 20
-56.291
 11
16.7885
 21
-54.125
  0
LINE
  8
0
 10
16.7885
 20
-54.125
 11
17.323
 21
-57.5
  0
LINE
  8
0
 10
17.323
 20
-57.5
 11
16.4752
 21
-62.8531
  0
LINE
  8
0
 10
16.4752
 20
-62.8531
 11
15.6474
 21
-64.4777
  0
LINE
  8
0
 10
15.6474
 20
-64.4777
 11
12.9328
 21
-59.3724
  0
LINE
  8
0
 10
-16.4752
 20
-62.8531
 11
-17.323
 21
-57.5
  0
LINE
  8
0
 10
-17.323
 20
-57.5
 11
-17.1197
 21
-56.2159
  0
LINE
  8
0
 10
-17.1197
 20
-56.2159
 11
-15.9645
 21
-55.6017
  0
LINE
  8
0
 10
-15.9645
 20
-55.6017
 11
-14.9479
 21
-57.3624
  0
LINE
  8
0
 10
-14.9479
 20
-57.3624
 11
-14.8271
 21
-57.5383
  0
LINE
  8
0
 10
-14.8271
 20
-57.5383
 11
-14.7601
 21
-57.621
  0
LINE
  8
0
 10
-14.7601
 20
-57.621
 11
-14.6132
 21
-57.7758
  0
LINE
  8
0
 10
-14.6132
 20
-57.7758
 11
-12.9028
 21
-59.3158
  0
LINE
  8
0
 10
-12.9028
 20
-59.3158
 11
-15.6474
 21
-64.4777
  0
LINE
  8
0
 10
-15.6474
 20
-64.4777
 11
-16.4752
 21
-62.8531
  0
LINE
  8
0
 10
-17.0823
 20
-71.5216
 11
-11.0427
 21
-60.1628
  0
LINE
  8
0
 10
-11.0427
 20
-60.1628
 11
-10.6544
 21
-60.5378
  0
LINE
  8
0
 10
-10.6544
 20
-60.5378
 11
-10.572
 21
-60.6057
  0
LINE
  8
0
 10
-10.572
 20
-60.6057
 11
-10.4849
 21
-60.6667
  0
LINE
  8
0
 10
-10.4849
 20
-60.6667
 11
-10.3929
 21
-60.7209
  0
LINE
  8
0
 10
-10.3929
 20
-60.7209
 11
-10.2471
 21
-60.792
  0
LINE
  8
0
 10
-10.2471
 20
-60.792
 11
-10.1265
 21
-60.9005
  0
LINE
  8
0
 10
-10.1265
 20
-60.9005
 11
-10.0419
 21
-60.9655
  0
LINE
  8
0
 10
-10.0419
 20
-60.9655
 11
-9.95268
 21
-61.0234
  0
LINE
  8
0
 10
-9.95268
 20
-61.0234
 11
-9.8589
 21
-61.0744
  0
LINE
  8
0
 10
-9.8589
 20
-61.0744
 11
-7.67026
 21
-62.0488
  0
LINE
  8
0
 10
-7.67026
 20
-62.0488
 11
-7.1694
 21
-62.2931
  0
LINE
  8
0
 10
-7.1694
 20
-62.2931
 11
-13.1796
 21
-73.5967
  0
LINE
  8
0
 10
-13.1796
 20
-73.5967
 11
-17.0823
 21
-71.5216
  0
LINE
  8
0
 10
113.484
 20
-68.0388
 11
113.135
 21
-67.8613
  0
LINE
  8
0
 10
113.135
 20
-67.8613
 11
112.859
 21
-67.5847
  0
LINE
  8
0
 10
112.859
 20
-67.5847
 11
112.681
 21
-67.2363
  0
LINE
  8
0
 10
112.681
 20
-67.2363
 11
112.62
 21
-66.85
  0
LINE
  8
0
 10
112.62
 20
-66.85
 11
112.681
 21
-66.4637
  0
LINE
  8
0
 10
112.681
 20
-66.4637
 11
112.859
 21
-66.1153
  0
LINE
  8
0
 10
112.859
 20
-66.1153
 11
113.135
 21
-65.8387
  0
LINE
  8
0
 10
113.135
 20
-65.8387
 11
113.484
 21
-65.6612
  0
LINE
  8
0
 10
113.484
 20
-65.6612
 11
113.87
 21
-65.6
  0
LINE
  8
0
 10
113.87
 20
-65.6
 11
114.256
 21
-65.6612
  0
LINE
  8
0
 10
114.256
 20
-65.6612
 11
114.605
 21
-65.8387
  0
LINE
  8
0
 10
114.605
 20
-65.8387
 11
114.881
 21
-66.1153
  0
LINE
  8
0
 10
114.881
 20
-66.1153
 11
115.059
 21
-66.4637
  0
LINE
  8
0
 10
115.059
 20
-66.4637
 11
115.12
 21
-66.85
  0
LINE
  8
0
 10
115.12
 20
-66.85
 11
115.059
 21
-67.2363
  0
LINE
  8
0
 10
115.059
 20
-67.2363
 11
114.881
 21
-67.5847
  0
LINE
  8
0
 10
114.881
 20
-67.5847
 11
114.605
 21
-67.8613
  0
LINE
  8
0
 10
114.605
 20
-67.8613
 11
114.256
 21
-68.0388
  0
LINE
  8
0
 10
114.256
 20
-68.0388
 11
113.87
 21
-68.1
  0
LINE
  8
0
 10
113.87
 20
-68.1
 11
113.484
 21
-68.0388
  0
LINE
  8
0
 10
80.7437
 20
-68.0388
 11
80.3953
 21
-67.8613
  0
LINE
  8
0
 10
80.3953
 20
-67.8613
 11
80.1187
 21
-67.5847
  0
LINE
  8
0
 10
80.1187
 20
-67.5847
 11
79.9412
 21
-67.2363
  0
LINE
  8
0
 10
79.9412
 20
-67.2363
 11
79.88
 21
-66.85
  0
LINE
  8
0
 10
79.88
 20
-66.85
 11
79.9412
 21
-66.4637
  0
LINE
  8
0
 10
79.9412
 20
-66.4637
 11
80.1187
 21
-66.1153
  0
LINE
  8
0
 10
80.1187
 20
-66.1153
 11
80.3953
 21
-65.8387
  0
LINE
  8
0
 10
80.3953
 20
-65.8387
 11
80.7437
 21
-65.6612
  0
LINE
  8
0
 10
80.7437
 20
-65.6612
 11
81.13
 21
-65.6
  0
LINE
  8
0
 10
81.13
 20
-65.6
 11
81.5163
 21
-65.6612
  0
LINE
  8
0
 10
81.5163
 20
-65.6612
 11
81.8647
 21
-65.8387
  0
LINE
  8
0
 10
81.8647
 20
-65.8387
 11
82.1413
 21
-66.1153
  0
LINE
  8
0
 10
82.1413
 20
-66.1153
 11
82.3188
 21
-66.4637
  0
LINE
  8
0
 10
82.3188
 20
-66.4637
 11
82.38
 21
-66.85
  0
LINE
  8
0
 10
82.38
 20
-66.85
 11
82.3188
 21
-67.2363
  0
LINE
  8
0
 10
82.3188
 20
-67.2363
 11
82.1413
 21
-67.5847
  0
LINE
  8
0
 10
82.1413
 20
-67.5847
 11
81.8647
 21
-67.8613
  0
LINE
  8
0
 10
81.8647
 20
-67.8613
 11
81.5163
 21
-68.0388
  0
LINE
  8
0
 10
81.5163
 20
-68.0388
 11
81.13
 21
-68.1
  0
LINE
  8
0
 10
81.13
 20
-68.1
 11
80.7437
 21
-68.0388
  0
LINE
  8
0
 10
-5.3531
 20
-73.9752
 11
-9.8517
 21
-71.683
  0
LINE
  8
0
 10
-9.8517
 20
-71.683
 11
-7.12181
 21
-66.5489
  0
LINE
  8
0
 10
-7.12181
 20
-66.5489
 11
-6.95706
 21
-66.7136
  0
LINE
  8
0
 10
-6.95706
 20
-66.7136
 11
-6.61282
 21
-66.9637
  0
LINE
  8
0
 10
-6.61282
 20
-66.9637
 11
-3.76939
 21
-68.4125
  0
LINE
  8
0
 10
-3.76939
 20
-68.4125
 11
-3.36472
 21
-68.544
  0
LINE
  8
0
 10
-3.36472
 20
-68.544
 11
-0.212738
 21
-69.0432
  0
LINE
  8
0
 10
-0.212738
 20
-69.0432
 11
0.212738
 21
-69.0432
  0
LINE
  8
0
 10
0.212738
 20
-69.0432
 11
3.36472
 21
-68.544
  0
LINE
  8
0
 10
3.36472
 20
-68.544
 11
3.76939
 21
-68.4125
  0
LINE
  8
0
 10
3.76939
 20
-68.4125
 11
6.61282
 21
-66.9637
  0
LINE
  8
0
 10
6.61282
 20
-66.9637
 11
6.95706
 21
-66.7136
  0
LINE
  8
0
 10
6.95706
 20
-66.7136
 11
7.12181
 21
-66.5489
  0
LINE
  8
0
 10
7.12181
 20
-66.5489
 11
9.8517
 21
-71.683
  0
LINE
  8
0
 10
9.8517
 20
-71.683
 11
5.3531
 21
-73.9752
  0
LINE
  8
0
 10
5.3531
 20
-73.9752
 11
0
 21
-74.823
  0
LINE
  8
0
 10
0
 20
-74.823
 11
-5.3531
 21
-73.9752
  0
LINE
  8
0
 10
-20.7863
 20
-79.0888
 11
-21.1347
 21
-78.9113
  0
LINE
  8
0
 10
-21.1347
 20
-78.9113
 11
-21.4113
 21
-78.6347
  0
LINE
  8
0
 10
-21.4113
 20
-78.6347
 11
-21.5888
 21
-78.2863
  0
LINE
  8
0
 10
-21.5888
 20
-78.2863
 11
-21.65
 21
-77.9
  0
LINE
  8
0
 10
-21.65
 20
-77.9
 11
-21.5888
 21
-77.5137
  0
LINE
  8
0
 10
-21.5888
 20
-77.5137
 11
-21.4113
 21
-77.1653
  0
LINE
  8
0
 10
-21.4113
 20
-77.1653
 11
-21.1347
 21
-76.8887
  0
LINE
  8
0
 10
-21.1347
 20
-76.8887
 11
-20.7863
 21
-76.7112
  0
LINE
  8
0
 10
-20.7863
 20
-76.7112
 11
-20.4
 21
-76.65
  0
LINE
  8
0
 10
-20.4
 20
-76.65
 11
-20.0137
 21
-76.7112
  0
LINE
  8
0
 10
-20.0137
 20
-76.7112
 11
-19.6653
 21
-76.8887
  0
LINE
  8
0
 10
-19.6653
 20
-76.8887
 11
-19.3887
 21
-77.1653
  0
LINE
  8
0
 10
-19.3887
 20
-77.1653
 11
-19.2112
 21
-77.5137
  0
LINE
  8
0
 10
-19.2112
 20
-77.5137
 11
-19.15
 21
-77.9
  0
LINE
  8
0
 10
-19.15
 20
-77.9
 11
-19.2112
 21
-78.2863
  0
LINE
  8
0
 10
-19.2112
 20
-78.2863
 11
-19.3887
 21
-78.6347
  0
LINE
  8
0
 10
-19.3887
 20
-78.6347
 11
-19.6653
 21
-78.9113
  0
LINE
  8
0
 10
-19.6653
 20
-78.9113
 11
-20.0137
 21
-79.0888
  0
LINE
  8
0
 10
-20.0137
 20
-79.0888
 11
-20.4
 21
-79.15
  0
LINE
  8
0
 10
-20.4
 20
-79.15
 11
-20.7863
 21
-79.0888
  0
LINE
  8
0
 10
20.0137
 20
-79.0888
 11
19.6653
 21
-78.9113
  0
LINE
  8
0
 10
19.6653
 20
-78.9113
 11
19.3887
 21
-78.6347
  0
LINE
  8
0
 10
19.3887
 20
-78.6347
 11
19.2112
 21
-78.2863
  0
LINE
  8
0
 10
19.2112
 20
-78.2863
 11
19.15
 21
-77.9
  0
LINE
  8
0
 10
19.15
 20
-77.9
 11
19.2112
 21
-77.5137
  0
LINE
  8
0
 10
19.2112
 20
-77.5137
 11
19.3887
 21
-77.1653
  0
LINE
  8
0
 10
19.3887
 20
-77.1653
 11
19.6653
 21
-76.8887
  0
LINE
  8
0
 10
19.6653
 20
-76.8887
 11
20.0137
 21
-76.7112
  0
LINE
  8
0
 10
20.0137
 20
-76.7112
 11
20.4
 21
-76.65
  0
LINE
  8
0
 10
20.4
 20
-76.65
 11
20.7863
 21
-76.7112
  0
LINE
  8
0
 10
20.7863
 20
-76.7112
 11
21.1347
 21
-76.8887
  0
LINE
  8
0
 10
21.1347
 20
-76.8887
 11
21.4113
 21
-77.1653
  0
LINE
  8
0
 10
21.4113
 20
-77.1653
 11
21.5888
 21
-77.5137
  0
LINE
  8
0
 10
21.5888
 20
-77.5137
 11
21.65
 21
-77.9
  0
LINE
  8
0
 10
21.65
 20
-77.9
 11
21.5888
 21
-78.2863
  0
LINE
  8
0
 10
21.5888
 20
-78.2863
 11
21.4113
 21
-78.6347
  0
LINE
  8
0
 10
21.4113
 20
-78.6347
 11
21.1347
 21
-78.9113
  0
LINE
  8
0
 10
21.1347
 20
-78.9113
 11
20.7863
 21
-79.0888
  0
LINE
  8
0
 10
20.7863
 20
-79.0888
 11
20.4
 21
-79.15
  0
LINE
  8
0
 10
20.4
 20
-79.15
 11
20.0137
 21
-79.0888
  0
LINE
  8
0
 10
129.459
 20
-98.6643
 11
128.971
 21
-98.4158
  0
LINE
  8
0
 10
128.971
 20
-98.4158
 11
128.584
 21
-98.0286
  0
LINE
  8
0
 10
128.584
 20
-98.0286
 11
128.336
 21
-97.5408
  0
LINE
  8
0
 10
128.336
 20
-97.5408
 11
128.25
 21
-97
  0
LINE
  8
0
 10
128.25
 20
-97
 11
128.336
 21
-96.4592
  0
LINE
  8
0
 10
128.336
 20
-96.4592
 11
128.584
 21
-95.9714
  0
LINE
  8
0
 10
128.584
 20
-95.9714
 11
128.971
 21
-95.5842
  0
LINE
  8
0
 10
128.971
 20
-95.5842
 11
129.459
 21
-95.3356
  0
LINE
  8
0
 10
129.459
 20
-95.3356
 11
130
 21
-95.25
  0
LINE
  8
0
 10
130
 20
-95.25
 11
130.541
 21
-95.3356
  0
LINE
  8
0
 10
130.541
 20
-95.3356
 11
131.029
 21
-95.5842
  0
LINE
  8
0
 10
131.029
 20
-95.5842
 11
131.416
 21
-95.9714
  0
LINE
  8
0
 10
131.416
 20
-95.9714
 11
131.664
 21
-96.4592
  0
LINE
  8
0
 10
131.664
 20
-96.4592
 11
131.75
 21
-97
  0
LINE
  8
0
 10
131.75
 20
-97
 11
131.664
 21
-97.5408
  0
LINE
  8
0
 10
131.664
 20
-97.5408
 11
131.416
 21
-98.0286
  0
LINE
  8
0
 10
131.416
 20
-98.0286
 11
131.029
 21
-98.4158
  0
LINE
  8
0
 10
131.029
 20
-98.4158
 11
130.541
 21
-98.6643
  0
LINE
  8
0
 10
130.541
 20
-98.6643
 11
130
 21
-98.75
  0
LINE
  8
0
 10
130
 20
-98.75
 11
129.459
 21
-98.6643
  0
LINE
  8
0
 10
-130.541
 20
-98.6643
 11
-131.029
 21
-98.4158
  0
LINE
  8
0
 10
-131.029
 20
-98.4158
 11
-131.416
 21
-98.0286
  0
LINE
  8
0
 10
-131.416
 20
-98.0286
 11
-131.664
 21
-97.5408
  0
LINE
  8
0
 10
-131.664
 20
-97.5408
 11
-131.75
 21
-97
  0
LINE
  8
0
 10
-131.75
 20
-97
 11
-131.664
 21
-96.4592
  0
LINE
  8
0
 10
-131.664
 20
-96.4592
 11
-131.416
 21
-95.9714
  0
LINE
  8
0
 10
-131.416
 20
-95.9714
 11
-131.029
 21
-95.5842
  0
LINE
  8
0
 10
-131.029
 20
-95.5842
 11
-130.541
 21
-95.3356
  0
LINE
  8
0
 10
-130.541
 20
-95.3356
 11
-130
 21
-95.25
  0
LINE
  8
0
 10
-130
 20
-95.25
 11
-129.459
 21
-95.3356
  0
LINE
  8
0
 10
-129.459
 20
-95.3356
 11
-128.971
 21
-95.5842
  0
LINE
  8
0
 10
-128.971
 20
-95.5842
 11
-128.584
 21
-95.9714
  0
LINE
  8
0
 10
-128.584
 20
-95.9714
 11
-128.336
 21
-96.4592
  0
LINE
  8
0
 10
-128.336
 20
-96.4592
 11
-128.25
 21
-97
  0
LINE
  8
0
 10
-128.25
 20
-97
 11
-128.336
 21
-97.5408
  0
LINE
  8
0
 10
-128.336
 20
-97.5408
 11
-128.584
 21
-98.0286
  0
LINE
  8
0
 10
-128.584
 20
-98.0286
 11
-128.971
 21
-98.4158
  0
LINE
  8
0
 10
-128.971
 20
-98.4158
 11
-129.459
 21
-98.6643
  0
LINE
  8
0
 10
-129.459
 20
-98.6643
 11
-130
 21
-98.75
  0
LINE
  8
0
 10
-130
 20
-98.75
 11
-130.541
 21
-98.6643
  0
LINE
  8
0
 10
64.4592
 20
-98.6643
 11
63.9714
 21
-98.4158
  0
LINE
  8
0
 10
63.9714
 20
-98.4158
 11
63.5842
 21
-98.0286
  0
LINE
  8
0
 10
63.5842
 20
-98.0286
 11
63.3356
 21
-97.5408
  0
LINE
  8
0
 10
63.3356
 20
-97.5408
 11
63.25
 21
-97
  0
LINE
  8
0
 10
63.25
 20
-97
 11
63.3356
 21
-96.4592
  0
LINE
  8
0
 10
63.3356
 20
-96.4592
 11
63.5842
 21
-95.9714
  0
LINE
  8
0
 10
63.5842
 20
-95.9714
 11
63.9714
 21
-95.5842
  0
LINE
  8
0
 10
63.9714
 20
-95.5842
 11
64.4592
 21
-95.3356
  0
LINE
  8
0
 10
64.4592
 20
-95.3356
 11
65
 21
-95.25
  0
LINE
  8
0
 10
65
 20
-95.25
 11
65.5408
 21
-95.3356
  0
LINE
  8
0
 10
65.5408
 20
-95.3356
 11
66.0286
 21
-95.5842
  0
LINE
  8
0
 10
66.0286
 20
-95.5842
 11
66.4158
 21
-95.9714
  0
LINE
  8
0
 10
66.4158
 20
-95.9714
 11
66.6643
 21
-96.4592
  0
LINE
  8
0
 10
66.6643
 20
-96.4592
 11
66.75
 21
-97
  0
LINE
  8
0
 10
66.75
 20
-97
 11
66.6643
 21
-97.5408
  0
LINE
  8
0
 10
66.6643
 20
-97.5408
 11
66.4158
 21
-98.0286
  0
LINE
  8
0
 10
66.4158
 20
-98.0286
 11
66.0286
 21
-98.4158
  0
LINE
  8
0
 10
66.0286
 20
-98.4158
 11
65.5408
 21
-98.6643
  0
LINE
  8
0
 10
65.5408
 20
-98.6643
 11
65
 21
-98.75
  0
LINE
  8
0
 10
65
 20
-98.75
 11
64.4592
 21
-98.6643
  0
LINE
  8
0
 10
-65.5408
 20
-98.6643
 11
-66.0286
 21
-98.4158
  0
LINE
  8
0
 10
-66.0286
 20
-98.4158
 11
-66.4158
 21
-98.0286
  0
LINE
  8
0
 10
-66.4158
 20
-98.0286
 11
-66.6643
 21
-97.5408
  0
LINE
  8
0
 10
-66.6643
 20
-97.5408
 11
-66.75
 21
-97
  0
LINE
  8
0
 10
-66.75
 20
-97
 11
-66.6643
 21
-96.4592
  0
LINE
  8
0
 10
-66.6643
 20
-96.4592
 11
-66.4158
 21
-95.9714
  0
LINE
  8
0
 10
-66.4158
 20
-95.9714
 11
-66.0286
 21
-95.5842
  0
LINE
  8
0
 10
-66.0286
 20
-95.5842
 11
-65.5408
 21
-95.3356
  0
LINE
  8
0
 10
-65.5408
 20
-95.3356
 11
-65
 21
-95.25
  0
LINE
  8
0
 10
-65
 20
-95.25
 11
-64.4592
 21
-95.3356
  0
LINE
  8
0
 10
-64.4592
 20
-95.3356
 11
-63.9714
 21
-95.5842
  0
LINE
  8
0
 10
-63.9714
 20
-95.5842
 11
-63.5842
 21
-95.9714
  0
LINE
  8
0
 10
-63.5842
 20
-95.9714
 11
-63.3356
 21
-96.4592
  0
LINE
  8
0
 10
-63.3356
 20
-96.4592
 11
-63.25
 21
-97
  0
LINE
  8
0
 10
-63.25
 20
-97
 11
-63.3356
 21
-97.5408
  0
LINE
  8
0
 10
-63.3356
 20
-97.5408
 11
-63.5842
 21
-98.0286
  0
LINE
  8
0
 10
-63.5842
 20
-98.0286
 11
-63.9714
 21
-98.4158
  0
LINE
  8
0
 10
-63.9714
 20
-98.4158
 11
-64.4592
 21
-98.6643
  0
LINE
  8
0
 10
-64.4592
 20
-98.6643
 11
-65
 21
-98.75
  0
LINE
  8
0
 10
-65
 20
-98.75
 11
-65.5408
 21
-98.6643
  0
LINE
  8
0
 10
-0.540771
 20
-98.6643
 11
-1.02861
 21
-98.4158
  0
LINE
  8
0
 10
-1.02861
 20
-98.4158
 11
-1.41577
 21
-98.0286
  0
LINE
  8
0
 10
-1.41577
 20
-98.0286
 11
-1.66434
 21
-97.5408
  0
LINE
  8
0
 10
-1.66434
 20
-97.5408
 11
-1.75
 21
-97
  0
LINE
  8
0
 10
-1.75
 20
-97
 11
-1.66434
 21
-96.4592
  0
LINE
  8
0
 10
-1.66434
 20
-96.4592
 11
-1.41577
 21
-95.9714
  0
LINE
  8
0
 10
-1.41577
 20
-95.9714
 11
-1.02861
 21
-95.5842
  0
LINE
  8
0
 10
-1.02861
 20
-95.5842
 11
-0.540771
 21
-95.3356
  0
LINE
  8
0
 10
-0.540771
 20
-95.3356
 11
0
 21
-95.25
  0
LINE
  8
0
 10
0
 20
-95.25
 11
0.540771
 21
-95.3356
  0
LINE
  8
0
 10
0.540771
 20
-95.3356
 11
1.02861
 21
-95.5842
  0
LINE
  8
0
 10
1.02861
 20
-95.5842
 11
1.41577
 21
-95.9714
  0
LINE
  8
0
 10
1.41577
 20
-95.9714
 11
1.66434
 21
-96.4592
  0
LINE
  8
0
 10
1.66434
 20
-96.4592
 11
1.75
 21
-97
  0
LINE
  8
0
 10
1.75
 20
-97
 11
1.66434
 21
-97.5408
  0
LINE
  8
0
 10
1.66434
 20
-97.5408
 11
1.41577
 21
-98.0286
  0
LINE
  8
0
 10
1.41577
 20
-98.0286
 11
1.02861
 21
-98.4158
  0
LINE
  8
0
 10
1.02861
 20
-98.4158
 11
0.540771
 21
-98.6643
  0
LINE
  8
0
 10
0.540771
 20
-98.6643
 11
0
 21
-98.75
  0
LINE
  8
0
 10
0
 20
-98.75
 11
-0.540771
 21
-98.6643
  0
ENDSEC
  0
SECTION
  2
OBJECTS
  0
DICTIONARY
  0
ENDSEC
  0
EOF
