  0
SECTION
  2
BLOCKS
  0
ENDSEC
  0
SECTION
  2
ENTITIES
  0
LINE
  8
0
 10
23.0503
 20
-24.1418
 11
23.5242
 21
-23.9003
  0
LINE
  8
0
 10
23.5242
 20
-23.9003
 11
23.9003
 21
-23.5242
  0
LINE
  8
0
 10
23.9003
 20
-23.5242
 11
24.1418
 21
-23.0503
  0
LINE
  8
0
 10
24.1418
 20
-23.0503
 11
24.225
 21
-22.525
  0
LINE
  8
0
 10
24.225
 20
-22.525
 11
24.225
 21
22.525
  0
LINE
  8
0
 10
24.225
 20
22.525
 11
24.1418
 21
23.0503
  0
LINE
  8
0
 10
24.1418
 20
23.0503
 11
23.9003
 21
23.5242
  0
LINE
  8
0
 10
23.9003
 20
23.5242
 11
23.5242
 21
23.9003
  0
LINE
  8
0
 10
23.5242
 20
23.9003
 11
23.0503
 21
24.1418
  0
LINE
  8
0
 10
23.0503
 20
24.1418
 11
22.525
 21
24.225
  0
LINE
  8
0
 10
22.525
 20
24.225
 11
15.0011
 21
24.225
  0
LINE
  8
0
 10
15.0011
 20
24.225
 11
11.485
 21
27.6205
  0
LINE
  8
0
 10
11.485
 20
27.6205
 11
10.8443
 21
28.0691
  0
LINE
  8
0
 10
10.8443
 20
28.0691
 11
8.85754
 21
29.0381
  0
LINE
  8
0
 10
8.85754
 20
29.0381
 11
8.10954
 21
29.2668
  0
LINE
  8
0
 10
8.10954
 20
29.2668
 11
7.3275
 21
29.2531
  0
LINE
  8
0
 10
7.3275
 20
29.2531
 11
6.58794
 21
28.9985
  0
LINE
  8
0
 10
6.58794
 20
28.9985
 11
5.96327
 21
28.5278
  0
LINE
  8
0
 10
5.96327
 20
28.5278
 11
5.51463
 21
27.887
  0
LINE
  8
0
 10
5.51463
 20
27.887
 11
5.47508
 21
27.7577
  0
LINE
  8
0
 10
5.47508
 20
27.7577
 11
-0.813065
 21
29.6802
  0
LINE
  8
0
 10
-0.813065
 20
29.6802
 11
-1.58762
 21
29.789
  0
LINE
  8
0
 10
-1.58762
 20
29.789
 11
-2.71767
 21
29.4968
  0
LINE
  8
0
 10
-2.71767
 20
29.4968
 11
-12.6325
 21
24.225
  0
LINE
  8
0
 10
-12.6325
 20
24.225
 11
-22.525
 21
24.225
  0
LINE
  8
0
 10
-22.525
 20
24.225
 11
-23.0503
 21
24.1418
  0
LINE
  8
0
 10
-23.0503
 20
24.1418
 11
-23.5242
 21
23.9003
  0
LINE
  8
0
 10
-23.5242
 20
23.9003
 11
-23.9003
 21
23.5242
  0
LINE
  8
0
 10
-23.9003
 20
23.5242
 11
-24.1418
 21
23.0503
  0
LINE
  8
0
 10
-24.1418
 20
23.0503
 11
-24.225
 21
22.525
  0
LINE
  8
0
 10
-24.225
 20
22.525
 11
-24.225
 21
8.42412
  0
LINE
  8
0
 10
-24.225
 20
8.42412
 11
-29.2957
 21
5.728
  0
LINE
  8
0
 10
-29.2957
 20
5.728
 11
-29.9203
 21
5.25728
  0
LINE
  8
0
 10
-29.9203
 20
5.25728
 11
-30.369
 21
4.61656
  0
LINE
  8
0
 10
-30.369
 20
4.61656
 11
-30.5977
 21
3.86856
  0
LINE
  8
0
 10
-30.5977
 20
3.86856
 11
-30.584
 21
3.08652
  0
LINE
  8
0
 10
-30.584
 20
3.08652
 11
-30.3294
 21
2.34695
  0
LINE
  8
0
 10
-30.3294
 20
2.34695
 11
-27.9351
 21
-2.15607
  0
LINE
  8
0
 10
-27.9351
 20
-2.15607
 11
-27.4643
 21
-2.78075
  0
LINE
  8
0
 10
-27.4643
 20
-2.78075
 11
-26.8236
 21
-3.22937
  0
LINE
  8
0
 10
-26.8236
 20
-3.22937
 11
-26.0756
 21
-3.45807
  0
LINE
  8
0
 10
-26.0756
 20
-3.45807
 11
-25.2936
 21
-3.44441
  0
LINE
  8
0
 10
-25.2936
 20
-3.44441
 11
-24.554
 21
-3.18976
  0
LINE
  8
0
 10
-24.554
 20
-3.18976
 11
-24.225
 21
-3.01482
  0
LINE
  8
0
 10
-24.225
 20
-3.01482
 11
-24.225
 21
-22.525
  0
LINE
  8
0
 10
-24.225
 20
-22.525
 11
-24.1418
 21
-23.0503
  0
LINE
  8
0
 10
-24.1418
 20
-23.0503
 11
-23.9003
 21
-23.5242
  0
LINE
  8
0
 10
-23.9003
 20
-23.5242
 11
-23.5242
 21
-23.9003
  0
LINE
  8
0
 10
-23.5242
 20
-23.9003
 11
-23.0503
 21
-24.1418
  0
LINE
  8
0
 10
-23.0503
 20
-24.1418
 11
-22.525
 21
-24.225
  0
LINE
  8
0
 10
-22.525
 20
-24.225
 11
22.525
 21
-24.225
  0
LINE
  8
0
 10
22.525
 20
-24.225
 11
23.0503
 21
-24.1418
  0
LINE
  8
0
 10
-20.7863
 20
19.2112
 11
-21.1347
 21
19.3887
  0
LINE
  8
0
 10
-21.1347
 20
19.3887
 11
-21.4113
 21
19.6653
  0
LINE
  8
0
 10
-21.4113
 20
19.6653
 11
-21.5888
 21
20.0137
  0
LINE
  8
0
 10
-21.5888
 20
20.0137
 11
-21.65
 21
20.4
  0
LINE
  8
0
 10
-21.65
 20
20.4
 11
-21.5888
 21
20.7863
  0
LINE
  8
0
 10
-21.5888
 20
20.7863
 11
-21.4113
 21
21.1347
  0
LINE
  8
0
 10
-21.4113
 20
21.1347
 11
-21.1347
 21
21.4113
  0
LINE
  8
0
 10
-21.1347
 20
21.4113
 11
-20.7863
 21
21.5888
  0
LINE
  8
0
 10
-20.7863
 20
21.5888
 11
-20.4
 21
21.65
  0
LINE
  8
0
 10
-20.4
 20
21.65
 11
-20.0137
 21
21.5888
  0
LINE
  8
0
 10
-20.0137
 20
21.5888
 11
-19.6653
 21
21.4113
  0
LINE
  8
0
 10
-19.6653
 20
21.4113
 11
-19.3887
 21
21.1347
  0
LINE
  8
0
 10
-19.3887
 20
21.1347
 11
-19.2112
 21
20.7863
  0
LINE
  8
0
 10
-19.2112
 20
20.7863
 11
-19.15
 21
20.4
  0
LINE
  8
0
 10
-19.15
 20
20.4
 11
-19.2112
 21
20.0137
  0
LINE
  8
0
 10
-19.2112
 20
20.0137
 11
-19.3887
 21
19.6653
  0
LINE
  8
0
 10
-19.3887
 20
19.6653
 11
-19.6653
 21
19.3887
  0
LINE
  8
0
 10
-19.6653
 20
19.3887
 11
-20.0137
 21
19.2112
  0
LINE
  8
0
 10
-20.0137
 20
19.2112
 11
-20.4
 21
19.15
  0
LINE
  8
0
 10
-20.4
 20
19.15
 11
-20.7863
 21
19.2112
  0
LINE
  8
0
 10
20.0137
 20
19.2112
 11
19.6653
 21
19.3887
  0
LINE
  8
0
 10
19.6653
 20
19.3887
 11
19.3887
 21
19.6653
  0
LINE
  8
0
 10
19.3887
 20
19.6653
 11
19.2112
 21
20.0137
  0
LINE
  8
0
 10
19.2112
 20
20.0137
 11
19.15
 21
20.4
  0
LINE
  8
0
 10
19.15
 20
20.4
 11
19.2112
 21
20.7863
  0
LINE
  8
0
 10
19.2112
 20
20.7863
 11
19.3887
 21
21.1347
  0
LINE
  8
0
 10
19.3887
 20
21.1347
 11
19.6653
 21
21.4113
  0
LINE
  8
0
 10
19.6653
 20
21.4113
 11
20.0137
 21
21.5888
  0
LINE
  8
0
 10
20.0137
 20
21.5888
 11
20.4
 21
21.65
  0
LINE
  8
0
 10
20.4
 20
21.65
 11
20.7863
 21
21.5888
  0
LINE
  8
0
 10
20.7863
 20
21.5888
 11
21.1347
 21
21.4113
  0
LINE
  8
0
 10
21.1347
 20
21.4113
 11
21.4113
 21
21.1347
  0
LINE
  8
0
 10
21.4113
 20
21.1347
 11
21.5888
 21
20.7863
  0
LINE
  8
0
 10
21.5888
 20
20.7863
 11
21.65
 21
20.4
  0
LINE
  8
0
 10
21.65
 20
20.4
 11
21.5888
 21
20.0137
  0
LINE
  8
0
 10
21.5888
 20
20.0137
 11
21.4113
 21
19.6653
  0
LINE
  8
0
 10
21.4113
 20
19.6653
 11
21.1347
 21
19.3887
  0
LINE
  8
0
 10
21.1347
 20
19.3887
 11
20.7863
 21
19.2112
  0
LINE
  8
0
 10
20.7863
 20
19.2112
 11
20.4
 21
19.15
  0
LINE
  8
0
 10
20.4
 20
19.15
 11
20.0137
 21
19.2112
  0
LINE
  8
0
 10
-20.7863
 20
-21.5888
 11
-21.1347
 21
-21.4113
  0
LINE
  8
0
 10
-21.1347
 20
-21.4113
 11
-21.4113
 21
-21.1347
  0
LINE
  8
0
 10
-21.4113
 20
-21.1347
 11
-21.5888
 21
-20.7863
  0
LINE
  8
0
 10
-21.5888
 20
-20.7863
 11
-21.65
 21
-20.4
  0
LINE
  8
0
 10
-21.65
 20
-20.4
 11
-21.5888
 21
-20.0137
  0
LINE
  8
0
 10
-21.5888
 20
-20.0137
 11
-21.4113
 21
-19.6653
  0
LINE
  8
0
 10
-21.4113
 20
-19.6653
 11
-21.1347
 21
-19.3887
  0
LINE
  8
0
 10
-21.1347
 20
-19.3887
 11
-20.7863
 21
-19.2112
  0
LINE
  8
0
 10
-20.7863
 20
-19.2112
 11
-20.4
 21
-19.15
  0
LINE
  8
0
 10
-20.4
 20
-19.15
 11
-20.0137
 21
-19.2112
  0
LINE
  8
0
 10
-20.0137
 20
-19.2112
 11
-19.6653
 21
-19.3887
  0
LINE
  8
0
 10
-19.6653
 20
-19.3887
 11
-19.3887
 21
-19.6653
  0
LINE
  8
0
 10
-19.3887
 20
-19.6653
 11
-19.2112
 21
-20.0137
  0
LINE
  8
0
 10
-19.2112
 20
-20.0137
 11
-19.15
 21
-20.4
  0
LINE
  8
0
 10
-19.15
 20
-20.4
 11
-19.2112
 21
-20.7863
  0
LINE
  8
0
 10
-19.2112
 20
-20.7863
 11
-19.3887
 21
-21.1347
  0
LINE
  8
0
 10
-19.3887
 20
-21.1347
 11
-19.6653
 21
-21.4113
  0
LINE
  8
0
 10
-19.6653
 20
-21.4113
 11
-20.0137
 21
-21.5888
  0
LINE
  8
0
 10
-20.0137
 20
-21.5888
 11
-20.4
 21
-21.65
  0
LINE
  8
0
 10
-20.4
 20
-21.65
 11
-20.7863
 21
-21.5888
  0
LINE
  8
0
 10
20.0137
 20
-21.5888
 11
19.6653
 21
-21.4113
  0
LINE
  8
0
 10
19.6653
 20
-21.4113
 11
19.3887
 21
-21.1347
  0
LINE
  8
0
 10
19.3887
 20
-21.1347
 11
19.2112
 21
-20.7863
  0
LINE
  8
0
 10
19.2112
 20
-20.7863
 11
19.15
 21
-20.4
  0
LINE
  8
0
 10
19.15
 20
-20.4
 11
19.2112
 21
-20.0137
  0
LINE
  8
0
 10
19.2112
 20
-20.0137
 11
19.3887
 21
-19.6653
  0
LINE
  8
0
 10
19.3887
 20
-19.6653
 11
19.6653
 21
-19.3887
  0
LINE
  8
0
 10
19.6653
 20
-19.3887
 11
20.0137
 21
-19.2112
  0
LINE
  8
0
 10
20.0137
 20
-19.2112
 11
20.4
 21
-19.15
  0
LINE
  8
0
 10
20.4
 20
-19.15
 11
20.7863
 21
-19.2112
  0
LINE
  8
0
 10
20.7863
 20
-19.2112
 11
21.1347
 21
-19.3887
  0
LINE
  8
0
 10
21.1347
 20
-19.3887
 11
21.4113
 21
-19.6653
  0
LINE
  8
0
 10
21.4113
 20
-19.6653
 11
21.5888
 21
-20.0137
  0
LINE
  8
0
 10
21.5888
 20
-20.0137
 11
21.65
 21
-20.4
  0
LINE
  8
0
 10
21.65
 20
-20.4
 11
21.5888
 21
-20.7863
  0
LINE
  8
0
 10
21.5888
 20
-20.7863
 11
21.4113
 21
-21.1347
  0
LINE
  8
0
 10
21.4113
 20
-21.1347
 11
21.1347
 21
-21.4113
  0
LINE
  8
0
 10
21.1347
 20
-21.4113
 11
20.7863
 21
-21.5888
  0
LINE
  8
0
 10
20.7863
 20
-21.5888
 11
20.4
 21
-21.65
  0
LINE
  8
0
 10
20.4
 20
-21.65
 11
20.0137
 21
-21.5888
  0
ENDSEC
  0
SECTION
  2
OBJECTS
  0
DICTIONARY
  0
ENDSEC
  0
EOF
