  0
SECTION
  2
BLOCKS
  0
ENDSEC
  0
SECTION
  2
ENTITIES
  0
LINE
  8
0
 10
7.48006
 20
-23.0213
 11
14.2279
 21
-19.5831
  0
LINE
  8
0
 10
14.2279
 20
-19.5831
 11
19.5831
 21
-14.2279
  0
LINE
  8
0
 10
19.5831
 20
-14.2279
 11
23.0213
 21
-7.48006
  0
LINE
  8
0
 10
23.0213
 20
-7.48006
 11
24.206
 21
0
  0
LINE
  8
0
 10
24.206
 20
0
 11
23.0213
 21
7.48006
  0
LINE
  8
0
 10
23.0213
 20
7.48006
 11
19.5831
 21
14.2279
  0
LINE
  8
0
 10
19.5831
 20
14.2279
 11
14.2279
 21
19.5831
  0
LINE
  8
0
 10
14.2279
 20
19.5831
 11
7.48006
 21
23.0213
  0
LINE
  8
0
 10
7.48006
 20
23.0213
 11
0
 21
24.206
  0
LINE
  8
0
 10
0
 20
24.206
 11
-7.48006
 21
23.0213
  0
LINE
  8
0
 10
-7.48006
 20
23.0213
 11
-14.2279
 21
19.5831
  0
LINE
  8
0
 10
-14.2279
 20
19.5831
 11
-19.5831
 21
14.2279
  0
LINE
  8
0
 10
-19.5831
 20
14.2279
 11
-23.0213
 21
7.48006
  0
LINE
  8
0
 10
-23.0213
 20
7.48006
 11
-24.206
 21
0
  0
LINE
  8
0
 10
-24.206
 20
0
 11
-23.0213
 21
-7.48006
  0
LINE
  8
0
 10
-23.0213
 20
-7.48006
 11
-19.5831
 21
-14.2279
  0
LINE
  8
0
 10
-19.5831
 20
-14.2279
 11
-14.2279
 21
-19.5831
  0
LINE
  8
0
 10
-14.2279
 20
-19.5831
 11
-7.48006
 21
-23.0213
  0
LINE
  8
0
 10
-7.48006
 20
-23.0213
 11
0
 21
-24.206
  0
LINE
  8
0
 10
0
 20
-24.206
 11
7.48006
 21
-23.0213
  0
LINE
  8
0
 10
-0.444199
 20
18.5163
 11
-0.84494
 21
18.7205
  0
LINE
  8
0
 10
-0.84494
 20
18.7205
 11
-1.16295
 21
19.0385
  0
LINE
  8
0
 10
-1.16295
 20
19.0385
 11
-1.36714
 21
19.4393
  0
LINE
  8
0
 10
-1.36714
 20
19.4393
 11
-1.4375
 21
19.8835
  0
LINE
  8
0
 10
-1.4375
 20
19.8835
 11
-1.36714
 21
20.3277
  0
LINE
  8
0
 10
-1.36714
 20
20.3277
 11
-1.16295
 21
20.7284
  0
LINE
  8
0
 10
-1.16295
 20
20.7284
 11
-0.84494
 21
21.0464
  0
LINE
  8
0
 10
-0.84494
 20
21.0464
 11
-0.444199
 21
21.2506
  0
LINE
  8
0
 10
-0.444199
 20
21.2506
 11
0
 21
21.321
  0
LINE
  8
0
 10
0
 20
21.321
 11
0.444199
 21
21.2506
  0
LINE
  8
0
 10
0.444199
 20
21.2506
 11
0.84494
 21
21.0464
  0
LINE
  8
0
 10
0.84494
 20
21.0464
 11
1.16295
 21
20.7284
  0
LINE
  8
0
 10
1.16295
 20
20.7284
 11
1.36714
 21
20.3277
  0
LINE
  8
0
 10
1.36714
 20
20.3277
 11
1.4375
 21
19.8835
  0
LINE
  8
0
 10
1.4375
 20
19.8835
 11
1.36714
 21
19.4393
  0
LINE
  8
0
 10
1.36714
 20
19.4393
 11
1.16295
 21
19.0385
  0
LINE
  8
0
 10
1.16295
 20
19.0385
 11
0.84494
 21
18.7205
  0
LINE
  8
0
 10
0.84494
 20
18.7205
 11
0.444199
 21
18.5163
  0
LINE
  8
0
 10
0.444199
 20
18.5163
 11
0
 21
18.446
  0
LINE
  8
0
 10
0
 20
18.446
 11
-0.444199
 21
18.5163
  0
LINE
  8
0
 10
-19.3545
 20
4.77719
 11
-19.7553
 21
4.98137
  0
LINE
  8
0
 10
-19.7553
 20
4.98137
 11
-20.0733
 21
5.29939
  0
LINE
  8
0
 10
-20.0733
 20
5.29939
 11
-20.2775
 21
5.70012
  0
LINE
  8
0
 10
-20.2775
 20
5.70012
 11
-20.3478
 21
6.14433
  0
LINE
  8
0
 10
-20.3478
 20
6.14433
 11
-20.2775
 21
6.58855
  0
LINE
  8
0
 10
-20.2775
 20
6.58855
 11
-20.0733
 21
6.98927
  0
LINE
  8
0
 10
-20.0733
 20
6.98927
 11
-19.7553
 21
7.3073
  0
LINE
  8
0
 10
-19.7553
 20
7.3073
 11
-19.3545
 21
7.51147
  0
LINE
  8
0
 10
-19.3545
 20
7.51147
 11
-18.9103
 21
7.58183
  0
LINE
  8
0
 10
-18.9103
 20
7.58183
 11
-18.4661
 21
7.51147
  0
LINE
  8
0
 10
-18.4661
 20
7.51147
 11
-18.0654
 21
7.3073
  0
LINE
  8
0
 10
-18.0654
 20
7.3073
 11
-17.7474
 21
6.98927
  0
LINE
  8
0
 10
-17.7474
 20
6.98927
 11
-17.5432
 21
6.58855
  0
LINE
  8
0
 10
-17.5432
 20
6.58855
 11
-17.4728
 21
6.14433
  0
LINE
  8
0
 10
-17.4728
 20
6.14433
 11
-17.5432
 21
5.70012
  0
LINE
  8
0
 10
-17.5432
 20
5.70012
 11
-17.7474
 21
5.29939
  0
LINE
  8
0
 10
-17.7474
 20
5.29939
 11
-18.0654
 21
4.98137
  0
LINE
  8
0
 10
-18.0654
 20
4.98137
 11
-18.4661
 21
4.77719
  0
LINE
  8
0
 10
-18.4661
 20
4.77719
 11
-18.9103
 21
4.70683
  0
LINE
  8
0
 10
-18.9103
 20
4.70683
 11
-19.3545
 21
4.77719
  0
LINE
  8
0
 10
18.4661
 20
4.77719
 11
18.0654
 21
4.98137
  0
LINE
  8
0
 10
18.0654
 20
4.98137
 11
17.7474
 21
5.29939
  0
LINE
  8
0
 10
17.7474
 20
5.29939
 11
17.5432
 21
5.70012
  0
LINE
  8
0
 10
17.5432
 20
5.70012
 11
17.4728
 21
6.14433
  0
LINE
  8
0
 10
17.4728
 20
6.14433
 11
17.5432
 21
6.58855
  0
LINE
  8
0
 10
17.5432
 20
6.58855
 11
17.7474
 21
6.98927
  0
LINE
  8
0
 10
17.7474
 20
6.98927
 11
18.0654
 21
7.3073
  0
LINE
  8
0
 10
18.0654
 20
7.3073
 11
18.4661
 21
7.51147
  0
LINE
  8
0
 10
18.4661
 20
7.51147
 11
18.9103
 21
7.58183
  0
LINE
  8
0
 10
18.9103
 20
7.58183
 11
19.3545
 21
7.51147
  0
LINE
  8
0
 10
19.3545
 20
7.51147
 11
19.7553
 21
7.3073
  0
LINE
  8
0
 10
19.7553
 20
7.3073
 11
20.0733
 21
6.98927
  0
LINE
  8
0
 10
20.0733
 20
6.98927
 11
20.2775
 21
6.58855
  0
LINE
  8
0
 10
20.2775
 20
6.58855
 11
20.3478
 21
6.14433
  0
LINE
  8
0
 10
20.3478
 20
6.14433
 11
20.2775
 21
5.70012
  0
LINE
  8
0
 10
20.2775
 20
5.70012
 11
20.0733
 21
5.29939
  0
LINE
  8
0
 10
20.0733
 20
5.29939
 11
19.7553
 21
4.98137
  0
LINE
  8
0
 10
19.7553
 20
4.98137
 11
19.3545
 21
4.77719
  0
LINE
  8
0
 10
19.3545
 20
4.77719
 11
18.9103
 21
4.70683
  0
LINE
  8
0
 10
18.9103
 20
4.70683
 11
18.4661
 21
4.77719
  0
LINE
  8
0
 10
-12.1314
 20
-17.4532
 11
-12.5322
 21
-17.249
  0
LINE
  8
0
 10
-12.5322
 20
-17.249
 11
-12.8502
 21
-16.931
  0
LINE
  8
0
 10
-12.8502
 20
-16.931
 11
-13.0544
 21
-16.5303
  0
LINE
  8
0
 10
-13.0544
 20
-16.5303
 11
-13.1247
 21
-16.0861
  0
LINE
  8
0
 10
-13.1247
 20
-16.0861
 11
-13.0544
 21
-15.6419
  0
LINE
  8
0
 10
-13.0544
 20
-15.6419
 11
-12.8502
 21
-15.2411
  0
LINE
  8
0
 10
-12.8502
 20
-15.2411
 11
-12.5322
 21
-14.9231
  0
LINE
  8
0
 10
-12.5322
 20
-14.9231
 11
-12.1314
 21
-14.7189
  0
LINE
  8
0
 10
-12.1314
 20
-14.7189
 11
-11.6872
 21
-14.6486
  0
LINE
  8
0
 10
-11.6872
 20
-14.6486
 11
-11.243
 21
-14.7189
  0
LINE
  8
0
 10
-11.243
 20
-14.7189
 11
-10.8423
 21
-14.9231
  0
LINE
  8
0
 10
-10.8423
 20
-14.9231
 11
-10.5243
 21
-15.2411
  0
LINE
  8
0
 10
-10.5243
 20
-15.2411
 11
-10.3201
 21
-15.6419
  0
LINE
  8
0
 10
-10.3201
 20
-15.6419
 11
-10.2497
 21
-16.0861
  0
LINE
  8
0
 10
-10.2497
 20
-16.0861
 11
-10.3201
 21
-16.5303
  0
LINE
  8
0
 10
-10.3201
 20
-16.5303
 11
-10.5243
 21
-16.931
  0
LINE
  8
0
 10
-10.5243
 20
-16.931
 11
-10.8423
 21
-17.249
  0
LINE
  8
0
 10
-10.8423
 20
-17.249
 11
-11.243
 21
-17.4532
  0
LINE
  8
0
 10
-11.243
 20
-17.4532
 11
-11.6872
 21
-17.5236
  0
LINE
  8
0
 10
-11.6872
 20
-17.5236
 11
-12.1314
 21
-17.4532
  0
LINE
  8
0
 10
11.243
 20
-17.4532
 11
10.8423
 21
-17.249
  0
LINE
  8
0
 10
10.8423
 20
-17.249
 11
10.5243
 21
-16.931
  0
LINE
  8
0
 10
10.5243
 20
-16.931
 11
10.3201
 21
-16.5303
  0
LINE
  8
0
 10
10.3201
 20
-16.5303
 11
10.2497
 21
-16.0861
  0
LINE
  8
0
 10
10.2497
 20
-16.0861
 11
10.3201
 21
-15.6419
  0
LINE
  8
0
 10
10.3201
 20
-15.6419
 11
10.5243
 21
-15.2411
  0
LINE
  8
0
 10
10.5243
 20
-15.2411
 11
10.8423
 21
-14.9231
  0
LINE
  8
0
 10
10.8423
 20
-14.9231
 11
11.243
 21
-14.7189
  0
LINE
  8
0
 10
11.243
 20
-14.7189
 11
11.6872
 21
-14.6486
  0
LINE
  8
0
 10
11.6872
 20
-14.6486
 11
12.1314
 21
-14.7189
  0
LINE
  8
0
 10
12.1314
 20
-14.7189
 11
12.5322
 21
-14.9231
  0
LINE
  8
0
 10
12.5322
 20
-14.9231
 11
12.8502
 21
-15.2411
  0
LINE
  8
0
 10
12.8502
 20
-15.2411
 11
13.0544
 21
-15.6419
  0
LINE
  8
0
 10
13.0544
 20
-15.6419
 11
13.1247
 21
-16.0861
  0
LINE
  8
0
 10
13.1247
 20
-16.0861
 11
13.0544
 21
-16.5303
  0
LINE
  8
0
 10
13.0544
 20
-16.5303
 11
12.8502
 21
-16.931
  0
LINE
  8
0
 10
12.8502
 20
-16.931
 11
12.5322
 21
-17.249
  0
LINE
  8
0
 10
12.5322
 20
-17.249
 11
12.1314
 21
-17.4532
  0
LINE
  8
0
 10
12.1314
 20
-17.4532
 11
11.6872
 21
-17.5236
  0
LINE
  8
0
 10
11.6872
 20
-17.5236
 11
11.243
 21
-17.4532
  0
ENDSEC
  0
SECTION
  2
OBJECTS
  0
DICTIONARY
  0
ENDSEC
  0
EOF
