  0
SECTION
  2
BLOCKS
  0
ENDSEC
  0
SECTION
  2
ENTITIES
  0
LINE
  8
0
 10
39.5437
 20
-19.2343
 11
42.1696
 21
-17.5334
  0
LINE
  8
0
 10
42.1696
 20
-17.5334
 11
44.1413
 21
-15.1042
  0
LINE
  8
0
 10
44.1413
 20
-15.1042
 11
51.1052
 21
-3.07446
  0
LINE
  8
0
 10
51.1052
 20
-3.07446
 11
51.5555
 21
-1.90543
  0
LINE
  8
0
 10
51.5555
 20
-1.90543
 11
52.6408
 21
-1.27968
  0
LINE
  8
0
 10
52.6408
 20
-1.27968
 11
62.5085
 21
6.70158
  0
LINE
  8
0
 10
62.5085
 20
6.70158
 11
64.0096
 21
6.93935
  0
LINE
  8
0
 10
64.0096
 20
6.93935
 11
65.4034
 21
7.64955
  0
LINE
  8
0
 10
65.4034
 20
7.64955
 11
66.5096
 21
8.75571
  0
LINE
  8
0
 10
66.5096
 20
8.75571
 11
66.6028
 21
8.93852
  0
LINE
  8
0
 10
66.6028
 20
8.93852
 11
78.744
 21
12.8834
  0
LINE
  8
0
 10
78.744
 20
12.8834
 11
81.0669
 21
14.067
  0
LINE
  8
0
 10
81.0669
 20
14.067
 11
83.6419
 21
14.4749
  0
LINE
  8
0
 10
83.6419
 20
14.4749
 11
96.8616
 21
18.7702
  0
LINE
  8
0
 10
96.8616
 20
18.7702
 11
99.6493
 21
20.1906
  0
LINE
  8
0
 10
99.6493
 20
20.1906
 11
101.862
 21
22.4029
  0
LINE
  8
0
 10
101.862
 20
22.4029
 11
103.282
 21
25.1906
  0
LINE
  8
0
 10
103.282
 20
25.1906
 11
103.771
 21
28.2808
  0
LINE
  8
0
 10
103.771
 20
28.2808
 11
103.282
 21
31.371
  0
LINE
  8
0
 10
103.282
 20
31.371
 11
101.654
 21
36.3819
  0
LINE
  8
0
 10
101.654
 20
36.3819
 11
101.554
 21
37.0131
  0
LINE
  8
0
 10
101.554
 20
37.0131
 11
101.264
 21
37.5825
  0
LINE
  8
0
 10
101.264
 20
37.5825
 11
100.223
 21
40.7864
  0
LINE
  8
0
 10
100.223
 20
40.7864
 11
132.654
 21
51.3239
  0
LINE
  8
0
 10
132.654
 20
51.3239
 11
133.769
 21
51.892
  0
LINE
  8
0
 10
133.769
 20
51.892
 11
134.654
 21
52.777
  0
LINE
  8
0
 10
134.654
 20
52.777
 11
135.222
 21
53.892
  0
LINE
  8
0
 10
135.222
 20
53.892
 11
135.418
 21
55.1281
  0
LINE
  8
0
 10
135.418
 20
55.1281
 11
135.222
 21
56.3642
  0
LINE
  8
0
 10
135.222
 20
56.3642
 11
114.209
 21
121.036
  0
LINE
  8
0
 10
114.209
 20
121.036
 11
113.641
 21
122.151
  0
LINE
  8
0
 10
113.641
 20
122.151
 11
112.756
 21
123.036
  0
LINE
  8
0
 10
112.756
 20
123.036
 11
111.641
 21
123.604
  0
LINE
  8
0
 10
111.641
 20
123.604
 11
110.404
 21
123.8
  0
LINE
  8
0
 10
110.404
 20
123.8
 11
109.168
 21
123.604
  0
LINE
  8
0
 10
109.168
 20
123.604
 11
18.0561
 21
94
  0
LINE
  8
0
 10
18.0561
 20
94
 11
-18.0561
 21
94
  0
LINE
  8
0
 10
-18.0561
 20
94
 11
-109.168
 21
123.604
  0
LINE
  8
0
 10
-109.168
 20
123.604
 11
-110.404
 21
123.8
  0
LINE
  8
0
 10
-110.404
 20
123.8
 11
-111.641
 21
123.604
  0
LINE
  8
0
 10
-111.641
 20
123.604
 11
-112.756
 21
123.036
  0
LINE
  8
0
 10
-112.756
 20
123.036
 11
-113.641
 21
122.151
  0
LINE
  8
0
 10
-113.641
 20
122.151
 11
-114.209
 21
121.036
  0
LINE
  8
0
 10
-114.209
 20
121.036
 11
-135.222
 21
56.3642
  0
LINE
  8
0
 10
-135.222
 20
56.3642
 11
-135.418
 21
55.1281
  0
LINE
  8
0
 10
-135.418
 20
55.1281
 11
-135.222
 21
53.892
  0
LINE
  8
0
 10
-135.222
 20
53.892
 11
-134.654
 21
52.777
  0
LINE
  8
0
 10
-134.654
 20
52.777
 11
-133.769
 21
51.892
  0
LINE
  8
0
 10
-133.769
 20
51.892
 11
-132.654
 21
51.3239
  0
LINE
  8
0
 10
-132.654
 20
51.3239
 11
-100.223
 21
40.7864
  0
LINE
  8
0
 10
-100.223
 20
40.7864
 11
-101.264
 21
37.5825
  0
LINE
  8
0
 10
-101.264
 20
37.5825
 11
-101.554
 21
37.0131
  0
LINE
  8
0
 10
-101.554
 20
37.0131
 11
-101.654
 21
36.3819
  0
LINE
  8
0
 10
-101.654
 20
36.3819
 11
-103.282
 21
31.371
  0
LINE
  8
0
 10
-103.282
 20
31.371
 11
-103.771
 21
28.2808
  0
LINE
  8
0
 10
-103.771
 20
28.2808
 11
-103.282
 21
25.1906
  0
LINE
  8
0
 10
-103.282
 20
25.1906
 11
-101.862
 21
22.4029
  0
LINE
  8
0
 10
-101.862
 20
22.4029
 11
-99.6493
 21
20.1906
  0
LINE
  8
0
 10
-99.6493
 20
20.1906
 11
-96.8616
 21
18.7702
  0
LINE
  8
0
 10
-96.8616
 20
18.7702
 11
-83.6419
 21
14.4749
  0
LINE
  8
0
 10
-83.6419
 20
14.4749
 11
-81.0669
 21
14.067
  0
LINE
  8
0
 10
-81.0669
 20
14.067
 11
-78.744
 21
12.8834
  0
LINE
  8
0
 10
-78.744
 20
12.8834
 11
-66.6028
 21
8.93852
  0
LINE
  8
0
 10
-66.6028
 20
8.93852
 11
-66.5096
 21
8.75571
  0
LINE
  8
0
 10
-66.5096
 20
8.75571
 11
-65.4034
 21
7.64955
  0
LINE
  8
0
 10
-65.4034
 20
7.64955
 11
-64.0096
 21
6.93935
  0
LINE
  8
0
 10
-64.0096
 20
6.93935
 11
-62.5085
 21
6.70158
  0
LINE
  8
0
 10
-62.5085
 20
6.70158
 11
-52.6408
 21
-1.27968
  0
LINE
  8
0
 10
-52.6408
 20
-1.27968
 11
-51.5555
 21
-1.90543
  0
LINE
  8
0
 10
-51.5555
 20
-1.90543
 11
-51.1052
 21
-3.07446
  0
LINE
  8
0
 10
-51.1052
 20
-3.07446
 11
-44.1413
 21
-15.1042
  0
LINE
  8
0
 10
-44.1413
 20
-15.1042
 11
-42.1696
 21
-17.5334
  0
LINE
  8
0
 10
-42.1696
 20
-17.5334
 11
-39.5437
 21
-19.2343
  0
LINE
  8
0
 10
-39.5437
 20
-19.2343
 11
-36.5207
 21
-20.0406
  0
LINE
  8
0
 10
-36.5207
 20
-20.0406
 11
-33.3965
 21
-19.8733
  0
LINE
  8
0
 10
-33.3965
 20
-19.8733
 11
-30.4769
 21
-18.7487
  0
LINE
  8
0
 10
-30.4769
 20
-18.7487
 11
-27.5631
 21
-17.0619
  0
LINE
  8
0
 10
-27.5631
 20
-17.0619
 11
-27.2652
 21
-17.3599
  0
LINE
  8
0
 10
-27.2652
 20
-17.3599
 11
-25.8713
 21
-18.0701
  0
LINE
  8
0
 10
-25.8713
 20
-18.0701
 11
-24.3262
 21
-18.3148
  0
LINE
  8
0
 10
-24.3262
 20
-18.3148
 11
-22.7811
 21
-18.0701
  0
LINE
  8
0
 10
-22.7811
 20
-18.0701
 11
-21.3873
 21
-17.3599
  0
LINE
  8
0
 10
-21.3873
 20
-17.3599
 11
-20.2811
 21
-16.2537
  0
LINE
  8
0
 10
-20.2811
 20
-16.2537
 11
-19.571
 21
-14.8599
  0
LINE
  8
0
 10
-19.571
 20
-14.8599
 11
-19.3262
 21
-13.3148
  0
LINE
  8
0
 10
-19.3262
 20
-13.3148
 11
-19.4744
 21
-12.3795
  0
LINE
  8
0
 10
-19.4744
 20
-12.3795
 11
-18.4471
 21
-11.7848
  0
LINE
  8
0
 10
-18.4471
 20
-11.7848
 11
-16.2482
 21
-10
  0
LINE
  8
0
 10
-16.2482
 20
-10
 11
16.2482
 21
-10
  0
LINE
  8
0
 10
16.2482
 20
-10
 11
18.4471
 21
-11.7848
  0
LINE
  8
0
 10
18.4471
 20
-11.7848
 11
19.4744
 21
-12.3795
  0
LINE
  8
0
 10
19.4744
 20
-12.3795
 11
19.3262
 21
-13.3148
  0
LINE
  8
0
 10
19.3262
 20
-13.3148
 11
19.571
 21
-14.8599
  0
LINE
  8
0
 10
19.571
 20
-14.8599
 11
20.2811
 21
-16.2537
  0
LINE
  8
0
 10
20.2811
 20
-16.2537
 11
21.3873
 21
-17.3599
  0
LINE
  8
0
 10
21.3873
 20
-17.3599
 11
22.7811
 21
-18.0701
  0
LINE
  8
0
 10
22.7811
 20
-18.0701
 11
24.3262
 21
-18.3148
  0
LINE
  8
0
 10
24.3262
 20
-18.3148
 11
25.8713
 21
-18.0701
  0
LINE
  8
0
 10
25.8713
 20
-18.0701
 11
27.2652
 21
-17.3599
  0
LINE
  8
0
 10
27.2652
 20
-17.3599
 11
27.5631
 21
-17.0619
  0
LINE
  8
0
 10
27.5631
 20
-17.0619
 11
30.4769
 21
-18.7487
  0
LINE
  8
0
 10
30.4769
 20
-18.7487
 11
33.3965
 21
-19.8733
  0
LINE
  8
0
 10
33.3965
 20
-19.8733
 11
36.5207
 21
-20.0406
  0
LINE
  8
0
 10
36.5207
 20
-20.0406
 11
39.5437
 21
-19.2343
  0
LINE
  8
0
 10
109.222
 20
116.876
 11
108.734
 21
117.124
  0
LINE
  8
0
 10
108.734
 20
117.124
 11
108.347
 21
117.511
  0
LINE
  8
0
 10
108.347
 20
117.511
 11
108.098
 21
117.999
  0
LINE
  8
0
 10
108.098
 20
117.999
 11
108.012
 21
118.54
  0
LINE
  8
0
 10
108.012
 20
118.54
 11
108.098
 21
119.081
  0
LINE
  8
0
 10
108.098
 20
119.081
 11
108.347
 21
119.569
  0
LINE
  8
0
 10
108.347
 20
119.569
 11
108.734
 21
119.956
  0
LINE
  8
0
 10
108.734
 20
119.956
 11
109.222
 21
120.204
  0
LINE
  8
0
 10
109.222
 20
120.204
 11
109.762
 21
120.29
  0
LINE
  8
0
 10
109.762
 20
120.29
 11
110.303
 21
120.204
  0
LINE
  8
0
 10
110.303
 20
120.204
 11
110.791
 21
119.956
  0
LINE
  8
0
 10
110.791
 20
119.956
 11
111.178
 21
119.568
  0
LINE
  8
0
 10
111.178
 20
119.568
 11
111.427
 21
119.081
  0
LINE
  8
0
 10
111.427
 20
119.081
 11
111.512
 21
118.54
  0
LINE
  8
0
 10
111.512
 20
118.54
 11
111.427
 21
117.999
  0
LINE
  8
0
 10
111.427
 20
117.999
 11
111.178
 21
117.511
  0
LINE
  8
0
 10
111.178
 20
117.511
 11
110.791
 21
117.124
  0
LINE
  8
0
 10
110.791
 20
117.124
 11
110.303
 21
116.876
  0
LINE
  8
0
 10
110.303
 20
116.876
 11
109.762
 21
116.79
  0
LINE
  8
0
 10
109.762
 20
116.79
 11
109.222
 21
116.876
  0
LINE
  8
0
 10
-110.303
 20
116.876
 11
-110.791
 21
117.124
  0
LINE
  8
0
 10
-110.791
 20
117.124
 11
-111.178
 21
117.511
  0
LINE
  8
0
 10
-111.178
 20
117.511
 11
-111.427
 21
117.999
  0
LINE
  8
0
 10
-111.427
 20
117.999
 11
-111.512
 21
118.54
  0
LINE
  8
0
 10
-111.512
 20
118.54
 11
-111.427
 21
119.081
  0
LINE
  8
0
 10
-111.427
 20
119.081
 11
-111.178
 21
119.568
  0
LINE
  8
0
 10
-111.178
 20
119.568
 11
-110.791
 21
119.956
  0
LINE
  8
0
 10
-110.791
 20
119.956
 11
-110.303
 21
120.204
  0
LINE
  8
0
 10
-110.303
 20
120.204
 11
-109.762
 21
120.29
  0
LINE
  8
0
 10
-109.762
 20
120.29
 11
-109.222
 21
120.204
  0
LINE
  8
0
 10
-109.222
 20
120.204
 11
-108.734
 21
119.956
  0
LINE
  8
0
 10
-108.734
 20
119.956
 11
-108.347
 21
119.569
  0
LINE
  8
0
 10
-108.347
 20
119.569
 11
-108.098
 21
119.081
  0
LINE
  8
0
 10
-108.098
 20
119.081
 11
-108.012
 21
118.54
  0
LINE
  8
0
 10
-108.012
 20
118.54
 11
-108.098
 21
117.999
  0
LINE
  8
0
 10
-108.098
 20
117.999
 11
-108.347
 21
117.511
  0
LINE
  8
0
 10
-108.347
 20
117.511
 11
-108.734
 21
117.124
  0
LINE
  8
0
 10
-108.734
 20
117.124
 11
-109.222
 21
116.876
  0
LINE
  8
0
 10
-109.222
 20
116.876
 11
-109.762
 21
116.79
  0
LINE
  8
0
 10
-109.762
 20
116.79
 11
-110.303
 21
116.876
  0
LINE
  8
0
 10
80.69
 20
107.605
 11
80.2021
 21
107.854
  0
LINE
  8
0
 10
80.2021
 20
107.854
 11
79.815
 21
108.241
  0
LINE
  8
0
 10
79.815
 20
108.241
 11
79.5664
 21
108.729
  0
LINE
  8
0
 10
79.5664
 20
108.729
 11
79.4808
 21
109.269
  0
LINE
  8
0
 10
79.4808
 20
109.269
 11
79.5664
 21
109.81
  0
LINE
  8
0
 10
79.5664
 20
109.81
 11
79.815
 21
110.298
  0
LINE
  8
0
 10
79.815
 20
110.298
 11
80.2021
 21
110.685
  0
LINE
  8
0
 10
80.2021
 20
110.685
 11
80.69
 21
110.934
  0
LINE
  8
0
 10
80.69
 20
110.934
 11
81.2308
 21
111.019
  0
LINE
  8
0
 10
81.2308
 20
111.019
 11
81.7715
 21
110.934
  0
LINE
  8
0
 10
81.7715
 20
110.934
 11
82.2594
 21
110.685
  0
LINE
  8
0
 10
82.2594
 20
110.685
 11
82.6465
 21
110.298
  0
LINE
  8
0
 10
82.6465
 20
110.298
 11
82.8951
 21
109.81
  0
LINE
  8
0
 10
82.8951
 20
109.81
 11
82.9807
 21
109.269
  0
LINE
  8
0
 10
82.9807
 20
109.269
 11
82.8951
 21
108.729
  0
LINE
  8
0
 10
82.8951
 20
108.729
 11
82.6465
 21
108.241
  0
LINE
  8
0
 10
82.6465
 20
108.241
 11
82.2594
 21
107.854
  0
LINE
  8
0
 10
82.2594
 20
107.854
 11
81.7715
 21
107.605
  0
LINE
  8
0
 10
81.7715
 20
107.605
 11
81.2308
 21
107.519
  0
LINE
  8
0
 10
81.2308
 20
107.519
 11
80.69
 21
107.605
  0
LINE
  8
0
 10
-81.7715
 20
107.605
 11
-82.2594
 21
107.854
  0
LINE
  8
0
 10
-82.2594
 20
107.854
 11
-82.6465
 21
108.241
  0
LINE
  8
0
 10
-82.6465
 20
108.241
 11
-82.8951
 21
108.729
  0
LINE
  8
0
 10
-82.8951
 20
108.729
 11
-82.9807
 21
109.269
  0
LINE
  8
0
 10
-82.9807
 20
109.269
 11
-82.8951
 21
109.81
  0
LINE
  8
0
 10
-82.8951
 20
109.81
 11
-82.6465
 21
110.298
  0
LINE
  8
0
 10
-82.6465
 20
110.298
 11
-82.2594
 21
110.685
  0
LINE
  8
0
 10
-82.2594
 20
110.685
 11
-81.7715
 21
110.934
  0
LINE
  8
0
 10
-81.7715
 20
110.934
 11
-81.2308
 21
111.019
  0
LINE
  8
0
 10
-81.2308
 20
111.019
 11
-80.69
 21
110.934
  0
LINE
  8
0
 10
-80.69
 20
110.934
 11
-80.2021
 21
110.685
  0
LINE
  8
0
 10
-80.2021
 20
110.685
 11
-79.815
 21
110.298
  0
LINE
  8
0
 10
-79.815
 20
110.298
 11
-79.5664
 21
109.81
  0
LINE
  8
0
 10
-79.5664
 20
109.81
 11
-79.4808
 21
109.269
  0
LINE
  8
0
 10
-79.4808
 20
109.269
 11
-79.5664
 21
108.729
  0
LINE
  8
0
 10
-79.5664
 20
108.729
 11
-79.815
 21
108.241
  0
LINE
  8
0
 10
-79.815
 20
108.241
 11
-80.2021
 21
107.854
  0
LINE
  8
0
 10
-80.2021
 20
107.854
 11
-80.69
 21
107.605
  0
LINE
  8
0
 10
-80.69
 20
107.605
 11
-81.2308
 21
107.519
  0
LINE
  8
0
 10
-81.2308
 20
107.519
 11
-81.7715
 21
107.605
  0
LINE
  8
0
 10
94.5686
 20
104.14
 11
107.788
 21
108.435
  0
LINE
  8
0
 10
107.788
 20
108.435
 11
112.084
 21
95.2156
  0
LINE
  8
0
 10
112.084
 20
95.2156
 11
98.864
 21
90.9203
  0
LINE
  8
0
 10
98.864
 20
90.9203
 11
94.5686
 21
104.14
  0
LINE
  8
0
 10
-112.084
 20
95.2156
 11
-107.788
 21
108.435
  0
LINE
  8
0
 10
-107.788
 20
108.435
 11
-94.5686
 21
104.14
  0
LINE
  8
0
 10
-94.5686
 20
104.14
 11
-98.864
 21
90.9203
  0
LINE
  8
0
 10
-98.864
 20
90.9203
 11
-112.084
 21
95.2156
  0
LINE
  8
0
 10
75.833
 20
100.155
 11
89.0527
 21
104.451
  0
LINE
  8
0
 10
89.0527
 20
104.451
 11
93.348
 21
91.2309
  0
LINE
  8
0
 10
93.348
 20
91.2309
 11
80.1283
 21
86.9356
  0
LINE
  8
0
 10
80.1283
 20
86.9356
 11
75.833
 21
100.155
  0
LINE
  8
0
 10
-93.348
 20
91.2309
 11
-89.0527
 21
104.451
  0
LINE
  8
0
 10
-89.0527
 20
104.451
 11
-75.833
 21
100.155
  0
LINE
  8
0
 10
-75.833
 20
100.155
 11
-80.1283
 21
86.9356
  0
LINE
  8
0
 10
-80.1283
 20
86.9356
 11
-93.348
 21
91.2309
  0
LINE
  8
0
 10
52.1583
 20
98.3345
 11
51.6704
 21
98.5831
  0
LINE
  8
0
 10
51.6704
 20
98.5831
 11
51.2833
 21
98.9702
  0
LINE
  8
0
 10
51.2833
 20
98.9702
 11
51.0347
 21
99.4581
  0
LINE
  8
0
 10
51.0347
 20
99.4581
 11
50.9491
 21
99.9989
  0
LINE
  8
0
 10
50.9491
 20
99.9989
 11
51.0347
 21
100.54
  0
LINE
  8
0
 10
51.0347
 20
100.54
 11
51.2833
 21
101.027
  0
LINE
  8
0
 10
51.2833
 20
101.027
 11
51.6704
 21
101.415
  0
LINE
  8
0
 10
51.6704
 20
101.415
 11
52.1583
 21
101.663
  0
LINE
  8
0
 10
52.1583
 20
101.663
 11
52.6991
 21
101.749
  0
LINE
  8
0
 10
52.6991
 20
101.749
 11
53.2398
 21
101.663
  0
LINE
  8
0
 10
53.2398
 20
101.663
 11
53.7277
 21
101.415
  0
LINE
  8
0
 10
53.7277
 20
101.415
 11
54.1148
 21
101.027
  0
LINE
  8
0
 10
54.1148
 20
101.027
 11
54.3634
 21
100.54
  0
LINE
  8
0
 10
54.3634
 20
100.54
 11
54.4491
 21
99.9989
  0
LINE
  8
0
 10
54.4491
 20
99.9989
 11
54.3634
 21
99.4581
  0
LINE
  8
0
 10
54.3634
 20
99.4581
 11
54.1148
 21
98.9702
  0
LINE
  8
0
 10
54.1148
 20
98.9702
 11
53.7277
 21
98.5831
  0
LINE
  8
0
 10
53.7277
 20
98.5831
 11
53.2398
 21
98.3345
  0
LINE
  8
0
 10
53.2398
 20
98.3345
 11
52.6991
 21
98.2489
  0
LINE
  8
0
 10
52.6991
 20
98.2489
 11
52.1583
 21
98.3345
  0
LINE
  8
0
 10
-53.2398
 20
98.3345
 11
-53.7277
 21
98.5831
  0
LINE
  8
0
 10
-53.7277
 20
98.5831
 11
-54.1148
 21
98.9702
  0
LINE
  8
0
 10
-54.1148
 20
98.9702
 11
-54.3634
 21
99.4581
  0
LINE
  8
0
 10
-54.3634
 20
99.4581
 11
-54.4491
 21
99.9989
  0
LINE
  8
0
 10
-54.4491
 20
99.9989
 11
-54.3634
 21
100.54
  0
LINE
  8
0
 10
-54.3634
 20
100.54
 11
-54.1148
 21
101.027
  0
LINE
  8
0
 10
-54.1148
 20
101.027
 11
-53.7277
 21
101.415
  0
LINE
  8
0
 10
-53.7277
 20
101.415
 11
-53.2398
 21
101.663
  0
LINE
  8
0
 10
-53.2398
 20
101.663
 11
-52.6991
 21
101.749
  0
LINE
  8
0
 10
-52.6991
 20
101.749
 11
-52.1583
 21
101.663
  0
LINE
  8
0
 10
-52.1583
 20
101.663
 11
-51.6704
 21
101.415
  0
LINE
  8
0
 10
-51.6704
 20
101.415
 11
-51.2833
 21
101.027
  0
LINE
  8
0
 10
-51.2833
 20
101.027
 11
-51.0347
 21
100.54
  0
LINE
  8
0
 10
-51.0347
 20
100.54
 11
-50.9491
 21
99.9989
  0
LINE
  8
0
 10
-50.9491
 20
99.9989
 11
-51.0347
 21
99.4581
  0
LINE
  8
0
 10
-51.0347
 20
99.4581
 11
-51.2833
 21
98.9702
  0
LINE
  8
0
 10
-51.2833
 20
98.9702
 11
-51.6704
 21
98.5831
  0
LINE
  8
0
 10
-51.6704
 20
98.5831
 11
-52.1583
 21
98.3345
  0
LINE
  8
0
 10
-52.1583
 20
98.3345
 11
-52.6991
 21
98.2489
  0
LINE
  8
0
 10
-52.6991
 20
98.2489
 11
-53.2398
 21
98.3345
  0
LINE
  8
0
 10
-74.6123
 20
87.2463
 11
-70.317
 21
100.466
  0
LINE
  8
0
 10
-70.317
 20
100.466
 11
-57.0973
 21
96.1706
  0
LINE
  8
0
 10
-57.0973
 20
96.1706
 11
-61.3927
 21
82.9509
  0
LINE
  8
0
 10
-61.3927
 20
82.9509
 11
-74.6123
 21
87.2463
  0
LINE
  8
0
 10
57.0973
 20
96.1706
 11
70.317
 21
100.466
  0
LINE
  8
0
 10
70.317
 20
100.466
 11
74.6123
 21
87.2463
  0
LINE
  8
0
 10
74.6123
 20
87.2463
 11
61.3927
 21
82.9509
  0
LINE
  8
0
 10
61.3927
 20
82.9509
 11
57.0973
 21
96.1706
  0
LINE
  8
0
 10
23.6266
 20
89.064
 11
23.1387
 21
89.3126
  0
LINE
  8
0
 10
23.1387
 20
89.3126
 11
22.7516
 21
89.6997
  0
LINE
  8
0
 10
22.7516
 20
89.6997
 11
22.503
 21
90.1876
  0
LINE
  8
0
 10
22.503
 20
90.1876
 11
22.4174
 21
90.7283
  0
LINE
  8
0
 10
22.4174
 20
90.7283
 11
22.503
 21
91.2691
  0
LINE
  8
0
 10
22.503
 20
91.2691
 11
22.7516
 21
91.757
  0
LINE
  8
0
 10
22.7516
 20
91.757
 11
23.1387
 21
92.1441
  0
LINE
  8
0
 10
23.1387
 20
92.1441
 11
23.6266
 21
92.3927
  0
LINE
  8
0
 10
23.6266
 20
92.3927
 11
24.1674
 21
92.4783
  0
LINE
  8
0
 10
24.1674
 20
92.4783
 11
24.7081
 21
92.3927
  0
LINE
  8
0
 10
24.7081
 20
92.3927
 11
25.196
 21
92.1441
  0
LINE
  8
0
 10
25.196
 20
92.1441
 11
25.5831
 21
91.757
  0
LINE
  8
0
 10
25.5831
 20
91.757
 11
25.8317
 21
91.2691
  0
LINE
  8
0
 10
25.8317
 20
91.2691
 11
25.9174
 21
90.7283
  0
LINE
  8
0
 10
25.9174
 20
90.7283
 11
25.8317
 21
90.1876
  0
LINE
  8
0
 10
25.8317
 20
90.1876
 11
25.5831
 21
89.6997
  0
LINE
  8
0
 10
25.5831
 20
89.6997
 11
25.196
 21
89.3126
  0
LINE
  8
0
 10
25.196
 20
89.3126
 11
24.7081
 21
89.064
  0
LINE
  8
0
 10
24.7081
 20
89.064
 11
24.1674
 21
88.9783
  0
LINE
  8
0
 10
24.1674
 20
88.9783
 11
23.6266
 21
89.064
  0
LINE
  8
0
 10
-24.7081
 20
89.064
 11
-25.196
 21
89.3126
  0
LINE
  8
0
 10
-25.196
 20
89.3126
 11
-25.5831
 21
89.6997
  0
LINE
  8
0
 10
-25.5831
 20
89.6997
 11
-25.8317
 21
90.1876
  0
LINE
  8
0
 10
-25.8317
 20
90.1876
 11
-25.9174
 21
90.7283
  0
LINE
  8
0
 10
-25.9174
 20
90.7283
 11
-25.8317
 21
91.2691
  0
LINE
  8
0
 10
-25.8317
 20
91.2691
 11
-25.5831
 21
91.757
  0
LINE
  8
0
 10
-25.5831
 20
91.757
 11
-25.196
 21
92.1441
  0
LINE
  8
0
 10
-25.196
 20
92.1441
 11
-24.7081
 21
92.3927
  0
LINE
  8
0
 10
-24.7081
 20
92.3927
 11
-24.1674
 21
92.4783
  0
LINE
  8
0
 10
-24.1674
 20
92.4783
 11
-23.6266
 21
92.3927
  0
LINE
  8
0
 10
-23.6266
 20
92.3927
 11
-23.1387
 21
92.1441
  0
LINE
  8
0
 10
-23.1387
 20
92.1441
 11
-22.7516
 21
91.757
  0
LINE
  8
0
 10
-22.7516
 20
91.757
 11
-22.503
 21
91.2691
  0
LINE
  8
0
 10
-22.503
 20
91.2691
 11
-22.4174
 21
90.7283
  0
LINE
  8
0
 10
-22.4174
 20
90.7283
 11
-22.503
 21
90.1876
  0
LINE
  8
0
 10
-22.503
 20
90.1876
 11
-22.7516
 21
89.6997
  0
LINE
  8
0
 10
-22.7516
 20
89.6997
 11
-23.1387
 21
89.3126
  0
LINE
  8
0
 10
-23.1387
 20
89.3126
 11
-23.6266
 21
89.064
  0
LINE
  8
0
 10
-23.6266
 20
89.064
 11
-24.1674
 21
88.9783
  0
LINE
  8
0
 10
-24.1674
 20
88.9783
 11
-24.7081
 21
89.064
  0
LINE
  8
0
 10
39.7522
 20
87.9062
 11
52.9719
 21
92.2015
  0
LINE
  8
0
 10
52.9719
 20
92.2015
 11
57.2672
 21
78.9819
  0
LINE
  8
0
 10
57.2672
 20
78.9819
 11
44.0476
 21
74.6865
  0
LINE
  8
0
 10
44.0476
 20
74.6865
 11
39.7522
 21
87.9062
  0
LINE
  8
0
 10
-57.2672
 20
78.9819
 11
-52.9719
 21
92.2015
  0
LINE
  8
0
 10
-52.9719
 20
92.2015
 11
-39.7522
 21
87.9062
  0
LINE
  8
0
 10
-39.7522
 20
87.9062
 11
-44.0476
 21
74.6865
  0
LINE
  8
0
 10
-44.0476
 20
74.6865
 11
-57.2672
 21
78.9819
  0
LINE
  8
0
 10
-117.97
 20
77.098
 11
-113.675
 21
90.3177
  0
LINE
  8
0
 10
-113.675
 20
90.3177
 11
-100.455
 21
86.0223
  0
LINE
  8
0
 10
-100.455
 20
86.0223
 11
-104.751
 21
72.8026
  0
LINE
  8
0
 10
-104.751
 20
72.8026
 11
-117.97
 21
77.098
  0
LINE
  8
0
 10
100.455
 20
86.0223
 11
113.675
 21
90.3177
  0
LINE
  8
0
 10
113.675
 20
90.3177
 11
117.97
 21
77.098
  0
LINE
  8
0
 10
117.97
 20
77.098
 11
104.751
 21
72.8026
  0
LINE
  8
0
 10
104.751
 20
72.8026
 11
100.455
 21
86.0223
  0
LINE
  8
0
 10
-120.346
 20
85.9662
 11
-120.834
 21
86.2148
  0
LINE
  8
0
 10
-120.834
 20
86.2148
 11
-121.221
 21
86.6019
  0
LINE
  8
0
 10
-121.221
 20
86.6019
 11
-121.47
 21
87.0898
  0
LINE
  8
0
 10
-121.47
 20
87.0898
 11
-121.555
 21
87.6305
  0
LINE
  8
0
 10
-121.555
 20
87.6305
 11
-121.47
 21
88.1713
  0
LINE
  8
0
 10
-121.47
 20
88.1713
 11
-121.221
 21
88.6592
  0
LINE
  8
0
 10
-121.221
 20
88.6592
 11
-120.834
 21
89.0463
  0
LINE
  8
0
 10
-120.834
 20
89.0463
 11
-120.346
 21
89.2949
  0
LINE
  8
0
 10
-120.346
 20
89.2949
 11
-119.805
 21
89.3805
  0
LINE
  8
0
 10
-119.805
 20
89.3805
 11
-119.265
 21
89.2949
  0
LINE
  8
0
 10
-119.265
 20
89.2949
 11
-118.777
 21
89.0463
  0
LINE
  8
0
 10
-118.777
 20
89.0463
 11
-118.39
 21
88.6592
  0
LINE
  8
0
 10
-118.39
 20
88.6592
 11
-118.141
 21
88.1713
  0
LINE
  8
0
 10
-118.141
 20
88.1713
 11
-118.056
 21
87.6305
  0
LINE
  8
0
 10
-118.056
 20
87.6305
 11
-118.141
 21
87.0898
  0
LINE
  8
0
 10
-118.141
 20
87.0898
 11
-118.39
 21
86.6019
  0
LINE
  8
0
 10
-118.39
 20
86.6019
 11
-118.777
 21
86.2148
  0
LINE
  8
0
 10
-118.777
 20
86.2148
 11
-119.265
 21
85.9662
  0
LINE
  8
0
 10
-119.265
 20
85.9662
 11
-119.805
 21
85.8805
  0
LINE
  8
0
 10
-119.805
 20
85.8805
 11
-120.346
 21
85.9662
  0
LINE
  8
0
 10
119.265
 20
85.9662
 11
118.777
 21
86.2148
  0
LINE
  8
0
 10
118.777
 20
86.2148
 11
118.39
 21
86.6019
  0
LINE
  8
0
 10
118.39
 20
86.6019
 11
118.141
 21
87.0898
  0
LINE
  8
0
 10
118.141
 20
87.0898
 11
118.056
 21
87.6305
  0
LINE
  8
0
 10
118.056
 20
87.6305
 11
118.141
 21
88.1713
  0
LINE
  8
0
 10
118.141
 20
88.1713
 11
118.39
 21
88.6592
  0
LINE
  8
0
 10
118.39
 20
88.6592
 11
118.777
 21
89.0463
  0
LINE
  8
0
 10
118.777
 20
89.0463
 11
119.265
 21
89.2949
  0
LINE
  8
0
 10
119.265
 20
89.2949
 11
119.805
 21
89.3805
  0
LINE
  8
0
 10
119.805
 20
89.3805
 11
120.346
 21
89.2949
  0
LINE
  8
0
 10
120.346
 20
89.2949
 11
120.834
 21
89.0463
  0
LINE
  8
0
 10
120.834
 20
89.0463
 11
121.221
 21
88.6592
  0
LINE
  8
0
 10
121.221
 20
88.6592
 11
121.47
 21
88.1713
  0
LINE
  8
0
 10
121.47
 20
88.1713
 11
121.555
 21
87.6305
  0
LINE
  8
0
 10
121.555
 20
87.6305
 11
121.47
 21
87.0898
  0
LINE
  8
0
 10
121.47
 20
87.0898
 11
121.221
 21
86.6019
  0
LINE
  8
0
 10
121.221
 20
86.6019
 11
120.834
 21
86.2148
  0
LINE
  8
0
 10
120.834
 20
86.2148
 11
120.346
 21
85.9662
  0
LINE
  8
0
 10
120.346
 20
85.9662
 11
119.805
 21
85.8805
  0
LINE
  8
0
 10
119.805
 20
85.8805
 11
119.265
 21
85.9662
  0
LINE
  8
0
 10
-99.2348
 20
73.1133
 11
-94.9394
 21
86.333
  0
LINE
  8
0
 10
-94.9394
 20
86.333
 11
-81.7197
 21
82.0377
  0
LINE
  8
0
 10
-81.7197
 20
82.0377
 11
-86.0151
 21
68.818
  0
LINE
  8
0
 10
-86.0151
 20
68.818
 11
-99.2348
 21
73.1133
  0
LINE
  8
0
 10
81.7197
 20
82.0377
 11
94.9394
 21
86.333
  0
LINE
  8
0
 10
94.9394
 20
86.333
 11
99.2348
 21
73.1133
  0
LINE
  8
0
 10
99.2348
 20
73.1133
 11
86.0151
 21
68.818
  0
LINE
  8
0
 10
86.0151
 20
68.818
 11
81.7197
 21
82.0377
  0
LINE
  8
0
 10
-39.3041
 20
72.6196
 11
-35.0088
 21
85.8392
  0
LINE
  8
0
 10
-35.0088
 20
85.8392
 11
-21.7891
 21
81.5439
  0
LINE
  8
0
 10
-21.7891
 20
81.5439
 11
-26.0844
 21
68.3242
  0
LINE
  8
0
 10
-26.0844
 20
68.3242
 11
-39.3041
 21
72.6196
  0
LINE
  8
0
 10
21.7891
 20
81.5439
 11
35.0088
 21
85.8392
  0
LINE
  8
0
 10
35.0088
 20
85.8392
 11
39.3041
 21
72.6196
  0
LINE
  8
0
 10
39.3041
 20
72.6196
 11
26.0844
 21
68.3242
  0
LINE
  8
0
 10
26.0844
 20
68.3242
 11
21.7891
 21
81.5439
  0
LINE
  8
0
 10
-80.4991
 20
69.1286
 11
-76.2038
 21
82.3483
  0
LINE
  8
0
 10
-76.2038
 20
82.3483
 11
-62.9841
 21
78.053
  0
LINE
  8
0
 10
-62.9841
 20
78.053
 11
-67.2794
 21
64.8333
  0
LINE
  8
0
 10
-67.2794
 20
64.8333
 11
-80.4991
 21
69.1286
  0
LINE
  8
0
 10
62.9841
 20
78.053
 11
76.2038
 21
82.3483
  0
LINE
  8
0
 10
76.2038
 20
82.3483
 11
80.4991
 21
69.1286
  0
LINE
  8
0
 10
80.4991
 20
69.1286
 11
67.2794
 21
64.8333
  0
LINE
  8
0
 10
67.2794
 20
64.8333
 11
62.9841
 21
78.053
  0
LINE
  8
0
 10
45.639
 20
69.7886
 11
58.8587
 21
74.0839
  0
LINE
  8
0
 10
58.8587
 20
74.0839
 11
63.154
 21
60.8642
  0
LINE
  8
0
 10
63.154
 20
60.8642
 11
49.9343
 21
56.5689
  0
LINE
  8
0
 10
49.9343
 20
56.5689
 11
45.639
 21
69.7886
  0
LINE
  8
0
 10
-63.154
 20
60.8642
 11
-58.8587
 21
74.0839
  0
LINE
  8
0
 10
-58.8587
 20
74.0839
 11
-45.639
 21
69.7886
  0
LINE
  8
0
 10
-45.639
 20
69.7886
 11
-49.9343
 21
56.5689
  0
LINE
  8
0
 10
-49.9343
 20
56.5689
 11
-63.154
 21
60.8642
  0
LINE
  8
0
 10
-6.45078
 20
70.5807
 11
-6.93861
 21
70.8292
  0
LINE
  8
0
 10
-6.93861
 20
70.8292
 11
-7.32578
 21
71.2164
  0
LINE
  8
0
 10
-7.32578
 20
71.2164
 11
-7.57434
 21
71.7042
  0
LINE
  8
0
 10
-7.57434
 20
71.7042
 11
-7.65999
 21
72.245
  0
LINE
  8
0
 10
-7.65999
 20
72.245
 11
-7.57434
 21
72.7858
  0
LINE
  8
0
 10
-7.57434
 20
72.7858
 11
-7.32578
 21
73.2736
  0
LINE
  8
0
 10
-7.32578
 20
73.2736
 11
-6.93861
 21
73.6608
  0
LINE
  8
0
 10
-6.93861
 20
73.6608
 11
-6.45078
 21
73.9094
  0
LINE
  8
0
 10
-6.45078
 20
73.9094
 11
-5.90999
 21
73.995
  0
LINE
  8
0
 10
-5.90999
 20
73.995
 11
-5.36922
 21
73.9094
  0
LINE
  8
0
 10
-5.36922
 20
73.9094
 11
-4.88136
 21
73.6608
  0
LINE
  8
0
 10
-4.88136
 20
73.6608
 11
-4.49422
 21
73.2736
  0
LINE
  8
0
 10
-4.49422
 20
73.2736
 11
-4.24564
 21
72.7858
  0
LINE
  8
0
 10
-4.24564
 20
72.7858
 11
-4.15999
 21
72.245
  0
LINE
  8
0
 10
-4.15999
 20
72.245
 11
-4.24564
 21
71.7042
  0
LINE
  8
0
 10
-4.24564
 20
71.7042
 11
-4.49422
 21
71.2164
  0
LINE
  8
0
 10
-4.49422
 20
71.2164
 11
-4.88136
 21
70.8292
  0
LINE
  8
0
 10
-4.88136
 20
70.8292
 11
-5.36922
 21
70.5807
  0
LINE
  8
0
 10
-5.36922
 20
70.5807
 11
-5.90999
 21
70.495
  0
LINE
  8
0
 10
-5.90999
 20
70.495
 11
-6.45078
 21
70.5807
  0
LINE
  8
0
 10
5.36922
 20
70.5807
 11
4.88136
 21
70.8292
  0
LINE
  8
0
 10
4.88136
 20
70.8292
 11
4.49422
 21
71.2164
  0
LINE
  8
0
 10
4.49422
 20
71.2164
 11
4.24564
 21
71.7042
  0
LINE
  8
0
 10
4.24564
 20
71.7042
 11
4.15999
 21
72.245
  0
LINE
  8
0
 10
4.15999
 20
72.245
 11
4.24564
 21
72.7858
  0
LINE
  8
0
 10
4.24564
 20
72.7858
 11
4.49422
 21
73.2736
  0
LINE
  8
0
 10
4.49422
 20
73.2736
 11
4.88136
 21
73.6608
  0
LINE
  8
0
 10
4.88136
 20
73.6608
 11
5.36922
 21
73.9094
  0
LINE
  8
0
 10
5.36922
 20
73.9094
 11
5.90999
 21
73.995
  0
LINE
  8
0
 10
5.90999
 20
73.995
 11
6.45078
 21
73.9094
  0
LINE
  8
0
 10
6.45078
 20
73.9094
 11
6.93861
 21
73.6608
  0
LINE
  8
0
 10
6.93861
 20
73.6608
 11
7.32578
 21
73.2736
  0
LINE
  8
0
 10
7.32578
 20
73.2736
 11
7.57434
 21
72.7858
  0
LINE
  8
0
 10
7.57434
 20
72.7858
 11
7.65999
 21
72.245
  0
LINE
  8
0
 10
7.65999
 20
72.245
 11
7.57434
 21
71.7042
  0
LINE
  8
0
 10
7.57434
 20
71.7042
 11
7.32578
 21
71.2164
  0
LINE
  8
0
 10
7.32578
 20
71.2164
 11
6.93861
 21
70.8292
  0
LINE
  8
0
 10
6.93861
 20
70.8292
 11
6.45078
 21
70.5807
  0
LINE
  8
0
 10
6.45078
 20
70.5807
 11
5.90999
 21
70.495
  0
LINE
  8
0
 10
5.90999
 20
70.495
 11
5.36922
 21
70.5807
  0
LINE
  8
0
 10
106.342
 20
67.9047
 11
119.562
 21
72.2
  0
LINE
  8
0
 10
119.562
 20
72.2
 11
123.857
 21
58.9803
  0
LINE
  8
0
 10
123.857
 20
58.9803
 11
110.638
 21
54.685
  0
LINE
  8
0
 10
110.638
 20
54.685
 11
106.342
 21
67.9047
  0
LINE
  8
0
 10
-123.857
 20
58.9803
 11
-119.562
 21
72.2
  0
LINE
  8
0
 10
-119.562
 20
72.2
 11
-106.342
 21
67.9047
  0
LINE
  8
0
 10
-106.342
 20
67.9047
 11
-110.638
 21
54.685
  0
LINE
  8
0
 10
-110.638
 20
54.685
 11
-123.857
 21
58.9803
  0
LINE
  8
0
 10
-105.122
 20
54.9957
 11
-100.826
 21
68.2154
  0
LINE
  8
0
 10
-100.826
 20
68.2154
 11
-87.6065
 21
63.92
  0
LINE
  8
0
 10
-87.6065
 20
63.92
 11
-91.9019
 21
50.7004
  0
LINE
  8
0
 10
-91.9019
 20
50.7004
 11
-105.122
 21
54.9957
  0
LINE
  8
0
 10
87.6065
 20
63.92
 11
100.826
 21
68.2154
  0
LINE
  8
0
 10
100.826
 20
68.2154
 11
105.122
 21
54.9957
  0
LINE
  8
0
 10
105.122
 20
54.9957
 11
91.9019
 21
50.7004
  0
LINE
  8
0
 10
91.9019
 20
50.7004
 11
87.6065
 21
63.92
  0
LINE
  8
0
 10
-45.1909
 20
54.5019
 11
-40.8956
 21
67.7216
  0
LINE
  8
0
 10
-40.8956
 20
67.7216
 11
-27.6759
 21
63.4263
  0
LINE
  8
0
 10
-27.6759
 20
63.4263
 11
-31.9712
 21
50.2066
  0
LINE
  8
0
 10
-31.9712
 20
50.2066
 11
-45.1909
 21
54.5019
  0
LINE
  8
0
 10
27.6759
 20
63.4263
 11
40.8956
 21
67.7216
  0
LINE
  8
0
 10
40.8956
 20
67.7216
 11
45.1909
 21
54.5019
  0
LINE
  8
0
 10
45.1909
 20
54.5019
 11
31.9712
 21
50.2066
  0
LINE
  8
0
 10
31.9712
 20
50.2066
 11
27.6759
 21
63.4263
  0
LINE
  8
0
 10
5.31372
 20
61.8112
 11
4.96526
 21
61.9887
  0
LINE
  8
0
 10
4.96526
 20
61.9887
 11
4.68872
 21
62.2653
  0
LINE
  8
0
 10
4.68872
 20
62.2653
 11
4.51117
 21
62.6137
  0
LINE
  8
0
 10
4.51117
 20
62.6137
 11
4.45
 21
63
  0
LINE
  8
0
 10
4.45
 20
63
 11
4.51117
 21
63.3863
  0
LINE
  8
0
 10
4.51117
 20
63.3863
 11
4.68872
 21
63.7347
  0
LINE
  8
0
 10
4.68872
 20
63.7347
 11
4.96526
 21
64.0113
  0
LINE
  8
0
 10
4.96526
 20
64.0113
 11
5.31372
 21
64.1888
  0
LINE
  8
0
 10
5.31372
 20
64.1888
 11
5.7
 21
64.25
  0
LINE
  8
0
 10
5.7
 20
64.25
 11
6.08626
 21
64.1888
  0
LINE
  8
0
 10
6.08626
 20
64.1888
 11
6.43472
 21
64.0113
  0
LINE
  8
0
 10
6.43472
 20
64.0113
 11
6.71126
 21
63.7347
  0
LINE
  8
0
 10
6.71126
 20
63.7347
 11
6.88881
 21
63.3863
  0
LINE
  8
0
 10
6.88881
 20
63.3863
 11
6.95
 21
63
  0
LINE
  8
0
 10
6.95
 20
63
 11
6.88881
 21
62.6137
  0
LINE
  8
0
 10
6.88881
 20
62.6137
 11
6.71126
 21
62.2653
  0
LINE
  8
0
 10
6.71126
 20
62.2653
 11
6.43472
 21
61.9887
  0
LINE
  8
0
 10
6.43472
 20
61.9887
 11
6.08626
 21
61.8112
  0
LINE
  8
0
 10
6.08626
 20
61.8112
 11
5.7
 21
61.75
  0
LINE
  8
0
 10
5.7
 20
61.75
 11
5.31372
 21
61.8112
  0
LINE
  8
0
 10
-6.08626
 20
61.8112
 11
-6.43472
 21
61.9887
  0
LINE
  8
0
 10
-6.43472
 20
61.9887
 11
-6.71126
 21
62.2653
  0
LINE
  8
0
 10
-6.71126
 20
62.2653
 11
-6.88881
 21
62.6137
  0
LINE
  8
0
 10
-6.88881
 20
62.6137
 11
-6.95
 21
63
  0
LINE
  8
0
 10
-6.95
 20
63
 11
-6.88881
 21
63.3863
  0
LINE
  8
0
 10
-6.88881
 20
63.3863
 11
-6.71126
 21
63.7347
  0
LINE
  8
0
 10
-6.71126
 20
63.7347
 11
-6.43472
 21
64.0113
  0
LINE
  8
0
 10
-6.43472
 20
64.0113
 11
-6.08626
 21
64.1888
  0
LINE
  8
0
 10
-6.08626
 20
64.1888
 11
-5.7
 21
64.25
  0
LINE
  8
0
 10
-5.7
 20
64.25
 11
-5.31372
 21
64.1888
  0
LINE
  8
0
 10
-5.31372
 20
64.1888
 11
-4.96526
 21
64.0113
  0
LINE
  8
0
 10
-4.96526
 20
64.0113
 11
-4.68872
 21
63.7347
  0
LINE
  8
0
 10
-4.68872
 20
63.7347
 11
-4.51117
 21
63.3863
  0
LINE
  8
0
 10
-4.51117
 20
63.3863
 11
-4.45
 21
63
  0
LINE
  8
0
 10
-4.45
 20
63
 11
-4.51117
 21
62.6137
  0
LINE
  8
0
 10
-4.51117
 20
62.6137
 11
-4.68872
 21
62.2653
  0
LINE
  8
0
 10
-4.68872
 20
62.2653
 11
-4.96526
 21
61.9887
  0
LINE
  8
0
 10
-4.96526
 20
61.9887
 11
-5.31372
 21
61.8112
  0
LINE
  8
0
 10
-5.31372
 20
61.8112
 11
-5.7
 21
61.75
  0
LINE
  8
0
 10
-5.7
 20
61.75
 11
-6.08626
 21
61.8112
  0
LINE
  8
0
 10
68.8709
 20
59.9354
 11
82.0905
 21
64.2307
  0
LINE
  8
0
 10
82.0905
 20
64.2307
 11
86.3859
 21
51.011
  0
LINE
  8
0
 10
86.3859
 20
51.011
 11
73.1662
 21
46.7157
  0
LINE
  8
0
 10
73.1662
 20
46.7157
 11
68.8709
 21
59.9354
  0
LINE
  8
0
 10
-86.3859
 20
51.011
 11
-82.0905
 21
64.2307
  0
LINE
  8
0
 10
-82.0905
 20
64.2307
 11
-68.8709
 21
59.9354
  0
LINE
  8
0
 10
-68.8709
 20
59.9354
 11
-73.1662
 21
46.7157
  0
LINE
  8
0
 10
-73.1662
 20
46.7157
 11
-86.3859
 21
51.011
  0
LINE
  8
0
 10
129.308
 20
55.0569
 11
128.82
 21
55.3054
  0
LINE
  8
0
 10
128.82
 20
55.3054
 11
128.433
 21
55.6926
  0
LINE
  8
0
 10
128.433
 20
55.6926
 11
128.184
 21
56.1804
  0
LINE
  8
0
 10
128.184
 20
56.1804
 11
128.099
 21
56.7212
  0
LINE
  8
0
 10
128.099
 20
56.7212
 11
128.184
 21
57.262
  0
LINE
  8
0
 10
128.184
 20
57.262
 11
128.433
 21
57.7498
  0
LINE
  8
0
 10
128.433
 20
57.7498
 11
128.82
 21
58.137
  0
LINE
  8
0
 10
128.82
 20
58.137
 11
129.308
 21
58.3855
  0
LINE
  8
0
 10
129.308
 20
58.3855
 11
129.849
 21
58.4712
  0
LINE
  8
0
 10
129.849
 20
58.4712
 11
130.389
 21
58.3856
  0
LINE
  8
0
 10
130.389
 20
58.3856
 11
130.877
 21
58.137
  0
LINE
  8
0
 10
130.877
 20
58.137
 11
131.264
 21
57.7498
  0
LINE
  8
0
 10
131.264
 20
57.7498
 11
131.513
 21
57.262
  0
LINE
  8
0
 10
131.513
 20
57.262
 11
131.599
 21
56.7212
  0
LINE
  8
0
 10
131.599
 20
56.7212
 11
131.513
 21
56.1804
  0
LINE
  8
0
 10
131.513
 20
56.1804
 11
131.264
 21
55.6926
  0
LINE
  8
0
 10
131.264
 20
55.6926
 11
130.877
 21
55.3054
  0
LINE
  8
0
 10
130.877
 20
55.3054
 11
130.389
 21
55.0569
  0
LINE
  8
0
 10
130.389
 20
55.0569
 11
129.849
 21
54.9712
  0
LINE
  8
0
 10
129.849
 20
54.9712
 11
129.308
 21
55.0569
  0
LINE
  8
0
 10
-130.389
 20
55.0569
 11
-130.877
 21
55.3054
  0
LINE
  8
0
 10
-130.877
 20
55.3054
 11
-131.264
 21
55.6926
  0
LINE
  8
0
 10
-131.264
 20
55.6926
 11
-131.513
 21
56.1804
  0
LINE
  8
0
 10
-131.513
 20
56.1804
 11
-131.599
 21
56.7212
  0
LINE
  8
0
 10
-131.599
 20
56.7212
 11
-131.513
 21
57.262
  0
LINE
  8
0
 10
-131.513
 20
57.262
 11
-131.264
 21
57.7498
  0
LINE
  8
0
 10
-131.264
 20
57.7498
 11
-130.877
 21
58.137
  0
LINE
  8
0
 10
-130.877
 20
58.137
 11
-130.389
 21
58.3856
  0
LINE
  8
0
 10
-130.389
 20
58.3856
 11
-129.849
 21
58.4712
  0
LINE
  8
0
 10
-129.849
 20
58.4712
 11
-129.308
 21
58.3855
  0
LINE
  8
0
 10
-129.308
 20
58.3855
 11
-128.82
 21
58.137
  0
LINE
  8
0
 10
-128.82
 20
58.137
 11
-128.433
 21
57.7498
  0
LINE
  8
0
 10
-128.433
 20
57.7498
 11
-128.184
 21
57.262
  0
LINE
  8
0
 10
-128.184
 20
57.262
 11
-128.099
 21
56.7212
  0
LINE
  8
0
 10
-128.099
 20
56.7212
 11
-128.184
 21
56.1804
  0
LINE
  8
0
 10
-128.184
 20
56.1804
 11
-128.433
 21
55.6926
  0
LINE
  8
0
 10
-128.433
 20
55.6926
 11
-128.82
 21
55.3054
  0
LINE
  8
0
 10
-128.82
 20
55.3054
 11
-129.308
 21
55.0569
  0
LINE
  8
0
 10
-129.308
 20
55.0569
 11
-129.849
 21
54.9712
  0
LINE
  8
0
 10
-129.849
 20
54.9712
 11
-130.389
 21
55.0569
  0
LINE
  8
0
 10
51.5258
 20
51.671
 11
64.7455
 21
55.9663
  0
LINE
  8
0
 10
64.7455
 20
55.9663
 11
69.0408
 21
42.7466
  0
LINE
  8
0
 10
69.0408
 20
42.7466
 11
55.8211
 21
38.4513
  0
LINE
  8
0
 10
55.8211
 20
38.4513
 11
51.5258
 21
51.671
  0
LINE
  8
0
 10
-69.0408
 20
42.7466
 11
-64.7455
 21
55.9663
  0
LINE
  8
0
 10
-64.7455
 20
55.9663
 11
-51.5258
 21
51.671
  0
LINE
  8
0
 10
-51.5258
 20
51.671
 11
-55.8211
 21
38.4513
  0
LINE
  8
0
 10
-55.8211
 20
38.4513
 11
-69.0408
 21
42.7466
  0
LINE
  8
0
 10
-51.0777
 20
36.3843
 11
-46.7823
 21
49.604
  0
LINE
  8
0
 10
-46.7823
 20
49.604
 11
-33.5627
 21
45.3087
  0
LINE
  8
0
 10
-33.5627
 20
45.3087
 11
-37.858
 21
32.089
  0
LINE
  8
0
 10
-37.858
 20
32.089
 11
-51.0777
 21
36.3843
  0
LINE
  8
0
 10
33.5627
 20
45.3087
 11
46.7823
 21
49.604
  0
LINE
  8
0
 10
46.7823
 20
49.604
 11
51.0777
 21
36.3843
  0
LINE
  8
0
 10
51.0777
 20
36.3843
 11
37.858
 21
32.089
  0
LINE
  8
0
 10
37.858
 20
32.089
 11
33.5627
 21
45.3087
  0
LINE
  8
0
 10
-93.7714
 20
28.2808
 11
-89.4761
 21
41.5005
  0
LINE
  8
0
 10
-89.4761
 20
41.5005
 11
-76.2564
 21
37.2051
  0
LINE
  8
0
 10
-76.2564
 20
37.2051
 11
-80.5517
 21
23.9854
  0
LINE
  8
0
 10
-80.5517
 20
23.9854
 11
-93.7714
 21
28.2808
  0
LINE
  8
0
 10
76.2564
 20
37.2051
 11
89.4761
 21
41.5005
  0
LINE
  8
0
 10
89.4761
 20
41.5005
 11
93.7714
 21
28.2808
  0
LINE
  8
0
 10
93.7714
 20
28.2808
 11
80.5517
 21
23.9854
  0
LINE
  8
0
 10
80.5517
 20
23.9854
 11
76.2564
 21
37.2051
  0
LINE
  8
0
 10
-97.3394
 20
33.8036
 11
-97.8272
 21
34.0522
  0
LINE
  8
0
 10
-97.8272
 20
34.0522
 11
-98.2144
 21
34.4394
  0
LINE
  8
0
 10
-98.2144
 20
34.4394
 11
-98.4629
 21
34.9272
  0
LINE
  8
0
 10
-98.4629
 20
34.9272
 11
-98.5486
 21
35.468
  0
LINE
  8
0
 10
-98.5486
 20
35.468
 11
-98.4629
 21
36.0088
  0
LINE
  8
0
 10
-98.4629
 20
36.0088
 11
-98.2144
 21
36.4966
  0
LINE
  8
0
 10
-98.2144
 20
36.4966
 11
-97.8272
 21
36.8838
  0
LINE
  8
0
 10
-97.8272
 20
36.8838
 11
-97.3394
 21
37.1323
  0
LINE
  8
0
 10
-97.3394
 20
37.1323
 11
-96.7986
 21
37.218
  0
LINE
  8
0
 10
-96.7986
 20
37.218
 11
-96.2578
 21
37.1323
  0
LINE
  8
0
 10
-96.2578
 20
37.1323
 11
-95.77
 21
36.8838
  0
LINE
  8
0
 10
-95.77
 20
36.8838
 11
-95.3828
 21
36.4966
  0
LINE
  8
0
 10
-95.3828
 20
36.4966
 11
-95.1342
 21
36.0088
  0
LINE
  8
0
 10
-95.1342
 20
36.0088
 11
-95.0486
 21
35.468
  0
LINE
  8
0
 10
-95.0486
 20
35.468
 11
-95.1342
 21
34.9272
  0
LINE
  8
0
 10
-95.1342
 20
34.9272
 11
-95.3828
 21
34.4394
  0
LINE
  8
0
 10
-95.3828
 20
34.4394
 11
-95.7699
 21
34.0522
  0
LINE
  8
0
 10
-95.7699
 20
34.0522
 11
-96.2578
 21
33.8036
  0
LINE
  8
0
 10
-96.2578
 20
33.8036
 11
-96.7986
 21
33.718
  0
LINE
  8
0
 10
-96.7986
 20
33.718
 11
-97.3394
 21
33.8036
  0
LINE
  8
0
 10
96.2578
 20
33.8036
 11
95.7699
 21
34.0522
  0
LINE
  8
0
 10
95.7699
 20
34.0522
 11
95.3828
 21
34.4394
  0
LINE
  8
0
 10
95.3828
 20
34.4394
 11
95.1342
 21
34.9272
  0
LINE
  8
0
 10
95.1342
 20
34.9272
 11
95.0486
 21
35.468
  0
LINE
  8
0
 10
95.0486
 20
35.468
 11
95.1342
 21
36.0088
  0
LINE
  8
0
 10
95.1342
 20
36.0088
 11
95.3828
 21
36.4966
  0
LINE
  8
0
 10
95.3828
 20
36.4966
 11
95.77
 21
36.8838
  0
LINE
  8
0
 10
95.77
 20
36.8838
 11
96.2578
 21
37.1323
  0
LINE
  8
0
 10
96.2578
 20
37.1323
 11
96.7986
 21
37.218
  0
LINE
  8
0
 10
96.7986
 20
37.218
 11
97.3394
 21
37.1323
  0
LINE
  8
0
 10
97.3394
 20
37.1323
 11
97.8272
 21
36.8838
  0
LINE
  8
0
 10
97.8272
 20
36.8838
 11
98.2144
 21
36.4966
  0
LINE
  8
0
 10
98.2144
 20
36.4966
 11
98.4629
 21
36.0088
  0
LINE
  8
0
 10
98.4629
 20
36.0088
 11
98.5486
 21
35.468
  0
LINE
  8
0
 10
98.5486
 20
35.468
 11
98.4629
 21
34.9272
  0
LINE
  8
0
 10
98.4629
 20
34.9272
 11
98.2144
 21
34.4394
  0
LINE
  8
0
 10
98.2144
 20
34.4394
 11
97.8272
 21
34.0522
  0
LINE
  8
0
 10
97.8272
 20
34.0522
 11
97.3394
 21
33.8036
  0
LINE
  8
0
 10
97.3394
 20
33.8036
 11
96.7986
 21
33.718
  0
LINE
  8
0
 10
96.7986
 20
33.718
 11
96.2578
 21
33.8036
  0
LINE
  8
0
 10
23.4592
 20
33.3356
 11
22.9714
 21
33.5842
  0
LINE
  8
0
 10
22.9714
 20
33.5842
 11
22.5842
 21
33.9714
  0
LINE
  8
0
 10
22.5842
 20
33.9714
 11
22.3356
 21
34.4592
  0
LINE
  8
0
 10
22.3356
 20
34.4592
 11
22.25
 21
35
  0
LINE
  8
0
 10
22.25
 20
35
 11
22.3356
 21
35.5408
  0
LINE
  8
0
 10
22.3356
 20
35.5408
 11
22.5842
 21
36.0286
  0
LINE
  8
0
 10
22.5842
 20
36.0286
 11
22.9714
 21
36.4158
  0
LINE
  8
0
 10
22.9714
 20
36.4158
 11
23.4592
 21
36.6643
  0
LINE
  8
0
 10
23.4592
 20
36.6643
 11
24
 21
36.75
  0
LINE
  8
0
 10
24
 20
36.75
 11
24.5408
 21
36.6643
  0
LINE
  8
0
 10
24.5408
 20
36.6643
 11
25.0286
 21
36.4158
  0
LINE
  8
0
 10
25.0286
 20
36.4158
 11
25.4158
 21
36.0286
  0
LINE
  8
0
 10
25.4158
 20
36.0286
 11
25.6643
 21
35.5408
  0
LINE
  8
0
 10
25.6643
 20
35.5408
 11
25.75
 21
35
  0
LINE
  8
0
 10
25.75
 20
35
 11
25.6643
 21
34.4592
  0
LINE
  8
0
 10
25.6643
 20
34.4592
 11
25.4158
 21
33.9714
  0
LINE
  8
0
 10
25.4158
 20
33.9714
 11
25.0286
 21
33.5842
  0
LINE
  8
0
 10
25.0286
 20
33.5842
 11
24.5408
 21
33.3356
  0
LINE
  8
0
 10
24.5408
 20
33.3356
 11
24
 21
33.25
  0
LINE
  8
0
 10
24
 20
33.25
 11
23.4592
 21
33.3356
  0
LINE
  8
0
 10
-24.5408
 20
33.3356
 11
-25.0286
 21
33.5842
  0
LINE
  8
0
 10
-25.0286
 20
33.5842
 11
-25.4158
 21
33.9714
  0
LINE
  8
0
 10
-25.4158
 20
33.9714
 11
-25.6643
 21
34.4592
  0
LINE
  8
0
 10
-25.6643
 20
34.4592
 11
-25.75
 21
35
  0
LINE
  8
0
 10
-25.75
 20
35
 11
-25.6643
 21
35.5408
  0
LINE
  8
0
 10
-25.6643
 20
35.5408
 11
-25.4158
 21
36.0286
  0
LINE
  8
0
 10
-25.4158
 20
36.0286
 11
-25.0286
 21
36.4158
  0
LINE
  8
0
 10
-25.0286
 20
36.4158
 11
-24.5408
 21
36.6643
  0
LINE
  8
0
 10
-24.5408
 20
36.6643
 11
-24
 21
36.75
  0
LINE
  8
0
 10
-24
 20
36.75
 11
-23.4592
 21
36.6643
  0
LINE
  8
0
 10
-23.4592
 20
36.6643
 11
-22.9714
 21
36.4158
  0
LINE
  8
0
 10
-22.9714
 20
36.4158
 11
-22.5842
 21
36.0286
  0
LINE
  8
0
 10
-22.5842
 20
36.0286
 11
-22.3356
 21
35.5408
  0
LINE
  8
0
 10
-22.3356
 20
35.5408
 11
-22.25
 21
35
  0
LINE
  8
0
 10
-22.25
 20
35
 11
-22.3356
 21
34.4592
  0
LINE
  8
0
 10
-22.3356
 20
34.4592
 11
-22.5842
 21
33.9714
  0
LINE
  8
0
 10
-22.5842
 20
33.9714
 11
-22.9714
 21
33.5842
  0
LINE
  8
0
 10
-22.9714
 20
33.5842
 11
-23.4592
 21
33.3356
  0
LINE
  8
0
 10
-23.4592
 20
33.3356
 11
-24
 21
33.25
  0
LINE
  8
0
 10
-24
 20
33.25
 11
-24.5408
 21
33.3356
  0
LINE
  8
0
 10
58.1388
 20
31.3184
 11
71.3584
 21
35.6137
  0
LINE
  8
0
 10
71.3584
 20
35.6137
 11
75.6538
 21
22.394
  0
LINE
  8
0
 10
75.6538
 20
22.394
 11
62.4341
 21
18.0987
  0
LINE
  8
0
 10
62.4341
 20
18.0987
 11
58.1388
 21
31.3184
  0
LINE
  8
0
 10
-75.6538
 20
22.394
 11
-71.3584
 21
35.6137
  0
LINE
  8
0
 10
-71.3584
 20
35.6137
 11
-58.1388
 21
31.3184
  0
LINE
  8
0
 10
-58.1388
 20
31.3184
 11
-62.4341
 21
18.0987
  0
LINE
  8
0
 10
-62.4341
 20
18.0987
 11
-75.6538
 21
22.394
  0
LINE
  8
0
 10
-57.1594
 20
15.2367
 11
-48.4181
 21
26.0441
  0
LINE
  8
0
 10
-48.4181
 20
26.0441
 11
-37.6107
 21
17.3028
  0
LINE
  8
0
 10
-37.6107
 20
17.3028
 11
-46.352
 21
6.49541
  0
LINE
  8
0
 10
-46.352
 20
6.49541
 11
-57.1594
 21
15.2367
  0
LINE
  8
0
 10
37.6107
 20
17.3028
 11
48.4181
 21
26.0441
  0
LINE
  8
0
 10
48.4181
 20
26.0441
 11
57.1594
 21
15.2367
  0
LINE
  8
0
 10
57.1594
 20
15.2367
 11
46.352
 21
6.49541
  0
LINE
  8
0
 10
46.352
 20
6.49541
 11
37.6107
 21
17.3028
  0
LINE
  8
0
 10
5.31372
 20
15.8112
 11
4.96526
 21
15.9887
  0
LINE
  8
0
 10
4.96526
 20
15.9887
 11
4.68872
 21
16.2653
  0
LINE
  8
0
 10
4.68872
 20
16.2653
 11
4.51117
 21
16.6137
  0
LINE
  8
0
 10
4.51117
 20
16.6137
 11
4.45
 21
17
  0
LINE
  8
0
 10
4.45
 20
17
 11
4.51117
 21
17.3863
  0
LINE
  8
0
 10
4.51117
 20
17.3863
 11
4.68872
 21
17.7347
  0
LINE
  8
0
 10
4.68872
 20
17.7347
 11
4.96526
 21
18.0113
  0
LINE
  8
0
 10
4.96526
 20
18.0113
 11
5.31372
 21
18.1888
  0
LINE
  8
0
 10
5.31372
 20
18.1888
 11
5.7
 21
18.25
  0
LINE
  8
0
 10
5.7
 20
18.25
 11
6.08626
 21
18.1888
  0
LINE
  8
0
 10
6.08626
 20
18.1888
 11
6.43472
 21
18.0113
  0
LINE
  8
0
 10
6.43472
 20
18.0113
 11
6.71126
 21
17.7347
  0
LINE
  8
0
 10
6.71126
 20
17.7347
 11
6.88881
 21
17.3863
  0
LINE
  8
0
 10
6.88881
 20
17.3863
 11
6.95
 21
17
  0
LINE
  8
0
 10
6.95
 20
17
 11
6.88881
 21
16.6137
  0
LINE
  8
0
 10
6.88881
 20
16.6137
 11
6.71126
 21
16.2653
  0
LINE
  8
0
 10
6.71126
 20
16.2653
 11
6.43472
 21
15.9887
  0
LINE
  8
0
 10
6.43472
 20
15.9887
 11
6.08626
 21
15.8112
  0
LINE
  8
0
 10
6.08626
 20
15.8112
 11
5.7
 21
15.75
  0
LINE
  8
0
 10
5.7
 20
15.75
 11
5.31372
 21
15.8112
  0
LINE
  8
0
 10
-6.08626
 20
15.8112
 11
-6.43472
 21
15.9887
  0
LINE
  8
0
 10
-6.43472
 20
15.9887
 11
-6.71126
 21
16.2653
  0
LINE
  8
0
 10
-6.71126
 20
16.2653
 11
-6.88881
 21
16.6137
  0
LINE
  8
0
 10
-6.88881
 20
16.6137
 11
-6.95
 21
17
  0
LINE
  8
0
 10
-6.95
 20
17
 11
-6.88881
 21
17.3863
  0
LINE
  8
0
 10
-6.88881
 20
17.3863
 11
-6.71126
 21
17.7347
  0
LINE
  8
0
 10
-6.71126
 20
17.7347
 11
-6.43472
 21
18.0113
  0
LINE
  8
0
 10
-6.43472
 20
18.0113
 11
-6.08626
 21
18.1888
  0
LINE
  8
0
 10
-6.08626
 20
18.1888
 11
-5.7
 21
18.25
  0
LINE
  8
0
 10
-5.7
 20
18.25
 11
-5.31372
 21
18.1888
  0
LINE
  8
0
 10
-5.31372
 20
18.1888
 11
-4.96526
 21
18.0113
  0
LINE
  8
0
 10
-4.96526
 20
18.0113
 11
-4.68872
 21
17.7347
  0
LINE
  8
0
 10
-4.68872
 20
17.7347
 11
-4.51117
 21
17.3863
  0
LINE
  8
0
 10
-4.51117
 20
17.3863
 11
-4.45
 21
17
  0
LINE
  8
0
 10
-4.45
 20
17
 11
-4.51117
 21
16.6137
  0
LINE
  8
0
 10
-4.51117
 20
16.6137
 11
-4.68872
 21
16.2653
  0
LINE
  8
0
 10
-4.68872
 20
16.2653
 11
-4.96526
 21
15.9887
  0
LINE
  8
0
 10
-4.96526
 20
15.9887
 11
-5.31372
 21
15.8112
  0
LINE
  8
0
 10
-5.31372
 20
15.8112
 11
-5.7
 21
15.75
  0
LINE
  8
0
 10
-5.7
 20
15.75
 11
-6.08626
 21
15.8112
  0
LINE
  8
0
 10
-63.0053
 20
10.0303
 11
-63.4931
 21
10.2789
  0
LINE
  8
0
 10
-63.4931
 20
10.2789
 11
-63.8803
 21
10.666
  0
LINE
  8
0
 10
-63.8803
 20
10.666
 11
-64.1289
 21
11.1539
  0
LINE
  8
0
 10
-64.1289
 20
11.1539
 11
-64.2145
 21
11.6946
  0
LINE
  8
0
 10
-64.2145
 20
11.6946
 11
-64.1289
 21
12.2354
  0
LINE
  8
0
 10
-64.1289
 20
12.2354
 11
-63.8803
 21
12.7233
  0
LINE
  8
0
 10
-63.8803
 20
12.7233
 11
-63.4931
 21
13.1104
  0
LINE
  8
0
 10
-63.4931
 20
13.1104
 11
-63.0053
 21
13.359
  0
LINE
  8
0
 10
-63.0053
 20
13.359
 11
-62.4645
 21
13.4446
  0
LINE
  8
0
 10
-62.4645
 20
13.4446
 11
-61.9237
 21
13.359
  0
LINE
  8
0
 10
-61.9237
 20
13.359
 11
-61.4359
 21
13.1104
  0
LINE
  8
0
 10
-61.4359
 20
13.1104
 11
-61.0488
 21
12.7233
  0
LINE
  8
0
 10
-61.0488
 20
12.7233
 11
-60.8002
 21
12.2354
  0
LINE
  8
0
 10
-60.8002
 20
12.2354
 11
-60.7145
 21
11.6946
  0
LINE
  8
0
 10
-60.7145
 20
11.6946
 11
-60.8002
 21
11.1539
  0
LINE
  8
0
 10
-60.8002
 20
11.1539
 11
-61.0487
 21
10.666
  0
LINE
  8
0
 10
-61.0487
 20
10.666
 11
-61.4359
 21
10.2789
  0
LINE
  8
0
 10
-61.4359
 20
10.2789
 11
-61.9237
 21
10.0303
  0
LINE
  8
0
 10
-61.9237
 20
10.0303
 11
-62.4645
 21
9.94464
  0
LINE
  8
0
 10
-62.4645
 20
9.94464
 11
-63.0053
 21
10.0303
  0
LINE
  8
0
 10
61.9237
 20
10.0303
 11
61.4359
 21
10.2789
  0
LINE
  8
0
 10
61.4359
 20
10.2789
 11
61.0487
 21
10.666
  0
LINE
  8
0
 10
61.0487
 20
10.666
 11
60.8002
 21
11.1539
  0
LINE
  8
0
 10
60.8002
 20
11.1539
 11
60.7145
 21
11.6946
  0
LINE
  8
0
 10
60.7145
 20
11.6946
 11
60.8002
 21
12.2354
  0
LINE
  8
0
 10
60.8002
 20
12.2354
 11
61.0488
 21
12.7233
  0
LINE
  8
0
 10
61.0488
 20
12.7233
 11
61.4359
 21
13.1104
  0
LINE
  8
0
 10
61.4359
 20
13.1104
 11
61.9237
 21
13.359
  0
LINE
  8
0
 10
61.9237
 20
13.359
 11
62.4645
 21
13.4446
  0
LINE
  8
0
 10
62.4645
 20
13.4446
 11
63.0053
 21
13.359
  0
LINE
  8
0
 10
63.0053
 20
13.359
 11
63.4931
 21
13.1104
  0
LINE
  8
0
 10
63.4931
 20
13.1104
 11
63.8803
 21
12.7233
  0
LINE
  8
0
 10
63.8803
 20
12.7233
 11
64.1289
 21
12.2354
  0
LINE
  8
0
 10
64.1289
 20
12.2354
 11
64.2145
 21
11.6946
  0
LINE
  8
0
 10
64.2145
 20
11.6946
 11
64.1289
 21
11.1539
  0
LINE
  8
0
 10
64.1289
 20
11.1539
 11
63.8803
 21
10.666
  0
LINE
  8
0
 10
63.8803
 20
10.666
 11
63.4931
 21
10.2789
  0
LINE
  8
0
 10
63.4931
 20
10.2789
 11
63.0053
 21
10.0303
  0
LINE
  8
0
 10
63.0053
 20
10.0303
 11
62.4645
 21
9.94464
  0
LINE
  8
0
 10
62.4645
 20
9.94464
 11
61.9237
 21
10.0303
  0
LINE
  8
0
 10
-42.4507
 20
1.9355
 11
-30.421
 21
8.89937
  0
LINE
  8
0
 10
-30.421
 20
8.89937
 11
-23.4571
 21
-3.13036
  0
LINE
  8
0
 10
-23.4571
 20
-3.13036
 11
-35.4868
 21
-10.0942
  0
LINE
  8
0
 10
-35.4868
 20
-10.0942
 11
-42.4507
 21
1.9355
  0
LINE
  8
0
 10
23.4571
 20
-3.13036
 11
30.421
 21
8.89937
  0
LINE
  8
0
 10
30.421
 20
8.89937
 11
42.4507
 21
1.9355
  0
LINE
  8
0
 10
42.4507
 20
1.9355
 11
35.4868
 21
-10.0942
  0
LINE
  8
0
 10
35.4868
 20
-10.0942
 11
23.4571
 21
-3.13036
  0
LINE
  8
0
 10
-24.867
 20
-14.9791
 11
-25.3549
 21
-14.7305
  0
LINE
  8
0
 10
-25.3549
 20
-14.7305
 11
-25.742
 21
-14.3434
  0
LINE
  8
0
 10
-25.742
 20
-14.3434
 11
-25.9906
 21
-13.8555
  0
LINE
  8
0
 10
-25.9906
 20
-13.8555
 11
-26.0762
 21
-13.3148
  0
LINE
  8
0
 10
-26.0762
 20
-13.3148
 11
-25.9906
 21
-12.774
  0
LINE
  8
0
 10
-25.9906
 20
-12.774
 11
-25.742
 21
-12.2861
  0
LINE
  8
0
 10
-25.742
 20
-12.2861
 11
-25.3549
 21
-11.899
  0
LINE
  8
0
 10
-25.3549
 20
-11.899
 11
-24.867
 21
-11.6504
  0
LINE
  8
0
 10
-24.867
 20
-11.6504
 11
-24.3262
 21
-11.5648
  0
LINE
  8
0
 10
-24.3262
 20
-11.5648
 11
-23.7854
 21
-11.6504
  0
LINE
  8
0
 10
-23.7854
 20
-11.6504
 11
-23.2976
 21
-11.899
  0
LINE
  8
0
 10
-23.2976
 20
-11.899
 11
-22.9105
 21
-12.2861
  0
LINE
  8
0
 10
-22.9105
 20
-12.2861
 11
-22.6619
 21
-12.774
  0
LINE
  8
0
 10
-22.6619
 20
-12.774
 11
-22.5762
 21
-13.3148
  0
LINE
  8
0
 10
-22.5762
 20
-13.3148
 11
-22.6619
 21
-13.8556
  0
LINE
  8
0
 10
-22.6619
 20
-13.8556
 11
-22.9105
 21
-14.3434
  0
LINE
  8
0
 10
-22.9105
 20
-14.3434
 11
-23.2976
 21
-14.7305
  0
LINE
  8
0
 10
-23.2976
 20
-14.7305
 11
-23.7855
 21
-14.9791
  0
LINE
  8
0
 10
-23.7855
 20
-14.9791
 11
-24.3262
 21
-15.0648
  0
LINE
  8
0
 10
-24.3262
 20
-15.0648
 11
-24.867
 21
-14.9791
  0
LINE
  8
0
 10
23.7855
 20
-14.9791
 11
23.2976
 21
-14.7305
  0
LINE
  8
0
 10
23.2976
 20
-14.7305
 11
22.9105
 21
-14.3434
  0
LINE
  8
0
 10
22.9105
 20
-14.3434
 11
22.6619
 21
-13.8556
  0
LINE
  8
0
 10
22.6619
 20
-13.8556
 11
22.5762
 21
-13.3148
  0
LINE
  8
0
 10
22.5762
 20
-13.3148
 11
22.6619
 21
-12.774
  0
LINE
  8
0
 10
22.6619
 20
-12.774
 11
22.9105
 21
-12.2861
  0
LINE
  8
0
 10
22.9105
 20
-12.2861
 11
23.2976
 21
-11.899
  0
LINE
  8
0
 10
23.2976
 20
-11.899
 11
23.7854
 21
-11.6504
  0
LINE
  8
0
 10
23.7854
 20
-11.6504
 11
24.3262
 21
-11.5648
  0
LINE
  8
0
 10
24.3262
 20
-11.5648
 11
24.867
 21
-11.6504
  0
LINE
  8
0
 10
24.867
 20
-11.6504
 11
25.3549
 21
-11.899
  0
LINE
  8
0
 10
25.3549
 20
-11.899
 11
25.742
 21
-12.2861
  0
LINE
  8
0
 10
25.742
 20
-12.2861
 11
25.9906
 21
-12.774
  0
LINE
  8
0
 10
25.9906
 20
-12.774
 11
26.0762
 21
-13.3148
  0
LINE
  8
0
 10
26.0762
 20
-13.3148
 11
25.9906
 21
-13.8555
  0
LINE
  8
0
 10
25.9906
 20
-13.8555
 11
25.742
 21
-14.3434
  0
LINE
  8
0
 10
25.742
 20
-14.3434
 11
25.3549
 21
-14.7305
  0
LINE
  8
0
 10
25.3549
 20
-14.7305
 11
24.867
 21
-14.9791
  0
LINE
  8
0
 10
24.867
 20
-14.9791
 11
24.3262
 21
-15.0648
  0
LINE
  8
0
 10
24.3262
 20
-15.0648
 11
23.7855
 21
-14.9791
  0
ENDSEC
  0
SECTION
  2
OBJECTS
  0
DICTIONARY
  0
ENDSEC
  0
EOF
