  0
SECTION
  2
BLOCKS
  0
ENDSEC
  0
SECTION
  2
ENTITIES
  0
LINE
  8
0
 10
25.8966
 20
-120.737
 11
28.5225
 21
-119.036
  0
LINE
  8
0
 10
28.5225
 20
-119.036
 11
41.3176
 21
-107.542
  0
LINE
  8
0
 10
41.3176
 20
-107.542
 11
53.1713
 21
-103
  0
LINE
  8
0
 10
53.1713
 20
-103
 11
135
 21
-103
  0
LINE
  8
0
 10
135
 20
-103
 11
136.545
 21
-102.755
  0
LINE
  8
0
 10
136.545
 20
-102.755
 11
137.939
 21
-102.045
  0
LINE
  8
0
 10
137.939
 20
-102.045
 11
139.045
 21
-100.939
  0
LINE
  8
0
 10
139.045
 20
-100.939
 11
139.755
 21
-99.5451
  0
LINE
  8
0
 10
139.755
 20
-99.5451
 11
140
 21
-98
  0
LINE
  8
0
 10
140
 20
-98
 11
140
 21
-5
  0
LINE
  8
0
 10
140
 20
-5
 11
139.755
 21
-3.45491
  0
LINE
  8
0
 10
139.755
 20
-3.45491
 11
139.045
 21
-2.06108
  0
LINE
  8
0
 10
139.045
 20
-2.06108
 11
137.939
 21
-0.95491
  0
LINE
  8
0
 10
137.939
 20
-0.95491
 11
136.545
 21
-0.24472
  0
LINE
  8
0
 10
136.545
 20
-0.24472
 11
135
 21
0
  0
LINE
  8
0
 10
135
 20
0
 11
-135
 21
0
  0
LINE
  8
0
 10
-135
 20
0
 11
-136.545
 21
-0.24472
  0
LINE
  8
0
 10
-136.545
 20
-0.24472
 11
-137.939
 21
-0.95491
  0
LINE
  8
0
 10
-137.939
 20
-0.95491
 11
-139.045
 21
-2.06108
  0
LINE
  8
0
 10
-139.045
 20
-2.06108
 11
-139.755
 21
-3.45491
  0
LINE
  8
0
 10
-139.755
 20
-3.45491
 11
-140
 21
-5
  0
LINE
  8
0
 10
-140
 20
-5
 11
-140
 21
-98
  0
LINE
  8
0
 10
-140
 20
-98
 11
-139.755
 21
-99.5451
  0
LINE
  8
0
 10
-139.755
 20
-99.5451
 11
-139.045
 21
-100.939
  0
LINE
  8
0
 10
-139.045
 20
-100.939
 11
-137.939
 21
-102.045
  0
LINE
  8
0
 10
-137.939
 20
-102.045
 11
-136.545
 21
-102.755
  0
LINE
  8
0
 10
-136.545
 20
-102.755
 11
-135
 21
-103
  0
LINE
  8
0
 10
-135
 20
-103
 11
-53.1713
 21
-103
  0
LINE
  8
0
 10
-53.1713
 20
-103
 11
-41.3176
 21
-107.542
  0
LINE
  8
0
 10
-41.3176
 20
-107.542
 11
-28.5225
 21
-119.036
  0
LINE
  8
0
 10
-28.5225
 20
-119.036
 11
-25.8966
 21
-120.737
  0
LINE
  8
0
 10
-25.8966
 20
-120.737
 11
-22.8736
 21
-121.544
  0
LINE
  8
0
 10
-22.8736
 20
-121.544
 11
-19.7494
 21
-121.376
  0
LINE
  8
0
 10
-19.7494
 20
-121.376
 11
-16.8298
 21
-120.252
  0
LINE
  8
0
 10
-16.8298
 20
-120.252
 11
-14.4007
 21
-118.28
  0
LINE
  8
0
 10
-14.4007
 20
-118.28
 11
-1.67003
 21
-104.108
  0
LINE
  8
0
 10
-1.67003
 20
-104.108
 11
-0.952026
 21
-103
  0
LINE
  8
0
 10
-0.952026
 20
-103
 11
0.952026
 21
-103
  0
LINE
  8
0
 10
0.952026
 20
-103
 11
1.67003
 21
-104.108
  0
LINE
  8
0
 10
1.67003
 20
-104.108
 11
14.4007
 21
-118.28
  0
LINE
  8
0
 10
14.4007
 20
-118.28
 11
16.8298
 21
-120.252
  0
LINE
  8
0
 10
16.8298
 20
-120.252
 11
19.7494
 21
-121.376
  0
LINE
  8
0
 10
19.7494
 20
-121.376
 11
22.8736
 21
-121.544
  0
LINE
  8
0
 10
22.8736
 20
-121.544
 11
25.8966
 21
-120.737
  0
LINE
  8
0
 10
64.4592
 20
-7.66434
 11
63.9714
 21
-7.41577
  0
LINE
  8
0
 10
63.9714
 20
-7.41577
 11
63.5842
 21
-7.02861
  0
LINE
  8
0
 10
63.5842
 20
-7.02861
 11
63.3356
 21
-6.54077
  0
LINE
  8
0
 10
63.3356
 20
-6.54077
 11
63.25
 21
-6
  0
LINE
  8
0
 10
63.25
 20
-6
 11
63.3356
 21
-5.45921
  0
LINE
  8
0
 10
63.3356
 20
-5.45921
 11
63.5842
 21
-4.97137
  0
LINE
  8
0
 10
63.5842
 20
-4.97137
 11
63.9714
 21
-4.58421
  0
LINE
  8
0
 10
63.9714
 20
-4.58421
 11
64.4592
 21
-4.33565
  0
LINE
  8
0
 10
64.4592
 20
-4.33565
 11
65
 21
-4.25
  0
LINE
  8
0
 10
65
 20
-4.25
 11
65.5408
 21
-4.33565
  0
LINE
  8
0
 10
65.5408
 20
-4.33565
 11
66.0286
 21
-4.58421
  0
LINE
  8
0
 10
66.0286
 20
-4.58421
 11
66.4158
 21
-4.97137
  0
LINE
  8
0
 10
66.4158
 20
-4.97137
 11
66.6643
 21
-5.45921
  0
LINE
  8
0
 10
66.6643
 20
-5.45921
 11
66.75
 21
-6
  0
LINE
  8
0
 10
66.75
 20
-6
 11
66.6643
 21
-6.54077
  0
LINE
  8
0
 10
66.6643
 20
-6.54077
 11
66.4158
 21
-7.02861
  0
LINE
  8
0
 10
66.4158
 20
-7.02861
 11
66.0286
 21
-7.41577
  0
LINE
  8
0
 10
66.0286
 20
-7.41577
 11
65.5408
 21
-7.66434
  0
LINE
  8
0
 10
65.5408
 20
-7.66434
 11
65
 21
-7.75
  0
LINE
  8
0
 10
65
 20
-7.75
 11
64.4592
 21
-7.66434
  0
LINE
  8
0
 10
-0.540771
 20
-7.66434
 11
-1.02861
 21
-7.41577
  0
LINE
  8
0
 10
-1.02861
 20
-7.41577
 11
-1.41577
 21
-7.02861
  0
LINE
  8
0
 10
-1.41577
 20
-7.02861
 11
-1.66434
 21
-6.54077
  0
LINE
  8
0
 10
-1.66434
 20
-6.54077
 11
-1.75
 21
-6
  0
LINE
  8
0
 10
-1.75
 20
-6
 11
-1.66434
 21
-5.45921
  0
LINE
  8
0
 10
-1.66434
 20
-5.45921
 11
-1.41577
 21
-4.97137
  0
LINE
  8
0
 10
-1.41577
 20
-4.97137
 11
-1.02861
 21
-4.58421
  0
LINE
  8
0
 10
-1.02861
 20
-4.58421
 11
-0.540771
 21
-4.33565
  0
LINE
  8
0
 10
-0.540771
 20
-4.33565
 11
0
 21
-4.25
  0
LINE
  8
0
 10
0
 20
-4.25
 11
0.540771
 21
-4.33565
  0
LINE
  8
0
 10
0.540771
 20
-4.33565
 11
1.02861
 21
-4.58421
  0
LINE
  8
0
 10
1.02861
 20
-4.58421
 11
1.41577
 21
-4.97137
  0
LINE
  8
0
 10
1.41577
 20
-4.97137
 11
1.66434
 21
-5.45921
  0
LINE
  8
0
 10
1.66434
 20
-5.45921
 11
1.75
 21
-6
  0
LINE
  8
0
 10
1.75
 20
-6
 11
1.66434
 21
-6.54077
  0
LINE
  8
0
 10
1.66434
 20
-6.54077
 11
1.41577
 21
-7.02861
  0
LINE
  8
0
 10
1.41577
 20
-7.02861
 11
1.02861
 21
-7.41577
  0
LINE
  8
0
 10
1.02861
 20
-7.41577
 11
0.540771
 21
-7.66434
  0
LINE
  8
0
 10
0.540771
 20
-7.66434
 11
0
 21
-7.75
  0
LINE
  8
0
 10
0
 20
-7.75
 11
-0.540771
 21
-7.66434
  0
LINE
  8
0
 10
-65.5408
 20
-7.66434
 11
-66.0286
 21
-7.41577
  0
LINE
  8
0
 10
-66.0286
 20
-7.41577
 11
-66.4158
 21
-7.02861
  0
LINE
  8
0
 10
-66.4158
 20
-7.02861
 11
-66.6643
 21
-6.54077
  0
LINE
  8
0
 10
-66.6643
 20
-6.54077
 11
-66.75
 21
-6
  0
LINE
  8
0
 10
-66.75
 20
-6
 11
-66.6643
 21
-5.45921
  0
LINE
  8
0
 10
-66.6643
 20
-5.45921
 11
-66.4158
 21
-4.97137
  0
LINE
  8
0
 10
-66.4158
 20
-4.97137
 11
-66.0286
 21
-4.58421
  0
LINE
  8
0
 10
-66.0286
 20
-4.58421
 11
-65.5408
 21
-4.33565
  0
LINE
  8
0
 10
-65.5408
 20
-4.33565
 11
-65
 21
-4.25
  0
LINE
  8
0
 10
-65
 20
-4.25
 11
-64.4592
 21
-4.33565
  0
LINE
  8
0
 10
-64.4592
 20
-4.33565
 11
-63.9714
 21
-4.58421
  0
LINE
  8
0
 10
-63.9714
 20
-4.58421
 11
-63.5842
 21
-4.97137
  0
LINE
  8
0
 10
-63.5842
 20
-4.97137
 11
-63.3356
 21
-5.45921
  0
LINE
  8
0
 10
-63.3356
 20
-5.45921
 11
-63.25
 21
-6
  0
LINE
  8
0
 10
-63.25
 20
-6
 11
-63.3356
 21
-6.54077
  0
LINE
  8
0
 10
-63.3356
 20
-6.54077
 11
-63.5842
 21
-7.02861
  0
LINE
  8
0
 10
-63.5842
 20
-7.02861
 11
-63.9714
 21
-7.41577
  0
LINE
  8
0
 10
-63.9714
 20
-7.41577
 11
-64.4592
 21
-7.66434
  0
LINE
  8
0
 10
-64.4592
 20
-7.66434
 11
-65
 21
-7.75
  0
LINE
  8
0
 10
-65
 20
-7.75
 11
-65.5408
 21
-7.66434
  0
LINE
  8
0
 10
129.459
 20
-7.66434
 11
128.971
 21
-7.41577
  0
LINE
  8
0
 10
128.971
 20
-7.41577
 11
128.584
 21
-7.02861
  0
LINE
  8
0
 10
128.584
 20
-7.02861
 11
128.336
 21
-6.54077
  0
LINE
  8
0
 10
128.336
 20
-6.54077
 11
128.25
 21
-6
  0
LINE
  8
0
 10
128.25
 20
-6
 11
128.336
 21
-5.45921
  0
LINE
  8
0
 10
128.336
 20
-5.45921
 11
128.584
 21
-4.97137
  0
LINE
  8
0
 10
128.584
 20
-4.97137
 11
128.971
 21
-4.58421
  0
LINE
  8
0
 10
128.971
 20
-4.58421
 11
129.459
 21
-4.33565
  0
LINE
  8
0
 10
129.459
 20
-4.33565
 11
130
 21
-4.25
  0
LINE
  8
0
 10
130
 20
-4.25
 11
130.541
 21
-4.33565
  0
LINE
  8
0
 10
130.541
 20
-4.33565
 11
131.029
 21
-4.58421
  0
LINE
  8
0
 10
131.029
 20
-4.58421
 11
131.416
 21
-4.97137
  0
LINE
  8
0
 10
131.416
 20
-4.97137
 11
131.664
 21
-5.45921
  0
LINE
  8
0
 10
131.664
 20
-5.45921
 11
131.75
 21
-6
  0
LINE
  8
0
 10
131.75
 20
-6
 11
131.664
 21
-6.54077
  0
LINE
  8
0
 10
131.664
 20
-6.54077
 11
131.416
 21
-7.02861
  0
LINE
  8
0
 10
131.416
 20
-7.02861
 11
131.029
 21
-7.41577
  0
LINE
  8
0
 10
131.029
 20
-7.41577
 11
130.541
 21
-7.66434
  0
LINE
  8
0
 10
130.541
 20
-7.66434
 11
130
 21
-7.75
  0
LINE
  8
0
 10
130
 20
-7.75
 11
129.459
 21
-7.66434
  0
LINE
  8
0
 10
-130.541
 20
-7.66434
 11
-131.029
 21
-7.41577
  0
LINE
  8
0
 10
-131.029
 20
-7.41577
 11
-131.416
 21
-7.02861
  0
LINE
  8
0
 10
-131.416
 20
-7.02861
 11
-131.664
 21
-6.54077
  0
LINE
  8
0
 10
-131.664
 20
-6.54077
 11
-131.75
 21
-6
  0
LINE
  8
0
 10
-131.75
 20
-6
 11
-131.664
 21
-5.45921
  0
LINE
  8
0
 10
-131.664
 20
-5.45921
 11
-131.416
 21
-4.97137
  0
LINE
  8
0
 10
-131.416
 20
-4.97137
 11
-131.029
 21
-4.58421
  0
LINE
  8
0
 10
-131.029
 20
-4.58421
 11
-130.541
 21
-4.33565
  0
LINE
  8
0
 10
-130.541
 20
-4.33565
 11
-130
 21
-4.25
  0
LINE
  8
0
 10
-130
 20
-4.25
 11
-129.459
 21
-4.33565
  0
LINE
  8
0
 10
-129.459
 20
-4.33565
 11
-128.971
 21
-4.58421
  0
LINE
  8
0
 10
-128.971
 20
-4.58421
 11
-128.584
 21
-4.97137
  0
LINE
  8
0
 10
-128.584
 20
-4.97137
 11
-128.336
 21
-5.45921
  0
LINE
  8
0
 10
-128.336
 20
-5.45921
 11
-128.25
 21
-6
  0
LINE
  8
0
 10
-128.25
 20
-6
 11
-128.336
 21
-6.54077
  0
LINE
  8
0
 10
-128.336
 20
-6.54077
 11
-128.584
 21
-7.02861
  0
LINE
  8
0
 10
-128.584
 20
-7.02861
 11
-128.971
 21
-7.41577
  0
LINE
  8
0
 10
-128.971
 20
-7.41577
 11
-129.459
 21
-7.66434
  0
LINE
  8
0
 10
-129.459
 20
-7.66434
 11
-130
 21
-7.75
  0
LINE
  8
0
 10
-130
 20
-7.75
 11
-130.541
 21
-7.66434
  0
LINE
  8
0
 10
75.375
 20
-26.525
 11
75.375
 21
-12.525
  0
LINE
  8
0
 10
75.375
 20
-12.525
 11
89.375
 21
-12.525
  0
LINE
  8
0
 10
89.375
 20
-12.525
 11
89.375
 21
-26.525
  0
LINE
  8
0
 10
89.375
 20
-26.525
 11
75.375
 21
-26.525
  0
LINE
  8
0
 10
-89.375
 20
-26.525
 11
-89.375
 21
-12.525
  0
LINE
  8
0
 10
-89.375
 20
-12.525
 11
-75.375
 21
-12.525
  0
LINE
  8
0
 10
-75.375
 20
-12.525
 11
-75.375
 21
-26.525
  0
LINE
  8
0
 10
-75.375
 20
-26.525
 11
-89.375
 21
-26.525
  0
LINE
  8
0
 10
-108.425
 20
-28.525
 11
-108.425
 21
-14.525
  0
LINE
  8
0
 10
-108.425
 20
-14.525
 11
-94.425
 21
-14.525
  0
LINE
  8
0
 10
-94.425
 20
-14.525
 11
-94.425
 21
-28.525
  0
LINE
  8
0
 10
-94.425
 20
-28.525
 11
-108.425
 21
-28.525
  0
LINE
  8
0
 10
94.425
 20
-28.525
 11
94.425
 21
-14.525
  0
LINE
  8
0
 10
94.425
 20
-14.525
 11
108.425
 21
-14.525
  0
LINE
  8
0
 10
108.425
 20
-14.525
 11
108.425
 21
-28.525
  0
LINE
  8
0
 10
108.425
 20
-28.525
 11
94.425
 21
-28.525
  0
LINE
  8
0
 10
-15.7408
 20
-17.9644
 11
-16.2286
 21
-17.7158
  0
LINE
  8
0
 10
-16.2286
 20
-17.7158
 11
-16.6158
 21
-17.3286
  0
LINE
  8
0
 10
-16.6158
 20
-17.3286
 11
-16.8643
 21
-16.8408
  0
LINE
  8
0
 10
-16.8643
 20
-16.8408
 11
-16.95
 21
-16.3
  0
LINE
  8
0
 10
-16.95
 20
-16.3
 11
-16.8643
 21
-15.7592
  0
LINE
  8
0
 10
-16.8643
 20
-15.7592
 11
-16.6158
 21
-15.2714
  0
LINE
  8
0
 10
-16.6158
 20
-15.2714
 11
-16.2286
 21
-14.8842
  0
LINE
  8
0
 10
-16.2286
 20
-14.8842
 11
-15.7408
 21
-14.6357
  0
LINE
  8
0
 10
-15.7408
 20
-14.6357
 11
-15.2
 21
-14.55
  0
LINE
  8
0
 10
-15.2
 20
-14.55
 11
-14.6592
 21
-14.6357
  0
LINE
  8
0
 10
-14.6592
 20
-14.6357
 11
-14.1714
 21
-14.8842
  0
LINE
  8
0
 10
-14.1714
 20
-14.8842
 11
-13.7842
 21
-15.2714
  0
LINE
  8
0
 10
-13.7842
 20
-15.2714
 11
-13.5356
 21
-15.7592
  0
LINE
  8
0
 10
-13.5356
 20
-15.7592
 11
-13.45
 21
-16.3
  0
LINE
  8
0
 10
-13.45
 20
-16.3
 11
-13.5356
 21
-16.8408
  0
LINE
  8
0
 10
-13.5356
 20
-16.8408
 11
-13.7842
 21
-17.3286
  0
LINE
  8
0
 10
-13.7842
 20
-17.3286
 11
-14.1714
 21
-17.7158
  0
LINE
  8
0
 10
-14.1714
 20
-17.7158
 11
-14.6592
 21
-17.9644
  0
LINE
  8
0
 10
-14.6592
 20
-17.9644
 11
-15.2
 21
-18.05
  0
LINE
  8
0
 10
-15.2
 20
-18.05
 11
-15.7408
 21
-17.9644
  0
LINE
  8
0
 10
14.6592
 20
-17.9644
 11
14.1714
 21
-17.7158
  0
LINE
  8
0
 10
14.1714
 20
-17.7158
 11
13.7842
 21
-17.3286
  0
LINE
  8
0
 10
13.7842
 20
-17.3286
 11
13.5356
 21
-16.8408
  0
LINE
  8
0
 10
13.5356
 20
-16.8408
 11
13.45
 21
-16.3
  0
LINE
  8
0
 10
13.45
 20
-16.3
 11
13.5356
 21
-15.7592
  0
LINE
  8
0
 10
13.5356
 20
-15.7592
 11
13.7842
 21
-15.2714
  0
LINE
  8
0
 10
13.7842
 20
-15.2714
 11
14.1714
 21
-14.8842
  0
LINE
  8
0
 10
14.1714
 20
-14.8842
 11
14.6592
 21
-14.6357
  0
LINE
  8
0
 10
14.6592
 20
-14.6357
 11
15.2
 21
-14.55
  0
LINE
  8
0
 10
15.2
 20
-14.55
 11
15.7408
 21
-14.6357
  0
LINE
  8
0
 10
15.7408
 20
-14.6357
 11
16.2286
 21
-14.8842
  0
LINE
  8
0
 10
16.2286
 20
-14.8842
 11
16.6158
 21
-15.2714
  0
LINE
  8
0
 10
16.6158
 20
-15.2714
 11
16.8643
 21
-15.7592
  0
LINE
  8
0
 10
16.8643
 20
-15.7592
 11
16.95
 21
-16.3
  0
LINE
  8
0
 10
16.95
 20
-16.3
 11
16.8643
 21
-16.8408
  0
LINE
  8
0
 10
16.8643
 20
-16.8408
 11
16.6158
 21
-17.3286
  0
LINE
  8
0
 10
16.6158
 20
-17.3286
 11
16.2286
 21
-17.7158
  0
LINE
  8
0
 10
16.2286
 20
-17.7158
 11
15.7408
 21
-17.9644
  0
LINE
  8
0
 10
15.7408
 20
-17.9644
 11
15.2
 21
-18.05
  0
LINE
  8
0
 10
15.2
 20
-18.05
 11
14.6592
 21
-17.9644
  0
LINE
  8
0
 10
-70.325
 20
-29.025
 11
-70.325
 21
-15.025
  0
LINE
  8
0
 10
-70.325
 20
-15.025
 11
-56.325
 21
-15.025
  0
LINE
  8
0
 10
-56.325
 20
-15.025
 11
-56.325
 21
-29.025
  0
LINE
  8
0
 10
-56.325
 20
-29.025
 11
-70.325
 21
-29.025
  0
LINE
  8
0
 10
56.325
 20
-29.025
 11
56.325
 21
-15.025
  0
LINE
  8
0
 10
56.325
 20
-15.025
 11
70.325
 21
-15.025
  0
LINE
  8
0
 10
70.325
 20
-15.025
 11
70.325
 21
-29.025
  0
LINE
  8
0
 10
70.325
 20
-29.025
 11
56.325
 21
-29.025
  0
LINE
  8
0
 10
-51.275
 20
-29.525
 11
-51.275
 21
-15.525
  0
LINE
  8
0
 10
-51.275
 20
-15.525
 11
-37.275
 21
-15.525
  0
LINE
  8
0
 10
-37.275
 20
-15.525
 11
-37.275
 21
-29.525
  0
LINE
  8
0
 10
-37.275
 20
-29.525
 11
-51.275
 21
-29.525
  0
LINE
  8
0
 10
37.275
 20
-29.525
 11
37.275
 21
-15.525
  0
LINE
  8
0
 10
37.275
 20
-15.525
 11
51.275
 21
-15.525
  0
LINE
  8
0
 10
51.275
 20
-15.525
 11
51.275
 21
-29.525
  0
LINE
  8
0
 10
51.275
 20
-29.525
 11
37.275
 21
-29.525
  0
LINE
  8
0
 10
113.475
 20
-30.525
 11
113.475
 21
-16.525
  0
LINE
  8
0
 10
113.475
 20
-16.525
 11
127.475
 21
-16.525
  0
LINE
  8
0
 10
127.475
 20
-16.525
 11
127.475
 21
-30.525
  0
LINE
  8
0
 10
127.475
 20
-30.525
 11
113.475
 21
-30.525
  0
LINE
  8
0
 10
-127.475
 20
-30.525
 11
-127.475
 21
-16.525
  0
LINE
  8
0
 10
-127.475
 20
-16.525
 11
-113.475
 21
-16.525
  0
LINE
  8
0
 10
-113.475
 20
-16.525
 11
-113.475
 21
-30.525
  0
LINE
  8
0
 10
-113.475
 20
-30.525
 11
-127.475
 21
-30.525
  0
LINE
  8
0
 10
-18
 20
-40
 11
-18
 21
-20
  0
LINE
  8
0
 10
-18
 20
-20
 11
18
 21
-20
  0
LINE
  8
0
 10
18
 20
-20
 11
18
 21
-40
  0
LINE
  8
0
 10
18
 20
-40
 11
-18
 21
-40
  0
LINE
  8
0
 10
75.375
 20
-45.575
 11
75.375
 21
-31.575
  0
LINE
  8
0
 10
75.375
 20
-31.575
 11
89.375
 21
-31.575
  0
LINE
  8
0
 10
89.375
 20
-31.575
 11
89.375
 21
-45.575
  0
LINE
  8
0
 10
89.375
 20
-45.575
 11
75.375
 21
-45.575
  0
LINE
  8
0
 10
-89.375
 20
-45.575
 11
-89.375
 21
-31.575
  0
LINE
  8
0
 10
-89.375
 20
-31.575
 11
-75.375
 21
-31.575
  0
LINE
  8
0
 10
-75.375
 20
-31.575
 11
-75.375
 21
-45.575
  0
LINE
  8
0
 10
-75.375
 20
-45.575
 11
-89.375
 21
-45.575
  0
LINE
  8
0
 10
-108.425
 20
-47.575
 11
-108.425
 21
-33.575
  0
LINE
  8
0
 10
-108.425
 20
-33.575
 11
-94.425
 21
-33.575
  0
LINE
  8
0
 10
-94.425
 20
-33.575
 11
-94.425
 21
-47.575
  0
LINE
  8
0
 10
-94.425
 20
-47.575
 11
-108.425
 21
-47.575
  0
LINE
  8
0
 10
94.425
 20
-47.575
 11
94.425
 21
-33.575
  0
LINE
  8
0
 10
94.425
 20
-33.575
 11
108.425
 21
-33.575
  0
LINE
  8
0
 10
108.425
 20
-33.575
 11
108.425
 21
-47.575
  0
LINE
  8
0
 10
108.425
 20
-47.575
 11
94.425
 21
-47.575
  0
LINE
  8
0
 10
56.325
 20
-48.075
 11
56.325
 21
-34.075
  0
LINE
  8
0
 10
56.325
 20
-34.075
 11
70.325
 21
-34.075
  0
LINE
  8
0
 10
70.325
 20
-34.075
 11
70.325
 21
-48.075
  0
LINE
  8
0
 10
70.325
 20
-48.075
 11
56.325
 21
-48.075
  0
LINE
  8
0
 10
-70.325
 20
-48.075
 11
-70.325
 21
-34.075
  0
LINE
  8
0
 10
-70.325
 20
-34.075
 11
-56.325
 21
-34.075
  0
LINE
  8
0
 10
-56.325
 20
-34.075
 11
-56.325
 21
-48.075
  0
LINE
  8
0
 10
-56.325
 20
-48.075
 11
-70.325
 21
-48.075
  0
LINE
  8
0
 10
-51.275
 20
-48.575
 11
-51.275
 21
-34.575
  0
LINE
  8
0
 10
-51.275
 20
-34.575
 11
-37.275
 21
-34.575
  0
LINE
  8
0
 10
-37.275
 20
-34.575
 11
-37.275
 21
-48.575
  0
LINE
  8
0
 10
-37.275
 20
-48.575
 11
-51.275
 21
-48.575
  0
LINE
  8
0
 10
37.275
 20
-48.575
 11
37.275
 21
-34.575
  0
LINE
  8
0
 10
37.275
 20
-34.575
 11
51.275
 21
-34.575
  0
LINE
  8
0
 10
51.275
 20
-34.575
 11
51.275
 21
-48.575
  0
LINE
  8
0
 10
51.275
 20
-48.575
 11
37.275
 21
-48.575
  0
LINE
  8
0
 10
113.475
 20
-49.575
 11
113.475
 21
-35.575
  0
LINE
  8
0
 10
113.475
 20
-35.575
 11
127.475
 21
-35.575
  0
LINE
  8
0
 10
127.475
 20
-35.575
 11
127.475
 21
-49.575
  0
LINE
  8
0
 10
127.475
 20
-49.575
 11
113.475
 21
-49.575
  0
LINE
  8
0
 10
-127.475
 20
-49.575
 11
-127.475
 21
-35.575
  0
LINE
  8
0
 10
-127.475
 20
-35.575
 11
-113.475
 21
-35.575
  0
LINE
  8
0
 10
-113.475
 20
-35.575
 11
-113.475
 21
-49.575
  0
LINE
  8
0
 10
-113.475
 20
-49.575
 11
-127.475
 21
-49.575
  0
LINE
  8
0
 10
14.6592
 20
-46.6643
 11
14.1714
 21
-46.4158
  0
LINE
  8
0
 10
14.1714
 20
-46.4158
 11
13.7842
 21
-46.0286
  0
LINE
  8
0
 10
13.7842
 20
-46.0286
 11
13.5356
 21
-45.5408
  0
LINE
  8
0
 10
13.5356
 20
-45.5408
 11
13.45
 21
-45
  0
LINE
  8
0
 10
13.45
 20
-45
 11
13.5356
 21
-44.4592
  0
LINE
  8
0
 10
13.5356
 20
-44.4592
 11
13.7842
 21
-43.9714
  0
LINE
  8
0
 10
13.7842
 20
-43.9714
 11
14.1714
 21
-43.5842
  0
LINE
  8
0
 10
14.1714
 20
-43.5842
 11
14.6592
 21
-43.3356
  0
LINE
  8
0
 10
14.6592
 20
-43.3356
 11
15.2
 21
-43.25
  0
LINE
  8
0
 10
15.2
 20
-43.25
 11
15.7408
 21
-43.3356
  0
LINE
  8
0
 10
15.7408
 20
-43.3356
 11
16.2286
 21
-43.5842
  0
LINE
  8
0
 10
16.2286
 20
-43.5842
 11
16.6158
 21
-43.9714
  0
LINE
  8
0
 10
16.6158
 20
-43.9714
 11
16.8643
 21
-44.4592
  0
LINE
  8
0
 10
16.8643
 20
-44.4592
 11
16.95
 21
-45
  0
LINE
  8
0
 10
16.95
 20
-45
 11
16.8643
 21
-45.5408
  0
LINE
  8
0
 10
16.8643
 20
-45.5408
 11
16.6158
 21
-46.0286
  0
LINE
  8
0
 10
16.6158
 20
-46.0286
 11
16.2286
 21
-46.4158
  0
LINE
  8
0
 10
16.2286
 20
-46.4158
 11
15.7408
 21
-46.6643
  0
LINE
  8
0
 10
15.7408
 20
-46.6643
 11
15.2
 21
-46.75
  0
LINE
  8
0
 10
15.2
 20
-46.75
 11
14.6592
 21
-46.6643
  0
LINE
  8
0
 10
-15.7408
 20
-46.6643
 11
-16.2286
 21
-46.4158
  0
LINE
  8
0
 10
-16.2286
 20
-46.4158
 11
-16.6158
 21
-46.0286
  0
LINE
  8
0
 10
-16.6158
 20
-46.0286
 11
-16.8643
 21
-45.5408
  0
LINE
  8
0
 10
-16.8643
 20
-45.5408
 11
-16.95
 21
-45
  0
LINE
  8
0
 10
-16.95
 20
-45
 11
-16.8643
 21
-44.4592
  0
LINE
  8
0
 10
-16.8643
 20
-44.4592
 11
-16.6158
 21
-43.9714
  0
LINE
  8
0
 10
-16.6158
 20
-43.9714
 11
-16.2286
 21
-43.5842
  0
LINE
  8
0
 10
-16.2286
 20
-43.5842
 11
-15.7408
 21
-43.3356
  0
LINE
  8
0
 10
-15.7408
 20
-43.3356
 11
-15.2
 21
-43.25
  0
LINE
  8
0
 10
-15.2
 20
-43.25
 11
-14.6592
 21
-43.3356
  0
LINE
  8
0
 10
-14.6592
 20
-43.3356
 11
-14.1714
 21
-43.5842
  0
LINE
  8
0
 10
-14.1714
 20
-43.5842
 11
-13.7842
 21
-43.9714
  0
LINE
  8
0
 10
-13.7842
 20
-43.9714
 11
-13.5356
 21
-44.4592
  0
LINE
  8
0
 10
-13.5356
 20
-44.4592
 11
-13.45
 21
-45
  0
LINE
  8
0
 10
-13.45
 20
-45
 11
-13.5356
 21
-45.5408
  0
LINE
  8
0
 10
-13.5356
 20
-45.5408
 11
-13.7842
 21
-46.0286
  0
LINE
  8
0
 10
-13.7842
 20
-46.0286
 11
-14.1714
 21
-46.4158
  0
LINE
  8
0
 10
-14.1714
 20
-46.4158
 11
-14.6592
 21
-46.6643
  0
LINE
  8
0
 10
-14.6592
 20
-46.6643
 11
-15.2
 21
-46.75
  0
LINE
  8
0
 10
-15.2
 20
-46.75
 11
-15.7408
 21
-46.6643
  0
LINE
  8
0
 10
134.459
 20
-51.6643
 11
133.971
 21
-51.4158
  0
LINE
  8
0
 10
133.971
 20
-51.4158
 11
133.584
 21
-51.0286
  0
LINE
  8
0
 10
133.584
 20
-51.0286
 11
133.336
 21
-50.5408
  0
LINE
  8
0
 10
133.336
 20
-50.5408
 11
133.25
 21
-50
  0
LINE
  8
0
 10
133.25
 20
-50
 11
133.336
 21
-49.4592
  0
LINE
  8
0
 10
133.336
 20
-49.4592
 11
133.584
 21
-48.9714
  0
LINE
  8
0
 10
133.584
 20
-48.9714
 11
133.971
 21
-48.5842
  0
LINE
  8
0
 10
133.971
 20
-48.5842
 11
134.459
 21
-48.3356
  0
LINE
  8
0
 10
134.459
 20
-48.3356
 11
135
 21
-48.25
  0
LINE
  8
0
 10
135
 20
-48.25
 11
135.541
 21
-48.3356
  0
LINE
  8
0
 10
135.541
 20
-48.3356
 11
136.029
 21
-48.5842
  0
LINE
  8
0
 10
136.029
 20
-48.5842
 11
136.416
 21
-48.9714
  0
LINE
  8
0
 10
136.416
 20
-48.9714
 11
136.664
 21
-49.4592
  0
LINE
  8
0
 10
136.664
 20
-49.4592
 11
136.75
 21
-50
  0
LINE
  8
0
 10
136.75
 20
-50
 11
136.664
 21
-50.5408
  0
LINE
  8
0
 10
136.664
 20
-50.5408
 11
136.416
 21
-51.0286
  0
LINE
  8
0
 10
136.416
 20
-51.0286
 11
136.029
 21
-51.4158
  0
LINE
  8
0
 10
136.029
 20
-51.4158
 11
135.541
 21
-51.6643
  0
LINE
  8
0
 10
135.541
 20
-51.6643
 11
135
 21
-51.75
  0
LINE
  8
0
 10
135
 20
-51.75
 11
134.459
 21
-51.6643
  0
LINE
  8
0
 10
-135.541
 20
-51.6643
 11
-136.029
 21
-51.4158
  0
LINE
  8
0
 10
-136.029
 20
-51.4158
 11
-136.416
 21
-51.0286
  0
LINE
  8
0
 10
-136.416
 20
-51.0286
 11
-136.664
 21
-50.5408
  0
LINE
  8
0
 10
-136.664
 20
-50.5408
 11
-136.75
 21
-50
  0
LINE
  8
0
 10
-136.75
 20
-50
 11
-136.664
 21
-49.4592
  0
LINE
  8
0
 10
-136.664
 20
-49.4592
 11
-136.416
 21
-48.9714
  0
LINE
  8
0
 10
-136.416
 20
-48.9714
 11
-136.029
 21
-48.5842
  0
LINE
  8
0
 10
-136.029
 20
-48.5842
 11
-135.541
 21
-48.3356
  0
LINE
  8
0
 10
-135.541
 20
-48.3356
 11
-135
 21
-48.25
  0
LINE
  8
0
 10
-135
 20
-48.25
 11
-134.459
 21
-48.3356
  0
LINE
  8
0
 10
-134.459
 20
-48.3356
 11
-133.971
 21
-48.5842
  0
LINE
  8
0
 10
-133.971
 20
-48.5842
 11
-133.584
 21
-48.9714
  0
LINE
  8
0
 10
-133.584
 20
-48.9714
 11
-133.336
 21
-49.4592
  0
LINE
  8
0
 10
-133.336
 20
-49.4592
 11
-133.25
 21
-50
  0
LINE
  8
0
 10
-133.25
 20
-50
 11
-133.336
 21
-50.5408
  0
LINE
  8
0
 10
-133.336
 20
-50.5408
 11
-133.584
 21
-51.0286
  0
LINE
  8
0
 10
-133.584
 20
-51.0286
 11
-133.971
 21
-51.4158
  0
LINE
  8
0
 10
-133.971
 20
-51.4158
 11
-134.459
 21
-51.6643
  0
LINE
  8
0
 10
-134.459
 20
-51.6643
 11
-135
 21
-51.75
  0
LINE
  8
0
 10
-135
 20
-51.75
 11
-135.541
 21
-51.6643
  0
LINE
  8
0
 10
-0.444199
 20
-51.4837
 11
-0.84494
 21
-51.2795
  0
LINE
  8
0
 10
-0.84494
 20
-51.2795
 11
-1.16295
 21
-50.9615
  0
LINE
  8
0
 10
-1.16295
 20
-50.9615
 11
-1.36714
 21
-50.5607
  0
LINE
  8
0
 10
-1.36714
 20
-50.5607
 11
-1.4375
 21
-50.1165
  0
LINE
  8
0
 10
-1.4375
 20
-50.1165
 11
-1.36714
 21
-49.6723
  0
LINE
  8
0
 10
-1.36714
 20
-49.6723
 11
-1.16295
 21
-49.2716
  0
LINE
  8
0
 10
-1.16295
 20
-49.2716
 11
-0.84494
 21
-48.9536
  0
LINE
  8
0
 10
-0.84494
 20
-48.9536
 11
-0.444199
 21
-48.7494
  0
LINE
  8
0
 10
-0.444199
 20
-48.7494
 11
0
 21
-48.679
  0
LINE
  8
0
 10
0
 20
-48.679
 11
0.444199
 21
-48.7494
  0
LINE
  8
0
 10
0.444199
 20
-48.7494
 11
0.84494
 21
-48.9536
  0
LINE
  8
0
 10
0.84494
 20
-48.9536
 11
1.16295
 21
-49.2716
  0
LINE
  8
0
 10
1.16295
 20
-49.2716
 11
1.36714
 21
-49.6723
  0
LINE
  8
0
 10
1.36714
 20
-49.6723
 11
1.4375
 21
-50.1165
  0
LINE
  8
0
 10
1.4375
 20
-50.1165
 11
1.36714
 21
-50.5607
  0
LINE
  8
0
 10
1.36714
 20
-50.5607
 11
1.16295
 21
-50.9615
  0
LINE
  8
0
 10
1.16295
 20
-50.9615
 11
0.84494
 21
-51.2795
  0
LINE
  8
0
 10
0.84494
 20
-51.2795
 11
0.444199
 21
-51.4837
  0
LINE
  8
0
 10
0.444199
 20
-51.4837
 11
0
 21
-51.554
  0
LINE
  8
0
 10
0
 20
-51.554
 11
-0.444199
 21
-51.4837
  0
LINE
  8
0
 10
75.375
 20
-64.625
 11
75.375
 21
-50.625
  0
LINE
  8
0
 10
75.375
 20
-50.625
 11
89.375
 21
-50.625
  0
LINE
  8
0
 10
89.375
 20
-50.625
 11
89.375
 21
-64.625
  0
LINE
  8
0
 10
89.375
 20
-64.625
 11
75.375
 21
-64.625
  0
LINE
  8
0
 10
-89.375
 20
-64.625
 11
-89.375
 21
-50.625
  0
LINE
  8
0
 10
-89.375
 20
-50.625
 11
-75.375
 21
-50.625
  0
LINE
  8
0
 10
-75.375
 20
-50.625
 11
-75.375
 21
-64.625
  0
LINE
  8
0
 10
-75.375
 20
-64.625
 11
-89.375
 21
-64.625
  0
LINE
  8
0
 10
94.425
 20
-66.625
 11
94.425
 21
-52.625
  0
LINE
  8
0
 10
94.425
 20
-52.625
 11
108.425
 21
-52.625
  0
LINE
  8
0
 10
108.425
 20
-52.625
 11
108.425
 21
-66.625
  0
LINE
  8
0
 10
108.425
 20
-66.625
 11
94.425
 21
-66.625
  0
LINE
  8
0
 10
-108.425
 20
-66.625
 11
-108.425
 21
-52.625
  0
LINE
  8
0
 10
-108.425
 20
-52.625
 11
-94.425
 21
-52.625
  0
LINE
  8
0
 10
-94.425
 20
-52.625
 11
-94.425
 21
-66.625
  0
LINE
  8
0
 10
-94.425
 20
-66.625
 11
-108.425
 21
-66.625
  0
LINE
  8
0
 10
-70.325
 20
-67.125
 11
-70.325
 21
-53.125
  0
LINE
  8
0
 10
-70.325
 20
-53.125
 11
-56.325
 21
-53.125
  0
LINE
  8
0
 10
-56.325
 20
-53.125
 11
-56.325
 21
-67.125
  0
LINE
  8
0
 10
-56.325
 20
-67.125
 11
-70.325
 21
-67.125
  0
LINE
  8
0
 10
56.325
 20
-67.125
 11
56.325
 21
-53.125
  0
LINE
  8
0
 10
56.325
 20
-53.125
 11
70.325
 21
-53.125
  0
LINE
  8
0
 10
70.325
 20
-53.125
 11
70.325
 21
-67.125
  0
LINE
  8
0
 10
70.325
 20
-67.125
 11
56.325
 21
-67.125
  0
LINE
  8
0
 10
-51.275
 20
-67.625
 11
-51.275
 21
-53.625
  0
LINE
  8
0
 10
-51.275
 20
-53.625
 11
-37.275
 21
-53.625
  0
LINE
  8
0
 10
-37.275
 20
-53.625
 11
-37.275
 21
-67.625
  0
LINE
  8
0
 10
-37.275
 20
-67.625
 11
-51.275
 21
-67.625
  0
LINE
  8
0
 10
37.275
 20
-67.625
 11
37.275
 21
-53.625
  0
LINE
  8
0
 10
37.275
 20
-53.625
 11
51.275
 21
-53.625
  0
LINE
  8
0
 10
51.275
 20
-53.625
 11
51.275
 21
-67.625
  0
LINE
  8
0
 10
51.275
 20
-67.625
 11
37.275
 21
-67.625
  0
LINE
  8
0
 10
11.5107
 20
-74.3064
 11
11.0052
 21
-73.7831
  0
LINE
  8
0
 10
11.0052
 20
-73.7831
 11
9.82034
 21
-70.9268
  0
LINE
  8
0
 10
9.82034
 20
-70.9268
 11
8.46527
 21
-69.3311
  0
LINE
  8
0
 10
8.46527
 20
-69.3311
 11
9.85558
 21
-68.2841
  0
LINE
  8
0
 10
9.85558
 20
-68.2841
 11
10.584
 21
-67.4967
  0
LINE
  8
0
 10
10.584
 20
-67.4967
 11
11.3594
 21
-66.003
  0
LINE
  8
0
 10
11.3594
 20
-66.003
 11
11.5795
 21
-64.6662
  0
LINE
  8
0
 10
11.5795
 20
-64.6662
 11
11.474
 21
-63.5717
  0
LINE
  8
0
 10
11.474
 20
-63.5717
 11
10.5579
 21
-61.502
  0
LINE
  8
0
 10
10.5579
 20
-61.502
 11
8.98189
 21
-59.939
  0
LINE
  8
0
 10
8.98189
 20
-59.939
 11
7.47714
 21
-59.1535
  0
LINE
  8
0
 10
7.47714
 20
-59.1535
 11
6.19974
 21
-58.806
  0
LINE
  8
0
 10
6.19974
 20
-58.806
 11
-3.06419
 21
-58.7785
  0
LINE
  8
0
 10
-3.06419
 20
-58.7785
 11
-12.3281
 21
-58.7556
  0
LINE
  8
0
 10
-12.3281
 20
-58.7556
 11
-9.76198
 21
-56.4911
  0
LINE
  8
0
 10
-9.76198
 20
-56.4911
 11
-5.38019
 21
-54.2245
  0
LINE
  8
0
 10
-5.38019
 20
-54.2245
 11
-3.06979
 21
-53.6983
  0
LINE
  8
0
 10
-3.06979
 20
-53.6983
 11
-0.740829
 21
-55.8932
  0
LINE
  8
0
 10
-0.740829
 20
-55.8932
 11
-0.22049
 21
-56.1333
  0
LINE
  8
0
 10
-0.22049
 20
-56.1333
 11
0.56398
 21
-55.9984
  0
LINE
  8
0
 10
0.56398
 20
-55.9984
 11
3.12245
 21
-53.642
  0
LINE
  8
0
 10
3.12245
 20
-53.642
 11
7.71172
 21
-55.2419
  0
LINE
  8
0
 10
7.71172
 20
-55.2419
 11
10.9203
 21
-57.4313
  0
LINE
  8
0
 10
10.9203
 20
-57.4313
 11
13.2028
 21
-59.8608
  0
LINE
  8
0
 10
13.2028
 20
-59.8608
 11
14.6244
 21
-62.0392
  0
LINE
  8
0
 10
14.6244
 20
-62.0392
 11
13.1248
 21
-64.9927
  0
LINE
  8
0
 10
13.1248
 20
-64.9927
 11
13.2738
 21
-65.9484
  0
LINE
  8
0
 10
13.2738
 20
-65.9484
 11
14.2559
 21
-66.6959
  0
LINE
  8
0
 10
14.2559
 20
-66.6959
 11
16.5276
 21
-67.859
  0
LINE
  8
0
 10
16.5276
 20
-67.859
 11
16.6102
 21
-71.3215
  0
LINE
  8
0
 10
16.6102
 20
-71.3215
 11
14.7237
 21
-71.3727
  0
LINE
  8
0
 10
14.7237
 20
-71.3727
 11
14.6679
 21
-72.8984
  0
LINE
  8
0
 10
14.6679
 20
-72.8984
 11
14.2682
 21
-73.9895
  0
LINE
  8
0
 10
14.2682
 20
-73.9895
 11
13.6024
 21
-74.5508
  0
LINE
  8
0
 10
13.6024
 20
-74.5508
 11
12.4387
 21
-74.7035
  0
LINE
  8
0
 10
12.4387
 20
-74.7035
 11
11.5107
 21
-74.3064
  0
LINE
  8
0
 10
113.475
 20
-68.625
 11
113.475
 21
-54.625
  0
LINE
  8
0
 10
113.475
 20
-54.625
 11
127.475
 21
-54.625
  0
LINE
  8
0
 10
127.475
 20
-54.625
 11
127.475
 21
-68.625
  0
LINE
  8
0
 10
127.475
 20
-68.625
 11
113.475
 21
-68.625
  0
LINE
  8
0
 10
-127.475
 20
-68.625
 11
-127.475
 21
-54.625
  0
LINE
  8
0
 10
-127.475
 20
-54.625
 11
-113.475
 21
-54.625
  0
LINE
  8
0
 10
-113.475
 20
-54.625
 11
-113.475
 21
-68.625
  0
LINE
  8
0
 10
-113.475
 20
-68.625
 11
-127.475
 21
-68.625
  0
LINE
  8
0
 10
-19.3545
 20
-65.2228
 11
-19.7553
 21
-65.0186
  0
LINE
  8
0
 10
-19.7553
 20
-65.0186
 11
-20.0733
 21
-64.7006
  0
LINE
  8
0
 10
-20.0733
 20
-64.7006
 11
-20.2775
 21
-64.2999
  0
LINE
  8
0
 10
-20.2775
 20
-64.2999
 11
-20.3478
 21
-63.8557
  0
LINE
  8
0
 10
-20.3478
 20
-63.8557
 11
-20.2775
 21
-63.4115
  0
LINE
  8
0
 10
-20.2775
 20
-63.4115
 11
-20.0733
 21
-63.0107
  0
LINE
  8
0
 10
-20.0733
 20
-63.0107
 11
-19.7553
 21
-62.6927
  0
LINE
  8
0
 10
-19.7553
 20
-62.6927
 11
-19.3545
 21
-62.4885
  0
LINE
  8
0
 10
-19.3545
 20
-62.4885
 11
-18.9103
 21
-62.4182
  0
LINE
  8
0
 10
-18.9103
 20
-62.4182
 11
-18.4661
 21
-62.4885
  0
LINE
  8
0
 10
-18.4661
 20
-62.4885
 11
-18.0654
 21
-62.6927
  0
LINE
  8
0
 10
-18.0654
 20
-62.6927
 11
-17.7474
 21
-63.0107
  0
LINE
  8
0
 10
-17.7474
 20
-63.0107
 11
-17.5432
 21
-63.4115
  0
LINE
  8
0
 10
-17.5432
 20
-63.4115
 11
-17.4728
 21
-63.8557
  0
LINE
  8
0
 10
-17.4728
 20
-63.8557
 11
-17.5432
 21
-64.2999
  0
LINE
  8
0
 10
-17.5432
 20
-64.2999
 11
-17.7474
 21
-64.7006
  0
LINE
  8
0
 10
-17.7474
 20
-64.7006
 11
-18.0654
 21
-65.0186
  0
LINE
  8
0
 10
-18.0654
 20
-65.0186
 11
-18.4661
 21
-65.2228
  0
LINE
  8
0
 10
-18.4661
 20
-65.2228
 11
-18.9103
 21
-65.2932
  0
LINE
  8
0
 10
-18.9103
 20
-65.2932
 11
-19.3545
 21
-65.2228
  0
LINE
  8
0
 10
18.4661
 20
-65.2228
 11
18.0654
 21
-65.0186
  0
LINE
  8
0
 10
18.0654
 20
-65.0186
 11
17.7474
 21
-64.7006
  0
LINE
  8
0
 10
17.7474
 20
-64.7006
 11
17.5432
 21
-64.2999
  0
LINE
  8
0
 10
17.5432
 20
-64.2999
 11
17.4728
 21
-63.8557
  0
LINE
  8
0
 10
17.4728
 20
-63.8557
 11
17.5432
 21
-63.4115
  0
LINE
  8
0
 10
17.5432
 20
-63.4115
 11
17.7474
 21
-63.0107
  0
LINE
  8
0
 10
17.7474
 20
-63.0107
 11
18.0654
 21
-62.6927
  0
LINE
  8
0
 10
18.0654
 20
-62.6927
 11
18.4661
 21
-62.4885
  0
LINE
  8
0
 10
18.4661
 20
-62.4885
 11
18.9103
 21
-62.4182
  0
LINE
  8
0
 10
18.9103
 20
-62.4182
 11
19.3545
 21
-62.4885
  0
LINE
  8
0
 10
19.3545
 20
-62.4885
 11
19.7553
 21
-62.6927
  0
LINE
  8
0
 10
19.7553
 20
-62.6927
 11
20.0733
 21
-63.0107
  0
LINE
  8
0
 10
20.0733
 20
-63.0107
 11
20.2775
 21
-63.4115
  0
LINE
  8
0
 10
20.2775
 20
-63.4115
 11
20.3478
 21
-63.8557
  0
LINE
  8
0
 10
20.3478
 20
-63.8557
 11
20.2775
 21
-64.2999
  0
LINE
  8
0
 10
20.2775
 20
-64.2999
 11
20.0733
 21
-64.7006
  0
LINE
  8
0
 10
20.0733
 20
-64.7006
 11
19.7553
 21
-65.0186
  0
LINE
  8
0
 10
19.7553
 20
-65.0186
 11
19.3545
 21
-65.2228
  0
LINE
  8
0
 10
19.3545
 20
-65.2228
 11
18.9103
 21
-65.2932
  0
LINE
  8
0
 10
18.9103
 20
-65.2932
 11
18.4661
 21
-65.2228
  0
LINE
  8
0
 10
-3.49988
 20
-63.9608
 11
0.154633
 21
-63.9612
  0
LINE
  8
0
 10
0.154633
 20
-63.9612
 11
2.62859
 21
-64.0075
  0
LINE
  8
0
 10
2.62859
 20
-64.0075
 11
3.54567
 21
-64.3079
  0
LINE
  8
0
 10
3.54567
 20
-64.3079
 11
3.87741
 21
-64.5467
  0
LINE
  8
0
 10
3.87741
 20
-64.5467
 11
4.24767
 21
-65.0874
  0
LINE
  8
0
 10
4.24767
 20
-65.0874
 11
4.32074
 21
-65.5813
  0
LINE
  8
0
 10
4.32074
 20
-65.5813
 11
4.12717
 21
-66.1004
  0
LINE
  8
0
 10
4.12717
 20
-66.1004
 11
3.68044
 21
-66.545
  0
LINE
  8
0
 10
3.68044
 20
-66.545
 11
2.71428
 21
-66.9647
  0
LINE
  8
0
 10
2.71428
 20
-66.9647
 11
-3.49988
 21
-66.9922
  0
LINE
  8
0
 10
-3.49988
 20
-66.9922
 11
-3.49988
 21
-63.9608
  0
LINE
  8
0
 10
-16.5561
 20
-72.1218
 11
-16.5565
 21
-67.859
  0
LINE
  8
0
 10
-16.5565
 20
-67.859
 11
-14.0051
 21
-66.5507
  0
LINE
  8
0
 10
-14.0051
 20
-66.5507
 11
-13.1903
 21
-65.7117
  0
LINE
  8
0
 10
-13.1903
 20
-65.7117
 11
-13.205
 21
-64.9327
  0
LINE
  8
0
 10
-13.205
 20
-64.9327
 11
-13.681
 21
-63.9608
  0
LINE
  8
0
 10
-13.681
 20
-63.9608
 11
-10.7918
 21
-63.9608
  0
LINE
  8
0
 10
-10.7918
 20
-63.9608
 11
-10.8147
 21
-74.7611
  0
LINE
  8
0
 10
-10.8147
 20
-74.7611
 11
-13.4151
 21
-74.7748
  0
LINE
  8
0
 10
-13.4151
 20
-74.7748
 11
-16.0108
 21
-74.784
  0
LINE
  8
0
 10
-16.0108
 20
-74.784
 11
-16.5561
 21
-72.1218
  0
LINE
  8
0
 10
-7.14307
 20
-85.0591
 11
-7.75739
 21
-81.7636
  0
LINE
  8
0
 10
-7.75739
 20
-81.7636
 11
-8.14633
 21
-81.2448
  0
LINE
  8
0
 10
-8.14633
 20
-81.2448
 11
-8.80602
 21
-80.9962
  0
LINE
  8
0
 10
-8.80602
 20
-80.9962
 11
-12.0988
 21
-81.4797
  0
LINE
  8
0
 10
-12.0988
 20
-81.4797
 11
-13.3549
 21
-80.0066
  0
LINE
  8
0
 10
-13.3549
 20
-80.0066
 11
-13.36
 21
-79.9938
  0
LINE
  8
0
 10
-13.36
 20
-79.9938
 11
-12.3364
 21
-79.98
  0
LINE
  8
0
 10
-12.3364
 20
-79.98
 11
0.357208
 21
-79.9054
  0
LINE
  8
0
 10
0.357208
 20
-79.9054
 11
0.37233
 21
-74.8219
  0
LINE
  8
0
 10
0.37233
 20
-74.8219
 11
-3.49988
 21
-74.784
  0
LINE
  8
0
 10
-3.49988
 20
-74.784
 11
-3.46777
 21
-71.7388
  0
LINE
  8
0
 10
-3.46777
 20
-71.7388
 11
1.38959
 21
-71.8069
  0
LINE
  8
0
 10
1.38959
 20
-71.8069
 11
2.40077
 21
-72.3683
  0
LINE
  8
0
 10
2.40077
 20
-72.3683
 11
3.11621
 21
-73.4023
  0
LINE
  8
0
 10
3.11621
 20
-73.4023
 11
4.37343
 21
-78.0278
  0
LINE
  8
0
 10
4.37343
 20
-78.0278
 11
5.37907
 21
-79.5383
  0
LINE
  8
0
 10
5.37907
 20
-79.5383
 11
6.24559
 21
-79.9434
  0
LINE
  8
0
 10
6.24559
 20
-79.9434
 11
13.3311
 21
-80.003
  0
LINE
  8
0
 10
13.3311
 20
-80.003
 11
12.0699
 21
-81.4751
  0
LINE
  8
0
 10
12.0699
 20
-81.4751
 11
10.3579
 21
-81.1982
  0
LINE
  8
0
 10
10.3579
 20
-81.1982
 11
8.79979
 21
-80.9954
  0
LINE
  8
0
 10
8.79979
 20
-80.9954
 11
7.67531
 21
-81.9527
  0
LINE
  8
0
 10
7.67531
 20
-81.9527
 11
7.12613
 21
-85.0844
  0
LINE
  8
0
 10
7.12613
 20
-85.0844
 11
7.11055
 21
-85.095
  0
LINE
  8
0
 10
7.11055
 20
-85.095
 11
3.03465
 21
-86.4032
  0
LINE
  8
0
 10
3.03465
 20
-86.4032
 11
-2.43619
 21
-86.5056
  0
LINE
  8
0
 10
-2.43619
 20
-86.5056
 11
-7.14307
 21
-85.0591
  0
LINE
  8
0
 10
122.114
 20
-74.1888
 11
121.765
 21
-74.0113
  0
LINE
  8
0
 10
121.765
 20
-74.0113
 11
121.489
 21
-73.7347
  0
LINE
  8
0
 10
121.489
 20
-73.7347
 11
121.311
 21
-73.3863
  0
LINE
  8
0
 10
121.311
 20
-73.3863
 11
121.25
 21
-73
  0
LINE
  8
0
 10
121.25
 20
-73
 11
121.311
 21
-72.6137
  0
LINE
  8
0
 10
121.311
 20
-72.6137
 11
121.489
 21
-72.2653
  0
LINE
  8
0
 10
121.489
 20
-72.2653
 11
121.765
 21
-71.9887
  0
LINE
  8
0
 10
121.765
 20
-71.9887
 11
122.114
 21
-71.8112
  0
LINE
  8
0
 10
122.114
 20
-71.8112
 11
122.5
 21
-71.75
  0
LINE
  8
0
 10
122.5
 20
-71.75
 11
122.886
 21
-71.8112
  0
LINE
  8
0
 10
122.886
 20
-71.8112
 11
123.235
 21
-71.9887
  0
LINE
  8
0
 10
123.235
 20
-71.9887
 11
123.511
 21
-72.2653
  0
LINE
  8
0
 10
123.511
 20
-72.2653
 11
123.689
 21
-72.6137
  0
LINE
  8
0
 10
123.689
 20
-72.6137
 11
123.75
 21
-73
  0
LINE
  8
0
 10
123.75
 20
-73
 11
123.689
 21
-73.3863
  0
LINE
  8
0
 10
123.689
 20
-73.3863
 11
123.511
 21
-73.7347
  0
LINE
  8
0
 10
123.511
 20
-73.7347
 11
123.235
 21
-74.0113
  0
LINE
  8
0
 10
123.235
 20
-74.0113
 11
122.886
 21
-74.1888
  0
LINE
  8
0
 10
122.886
 20
-74.1888
 11
122.5
 21
-74.25
  0
LINE
  8
0
 10
122.5
 20
-74.25
 11
122.114
 21
-74.1888
  0
LINE
  8
0
 10
118.75
 20
-90.5
 11
118.75
 21
-74.5
  0
LINE
  8
0
 10
118.75
 20
-74.5
 11
126.25
 21
-74.5
  0
LINE
  8
0
 10
126.25
 20
-74.5
 11
126.25
 21
-90.5
  0
LINE
  8
0
 10
126.25
 20
-90.5
 11
118.75
 21
-90.5
  0
LINE
  8
0
 10
56.325
 20
-89.525
 11
56.325
 21
-75.525
  0
LINE
  8
0
 10
56.325
 20
-75.525
 11
70.325
 21
-75.525
  0
LINE
  8
0
 10
70.325
 20
-75.525
 11
70.325
 21
-89.525
  0
LINE
  8
0
 10
70.325
 20
-89.525
 11
56.325
 21
-89.525
  0
LINE
  8
0
 10
-70.325
 20
-75.525
 11
-56.325
 21
-75.525
  0
LINE
  8
0
 10
-56.325
 20
-75.525
 11
-56.325
 21
-89.525
  0
LINE
  8
0
 10
-56.325
 20
-89.525
 11
-70.325
 21
-89.525
  0
LINE
  8
0
 10
-70.325
 20
-89.525
 11
-70.325
 21
-75.525
  0
LINE
  8
0
 10
75.375
 20
-89.525
 11
75.375
 21
-75.525
  0
LINE
  8
0
 10
75.375
 20
-75.525
 11
89.375
 21
-75.525
  0
LINE
  8
0
 10
89.375
 20
-75.525
 11
89.375
 21
-89.525
  0
LINE
  8
0
 10
89.375
 20
-89.525
 11
75.375
 21
-89.525
  0
LINE
  8
0
 10
-79.3863
 20
-77.9888
 11
-79.7347
 21
-77.8113
  0
LINE
  8
0
 10
-79.7347
 20
-77.8113
 11
-80.0113
 21
-77.5347
  0
LINE
  8
0
 10
-80.0113
 20
-77.5347
 11
-80.1888
 21
-77.1863
  0
LINE
  8
0
 10
-80.1888
 20
-77.1863
 11
-80.25
 21
-76.8
  0
LINE
  8
0
 10
-80.25
 20
-76.8
 11
-80.1888
 21
-76.4137
  0
LINE
  8
0
 10
-80.1888
 20
-76.4137
 11
-80.0113
 21
-76.0653
  0
LINE
  8
0
 10
-80.0113
 20
-76.0653
 11
-79.7347
 21
-75.7887
  0
LINE
  8
0
 10
-79.7347
 20
-75.7887
 11
-79.3863
 21
-75.6112
  0
LINE
  8
0
 10
-79.3863
 20
-75.6112
 11
-79
 21
-75.55
  0
LINE
  8
0
 10
-79
 20
-75.55
 11
-78.6137
 21
-75.6112
  0
LINE
  8
0
 10
-78.6137
 20
-75.6112
 11
-78.2653
 21
-75.7887
  0
LINE
  8
0
 10
-78.2653
 20
-75.7887
 11
-77.9887
 21
-76.0653
  0
LINE
  8
0
 10
-77.9887
 20
-76.0653
 11
-77.8112
 21
-76.4137
  0
LINE
  8
0
 10
-77.8112
 20
-76.4137
 11
-77.75
 21
-76.8
  0
LINE
  8
0
 10
-77.75
 20
-76.8
 11
-77.8112
 21
-77.1863
  0
LINE
  8
0
 10
-77.8112
 20
-77.1863
 11
-77.9887
 21
-77.5347
  0
LINE
  8
0
 10
-77.9887
 20
-77.5347
 11
-78.2653
 21
-77.8113
  0
LINE
  8
0
 10
-78.2653
 20
-77.8113
 11
-78.6137
 21
-77.9888
  0
LINE
  8
0
 10
-78.6137
 20
-77.9888
 11
-79
 21
-78.05
  0
LINE
  8
0
 10
-79
 20
-78.05
 11
-79.3863
 21
-77.9888
  0
LINE
  8
0
 10
-125.386
 20
-77.9888
 11
-125.735
 21
-77.8113
  0
LINE
  8
0
 10
-125.735
 20
-77.8113
 11
-126.011
 21
-77.5347
  0
LINE
  8
0
 10
-126.011
 20
-77.5347
 11
-126.189
 21
-77.1863
  0
LINE
  8
0
 10
-126.189
 20
-77.1863
 11
-126.25
 21
-76.8
  0
LINE
  8
0
 10
-126.25
 20
-76.8
 11
-126.189
 21
-76.4137
  0
LINE
  8
0
 10
-126.189
 20
-76.4137
 11
-126.011
 21
-76.0653
  0
LINE
  8
0
 10
-126.011
 20
-76.0653
 11
-125.735
 21
-75.7887
  0
LINE
  8
0
 10
-125.735
 20
-75.7887
 11
-125.386
 21
-75.6112
  0
LINE
  8
0
 10
-125.386
 20
-75.6112
 11
-125
 21
-75.55
  0
LINE
  8
0
 10
-125
 20
-75.55
 11
-124.614
 21
-75.6112
  0
LINE
  8
0
 10
-124.614
 20
-75.6112
 11
-124.265
 21
-75.7887
  0
LINE
  8
0
 10
-124.265
 20
-75.7887
 11
-123.989
 21
-76.0653
  0
LINE
  8
0
 10
-123.989
 20
-76.0653
 11
-123.811
 21
-76.4137
  0
LINE
  8
0
 10
-123.811
 20
-76.4137
 11
-123.75
 21
-76.8
  0
LINE
  8
0
 10
-123.75
 20
-76.8
 11
-123.811
 21
-77.1863
  0
LINE
  8
0
 10
-123.811
 20
-77.1863
 11
-123.989
 21
-77.5347
  0
LINE
  8
0
 10
-123.989
 20
-77.5347
 11
-124.265
 21
-77.8113
  0
LINE
  8
0
 10
-124.265
 20
-77.8113
 11
-124.614
 21
-77.9888
  0
LINE
  8
0
 10
-124.614
 20
-77.9888
 11
-125
 21
-78.05
  0
LINE
  8
0
 10
-125
 20
-78.05
 11
-125.386
 21
-77.9888
  0
LINE
  8
0
 10
-50.5387
 20
-90.5957
 11
-45.5291
 21
-77.5227
  0
LINE
  8
0
 10
-45.5291
 20
-77.5227
 11
-32.4561
 21
-82.5323
  0
LINE
  8
0
 10
-32.4561
 20
-82.5323
 11
-37.4657
 21
-95.6053
  0
LINE
  8
0
 10
-37.4657
 20
-95.6053
 11
-50.5387
 21
-90.5957
  0
LINE
  8
0
 10
32.4561
 20
-82.5323
 11
45.5291
 21
-77.5227
  0
LINE
  8
0
 10
45.5291
 20
-77.5227
 11
50.5387
 21
-90.5957
  0
LINE
  8
0
 10
50.5387
 20
-90.5957
 11
37.4657
 21
-95.6053
  0
LINE
  8
0
 10
37.4657
 20
-95.6053
 11
32.4561
 21
-82.5323
  0
LINE
  8
0
 10
110.369
 20
-86.9193
 11
109.881
 21
-86.6708
  0
LINE
  8
0
 10
109.881
 20
-86.6708
 11
109.494
 21
-86.2836
  0
LINE
  8
0
 10
109.494
 20
-86.2836
 11
109.246
 21
-85.7958
  0
LINE
  8
0
 10
109.246
 20
-85.7958
 11
109.16
 21
-85.255
  0
LINE
  8
0
 10
109.16
 20
-85.255
 11
109.246
 21
-84.7142
  0
LINE
  8
0
 10
109.246
 20
-84.7142
 11
109.494
 21
-84.2264
  0
LINE
  8
0
 10
109.494
 20
-84.2264
 11
109.881
 21
-83.8392
  0
LINE
  8
0
 10
109.881
 20
-83.8392
 11
110.369
 21
-83.5906
  0
LINE
  8
0
 10
110.369
 20
-83.5906
 11
110.91
 21
-83.505
  0
LINE
  8
0
 10
110.91
 20
-83.505
 11
111.451
 21
-83.5906
  0
LINE
  8
0
 10
111.451
 20
-83.5906
 11
111.939
 21
-83.8392
  0
LINE
  8
0
 10
111.939
 20
-83.8392
 11
112.326
 21
-84.2264
  0
LINE
  8
0
 10
112.326
 20
-84.2264
 11
112.574
 21
-84.7142
  0
LINE
  8
0
 10
112.574
 20
-84.7142
 11
112.66
 21
-85.255
  0
LINE
  8
0
 10
112.66
 20
-85.255
 11
112.574
 21
-85.7958
  0
LINE
  8
0
 10
112.574
 20
-85.7958
 11
112.326
 21
-86.2836
  0
LINE
  8
0
 10
112.326
 20
-86.2836
 11
111.939
 21
-86.6708
  0
LINE
  8
0
 10
111.939
 20
-86.6708
 11
111.451
 21
-86.9193
  0
LINE
  8
0
 10
111.451
 20
-86.9193
 11
110.91
 21
-87.005
  0
LINE
  8
0
 10
110.91
 20
-87.005
 11
110.369
 21
-86.9193
  0
LINE
  8
0
 10
98.5492
 20
-86.9193
 11
98.0614
 21
-86.6708
  0
LINE
  8
0
 10
98.0614
 20
-86.6708
 11
97.6742
 21
-86.2836
  0
LINE
  8
0
 10
97.6742
 20
-86.2836
 11
97.4257
 21
-85.7958
  0
LINE
  8
0
 10
97.4257
 20
-85.7958
 11
97.34
 21
-85.255
  0
LINE
  8
0
 10
97.34
 20
-85.255
 11
97.4257
 21
-84.7142
  0
LINE
  8
0
 10
97.4257
 20
-84.7142
 11
97.6742
 21
-84.2264
  0
LINE
  8
0
 10
97.6742
 20
-84.2264
 11
98.0614
 21
-83.8392
  0
LINE
  8
0
 10
98.0614
 20
-83.8392
 11
98.5492
 21
-83.5906
  0
LINE
  8
0
 10
98.5492
 20
-83.5906
 11
99.09
 21
-83.505
  0
LINE
  8
0
 10
99.09
 20
-83.505
 11
99.6308
 21
-83.5906
  0
LINE
  8
0
 10
99.6308
 20
-83.5906
 11
100.119
 21
-83.8392
  0
LINE
  8
0
 10
100.119
 20
-83.8392
 11
100.506
 21
-84.2264
  0
LINE
  8
0
 10
100.506
 20
-84.2264
 11
100.754
 21
-84.7142
  0
LINE
  8
0
 10
100.754
 20
-84.7142
 11
100.84
 21
-85.255
  0
LINE
  8
0
 10
100.84
 20
-85.255
 11
100.754
 21
-85.7958
  0
LINE
  8
0
 10
100.754
 20
-85.7958
 11
100.506
 21
-86.2836
  0
LINE
  8
0
 10
100.506
 20
-86.2836
 11
100.119
 21
-86.6708
  0
LINE
  8
0
 10
100.119
 20
-86.6708
 11
99.6308
 21
-86.9193
  0
LINE
  8
0
 10
99.6308
 20
-86.9193
 11
99.09
 21
-87.005
  0
LINE
  8
0
 10
99.09
 20
-87.005
 11
98.5492
 21
-86.9193
  0
LINE
  8
0
 10
11.243
 20
-87.4532
 11
10.8423
 21
-87.249
  0
LINE
  8
0
 10
10.8423
 20
-87.249
 11
10.5243
 21
-86.931
  0
LINE
  8
0
 10
10.5243
 20
-86.931
 11
10.3201
 21
-86.5303
  0
LINE
  8
0
 10
10.3201
 20
-86.5303
 11
10.2497
 21
-86.0861
  0
LINE
  8
0
 10
10.2497
 20
-86.0861
 11
10.3201
 21
-85.6419
  0
LINE
  8
0
 10
10.3201
 20
-85.6419
 11
10.5243
 21
-85.2411
  0
LINE
  8
0
 10
10.5243
 20
-85.2411
 11
10.8423
 21
-84.9231
  0
LINE
  8
0
 10
10.8423
 20
-84.9231
 11
11.243
 21
-84.7189
  0
LINE
  8
0
 10
11.243
 20
-84.7189
 11
11.6872
 21
-84.6486
  0
LINE
  8
0
 10
11.6872
 20
-84.6486
 11
12.1314
 21
-84.7189
  0
LINE
  8
0
 10
12.1314
 20
-84.7189
 11
12.5322
 21
-84.9231
  0
LINE
  8
0
 10
12.5322
 20
-84.9231
 11
12.8502
 21
-85.2411
  0
LINE
  8
0
 10
12.8502
 20
-85.2411
 11
13.0544
 21
-85.6419
  0
LINE
  8
0
 10
13.0544
 20
-85.6419
 11
13.1247
 21
-86.0861
  0
LINE
  8
0
 10
13.1247
 20
-86.0861
 11
13.0544
 21
-86.5303
  0
LINE
  8
0
 10
13.0544
 20
-86.5303
 11
12.8502
 21
-86.931
  0
LINE
  8
0
 10
12.8502
 20
-86.931
 11
12.5322
 21
-87.249
  0
LINE
  8
0
 10
12.5322
 20
-87.249
 11
12.1314
 21
-87.4532
  0
LINE
  8
0
 10
12.1314
 20
-87.4532
 11
11.6872
 21
-87.5236
  0
LINE
  8
0
 10
11.6872
 20
-87.5236
 11
11.243
 21
-87.4532
  0
LINE
  8
0
 10
-12.1314
 20
-87.4532
 11
-12.5322
 21
-87.249
  0
LINE
  8
0
 10
-12.5322
 20
-87.249
 11
-12.8502
 21
-86.931
  0
LINE
  8
0
 10
-12.8502
 20
-86.931
 11
-13.0544
 21
-86.5303
  0
LINE
  8
0
 10
-13.0544
 20
-86.5303
 11
-13.1247
 21
-86.0861
  0
LINE
  8
0
 10
-13.1247
 20
-86.0861
 11
-13.0544
 21
-85.6419
  0
LINE
  8
0
 10
-13.0544
 20
-85.6419
 11
-12.8502
 21
-85.2411
  0
LINE
  8
0
 10
-12.8502
 20
-85.2411
 11
-12.5322
 21
-84.9231
  0
LINE
  8
0
 10
-12.5322
 20
-84.9231
 11
-12.1314
 21
-84.7189
  0
LINE
  8
0
 10
-12.1314
 20
-84.7189
 11
-11.6872
 21
-84.6486
  0
LINE
  8
0
 10
-11.6872
 20
-84.6486
 11
-11.243
 21
-84.7189
  0
LINE
  8
0
 10
-11.243
 20
-84.7189
 11
-10.8423
 21
-84.9231
  0
LINE
  8
0
 10
-10.8423
 20
-84.9231
 11
-10.5243
 21
-85.2411
  0
LINE
  8
0
 10
-10.5243
 20
-85.2411
 11
-10.3201
 21
-85.6419
  0
LINE
  8
0
 10
-10.3201
 20
-85.6419
 11
-10.2497
 21
-86.0861
  0
LINE
  8
0
 10
-10.2497
 20
-86.0861
 11
-10.3201
 21
-86.5303
  0
LINE
  8
0
 10
-10.3201
 20
-86.5303
 11
-10.5243
 21
-86.931
  0
LINE
  8
0
 10
-10.5243
 20
-86.931
 11
-10.8423
 21
-87.249
  0
LINE
  8
0
 10
-10.8423
 20
-87.249
 11
-11.243
 21
-87.4532
  0
LINE
  8
0
 10
-11.243
 20
-87.4532
 11
-11.6872
 21
-87.5236
  0
LINE
  8
0
 10
-11.6872
 20
-87.5236
 11
-12.1314
 21
-87.4532
  0
LINE
  8
0
 10
-125.386
 20
-89.3888
 11
-125.735
 21
-89.2113
  0
LINE
  8
0
 10
-125.735
 20
-89.2113
 11
-126.011
 21
-88.9347
  0
LINE
  8
0
 10
-126.011
 20
-88.9347
 11
-126.189
 21
-88.5863
  0
LINE
  8
0
 10
-126.189
 20
-88.5863
 11
-126.25
 21
-88.2
  0
LINE
  8
0
 10
-126.25
 20
-88.2
 11
-126.189
 21
-87.8137
  0
LINE
  8
0
 10
-126.189
 20
-87.8137
 11
-126.011
 21
-87.4653
  0
LINE
  8
0
 10
-126.011
 20
-87.4653
 11
-125.735
 21
-87.1887
  0
LINE
  8
0
 10
-125.735
 20
-87.1887
 11
-125.386
 21
-87.0112
  0
LINE
  8
0
 10
-125.386
 20
-87.0112
 11
-125
 21
-86.95
  0
LINE
  8
0
 10
-125
 20
-86.95
 11
-124.614
 21
-87.0112
  0
LINE
  8
0
 10
-124.614
 20
-87.0112
 11
-124.265
 21
-87.1887
  0
LINE
  8
0
 10
-124.265
 20
-87.1887
 11
-123.989
 21
-87.4653
  0
LINE
  8
0
 10
-123.989
 20
-87.4653
 11
-123.811
 21
-87.8137
  0
LINE
  8
0
 10
-123.811
 20
-87.8137
 11
-123.75
 21
-88.2
  0
LINE
  8
0
 10
-123.75
 20
-88.2
 11
-123.811
 21
-88.5863
  0
LINE
  8
0
 10
-123.811
 20
-88.5863
 11
-123.989
 21
-88.9347
  0
LINE
  8
0
 10
-123.989
 20
-88.9347
 11
-124.265
 21
-89.2113
  0
LINE
  8
0
 10
-124.265
 20
-89.2113
 11
-124.614
 21
-89.3888
  0
LINE
  8
0
 10
-124.614
 20
-89.3888
 11
-125
 21
-89.45
  0
LINE
  8
0
 10
-125
 20
-89.45
 11
-125.386
 21
-89.3888
  0
LINE
  8
0
 10
-79.3863
 20
-89.3888
 11
-79.7347
 21
-89.2113
  0
LINE
  8
0
 10
-79.7347
 20
-89.2113
 11
-80.0113
 21
-88.9347
  0
LINE
  8
0
 10
-80.0113
 20
-88.9347
 11
-80.1888
 21
-88.5863
  0
LINE
  8
0
 10
-80.1888
 20
-88.5863
 11
-80.25
 21
-88.2
  0
LINE
  8
0
 10
-80.25
 20
-88.2
 11
-80.1888
 21
-87.8137
  0
LINE
  8
0
 10
-80.1888
 20
-87.8137
 11
-80.0113
 21
-87.4653
  0
LINE
  8
0
 10
-80.0113
 20
-87.4653
 11
-79.7347
 21
-87.1887
  0
LINE
  8
0
 10
-79.7347
 20
-87.1887
 11
-79.3863
 21
-87.0112
  0
LINE
  8
0
 10
-79.3863
 20
-87.0112
 11
-79
 21
-86.95
  0
LINE
  8
0
 10
-79
 20
-86.95
 11
-78.6137
 21
-87.0112
  0
LINE
  8
0
 10
-78.6137
 20
-87.0112
 11
-78.2653
 21
-87.1887
  0
LINE
  8
0
 10
-78.2653
 20
-87.1887
 11
-77.9887
 21
-87.4653
  0
LINE
  8
0
 10
-77.9887
 20
-87.4653
 11
-77.8112
 21
-87.8137
  0
LINE
  8
0
 10
-77.8112
 20
-87.8137
 11
-77.75
 21
-88.2
  0
LINE
  8
0
 10
-77.75
 20
-88.2
 11
-77.8112
 21
-88.5863
  0
LINE
  8
0
 10
-77.8112
 20
-88.5863
 11
-77.9887
 21
-88.9347
  0
LINE
  8
0
 10
-77.9887
 20
-88.9347
 11
-78.2653
 21
-89.2113
  0
LINE
  8
0
 10
-78.2653
 20
-89.2113
 11
-78.6137
 21
-89.3888
  0
LINE
  8
0
 10
-78.6137
 20
-89.3888
 11
-79
 21
-89.45
  0
LINE
  8
0
 10
-79
 20
-89.45
 11
-79.3863
 21
-89.3888
  0
LINE
  8
0
 10
23.0898
 20
-88.2608
 11
32.4456
 21
-98.6756
  0
LINE
  8
0
 10
32.4456
 20
-98.6756
 11
22.0308
 21
-108.031
  0
LINE
  8
0
 10
22.0308
 20
-108.031
 11
12.675
 21
-97.6167
  0
LINE
  8
0
 10
12.675
 20
-97.6167
 11
23.0898
 21
-88.2608
  0
LINE
  8
0
 10
-23.0898
 20
-88.2608
 11
-12.675
 21
-97.6167
  0
LINE
  8
0
 10
-12.675
 20
-97.6167
 11
-22.0308
 21
-108.031
  0
LINE
  8
0
 10
-22.0308
 20
-108.031
 11
-32.4456
 21
-98.6756
  0
LINE
  8
0
 10
-32.4456
 20
-98.6756
 11
-23.0898
 21
-88.2608
  0
LINE
  8
0
 10
122.114
 20
-93.1888
 11
121.765
 21
-93.0113
  0
LINE
  8
0
 10
121.765
 20
-93.0113
 11
121.489
 21
-92.7347
  0
LINE
  8
0
 10
121.489
 20
-92.7347
 11
121.311
 21
-92.3863
  0
LINE
  8
0
 10
121.311
 20
-92.3863
 11
121.25
 21
-92
  0
LINE
  8
0
 10
121.25
 20
-92
 11
121.311
 21
-91.6137
  0
LINE
  8
0
 10
121.311
 20
-91.6137
 11
121.489
 21
-91.2653
  0
LINE
  8
0
 10
121.489
 20
-91.2653
 11
121.765
 21
-90.9887
  0
LINE
  8
0
 10
121.765
 20
-90.9887
 11
122.114
 21
-90.8112
  0
LINE
  8
0
 10
122.114
 20
-90.8112
 11
122.5
 21
-90.75
  0
LINE
  8
0
 10
122.5
 20
-90.75
 11
122.886
 21
-90.8112
  0
LINE
  8
0
 10
122.886
 20
-90.8112
 11
123.235
 21
-90.9887
  0
LINE
  8
0
 10
123.235
 20
-90.9887
 11
123.511
 21
-91.2653
  0
LINE
  8
0
 10
123.511
 20
-91.2653
 11
123.689
 21
-91.6137
  0
LINE
  8
0
 10
123.689
 20
-91.6137
 11
123.75
 21
-92
  0
LINE
  8
0
 10
123.75
 20
-92
 11
123.689
 21
-92.3863
  0
LINE
  8
0
 10
123.689
 20
-92.3863
 11
123.511
 21
-92.7347
  0
LINE
  8
0
 10
123.511
 20
-92.7347
 11
123.235
 21
-93.0113
  0
LINE
  8
0
 10
123.235
 20
-93.0113
 11
122.886
 21
-93.1888
  0
LINE
  8
0
 10
122.886
 20
-93.1888
 11
122.5
 21
-93.25
  0
LINE
  8
0
 10
122.5
 20
-93.25
 11
122.114
 21
-93.1888
  0
LINE
  8
0
 10
129.459
 20
-98.6643
 11
128.971
 21
-98.4158
  0
LINE
  8
0
 10
128.971
 20
-98.4158
 11
128.584
 21
-98.0286
  0
LINE
  8
0
 10
128.584
 20
-98.0286
 11
128.336
 21
-97.5408
  0
LINE
  8
0
 10
128.336
 20
-97.5408
 11
128.25
 21
-97
  0
LINE
  8
0
 10
128.25
 20
-97
 11
128.336
 21
-96.4592
  0
LINE
  8
0
 10
128.336
 20
-96.4592
 11
128.584
 21
-95.9714
  0
LINE
  8
0
 10
128.584
 20
-95.9714
 11
128.971
 21
-95.5842
  0
LINE
  8
0
 10
128.971
 20
-95.5842
 11
129.459
 21
-95.3356
  0
LINE
  8
0
 10
129.459
 20
-95.3356
 11
130
 21
-95.25
  0
LINE
  8
0
 10
130
 20
-95.25
 11
130.541
 21
-95.3356
  0
LINE
  8
0
 10
130.541
 20
-95.3356
 11
131.029
 21
-95.5842
  0
LINE
  8
0
 10
131.029
 20
-95.5842
 11
131.416
 21
-95.9714
  0
LINE
  8
0
 10
131.416
 20
-95.9714
 11
131.664
 21
-96.4592
  0
LINE
  8
0
 10
131.664
 20
-96.4592
 11
131.75
 21
-97
  0
LINE
  8
0
 10
131.75
 20
-97
 11
131.664
 21
-97.5408
  0
LINE
  8
0
 10
131.664
 20
-97.5408
 11
131.416
 21
-98.0286
  0
LINE
  8
0
 10
131.416
 20
-98.0286
 11
131.029
 21
-98.4158
  0
LINE
  8
0
 10
131.029
 20
-98.4158
 11
130.541
 21
-98.6643
  0
LINE
  8
0
 10
130.541
 20
-98.6643
 11
130
 21
-98.75
  0
LINE
  8
0
 10
130
 20
-98.75
 11
129.459
 21
-98.6643
  0
LINE
  8
0
 10
-130.541
 20
-98.6643
 11
-131.029
 21
-98.4158
  0
LINE
  8
0
 10
-131.029
 20
-98.4158
 11
-131.416
 21
-98.0286
  0
LINE
  8
0
 10
-131.416
 20
-98.0286
 11
-131.664
 21
-97.5408
  0
LINE
  8
0
 10
-131.664
 20
-97.5408
 11
-131.75
 21
-97
  0
LINE
  8
0
 10
-131.75
 20
-97
 11
-131.664
 21
-96.4592
  0
LINE
  8
0
 10
-131.664
 20
-96.4592
 11
-131.416
 21
-95.9714
  0
LINE
  8
0
 10
-131.416
 20
-95.9714
 11
-131.029
 21
-95.5842
  0
LINE
  8
0
 10
-131.029
 20
-95.5842
 11
-130.541
 21
-95.3356
  0
LINE
  8
0
 10
-130.541
 20
-95.3356
 11
-130
 21
-95.25
  0
LINE
  8
0
 10
-130
 20
-95.25
 11
-129.459
 21
-95.3356
  0
LINE
  8
0
 10
-129.459
 20
-95.3356
 11
-128.971
 21
-95.5842
  0
LINE
  8
0
 10
-128.971
 20
-95.5842
 11
-128.584
 21
-95.9714
  0
LINE
  8
0
 10
-128.584
 20
-95.9714
 11
-128.336
 21
-96.4592
  0
LINE
  8
0
 10
-128.336
 20
-96.4592
 11
-128.25
 21
-97
  0
LINE
  8
0
 10
-128.25
 20
-97
 11
-128.336
 21
-97.5408
  0
LINE
  8
0
 10
-128.336
 20
-97.5408
 11
-128.584
 21
-98.0286
  0
LINE
  8
0
 10
-128.584
 20
-98.0286
 11
-128.971
 21
-98.4158
  0
LINE
  8
0
 10
-128.971
 20
-98.4158
 11
-129.459
 21
-98.6643
  0
LINE
  8
0
 10
-129.459
 20
-98.6643
 11
-130
 21
-98.75
  0
LINE
  8
0
 10
-130
 20
-98.75
 11
-130.541
 21
-98.6643
  0
LINE
  8
0
 10
64.4592
 20
-98.6643
 11
63.9714
 21
-98.4158
  0
LINE
  8
0
 10
63.9714
 20
-98.4158
 11
63.5842
 21
-98.0286
  0
LINE
  8
0
 10
63.5842
 20
-98.0286
 11
63.3356
 21
-97.5408
  0
LINE
  8
0
 10
63.3356
 20
-97.5408
 11
63.25
 21
-97
  0
LINE
  8
0
 10
63.25
 20
-97
 11
63.3356
 21
-96.4592
  0
LINE
  8
0
 10
63.3356
 20
-96.4592
 11
63.5842
 21
-95.9714
  0
LINE
  8
0
 10
63.5842
 20
-95.9714
 11
63.9714
 21
-95.5842
  0
LINE
  8
0
 10
63.9714
 20
-95.5842
 11
64.4592
 21
-95.3356
  0
LINE
  8
0
 10
64.4592
 20
-95.3356
 11
65
 21
-95.25
  0
LINE
  8
0
 10
65
 20
-95.25
 11
65.5408
 21
-95.3356
  0
LINE
  8
0
 10
65.5408
 20
-95.3356
 11
66.0286
 21
-95.5842
  0
LINE
  8
0
 10
66.0286
 20
-95.5842
 11
66.4158
 21
-95.9714
  0
LINE
  8
0
 10
66.4158
 20
-95.9714
 11
66.6643
 21
-96.4592
  0
LINE
  8
0
 10
66.6643
 20
-96.4592
 11
66.75
 21
-97
  0
LINE
  8
0
 10
66.75
 20
-97
 11
66.6643
 21
-97.5408
  0
LINE
  8
0
 10
66.6643
 20
-97.5408
 11
66.4158
 21
-98.0286
  0
LINE
  8
0
 10
66.4158
 20
-98.0286
 11
66.0286
 21
-98.4158
  0
LINE
  8
0
 10
66.0286
 20
-98.4158
 11
65.5408
 21
-98.6643
  0
LINE
  8
0
 10
65.5408
 20
-98.6643
 11
65
 21
-98.75
  0
LINE
  8
0
 10
65
 20
-98.75
 11
64.4592
 21
-98.6643
  0
LINE
  8
0
 10
-65.5408
 20
-98.6643
 11
-66.0286
 21
-98.4158
  0
LINE
  8
0
 10
-66.0286
 20
-98.4158
 11
-66.4158
 21
-98.0286
  0
LINE
  8
0
 10
-66.4158
 20
-98.0286
 11
-66.6643
 21
-97.5408
  0
LINE
  8
0
 10
-66.6643
 20
-97.5408
 11
-66.75
 21
-97
  0
LINE
  8
0
 10
-66.75
 20
-97
 11
-66.6643
 21
-96.4592
  0
LINE
  8
0
 10
-66.6643
 20
-96.4592
 11
-66.4158
 21
-95.9714
  0
LINE
  8
0
 10
-66.4158
 20
-95.9714
 11
-66.0286
 21
-95.5842
  0
LINE
  8
0
 10
-66.0286
 20
-95.5842
 11
-65.5408
 21
-95.3356
  0
LINE
  8
0
 10
-65.5408
 20
-95.3356
 11
-65
 21
-95.25
  0
LINE
  8
0
 10
-65
 20
-95.25
 11
-64.4592
 21
-95.3356
  0
LINE
  8
0
 10
-64.4592
 20
-95.3356
 11
-63.9714
 21
-95.5842
  0
LINE
  8
0
 10
-63.9714
 20
-95.5842
 11
-63.5842
 21
-95.9714
  0
LINE
  8
0
 10
-63.5842
 20
-95.9714
 11
-63.3356
 21
-96.4592
  0
LINE
  8
0
 10
-63.3356
 20
-96.4592
 11
-63.25
 21
-97
  0
LINE
  8
0
 10
-63.25
 20
-97
 11
-63.3356
 21
-97.5408
  0
LINE
  8
0
 10
-63.3356
 20
-97.5408
 11
-63.5842
 21
-98.0286
  0
LINE
  8
0
 10
-63.5842
 20
-98.0286
 11
-63.9714
 21
-98.4158
  0
LINE
  8
0
 10
-63.9714
 20
-98.4158
 11
-64.4592
 21
-98.6643
  0
LINE
  8
0
 10
-64.4592
 20
-98.6643
 11
-65
 21
-98.75
  0
LINE
  8
0
 10
-65
 20
-98.75
 11
-65.5408
 21
-98.6643
  0
LINE
  8
0
 10
-0.540771
 20
-98.6643
 11
-1.02861
 21
-98.4158
  0
LINE
  8
0
 10
-1.02861
 20
-98.4158
 11
-1.41577
 21
-98.0286
  0
LINE
  8
0
 10
-1.41577
 20
-98.0286
 11
-1.66434
 21
-97.5408
  0
LINE
  8
0
 10
-1.66434
 20
-97.5408
 11
-1.75
 21
-97
  0
LINE
  8
0
 10
-1.75
 20
-97
 11
-1.66434
 21
-96.4592
  0
LINE
  8
0
 10
-1.66434
 20
-96.4592
 11
-1.41577
 21
-95.9714
  0
LINE
  8
0
 10
-1.41577
 20
-95.9714
 11
-1.02861
 21
-95.5842
  0
LINE
  8
0
 10
-1.02861
 20
-95.5842
 11
-0.540771
 21
-95.3356
  0
LINE
  8
0
 10
-0.540771
 20
-95.3356
 11
0
 21
-95.25
  0
LINE
  8
0
 10
0
 20
-95.25
 11
0.540771
 21
-95.3356
  0
LINE
  8
0
 10
0.540771
 20
-95.3356
 11
1.02861
 21
-95.5842
  0
LINE
  8
0
 10
1.02861
 20
-95.5842
 11
1.41577
 21
-95.9714
  0
LINE
  8
0
 10
1.41577
 20
-95.9714
 11
1.66434
 21
-96.4592
  0
LINE
  8
0
 10
1.66434
 20
-96.4592
 11
1.75
 21
-97
  0
LINE
  8
0
 10
1.75
 20
-97
 11
1.66434
 21
-97.5408
  0
LINE
  8
0
 10
1.66434
 20
-97.5408
 11
1.41577
 21
-98.0286
  0
LINE
  8
0
 10
1.41577
 20
-98.0286
 11
1.02861
 21
-98.4158
  0
LINE
  8
0
 10
1.02861
 20
-98.4158
 11
0.540771
 21
-98.6643
  0
LINE
  8
0
 10
0.540771
 20
-98.6643
 11
0
 21
-98.75
  0
LINE
  8
0
 10
0
 20
-98.75
 11
-0.540771
 21
-98.6643
  0
ENDSEC
  0
SECTION
  2
OBJECTS
  0
DICTIONARY
  0
ENDSEC
  0
EOF
