  0
SECTION
  2
BLOCKS
  0
ENDSEC
  0
SECTION
  2
ENTITIES
  0
LINE
  8
0
 10
117.646
 20
-89.5479
 11
117.649
 21
-89.5478
  0
LINE
  8
0
 10
117.649
 20
-89.5478
 11
117.989
 21
-89.5263
  0
LINE
  8
0
 10
117.989
 20
-89.5263
 11
117.992
 21
-89.526
  0
LINE
  8
0
 10
117.992
 20
-89.526
 11
118.281
 21
-89.4892
  0
LINE
  8
0
 10
118.281
 20
-89.4892
 11
118.284
 21
-89.4887
  0
LINE
  8
0
 10
118.284
 20
-89.4887
 11
118.607
 21
-89.4272
  0
LINE
  8
0
 10
118.607
 20
-89.4272
 11
118.61
 21
-89.4265
  0
LINE
  8
0
 10
118.61
 20
-89.4265
 11
118.896
 21
-89.3533
  0
LINE
  8
0
 10
118.896
 20
-89.3533
 11
118.899
 21
-89.3524
  0
LINE
  8
0
 10
118.899
 20
-89.3524
 11
119.212
 21
-89.2507
  0
LINE
  8
0
 10
119.212
 20
-89.2507
 11
119.215
 21
-89.2497
  0
LINE
  8
0
 10
119.215
 20
-89.2497
 11
119.508
 21
-89.1334
  0
LINE
  8
0
 10
119.508
 20
-89.1334
 11
119.511
 21
-89.1321
  0
LINE
  8
0
 10
119.511
 20
-89.1321
 11
119.787
 21
-89.0027
  0
LINE
  8
0
 10
119.787
 20
-89.0027
 11
119.789
 21
-89.0012
  0
LINE
  8
0
 10
119.789
 20
-89.0012
 11
120.075
 21
-88.8441
  0
LINE
  8
0
 10
120.075
 20
-88.8441
 11
120.078
 21
-88.8425
  0
LINE
  8
0
 10
120.078
 20
-88.8425
 11
120.334
 21
-88.68
  0
LINE
  8
0
 10
120.334
 20
-88.68
 11
120.336
 21
-88.6782
  0
LINE
  8
0
 10
120.336
 20
-88.6782
 11
120.599
 21
-88.4872
  0
LINE
  8
0
 10
120.599
 20
-88.4872
 11
120.602
 21
-88.4853
  0
LINE
  8
0
 10
120.602
 20
-88.4853
 11
120.83
 21
-88.2969
  0
LINE
  8
0
 10
120.83
 20
-88.2969
 11
120.832
 21
-88.2948
  0
LINE
  8
0
 10
120.832
 20
-88.2948
 11
121.07
 21
-88.072
  0
LINE
  8
0
 10
121.07
 20
-88.072
 11
121.072
 21
-88.0698
  0
LINE
  8
0
 10
121.072
 20
-88.0698
 11
121.295
 21
-87.8319
  0
LINE
  8
0
 10
121.295
 20
-87.8319
 11
121.297
 21
-87.8295
  0
LINE
  8
0
 10
121.297
 20
-87.8295
 11
121.485
 21
-87.6016
  0
LINE
  8
0
 10
121.485
 20
-87.6016
 11
121.487
 21
-87.5991
  0
LINE
  8
0
 10
121.487
 20
-87.5991
 11
121.678
 21
-87.3363
  0
LINE
  8
0
 10
121.678
 20
-87.3363
 11
121.68
 21
-87.3337
  0
LINE
  8
0
 10
121.68
 20
-87.3337
 11
121.842
 21
-87.0778
  0
LINE
  8
0
 10
121.842
 20
-87.0778
 11
121.844
 21
-87.0751
  0
LINE
  8
0
 10
121.844
 20
-87.0751
 11
122.001
 21
-86.7893
  0
LINE
  8
0
 10
122.001
 20
-86.7893
 11
122.003
 21
-86.7865
  0
LINE
  8
0
 10
122.003
 20
-86.7865
 11
122.132
 21
-86.5114
  0
LINE
  8
0
 10
122.132
 20
-86.5114
 11
122.133
 21
-86.5085
  0
LINE
  8
0
 10
122.133
 20
-86.5085
 11
122.25
 21
-86.2154
  0
LINE
  8
0
 10
122.25
 20
-86.2154
 11
122.251
 21
-86.2125
  0
LINE
  8
0
 10
122.251
 20
-86.2125
 11
122.352
 21
-85.8987
  0
LINE
  8
0
 10
122.352
 20
-85.8987
 11
122.353
 21
-85.8956
  0
LINE
  8
0
 10
122.353
 20
-85.8956
 11
122.426
 21
-85.61
  0
LINE
  8
0
 10
122.426
 20
-85.61
 11
122.427
 21
-85.6069
  0
LINE
  8
0
 10
122.427
 20
-85.6069
 11
122.475
 21
-85.3565
  0
LINE
  8
0
 10
122.475
 20
-85.3565
 11
132.471
 21
-71.5978
  0
LINE
  8
0
 10
132.471
 20
-71.5978
 11
132.648
 21
-71.338
  0
LINE
  8
0
 10
132.648
 20
-71.338
 11
132.808
 21
-71.0676
  0
LINE
  8
0
 10
132.808
 20
-71.0676
 11
132.95
 21
-70.7878
  0
LINE
  8
0
 10
132.95
 20
-70.7878
 11
133.075
 21
-70.4995
  0
LINE
  8
0
 10
133.075
 20
-70.4995
 11
133.181
 21
-70.204
  0
LINE
  8
0
 10
133.181
 20
-70.204
 11
133.269
 21
-69.9023
  0
LINE
  8
0
 10
133.269
 20
-69.9023
 11
133.338
 21
-69.5958
  0
LINE
  8
0
 10
133.338
 20
-69.5958
 11
133.387
 21
-69.2855
  0
LINE
  8
0
 10
133.387
 20
-69.2855
 11
133.416
 21
-68.9728
  0
LINE
  8
0
 10
133.416
 20
-68.9728
 11
133.426
 21
-68.6589
  0
LINE
  8
0
 10
133.426
 20
-68.6589
 11
133.416
 21
-68.3449
  0
LINE
  8
0
 10
133.416
 20
-68.3449
 11
133.387
 21
-68.0322
  0
LINE
  8
0
 10
133.387
 20
-68.0322
 11
133.338
 21
-67.722
  0
LINE
  8
0
 10
133.338
 20
-67.722
 11
133.269
 21
-67.4154
  0
LINE
  8
0
 10
133.269
 20
-67.4154
 11
133.181
 21
-67.1138
  0
LINE
  8
0
 10
133.181
 20
-67.1138
 11
133.075
 21
-66.8183
  0
LINE
  8
0
 10
133.075
 20
-66.8183
 11
132.95
 21
-66.53
  0
LINE
  8
0
 10
132.95
 20
-66.53
 11
132.845
 21
-66.3226
  0
LINE
  8
0
 10
132.845
 20
-66.3226
 11
132.746
 21
-66.0285
  0
LINE
  8
0
 10
132.746
 20
-66.0285
 11
125.736
 21
-47.1789
  0
LINE
  8
0
 10
125.736
 20
-47.1789
 11
123.103
 21
-48.158
  0
LINE
  8
0
 10
123.103
 20
-48.158
 11
119.966
 21
-39.7224
  0
LINE
  8
0
 10
119.966
 20
-39.7224
 11
122.598
 21
-38.7433
  0
LINE
  8
0
 10
122.598
 20
-38.7433
 11
116.853
 21
-23.2953
  0
LINE
  8
0
 10
116.853
 20
-23.2953
 11
116.851
 21
-23.2875
  0
LINE
  8
0
 10
116.851
 20
-23.2875
 11
116.85
 21
-23.2845
  0
LINE
  8
0
 10
116.85
 20
-23.2845
 11
116.843
 21
-23.2682
  0
LINE
  8
0
 10
116.843
 20
-23.2682
 11
116.835
 21
-23.2472
  0
LINE
  8
0
 10
116.835
 20
-23.2472
 11
116.835
 21
-23.2474
  0
LINE
  8
0
 10
116.835
 20
-23.2474
 11
116.829
 21
-23.2329
  0
LINE
  8
0
 10
116.829
 20
-23.2329
 11
116.83
 21
-23.2326
  0
LINE
  8
0
 10
116.83
 20
-23.2326
 11
111.095
 21
-7.81302
  0
LINE
  8
0
 10
111.095
 20
-7.81302
 11
108.463
 21
-8.79211
  0
LINE
  8
0
 10
108.463
 20
-8.79211
 11
105.326
 21
-0.356567
  0
LINE
  8
0
 10
105.326
 20
-0.356567
 11
107.958
 21
0.622528
  0
LINE
  8
0
 10
107.958
 20
0.622528
 11
106.254
 21
5.20486
  0
LINE
  8
0
 10
106.254
 20
5.20486
 11
106.135
 21
5.49568
  0
LINE
  8
0
 10
106.135
 20
5.49568
 11
105.999
 21
5.77849
  0
LINE
  8
0
 10
105.999
 20
5.77849
 11
105.912
 21
5.93213
  0
LINE
  8
0
 10
105.912
 20
5.93213
 11
105.911
 21
5.9369
  0
LINE
  8
0
 10
105.911
 20
5.9369
 11
105.843
 21
6.24345
  0
LINE
  8
0
 10
105.843
 20
6.24345
 11
105.755
 21
6.54509
  0
LINE
  8
0
 10
105.755
 20
6.54509
 11
105.649
 21
6.84062
  0
LINE
  8
0
 10
105.649
 20
6.84062
 11
105.524
 21
7.12889
  0
LINE
  8
0
 10
105.524
 20
7.12889
 11
105.382
 21
7.40877
  0
LINE
  8
0
 10
105.382
 20
7.40877
 11
105.222
 21
7.67914
  0
LINE
  8
0
 10
105.222
 20
7.67914
 11
105.045
 21
7.93892
  0
LINE
  8
0
 10
105.045
 20
7.93892
 11
104.853
 21
8.18712
  0
LINE
  8
0
 10
104.853
 20
8.18712
 11
104.645
 21
8.42273
  0
LINE
  8
0
 10
104.645
 20
8.42273
 11
104.423
 21
8.64484
  0
LINE
  8
0
 10
104.423
 20
8.64484
 11
104.187
 21
8.85257
  0
LINE
  8
0
 10
104.187
 20
8.85257
 11
103.939
 21
9.04509
  0
LINE
  8
0
 10
103.939
 20
9.04509
 11
103.679
 21
9.22163
  0
LINE
  8
0
 10
103.679
 20
9.22163
 11
103.409
 21
9.38153
  0
LINE
  8
0
 10
103.409
 20
9.38153
 11
103.129
 21
9.52414
  0
LINE
  8
0
 10
103.129
 20
9.52414
 11
102.841
 21
9.64888
  0
LINE
  8
0
 10
102.841
 20
9.64888
 11
102.545
 21
9.75528
  0
LINE
  8
0
 10
102.545
 20
9.75528
 11
102.243
 21
9.84291
  0
LINE
  8
0
 10
102.243
 20
9.84291
 11
101.937
 21
9.91144
  0
LINE
  8
0
 10
101.937
 20
9.91144
 11
101.627
 21
9.96057
  0
LINE
  8
0
 10
101.627
 20
9.96057
 11
101.314
 21
9.99013
  0
LINE
  8
0
 10
101.314
 20
9.99013
 11
101
 21
10
  0
LINE
  8
0
 10
101
 20
10
 11
90.1367
 21
10
  0
LINE
  8
0
 10
90.1367
 20
10
 11
90.1334
 21
10.0085
  0
LINE
  8
0
 10
90.1334
 20
10.0085
 11
90.1321
 21
10.0114
  0
LINE
  8
0
 10
90.1321
 20
10.0114
 11
90.0027
 21
10.2865
  0
LINE
  8
0
 10
90.0027
 20
10.2865
 11
90.0012
 21
10.2893
  0
LINE
  8
0
 10
90.0012
 20
10.2893
 11
89.8441
 21
10.5751
  0
LINE
  8
0
 10
89.8441
 20
10.5751
 11
89.8425
 21
10.5778
  0
LINE
  8
0
 10
89.8425
 20
10.5778
 11
89.68
 21
10.8337
  0
LINE
  8
0
 10
89.68
 20
10.8337
 11
89.6782
 21
10.8363
  0
LINE
  8
0
 10
89.6782
 20
10.8363
 11
89.4872
 21
11.0991
  0
LINE
  8
0
 10
89.4872
 20
11.0991
 11
89.4853
 21
11.1016
  0
LINE
  8
0
 10
89.4853
 20
11.1016
 11
89.2969
 21
11.3295
  0
LINE
  8
0
 10
89.2969
 20
11.3295
 11
89.2948
 21
11.3319
  0
LINE
  8
0
 10
89.2948
 20
11.3319
 11
89.072
 21
11.5698
  0
LINE
  8
0
 10
89.072
 20
11.5698
 11
89.0698
 21
11.572
  0
LINE
  8
0
 10
89.0698
 20
11.572
 11
88.8319
 21
11.7948
  0
LINE
  8
0
 10
88.8319
 20
11.7948
 11
88.8295
 21
11.7969
  0
LINE
  8
0
 10
88.8295
 20
11.7969
 11
88.6016
 21
11.9853
  0
LINE
  8
0
 10
88.6016
 20
11.9853
 11
88.5991
 21
11.9872
  0
LINE
  8
0
 10
88.5991
 20
11.9872
 11
88.3363
 21
12.1782
  0
LINE
  8
0
 10
88.3363
 20
12.1782
 11
88.3337
 21
12.18
  0
LINE
  8
0
 10
88.3337
 20
12.18
 11
88.0778
 21
12.3425
  0
LINE
  8
0
 10
88.0778
 20
12.3425
 11
88.0751
 21
12.3441
  0
LINE
  8
0
 10
88.0751
 20
12.3441
 11
87.7893
 21
12.5012
  0
LINE
  8
0
 10
87.7893
 20
12.5012
 11
87.7865
 21
12.5027
  0
LINE
  8
0
 10
87.7865
 20
12.5027
 11
87.5114
 21
12.6321
  0
LINE
  8
0
 10
87.5114
 20
12.6321
 11
87.5085
 21
12.6334
  0
LINE
  8
0
 10
87.5085
 20
12.6334
 11
87.2154
 21
12.7497
  0
LINE
  8
0
 10
87.2154
 20
12.7497
 11
87.2125
 21
12.7507
  0
LINE
  8
0
 10
87.2125
 20
12.7507
 11
86.8987
 21
12.8524
  0
LINE
  8
0
 10
86.8987
 20
12.8524
 11
86.8956
 21
12.8533
  0
LINE
  8
0
 10
86.8956
 20
12.8533
 11
86.61
 21
12.9265
  0
LINE
  8
0
 10
86.61
 20
12.9265
 11
86.6069
 21
12.9272
  0
LINE
  8
0
 10
86.6069
 20
12.9272
 11
86.2842
 21
12.9887
  0
LINE
  8
0
 10
86.2842
 20
12.9887
 11
86.2811
 21
12.9892
  0
LINE
  8
0
 10
86.2811
 20
12.9892
 11
85.9918
 21
13.026
  0
LINE
  8
0
 10
85.9918
 20
13.026
 11
85.9886
 21
13.0263
  0
LINE
  8
0
 10
85.9886
 20
13.0263
 11
85.6494
 21
13.0478
  0
LINE
  8
0
 10
85.6494
 20
13.0478
 11
85.6463
 21
13.0479
  0
LINE
  8
0
 10
85.6463
 20
13.0479
 11
85.3544
 21
13.0479
  0
LINE
  8
0
 10
85.3544
 20
13.0479
 11
85.3513
 21
13.0478
  0
LINE
  8
0
 10
85.3513
 20
13.0478
 11
85.0114
 21
13.0263
  0
LINE
  8
0
 10
85.0114
 20
13.0263
 11
85.0082
 21
13.026
  0
LINE
  8
0
 10
85.0082
 20
13.026
 11
84.7189
 21
12.9892
  0
LINE
  8
0
 10
84.7189
 20
12.9892
 11
84.7158
 21
12.9887
  0
LINE
  8
0
 10
84.7158
 20
12.9887
 11
84.3931
 21
12.9272
  0
LINE
  8
0
 10
84.3931
 20
12.9272
 11
84.39
 21
12.9265
  0
LINE
  8
0
 10
84.39
 20
12.9265
 11
84.1043
 21
12.8533
  0
LINE
  8
0
 10
84.1043
 20
12.8533
 11
84.1013
 21
12.8524
  0
LINE
  8
0
 10
84.1013
 20
12.8524
 11
83.7875
 21
12.7507
  0
LINE
  8
0
 10
83.7875
 20
12.7507
 11
83.7845
 21
12.7497
  0
LINE
  8
0
 10
83.7845
 20
12.7497
 11
83.4915
 21
12.6334
  0
LINE
  8
0
 10
83.4915
 20
12.6334
 11
83.4886
 21
12.6321
  0
LINE
  8
0
 10
83.4886
 20
12.6321
 11
83.2135
 21
12.5027
  0
LINE
  8
0
 10
83.2135
 20
12.5027
 11
83.2107
 21
12.5012
  0
LINE
  8
0
 10
83.2107
 20
12.5012
 11
82.9249
 21
12.3441
  0
LINE
  8
0
 10
82.9249
 20
12.3441
 11
82.9222
 21
12.3425
  0
LINE
  8
0
 10
82.9222
 20
12.3425
 11
82.6663
 21
12.18
  0
LINE
  8
0
 10
82.6663
 20
12.18
 11
82.6637
 21
12.1782
  0
LINE
  8
0
 10
82.6637
 20
12.1782
 11
82.4009
 21
11.9872
  0
LINE
  8
0
 10
82.4009
 20
11.9872
 11
82.3984
 21
11.9853
  0
LINE
  8
0
 10
82.3984
 20
11.9853
 11
82.1705
 21
11.7969
  0
LINE
  8
0
 10
82.1705
 20
11.7969
 11
82.1681
 21
11.7948
  0
LINE
  8
0
 10
82.1681
 20
11.7948
 11
81.9302
 21
11.572
  0
LINE
  8
0
 10
81.9302
 20
11.572
 11
81.928
 21
11.5698
  0
LINE
  8
0
 10
81.928
 20
11.5698
 11
81.8627
 21
11.5
  0
LINE
  8
0
 10
81.8627
 20
11.5
 11
72.3276
 21
11.5
  0
LINE
  8
0
 10
72.3276
 20
11.5
 11
72.2216
 21
11.6791
  0
LINE
  8
0
 10
72.2216
 20
11.6791
 11
72.0451
 21
11.9389
  0
LINE
  8
0
 10
72.0451
 20
11.9389
 11
71.8526
 21
12.1871
  0
LINE
  8
0
 10
71.8526
 20
12.1871
 11
71.6448
 21
12.4227
  0
LINE
  8
0
 10
71.6448
 20
12.4227
 11
71.4227
 21
12.6448
  0
LINE
  8
0
 10
71.4227
 20
12.6448
 11
71.1871
 21
12.8526
  0
LINE
  8
0
 10
71.1871
 20
12.8526
 11
70.9389
 21
13.0451
  0
LINE
  8
0
 10
70.9389
 20
13.0451
 11
70.6791
 21
13.2216
  0
LINE
  8
0
 10
70.6791
 20
13.2216
 11
70.4088
 21
13.3815
  0
LINE
  8
0
 10
70.4088
 20
13.3815
 11
70.1289
 21
13.5241
  0
LINE
  8
0
 10
70.1289
 20
13.5241
 11
69.8406
 21
13.6489
  0
LINE
  8
0
 10
69.8406
 20
13.6489
 11
69.5451
 21
13.7553
  0
LINE
  8
0
 10
69.5451
 20
13.7553
 11
69.2435
 21
13.8429
  0
LINE
  8
0
 10
69.2435
 20
13.8429
 11
68.9369
 21
13.9114
  0
LINE
  8
0
 10
68.9369
 20
13.9114
 11
68.6267
 21
13.9606
  0
LINE
  8
0
 10
68.6267
 20
13.9606
 11
68.3139
 21
13.9901
  0
LINE
  8
0
 10
68.3139
 20
13.9901
 11
68
 21
14
  0
LINE
  8
0
 10
68
 20
14
 11
48
 21
14
  0
LINE
  8
0
 10
48
 20
14
 11
47.6861
 21
13.9901
  0
LINE
  8
0
 10
47.6861
 20
13.9901
 11
47.3733
 21
13.9606
  0
LINE
  8
0
 10
47.3733
 20
13.9606
 11
47.0631
 21
13.9114
  0
LINE
  8
0
 10
47.0631
 20
13.9114
 11
46.7565
 21
13.8429
  0
LINE
  8
0
 10
46.7565
 20
13.8429
 11
46.4549
 21
13.7553
  0
LINE
  8
0
 10
46.4549
 20
13.7553
 11
46.1594
 21
13.6489
  0
LINE
  8
0
 10
46.1594
 20
13.6489
 11
45.8711
 21
13.5241
  0
LINE
  8
0
 10
45.8711
 20
13.5241
 11
45.5912
 21
13.3815
  0
LINE
  8
0
 10
45.5912
 20
13.3815
 11
45.3209
 21
13.2216
  0
LINE
  8
0
 10
45.3209
 20
13.2216
 11
45.0611
 21
13.0451
  0
LINE
  8
0
 10
45.0611
 20
13.0451
 11
44.8129
 21
12.8526
  0
LINE
  8
0
 10
44.8129
 20
12.8526
 11
44.5773
 21
12.6448
  0
LINE
  8
0
 10
44.5773
 20
12.6448
 11
44.3552
 21
12.4227
  0
LINE
  8
0
 10
44.3552
 20
12.4227
 11
44.1474
 21
12.1871
  0
LINE
  8
0
 10
44.1474
 20
12.1871
 11
43.9761
 21
11.9662
  0
LINE
  8
0
 10
43.9761
 20
11.9662
 11
43.7584
 21
11.7863
  0
LINE
  8
0
 10
43.7584
 20
11.7863
 11
43.756
 21
11.7842
  0
LINE
  8
0
 10
43.756
 20
11.7842
 11
43.5424
 21
11.5841
  0
LINE
  8
0
 10
43.5424
 20
11.5841
 11
43.5402
 21
11.5819
  0
LINE
  8
0
 10
43.5402
 20
11.5819
 11
43.4632
 21
11.5
  0
LINE
  8
0
 10
43.4632
 20
11.5
 11
28
 21
11.5
  0
LINE
  8
0
 10
28
 20
11.5
 11
27.6861
 21
11.4901
  0
LINE
  8
0
 10
27.6861
 20
11.4901
 11
27.3733
 21
11.4606
  0
LINE
  8
0
 10
27.3733
 20
11.4606
 11
27.0631
 21
11.4114
  0
LINE
  8
0
 10
27.0631
 20
11.4114
 11
26.7565
 21
11.3429
  0
LINE
  8
0
 10
26.7565
 20
11.3429
 11
26.4549
 21
11.2553
  0
LINE
  8
0
 10
26.4549
 20
11.2553
 11
26.1594
 21
11.1489
  0
LINE
  8
0
 10
26.1594
 20
11.1489
 11
25.8711
 21
11.0241
  0
LINE
  8
0
 10
25.8711
 20
11.0241
 11
25.5912
 21
10.8815
  0
LINE
  8
0
 10
25.5912
 20
10.8815
 11
25.3209
 21
10.7216
  0
LINE
  8
0
 10
25.3209
 20
10.7216
 11
25.0611
 21
10.5451
  0
LINE
  8
0
 10
25.0611
 20
10.5451
 11
24.8129
 21
10.3526
  0
LINE
  8
0
 10
24.8129
 20
10.3526
 11
24.5773
 21
10.1448
  0
LINE
  8
0
 10
24.5773
 20
10.1448
 11
24.4324
 21
10
  0
LINE
  8
0
 10
24.4324
 20
10
 11
8
 21
10
  0
LINE
  8
0
 10
8
 20
10
 11
7.68605
 21
9.99013
  0
LINE
  8
0
 10
7.68605
 20
9.99013
 11
7.37334
 21
9.96057
  0
LINE
  8
0
 10
7.37334
 20
9.96057
 11
7.0631
 21
9.91144
  0
LINE
  8
0
 10
7.0631
 20
9.91144
 11
6.75655
 21
9.84291
  0
LINE
  8
0
 10
6.75655
 20
9.84291
 11
6.45491
 21
9.75528
  0
LINE
  8
0
 10
6.45491
 20
9.75528
 11
6.15938
 21
9.64888
  0
LINE
  8
0
 10
6.15938
 20
9.64888
 11
5.87111
 21
9.52414
  0
LINE
  8
0
 10
5.87111
 20
9.52414
 11
5.59123
 21
9.38153
  0
LINE
  8
0
 10
5.59123
 20
9.38153
 11
5.32086
 21
9.22163
  0
LINE
  8
0
 10
5.32086
 20
9.22163
 11
5.06108
 21
9.04509
  0
LINE
  8
0
 10
5.06108
 20
9.04509
 11
4.81288
 21
8.85257
  0
LINE
  8
0
 10
4.81288
 20
8.85257
 11
4.57727
 21
8.64484
  0
LINE
  8
0
 10
4.57727
 20
8.64484
 11
4.35516
 21
8.42273
  0
LINE
  8
0
 10
4.35516
 20
8.42273
 11
4.14743
 21
8.18712
  0
LINE
  8
0
 10
4.14743
 20
8.18712
 11
3.95491
 21
7.93892
  0
LINE
  8
0
 10
3.95491
 20
7.93892
 11
3.77837
 21
7.67914
  0
LINE
  8
0
 10
3.77837
 20
7.67914
 11
3.61847
 21
7.40877
  0
LINE
  8
0
 10
3.61847
 20
7.40877
 11
3.47586
 21
7.12889
  0
LINE
  8
0
 10
3.47586
 20
7.12889
 11
3.35112
 21
6.84062
  0
LINE
  8
0
 10
3.35112
 20
6.84062
 11
3.24472
 21
6.54509
  0
LINE
  8
0
 10
3.24472
 20
6.54509
 11
3.17072
 21
6.29034
  0
LINE
  8
0
 10
3.17072
 20
6.29034
 11
3.01471
 21
6.10156
  0
LINE
  8
0
 10
3.01471
 20
6.10156
 11
3.01279
 21
6.09909
  0
LINE
  8
0
 10
3.01279
 20
6.09909
 11
2.82176
 21
5.8363
  0
LINE
  8
0
 10
2.82176
 20
5.8363
 11
2.81999
 21
5.83369
  0
LINE
  8
0
 10
2.81999
 20
5.83369
 11
2.6575
 21
5.57779
  0
LINE
  8
0
 10
2.6575
 20
5.57779
 11
2.6559
 21
5.57509
  0
LINE
  8
0
 10
2.6559
 20
5.57509
 11
2.49875
 21
5.28932
  0
LINE
  8
0
 10
2.49875
 20
5.28932
 11
2.49733
 21
5.28653
  0
LINE
  8
0
 10
2.49733
 20
5.28653
 11
2.36786
 21
5.01137
  0
LINE
  8
0
 10
2.36786
 20
5.01137
 11
2.36661
 21
5.00848
  0
LINE
  8
0
 10
2.36661
 20
5.00848
 11
2.36324
 21
5
  0
LINE
  8
0
 10
2.36324
 20
5
 11
-8
 21
5
  0
LINE
  8
0
 10
-8
 20
5
 11
-8.31395
 21
4.99013
  0
LINE
  8
0
 10
-8.31395
 20
4.99013
 11
-8.62666
 21
4.96057
  0
LINE
  8
0
 10
-8.62666
 20
4.96057
 11
-8.9369
 21
4.91144
  0
LINE
  8
0
 10
-8.9369
 20
4.91144
 11
-9.24345
 21
4.84291
  0
LINE
  8
0
 10
-9.24345
 20
4.84291
 11
-9.54509
 21
4.75528
  0
LINE
  8
0
 10
-9.54509
 20
4.75528
 11
-9.84062
 21
4.64888
  0
LINE
  8
0
 10
-9.84062
 20
4.64888
 11
-10.1289
 21
4.52414
  0
LINE
  8
0
 10
-10.1289
 20
4.52414
 11
-10.4088
 21
4.38153
  0
LINE
  8
0
 10
-10.4088
 20
4.38153
 11
-10.6791
 21
4.22163
  0
LINE
  8
0
 10
-10.6791
 20
4.22163
 11
-10.9389
 21
4.04509
  0
LINE
  8
0
 10
-10.9389
 20
4.04509
 11
-11.1871
 21
3.85257
  0
LINE
  8
0
 10
-11.1871
 20
3.85257
 11
-11.4227
 21
3.64484
  0
LINE
  8
0
 10
-11.4227
 20
3.64484
 11
-11.6448
 21
3.42273
  0
LINE
  8
0
 10
-11.6448
 20
3.42273
 11
-11.8526
 21
3.18712
  0
LINE
  8
0
 10
-11.8526
 20
3.18712
 11
-12.0451
 21
2.93892
  0
LINE
  8
0
 10
-12.0451
 20
2.93892
 11
-12.2216
 21
2.67914
  0
LINE
  8
0
 10
-12.2216
 20
2.67914
 11
-12.3815
 21
2.40877
  0
LINE
  8
0
 10
-12.3815
 20
2.40877
 11
-12.5241
 21
2.12889
  0
LINE
  8
0
 10
-12.5241
 20
2.12889
 11
-12.6489
 21
1.84062
  0
LINE
  8
0
 10
-12.6489
 20
1.84062
 11
-12.7553
 21
1.54509
  0
LINE
  8
0
 10
-12.7553
 20
1.54509
 11
-12.8429
 21
1.24345
  0
LINE
  8
0
 10
-12.8429
 20
1.24345
 11
-12.9114
 21
0.936905
  0
LINE
  8
0
 10
-12.9114
 20
0.936905
 11
-12.9606
 21
0.626663
  0
LINE
  8
0
 10
-12.9606
 20
0.626663
 11
-12.9901
 21
0.31395
  0
LINE
  8
0
 10
-12.9901
 20
0.31395
 11
-13
 21
0
  0
LINE
  8
0
 10
-13
 20
0
 11
-13
 21
-32
  0
LINE
  8
0
 10
-13
 20
-32
 11
-12.9901
 21
-32.3139
  0
LINE
  8
0
 10
-12.9901
 20
-32.3139
 11
-12.9606
 21
-32.6267
  0
LINE
  8
0
 10
-12.9606
 20
-32.6267
 11
-12.9114
 21
-32.9369
  0
LINE
  8
0
 10
-12.9114
 20
-32.9369
 11
-12.8429
 21
-33.2435
  0
LINE
  8
0
 10
-12.8429
 20
-33.2435
 11
-12.7553
 21
-33.5451
  0
LINE
  8
0
 10
-12.7553
 20
-33.5451
 11
-12.6489
 21
-33.8406
  0
LINE
  8
0
 10
-12.6489
 20
-33.8406
 11
-12.5241
 21
-34.1289
  0
LINE
  8
0
 10
-12.5241
 20
-34.1289
 11
-12.3815
 21
-34.4088
  0
LINE
  8
0
 10
-12.3815
 20
-34.4088
 11
-12.2216
 21
-34.6791
  0
LINE
  8
0
 10
-12.2216
 20
-34.6791
 11
-12.0451
 21
-34.9389
  0
LINE
  8
0
 10
-12.0451
 20
-34.9389
 11
-11.8526
 21
-35.1871
  0
LINE
  8
0
 10
-11.8526
 20
-35.1871
 11
-11.6448
 21
-35.4227
  0
LINE
  8
0
 10
-11.6448
 20
-35.4227
 11
-11.4227
 21
-35.6448
  0
LINE
  8
0
 10
-11.4227
 20
-35.6448
 11
-11.1871
 21
-35.8526
  0
LINE
  8
0
 10
-11.1871
 20
-35.8526
 11
-10.9389
 21
-36.0451
  0
LINE
  8
0
 10
-10.9389
 20
-36.0451
 11
-10.6791
 21
-36.2216
  0
LINE
  8
0
 10
-10.6791
 20
-36.2216
 11
-10.4088
 21
-36.3815
  0
LINE
  8
0
 10
-10.4088
 20
-36.3815
 11
-10.1289
 21
-36.5241
  0
LINE
  8
0
 10
-10.1289
 20
-36.5241
 11
-9.84062
 21
-36.6489
  0
LINE
  8
0
 10
-9.84062
 20
-36.6489
 11
-9.54509
 21
-36.7553
  0
LINE
  8
0
 10
-9.54509
 20
-36.7553
 11
-9.24345
 21
-36.8429
  0
LINE
  8
0
 10
-9.24345
 20
-36.8429
 11
-8.9369
 21
-36.9114
  0
LINE
  8
0
 10
-8.9369
 20
-36.9114
 11
-8.62666
 21
-36.9606
  0
LINE
  8
0
 10
-8.62666
 20
-36.9606
 11
-8.31395
 21
-36.9901
  0
LINE
  8
0
 10
-8.31395
 20
-36.9901
 11
-8
 21
-37
  0
LINE
  8
0
 10
-8
 20
-37
 11
2.36324
 21
-37
  0
LINE
  8
0
 10
2.36324
 20
-37
 11
2.36661
 21
-37.0085
  0
LINE
  8
0
 10
2.36661
 20
-37.0085
 11
2.36786
 21
-37.0114
  0
LINE
  8
0
 10
2.36786
 20
-37.0114
 11
2.49733
 21
-37.2865
  0
LINE
  8
0
 10
2.49733
 20
-37.2865
 11
2.49875
 21
-37.2893
  0
LINE
  8
0
 10
2.49875
 20
-37.2893
 11
2.6559
 21
-37.5751
  0
LINE
  8
0
 10
2.6559
 20
-37.5751
 11
2.6575
 21
-37.5778
  0
LINE
  8
0
 10
2.6575
 20
-37.5778
 11
2.81999
 21
-37.8337
  0
LINE
  8
0
 10
2.81999
 20
-37.8337
 11
2.82176
 21
-37.8363
  0
LINE
  8
0
 10
2.82176
 20
-37.8363
 11
3
 21
-38.0815
  0
LINE
  8
0
 10
3
 20
-38.0815
 11
3
 21
-49
  0
LINE
  8
0
 10
3
 20
-49
 11
3.00987
 21
-49.3139
  0
LINE
  8
0
 10
3.00987
 20
-49.3139
 11
3.03943
 21
-49.6267
  0
LINE
  8
0
 10
3.03943
 20
-49.6267
 11
3.08856
 21
-49.9369
  0
LINE
  8
0
 10
3.08856
 20
-49.9369
 11
3.15709
 21
-50.2435
  0
LINE
  8
0
 10
3.15709
 20
-50.2435
 11
3.24472
 21
-50.5451
  0
LINE
  8
0
 10
3.24472
 20
-50.5451
 11
3.35112
 21
-50.8406
  0
LINE
  8
0
 10
3.35112
 20
-50.8406
 11
3.47586
 21
-51.1289
  0
LINE
  8
0
 10
3.47586
 20
-51.1289
 11
3.61847
 21
-51.4088
  0
LINE
  8
0
 10
3.61847
 20
-51.4088
 11
3.77837
 21
-51.6791
  0
LINE
  8
0
 10
3.77837
 20
-51.6791
 11
3.95491
 21
-51.9389
  0
LINE
  8
0
 10
3.95491
 20
-51.9389
 11
4.14743
 21
-52.1871
  0
LINE
  8
0
 10
4.14743
 20
-52.1871
 11
4.35516
 21
-52.4227
  0
LINE
  8
0
 10
4.35516
 20
-52.4227
 11
4.57727
 21
-52.6448
  0
LINE
  8
0
 10
4.57727
 20
-52.6448
 11
4.81288
 21
-52.8526
  0
LINE
  8
0
 10
4.81288
 20
-52.8526
 11
5.06108
 21
-53.0451
  0
LINE
  8
0
 10
5.06108
 20
-53.0451
 11
5.32086
 21
-53.2216
  0
LINE
  8
0
 10
5.32086
 20
-53.2216
 11
5.59123
 21
-53.3815
  0
LINE
  8
0
 10
5.59123
 20
-53.3815
 11
5.87111
 21
-53.5241
  0
LINE
  8
0
 10
5.87111
 20
-53.5241
 11
6.15938
 21
-53.6489
  0
LINE
  8
0
 10
6.15938
 20
-53.6489
 11
6.45491
 21
-53.7553
  0
LINE
  8
0
 10
6.45491
 20
-53.7553
 11
6.75655
 21
-53.8429
  0
LINE
  8
0
 10
6.75655
 20
-53.8429
 11
7.0631
 21
-53.9114
  0
LINE
  8
0
 10
7.0631
 20
-53.9114
 11
7.37334
 21
-53.9606
  0
LINE
  8
0
 10
7.37334
 20
-53.9606
 11
7.68605
 21
-53.9901
  0
LINE
  8
0
 10
7.68605
 20
-53.9901
 11
8
 21
-54
  0
LINE
  8
0
 10
8
 20
-54
 11
28
 21
-54
  0
LINE
  8
0
 10
28
 20
-54
 11
28.3139
 21
-53.9901
  0
LINE
  8
0
 10
28.3139
 20
-53.9901
 11
28.6267
 21
-53.9606
  0
LINE
  8
0
 10
28.6267
 20
-53.9606
 11
28.9369
 21
-53.9114
  0
LINE
  8
0
 10
28.9369
 20
-53.9114
 11
29.2435
 21
-53.8429
  0
LINE
  8
0
 10
29.2435
 20
-53.8429
 11
29.5451
 21
-53.7553
  0
LINE
  8
0
 10
29.5451
 20
-53.7553
 11
29.8406
 21
-53.6489
  0
LINE
  8
0
 10
29.8406
 20
-53.6489
 11
30.1289
 21
-53.5241
  0
LINE
  8
0
 10
30.1289
 20
-53.5241
 11
30.4088
 21
-53.3815
  0
LINE
  8
0
 10
30.4088
 20
-53.3815
 11
30.6791
 21
-53.2216
  0
LINE
  8
0
 10
30.6791
 20
-53.2216
 11
30.9389
 21
-53.0451
  0
LINE
  8
0
 10
30.9389
 20
-53.0451
 11
31.1871
 21
-52.8526
  0
LINE
  8
0
 10
31.1871
 20
-52.8526
 11
31.4227
 21
-52.6448
  0
LINE
  8
0
 10
31.4227
 20
-52.6448
 11
31.5676
 21
-52.5
  0
LINE
  8
0
 10
31.5676
 20
-52.5
 11
44.3627
 21
-52.5
  0
LINE
  8
0
 10
44.3627
 20
-52.5
 11
44.428
 21
-52.5698
  0
LINE
  8
0
 10
44.428
 20
-52.5698
 11
44.4302
 21
-52.572
  0
LINE
  8
0
 10
44.4302
 20
-52.572
 11
44.5128
 21
-52.6494
  0
LINE
  8
0
 10
44.5128
 20
-52.6494
 11
44.5128
 21
-66.8997
  0
LINE
  8
0
 10
44.5128
 20
-66.8997
 11
44.5227
 21
-67.2137
  0
LINE
  8
0
 10
44.5227
 20
-67.2137
 11
44.5522
 21
-67.5264
  0
LINE
  8
0
 10
44.5522
 20
-67.5264
 11
44.6014
 21
-67.8367
  0
LINE
  8
0
 10
44.6014
 20
-67.8367
 11
44.6699
 21
-68.1432
  0
LINE
  8
0
 10
44.6699
 20
-68.1432
 11
44.7575
 21
-68.4448
  0
LINE
  8
0
 10
44.7575
 20
-68.4448
 11
44.8639
 21
-68.7404
  0
LINE
  8
0
 10
44.8639
 20
-68.7404
 11
44.9887
 21
-69.0286
  0
LINE
  8
0
 10
44.9887
 20
-69.0286
 11
45.1313
 21
-69.3085
  0
LINE
  8
0
 10
45.1313
 20
-69.3085
 11
45.2912
 21
-69.5789
  0
LINE
  8
0
 10
45.2912
 20
-69.5789
 11
45.4677
 21
-69.8387
  0
LINE
  8
0
 10
45.4677
 20
-69.8387
 11
45.6602
 21
-70.0869
  0
LINE
  8
0
 10
45.6602
 20
-70.0869
 11
45.868
 21
-70.3225
  0
LINE
  8
0
 10
45.868
 20
-70.3225
 11
46.0901
 21
-70.5446
  0
LINE
  8
0
 10
46.0901
 20
-70.5446
 11
46.3257
 21
-70.7523
  0
LINE
  8
0
 10
46.3257
 20
-70.7523
 11
46.5739
 21
-70.9448
  0
LINE
  8
0
 10
46.5739
 20
-70.9448
 11
46.8337
 21
-71.1214
  0
LINE
  8
0
 10
46.8337
 20
-71.1214
 11
47.104
 21
-71.2813
  0
LINE
  8
0
 10
47.104
 20
-71.2813
 11
47.3839
 21
-71.4239
  0
LINE
  8
0
 10
47.3839
 20
-71.4239
 11
47.6722
 21
-71.5486
  0
LINE
  8
0
 10
47.6722
 20
-71.5486
 11
47.9677
 21
-71.655
  0
LINE
  8
0
 10
47.9677
 20
-71.655
 11
48.2694
 21
-71.7427
  0
LINE
  8
0
 10
48.2694
 20
-71.7427
 11
48.5759
 21
-71.8112
  0
LINE
  8
0
 10
48.5759
 20
-71.8112
 11
48.8862
 21
-71.8603
  0
LINE
  8
0
 10
48.8862
 20
-71.8603
 11
49.1989
 21
-71.8899
  0
LINE
  8
0
 10
49.1989
 20
-71.8899
 11
49.5128
 21
-71.8997
  0
LINE
  8
0
 10
49.5128
 20
-71.8997
 11
83.5144
 21
-71.8997
  0
LINE
  8
0
 10
83.5144
 20
-71.8997
 11
83.7301
 21
-72.0191
  0
LINE
  8
0
 10
83.7301
 20
-72.0191
 11
84.0139
 21
-72.1537
  0
LINE
  8
0
 10
84.0139
 20
-72.1537
 11
84.3057
 21
-72.2701
  0
LINE
  8
0
 10
84.3057
 20
-72.2701
 11
84.6041
 21
-72.368
  0
LINE
  8
0
 10
84.6041
 20
-72.368
 11
101.045
 21
-77.1948
  0
LINE
  8
0
 10
101.045
 20
-77.1948
 11
112.565
 21
-85.5645
  0
LINE
  8
0
 10
112.565
 20
-85.5645
 11
112.573
 21
-85.6069
  0
LINE
  8
0
 10
112.573
 20
-85.6069
 11
112.574
 21
-85.61
  0
LINE
  8
0
 10
112.574
 20
-85.61
 11
112.647
 21
-85.8956
  0
LINE
  8
0
 10
112.647
 20
-85.8956
 11
112.648
 21
-85.8987
  0
LINE
  8
0
 10
112.648
 20
-85.8987
 11
112.749
 21
-86.2125
  0
LINE
  8
0
 10
112.749
 20
-86.2125
 11
112.75
 21
-86.2154
  0
LINE
  8
0
 10
112.75
 20
-86.2154
 11
112.867
 21
-86.5085
  0
LINE
  8
0
 10
112.867
 20
-86.5085
 11
112.868
 21
-86.5114
  0
LINE
  8
0
 10
112.868
 20
-86.5114
 11
112.997
 21
-86.7865
  0
LINE
  8
0
 10
112.997
 20
-86.7865
 11
112.999
 21
-86.7893
  0
LINE
  8
0
 10
112.999
 20
-86.7893
 11
113.156
 21
-87.0751
  0
LINE
  8
0
 10
113.156
 20
-87.0751
 11
113.158
 21
-87.0778
  0
LINE
  8
0
 10
113.158
 20
-87.0778
 11
113.32
 21
-87.3337
  0
LINE
  8
0
 10
113.32
 20
-87.3337
 11
113.322
 21
-87.3363
  0
LINE
  8
0
 10
113.322
 20
-87.3363
 11
113.513
 21
-87.5991
  0
LINE
  8
0
 10
113.513
 20
-87.5991
 11
113.515
 21
-87.6016
  0
LINE
  8
0
 10
113.515
 20
-87.6016
 11
113.703
 21
-87.8295
  0
LINE
  8
0
 10
113.703
 20
-87.8295
 11
113.705
 21
-87.8319
  0
LINE
  8
0
 10
113.705
 20
-87.8319
 11
113.928
 21
-88.0698
  0
LINE
  8
0
 10
113.928
 20
-88.0698
 11
113.93
 21
-88.072
  0
LINE
  8
0
 10
113.93
 20
-88.072
 11
114.168
 21
-88.2948
  0
LINE
  8
0
 10
114.168
 20
-88.2948
 11
114.17
 21
-88.2969
  0
LINE
  8
0
 10
114.17
 20
-88.2969
 11
114.398
 21
-88.4853
  0
LINE
  8
0
 10
114.398
 20
-88.4853
 11
114.401
 21
-88.4872
  0
LINE
  8
0
 10
114.401
 20
-88.4872
 11
114.664
 21
-88.6782
  0
LINE
  8
0
 10
114.664
 20
-88.6782
 11
114.666
 21
-88.68
  0
LINE
  8
0
 10
114.666
 20
-88.68
 11
114.922
 21
-88.8425
  0
LINE
  8
0
 10
114.922
 20
-88.8425
 11
114.925
 21
-88.8441
  0
LINE
  8
0
 10
114.925
 20
-88.8441
 11
115.211
 21
-89.0012
  0
LINE
  8
0
 10
115.211
 20
-89.0012
 11
115.213
 21
-89.0027
  0
LINE
  8
0
 10
115.213
 20
-89.0027
 11
115.489
 21
-89.1321
  0
LINE
  8
0
 10
115.489
 20
-89.1321
 11
115.492
 21
-89.1334
  0
LINE
  8
0
 10
115.492
 20
-89.1334
 11
115.785
 21
-89.2497
  0
LINE
  8
0
 10
115.785
 20
-89.2497
 11
115.788
 21
-89.2507
  0
LINE
  8
0
 10
115.788
 20
-89.2507
 11
116.101
 21
-89.3524
  0
LINE
  8
0
 10
116.101
 20
-89.3524
 11
116.104
 21
-89.3533
  0
LINE
  8
0
 10
116.104
 20
-89.3533
 11
116.39
 21
-89.4265
  0
LINE
  8
0
 10
116.39
 20
-89.4265
 11
116.393
 21
-89.4272
  0
LINE
  8
0
 10
116.393
 20
-89.4272
 11
116.716
 21
-89.4887
  0
LINE
  8
0
 10
116.716
 20
-89.4887
 11
116.719
 21
-89.4892
  0
LINE
  8
0
 10
116.719
 20
-89.4892
 11
117.008
 21
-89.526
  0
LINE
  8
0
 10
117.008
 20
-89.526
 11
117.011
 21
-89.5263
  0
LINE
  8
0
 10
117.011
 20
-89.5263
 11
117.351
 21
-89.5478
  0
LINE
  8
0
 10
117.351
 20
-89.5478
 11
117.354
 21
-89.5479
  0
LINE
  8
0
 10
117.354
 20
-89.5479
 11
117.646
 21
-89.5479
  0
LINE
  8
0
 10
94.9521
 20
-18.9701
 11
92.9021
 21
-18.5343
  0
LINE
  8
0
 10
92.9021
 20
-18.5343
 11
90.9875
 21
-17.6819
  0
LINE
  8
0
 10
90.9875
 20
-17.6819
 11
89.292
 21
-16.45
  0
LINE
  8
0
 10
89.292
 20
-16.45
 11
87.8896
 21
-14.8925
  0
LINE
  8
0
 10
87.8896
 20
-14.8925
 11
86.8417
 21
-13.0775
  0
LINE
  8
0
 10
86.8417
 20
-13.0775
 11
86.1941
 21
-11.0843
  0
LINE
  8
0
 10
86.1941
 20
-11.0843
 11
85.975
 21
-9
  0
LINE
  8
0
 10
85.975
 20
-9
 11
86.1941
 21
-6.91568
  0
LINE
  8
0
 10
86.1941
 20
-6.91568
 11
86.8417
 21
-4.92245
  0
LINE
  8
0
 10
86.8417
 20
-4.92245
 11
87.8896
 21
-3.10745
  0
LINE
  8
0
 10
87.8896
 20
-3.10745
 11
89.292
 21
-1.54997
  0
LINE
  8
0
 10
89.292
 20
-1.54997
 11
90.9875
 21
-0.318085
  0
LINE
  8
0
 10
90.9875
 20
-0.318085
 11
92.9021
 21
0.534332
  0
LINE
  8
0
 10
92.9021
 20
0.534332
 11
94.9521
 21
0.970078
  0
LINE
  8
0
 10
94.9521
 20
0.970078
 11
97.0479
 21
0.970078
  0
LINE
  8
0
 10
97.0479
 20
0.970078
 11
99.0979
 21
0.534332
  0
LINE
  8
0
 10
99.0979
 20
0.534332
 11
101.012
 21
-0.318085
  0
LINE
  8
0
 10
101.012
 20
-0.318085
 11
102.708
 21
-1.54997
  0
LINE
  8
0
 10
102.708
 20
-1.54997
 11
104.11
 21
-3.10745
  0
LINE
  8
0
 10
104.11
 20
-3.10745
 11
105.158
 21
-4.92245
  0
LINE
  8
0
 10
105.158
 20
-4.92245
 11
105.806
 21
-6.91568
  0
LINE
  8
0
 10
105.806
 20
-6.91568
 11
106.025
 21
-9
  0
LINE
  8
0
 10
106.025
 20
-9
 11
105.806
 21
-11.0843
  0
LINE
  8
0
 10
105.806
 20
-11.0843
 11
105.158
 21
-13.0775
  0
LINE
  8
0
 10
105.158
 20
-13.0775
 11
104.11
 21
-14.8925
  0
LINE
  8
0
 10
104.11
 20
-14.8925
 11
102.708
 21
-16.45
  0
LINE
  8
0
 10
102.708
 20
-16.45
 11
101.012
 21
-17.6819
  0
LINE
  8
0
 10
101.012
 20
-17.6819
 11
99.0979
 21
-18.5343
  0
LINE
  8
0
 10
99.0979
 20
-18.5343
 11
97.0479
 21
-18.9701
  0
LINE
  8
0
 10
97.0479
 20
-18.9701
 11
94.9521
 21
-18.9701
  0
LINE
  8
0
 10
58.9521
 20
-64.9701
 11
56.9021
 21
-64.5343
  0
LINE
  8
0
 10
56.9021
 20
-64.5343
 11
54.9875
 21
-63.6819
  0
LINE
  8
0
 10
54.9875
 20
-63.6819
 11
53.292
 21
-62.45
  0
LINE
  8
0
 10
53.292
 20
-62.45
 11
51.8896
 21
-60.8925
  0
LINE
  8
0
 10
51.8896
 20
-60.8925
 11
50.8417
 21
-59.0775
  0
LINE
  8
0
 10
50.8417
 20
-59.0775
 11
50.1941
 21
-57.0843
  0
LINE
  8
0
 10
50.1941
 20
-57.0843
 11
49.975
 21
-55
  0
LINE
  8
0
 10
49.975
 20
-55
 11
50.1941
 21
-52.9157
  0
LINE
  8
0
 10
50.1941
 20
-52.9157
 11
50.8417
 21
-50.9225
  0
LINE
  8
0
 10
50.8417
 20
-50.9225
 11
51.8896
 21
-49.1075
  0
LINE
  8
0
 10
51.8896
 20
-49.1075
 11
53.292
 21
-47.55
  0
LINE
  8
0
 10
53.292
 20
-47.55
 11
54.9875
 21
-46.3181
  0
LINE
  8
0
 10
54.9875
 20
-46.3181
 11
56.9021
 21
-45.4657
  0
LINE
  8
0
 10
56.9021
 20
-45.4657
 11
58.9521
 21
-45.0299
  0
LINE
  8
0
 10
58.9521
 20
-45.0299
 11
61.0479
 21
-45.0299
  0
LINE
  8
0
 10
61.0479
 20
-45.0299
 11
63.0979
 21
-45.4657
  0
LINE
  8
0
 10
63.0979
 20
-45.4657
 11
65.0125
 21
-46.3181
  0
LINE
  8
0
 10
65.0125
 20
-46.3181
 11
66.708
 21
-47.55
  0
LINE
  8
0
 10
66.708
 20
-47.55
 11
68.1104
 21
-49.1075
  0
LINE
  8
0
 10
68.1104
 20
-49.1075
 11
69.1583
 21
-50.9225
  0
LINE
  8
0
 10
69.1583
 20
-50.9225
 11
69.8059
 21
-52.9157
  0
LINE
  8
0
 10
69.8059
 20
-52.9157
 11
70.025
 21
-55
  0
LINE
  8
0
 10
70.025
 20
-55
 11
69.8059
 21
-57.0843
  0
LINE
  8
0
 10
69.8059
 20
-57.0843
 11
69.1583
 21
-59.0775
  0
LINE
  8
0
 10
69.1583
 20
-59.0775
 11
68.1104
 21
-60.8925
  0
LINE
  8
0
 10
68.1104
 20
-60.8925
 11
66.708
 21
-62.45
  0
LINE
  8
0
 10
66.708
 20
-62.45
 11
65.0125
 21
-63.6819
  0
LINE
  8
0
 10
65.0125
 20
-63.6819
 11
63.0979
 21
-64.5343
  0
LINE
  8
0
 10
63.0979
 20
-64.5343
 11
61.0479
 21
-64.9701
  0
LINE
  8
0
 10
61.0479
 20
-64.9701
 11
58.9521
 21
-64.9701
  0
LINE
  8
0
 10
162.649
 20
-89.5478
 11
162.989
 21
-89.5263
  0
LINE
  8
0
 10
162.989
 20
-89.5263
 11
162.992
 21
-89.526
  0
LINE
  8
0
 10
162.992
 20
-89.526
 11
163.281
 21
-89.4892
  0
LINE
  8
0
 10
163.281
 20
-89.4892
 11
163.284
 21
-89.4887
  0
LINE
  8
0
 10
163.284
 20
-89.4887
 11
163.607
 21
-89.4272
  0
LINE
  8
0
 10
163.607
 20
-89.4272
 11
163.61
 21
-89.4265
  0
LINE
  8
0
 10
163.61
 20
-89.4265
 11
163.896
 21
-89.3533
  0
LINE
  8
0
 10
163.896
 20
-89.3533
 11
163.899
 21
-89.3524
  0
LINE
  8
0
 10
163.899
 20
-89.3524
 11
164.212
 21
-89.2507
  0
LINE
  8
0
 10
164.212
 20
-89.2507
 11
164.215
 21
-89.2497
  0
LINE
  8
0
 10
164.215
 20
-89.2497
 11
164.508
 21
-89.1334
  0
LINE
  8
0
 10
164.508
 20
-89.1334
 11
164.511
 21
-89.1321
  0
LINE
  8
0
 10
164.511
 20
-89.1321
 11
164.787
 21
-89.0027
  0
LINE
  8
0
 10
164.787
 20
-89.0027
 11
164.789
 21
-89.0012
  0
LINE
  8
0
 10
164.789
 20
-89.0012
 11
165.075
 21
-88.8441
  0
LINE
  8
0
 10
165.075
 20
-88.8441
 11
165.078
 21
-88.8425
  0
LINE
  8
0
 10
165.078
 20
-88.8425
 11
165.334
 21
-88.68
  0
LINE
  8
0
 10
165.334
 20
-88.68
 11
165.336
 21
-88.6782
  0
LINE
  8
0
 10
165.336
 20
-88.6782
 11
165.599
 21
-88.4872
  0
LINE
  8
0
 10
165.599
 20
-88.4872
 11
165.602
 21
-88.4853
  0
LINE
  8
0
 10
165.602
 20
-88.4853
 11
165.83
 21
-88.2969
  0
LINE
  8
0
 10
165.83
 20
-88.2969
 11
165.832
 21
-88.2948
  0
LINE
  8
0
 10
165.832
 20
-88.2948
 11
166.07
 21
-88.072
  0
LINE
  8
0
 10
166.07
 20
-88.072
 11
166.072
 21
-88.0698
  0
LINE
  8
0
 10
166.072
 20
-88.0698
 11
166.295
 21
-87.8319
  0
LINE
  8
0
 10
166.295
 20
-87.8319
 11
166.297
 21
-87.8295
  0
LINE
  8
0
 10
166.297
 20
-87.8295
 11
166.485
 21
-87.6016
  0
LINE
  8
0
 10
166.485
 20
-87.6016
 11
166.487
 21
-87.5991
  0
LINE
  8
0
 10
166.487
 20
-87.5991
 11
166.678
 21
-87.3363
  0
LINE
  8
0
 10
166.678
 20
-87.3363
 11
166.68
 21
-87.3337
  0
LINE
  8
0
 10
166.68
 20
-87.3337
 11
166.842
 21
-87.0778
  0
LINE
  8
0
 10
166.842
 20
-87.0778
 11
166.844
 21
-87.0751
  0
LINE
  8
0
 10
166.844
 20
-87.0751
 11
167.001
 21
-86.7893
  0
LINE
  8
0
 10
167.001
 20
-86.7893
 11
167.003
 21
-86.7865
  0
LINE
  8
0
 10
167.003
 20
-86.7865
 11
167.132
 21
-86.5114
  0
LINE
  8
0
 10
167.132
 20
-86.5114
 11
167.133
 21
-86.5085
  0
LINE
  8
0
 10
167.133
 20
-86.5085
 11
167.25
 21
-86.2154
  0
LINE
  8
0
 10
167.25
 20
-86.2154
 11
167.251
 21
-86.2125
  0
LINE
  8
0
 10
167.251
 20
-86.2125
 11
167.352
 21
-85.8987
  0
LINE
  8
0
 10
167.352
 20
-85.8987
 11
167.353
 21
-85.8956
  0
LINE
  8
0
 10
167.353
 20
-85.8956
 11
167.426
 21
-85.61
  0
LINE
  8
0
 10
167.426
 20
-85.61
 11
167.427
 21
-85.6069
  0
LINE
  8
0
 10
167.427
 20
-85.6069
 11
167.435
 21
-85.5645
  0
LINE
  8
0
 10
167.435
 20
-85.5645
 11
178.955
 21
-77.1948
  0
LINE
  8
0
 10
178.955
 20
-77.1948
 11
195.396
 21
-72.368
  0
LINE
  8
0
 10
195.396
 20
-72.368
 11
195.694
 21
-72.2701
  0
LINE
  8
0
 10
195.694
 20
-72.2701
 11
195.986
 21
-72.1537
  0
LINE
  8
0
 10
195.986
 20
-72.1537
 11
196.27
 21
-72.0191
  0
LINE
  8
0
 10
196.27
 20
-72.0191
 11
196.486
 21
-71.8997
  0
LINE
  8
0
 10
196.486
 20
-71.8997
 11
230.487
 21
-71.8997
  0
LINE
  8
0
 10
230.487
 20
-71.8997
 11
230.801
 21
-71.8899
  0
LINE
  8
0
 10
230.801
 20
-71.8899
 11
231.114
 21
-71.8603
  0
LINE
  8
0
 10
231.114
 20
-71.8603
 11
231.424
 21
-71.8112
  0
LINE
  8
0
 10
231.424
 20
-71.8112
 11
231.731
 21
-71.7427
  0
LINE
  8
0
 10
231.731
 20
-71.7427
 11
232.032
 21
-71.655
  0
LINE
  8
0
 10
232.032
 20
-71.655
 11
232.328
 21
-71.5486
  0
LINE
  8
0
 10
232.328
 20
-71.5486
 11
232.616
 21
-71.4239
  0
LINE
  8
0
 10
232.616
 20
-71.4239
 11
232.896
 21
-71.2813
  0
LINE
  8
0
 10
232.896
 20
-71.2813
 11
233.166
 21
-71.1214
  0
LINE
  8
0
 10
233.166
 20
-71.1214
 11
233.426
 21
-70.9448
  0
LINE
  8
0
 10
233.426
 20
-70.9448
 11
233.674
 21
-70.7523
  0
LINE
  8
0
 10
233.674
 20
-70.7523
 11
233.91
 21
-70.5446
  0
LINE
  8
0
 10
233.91
 20
-70.5446
 11
234.132
 21
-70.3225
  0
LINE
  8
0
 10
234.132
 20
-70.3225
 11
234.34
 21
-70.0869
  0
LINE
  8
0
 10
234.34
 20
-70.0869
 11
234.532
 21
-69.8387
  0
LINE
  8
0
 10
234.532
 20
-69.8387
 11
234.709
 21
-69.5789
  0
LINE
  8
0
 10
234.709
 20
-69.5789
 11
234.869
 21
-69.3085
  0
LINE
  8
0
 10
234.869
 20
-69.3085
 11
235.011
 21
-69.0286
  0
LINE
  8
0
 10
235.011
 20
-69.0286
 11
235.136
 21
-68.7404
  0
LINE
  8
0
 10
235.136
 20
-68.7404
 11
235.242
 21
-68.4448
  0
LINE
  8
0
 10
235.242
 20
-68.4448
 11
235.33
 21
-68.1432
  0
LINE
  8
0
 10
235.33
 20
-68.1432
 11
235.399
 21
-67.8367
  0
LINE
  8
0
 10
235.399
 20
-67.8367
 11
235.448
 21
-67.5264
  0
LINE
  8
0
 10
235.448
 20
-67.5264
 11
235.477
 21
-67.2137
  0
LINE
  8
0
 10
235.477
 20
-67.2137
 11
235.487
 21
-66.8997
  0
LINE
  8
0
 10
235.487
 20
-66.8997
 11
235.487
 21
-52.6494
  0
LINE
  8
0
 10
235.487
 20
-52.6494
 11
235.57
 21
-52.572
  0
LINE
  8
0
 10
235.57
 20
-52.572
 11
235.572
 21
-52.5698
  0
LINE
  8
0
 10
235.572
 20
-52.5698
 11
235.637
 21
-52.5
  0
LINE
  8
0
 10
235.637
 20
-52.5
 11
248.432
 21
-52.5
  0
LINE
  8
0
 10
248.432
 20
-52.5
 11
248.577
 21
-52.6448
  0
LINE
  8
0
 10
248.577
 20
-52.6448
 11
248.813
 21
-52.8526
  0
LINE
  8
0
 10
248.813
 20
-52.8526
 11
249.061
 21
-53.0451
  0
LINE
  8
0
 10
249.061
 20
-53.0451
 11
249.321
 21
-53.2216
  0
LINE
  8
0
 10
249.321
 20
-53.2216
 11
249.591
 21
-53.3815
  0
LINE
  8
0
 10
249.591
 20
-53.3815
 11
249.871
 21
-53.5241
  0
LINE
  8
0
 10
249.871
 20
-53.5241
 11
250.159
 21
-53.6489
  0
LINE
  8
0
 10
250.159
 20
-53.6489
 11
250.455
 21
-53.7553
  0
LINE
  8
0
 10
250.455
 20
-53.7553
 11
250.757
 21
-53.8429
  0
LINE
  8
0
 10
250.757
 20
-53.8429
 11
251.063
 21
-53.9114
  0
LINE
  8
0
 10
251.063
 20
-53.9114
 11
251.373
 21
-53.9606
  0
LINE
  8
0
 10
251.373
 20
-53.9606
 11
251.686
 21
-53.9901
  0
LINE
  8
0
 10
251.686
 20
-53.9901
 11
252
 21
-54
  0
LINE
  8
0
 10
252
 20
-54
 11
272
 21
-54
  0
LINE
  8
0
 10
272
 20
-54
 11
272.314
 21
-53.9901
  0
LINE
  8
0
 10
272.314
 20
-53.9901
 11
272.627
 21
-53.9606
  0
LINE
  8
0
 10
272.627
 20
-53.9606
 11
272.937
 21
-53.9114
  0
LINE
  8
0
 10
272.937
 20
-53.9114
 11
273.243
 21
-53.8429
  0
LINE
  8
0
 10
273.243
 20
-53.8429
 11
273.545
 21
-53.7553
  0
LINE
  8
0
 10
273.545
 20
-53.7553
 11
273.841
 21
-53.6489
  0
LINE
  8
0
 10
273.841
 20
-53.6489
 11
274.129
 21
-53.5241
  0
LINE
  8
0
 10
274.129
 20
-53.5241
 11
274.409
 21
-53.3815
  0
LINE
  8
0
 10
274.409
 20
-53.3815
 11
274.679
 21
-53.2216
  0
LINE
  8
0
 10
274.679
 20
-53.2216
 11
274.939
 21
-53.0451
  0
LINE
  8
0
 10
274.939
 20
-53.0451
 11
275.187
 21
-52.8526
  0
LINE
  8
0
 10
275.187
 20
-52.8526
 11
275.423
 21
-52.6448
  0
LINE
  8
0
 10
275.423
 20
-52.6448
 11
275.645
 21
-52.4227
  0
LINE
  8
0
 10
275.645
 20
-52.4227
 11
275.853
 21
-52.1871
  0
LINE
  8
0
 10
275.853
 20
-52.1871
 11
276.045
 21
-51.9389
  0
LINE
  8
0
 10
276.045
 20
-51.9389
 11
276.222
 21
-51.6791
  0
LINE
  8
0
 10
276.222
 20
-51.6791
 11
276.382
 21
-51.4088
  0
LINE
  8
0
 10
276.382
 20
-51.4088
 11
276.524
 21
-51.1289
  0
LINE
  8
0
 10
276.524
 20
-51.1289
 11
276.649
 21
-50.8406
  0
LINE
  8
0
 10
276.649
 20
-50.8406
 11
276.755
 21
-50.5451
  0
LINE
  8
0
 10
276.755
 20
-50.5451
 11
276.843
 21
-50.2435
  0
LINE
  8
0
 10
276.843
 20
-50.2435
 11
276.911
 21
-49.9369
  0
LINE
  8
0
 10
276.911
 20
-49.9369
 11
276.961
 21
-49.6267
  0
LINE
  8
0
 10
276.961
 20
-49.6267
 11
276.99
 21
-49.3139
  0
LINE
  8
0
 10
276.99
 20
-49.3139
 11
277
 21
-49
  0
LINE
  8
0
 10
277
 20
-49
 11
277
 21
-38.0815
  0
LINE
  8
0
 10
277
 20
-38.0815
 11
277.178
 21
-37.8363
  0
LINE
  8
0
 10
277.178
 20
-37.8363
 11
277.18
 21
-37.8337
  0
LINE
  8
0
 10
277.18
 20
-37.8337
 11
277.342
 21
-37.5778
  0
LINE
  8
0
 10
277.342
 20
-37.5778
 11
277.344
 21
-37.5751
  0
LINE
  8
0
 10
277.344
 20
-37.5751
 11
277.501
 21
-37.2893
  0
LINE
  8
0
 10
277.501
 20
-37.2893
 11
277.503
 21
-37.2865
  0
LINE
  8
0
 10
277.503
 20
-37.2865
 11
277.632
 21
-37.0114
  0
LINE
  8
0
 10
277.632
 20
-37.0114
 11
277.633
 21
-37.0085
  0
LINE
  8
0
 10
277.633
 20
-37.0085
 11
277.637
 21
-37
  0
LINE
  8
0
 10
277.637
 20
-37
 11
288
 21
-37
  0
LINE
  8
0
 10
288
 20
-37
 11
288.314
 21
-36.9901
  0
LINE
  8
0
 10
288.314
 20
-36.9901
 11
288.627
 21
-36.9606
  0
LINE
  8
0
 10
288.627
 20
-36.9606
 11
288.937
 21
-36.9114
  0
LINE
  8
0
 10
288.937
 20
-36.9114
 11
289.243
 21
-36.8429
  0
LINE
  8
0
 10
289.243
 20
-36.8429
 11
289.545
 21
-36.7553
  0
LINE
  8
0
 10
289.545
 20
-36.7553
 11
289.841
 21
-36.6489
  0
LINE
  8
0
 10
289.841
 20
-36.6489
 11
290.129
 21
-36.5241
  0
LINE
  8
0
 10
290.129
 20
-36.5241
 11
290.409
 21
-36.3815
  0
LINE
  8
0
 10
290.409
 20
-36.3815
 11
290.679
 21
-36.2216
  0
LINE
  8
0
 10
290.679
 20
-36.2216
 11
290.939
 21
-36.0451
  0
LINE
  8
0
 10
290.939
 20
-36.0451
 11
291.187
 21
-35.8526
  0
LINE
  8
0
 10
291.187
 20
-35.8526
 11
291.423
 21
-35.6448
  0
LINE
  8
0
 10
291.423
 20
-35.6448
 11
291.645
 21
-35.4227
  0
LINE
  8
0
 10
291.645
 20
-35.4227
 11
291.853
 21
-35.1871
  0
LINE
  8
0
 10
291.853
 20
-35.1871
 11
292.045
 21
-34.9389
  0
LINE
  8
0
 10
292.045
 20
-34.9389
 11
292.222
 21
-34.6791
  0
LINE
  8
0
 10
292.222
 20
-34.6791
 11
292.382
 21
-34.4088
  0
LINE
  8
0
 10
292.382
 20
-34.4088
 11
292.524
 21
-34.1289
  0
LINE
  8
0
 10
292.524
 20
-34.1289
 11
292.649
 21
-33.8406
  0
LINE
  8
0
 10
292.649
 20
-33.8406
 11
292.755
 21
-33.5451
  0
LINE
  8
0
 10
292.755
 20
-33.5451
 11
292.843
 21
-33.2435
  0
LINE
  8
0
 10
292.843
 20
-33.2435
 11
292.911
 21
-32.9369
  0
LINE
  8
0
 10
292.911
 20
-32.9369
 11
292.961
 21
-32.6267
  0
LINE
  8
0
 10
292.961
 20
-32.6267
 11
292.99
 21
-32.3139
  0
LINE
  8
0
 10
292.99
 20
-32.3139
 11
293
 21
-32
  0
LINE
  8
0
 10
293
 20
-32
 11
293
 21
0
  0
LINE
  8
0
 10
293
 20
0
 11
292.99
 21
0.31395
  0
LINE
  8
0
 10
292.99
 20
0.31395
 11
292.961
 21
0.626663
  0
LINE
  8
0
 10
292.961
 20
0.626663
 11
292.911
 21
0.936905
  0
LINE
  8
0
 10
292.911
 20
0.936905
 11
292.843
 21
1.24345
  0
LINE
  8
0
 10
292.843
 20
1.24345
 11
292.755
 21
1.54509
  0
LINE
  8
0
 10
292.755
 20
1.54509
 11
292.649
 21
1.84062
  0
LINE
  8
0
 10
292.649
 20
1.84062
 11
292.524
 21
2.12889
  0
LINE
  8
0
 10
292.524
 20
2.12889
 11
292.382
 21
2.40877
  0
LINE
  8
0
 10
292.382
 20
2.40877
 11
292.222
 21
2.67914
  0
LINE
  8
0
 10
292.222
 20
2.67914
 11
292.045
 21
2.93892
  0
LINE
  8
0
 10
292.045
 20
2.93892
 11
291.853
 21
3.18712
  0
LINE
  8
0
 10
291.853
 20
3.18712
 11
291.645
 21
3.42273
  0
LINE
  8
0
 10
291.645
 20
3.42273
 11
291.423
 21
3.64484
  0
LINE
  8
0
 10
291.423
 20
3.64484
 11
291.187
 21
3.85257
  0
LINE
  8
0
 10
291.187
 20
3.85257
 11
290.939
 21
4.04509
  0
LINE
  8
0
 10
290.939
 20
4.04509
 11
290.679
 21
4.22163
  0
LINE
  8
0
 10
290.679
 20
4.22163
 11
290.409
 21
4.38153
  0
LINE
  8
0
 10
290.409
 20
4.38153
 11
290.129
 21
4.52414
  0
LINE
  8
0
 10
290.129
 20
4.52414
 11
289.841
 21
4.64888
  0
LINE
  8
0
 10
289.841
 20
4.64888
 11
289.545
 21
4.75528
  0
LINE
  8
0
 10
289.545
 20
4.75528
 11
289.243
 21
4.84291
  0
LINE
  8
0
 10
289.243
 20
4.84291
 11
288.937
 21
4.91144
  0
LINE
  8
0
 10
288.937
 20
4.91144
 11
288.627
 21
4.96057
  0
LINE
  8
0
 10
288.627
 20
4.96057
 11
288.314
 21
4.99013
  0
LINE
  8
0
 10
288.314
 20
4.99013
 11
288
 21
5
  0
LINE
  8
0
 10
288
 20
5
 11
277.637
 21
5
  0
LINE
  8
0
 10
277.637
 20
5
 11
277.633
 21
5.00848
  0
LINE
  8
0
 10
277.633
 20
5.00848
 11
277.632
 21
5.01137
  0
LINE
  8
0
 10
277.632
 20
5.01137
 11
277.503
 21
5.28653
  0
LINE
  8
0
 10
277.503
 20
5.28653
 11
277.501
 21
5.28932
  0
LINE
  8
0
 10
277.501
 20
5.28932
 11
277.344
 21
5.57509
  0
LINE
  8
0
 10
277.344
 20
5.57509
 11
277.342
 21
5.57779
  0
LINE
  8
0
 10
277.342
 20
5.57779
 11
277.18
 21
5.83369
  0
LINE
  8
0
 10
277.18
 20
5.83369
 11
277.178
 21
5.8363
  0
LINE
  8
0
 10
277.178
 20
5.8363
 11
276.987
 21
6.09909
  0
LINE
  8
0
 10
276.987
 20
6.09909
 11
276.985
 21
6.10156
  0
LINE
  8
0
 10
276.985
 20
6.10156
 11
276.829
 21
6.29034
  0
LINE
  8
0
 10
276.829
 20
6.29034
 11
276.755
 21
6.54509
  0
LINE
  8
0
 10
276.755
 20
6.54509
 11
276.649
 21
6.84062
  0
LINE
  8
0
 10
276.649
 20
6.84062
 11
276.524
 21
7.12889
  0
LINE
  8
0
 10
276.524
 20
7.12889
 11
276.382
 21
7.40877
  0
LINE
  8
0
 10
276.382
 20
7.40877
 11
276.222
 21
7.67914
  0
LINE
  8
0
 10
276.222
 20
7.67914
 11
276.045
 21
7.93892
  0
LINE
  8
0
 10
276.045
 20
7.93892
 11
275.853
 21
8.18712
  0
LINE
  8
0
 10
275.853
 20
8.18712
 11
275.645
 21
8.42273
  0
LINE
  8
0
 10
275.645
 20
8.42273
 11
275.423
 21
8.64484
  0
LINE
  8
0
 10
275.423
 20
8.64484
 11
275.187
 21
8.85257
  0
LINE
  8
0
 10
275.187
 20
8.85257
 11
274.939
 21
9.04509
  0
LINE
  8
0
 10
274.939
 20
9.04509
 11
274.679
 21
9.22163
  0
LINE
  8
0
 10
274.679
 20
9.22163
 11
274.409
 21
9.38153
  0
LINE
  8
0
 10
274.409
 20
9.38153
 11
274.129
 21
9.52414
  0
LINE
  8
0
 10
274.129
 20
9.52414
 11
273.841
 21
9.64888
  0
LINE
  8
0
 10
273.841
 20
9.64888
 11
273.545
 21
9.75528
  0
LINE
  8
0
 10
273.545
 20
9.75528
 11
273.243
 21
9.84291
  0
LINE
  8
0
 10
273.243
 20
9.84291
 11
272.937
 21
9.91144
  0
LINE
  8
0
 10
272.937
 20
9.91144
 11
272.627
 21
9.96057
  0
LINE
  8
0
 10
272.627
 20
9.96057
 11
272.314
 21
9.99013
  0
LINE
  8
0
 10
272.314
 20
9.99013
 11
272
 21
10
  0
LINE
  8
0
 10
272
 20
10
 11
255.568
 21
10
  0
LINE
  8
0
 10
255.568
 20
10
 11
255.423
 21
10.1448
  0
LINE
  8
0
 10
255.423
 20
10.1448
 11
255.187
 21
10.3526
  0
LINE
  8
0
 10
255.187
 20
10.3526
 11
254.939
 21
10.5451
  0
LINE
  8
0
 10
254.939
 20
10.5451
 11
254.679
 21
10.7216
  0
LINE
  8
0
 10
254.679
 20
10.7216
 11
254.409
 21
10.8815
  0
LINE
  8
0
 10
254.409
 20
10.8815
 11
254.129
 21
11.0241
  0
LINE
  8
0
 10
254.129
 20
11.0241
 11
253.841
 21
11.1489
  0
LINE
  8
0
 10
253.841
 20
11.1489
 11
253.545
 21
11.2553
  0
LINE
  8
0
 10
253.545
 20
11.2553
 11
253.243
 21
11.3429
  0
LINE
  8
0
 10
253.243
 20
11.3429
 11
252.937
 21
11.4114
  0
LINE
  8
0
 10
252.937
 20
11.4114
 11
252.627
 21
11.4606
  0
LINE
  8
0
 10
252.627
 20
11.4606
 11
252.314
 21
11.4901
  0
LINE
  8
0
 10
252.314
 20
11.4901
 11
252
 21
11.5
  0
LINE
  8
0
 10
252
 20
11.5
 11
236.537
 21
11.5
  0
LINE
  8
0
 10
236.537
 20
11.5
 11
236.46
 21
11.5819
  0
LINE
  8
0
 10
236.46
 20
11.5819
 11
236.458
 21
11.5841
  0
LINE
  8
0
 10
236.458
 20
11.5841
 11
236.244
 21
11.7842
  0
LINE
  8
0
 10
236.244
 20
11.7842
 11
236.242
 21
11.7863
  0
LINE
  8
0
 10
236.242
 20
11.7863
 11
236.024
 21
11.9662
  0
LINE
  8
0
 10
236.024
 20
11.9662
 11
235.853
 21
12.1871
  0
LINE
  8
0
 10
235.853
 20
12.1871
 11
235.645
 21
12.4227
  0
LINE
  8
0
 10
235.645
 20
12.4227
 11
235.423
 21
12.6448
  0
LINE
  8
0
 10
235.423
 20
12.6448
 11
235.187
 21
12.8526
  0
LINE
  8
0
 10
235.187
 20
12.8526
 11
234.939
 21
13.0451
  0
LINE
  8
0
 10
234.939
 20
13.0451
 11
234.679
 21
13.2216
  0
LINE
  8
0
 10
234.679
 20
13.2216
 11
234.409
 21
13.3815
  0
LINE
  8
0
 10
234.409
 20
13.3815
 11
234.129
 21
13.5241
  0
LINE
  8
0
 10
234.129
 20
13.5241
 11
233.841
 21
13.6489
  0
LINE
  8
0
 10
233.841
 20
13.6489
 11
233.545
 21
13.7553
  0
LINE
  8
0
 10
233.545
 20
13.7553
 11
233.243
 21
13.8429
  0
LINE
  8
0
 10
233.243
 20
13.8429
 11
232.937
 21
13.9114
  0
LINE
  8
0
 10
232.937
 20
13.9114
 11
232.627
 21
13.9606
  0
LINE
  8
0
 10
232.627
 20
13.9606
 11
232.314
 21
13.9901
  0
LINE
  8
0
 10
232.314
 20
13.9901
 11
232
 21
14
  0
LINE
  8
0
 10
232
 20
14
 11
212
 21
14
  0
LINE
  8
0
 10
212
 20
14
 11
211.686
 21
13.9901
  0
LINE
  8
0
 10
211.686
 20
13.9901
 11
211.373
 21
13.9606
  0
LINE
  8
0
 10
211.373
 20
13.9606
 11
211.063
 21
13.9114
  0
LINE
  8
0
 10
211.063
 20
13.9114
 11
210.757
 21
13.8429
  0
LINE
  8
0
 10
210.757
 20
13.8429
 11
210.455
 21
13.7553
  0
LINE
  8
0
 10
210.455
 20
13.7553
 11
210.159
 21
13.6489
  0
LINE
  8
0
 10
210.159
 20
13.6489
 11
209.871
 21
13.5241
  0
LINE
  8
0
 10
209.871
 20
13.5241
 11
209.591
 21
13.3815
  0
LINE
  8
0
 10
209.591
 20
13.3815
 11
209.321
 21
13.2216
  0
LINE
  8
0
 10
209.321
 20
13.2216
 11
209.061
 21
13.0451
  0
LINE
  8
0
 10
209.061
 20
13.0451
 11
208.813
 21
12.8526
  0
LINE
  8
0
 10
208.813
 20
12.8526
 11
208.577
 21
12.6448
  0
LINE
  8
0
 10
208.577
 20
12.6448
 11
208.355
 21
12.4227
  0
LINE
  8
0
 10
208.355
 20
12.4227
 11
208.147
 21
12.1871
  0
LINE
  8
0
 10
208.147
 20
12.1871
 11
207.955
 21
11.9389
  0
LINE
  8
0
 10
207.955
 20
11.9389
 11
207.778
 21
11.6791
  0
LINE
  8
0
 10
207.778
 20
11.6791
 11
207.672
 21
11.5
  0
LINE
  8
0
 10
207.672
 20
11.5
 11
198.137
 21
11.5
  0
LINE
  8
0
 10
198.137
 20
11.5
 11
198.072
 21
11.5698
  0
LINE
  8
0
 10
198.072
 20
11.5698
 11
198.07
 21
11.572
  0
LINE
  8
0
 10
198.07
 20
11.572
 11
197.832
 21
11.7948
  0
LINE
  8
0
 10
197.832
 20
11.7948
 11
197.83
 21
11.7969
  0
LINE
  8
0
 10
197.83
 20
11.7969
 11
197.602
 21
11.9853
  0
LINE
  8
0
 10
197.602
 20
11.9853
 11
197.599
 21
11.9872
  0
LINE
  8
0
 10
197.599
 20
11.9872
 11
197.336
 21
12.1782
  0
LINE
  8
0
 10
197.336
 20
12.1782
 11
197.334
 21
12.18
  0
LINE
  8
0
 10
197.334
 20
12.18
 11
197.078
 21
12.3425
  0
LINE
  8
0
 10
197.078
 20
12.3425
 11
197.075
 21
12.3441
  0
LINE
  8
0
 10
197.075
 20
12.3441
 11
196.789
 21
12.5012
  0
LINE
  8
0
 10
196.789
 20
12.5012
 11
196.787
 21
12.5027
  0
LINE
  8
0
 10
196.787
 20
12.5027
 11
196.511
 21
12.6321
  0
LINE
  8
0
 10
196.511
 20
12.6321
 11
196.508
 21
12.6334
  0
LINE
  8
0
 10
196.508
 20
12.6334
 11
196.215
 21
12.7497
  0
LINE
  8
0
 10
196.215
 20
12.7497
 11
196.212
 21
12.7507
  0
LINE
  8
0
 10
196.212
 20
12.7507
 11
195.899
 21
12.8524
  0
LINE
  8
0
 10
195.899
 20
12.8524
 11
195.896
 21
12.8533
  0
LINE
  8
0
 10
195.896
 20
12.8533
 11
195.61
 21
12.9265
  0
LINE
  8
0
 10
195.61
 20
12.9265
 11
195.607
 21
12.9272
  0
LINE
  8
0
 10
195.607
 20
12.9272
 11
195.284
 21
12.9887
  0
LINE
  8
0
 10
195.284
 20
12.9887
 11
195.281
 21
12.9892
  0
LINE
  8
0
 10
195.281
 20
12.9892
 11
194.992
 21
13.026
  0
LINE
  8
0
 10
194.992
 20
13.026
 11
194.989
 21
13.0263
  0
LINE
  8
0
 10
194.989
 20
13.0263
 11
194.649
 21
13.0478
  0
LINE
  8
0
 10
194.649
 20
13.0478
 11
194.646
 21
13.0479
  0
LINE
  8
0
 10
194.646
 20
13.0479
 11
194.354
 21
13.0479
  0
LINE
  8
0
 10
194.354
 20
13.0479
 11
194.351
 21
13.0478
  0
LINE
  8
0
 10
194.351
 20
13.0478
 11
194.011
 21
13.0263
  0
LINE
  8
0
 10
194.011
 20
13.0263
 11
194.008
 21
13.026
  0
LINE
  8
0
 10
194.008
 20
13.026
 11
193.719
 21
12.9892
  0
LINE
  8
0
 10
193.719
 20
12.9892
 11
193.716
 21
12.9887
  0
LINE
  8
0
 10
193.716
 20
12.9887
 11
193.393
 21
12.9272
  0
LINE
  8
0
 10
193.393
 20
12.9272
 11
193.39
 21
12.9265
  0
LINE
  8
0
 10
193.39
 20
12.9265
 11
193.104
 21
12.8533
  0
LINE
  8
0
 10
193.104
 20
12.8533
 11
193.101
 21
12.8524
  0
LINE
  8
0
 10
193.101
 20
12.8524
 11
192.788
 21
12.7507
  0
LINE
  8
0
 10
192.788
 20
12.7507
 11
192.785
 21
12.7497
  0
LINE
  8
0
 10
192.785
 20
12.7497
 11
192.492
 21
12.6334
  0
LINE
  8
0
 10
192.492
 20
12.6334
 11
192.489
 21
12.6321
  0
LINE
  8
0
 10
192.489
 20
12.6321
 11
192.213
 21
12.5027
  0
LINE
  8
0
 10
192.213
 20
12.5027
 11
192.211
 21
12.5012
  0
LINE
  8
0
 10
192.211
 20
12.5012
 11
191.925
 21
12.3441
  0
LINE
  8
0
 10
191.925
 20
12.3441
 11
191.922
 21
12.3425
  0
LINE
  8
0
 10
191.922
 20
12.3425
 11
191.666
 21
12.18
  0
LINE
  8
0
 10
191.666
 20
12.18
 11
191.664
 21
12.1782
  0
LINE
  8
0
 10
191.664
 20
12.1782
 11
191.401
 21
11.9872
  0
LINE
  8
0
 10
191.401
 20
11.9872
 11
191.398
 21
11.9853
  0
LINE
  8
0
 10
191.398
 20
11.9853
 11
191.17
 21
11.7969
  0
LINE
  8
0
 10
191.17
 20
11.7969
 11
191.168
 21
11.7948
  0
LINE
  8
0
 10
191.168
 20
11.7948
 11
190.93
 21
11.572
  0
LINE
  8
0
 10
190.93
 20
11.572
 11
190.928
 21
11.5698
  0
LINE
  8
0
 10
190.928
 20
11.5698
 11
190.705
 21
11.3319
  0
LINE
  8
0
 10
190.705
 20
11.3319
 11
190.703
 21
11.3295
  0
LINE
  8
0
 10
190.703
 20
11.3295
 11
190.515
 21
11.1016
  0
LINE
  8
0
 10
190.515
 20
11.1016
 11
190.513
 21
11.0991
  0
LINE
  8
0
 10
190.513
 20
11.0991
 11
190.322
 21
10.8363
  0
LINE
  8
0
 10
190.322
 20
10.8363
 11
190.32
 21
10.8337
  0
LINE
  8
0
 10
190.32
 20
10.8337
 11
190.158
 21
10.5778
  0
LINE
  8
0
 10
190.158
 20
10.5778
 11
190.156
 21
10.5751
  0
LINE
  8
0
 10
190.156
 20
10.5751
 11
189.999
 21
10.2893
  0
LINE
  8
0
 10
189.999
 20
10.2893
 11
189.997
 21
10.2865
  0
LINE
  8
0
 10
189.997
 20
10.2865
 11
189.868
 21
10.0114
  0
LINE
  8
0
 10
189.868
 20
10.0114
 11
189.867
 21
10.0085
  0
LINE
  8
0
 10
189.867
 20
10.0085
 11
189.863
 21
10
  0
LINE
  8
0
 10
189.863
 20
10
 11
179
 21
10
  0
LINE
  8
0
 10
179
 20
10
 11
178.686
 21
9.99013
  0
LINE
  8
0
 10
178.686
 20
9.99013
 11
178.373
 21
9.96057
  0
LINE
  8
0
 10
178.373
 20
9.96057
 11
178.063
 21
9.91144
  0
LINE
  8
0
 10
178.063
 20
9.91144
 11
177.757
 21
9.84291
  0
LINE
  8
0
 10
177.757
 20
9.84291
 11
177.455
 21
9.75528
  0
LINE
  8
0
 10
177.455
 20
9.75528
 11
177.159
 21
9.64888
  0
LINE
  8
0
 10
177.159
 20
9.64888
 11
176.871
 21
9.52414
  0
LINE
  8
0
 10
176.871
 20
9.52414
 11
176.591
 21
9.38153
  0
LINE
  8
0
 10
176.591
 20
9.38153
 11
176.321
 21
9.22163
  0
LINE
  8
0
 10
176.321
 20
9.22163
 11
176.061
 21
9.04509
  0
LINE
  8
0
 10
176.061
 20
9.04509
 11
175.813
 21
8.85257
  0
LINE
  8
0
 10
175.813
 20
8.85257
 11
175.577
 21
8.64484
  0
LINE
  8
0
 10
175.577
 20
8.64484
 11
175.355
 21
8.42273
  0
LINE
  8
0
 10
175.355
 20
8.42273
 11
175.147
 21
8.18712
  0
LINE
  8
0
 10
175.147
 20
8.18712
 11
174.955
 21
7.93892
  0
LINE
  8
0
 10
174.955
 20
7.93892
 11
174.778
 21
7.67914
  0
LINE
  8
0
 10
174.778
 20
7.67914
 11
174.618
 21
7.40877
  0
LINE
  8
0
 10
174.618
 20
7.40877
 11
174.476
 21
7.12889
  0
LINE
  8
0
 10
174.476
 20
7.12889
 11
174.351
 21
6.84062
  0
LINE
  8
0
 10
174.351
 20
6.84062
 11
174.245
 21
6.54509
  0
LINE
  8
0
 10
174.245
 20
6.54509
 11
174.157
 21
6.24345
  0
LINE
  8
0
 10
174.157
 20
6.24345
 11
174.089
 21
5.9369
  0
LINE
  8
0
 10
174.089
 20
5.9369
 11
174.088
 21
5.93213
  0
LINE
  8
0
 10
174.088
 20
5.93213
 11
174.001
 21
5.77849
  0
LINE
  8
0
 10
174.001
 20
5.77849
 11
173.865
 21
5.49568
  0
LINE
  8
0
 10
173.865
 20
5.49568
 11
173.746
 21
5.20486
  0
LINE
  8
0
 10
173.746
 20
5.20486
 11
172.042
 21
0.622528
  0
LINE
  8
0
 10
172.042
 20
0.622528
 11
174.674
 21
-0.356567
  0
LINE
  8
0
 10
174.674
 20
-0.356567
 11
171.537
 21
-8.79211
  0
LINE
  8
0
 10
171.537
 20
-8.79211
 11
168.905
 21
-7.81302
  0
LINE
  8
0
 10
168.905
 20
-7.81302
 11
163.17
 21
-23.2326
  0
LINE
  8
0
 10
163.17
 20
-23.2326
 11
163.171
 21
-23.2329
  0
LINE
  8
0
 10
163.171
 20
-23.2329
 11
163.165
 21
-23.2474
  0
LINE
  8
0
 10
163.165
 20
-23.2474
 11
163.165
 21
-23.2472
  0
LINE
  8
0
 10
163.165
 20
-23.2472
 11
163.157
 21
-23.2682
  0
LINE
  8
0
 10
163.157
 20
-23.2682
 11
163.15
 21
-23.2845
  0
LINE
  8
0
 10
163.15
 20
-23.2845
 11
163.149
 21
-23.2875
  0
LINE
  8
0
 10
163.149
 20
-23.2875
 11
163.147
 21
-23.2953
  0
LINE
  8
0
 10
163.147
 20
-23.2953
 11
157.402
 21
-38.7433
  0
LINE
  8
0
 10
157.402
 20
-38.7433
 11
160.034
 21
-39.7224
  0
LINE
  8
0
 10
160.034
 20
-39.7224
 11
156.897
 21
-48.158
  0
LINE
  8
0
 10
156.897
 20
-48.158
 11
154.264
 21
-47.1789
  0
LINE
  8
0
 10
154.264
 20
-47.1789
 11
147.254
 21
-66.0285
  0
LINE
  8
0
 10
147.254
 20
-66.0285
 11
147.155
 21
-66.3226
  0
LINE
  8
0
 10
147.155
 20
-66.3226
 11
147.05
 21
-66.53
  0
LINE
  8
0
 10
147.05
 20
-66.53
 11
146.925
 21
-66.8183
  0
LINE
  8
0
 10
146.925
 20
-66.8183
 11
146.819
 21
-67.1138
  0
LINE
  8
0
 10
146.819
 20
-67.1138
 11
146.731
 21
-67.4154
  0
LINE
  8
0
 10
146.731
 20
-67.4154
 11
146.662
 21
-67.722
  0
LINE
  8
0
 10
146.662
 20
-67.722
 11
146.613
 21
-68.0322
  0
LINE
  8
0
 10
146.613
 20
-68.0322
 11
146.584
 21
-68.3449
  0
LINE
  8
0
 10
146.584
 20
-68.3449
 11
146.574
 21
-68.6589
  0
LINE
  8
0
 10
146.574
 20
-68.6589
 11
146.584
 21
-68.9728
  0
LINE
  8
0
 10
146.584
 20
-68.9728
 11
146.613
 21
-69.2855
  0
LINE
  8
0
 10
146.613
 20
-69.2855
 11
146.662
 21
-69.5958
  0
LINE
  8
0
 10
146.662
 20
-69.5958
 11
146.731
 21
-69.9023
  0
LINE
  8
0
 10
146.731
 20
-69.9023
 11
146.819
 21
-70.204
  0
LINE
  8
0
 10
146.819
 20
-70.204
 11
146.925
 21
-70.4995
  0
LINE
  8
0
 10
146.925
 20
-70.4995
 11
147.05
 21
-70.7878
  0
LINE
  8
0
 10
147.05
 20
-70.7878
 11
147.192
 21
-71.0676
  0
LINE
  8
0
 10
147.192
 20
-71.0676
 11
147.352
 21
-71.338
  0
LINE
  8
0
 10
147.352
 20
-71.338
 11
147.529
 21
-71.5978
  0
LINE
  8
0
 10
147.529
 20
-71.5978
 11
157.525
 21
-85.3565
  0
LINE
  8
0
 10
157.525
 20
-85.3565
 11
157.573
 21
-85.6069
  0
LINE
  8
0
 10
157.573
 20
-85.6069
 11
157.574
 21
-85.61
  0
LINE
  8
0
 10
157.574
 20
-85.61
 11
157.647
 21
-85.8956
  0
LINE
  8
0
 10
157.647
 20
-85.8956
 11
157.648
 21
-85.8987
  0
LINE
  8
0
 10
157.648
 20
-85.8987
 11
157.749
 21
-86.2125
  0
LINE
  8
0
 10
157.749
 20
-86.2125
 11
157.75
 21
-86.2154
  0
LINE
  8
0
 10
157.75
 20
-86.2154
 11
157.867
 21
-86.5085
  0
LINE
  8
0
 10
157.867
 20
-86.5085
 11
157.868
 21
-86.5114
  0
LINE
  8
0
 10
157.868
 20
-86.5114
 11
157.997
 21
-86.7865
  0
LINE
  8
0
 10
157.997
 20
-86.7865
 11
157.999
 21
-86.7893
  0
LINE
  8
0
 10
157.999
 20
-86.7893
 11
158.156
 21
-87.0751
  0
LINE
  8
0
 10
158.156
 20
-87.0751
 11
158.158
 21
-87.0778
  0
LINE
  8
0
 10
158.158
 20
-87.0778
 11
158.32
 21
-87.3337
  0
LINE
  8
0
 10
158.32
 20
-87.3337
 11
158.322
 21
-87.3363
  0
LINE
  8
0
 10
158.322
 20
-87.3363
 11
158.513
 21
-87.5991
  0
LINE
  8
0
 10
158.513
 20
-87.5991
 11
158.515
 21
-87.6016
  0
LINE
  8
0
 10
158.515
 20
-87.6016
 11
158.703
 21
-87.8295
  0
LINE
  8
0
 10
158.703
 20
-87.8295
 11
158.705
 21
-87.8319
  0
LINE
  8
0
 10
158.705
 20
-87.8319
 11
158.928
 21
-88.0698
  0
LINE
  8
0
 10
158.928
 20
-88.0698
 11
158.93
 21
-88.072
  0
LINE
  8
0
 10
158.93
 20
-88.072
 11
159.168
 21
-88.2948
  0
LINE
  8
0
 10
159.168
 20
-88.2948
 11
159.17
 21
-88.2969
  0
LINE
  8
0
 10
159.17
 20
-88.2969
 11
159.398
 21
-88.4853
  0
LINE
  8
0
 10
159.398
 20
-88.4853
 11
159.401
 21
-88.4872
  0
LINE
  8
0
 10
159.401
 20
-88.4872
 11
159.664
 21
-88.6782
  0
LINE
  8
0
 10
159.664
 20
-88.6782
 11
159.666
 21
-88.68
  0
LINE
  8
0
 10
159.666
 20
-88.68
 11
159.922
 21
-88.8425
  0
LINE
  8
0
 10
159.922
 20
-88.8425
 11
159.925
 21
-88.8441
  0
LINE
  8
0
 10
159.925
 20
-88.8441
 11
160.211
 21
-89.0012
  0
LINE
  8
0
 10
160.211
 20
-89.0012
 11
160.213
 21
-89.0027
  0
LINE
  8
0
 10
160.213
 20
-89.0027
 11
160.489
 21
-89.1321
  0
LINE
  8
0
 10
160.489
 20
-89.1321
 11
160.492
 21
-89.1334
  0
LINE
  8
0
 10
160.492
 20
-89.1334
 11
160.785
 21
-89.2497
  0
LINE
  8
0
 10
160.785
 20
-89.2497
 11
160.788
 21
-89.2507
  0
LINE
  8
0
 10
160.788
 20
-89.2507
 11
161.101
 21
-89.3524
  0
LINE
  8
0
 10
161.101
 20
-89.3524
 11
161.104
 21
-89.3533
  0
LINE
  8
0
 10
161.104
 20
-89.3533
 11
161.39
 21
-89.4265
  0
LINE
  8
0
 10
161.39
 20
-89.4265
 11
161.393
 21
-89.4272
  0
LINE
  8
0
 10
161.393
 20
-89.4272
 11
161.716
 21
-89.4887
  0
LINE
  8
0
 10
161.716
 20
-89.4887
 11
161.719
 21
-89.4892
  0
LINE
  8
0
 10
161.719
 20
-89.4892
 11
162.008
 21
-89.526
  0
LINE
  8
0
 10
162.008
 20
-89.526
 11
162.011
 21
-89.5263
  0
LINE
  8
0
 10
162.011
 20
-89.5263
 11
162.351
 21
-89.5478
  0
LINE
  8
0
 10
162.351
 20
-89.5478
 11
162.354
 21
-89.5479
  0
LINE
  8
0
 10
162.354
 20
-89.5479
 11
162.646
 21
-89.5479
  0
LINE
  8
0
 10
162.646
 20
-89.5479
 11
162.649
 21
-89.5478
  0
LINE
  8
0
 10
182.952
 20
-18.9701
 11
180.902
 21
-18.5343
  0
LINE
  8
0
 10
180.902
 20
-18.5343
 11
178.988
 21
-17.6819
  0
LINE
  8
0
 10
178.988
 20
-17.6819
 11
177.292
 21
-16.45
  0
LINE
  8
0
 10
177.292
 20
-16.45
 11
175.89
 21
-14.8925
  0
LINE
  8
0
 10
175.89
 20
-14.8925
 11
174.842
 21
-13.0775
  0
LINE
  8
0
 10
174.842
 20
-13.0775
 11
174.194
 21
-11.0843
  0
LINE
  8
0
 10
174.194
 20
-11.0843
 11
173.975
 21
-9
  0
LINE
  8
0
 10
173.975
 20
-9
 11
174.194
 21
-6.91568
  0
LINE
  8
0
 10
174.194
 20
-6.91568
 11
174.842
 21
-4.92245
  0
LINE
  8
0
 10
174.842
 20
-4.92245
 11
175.89
 21
-3.10745
  0
LINE
  8
0
 10
175.89
 20
-3.10745
 11
177.292
 21
-1.54997
  0
LINE
  8
0
 10
177.292
 20
-1.54997
 11
178.988
 21
-0.318085
  0
LINE
  8
0
 10
178.988
 20
-0.318085
 11
180.902
 21
0.534332
  0
LINE
  8
0
 10
180.902
 20
0.534332
 11
182.952
 21
0.970078
  0
LINE
  8
0
 10
182.952
 20
0.970078
 11
185.048
 21
0.970078
  0
LINE
  8
0
 10
185.048
 20
0.970078
 11
187.098
 21
0.534332
  0
LINE
  8
0
 10
187.098
 20
0.534332
 11
189.013
 21
-0.318085
  0
LINE
  8
0
 10
189.013
 20
-0.318085
 11
190.708
 21
-1.54997
  0
LINE
  8
0
 10
190.708
 20
-1.54997
 11
192.11
 21
-3.10745
  0
LINE
  8
0
 10
192.11
 20
-3.10745
 11
193.158
 21
-4.92245
  0
LINE
  8
0
 10
193.158
 20
-4.92245
 11
193.806
 21
-6.91568
  0
LINE
  8
0
 10
193.806
 20
-6.91568
 11
194.025
 21
-9
  0
LINE
  8
0
 10
194.025
 20
-9
 11
193.806
 21
-11.0843
  0
LINE
  8
0
 10
193.806
 20
-11.0843
 11
193.158
 21
-13.0775
  0
LINE
  8
0
 10
193.158
 20
-13.0775
 11
192.11
 21
-14.8925
  0
LINE
  8
0
 10
192.11
 20
-14.8925
 11
190.708
 21
-16.45
  0
LINE
  8
0
 10
190.708
 20
-16.45
 11
189.013
 21
-17.6819
  0
LINE
  8
0
 10
189.013
 20
-17.6819
 11
187.098
 21
-18.5343
  0
LINE
  8
0
 10
187.098
 20
-18.5343
 11
185.048
 21
-18.9701
  0
LINE
  8
0
 10
185.048
 20
-18.9701
 11
182.952
 21
-18.9701
  0
LINE
  8
0
 10
218.952
 20
-64.9701
 11
216.902
 21
-64.5343
  0
LINE
  8
0
 10
216.902
 20
-64.5343
 11
214.988
 21
-63.6819
  0
LINE
  8
0
 10
214.988
 20
-63.6819
 11
213.292
 21
-62.45
  0
LINE
  8
0
 10
213.292
 20
-62.45
 11
211.89
 21
-60.8925
  0
LINE
  8
0
 10
211.89
 20
-60.8925
 11
210.842
 21
-59.0775
  0
LINE
  8
0
 10
210.842
 20
-59.0775
 11
210.194
 21
-57.0843
  0
LINE
  8
0
 10
210.194
 20
-57.0843
 11
209.975
 21
-55
  0
LINE
  8
0
 10
209.975
 20
-55
 11
210.194
 21
-52.9157
  0
LINE
  8
0
 10
210.194
 20
-52.9157
 11
210.842
 21
-50.9225
  0
LINE
  8
0
 10
210.842
 20
-50.9225
 11
211.89
 21
-49.1075
  0
LINE
  8
0
 10
211.89
 20
-49.1075
 11
213.292
 21
-47.55
  0
LINE
  8
0
 10
213.292
 20
-47.55
 11
214.988
 21
-46.3181
  0
LINE
  8
0
 10
214.988
 20
-46.3181
 11
216.902
 21
-45.4657
  0
LINE
  8
0
 10
216.902
 20
-45.4657
 11
218.952
 21
-45.0299
  0
LINE
  8
0
 10
218.952
 20
-45.0299
 11
221.048
 21
-45.0299
  0
LINE
  8
0
 10
221.048
 20
-45.0299
 11
223.098
 21
-45.4657
  0
LINE
  8
0
 10
223.098
 20
-45.4657
 11
225.013
 21
-46.3181
  0
LINE
  8
0
 10
225.013
 20
-46.3181
 11
226.708
 21
-47.55
  0
LINE
  8
0
 10
226.708
 20
-47.55
 11
228.11
 21
-49.1075
  0
LINE
  8
0
 10
228.11
 20
-49.1075
 11
229.158
 21
-50.9225
  0
LINE
  8
0
 10
229.158
 20
-50.9225
 11
229.806
 21
-52.9157
  0
LINE
  8
0
 10
229.806
 20
-52.9157
 11
230.025
 21
-55
  0
LINE
  8
0
 10
230.025
 20
-55
 11
229.806
 21
-57.0843
  0
LINE
  8
0
 10
229.806
 20
-57.0843
 11
229.158
 21
-59.0775
  0
LINE
  8
0
 10
229.158
 20
-59.0775
 11
228.11
 21
-60.8925
  0
LINE
  8
0
 10
228.11
 20
-60.8925
 11
226.708
 21
-62.45
  0
LINE
  8
0
 10
226.708
 20
-62.45
 11
225.013
 21
-63.6819
  0
LINE
  8
0
 10
225.013
 20
-63.6819
 11
223.098
 21
-64.5343
  0
LINE
  8
0
 10
223.098
 20
-64.5343
 11
221.048
 21
-64.9701
  0
LINE
  8
0
 10
221.048
 20
-64.9701
 11
218.952
 21
-64.9701
  0
ENDSEC
  0
SECTION
  2
OBJECTS
  0
DICTIONARY
  0
ENDSEC
  0
EOF
