  0
SECTION
  2
BLOCKS
  0
ENDSEC
  0
SECTION
  2
ENTITIES
  0
LINE
  8
0
 10
162.649
 20
-89.5478
 11
162.989
 21
-89.5263
  0
LINE
  8
0
 10
162.989
 20
-89.5263
 11
162.992
 21
-89.526
  0
LINE
  8
0
 10
162.992
 20
-89.526
 11
163.281
 21
-89.4892
  0
LINE
  8
0
 10
163.281
 20
-89.4892
 11
163.284
 21
-89.4887
  0
LINE
  8
0
 10
163.284
 20
-89.4887
 11
163.607
 21
-89.4272
  0
LINE
  8
0
 10
163.607
 20
-89.4272
 11
163.61
 21
-89.4265
  0
LINE
  8
0
 10
163.61
 20
-89.4265
 11
163.896
 21
-89.3533
  0
LINE
  8
0
 10
163.896
 20
-89.3533
 11
163.899
 21
-89.3524
  0
LINE
  8
0
 10
163.899
 20
-89.3524
 11
164.212
 21
-89.2507
  0
LINE
  8
0
 10
164.212
 20
-89.2507
 11
164.215
 21
-89.2497
  0
LINE
  8
0
 10
164.215
 20
-89.2497
 11
164.508
 21
-89.1334
  0
LINE
  8
0
 10
164.508
 20
-89.1334
 11
164.511
 21
-89.1321
  0
LINE
  8
0
 10
164.511
 20
-89.1321
 11
164.787
 21
-89.0027
  0
LINE
  8
0
 10
164.787
 20
-89.0027
 11
164.789
 21
-89.0012
  0
LINE
  8
0
 10
164.789
 20
-89.0012
 11
165.075
 21
-88.8441
  0
LINE
  8
0
 10
165.075
 20
-88.8441
 11
165.078
 21
-88.8425
  0
LINE
  8
0
 10
165.078
 20
-88.8425
 11
165.334
 21
-88.68
  0
LINE
  8
0
 10
165.334
 20
-88.68
 11
165.336
 21
-88.6782
  0
LINE
  8
0
 10
165.336
 20
-88.6782
 11
165.599
 21
-88.4872
  0
LINE
  8
0
 10
165.599
 20
-88.4872
 11
165.602
 21
-88.4853
  0
LINE
  8
0
 10
165.602
 20
-88.4853
 11
165.83
 21
-88.2969
  0
LINE
  8
0
 10
165.83
 20
-88.2969
 11
165.832
 21
-88.2948
  0
LINE
  8
0
 10
165.832
 20
-88.2948
 11
166.07
 21
-88.072
  0
LINE
  8
0
 10
166.07
 20
-88.072
 11
166.072
 21
-88.0698
  0
LINE
  8
0
 10
166.072
 20
-88.0698
 11
166.295
 21
-87.8319
  0
LINE
  8
0
 10
166.295
 20
-87.8319
 11
166.297
 21
-87.8295
  0
LINE
  8
0
 10
166.297
 20
-87.8295
 11
166.485
 21
-87.6016
  0
LINE
  8
0
 10
166.485
 20
-87.6016
 11
166.487
 21
-87.5991
  0
LINE
  8
0
 10
166.487
 20
-87.5991
 11
166.678
 21
-87.3363
  0
LINE
  8
0
 10
166.678
 20
-87.3363
 11
166.68
 21
-87.3337
  0
LINE
  8
0
 10
166.68
 20
-87.3337
 11
166.842
 21
-87.0778
  0
LINE
  8
0
 10
166.842
 20
-87.0778
 11
166.844
 21
-87.0751
  0
LINE
  8
0
 10
166.844
 20
-87.0751
 11
167.001
 21
-86.7893
  0
LINE
  8
0
 10
167.001
 20
-86.7893
 11
167.003
 21
-86.7865
  0
LINE
  8
0
 10
167.003
 20
-86.7865
 11
167.132
 21
-86.5114
  0
LINE
  8
0
 10
167.132
 20
-86.5114
 11
167.133
 21
-86.5085
  0
LINE
  8
0
 10
167.133
 20
-86.5085
 11
167.25
 21
-86.2154
  0
LINE
  8
0
 10
167.25
 20
-86.2154
 11
167.251
 21
-86.2125
  0
LINE
  8
0
 10
167.251
 20
-86.2125
 11
167.352
 21
-85.8987
  0
LINE
  8
0
 10
167.352
 20
-85.8987
 11
167.353
 21
-85.8956
  0
LINE
  8
0
 10
167.353
 20
-85.8956
 11
167.426
 21
-85.61
  0
LINE
  8
0
 10
167.426
 20
-85.61
 11
167.427
 21
-85.6069
  0
LINE
  8
0
 10
167.427
 20
-85.6069
 11
167.435
 21
-85.5645
  0
LINE
  8
0
 10
167.435
 20
-85.5645
 11
178.955
 21
-77.1948
  0
LINE
  8
0
 10
178.955
 20
-77.1948
 11
195.396
 21
-72.368
  0
LINE
  8
0
 10
195.396
 20
-72.368
 11
195.694
 21
-72.2701
  0
LINE
  8
0
 10
195.694
 20
-72.2701
 11
195.986
 21
-72.1537
  0
LINE
  8
0
 10
195.986
 20
-72.1537
 11
196.27
 21
-72.0191
  0
LINE
  8
0
 10
196.27
 20
-72.0191
 11
196.486
 21
-71.8997
  0
LINE
  8
0
 10
196.486
 20
-71.8997
 11
230.487
 21
-71.8997
  0
LINE
  8
0
 10
230.487
 20
-71.8997
 11
230.801
 21
-71.8899
  0
LINE
  8
0
 10
230.801
 20
-71.8899
 11
231.114
 21
-71.8603
  0
LINE
  8
0
 10
231.114
 20
-71.8603
 11
231.424
 21
-71.8112
  0
LINE
  8
0
 10
231.424
 20
-71.8112
 11
231.731
 21
-71.7427
  0
LINE
  8
0
 10
231.731
 20
-71.7427
 11
232.032
 21
-71.655
  0
LINE
  8
0
 10
232.032
 20
-71.655
 11
232.328
 21
-71.5486
  0
LINE
  8
0
 10
232.328
 20
-71.5486
 11
232.616
 21
-71.4239
  0
LINE
  8
0
 10
232.616
 20
-71.4239
 11
232.896
 21
-71.2813
  0
LINE
  8
0
 10
232.896
 20
-71.2813
 11
233.166
 21
-71.1214
  0
LINE
  8
0
 10
233.166
 20
-71.1214
 11
233.426
 21
-70.9448
  0
LINE
  8
0
 10
233.426
 20
-70.9448
 11
233.674
 21
-70.7523
  0
LINE
  8
0
 10
233.674
 20
-70.7523
 11
233.91
 21
-70.5446
  0
LINE
  8
0
 10
233.91
 20
-70.5446
 11
234.132
 21
-70.3225
  0
LINE
  8
0
 10
234.132
 20
-70.3225
 11
234.34
 21
-70.0869
  0
LINE
  8
0
 10
234.34
 20
-70.0869
 11
234.532
 21
-69.8387
  0
LINE
  8
0
 10
234.532
 20
-69.8387
 11
234.709
 21
-69.5789
  0
LINE
  8
0
 10
234.709
 20
-69.5789
 11
234.869
 21
-69.3085
  0
LINE
  8
0
 10
234.869
 20
-69.3085
 11
235.011
 21
-69.0286
  0
LINE
  8
0
 10
235.011
 20
-69.0286
 11
235.136
 21
-68.7404
  0
LINE
  8
0
 10
235.136
 20
-68.7404
 11
235.242
 21
-68.4448
  0
LINE
  8
0
 10
235.242
 20
-68.4448
 11
235.33
 21
-68.1432
  0
LINE
  8
0
 10
235.33
 20
-68.1432
 11
235.399
 21
-67.8367
  0
LINE
  8
0
 10
235.399
 20
-67.8367
 11
235.448
 21
-67.5264
  0
LINE
  8
0
 10
235.448
 20
-67.5264
 11
235.477
 21
-67.2137
  0
LINE
  8
0
 10
235.477
 20
-67.2137
 11
235.487
 21
-66.8997
  0
LINE
  8
0
 10
235.487
 20
-66.8997
 11
235.487
 21
-52.6494
  0
LINE
  8
0
 10
235.487
 20
-52.6494
 11
235.57
 21
-52.572
  0
LINE
  8
0
 10
235.57
 20
-52.572
 11
235.572
 21
-52.5698
  0
LINE
  8
0
 10
235.572
 20
-52.5698
 11
235.637
 21
-52.5
  0
LINE
  8
0
 10
235.637
 20
-52.5
 11
248.432
 21
-52.5
  0
LINE
  8
0
 10
248.432
 20
-52.5
 11
248.577
 21
-52.6448
  0
LINE
  8
0
 10
248.577
 20
-52.6448
 11
248.813
 21
-52.8526
  0
LINE
  8
0
 10
248.813
 20
-52.8526
 11
249.061
 21
-53.0451
  0
LINE
  8
0
 10
249.061
 20
-53.0451
 11
249.321
 21
-53.2216
  0
LINE
  8
0
 10
249.321
 20
-53.2216
 11
249.591
 21
-53.3815
  0
LINE
  8
0
 10
249.591
 20
-53.3815
 11
249.871
 21
-53.5241
  0
LINE
  8
0
 10
249.871
 20
-53.5241
 11
250.159
 21
-53.6489
  0
LINE
  8
0
 10
250.159
 20
-53.6489
 11
250.455
 21
-53.7553
  0
LINE
  8
0
 10
250.455
 20
-53.7553
 11
250.757
 21
-53.8429
  0
LINE
  8
0
 10
250.757
 20
-53.8429
 11
251.063
 21
-53.9114
  0
LINE
  8
0
 10
251.063
 20
-53.9114
 11
251.373
 21
-53.9606
  0
LINE
  8
0
 10
251.373
 20
-53.9606
 11
251.686
 21
-53.9901
  0
LINE
  8
0
 10
251.686
 20
-53.9901
 11
252
 21
-54
  0
LINE
  8
0
 10
252
 20
-54
 11
272
 21
-54
  0
LINE
  8
0
 10
272
 20
-54
 11
272.314
 21
-53.9901
  0
LINE
  8
0
 10
272.314
 20
-53.9901
 11
272.627
 21
-53.9606
  0
LINE
  8
0
 10
272.627
 20
-53.9606
 11
272.937
 21
-53.9114
  0
LINE
  8
0
 10
272.937
 20
-53.9114
 11
273.243
 21
-53.8429
  0
LINE
  8
0
 10
273.243
 20
-53.8429
 11
273.545
 21
-53.7553
  0
LINE
  8
0
 10
273.545
 20
-53.7553
 11
273.841
 21
-53.6489
  0
LINE
  8
0
 10
273.841
 20
-53.6489
 11
274.129
 21
-53.5241
  0
LINE
  8
0
 10
274.129
 20
-53.5241
 11
274.409
 21
-53.3815
  0
LINE
  8
0
 10
274.409
 20
-53.3815
 11
274.679
 21
-53.2216
  0
LINE
  8
0
 10
274.679
 20
-53.2216
 11
274.939
 21
-53.0451
  0
LINE
  8
0
 10
274.939
 20
-53.0451
 11
275.187
 21
-52.8526
  0
LINE
  8
0
 10
275.187
 20
-52.8526
 11
275.423
 21
-52.6448
  0
LINE
  8
0
 10
275.423
 20
-52.6448
 11
275.645
 21
-52.4227
  0
LINE
  8
0
 10
275.645
 20
-52.4227
 11
275.853
 21
-52.1871
  0
LINE
  8
0
 10
275.853
 20
-52.1871
 11
276.045
 21
-51.9389
  0
LINE
  8
0
 10
276.045
 20
-51.9389
 11
276.222
 21
-51.6791
  0
LINE
  8
0
 10
276.222
 20
-51.6791
 11
276.382
 21
-51.4088
  0
LINE
  8
0
 10
276.382
 20
-51.4088
 11
276.524
 21
-51.1289
  0
LINE
  8
0
 10
276.524
 20
-51.1289
 11
276.649
 21
-50.8406
  0
LINE
  8
0
 10
276.649
 20
-50.8406
 11
276.755
 21
-50.5451
  0
LINE
  8
0
 10
276.755
 20
-50.5451
 11
276.843
 21
-50.2435
  0
LINE
  8
0
 10
276.843
 20
-50.2435
 11
276.911
 21
-49.9369
  0
LINE
  8
0
 10
276.911
 20
-49.9369
 11
276.961
 21
-49.6267
  0
LINE
  8
0
 10
276.961
 20
-49.6267
 11
276.99
 21
-49.3139
  0
LINE
  8
0
 10
276.99
 20
-49.3139
 11
277
 21
-49
  0
LINE
  8
0
 10
277
 20
-49
 11
277
 21
-38.0815
  0
LINE
  8
0
 10
277
 20
-38.0815
 11
277.178
 21
-37.8363
  0
LINE
  8
0
 10
277.178
 20
-37.8363
 11
277.18
 21
-37.8337
  0
LINE
  8
0
 10
277.18
 20
-37.8337
 11
277.342
 21
-37.5778
  0
LINE
  8
0
 10
277.342
 20
-37.5778
 11
277.344
 21
-37.5751
  0
LINE
  8
0
 10
277.344
 20
-37.5751
 11
277.501
 21
-37.2893
  0
LINE
  8
0
 10
277.501
 20
-37.2893
 11
277.503
 21
-37.2865
  0
LINE
  8
0
 10
277.503
 20
-37.2865
 11
277.632
 21
-37.0114
  0
LINE
  8
0
 10
277.632
 20
-37.0114
 11
277.633
 21
-37.0085
  0
LINE
  8
0
 10
277.633
 20
-37.0085
 11
277.637
 21
-37
  0
LINE
  8
0
 10
277.637
 20
-37
 11
288
 21
-37
  0
LINE
  8
0
 10
288
 20
-37
 11
288.314
 21
-36.9901
  0
LINE
  8
0
 10
288.314
 20
-36.9901
 11
288.627
 21
-36.9606
  0
LINE
  8
0
 10
288.627
 20
-36.9606
 11
288.937
 21
-36.9114
  0
LINE
  8
0
 10
288.937
 20
-36.9114
 11
289.243
 21
-36.8429
  0
LINE
  8
0
 10
289.243
 20
-36.8429
 11
289.545
 21
-36.7553
  0
LINE
  8
0
 10
289.545
 20
-36.7553
 11
289.841
 21
-36.6489
  0
LINE
  8
0
 10
289.841
 20
-36.6489
 11
290.129
 21
-36.5241
  0
LINE
  8
0
 10
290.129
 20
-36.5241
 11
290.409
 21
-36.3815
  0
LINE
  8
0
 10
290.409
 20
-36.3815
 11
290.679
 21
-36.2216
  0
LINE
  8
0
 10
290.679
 20
-36.2216
 11
290.939
 21
-36.0451
  0
LINE
  8
0
 10
290.939
 20
-36.0451
 11
291.187
 21
-35.8526
  0
LINE
  8
0
 10
291.187
 20
-35.8526
 11
291.423
 21
-35.6448
  0
LINE
  8
0
 10
291.423
 20
-35.6448
 11
291.645
 21
-35.4227
  0
LINE
  8
0
 10
291.645
 20
-35.4227
 11
291.853
 21
-35.1871
  0
LINE
  8
0
 10
291.853
 20
-35.1871
 11
292.045
 21
-34.9389
  0
LINE
  8
0
 10
292.045
 20
-34.9389
 11
292.222
 21
-34.6791
  0
LINE
  8
0
 10
292.222
 20
-34.6791
 11
292.382
 21
-34.4088
  0
LINE
  8
0
 10
292.382
 20
-34.4088
 11
292.524
 21
-34.1289
  0
LINE
  8
0
 10
292.524
 20
-34.1289
 11
292.649
 21
-33.8406
  0
LINE
  8
0
 10
292.649
 20
-33.8406
 11
292.755
 21
-33.5451
  0
LINE
  8
0
 10
292.755
 20
-33.5451
 11
292.843
 21
-33.2435
  0
LINE
  8
0
 10
292.843
 20
-33.2435
 11
292.911
 21
-32.9369
  0
LINE
  8
0
 10
292.911
 20
-32.9369
 11
292.961
 21
-32.6267
  0
LINE
  8
0
 10
292.961
 20
-32.6267
 11
292.99
 21
-32.3139
  0
LINE
  8
0
 10
292.99
 20
-32.3139
 11
293
 21
-32
  0
LINE
  8
0
 10
293
 20
-32
 11
293
 21
0
  0
LINE
  8
0
 10
293
 20
0
 11
292.99
 21
0.31395
  0
LINE
  8
0
 10
292.99
 20
0.31395
 11
292.961
 21
0.626663
  0
LINE
  8
0
 10
292.961
 20
0.626663
 11
292.911
 21
0.936905
  0
LINE
  8
0
 10
292.911
 20
0.936905
 11
292.843
 21
1.24345
  0
LINE
  8
0
 10
292.843
 20
1.24345
 11
292.755
 21
1.54509
  0
LINE
  8
0
 10
292.755
 20
1.54509
 11
292.649
 21
1.84062
  0
LINE
  8
0
 10
292.649
 20
1.84062
 11
292.524
 21
2.12889
  0
LINE
  8
0
 10
292.524
 20
2.12889
 11
292.382
 21
2.40877
  0
LINE
  8
0
 10
292.382
 20
2.40877
 11
292.222
 21
2.67914
  0
LINE
  8
0
 10
292.222
 20
2.67914
 11
292.045
 21
2.93892
  0
LINE
  8
0
 10
292.045
 20
2.93892
 11
291.853
 21
3.18712
  0
LINE
  8
0
 10
291.853
 20
3.18712
 11
291.645
 21
3.42273
  0
LINE
  8
0
 10
291.645
 20
3.42273
 11
291.423
 21
3.64484
  0
LINE
  8
0
 10
291.423
 20
3.64484
 11
291.187
 21
3.85257
  0
LINE
  8
0
 10
291.187
 20
3.85257
 11
290.939
 21
4.04509
  0
LINE
  8
0
 10
290.939
 20
4.04509
 11
290.679
 21
4.22163
  0
LINE
  8
0
 10
290.679
 20
4.22163
 11
290.409
 21
4.38153
  0
LINE
  8
0
 10
290.409
 20
4.38153
 11
290.129
 21
4.52414
  0
LINE
  8
0
 10
290.129
 20
4.52414
 11
289.841
 21
4.64888
  0
LINE
  8
0
 10
289.841
 20
4.64888
 11
289.545
 21
4.75528
  0
LINE
  8
0
 10
289.545
 20
4.75528
 11
289.243
 21
4.84291
  0
LINE
  8
0
 10
289.243
 20
4.84291
 11
288.937
 21
4.91144
  0
LINE
  8
0
 10
288.937
 20
4.91144
 11
288.627
 21
4.96057
  0
LINE
  8
0
 10
288.627
 20
4.96057
 11
288.314
 21
4.99013
  0
LINE
  8
0
 10
288.314
 20
4.99013
 11
288
 21
5
  0
LINE
  8
0
 10
288
 20
5
 11
277.637
 21
5
  0
LINE
  8
0
 10
277.637
 20
5
 11
277.633
 21
5.00848
  0
LINE
  8
0
 10
277.633
 20
5.00848
 11
277.632
 21
5.01137
  0
LINE
  8
0
 10
277.632
 20
5.01137
 11
277.503
 21
5.28653
  0
LINE
  8
0
 10
277.503
 20
5.28653
 11
277.501
 21
5.28932
  0
LINE
  8
0
 10
277.501
 20
5.28932
 11
277.344
 21
5.57509
  0
LINE
  8
0
 10
277.344
 20
5.57509
 11
277.342
 21
5.57779
  0
LINE
  8
0
 10
277.342
 20
5.57779
 11
277.18
 21
5.83369
  0
LINE
  8
0
 10
277.18
 20
5.83369
 11
277.178
 21
5.8363
  0
LINE
  8
0
 10
277.178
 20
5.8363
 11
276.987
 21
6.09909
  0
LINE
  8
0
 10
276.987
 20
6.09909
 11
276.985
 21
6.10156
  0
LINE
  8
0
 10
276.985
 20
6.10156
 11
276.829
 21
6.29034
  0
LINE
  8
0
 10
276.829
 20
6.29034
 11
276.755
 21
6.54509
  0
LINE
  8
0
 10
276.755
 20
6.54509
 11
276.649
 21
6.84062
  0
LINE
  8
0
 10
276.649
 20
6.84062
 11
276.524
 21
7.12889
  0
LINE
  8
0
 10
276.524
 20
7.12889
 11
276.382
 21
7.40877
  0
LINE
  8
0
 10
276.382
 20
7.40877
 11
276.222
 21
7.67914
  0
LINE
  8
0
 10
276.222
 20
7.67914
 11
276.045
 21
7.93892
  0
LINE
  8
0
 10
276.045
 20
7.93892
 11
275.853
 21
8.18712
  0
LINE
  8
0
 10
275.853
 20
8.18712
 11
275.645
 21
8.42273
  0
LINE
  8
0
 10
275.645
 20
8.42273
 11
275.423
 21
8.64484
  0
LINE
  8
0
 10
275.423
 20
8.64484
 11
275.187
 21
8.85257
  0
LINE
  8
0
 10
275.187
 20
8.85257
 11
274.939
 21
9.04509
  0
LINE
  8
0
 10
274.939
 20
9.04509
 11
274.679
 21
9.22163
  0
LINE
  8
0
 10
274.679
 20
9.22163
 11
274.409
 21
9.38153
  0
LINE
  8
0
 10
274.409
 20
9.38153
 11
274.129
 21
9.52414
  0
LINE
  8
0
 10
274.129
 20
9.52414
 11
273.841
 21
9.64888
  0
LINE
  8
0
 10
273.841
 20
9.64888
 11
273.545
 21
9.75528
  0
LINE
  8
0
 10
273.545
 20
9.75528
 11
273.243
 21
9.84291
  0
LINE
  8
0
 10
273.243
 20
9.84291
 11
272.937
 21
9.91144
  0
LINE
  8
0
 10
272.937
 20
9.91144
 11
272.627
 21
9.96057
  0
LINE
  8
0
 10
272.627
 20
9.96057
 11
272.314
 21
9.99013
  0
LINE
  8
0
 10
272.314
 20
9.99013
 11
272
 21
10
  0
LINE
  8
0
 10
272
 20
10
 11
255.568
 21
10
  0
LINE
  8
0
 10
255.568
 20
10
 11
255.423
 21
10.1448
  0
LINE
  8
0
 10
255.423
 20
10.1448
 11
255.187
 21
10.3526
  0
LINE
  8
0
 10
255.187
 20
10.3526
 11
254.939
 21
10.5451
  0
LINE
  8
0
 10
254.939
 20
10.5451
 11
254.679
 21
10.7216
  0
LINE
  8
0
 10
254.679
 20
10.7216
 11
254.409
 21
10.8815
  0
LINE
  8
0
 10
254.409
 20
10.8815
 11
254.129
 21
11.0241
  0
LINE
  8
0
 10
254.129
 20
11.0241
 11
253.841
 21
11.1489
  0
LINE
  8
0
 10
253.841
 20
11.1489
 11
253.545
 21
11.2553
  0
LINE
  8
0
 10
253.545
 20
11.2553
 11
253.243
 21
11.3429
  0
LINE
  8
0
 10
253.243
 20
11.3429
 11
252.937
 21
11.4114
  0
LINE
  8
0
 10
252.937
 20
11.4114
 11
252.627
 21
11.4606
  0
LINE
  8
0
 10
252.627
 20
11.4606
 11
252.314
 21
11.4901
  0
LINE
  8
0
 10
252.314
 20
11.4901
 11
252
 21
11.5
  0
LINE
  8
0
 10
252
 20
11.5
 11
236.537
 21
11.5
  0
LINE
  8
0
 10
236.537
 20
11.5
 11
236.46
 21
11.5819
  0
LINE
  8
0
 10
236.46
 20
11.5819
 11
236.458
 21
11.5841
  0
LINE
  8
0
 10
236.458
 20
11.5841
 11
236.244
 21
11.7842
  0
LINE
  8
0
 10
236.244
 20
11.7842
 11
236.242
 21
11.7863
  0
LINE
  8
0
 10
236.242
 20
11.7863
 11
236.024
 21
11.9662
  0
LINE
  8
0
 10
236.024
 20
11.9662
 11
235.853
 21
12.1871
  0
LINE
  8
0
 10
235.853
 20
12.1871
 11
235.645
 21
12.4227
  0
LINE
  8
0
 10
235.645
 20
12.4227
 11
235.423
 21
12.6448
  0
LINE
  8
0
 10
235.423
 20
12.6448
 11
235.187
 21
12.8526
  0
LINE
  8
0
 10
235.187
 20
12.8526
 11
234.939
 21
13.0451
  0
LINE
  8
0
 10
234.939
 20
13.0451
 11
234.679
 21
13.2216
  0
LINE
  8
0
 10
234.679
 20
13.2216
 11
234.409
 21
13.3815
  0
LINE
  8
0
 10
234.409
 20
13.3815
 11
234.129
 21
13.5241
  0
LINE
  8
0
 10
234.129
 20
13.5241
 11
233.841
 21
13.6489
  0
LINE
  8
0
 10
233.841
 20
13.6489
 11
233.545
 21
13.7553
  0
LINE
  8
0
 10
233.545
 20
13.7553
 11
233.243
 21
13.8429
  0
LINE
  8
0
 10
233.243
 20
13.8429
 11
232.937
 21
13.9114
  0
LINE
  8
0
 10
232.937
 20
13.9114
 11
232.627
 21
13.9606
  0
LINE
  8
0
 10
232.627
 20
13.9606
 11
232.314
 21
13.9901
  0
LINE
  8
0
 10
232.314
 20
13.9901
 11
232
 21
14
  0
LINE
  8
0
 10
232
 20
14
 11
212
 21
14
  0
LINE
  8
0
 10
212
 20
14
 11
211.686
 21
13.9901
  0
LINE
  8
0
 10
211.686
 20
13.9901
 11
211.373
 21
13.9606
  0
LINE
  8
0
 10
211.373
 20
13.9606
 11
211.063
 21
13.9114
  0
LINE
  8
0
 10
211.063
 20
13.9114
 11
210.757
 21
13.8429
  0
LINE
  8
0
 10
210.757
 20
13.8429
 11
210.455
 21
13.7553
  0
LINE
  8
0
 10
210.455
 20
13.7553
 11
210.159
 21
13.6489
  0
LINE
  8
0
 10
210.159
 20
13.6489
 11
209.871
 21
13.5241
  0
LINE
  8
0
 10
209.871
 20
13.5241
 11
209.591
 21
13.3815
  0
LINE
  8
0
 10
209.591
 20
13.3815
 11
209.321
 21
13.2216
  0
LINE
  8
0
 10
209.321
 20
13.2216
 11
209.061
 21
13.0451
  0
LINE
  8
0
 10
209.061
 20
13.0451
 11
208.813
 21
12.8526
  0
LINE
  8
0
 10
208.813
 20
12.8526
 11
208.577
 21
12.6448
  0
LINE
  8
0
 10
208.577
 20
12.6448
 11
208.355
 21
12.4227
  0
LINE
  8
0
 10
208.355
 20
12.4227
 11
208.147
 21
12.1871
  0
LINE
  8
0
 10
208.147
 20
12.1871
 11
207.955
 21
11.9389
  0
LINE
  8
0
 10
207.955
 20
11.9389
 11
207.778
 21
11.6791
  0
LINE
  8
0
 10
207.778
 20
11.6791
 11
207.672
 21
11.5
  0
LINE
  8
0
 10
207.672
 20
11.5
 11
198.137
 21
11.5
  0
LINE
  8
0
 10
198.137
 20
11.5
 11
198.072
 21
11.5698
  0
LINE
  8
0
 10
198.072
 20
11.5698
 11
198.07
 21
11.572
  0
LINE
  8
0
 10
198.07
 20
11.572
 11
197.832
 21
11.7948
  0
LINE
  8
0
 10
197.832
 20
11.7948
 11
197.83
 21
11.7969
  0
LINE
  8
0
 10
197.83
 20
11.7969
 11
197.602
 21
11.9853
  0
LINE
  8
0
 10
197.602
 20
11.9853
 11
197.599
 21
11.9872
  0
LINE
  8
0
 10
197.599
 20
11.9872
 11
197.336
 21
12.1782
  0
LINE
  8
0
 10
197.336
 20
12.1782
 11
197.334
 21
12.18
  0
LINE
  8
0
 10
197.334
 20
12.18
 11
197.078
 21
12.3425
  0
LINE
  8
0
 10
197.078
 20
12.3425
 11
197.075
 21
12.3441
  0
LINE
  8
0
 10
197.075
 20
12.3441
 11
196.789
 21
12.5012
  0
LINE
  8
0
 10
196.789
 20
12.5012
 11
196.787
 21
12.5027
  0
LINE
  8
0
 10
196.787
 20
12.5027
 11
196.511
 21
12.6321
  0
LINE
  8
0
 10
196.511
 20
12.6321
 11
196.508
 21
12.6334
  0
LINE
  8
0
 10
196.508
 20
12.6334
 11
196.215
 21
12.7497
  0
LINE
  8
0
 10
196.215
 20
12.7497
 11
196.212
 21
12.7507
  0
LINE
  8
0
 10
196.212
 20
12.7507
 11
195.899
 21
12.8524
  0
LINE
  8
0
 10
195.899
 20
12.8524
 11
195.896
 21
12.8533
  0
LINE
  8
0
 10
195.896
 20
12.8533
 11
195.61
 21
12.9265
  0
LINE
  8
0
 10
195.61
 20
12.9265
 11
195.607
 21
12.9272
  0
LINE
  8
0
 10
195.607
 20
12.9272
 11
195.284
 21
12.9887
  0
LINE
  8
0
 10
195.284
 20
12.9887
 11
195.281
 21
12.9892
  0
LINE
  8
0
 10
195.281
 20
12.9892
 11
194.992
 21
13.026
  0
LINE
  8
0
 10
194.992
 20
13.026
 11
194.989
 21
13.0263
  0
LINE
  8
0
 10
194.989
 20
13.0263
 11
194.649
 21
13.0478
  0
LINE
  8
0
 10
194.649
 20
13.0478
 11
194.646
 21
13.0479
  0
LINE
  8
0
 10
194.646
 20
13.0479
 11
194.354
 21
13.0479
  0
LINE
  8
0
 10
194.354
 20
13.0479
 11
194.351
 21
13.0478
  0
LINE
  8
0
 10
194.351
 20
13.0478
 11
194.011
 21
13.0263
  0
LINE
  8
0
 10
194.011
 20
13.0263
 11
194.008
 21
13.026
  0
LINE
  8
0
 10
194.008
 20
13.026
 11
193.719
 21
12.9892
  0
LINE
  8
0
 10
193.719
 20
12.9892
 11
193.716
 21
12.9887
  0
LINE
  8
0
 10
193.716
 20
12.9887
 11
193.393
 21
12.9272
  0
LINE
  8
0
 10
193.393
 20
12.9272
 11
193.39
 21
12.9265
  0
LINE
  8
0
 10
193.39
 20
12.9265
 11
193.104
 21
12.8533
  0
LINE
  8
0
 10
193.104
 20
12.8533
 11
193.101
 21
12.8524
  0
LINE
  8
0
 10
193.101
 20
12.8524
 11
192.788
 21
12.7507
  0
LINE
  8
0
 10
192.788
 20
12.7507
 11
192.785
 21
12.7497
  0
LINE
  8
0
 10
192.785
 20
12.7497
 11
192.492
 21
12.6334
  0
LINE
  8
0
 10
192.492
 20
12.6334
 11
192.489
 21
12.6321
  0
LINE
  8
0
 10
192.489
 20
12.6321
 11
192.213
 21
12.5027
  0
LINE
  8
0
 10
192.213
 20
12.5027
 11
192.211
 21
12.5012
  0
LINE
  8
0
 10
192.211
 20
12.5012
 11
191.925
 21
12.3441
  0
LINE
  8
0
 10
191.925
 20
12.3441
 11
191.922
 21
12.3425
  0
LINE
  8
0
 10
191.922
 20
12.3425
 11
191.666
 21
12.18
  0
LINE
  8
0
 10
191.666
 20
12.18
 11
191.664
 21
12.1782
  0
LINE
  8
0
 10
191.664
 20
12.1782
 11
191.401
 21
11.9872
  0
LINE
  8
0
 10
191.401
 20
11.9872
 11
191.398
 21
11.9853
  0
LINE
  8
0
 10
191.398
 20
11.9853
 11
191.17
 21
11.7969
  0
LINE
  8
0
 10
191.17
 20
11.7969
 11
191.168
 21
11.7948
  0
LINE
  8
0
 10
191.168
 20
11.7948
 11
190.93
 21
11.572
  0
LINE
  8
0
 10
190.93
 20
11.572
 11
190.928
 21
11.5698
  0
LINE
  8
0
 10
190.928
 20
11.5698
 11
190.705
 21
11.3319
  0
LINE
  8
0
 10
190.705
 20
11.3319
 11
190.703
 21
11.3295
  0
LINE
  8
0
 10
190.703
 20
11.3295
 11
190.515
 21
11.1016
  0
LINE
  8
0
 10
190.515
 20
11.1016
 11
190.513
 21
11.0991
  0
LINE
  8
0
 10
190.513
 20
11.0991
 11
190.322
 21
10.8363
  0
LINE
  8
0
 10
190.322
 20
10.8363
 11
190.32
 21
10.8337
  0
LINE
  8
0
 10
190.32
 20
10.8337
 11
190.158
 21
10.5778
  0
LINE
  8
0
 10
190.158
 20
10.5778
 11
190.156
 21
10.5751
  0
LINE
  8
0
 10
190.156
 20
10.5751
 11
189.999
 21
10.2893
  0
LINE
  8
0
 10
189.999
 20
10.2893
 11
189.997
 21
10.2865
  0
LINE
  8
0
 10
189.997
 20
10.2865
 11
189.868
 21
10.0114
  0
LINE
  8
0
 10
189.868
 20
10.0114
 11
189.867
 21
10.0085
  0
LINE
  8
0
 10
189.867
 20
10.0085
 11
189.863
 21
10
  0
LINE
  8
0
 10
189.863
 20
10
 11
179
 21
10
  0
LINE
  8
0
 10
179
 20
10
 11
178.686
 21
9.99013
  0
LINE
  8
0
 10
178.686
 20
9.99013
 11
178.373
 21
9.96057
  0
LINE
  8
0
 10
178.373
 20
9.96057
 11
178.063
 21
9.91144
  0
LINE
  8
0
 10
178.063
 20
9.91144
 11
177.757
 21
9.84291
  0
LINE
  8
0
 10
177.757
 20
9.84291
 11
177.455
 21
9.75528
  0
LINE
  8
0
 10
177.455
 20
9.75528
 11
177.159
 21
9.64888
  0
LINE
  8
0
 10
177.159
 20
9.64888
 11
176.871
 21
9.52414
  0
LINE
  8
0
 10
176.871
 20
9.52414
 11
176.591
 21
9.38153
  0
LINE
  8
0
 10
176.591
 20
9.38153
 11
176.321
 21
9.22163
  0
LINE
  8
0
 10
176.321
 20
9.22163
 11
176.061
 21
9.04509
  0
LINE
  8
0
 10
176.061
 20
9.04509
 11
175.813
 21
8.85257
  0
LINE
  8
0
 10
175.813
 20
8.85257
 11
175.577
 21
8.64484
  0
LINE
  8
0
 10
175.577
 20
8.64484
 11
175.355
 21
8.42273
  0
LINE
  8
0
 10
175.355
 20
8.42273
 11
175.147
 21
8.18712
  0
LINE
  8
0
 10
175.147
 20
8.18712
 11
174.955
 21
7.93892
  0
LINE
  8
0
 10
174.955
 20
7.93892
 11
174.778
 21
7.67914
  0
LINE
  8
0
 10
174.778
 20
7.67914
 11
174.618
 21
7.40877
  0
LINE
  8
0
 10
174.618
 20
7.40877
 11
174.476
 21
7.12889
  0
LINE
  8
0
 10
174.476
 20
7.12889
 11
174.351
 21
6.84062
  0
LINE
  8
0
 10
174.351
 20
6.84062
 11
174.245
 21
6.54509
  0
LINE
  8
0
 10
174.245
 20
6.54509
 11
174.157
 21
6.24345
  0
LINE
  8
0
 10
174.157
 20
6.24345
 11
174.089
 21
5.9369
  0
LINE
  8
0
 10
174.089
 20
5.9369
 11
174.088
 21
5.93213
  0
LINE
  8
0
 10
174.088
 20
5.93213
 11
174.001
 21
5.77849
  0
LINE
  8
0
 10
174.001
 20
5.77849
 11
173.865
 21
5.49568
  0
LINE
  8
0
 10
173.865
 20
5.49568
 11
173.746
 21
5.20486
  0
LINE
  8
0
 10
173.746
 20
5.20486
 11
172.042
 21
0.622528
  0
LINE
  8
0
 10
172.042
 20
0.622528
 11
174.674
 21
-0.356567
  0
LINE
  8
0
 10
174.674
 20
-0.356567
 11
171.537
 21
-8.79211
  0
LINE
  8
0
 10
171.537
 20
-8.79211
 11
168.905
 21
-7.81302
  0
LINE
  8
0
 10
168.905
 20
-7.81302
 11
163.17
 21
-23.2326
  0
LINE
  8
0
 10
163.17
 20
-23.2326
 11
163.171
 21
-23.2329
  0
LINE
  8
0
 10
163.171
 20
-23.2329
 11
163.165
 21
-23.2474
  0
LINE
  8
0
 10
163.165
 20
-23.2474
 11
163.165
 21
-23.2472
  0
LINE
  8
0
 10
163.165
 20
-23.2472
 11
163.157
 21
-23.2682
  0
LINE
  8
0
 10
163.157
 20
-23.2682
 11
163.15
 21
-23.2845
  0
LINE
  8
0
 10
163.15
 20
-23.2845
 11
163.149
 21
-23.2875
  0
LINE
  8
0
 10
163.149
 20
-23.2875
 11
163.147
 21
-23.2953
  0
LINE
  8
0
 10
163.147
 20
-23.2953
 11
157.402
 21
-38.7433
  0
LINE
  8
0
 10
157.402
 20
-38.7433
 11
160.034
 21
-39.7224
  0
LINE
  8
0
 10
160.034
 20
-39.7224
 11
156.897
 21
-48.158
  0
LINE
  8
0
 10
156.897
 20
-48.158
 11
154.264
 21
-47.1789
  0
LINE
  8
0
 10
154.264
 20
-47.1789
 11
147.254
 21
-66.0285
  0
LINE
  8
0
 10
147.254
 20
-66.0285
 11
147.155
 21
-66.3226
  0
LINE
  8
0
 10
147.155
 20
-66.3226
 11
147.05
 21
-66.53
  0
LINE
  8
0
 10
147.05
 20
-66.53
 11
146.925
 21
-66.8183
  0
LINE
  8
0
 10
146.925
 20
-66.8183
 11
146.819
 21
-67.1138
  0
LINE
  8
0
 10
146.819
 20
-67.1138
 11
146.731
 21
-67.4154
  0
LINE
  8
0
 10
146.731
 20
-67.4154
 11
146.662
 21
-67.722
  0
LINE
  8
0
 10
146.662
 20
-67.722
 11
146.613
 21
-68.0322
  0
LINE
  8
0
 10
146.613
 20
-68.0322
 11
146.584
 21
-68.3449
  0
LINE
  8
0
 10
146.584
 20
-68.3449
 11
146.574
 21
-68.6589
  0
LINE
  8
0
 10
146.574
 20
-68.6589
 11
146.584
 21
-68.9728
  0
LINE
  8
0
 10
146.584
 20
-68.9728
 11
146.613
 21
-69.2855
  0
LINE
  8
0
 10
146.613
 20
-69.2855
 11
146.662
 21
-69.5958
  0
LINE
  8
0
 10
146.662
 20
-69.5958
 11
146.731
 21
-69.9023
  0
LINE
  8
0
 10
146.731
 20
-69.9023
 11
146.819
 21
-70.204
  0
LINE
  8
0
 10
146.819
 20
-70.204
 11
146.925
 21
-70.4995
  0
LINE
  8
0
 10
146.925
 20
-70.4995
 11
147.05
 21
-70.7878
  0
LINE
  8
0
 10
147.05
 20
-70.7878
 11
147.192
 21
-71.0676
  0
LINE
  8
0
 10
147.192
 20
-71.0676
 11
147.352
 21
-71.338
  0
LINE
  8
0
 10
147.352
 20
-71.338
 11
147.529
 21
-71.5978
  0
LINE
  8
0
 10
147.529
 20
-71.5978
 11
157.525
 21
-85.3565
  0
LINE
  8
0
 10
157.525
 20
-85.3565
 11
157.573
 21
-85.6069
  0
LINE
  8
0
 10
157.573
 20
-85.6069
 11
157.574
 21
-85.61
  0
LINE
  8
0
 10
157.574
 20
-85.61
 11
157.647
 21
-85.8956
  0
LINE
  8
0
 10
157.647
 20
-85.8956
 11
157.648
 21
-85.8987
  0
LINE
  8
0
 10
157.648
 20
-85.8987
 11
157.749
 21
-86.2125
  0
LINE
  8
0
 10
157.749
 20
-86.2125
 11
157.75
 21
-86.2154
  0
LINE
  8
0
 10
157.75
 20
-86.2154
 11
157.867
 21
-86.5085
  0
LINE
  8
0
 10
157.867
 20
-86.5085
 11
157.868
 21
-86.5114
  0
LINE
  8
0
 10
157.868
 20
-86.5114
 11
157.997
 21
-86.7865
  0
LINE
  8
0
 10
157.997
 20
-86.7865
 11
157.999
 21
-86.7893
  0
LINE
  8
0
 10
157.999
 20
-86.7893
 11
158.156
 21
-87.0751
  0
LINE
  8
0
 10
158.156
 20
-87.0751
 11
158.158
 21
-87.0778
  0
LINE
  8
0
 10
158.158
 20
-87.0778
 11
158.32
 21
-87.3337
  0
LINE
  8
0
 10
158.32
 20
-87.3337
 11
158.322
 21
-87.3363
  0
LINE
  8
0
 10
158.322
 20
-87.3363
 11
158.513
 21
-87.5991
  0
LINE
  8
0
 10
158.513
 20
-87.5991
 11
158.515
 21
-87.6016
  0
LINE
  8
0
 10
158.515
 20
-87.6016
 11
158.703
 21
-87.8295
  0
LINE
  8
0
 10
158.703
 20
-87.8295
 11
158.705
 21
-87.8319
  0
LINE
  8
0
 10
158.705
 20
-87.8319
 11
158.928
 21
-88.0698
  0
LINE
  8
0
 10
158.928
 20
-88.0698
 11
158.93
 21
-88.072
  0
LINE
  8
0
 10
158.93
 20
-88.072
 11
159.168
 21
-88.2948
  0
LINE
  8
0
 10
159.168
 20
-88.2948
 11
159.17
 21
-88.2969
  0
LINE
  8
0
 10
159.17
 20
-88.2969
 11
159.398
 21
-88.4853
  0
LINE
  8
0
 10
159.398
 20
-88.4853
 11
159.401
 21
-88.4872
  0
LINE
  8
0
 10
159.401
 20
-88.4872
 11
159.664
 21
-88.6782
  0
LINE
  8
0
 10
159.664
 20
-88.6782
 11
159.666
 21
-88.68
  0
LINE
  8
0
 10
159.666
 20
-88.68
 11
159.922
 21
-88.8425
  0
LINE
  8
0
 10
159.922
 20
-88.8425
 11
159.925
 21
-88.8441
  0
LINE
  8
0
 10
159.925
 20
-88.8441
 11
160.211
 21
-89.0012
  0
LINE
  8
0
 10
160.211
 20
-89.0012
 11
160.213
 21
-89.0027
  0
LINE
  8
0
 10
160.213
 20
-89.0027
 11
160.489
 21
-89.1321
  0
LINE
  8
0
 10
160.489
 20
-89.1321
 11
160.492
 21
-89.1334
  0
LINE
  8
0
 10
160.492
 20
-89.1334
 11
160.785
 21
-89.2497
  0
LINE
  8
0
 10
160.785
 20
-89.2497
 11
160.788
 21
-89.2507
  0
LINE
  8
0
 10
160.788
 20
-89.2507
 11
161.101
 21
-89.3524
  0
LINE
  8
0
 10
161.101
 20
-89.3524
 11
161.104
 21
-89.3533
  0
LINE
  8
0
 10
161.104
 20
-89.3533
 11
161.39
 21
-89.4265
  0
LINE
  8
0
 10
161.39
 20
-89.4265
 11
161.393
 21
-89.4272
  0
LINE
  8
0
 10
161.393
 20
-89.4272
 11
161.716
 21
-89.4887
  0
LINE
  8
0
 10
161.716
 20
-89.4887
 11
161.719
 21
-89.4892
  0
LINE
  8
0
 10
161.719
 20
-89.4892
 11
162.008
 21
-89.526
  0
LINE
  8
0
 10
162.008
 20
-89.526
 11
162.011
 21
-89.5263
  0
LINE
  8
0
 10
162.011
 20
-89.5263
 11
162.351
 21
-89.5478
  0
LINE
  8
0
 10
162.351
 20
-89.5478
 11
162.354
 21
-89.5479
  0
LINE
  8
0
 10
162.354
 20
-89.5479
 11
162.646
 21
-89.5479
  0
LINE
  8
0
 10
162.646
 20
-89.5479
 11
162.649
 21
-89.5478
  0
LINE
  8
0
 10
194.39
 20
6.25345
 11
194.281
 21
6.26379
  0
LINE
  8
0
 10
194.281
 20
6.26379
 11
194.172
 21
6.28099
  0
LINE
  8
0
 10
194.172
 20
6.28099
 11
194.065
 21
6.30498
  0
LINE
  8
0
 10
194.065
 20
6.30498
 11
193.959
 21
6.33565
  0
LINE
  8
0
 10
193.959
 20
6.33565
 11
193.856
 21
6.37288
  0
LINE
  8
0
 10
193.856
 20
6.37288
 11
193.755
 21
6.41655
  0
LINE
  8
0
 10
193.755
 20
6.41655
 11
193.657
 21
6.46646
  0
LINE
  8
0
 10
193.657
 20
6.46646
 11
193.562
 21
6.52242
  0
LINE
  8
0
 10
193.562
 20
6.52242
 11
193.471
 21
6.58421
  0
LINE
  8
0
 10
193.471
 20
6.58421
 11
193.385
 21
6.6516
  0
LINE
  8
0
 10
193.385
 20
6.6516
 11
193.302
 21
6.7243
  0
LINE
  8
0
 10
193.302
 20
6.7243
 11
193.224
 21
6.80203
  0
LINE
  8
0
 10
193.224
 20
6.80203
 11
193.152
 21
6.88451
  0
LINE
  8
0
 10
193.152
 20
6.88451
 11
193.084
 21
6.97137
  0
LINE
  8
0
 10
193.084
 20
6.97137
 11
193.022
 21
7.0623
  0
LINE
  8
0
 10
193.022
 20
7.0623
 11
192.966
 21
7.15692
  0
LINE
  8
0
 10
192.966
 20
7.15692
 11
192.917
 21
7.25488
  0
LINE
  8
0
 10
192.917
 20
7.25488
 11
192.873
 21
7.35577
  0
LINE
  8
0
 10
192.873
 20
7.35577
 11
192.836
 21
7.45921
  0
LINE
  8
0
 10
192.836
 20
7.45921
 11
192.805
 21
7.56479
  0
LINE
  8
0
 10
192.805
 20
7.56479
 11
192.781
 21
7.67207
  0
LINE
  8
0
 10
192.781
 20
7.67207
 11
192.764
 21
7.78065
  0
LINE
  8
0
 10
192.764
 20
7.78065
 11
192.753
 21
7.89011
  0
LINE
  8
0
 10
192.753
 20
7.89011
 11
192.75
 21
8
  0
LINE
  8
0
 10
192.75
 20
8
 11
192.753
 21
8.10988
  0
LINE
  8
0
 10
192.753
 20
8.10988
 11
192.764
 21
8.21933
  0
LINE
  8
0
 10
192.764
 20
8.21933
 11
192.781
 21
8.32791
  0
LINE
  8
0
 10
192.781
 20
8.32791
 11
192.805
 21
8.4352
  0
LINE
  8
0
 10
192.805
 20
8.4352
 11
192.836
 21
8.54077
  0
LINE
  8
0
 10
192.836
 20
8.54077
 11
192.873
 21
8.64421
  0
LINE
  8
0
 10
192.873
 20
8.64421
 11
192.917
 21
8.7451
  0
LINE
  8
0
 10
192.917
 20
8.7451
 11
192.966
 21
8.84306
  0
LINE
  8
0
 10
192.966
 20
8.84306
 11
193.022
 21
8.93768
  0
LINE
  8
0
 10
193.022
 20
8.93768
 11
193.084
 21
9.02861
  0
LINE
  8
0
 10
193.084
 20
9.02861
 11
193.152
 21
9.11548
  0
LINE
  8
0
 10
193.152
 20
9.11548
 11
193.224
 21
9.19795
  0
LINE
  8
0
 10
193.224
 20
9.19795
 11
193.302
 21
9.27568
  0
LINE
  8
0
 10
193.302
 20
9.27568
 11
193.385
 21
9.34839
  0
LINE
  8
0
 10
193.385
 20
9.34839
 11
193.471
 21
9.41577
  0
LINE
  8
0
 10
193.471
 20
9.41577
 11
193.562
 21
9.47757
  0
LINE
  8
0
 10
193.562
 20
9.47757
 11
193.657
 21
9.53352
  0
LINE
  8
0
 10
193.657
 20
9.53352
 11
193.755
 21
9.58344
  0
LINE
  8
0
 10
193.755
 20
9.58344
 11
193.856
 21
9.62711
  0
LINE
  8
0
 10
193.856
 20
9.62711
 11
193.959
 21
9.66434
  0
LINE
  8
0
 10
193.959
 20
9.66434
 11
194.065
 21
9.69501
  0
LINE
  8
0
 10
194.065
 20
9.69501
 11
194.172
 21
9.71899
  0
LINE
  8
0
 10
194.172
 20
9.71899
 11
194.281
 21
9.73619
  0
LINE
  8
0
 10
194.281
 20
9.73619
 11
194.39
 21
9.74654
  0
LINE
  8
0
 10
194.39
 20
9.74654
 11
194.5
 21
9.75
  0
LINE
  8
0
 10
194.5
 20
9.75
 11
194.61
 21
9.74654
  0
LINE
  8
0
 10
194.61
 20
9.74654
 11
194.719
 21
9.73619
  0
LINE
  8
0
 10
194.719
 20
9.73619
 11
194.828
 21
9.71899
  0
LINE
  8
0
 10
194.828
 20
9.71899
 11
194.935
 21
9.69501
  0
LINE
  8
0
 10
194.935
 20
9.69501
 11
195.041
 21
9.66434
  0
LINE
  8
0
 10
195.041
 20
9.66434
 11
195.144
 21
9.62711
  0
LINE
  8
0
 10
195.144
 20
9.62711
 11
195.245
 21
9.58344
  0
LINE
  8
0
 10
195.245
 20
9.58344
 11
195.343
 21
9.53352
  0
LINE
  8
0
 10
195.343
 20
9.53352
 11
195.438
 21
9.47757
  0
LINE
  8
0
 10
195.438
 20
9.47757
 11
195.529
 21
9.41577
  0
LINE
  8
0
 10
195.529
 20
9.41577
 11
195.615
 21
9.34839
  0
LINE
  8
0
 10
195.615
 20
9.34839
 11
195.698
 21
9.27568
  0
LINE
  8
0
 10
195.698
 20
9.27568
 11
195.776
 21
9.19795
  0
LINE
  8
0
 10
195.776
 20
9.19795
 11
195.848
 21
9.11548
  0
LINE
  8
0
 10
195.848
 20
9.11548
 11
195.916
 21
9.02861
  0
LINE
  8
0
 10
195.916
 20
9.02861
 11
195.978
 21
8.93768
  0
LINE
  8
0
 10
195.978
 20
8.93768
 11
196.034
 21
8.84306
  0
LINE
  8
0
 10
196.034
 20
8.84306
 11
196.083
 21
8.7451
  0
LINE
  8
0
 10
196.083
 20
8.7451
 11
196.127
 21
8.64421
  0
LINE
  8
0
 10
196.127
 20
8.64421
 11
196.164
 21
8.54077
  0
LINE
  8
0
 10
196.164
 20
8.54077
 11
196.195
 21
8.4352
  0
LINE
  8
0
 10
196.195
 20
8.4352
 11
196.219
 21
8.32791
  0
LINE
  8
0
 10
196.219
 20
8.32791
 11
196.236
 21
8.21933
  0
LINE
  8
0
 10
196.236
 20
8.21933
 11
196.247
 21
8.10988
  0
LINE
  8
0
 10
196.247
 20
8.10988
 11
196.25
 21
8
  0
LINE
  8
0
 10
196.25
 20
8
 11
196.247
 21
7.89011
  0
LINE
  8
0
 10
196.247
 20
7.89011
 11
196.236
 21
7.78065
  0
LINE
  8
0
 10
196.236
 20
7.78065
 11
196.219
 21
7.67207
  0
LINE
  8
0
 10
196.219
 20
7.67207
 11
196.195
 21
7.56479
  0
LINE
  8
0
 10
196.195
 20
7.56479
 11
196.164
 21
7.45921
  0
LINE
  8
0
 10
196.164
 20
7.45921
 11
196.127
 21
7.35577
  0
LINE
  8
0
 10
196.127
 20
7.35577
 11
196.083
 21
7.25488
  0
LINE
  8
0
 10
196.083
 20
7.25488
 11
196.034
 21
7.15692
  0
LINE
  8
0
 10
196.034
 20
7.15692
 11
195.978
 21
7.0623
  0
LINE
  8
0
 10
195.978
 20
7.0623
 11
195.916
 21
6.97137
  0
LINE
  8
0
 10
195.916
 20
6.97137
 11
195.848
 21
6.88451
  0
LINE
  8
0
 10
195.848
 20
6.88451
 11
195.776
 21
6.80203
  0
LINE
  8
0
 10
195.776
 20
6.80203
 11
195.698
 21
6.7243
  0
LINE
  8
0
 10
195.698
 20
6.7243
 11
195.615
 21
6.6516
  0
LINE
  8
0
 10
195.615
 20
6.6516
 11
195.529
 21
6.58421
  0
LINE
  8
0
 10
195.529
 20
6.58421
 11
195.438
 21
6.52242
  0
LINE
  8
0
 10
195.438
 20
6.52242
 11
195.343
 21
6.46646
  0
LINE
  8
0
 10
195.343
 20
6.46646
 11
195.245
 21
6.41655
  0
LINE
  8
0
 10
195.245
 20
6.41655
 11
195.144
 21
6.37288
  0
LINE
  8
0
 10
195.144
 20
6.37288
 11
195.041
 21
6.33565
  0
LINE
  8
0
 10
195.041
 20
6.33565
 11
194.935
 21
6.30498
  0
LINE
  8
0
 10
194.935
 20
6.30498
 11
194.828
 21
6.28099
  0
LINE
  8
0
 10
194.828
 20
6.28099
 11
194.719
 21
6.26379
  0
LINE
  8
0
 10
194.719
 20
6.26379
 11
194.61
 21
6.25345
  0
LINE
  8
0
 10
194.61
 20
6.25345
 11
194.5
 21
6.25
  0
LINE
  8
0
 10
194.5
 20
6.25
 11
194.39
 21
6.25345
  0
LINE
  8
0
 10
232.79
 20
6.25345
 11
232.681
 21
6.26379
  0
LINE
  8
0
 10
232.681
 20
6.26379
 11
232.572
 21
6.28099
  0
LINE
  8
0
 10
232.572
 20
6.28099
 11
232.465
 21
6.30498
  0
LINE
  8
0
 10
232.465
 20
6.30498
 11
232.359
 21
6.33565
  0
LINE
  8
0
 10
232.359
 20
6.33565
 11
232.256
 21
6.37288
  0
LINE
  8
0
 10
232.256
 20
6.37288
 11
232.155
 21
6.41655
  0
LINE
  8
0
 10
232.155
 20
6.41655
 11
232.057
 21
6.46646
  0
LINE
  8
0
 10
232.057
 20
6.46646
 11
231.962
 21
6.52242
  0
LINE
  8
0
 10
231.962
 20
6.52242
 11
231.871
 21
6.58421
  0
LINE
  8
0
 10
231.871
 20
6.58421
 11
231.785
 21
6.6516
  0
LINE
  8
0
 10
231.785
 20
6.6516
 11
231.702
 21
6.7243
  0
LINE
  8
0
 10
231.702
 20
6.7243
 11
231.624
 21
6.80203
  0
LINE
  8
0
 10
231.624
 20
6.80203
 11
231.552
 21
6.88451
  0
LINE
  8
0
 10
231.552
 20
6.88451
 11
231.484
 21
6.97137
  0
LINE
  8
0
 10
231.484
 20
6.97137
 11
231.422
 21
7.0623
  0
LINE
  8
0
 10
231.422
 20
7.0623
 11
231.366
 21
7.15692
  0
LINE
  8
0
 10
231.366
 20
7.15692
 11
231.317
 21
7.25488
  0
LINE
  8
0
 10
231.317
 20
7.25488
 11
231.273
 21
7.35577
  0
LINE
  8
0
 10
231.273
 20
7.35577
 11
231.236
 21
7.45921
  0
LINE
  8
0
 10
231.236
 20
7.45921
 11
231.205
 21
7.56479
  0
LINE
  8
0
 10
231.205
 20
7.56479
 11
231.181
 21
7.67207
  0
LINE
  8
0
 10
231.181
 20
7.67207
 11
231.164
 21
7.78065
  0
LINE
  8
0
 10
231.164
 20
7.78065
 11
231.153
 21
7.89011
  0
LINE
  8
0
 10
231.153
 20
7.89011
 11
231.15
 21
8
  0
LINE
  8
0
 10
231.15
 20
8
 11
231.153
 21
8.10988
  0
LINE
  8
0
 10
231.153
 20
8.10988
 11
231.164
 21
8.21933
  0
LINE
  8
0
 10
231.164
 20
8.21933
 11
231.181
 21
8.32791
  0
LINE
  8
0
 10
231.181
 20
8.32791
 11
231.205
 21
8.4352
  0
LINE
  8
0
 10
231.205
 20
8.4352
 11
231.236
 21
8.54077
  0
LINE
  8
0
 10
231.236
 20
8.54077
 11
231.273
 21
8.64421
  0
LINE
  8
0
 10
231.273
 20
8.64421
 11
231.317
 21
8.7451
  0
LINE
  8
0
 10
231.317
 20
8.7451
 11
231.366
 21
8.84306
  0
LINE
  8
0
 10
231.366
 20
8.84306
 11
231.422
 21
8.93768
  0
LINE
  8
0
 10
231.422
 20
8.93768
 11
231.484
 21
9.02861
  0
LINE
  8
0
 10
231.484
 20
9.02861
 11
231.552
 21
9.11548
  0
LINE
  8
0
 10
231.552
 20
9.11548
 11
231.624
 21
9.19795
  0
LINE
  8
0
 10
231.624
 20
9.19795
 11
231.702
 21
9.27568
  0
LINE
  8
0
 10
231.702
 20
9.27568
 11
231.785
 21
9.34839
  0
LINE
  8
0
 10
231.785
 20
9.34839
 11
231.871
 21
9.41577
  0
LINE
  8
0
 10
231.871
 20
9.41577
 11
231.962
 21
9.47757
  0
LINE
  8
0
 10
231.962
 20
9.47757
 11
232.057
 21
9.53352
  0
LINE
  8
0
 10
232.057
 20
9.53352
 11
232.155
 21
9.58344
  0
LINE
  8
0
 10
232.155
 20
9.58344
 11
232.256
 21
9.62711
  0
LINE
  8
0
 10
232.256
 20
9.62711
 11
232.359
 21
9.66434
  0
LINE
  8
0
 10
232.359
 20
9.66434
 11
232.465
 21
9.69501
  0
LINE
  8
0
 10
232.465
 20
9.69501
 11
232.572
 21
9.71899
  0
LINE
  8
0
 10
232.572
 20
9.71899
 11
232.681
 21
9.73619
  0
LINE
  8
0
 10
232.681
 20
9.73619
 11
232.79
 21
9.74654
  0
LINE
  8
0
 10
232.79
 20
9.74654
 11
232.9
 21
9.75
  0
LINE
  8
0
 10
232.9
 20
9.75
 11
233.01
 21
9.74654
  0
LINE
  8
0
 10
233.01
 20
9.74654
 11
233.119
 21
9.73619
  0
LINE
  8
0
 10
233.119
 20
9.73619
 11
233.228
 21
9.71899
  0
LINE
  8
0
 10
233.228
 20
9.71899
 11
233.335
 21
9.69501
  0
LINE
  8
0
 10
233.335
 20
9.69501
 11
233.441
 21
9.66434
  0
LINE
  8
0
 10
233.441
 20
9.66434
 11
233.544
 21
9.62711
  0
LINE
  8
0
 10
233.544
 20
9.62711
 11
233.645
 21
9.58344
  0
LINE
  8
0
 10
233.645
 20
9.58344
 11
233.743
 21
9.53352
  0
LINE
  8
0
 10
233.743
 20
9.53352
 11
233.838
 21
9.47757
  0
LINE
  8
0
 10
233.838
 20
9.47757
 11
233.929
 21
9.41577
  0
LINE
  8
0
 10
233.929
 20
9.41577
 11
234.016
 21
9.34839
  0
LINE
  8
0
 10
234.016
 20
9.34839
 11
234.098
 21
9.27568
  0
LINE
  8
0
 10
234.098
 20
9.27568
 11
234.176
 21
9.19795
  0
LINE
  8
0
 10
234.176
 20
9.19795
 11
234.248
 21
9.11548
  0
LINE
  8
0
 10
234.248
 20
9.11548
 11
234.316
 21
9.02861
  0
LINE
  8
0
 10
234.316
 20
9.02861
 11
234.378
 21
8.93768
  0
LINE
  8
0
 10
234.378
 20
8.93768
 11
234.434
 21
8.84306
  0
LINE
  8
0
 10
234.434
 20
8.84306
 11
234.483
 21
8.7451
  0
LINE
  8
0
 10
234.483
 20
8.7451
 11
234.527
 21
8.64421
  0
LINE
  8
0
 10
234.527
 20
8.64421
 11
234.564
 21
8.54077
  0
LINE
  8
0
 10
234.564
 20
8.54077
 11
234.595
 21
8.4352
  0
LINE
  8
0
 10
234.595
 20
8.4352
 11
234.619
 21
8.32791
  0
LINE
  8
0
 10
234.619
 20
8.32791
 11
234.636
 21
8.21933
  0
LINE
  8
0
 10
234.636
 20
8.21933
 11
234.647
 21
8.10988
  0
LINE
  8
0
 10
234.647
 20
8.10988
 11
234.65
 21
8
  0
LINE
  8
0
 10
234.65
 20
8
 11
234.647
 21
7.89011
  0
LINE
  8
0
 10
234.647
 20
7.89011
 11
234.636
 21
7.78065
  0
LINE
  8
0
 10
234.636
 20
7.78065
 11
234.619
 21
7.67207
  0
LINE
  8
0
 10
234.619
 20
7.67207
 11
234.595
 21
7.56479
  0
LINE
  8
0
 10
234.595
 20
7.56479
 11
234.564
 21
7.45921
  0
LINE
  8
0
 10
234.564
 20
7.45921
 11
234.527
 21
7.35577
  0
LINE
  8
0
 10
234.527
 20
7.35577
 11
234.483
 21
7.25488
  0
LINE
  8
0
 10
234.483
 20
7.25488
 11
234.434
 21
7.15692
  0
LINE
  8
0
 10
234.434
 20
7.15692
 11
234.378
 21
7.0623
  0
LINE
  8
0
 10
234.378
 20
7.0623
 11
234.316
 21
6.97137
  0
LINE
  8
0
 10
234.316
 20
6.97137
 11
234.248
 21
6.88451
  0
LINE
  8
0
 10
234.248
 20
6.88451
 11
234.176
 21
6.80203
  0
LINE
  8
0
 10
234.176
 20
6.80203
 11
234.098
 21
6.7243
  0
LINE
  8
0
 10
234.098
 20
6.7243
 11
234.016
 21
6.6516
  0
LINE
  8
0
 10
234.016
 20
6.6516
 11
233.929
 21
6.58421
  0
LINE
  8
0
 10
233.929
 20
6.58421
 11
233.838
 21
6.52242
  0
LINE
  8
0
 10
233.838
 20
6.52242
 11
233.743
 21
6.46646
  0
LINE
  8
0
 10
233.743
 20
6.46646
 11
233.645
 21
6.41655
  0
LINE
  8
0
 10
233.645
 20
6.41655
 11
233.544
 21
6.37288
  0
LINE
  8
0
 10
233.544
 20
6.37288
 11
233.441
 21
6.33565
  0
LINE
  8
0
 10
233.441
 20
6.33565
 11
233.335
 21
6.30498
  0
LINE
  8
0
 10
233.335
 20
6.30498
 11
233.228
 21
6.28099
  0
LINE
  8
0
 10
233.228
 20
6.28099
 11
233.119
 21
6.26379
  0
LINE
  8
0
 10
233.119
 20
6.26379
 11
233.01
 21
6.25345
  0
LINE
  8
0
 10
233.01
 20
6.25345
 11
232.9
 21
6.25
  0
LINE
  8
0
 10
232.9
 20
6.25
 11
232.79
 21
6.25345
  0
LINE
  8
0
 10
214.975
 20
-7.02499
 11
214.975
 21
7.02499
  0
LINE
  8
0
 10
214.975
 20
7.02499
 11
229.025
 21
7.02499
  0
LINE
  8
0
 10
229.025
 20
7.02499
 11
229.025
 21
-7.02499
  0
LINE
  8
0
 10
229.025
 20
-7.02499
 11
214.975
 21
-7.02499
  0
LINE
  8
0
 10
272.89
 20
1.25345
 11
272.781
 21
1.26379
  0
LINE
  8
0
 10
272.781
 20
1.26379
 11
272.672
 21
1.28099
  0
LINE
  8
0
 10
272.672
 20
1.28099
 11
272.565
 21
1.30498
  0
LINE
  8
0
 10
272.565
 20
1.30498
 11
272.459
 21
1.33565
  0
LINE
  8
0
 10
272.459
 20
1.33565
 11
272.356
 21
1.37288
  0
LINE
  8
0
 10
272.356
 20
1.37288
 11
272.255
 21
1.41655
  0
LINE
  8
0
 10
272.255
 20
1.41655
 11
272.157
 21
1.46646
  0
LINE
  8
0
 10
272.157
 20
1.46646
 11
272.062
 21
1.52242
  0
LINE
  8
0
 10
272.062
 20
1.52242
 11
271.971
 21
1.58421
  0
LINE
  8
0
 10
271.971
 20
1.58421
 11
271.885
 21
1.6516
  0
LINE
  8
0
 10
271.885
 20
1.6516
 11
271.802
 21
1.7243
  0
LINE
  8
0
 10
271.802
 20
1.7243
 11
271.724
 21
1.80203
  0
LINE
  8
0
 10
271.724
 20
1.80203
 11
271.652
 21
1.88451
  0
LINE
  8
0
 10
271.652
 20
1.88451
 11
271.584
 21
1.97137
  0
LINE
  8
0
 10
271.584
 20
1.97137
 11
271.522
 21
2.0623
  0
LINE
  8
0
 10
271.522
 20
2.0623
 11
271.466
 21
2.15692
  0
LINE
  8
0
 10
271.466
 20
2.15692
 11
271.417
 21
2.25488
  0
LINE
  8
0
 10
271.417
 20
2.25488
 11
271.373
 21
2.35577
  0
LINE
  8
0
 10
271.373
 20
2.35577
 11
271.336
 21
2.45921
  0
LINE
  8
0
 10
271.336
 20
2.45921
 11
271.305
 21
2.56479
  0
LINE
  8
0
 10
271.305
 20
2.56479
 11
271.281
 21
2.67207
  0
LINE
  8
0
 10
271.281
 20
2.67207
 11
271.264
 21
2.78065
  0
LINE
  8
0
 10
271.264
 20
2.78065
 11
271.253
 21
2.89011
  0
LINE
  8
0
 10
271.253
 20
2.89011
 11
271.25
 21
3
  0
LINE
  8
0
 10
271.25
 20
3
 11
271.253
 21
3.10988
  0
LINE
  8
0
 10
271.253
 20
3.10988
 11
271.264
 21
3.21933
  0
LINE
  8
0
 10
271.264
 20
3.21933
 11
271.281
 21
3.32791
  0
LINE
  8
0
 10
271.281
 20
3.32791
 11
271.305
 21
3.4352
  0
LINE
  8
0
 10
271.305
 20
3.4352
 11
271.336
 21
3.54077
  0
LINE
  8
0
 10
271.336
 20
3.54077
 11
271.373
 21
3.64421
  0
LINE
  8
0
 10
271.373
 20
3.64421
 11
271.417
 21
3.7451
  0
LINE
  8
0
 10
271.417
 20
3.7451
 11
271.466
 21
3.84306
  0
LINE
  8
0
 10
271.466
 20
3.84306
 11
271.522
 21
3.93768
  0
LINE
  8
0
 10
271.522
 20
3.93768
 11
271.584
 21
4.02861
  0
LINE
  8
0
 10
271.584
 20
4.02861
 11
271.652
 21
4.11548
  0
LINE
  8
0
 10
271.652
 20
4.11548
 11
271.724
 21
4.19795
  0
LINE
  8
0
 10
271.724
 20
4.19795
 11
271.802
 21
4.27568
  0
LINE
  8
0
 10
271.802
 20
4.27568
 11
271.885
 21
4.34839
  0
LINE
  8
0
 10
271.885
 20
4.34839
 11
271.971
 21
4.41577
  0
LINE
  8
0
 10
271.971
 20
4.41577
 11
272.062
 21
4.47757
  0
LINE
  8
0
 10
272.062
 20
4.47757
 11
272.157
 21
4.53352
  0
LINE
  8
0
 10
272.157
 20
4.53352
 11
272.255
 21
4.58344
  0
LINE
  8
0
 10
272.255
 20
4.58344
 11
272.356
 21
4.62711
  0
LINE
  8
0
 10
272.356
 20
4.62711
 11
272.459
 21
4.66434
  0
LINE
  8
0
 10
272.459
 20
4.66434
 11
272.565
 21
4.69501
  0
LINE
  8
0
 10
272.565
 20
4.69501
 11
272.672
 21
4.71899
  0
LINE
  8
0
 10
272.672
 20
4.71899
 11
272.781
 21
4.73619
  0
LINE
  8
0
 10
272.781
 20
4.73619
 11
272.89
 21
4.74654
  0
LINE
  8
0
 10
272.89
 20
4.74654
 11
273
 21
4.75
  0
LINE
  8
0
 10
273
 20
4.75
 11
273.11
 21
4.74654
  0
LINE
  8
0
 10
273.11
 20
4.74654
 11
273.219
 21
4.73619
  0
LINE
  8
0
 10
273.219
 20
4.73619
 11
273.328
 21
4.71899
  0
LINE
  8
0
 10
273.328
 20
4.71899
 11
273.435
 21
4.69501
  0
LINE
  8
0
 10
273.435
 20
4.69501
 11
273.541
 21
4.66434
  0
LINE
  8
0
 10
273.541
 20
4.66434
 11
273.644
 21
4.62711
  0
LINE
  8
0
 10
273.644
 20
4.62711
 11
273.745
 21
4.58344
  0
LINE
  8
0
 10
273.745
 20
4.58344
 11
273.843
 21
4.53352
  0
LINE
  8
0
 10
273.843
 20
4.53352
 11
273.938
 21
4.47757
  0
LINE
  8
0
 10
273.938
 20
4.47757
 11
274.029
 21
4.41577
  0
LINE
  8
0
 10
274.029
 20
4.41577
 11
274.115
 21
4.34839
  0
LINE
  8
0
 10
274.115
 20
4.34839
 11
274.198
 21
4.27568
  0
LINE
  8
0
 10
274.198
 20
4.27568
 11
274.276
 21
4.19795
  0
LINE
  8
0
 10
274.276
 20
4.19795
 11
274.348
 21
4.11548
  0
LINE
  8
0
 10
274.348
 20
4.11548
 11
274.416
 21
4.02861
  0
LINE
  8
0
 10
274.416
 20
4.02861
 11
274.478
 21
3.93768
  0
LINE
  8
0
 10
274.478
 20
3.93768
 11
274.534
 21
3.84306
  0
LINE
  8
0
 10
274.534
 20
3.84306
 11
274.583
 21
3.7451
  0
LINE
  8
0
 10
274.583
 20
3.7451
 11
274.627
 21
3.64421
  0
LINE
  8
0
 10
274.627
 20
3.64421
 11
274.664
 21
3.54077
  0
LINE
  8
0
 10
274.664
 20
3.54077
 11
274.695
 21
3.4352
  0
LINE
  8
0
 10
274.695
 20
3.4352
 11
274.719
 21
3.32791
  0
LINE
  8
0
 10
274.719
 20
3.32791
 11
274.736
 21
3.21933
  0
LINE
  8
0
 10
274.736
 20
3.21933
 11
274.747
 21
3.10988
  0
LINE
  8
0
 10
274.747
 20
3.10988
 11
274.75
 21
3
  0
LINE
  8
0
 10
274.75
 20
3
 11
274.747
 21
2.89011
  0
LINE
  8
0
 10
274.747
 20
2.89011
 11
274.736
 21
2.78065
  0
LINE
  8
0
 10
274.736
 20
2.78065
 11
274.719
 21
2.67207
  0
LINE
  8
0
 10
274.719
 20
2.67207
 11
274.695
 21
2.56479
  0
LINE
  8
0
 10
274.695
 20
2.56479
 11
274.664
 21
2.45921
  0
LINE
  8
0
 10
274.664
 20
2.45921
 11
274.627
 21
2.35577
  0
LINE
  8
0
 10
274.627
 20
2.35577
 11
274.583
 21
2.25488
  0
LINE
  8
0
 10
274.583
 20
2.25488
 11
274.534
 21
2.15692
  0
LINE
  8
0
 10
274.534
 20
2.15692
 11
274.478
 21
2.0623
  0
LINE
  8
0
 10
274.478
 20
2.0623
 11
274.416
 21
1.97137
  0
LINE
  8
0
 10
274.416
 20
1.97137
 11
274.348
 21
1.88451
  0
LINE
  8
0
 10
274.348
 20
1.88451
 11
274.276
 21
1.80203
  0
LINE
  8
0
 10
274.276
 20
1.80203
 11
274.198
 21
1.7243
  0
LINE
  8
0
 10
274.198
 20
1.7243
 11
274.115
 21
1.6516
  0
LINE
  8
0
 10
274.115
 20
1.6516
 11
274.029
 21
1.58421
  0
LINE
  8
0
 10
274.029
 20
1.58421
 11
273.938
 21
1.52242
  0
LINE
  8
0
 10
273.938
 20
1.52242
 11
273.843
 21
1.46646
  0
LINE
  8
0
 10
273.843
 20
1.46646
 11
273.745
 21
1.41655
  0
LINE
  8
0
 10
273.745
 20
1.41655
 11
273.644
 21
1.37288
  0
LINE
  8
0
 10
273.644
 20
1.37288
 11
273.541
 21
1.33565
  0
LINE
  8
0
 10
273.541
 20
1.33565
 11
273.435
 21
1.30498
  0
LINE
  8
0
 10
273.435
 20
1.30498
 11
273.328
 21
1.28099
  0
LINE
  8
0
 10
273.328
 20
1.28099
 11
273.219
 21
1.26379
  0
LINE
  8
0
 10
273.219
 20
1.26379
 11
273.11
 21
1.25345
  0
LINE
  8
0
 10
273.11
 20
1.25345
 11
273
 21
1.25
  0
LINE
  8
0
 10
273
 20
1.25
 11
272.89
 21
1.25345
  0
LINE
  8
0
 10
234.975
 20
-9.52499
 11
234.975
 21
4.52499
  0
LINE
  8
0
 10
234.975
 20
4.52499
 11
249.025
 21
4.52499
  0
LINE
  8
0
 10
249.025
 20
4.52499
 11
249.025
 21
-9.52499
  0
LINE
  8
0
 10
249.025
 20
-9.52499
 11
234.975
 21
-9.52499
  0
LINE
  8
0
 10
196.475
 20
-9.52499
 11
196.475
 21
4.52499
  0
LINE
  8
0
 10
196.475
 20
4.52499
 11
210.525
 21
4.52499
  0
LINE
  8
0
 10
210.525
 20
4.52499
 11
210.525
 21
-9.52499
  0
LINE
  8
0
 10
210.525
 20
-9.52499
 11
196.475
 21
-9.52499
  0
LINE
  8
0
 10
179.975
 20
-10.025
 11
179.975
 21
4.02499
  0
LINE
  8
0
 10
179.975
 20
4.02499
 11
194.025
 21
4.02499
  0
LINE
  8
0
 10
194.025
 20
4.02499
 11
194.025
 21
-10.025
  0
LINE
  8
0
 10
194.025
 20
-10.025
 11
179.975
 21
-10.025
  0
LINE
  8
0
 10
254.975
 20
-11.025
 11
254.975
 21
3.02499
  0
LINE
  8
0
 10
254.975
 20
3.02499
 11
269.025
 21
3.02499
  0
LINE
  8
0
 10
269.025
 20
3.02499
 11
269.025
 21
-11.025
  0
LINE
  8
0
 10
269.025
 20
-11.025
 11
254.975
 21
-11.025
  0
LINE
  8
0
 10
272.975
 20
-15.025
 11
272.975
 21
-0.974991
  0
LINE
  8
0
 10
272.975
 20
-0.974991
 11
287.025
 21
-0.974991
  0
LINE
  8
0
 10
287.025
 20
-0.974991
 11
287.025
 21
-15.025
  0
LINE
  8
0
 10
287.025
 20
-15.025
 11
272.975
 21
-15.025
  0
LINE
  8
0
 10
214.975
 20
-25.025
 11
214.975
 21
-10.975
  0
LINE
  8
0
 10
214.975
 20
-10.975
 11
229.025
 21
-10.975
  0
LINE
  8
0
 10
229.025
 20
-10.975
 11
229.025
 21
-25.025
  0
LINE
  8
0
 10
229.025
 20
-25.025
 11
214.975
 21
-25.025
  0
LINE
  8
0
 10
179.975
 20
-26.025
 11
179.975
 21
-11.975
  0
LINE
  8
0
 10
179.975
 20
-11.975
 11
194.025
 21
-11.975
  0
LINE
  8
0
 10
194.025
 20
-11.975
 11
194.025
 21
-26.025
  0
LINE
  8
0
 10
194.025
 20
-26.025
 11
179.975
 21
-26.025
  0
LINE
  8
0
 10
234.975
 20
-27.525
 11
234.975
 21
-13.475
  0
LINE
  8
0
 10
234.975
 20
-13.475
 11
249.025
 21
-13.475
  0
LINE
  8
0
 10
249.025
 20
-13.475
 11
249.025
 21
-27.525
  0
LINE
  8
0
 10
249.025
 20
-27.525
 11
234.975
 21
-27.525
  0
LINE
  8
0
 10
196.475
 20
-27.525
 11
196.475
 21
-13.475
  0
LINE
  8
0
 10
196.475
 20
-13.475
 11
210.525
 21
-13.475
  0
LINE
  8
0
 10
210.525
 20
-13.475
 11
210.525
 21
-27.525
  0
LINE
  8
0
 10
210.525
 20
-27.525
 11
196.475
 21
-27.525
  0
LINE
  8
0
 10
254.975
 20
-29.025
 11
254.975
 21
-14.975
  0
LINE
  8
0
 10
254.975
 20
-14.975
 11
269.025
 21
-14.975
  0
LINE
  8
0
 10
269.025
 20
-14.975
 11
269.025
 21
-29.025
  0
LINE
  8
0
 10
269.025
 20
-29.025
 11
254.975
 21
-29.025
  0
LINE
  8
0
 10
272.975
 20
-31.025
 11
272.975
 21
-16.975
  0
LINE
  8
0
 10
272.975
 20
-16.975
 11
287.025
 21
-16.975
  0
LINE
  8
0
 10
287.025
 20
-16.975
 11
287.025
 21
-31.025
  0
LINE
  8
0
 10
287.025
 20
-31.025
 11
272.975
 21
-31.025
  0
LINE
  8
0
 10
167.79
 20
-26.7465
 11
167.681
 21
-26.7362
  0
LINE
  8
0
 10
167.681
 20
-26.7362
 11
167.572
 21
-26.719
  0
LINE
  8
0
 10
167.572
 20
-26.719
 11
167.465
 21
-26.695
  0
LINE
  8
0
 10
167.465
 20
-26.695
 11
167.359
 21
-26.6643
  0
LINE
  8
0
 10
167.359
 20
-26.6643
 11
167.256
 21
-26.6271
  0
LINE
  8
0
 10
167.256
 20
-26.6271
 11
167.155
 21
-26.5834
  0
LINE
  8
0
 10
167.155
 20
-26.5834
 11
167.057
 21
-26.5335
  0
LINE
  8
0
 10
167.057
 20
-26.5335
 11
166.962
 21
-26.4776
  0
LINE
  8
0
 10
166.962
 20
-26.4776
 11
166.871
 21
-26.4158
  0
LINE
  8
0
 10
166.871
 20
-26.4158
 11
166.785
 21
-26.3484
  0
LINE
  8
0
 10
166.785
 20
-26.3484
 11
166.702
 21
-26.2757
  0
LINE
  8
0
 10
166.702
 20
-26.2757
 11
166.624
 21
-26.198
  0
LINE
  8
0
 10
166.624
 20
-26.198
 11
166.552
 21
-26.1155
  0
LINE
  8
0
 10
166.552
 20
-26.1155
 11
166.484
 21
-26.0286
  0
LINE
  8
0
 10
166.484
 20
-26.0286
 11
166.422
 21
-25.9377
  0
LINE
  8
0
 10
166.422
 20
-25.9377
 11
166.366
 21
-25.8431
  0
LINE
  8
0
 10
166.366
 20
-25.8431
 11
166.317
 21
-25.7451
  0
LINE
  8
0
 10
166.317
 20
-25.7451
 11
166.273
 21
-25.6442
  0
LINE
  8
0
 10
166.273
 20
-25.6442
 11
166.236
 21
-25.5408
  0
LINE
  8
0
 10
166.236
 20
-25.5408
 11
166.205
 21
-25.4352
  0
LINE
  8
0
 10
166.205
 20
-25.4352
 11
166.181
 21
-25.3279
  0
LINE
  8
0
 10
166.181
 20
-25.3279
 11
166.164
 21
-25.2193
  0
LINE
  8
0
 10
166.164
 20
-25.2193
 11
166.153
 21
-25.1099
  0
LINE
  8
0
 10
166.153
 20
-25.1099
 11
166.15
 21
-25
  0
LINE
  8
0
 10
166.15
 20
-25
 11
166.153
 21
-24.8901
  0
LINE
  8
0
 10
166.153
 20
-24.8901
 11
166.164
 21
-24.7807
  0
LINE
  8
0
 10
166.164
 20
-24.7807
 11
166.181
 21
-24.6721
  0
LINE
  8
0
 10
166.181
 20
-24.6721
 11
166.205
 21
-24.5648
  0
LINE
  8
0
 10
166.205
 20
-24.5648
 11
166.236
 21
-24.4592
  0
LINE
  8
0
 10
166.236
 20
-24.4592
 11
166.273
 21
-24.3558
  0
LINE
  8
0
 10
166.273
 20
-24.3558
 11
166.317
 21
-24.2549
  0
LINE
  8
0
 10
166.317
 20
-24.2549
 11
166.366
 21
-24.1569
  0
LINE
  8
0
 10
166.366
 20
-24.1569
 11
166.422
 21
-24.0623
  0
LINE
  8
0
 10
166.422
 20
-24.0623
 11
166.484
 21
-23.9714
  0
LINE
  8
0
 10
166.484
 20
-23.9714
 11
166.552
 21
-23.8845
  0
LINE
  8
0
 10
166.552
 20
-23.8845
 11
166.624
 21
-23.802
  0
LINE
  8
0
 10
166.624
 20
-23.802
 11
166.702
 21
-23.7243
  0
LINE
  8
0
 10
166.702
 20
-23.7243
 11
166.785
 21
-23.6516
  0
LINE
  8
0
 10
166.785
 20
-23.6516
 11
166.871
 21
-23.5842
  0
LINE
  8
0
 10
166.871
 20
-23.5842
 11
166.962
 21
-23.5224
  0
LINE
  8
0
 10
166.962
 20
-23.5224
 11
167.057
 21
-23.4665
  0
LINE
  8
0
 10
167.057
 20
-23.4665
 11
167.155
 21
-23.4165
  0
LINE
  8
0
 10
167.155
 20
-23.4165
 11
167.256
 21
-23.3729
  0
LINE
  8
0
 10
167.256
 20
-23.3729
 11
167.359
 21
-23.3356
  0
LINE
  8
0
 10
167.359
 20
-23.3356
 11
167.465
 21
-23.305
  0
LINE
  8
0
 10
167.465
 20
-23.305
 11
167.572
 21
-23.281
  0
LINE
  8
0
 10
167.572
 20
-23.281
 11
167.681
 21
-23.2638
  0
LINE
  8
0
 10
167.681
 20
-23.2638
 11
167.79
 21
-23.2534
  0
LINE
  8
0
 10
167.79
 20
-23.2534
 11
167.9
 21
-23.25
  0
LINE
  8
0
 10
167.9
 20
-23.25
 11
168.01
 21
-23.2534
  0
LINE
  8
0
 10
168.01
 20
-23.2534
 11
168.119
 21
-23.2638
  0
LINE
  8
0
 10
168.119
 20
-23.2638
 11
168.228
 21
-23.281
  0
LINE
  8
0
 10
168.228
 20
-23.281
 11
168.335
 21
-23.305
  0
LINE
  8
0
 10
168.335
 20
-23.305
 11
168.441
 21
-23.3356
  0
LINE
  8
0
 10
168.441
 20
-23.3356
 11
168.544
 21
-23.3729
  0
LINE
  8
0
 10
168.544
 20
-23.3729
 11
168.645
 21
-23.4165
  0
LINE
  8
0
 10
168.645
 20
-23.4165
 11
168.743
 21
-23.4665
  0
LINE
  8
0
 10
168.743
 20
-23.4665
 11
168.838
 21
-23.5224
  0
LINE
  8
0
 10
168.838
 20
-23.5224
 11
168.929
 21
-23.5842
  0
LINE
  8
0
 10
168.929
 20
-23.5842
 11
169.016
 21
-23.6516
  0
LINE
  8
0
 10
169.016
 20
-23.6516
 11
169.098
 21
-23.7243
  0
LINE
  8
0
 10
169.098
 20
-23.7243
 11
169.176
 21
-23.802
  0
LINE
  8
0
 10
169.176
 20
-23.802
 11
169.248
 21
-23.8845
  0
LINE
  8
0
 10
169.248
 20
-23.8845
 11
169.316
 21
-23.9714
  0
LINE
  8
0
 10
169.316
 20
-23.9714
 11
169.378
 21
-24.0623
  0
LINE
  8
0
 10
169.378
 20
-24.0623
 11
169.434
 21
-24.1569
  0
LINE
  8
0
 10
169.434
 20
-24.1569
 11
169.483
 21
-24.2549
  0
LINE
  8
0
 10
169.483
 20
-24.2549
 11
169.527
 21
-24.3558
  0
LINE
  8
0
 10
169.527
 20
-24.3558
 11
169.564
 21
-24.4592
  0
LINE
  8
0
 10
169.564
 20
-24.4592
 11
169.595
 21
-24.5648
  0
LINE
  8
0
 10
169.595
 20
-24.5648
 11
169.619
 21
-24.6721
  0
LINE
  8
0
 10
169.619
 20
-24.6721
 11
169.636
 21
-24.7807
  0
LINE
  8
0
 10
169.636
 20
-24.7807
 11
169.647
 21
-24.8901
  0
LINE
  8
0
 10
169.647
 20
-24.8901
 11
169.65
 21
-25
  0
LINE
  8
0
 10
169.65
 20
-25
 11
169.647
 21
-25.1099
  0
LINE
  8
0
 10
169.647
 20
-25.1099
 11
169.636
 21
-25.2193
  0
LINE
  8
0
 10
169.636
 20
-25.2193
 11
169.619
 21
-25.3279
  0
LINE
  8
0
 10
169.619
 20
-25.3279
 11
169.595
 21
-25.4352
  0
LINE
  8
0
 10
169.595
 20
-25.4352
 11
169.564
 21
-25.5408
  0
LINE
  8
0
 10
169.564
 20
-25.5408
 11
169.527
 21
-25.6442
  0
LINE
  8
0
 10
169.527
 20
-25.6442
 11
169.483
 21
-25.7451
  0
LINE
  8
0
 10
169.483
 20
-25.7451
 11
169.434
 21
-25.8431
  0
LINE
  8
0
 10
169.434
 20
-25.8431
 11
169.378
 21
-25.9377
  0
LINE
  8
0
 10
169.378
 20
-25.9377
 11
169.316
 21
-26.0286
  0
LINE
  8
0
 10
169.316
 20
-26.0286
 11
169.248
 21
-26.1155
  0
LINE
  8
0
 10
169.248
 20
-26.1155
 11
169.176
 21
-26.198
  0
LINE
  8
0
 10
169.176
 20
-26.198
 11
169.098
 21
-26.2757
  0
LINE
  8
0
 10
169.098
 20
-26.2757
 11
169.016
 21
-26.3484
  0
LINE
  8
0
 10
169.016
 20
-26.3484
 11
168.929
 21
-26.4158
  0
LINE
  8
0
 10
168.929
 20
-26.4158
 11
168.838
 21
-26.4776
  0
LINE
  8
0
 10
168.838
 20
-26.4776
 11
168.743
 21
-26.5335
  0
LINE
  8
0
 10
168.743
 20
-26.5335
 11
168.645
 21
-26.5834
  0
LINE
  8
0
 10
168.645
 20
-26.5834
 11
168.544
 21
-26.6271
  0
LINE
  8
0
 10
168.544
 20
-26.6271
 11
168.441
 21
-26.6643
  0
LINE
  8
0
 10
168.441
 20
-26.6643
 11
168.335
 21
-26.695
  0
LINE
  8
0
 10
168.335
 20
-26.695
 11
168.228
 21
-26.719
  0
LINE
  8
0
 10
168.228
 20
-26.719
 11
168.119
 21
-26.7362
  0
LINE
  8
0
 10
168.119
 20
-26.7362
 11
168.01
 21
-26.7465
  0
LINE
  8
0
 10
168.01
 20
-26.7465
 11
167.9
 21
-26.75
  0
LINE
  8
0
 10
167.9
 20
-26.75
 11
167.79
 21
-26.7465
  0
LINE
  8
0
 10
179.975
 20
-42.025
 11
179.975
 21
-27.975
  0
LINE
  8
0
 10
179.975
 20
-27.975
 11
194.025
 21
-27.975
  0
LINE
  8
0
 10
194.025
 20
-27.975
 11
194.025
 21
-42.025
  0
LINE
  8
0
 10
194.025
 20
-42.025
 11
179.975
 21
-42.025
  0
LINE
  8
0
 10
214.975
 20
-43.025
 11
214.975
 21
-28.975
  0
LINE
  8
0
 10
214.975
 20
-28.975
 11
229.025
 21
-28.975
  0
LINE
  8
0
 10
229.025
 20
-28.975
 11
229.025
 21
-43.025
  0
LINE
  8
0
 10
229.025
 20
-43.025
 11
214.975
 21
-43.025
  0
LINE
  8
0
 10
234.975
 20
-45.525
 11
234.975
 21
-31.475
  0
LINE
  8
0
 10
234.975
 20
-31.475
 11
249.025
 21
-31.475
  0
LINE
  8
0
 10
249.025
 20
-31.475
 11
249.025
 21
-45.525
  0
LINE
  8
0
 10
249.025
 20
-45.525
 11
234.975
 21
-45.525
  0
LINE
  8
0
 10
196.475
 20
-45.525
 11
196.475
 21
-31.475
  0
LINE
  8
0
 10
196.475
 20
-31.475
 11
210.525
 21
-31.475
  0
LINE
  8
0
 10
210.525
 20
-31.475
 11
210.525
 21
-45.525
  0
LINE
  8
0
 10
210.525
 20
-45.525
 11
196.475
 21
-45.525
  0
LINE
  8
0
 10
254.975
 20
-47.025
 11
254.975
 21
-32.975
  0
LINE
  8
0
 10
254.975
 20
-32.975
 11
269.025
 21
-32.975
  0
LINE
  8
0
 10
269.025
 20
-32.975
 11
269.025
 21
-47.025
  0
LINE
  8
0
 10
269.025
 20
-47.025
 11
254.975
 21
-47.025
  0
LINE
  8
0
 10
272.89
 20
-36.7465
 11
272.781
 21
-36.7362
  0
LINE
  8
0
 10
272.781
 20
-36.7362
 11
272.672
 21
-36.719
  0
LINE
  8
0
 10
272.672
 20
-36.719
 11
272.565
 21
-36.695
  0
LINE
  8
0
 10
272.565
 20
-36.695
 11
272.459
 21
-36.6643
  0
LINE
  8
0
 10
272.459
 20
-36.6643
 11
272.356
 21
-36.6271
  0
LINE
  8
0
 10
272.356
 20
-36.6271
 11
272.255
 21
-36.5834
  0
LINE
  8
0
 10
272.255
 20
-36.5834
 11
272.157
 21
-36.5335
  0
LINE
  8
0
 10
272.157
 20
-36.5335
 11
272.062
 21
-36.4776
  0
LINE
  8
0
 10
272.062
 20
-36.4776
 11
271.971
 21
-36.4158
  0
LINE
  8
0
 10
271.971
 20
-36.4158
 11
271.885
 21
-36.3484
  0
LINE
  8
0
 10
271.885
 20
-36.3484
 11
271.802
 21
-36.2757
  0
LINE
  8
0
 10
271.802
 20
-36.2757
 11
271.724
 21
-36.198
  0
LINE
  8
0
 10
271.724
 20
-36.198
 11
271.652
 21
-36.1155
  0
LINE
  8
0
 10
271.652
 20
-36.1155
 11
271.584
 21
-36.0286
  0
LINE
  8
0
 10
271.584
 20
-36.0286
 11
271.522
 21
-35.9377
  0
LINE
  8
0
 10
271.522
 20
-35.9377
 11
271.466
 21
-35.8431
  0
LINE
  8
0
 10
271.466
 20
-35.8431
 11
271.417
 21
-35.7451
  0
LINE
  8
0
 10
271.417
 20
-35.7451
 11
271.373
 21
-35.6442
  0
LINE
  8
0
 10
271.373
 20
-35.6442
 11
271.336
 21
-35.5408
  0
LINE
  8
0
 10
271.336
 20
-35.5408
 11
271.305
 21
-35.4352
  0
LINE
  8
0
 10
271.305
 20
-35.4352
 11
271.281
 21
-35.3279
  0
LINE
  8
0
 10
271.281
 20
-35.3279
 11
271.264
 21
-35.2193
  0
LINE
  8
0
 10
271.264
 20
-35.2193
 11
271.253
 21
-35.1099
  0
LINE
  8
0
 10
271.253
 20
-35.1099
 11
271.25
 21
-35
  0
LINE
  8
0
 10
271.25
 20
-35
 11
271.253
 21
-34.8901
  0
LINE
  8
0
 10
271.253
 20
-34.8901
 11
271.264
 21
-34.7807
  0
LINE
  8
0
 10
271.264
 20
-34.7807
 11
271.281
 21
-34.6721
  0
LINE
  8
0
 10
271.281
 20
-34.6721
 11
271.305
 21
-34.5648
  0
LINE
  8
0
 10
271.305
 20
-34.5648
 11
271.336
 21
-34.4592
  0
LINE
  8
0
 10
271.336
 20
-34.4592
 11
271.373
 21
-34.3558
  0
LINE
  8
0
 10
271.373
 20
-34.3558
 11
271.417
 21
-34.2549
  0
LINE
  8
0
 10
271.417
 20
-34.2549
 11
271.466
 21
-34.1569
  0
LINE
  8
0
 10
271.466
 20
-34.1569
 11
271.522
 21
-34.0623
  0
LINE
  8
0
 10
271.522
 20
-34.0623
 11
271.584
 21
-33.9714
  0
LINE
  8
0
 10
271.584
 20
-33.9714
 11
271.652
 21
-33.8845
  0
LINE
  8
0
 10
271.652
 20
-33.8845
 11
271.724
 21
-33.802
  0
LINE
  8
0
 10
271.724
 20
-33.802
 11
271.802
 21
-33.7243
  0
LINE
  8
0
 10
271.802
 20
-33.7243
 11
271.885
 21
-33.6516
  0
LINE
  8
0
 10
271.885
 20
-33.6516
 11
271.971
 21
-33.5842
  0
LINE
  8
0
 10
271.971
 20
-33.5842
 11
272.062
 21
-33.5224
  0
LINE
  8
0
 10
272.062
 20
-33.5224
 11
272.157
 21
-33.4665
  0
LINE
  8
0
 10
272.157
 20
-33.4665
 11
272.255
 21
-33.4165
  0
LINE
  8
0
 10
272.255
 20
-33.4165
 11
272.356
 21
-33.3729
  0
LINE
  8
0
 10
272.356
 20
-33.3729
 11
272.459
 21
-33.3356
  0
LINE
  8
0
 10
272.459
 20
-33.3356
 11
272.565
 21
-33.305
  0
LINE
  8
0
 10
272.565
 20
-33.305
 11
272.672
 21
-33.281
  0
LINE
  8
0
 10
272.672
 20
-33.281
 11
272.781
 21
-33.2638
  0
LINE
  8
0
 10
272.781
 20
-33.2638
 11
272.89
 21
-33.2534
  0
LINE
  8
0
 10
272.89
 20
-33.2534
 11
273
 21
-33.25
  0
LINE
  8
0
 10
273
 20
-33.25
 11
273.11
 21
-33.2534
  0
LINE
  8
0
 10
273.11
 20
-33.2534
 11
273.219
 21
-33.2638
  0
LINE
  8
0
 10
273.219
 20
-33.2638
 11
273.328
 21
-33.281
  0
LINE
  8
0
 10
273.328
 20
-33.281
 11
273.435
 21
-33.305
  0
LINE
  8
0
 10
273.435
 20
-33.305
 11
273.541
 21
-33.3356
  0
LINE
  8
0
 10
273.541
 20
-33.3356
 11
273.644
 21
-33.3729
  0
LINE
  8
0
 10
273.644
 20
-33.3729
 11
273.745
 21
-33.4165
  0
LINE
  8
0
 10
273.745
 20
-33.4165
 11
273.843
 21
-33.4665
  0
LINE
  8
0
 10
273.843
 20
-33.4665
 11
273.938
 21
-33.5224
  0
LINE
  8
0
 10
273.938
 20
-33.5224
 11
274.029
 21
-33.5842
  0
LINE
  8
0
 10
274.029
 20
-33.5842
 11
274.115
 21
-33.6516
  0
LINE
  8
0
 10
274.115
 20
-33.6516
 11
274.198
 21
-33.7243
  0
LINE
  8
0
 10
274.198
 20
-33.7243
 11
274.276
 21
-33.802
  0
LINE
  8
0
 10
274.276
 20
-33.802
 11
274.348
 21
-33.8845
  0
LINE
  8
0
 10
274.348
 20
-33.8845
 11
274.416
 21
-33.9714
  0
LINE
  8
0
 10
274.416
 20
-33.9714
 11
274.478
 21
-34.0623
  0
LINE
  8
0
 10
274.478
 20
-34.0623
 11
274.534
 21
-34.1569
  0
LINE
  8
0
 10
274.534
 20
-34.1569
 11
274.583
 21
-34.2549
  0
LINE
  8
0
 10
274.583
 20
-34.2549
 11
274.627
 21
-34.3558
  0
LINE
  8
0
 10
274.627
 20
-34.3558
 11
274.664
 21
-34.4592
  0
LINE
  8
0
 10
274.664
 20
-34.4592
 11
274.695
 21
-34.5648
  0
LINE
  8
0
 10
274.695
 20
-34.5648
 11
274.719
 21
-34.6721
  0
LINE
  8
0
 10
274.719
 20
-34.6721
 11
274.736
 21
-34.7807
  0
LINE
  8
0
 10
274.736
 20
-34.7807
 11
274.747
 21
-34.8901
  0
LINE
  8
0
 10
274.747
 20
-34.8901
 11
274.75
 21
-35
  0
LINE
  8
0
 10
274.75
 20
-35
 11
274.747
 21
-35.1099
  0
LINE
  8
0
 10
274.747
 20
-35.1099
 11
274.736
 21
-35.2193
  0
LINE
  8
0
 10
274.736
 20
-35.2193
 11
274.719
 21
-35.3279
  0
LINE
  8
0
 10
274.719
 20
-35.3279
 11
274.695
 21
-35.4352
  0
LINE
  8
0
 10
274.695
 20
-35.4352
 11
274.664
 21
-35.5408
  0
LINE
  8
0
 10
274.664
 20
-35.5408
 11
274.627
 21
-35.6442
  0
LINE
  8
0
 10
274.627
 20
-35.6442
 11
274.583
 21
-35.7451
  0
LINE
  8
0
 10
274.583
 20
-35.7451
 11
274.534
 21
-35.8431
  0
LINE
  8
0
 10
274.534
 20
-35.8431
 11
274.478
 21
-35.9377
  0
LINE
  8
0
 10
274.478
 20
-35.9377
 11
274.416
 21
-36.0286
  0
LINE
  8
0
 10
274.416
 20
-36.0286
 11
274.348
 21
-36.1155
  0
LINE
  8
0
 10
274.348
 20
-36.1155
 11
274.276
 21
-36.198
  0
LINE
  8
0
 10
274.276
 20
-36.198
 11
274.198
 21
-36.2757
  0
LINE
  8
0
 10
274.198
 20
-36.2757
 11
274.115
 21
-36.3484
  0
LINE
  8
0
 10
274.115
 20
-36.3484
 11
274.029
 21
-36.4158
  0
LINE
  8
0
 10
274.029
 20
-36.4158
 11
273.938
 21
-36.4776
  0
LINE
  8
0
 10
273.938
 20
-36.4776
 11
273.843
 21
-36.5335
  0
LINE
  8
0
 10
273.843
 20
-36.5335
 11
273.745
 21
-36.5834
  0
LINE
  8
0
 10
273.745
 20
-36.5834
 11
273.644
 21
-36.6271
  0
LINE
  8
0
 10
273.644
 20
-36.6271
 11
273.541
 21
-36.6643
  0
LINE
  8
0
 10
273.541
 20
-36.6643
 11
273.435
 21
-36.695
  0
LINE
  8
0
 10
273.435
 20
-36.695
 11
273.328
 21
-36.719
  0
LINE
  8
0
 10
273.328
 20
-36.719
 11
273.219
 21
-36.7362
  0
LINE
  8
0
 10
273.219
 20
-36.7362
 11
273.11
 21
-36.7465
  0
LINE
  8
0
 10
273.11
 20
-36.7465
 11
273
 21
-36.75
  0
LINE
  8
0
 10
273
 20
-36.75
 11
272.89
 21
-36.7465
  0
LINE
  8
0
 10
193.39
 20
-49.9465
 11
193.281
 21
-49.9362
  0
LINE
  8
0
 10
193.281
 20
-49.9362
 11
193.172
 21
-49.919
  0
LINE
  8
0
 10
193.172
 20
-49.919
 11
193.065
 21
-49.895
  0
LINE
  8
0
 10
193.065
 20
-49.895
 11
192.959
 21
-49.8643
  0
LINE
  8
0
 10
192.959
 20
-49.8643
 11
192.856
 21
-49.8271
  0
LINE
  8
0
 10
192.856
 20
-49.8271
 11
192.755
 21
-49.7834
  0
LINE
  8
0
 10
192.755
 20
-49.7834
 11
192.657
 21
-49.7335
  0
LINE
  8
0
 10
192.657
 20
-49.7335
 11
192.562
 21
-49.6776
  0
LINE
  8
0
 10
192.562
 20
-49.6776
 11
192.471
 21
-49.6158
  0
LINE
  8
0
 10
192.471
 20
-49.6158
 11
192.385
 21
-49.5484
  0
LINE
  8
0
 10
192.385
 20
-49.5484
 11
192.302
 21
-49.4757
  0
LINE
  8
0
 10
192.302
 20
-49.4757
 11
192.224
 21
-49.3979
  0
LINE
  8
0
 10
192.224
 20
-49.3979
 11
192.152
 21
-49.3155
  0
LINE
  8
0
 10
192.152
 20
-49.3155
 11
192.084
 21
-49.2286
  0
LINE
  8
0
 10
192.084
 20
-49.2286
 11
192.022
 21
-49.1377
  0
LINE
  8
0
 10
192.022
 20
-49.1377
 11
191.966
 21
-49.0431
  0
LINE
  8
0
 10
191.966
 20
-49.0431
 11
191.917
 21
-48.9451
  0
LINE
  8
0
 10
191.917
 20
-48.9451
 11
191.873
 21
-48.8442
  0
LINE
  8
0
 10
191.873
 20
-48.8442
 11
191.836
 21
-48.7408
  0
LINE
  8
0
 10
191.836
 20
-48.7408
 11
191.805
 21
-48.6352
  0
LINE
  8
0
 10
191.805
 20
-48.6352
 11
191.781
 21
-48.5279
  0
LINE
  8
0
 10
191.781
 20
-48.5279
 11
191.764
 21
-48.4193
  0
LINE
  8
0
 10
191.764
 20
-48.4193
 11
191.753
 21
-48.3099
  0
LINE
  8
0
 10
191.753
 20
-48.3099
 11
191.75
 21
-48.2
  0
LINE
  8
0
 10
191.75
 20
-48.2
 11
191.753
 21
-48.0901
  0
LINE
  8
0
 10
191.753
 20
-48.0901
 11
191.764
 21
-47.9807
  0
LINE
  8
0
 10
191.764
 20
-47.9807
 11
191.781
 21
-47.8721
  0
LINE
  8
0
 10
191.781
 20
-47.8721
 11
191.805
 21
-47.7648
  0
LINE
  8
0
 10
191.805
 20
-47.7648
 11
191.836
 21
-47.6592
  0
LINE
  8
0
 10
191.836
 20
-47.6592
 11
191.873
 21
-47.5558
  0
LINE
  8
0
 10
191.873
 20
-47.5558
 11
191.917
 21
-47.4549
  0
LINE
  8
0
 10
191.917
 20
-47.4549
 11
191.966
 21
-47.3569
  0
LINE
  8
0
 10
191.966
 20
-47.3569
 11
192.022
 21
-47.2623
  0
LINE
  8
0
 10
192.022
 20
-47.2623
 11
192.084
 21
-47.1714
  0
LINE
  8
0
 10
192.084
 20
-47.1714
 11
192.152
 21
-47.0845
  0
LINE
  8
0
 10
192.152
 20
-47.0845
 11
192.224
 21
-47.002
  0
LINE
  8
0
 10
192.224
 20
-47.002
 11
192.302
 21
-46.9243
  0
LINE
  8
0
 10
192.302
 20
-46.9243
 11
192.385
 21
-46.8516
  0
LINE
  8
0
 10
192.385
 20
-46.8516
 11
192.471
 21
-46.7842
  0
LINE
  8
0
 10
192.471
 20
-46.7842
 11
192.562
 21
-46.7224
  0
LINE
  8
0
 10
192.562
 20
-46.7224
 11
192.657
 21
-46.6665
  0
LINE
  8
0
 10
192.657
 20
-46.6665
 11
192.755
 21
-46.6165
  0
LINE
  8
0
 10
192.755
 20
-46.6165
 11
192.856
 21
-46.5729
  0
LINE
  8
0
 10
192.856
 20
-46.5729
 11
192.959
 21
-46.5356
  0
LINE
  8
0
 10
192.959
 20
-46.5356
 11
193.065
 21
-46.505
  0
LINE
  8
0
 10
193.065
 20
-46.505
 11
193.172
 21
-46.481
  0
LINE
  8
0
 10
193.172
 20
-46.481
 11
193.281
 21
-46.4638
  0
LINE
  8
0
 10
193.281
 20
-46.4638
 11
193.39
 21
-46.4534
  0
LINE
  8
0
 10
193.39
 20
-46.4534
 11
193.5
 21
-46.45
  0
LINE
  8
0
 10
193.5
 20
-46.45
 11
193.61
 21
-46.4534
  0
LINE
  8
0
 10
193.61
 20
-46.4534
 11
193.719
 21
-46.4638
  0
LINE
  8
0
 10
193.719
 20
-46.4638
 11
193.828
 21
-46.481
  0
LINE
  8
0
 10
193.828
 20
-46.481
 11
193.935
 21
-46.505
  0
LINE
  8
0
 10
193.935
 20
-46.505
 11
194.041
 21
-46.5356
  0
LINE
  8
0
 10
194.041
 20
-46.5356
 11
194.144
 21
-46.5729
  0
LINE
  8
0
 10
194.144
 20
-46.5729
 11
194.245
 21
-46.6165
  0
LINE
  8
0
 10
194.245
 20
-46.6165
 11
194.343
 21
-46.6665
  0
LINE
  8
0
 10
194.343
 20
-46.6665
 11
194.438
 21
-46.7224
  0
LINE
  8
0
 10
194.438
 20
-46.7224
 11
194.529
 21
-46.7842
  0
LINE
  8
0
 10
194.529
 20
-46.7842
 11
194.615
 21
-46.8516
  0
LINE
  8
0
 10
194.615
 20
-46.8516
 11
194.698
 21
-46.9243
  0
LINE
  8
0
 10
194.698
 20
-46.9243
 11
194.776
 21
-47.002
  0
LINE
  8
0
 10
194.776
 20
-47.002
 11
194.848
 21
-47.0845
  0
LINE
  8
0
 10
194.848
 20
-47.0845
 11
194.916
 21
-47.1714
  0
LINE
  8
0
 10
194.916
 20
-47.1714
 11
194.978
 21
-47.2623
  0
LINE
  8
0
 10
194.978
 20
-47.2623
 11
195.034
 21
-47.3569
  0
LINE
  8
0
 10
195.034
 20
-47.3569
 11
195.083
 21
-47.4549
  0
LINE
  8
0
 10
195.083
 20
-47.4549
 11
195.127
 21
-47.5558
  0
LINE
  8
0
 10
195.127
 20
-47.5558
 11
195.164
 21
-47.6592
  0
LINE
  8
0
 10
195.164
 20
-47.6592
 11
195.195
 21
-47.7648
  0
LINE
  8
0
 10
195.195
 20
-47.7648
 11
195.219
 21
-47.8721
  0
LINE
  8
0
 10
195.219
 20
-47.8721
 11
195.236
 21
-47.9807
  0
LINE
  8
0
 10
195.236
 20
-47.9807
 11
195.247
 21
-48.0901
  0
LINE
  8
0
 10
195.247
 20
-48.0901
 11
195.25
 21
-48.2
  0
LINE
  8
0
 10
195.25
 20
-48.2
 11
195.247
 21
-48.3099
  0
LINE
  8
0
 10
195.247
 20
-48.3099
 11
195.236
 21
-48.4193
  0
LINE
  8
0
 10
195.236
 20
-48.4193
 11
195.219
 21
-48.5279
  0
LINE
  8
0
 10
195.219
 20
-48.5279
 11
195.195
 21
-48.6352
  0
LINE
  8
0
 10
195.195
 20
-48.6352
 11
195.164
 21
-48.7408
  0
LINE
  8
0
 10
195.164
 20
-48.7408
 11
195.127
 21
-48.8442
  0
LINE
  8
0
 10
195.127
 20
-48.8442
 11
195.083
 21
-48.9451
  0
LINE
  8
0
 10
195.083
 20
-48.9451
 11
195.034
 21
-49.0431
  0
LINE
  8
0
 10
195.034
 20
-49.0431
 11
194.978
 21
-49.1377
  0
LINE
  8
0
 10
194.978
 20
-49.1377
 11
194.916
 21
-49.2286
  0
LINE
  8
0
 10
194.916
 20
-49.2286
 11
194.848
 21
-49.3155
  0
LINE
  8
0
 10
194.848
 20
-49.3155
 11
194.776
 21
-49.3979
  0
LINE
  8
0
 10
194.776
 20
-49.3979
 11
194.698
 21
-49.4757
  0
LINE
  8
0
 10
194.698
 20
-49.4757
 11
194.615
 21
-49.5484
  0
LINE
  8
0
 10
194.615
 20
-49.5484
 11
194.529
 21
-49.6158
  0
LINE
  8
0
 10
194.529
 20
-49.6158
 11
194.438
 21
-49.6776
  0
LINE
  8
0
 10
194.438
 20
-49.6776
 11
194.343
 21
-49.7335
  0
LINE
  8
0
 10
194.343
 20
-49.7335
 11
194.245
 21
-49.7834
  0
LINE
  8
0
 10
194.245
 20
-49.7834
 11
194.144
 21
-49.8271
  0
LINE
  8
0
 10
194.144
 20
-49.8271
 11
194.041
 21
-49.8643
  0
LINE
  8
0
 10
194.041
 20
-49.8643
 11
193.935
 21
-49.895
  0
LINE
  8
0
 10
193.935
 20
-49.895
 11
193.828
 21
-49.919
  0
LINE
  8
0
 10
193.828
 20
-49.919
 11
193.719
 21
-49.9362
  0
LINE
  8
0
 10
193.719
 20
-49.9362
 11
193.61
 21
-49.9465
  0
LINE
  8
0
 10
193.61
 20
-49.9465
 11
193.5
 21
-49.95
  0
LINE
  8
0
 10
193.5
 20
-49.95
 11
193.39
 21
-49.9465
  0
LINE
  8
0
 10
231.89
 20
-50.7465
 11
231.781
 21
-50.7362
  0
LINE
  8
0
 10
231.781
 20
-50.7362
 11
231.672
 21
-50.719
  0
LINE
  8
0
 10
231.672
 20
-50.719
 11
231.565
 21
-50.695
  0
LINE
  8
0
 10
231.565
 20
-50.695
 11
231.459
 21
-50.6643
  0
LINE
  8
0
 10
231.459
 20
-50.6643
 11
231.356
 21
-50.6271
  0
LINE
  8
0
 10
231.356
 20
-50.6271
 11
231.255
 21
-50.5834
  0
LINE
  8
0
 10
231.255
 20
-50.5834
 11
231.157
 21
-50.5335
  0
LINE
  8
0
 10
231.157
 20
-50.5335
 11
231.062
 21
-50.4776
  0
LINE
  8
0
 10
231.062
 20
-50.4776
 11
230.971
 21
-50.4158
  0
LINE
  8
0
 10
230.971
 20
-50.4158
 11
230.885
 21
-50.3484
  0
LINE
  8
0
 10
230.885
 20
-50.3484
 11
230.802
 21
-50.2757
  0
LINE
  8
0
 10
230.802
 20
-50.2757
 11
230.724
 21
-50.198
  0
LINE
  8
0
 10
230.724
 20
-50.198
 11
230.652
 21
-50.1155
  0
LINE
  8
0
 10
230.652
 20
-50.1155
 11
230.584
 21
-50.0286
  0
LINE
  8
0
 10
230.584
 20
-50.0286
 11
230.522
 21
-49.9377
  0
LINE
  8
0
 10
230.522
 20
-49.9377
 11
230.466
 21
-49.8431
  0
LINE
  8
0
 10
230.466
 20
-49.8431
 11
230.417
 21
-49.7451
  0
LINE
  8
0
 10
230.417
 20
-49.7451
 11
230.373
 21
-49.6442
  0
LINE
  8
0
 10
230.373
 20
-49.6442
 11
230.336
 21
-49.5408
  0
LINE
  8
0
 10
230.336
 20
-49.5408
 11
230.305
 21
-49.4352
  0
LINE
  8
0
 10
230.305
 20
-49.4352
 11
230.281
 21
-49.3279
  0
LINE
  8
0
 10
230.281
 20
-49.3279
 11
230.264
 21
-49.2193
  0
LINE
  8
0
 10
230.264
 20
-49.2193
 11
230.253
 21
-49.1099
  0
LINE
  8
0
 10
230.253
 20
-49.1099
 11
230.25
 21
-49
  0
LINE
  8
0
 10
230.25
 20
-49
 11
230.253
 21
-48.8901
  0
LINE
  8
0
 10
230.253
 20
-48.8901
 11
230.264
 21
-48.7807
  0
LINE
  8
0
 10
230.264
 20
-48.7807
 11
230.281
 21
-48.6721
  0
LINE
  8
0
 10
230.281
 20
-48.6721
 11
230.305
 21
-48.5648
  0
LINE
  8
0
 10
230.305
 20
-48.5648
 11
230.336
 21
-48.4592
  0
LINE
  8
0
 10
230.336
 20
-48.4592
 11
230.373
 21
-48.3558
  0
LINE
  8
0
 10
230.373
 20
-48.3558
 11
230.417
 21
-48.2549
  0
LINE
  8
0
 10
230.417
 20
-48.2549
 11
230.466
 21
-48.1569
  0
LINE
  8
0
 10
230.466
 20
-48.1569
 11
230.522
 21
-48.0623
  0
LINE
  8
0
 10
230.522
 20
-48.0623
 11
230.584
 21
-47.9714
  0
LINE
  8
0
 10
230.584
 20
-47.9714
 11
230.652
 21
-47.8845
  0
LINE
  8
0
 10
230.652
 20
-47.8845
 11
230.724
 21
-47.802
  0
LINE
  8
0
 10
230.724
 20
-47.802
 11
230.802
 21
-47.7243
  0
LINE
  8
0
 10
230.802
 20
-47.7243
 11
230.885
 21
-47.6516
  0
LINE
  8
0
 10
230.885
 20
-47.6516
 11
230.971
 21
-47.5842
  0
LINE
  8
0
 10
230.971
 20
-47.5842
 11
231.062
 21
-47.5224
  0
LINE
  8
0
 10
231.062
 20
-47.5224
 11
231.157
 21
-47.4665
  0
LINE
  8
0
 10
231.157
 20
-47.4665
 11
231.255
 21
-47.4165
  0
LINE
  8
0
 10
231.255
 20
-47.4165
 11
231.356
 21
-47.3729
  0
LINE
  8
0
 10
231.356
 20
-47.3729
 11
231.459
 21
-47.3356
  0
LINE
  8
0
 10
231.459
 20
-47.3356
 11
231.565
 21
-47.305
  0
LINE
  8
0
 10
231.565
 20
-47.305
 11
231.672
 21
-47.281
  0
LINE
  8
0
 10
231.672
 20
-47.281
 11
231.781
 21
-47.2638
  0
LINE
  8
0
 10
231.781
 20
-47.2638
 11
231.89
 21
-47.2534
  0
LINE
  8
0
 10
231.89
 20
-47.2534
 11
232
 21
-47.25
  0
LINE
  8
0
 10
232
 20
-47.25
 11
232.11
 21
-47.2534
  0
LINE
  8
0
 10
232.11
 20
-47.2534
 11
232.219
 21
-47.2638
  0
LINE
  8
0
 10
232.219
 20
-47.2638
 11
232.328
 21
-47.281
  0
LINE
  8
0
 10
232.328
 20
-47.281
 11
232.435
 21
-47.305
  0
LINE
  8
0
 10
232.435
 20
-47.305
 11
232.541
 21
-47.3356
  0
LINE
  8
0
 10
232.541
 20
-47.3356
 11
232.644
 21
-47.3729
  0
LINE
  8
0
 10
232.644
 20
-47.3729
 11
232.745
 21
-47.4165
  0
LINE
  8
0
 10
232.745
 20
-47.4165
 11
232.843
 21
-47.4665
  0
LINE
  8
0
 10
232.843
 20
-47.4665
 11
232.938
 21
-47.5224
  0
LINE
  8
0
 10
232.938
 20
-47.5224
 11
233.029
 21
-47.5842
  0
LINE
  8
0
 10
233.029
 20
-47.5842
 11
233.115
 21
-47.6516
  0
LINE
  8
0
 10
233.115
 20
-47.6516
 11
233.198
 21
-47.7243
  0
LINE
  8
0
 10
233.198
 20
-47.7243
 11
233.276
 21
-47.802
  0
LINE
  8
0
 10
233.276
 20
-47.802
 11
233.348
 21
-47.8845
  0
LINE
  8
0
 10
233.348
 20
-47.8845
 11
233.416
 21
-47.9714
  0
LINE
  8
0
 10
233.416
 20
-47.9714
 11
233.478
 21
-48.0623
  0
LINE
  8
0
 10
233.478
 20
-48.0623
 11
233.534
 21
-48.1569
  0
LINE
  8
0
 10
233.534
 20
-48.1569
 11
233.583
 21
-48.2549
  0
LINE
  8
0
 10
233.583
 20
-48.2549
 11
233.627
 21
-48.3558
  0
LINE
  8
0
 10
233.627
 20
-48.3558
 11
233.664
 21
-48.4592
  0
LINE
  8
0
 10
233.664
 20
-48.4592
 11
233.695
 21
-48.5648
  0
LINE
  8
0
 10
233.695
 20
-48.5648
 11
233.719
 21
-48.6721
  0
LINE
  8
0
 10
233.719
 20
-48.6721
 11
233.736
 21
-48.7807
  0
LINE
  8
0
 10
233.736
 20
-48.7807
 11
233.747
 21
-48.8901
  0
LINE
  8
0
 10
233.747
 20
-48.8901
 11
233.75
 21
-49
  0
LINE
  8
0
 10
233.75
 20
-49
 11
233.747
 21
-49.1099
  0
LINE
  8
0
 10
233.747
 20
-49.1099
 11
233.736
 21
-49.2193
  0
LINE
  8
0
 10
233.736
 20
-49.2193
 11
233.719
 21
-49.3279
  0
LINE
  8
0
 10
233.719
 20
-49.3279
 11
233.695
 21
-49.4352
  0
LINE
  8
0
 10
233.695
 20
-49.4352
 11
233.664
 21
-49.5408
  0
LINE
  8
0
 10
233.664
 20
-49.5408
 11
233.627
 21
-49.6442
  0
LINE
  8
0
 10
233.627
 20
-49.6442
 11
233.583
 21
-49.7451
  0
LINE
  8
0
 10
233.583
 20
-49.7451
 11
233.534
 21
-49.8431
  0
LINE
  8
0
 10
233.534
 20
-49.8431
 11
233.478
 21
-49.9377
  0
LINE
  8
0
 10
233.478
 20
-49.9377
 11
233.416
 21
-50.0286
  0
LINE
  8
0
 10
233.416
 20
-50.0286
 11
233.348
 21
-50.1155
  0
LINE
  8
0
 10
233.348
 20
-50.1155
 11
233.276
 21
-50.198
  0
LINE
  8
0
 10
233.276
 20
-50.198
 11
233.198
 21
-50.2757
  0
LINE
  8
0
 10
233.198
 20
-50.2757
 11
233.115
 21
-50.3484
  0
LINE
  8
0
 10
233.115
 20
-50.3484
 11
233.029
 21
-50.4158
  0
LINE
  8
0
 10
233.029
 20
-50.4158
 11
232.938
 21
-50.4776
  0
LINE
  8
0
 10
232.938
 20
-50.4776
 11
232.843
 21
-50.5335
  0
LINE
  8
0
 10
232.843
 20
-50.5335
 11
232.745
 21
-50.5834
  0
LINE
  8
0
 10
232.745
 20
-50.5834
 11
232.644
 21
-50.6271
  0
LINE
  8
0
 10
232.644
 20
-50.6271
 11
232.541
 21
-50.6643
  0
LINE
  8
0
 10
232.541
 20
-50.6643
 11
232.435
 21
-50.695
  0
LINE
  8
0
 10
232.435
 20
-50.695
 11
232.328
 21
-50.719
  0
LINE
  8
0
 10
232.328
 20
-50.719
 11
232.219
 21
-50.7362
  0
LINE
  8
0
 10
232.219
 20
-50.7362
 11
232.11
 21
-50.7465
  0
LINE
  8
0
 10
232.11
 20
-50.7465
 11
232
 21
-50.75
  0
LINE
  8
0
 10
232
 20
-50.75
 11
231.89
 21
-50.7465
  0
LINE
  8
0
 10
196.462
 20
-64.9247
 11
196.462
 21
-50.8748
  0
LINE
  8
0
 10
196.462
 20
-50.8748
 11
210.512
 21
-50.8748
  0
LINE
  8
0
 10
210.512
 20
-50.8748
 11
210.512
 21
-64.9247
  0
LINE
  8
0
 10
210.512
 20
-64.9247
 11
196.462
 21
-64.9247
  0
LINE
  8
0
 10
214.462
 20
-64.9247
 11
214.462
 21
-50.8748
  0
LINE
  8
0
 10
214.462
 20
-50.8748
 11
228.512
 21
-50.8748
  0
LINE
  8
0
 10
228.512
 20
-50.8748
 11
228.512
 21
-64.9247
  0
LINE
  8
0
 10
228.512
 20
-64.9247
 11
214.462
 21
-64.9247
  0
LINE
  8
0
 10
174.097
 20
-56.7086
 11
187.578
 21
-52.7508
  0
LINE
  8
0
 10
187.578
 20
-52.7508
 11
191.536
 21
-66.2319
  0
LINE
  8
0
 10
191.536
 20
-66.2319
 11
178.055
 21
-70.1897
  0
LINE
  8
0
 10
178.055
 20
-70.1897
 11
174.097
 21
-56.7086
  0
LINE
  8
0
 10
155.19
 20
-60.7465
 11
155.081
 21
-60.7362
  0
LINE
  8
0
 10
155.081
 20
-60.7362
 11
154.972
 21
-60.719
  0
LINE
  8
0
 10
154.972
 20
-60.719
 11
154.865
 21
-60.695
  0
LINE
  8
0
 10
154.865
 20
-60.695
 11
154.759
 21
-60.6643
  0
LINE
  8
0
 10
154.759
 20
-60.6643
 11
154.656
 21
-60.6271
  0
LINE
  8
0
 10
154.656
 20
-60.6271
 11
154.555
 21
-60.5834
  0
LINE
  8
0
 10
154.555
 20
-60.5834
 11
154.457
 21
-60.5335
  0
LINE
  8
0
 10
154.457
 20
-60.5335
 11
154.362
 21
-60.4776
  0
LINE
  8
0
 10
154.362
 20
-60.4776
 11
154.271
 21
-60.4158
  0
LINE
  8
0
 10
154.271
 20
-60.4158
 11
154.185
 21
-60.3484
  0
LINE
  8
0
 10
154.185
 20
-60.3484
 11
154.102
 21
-60.2757
  0
LINE
  8
0
 10
154.102
 20
-60.2757
 11
154.024
 21
-60.198
  0
LINE
  8
0
 10
154.024
 20
-60.198
 11
153.952
 21
-60.1155
  0
LINE
  8
0
 10
153.952
 20
-60.1155
 11
153.884
 21
-60.0286
  0
LINE
  8
0
 10
153.884
 20
-60.0286
 11
153.822
 21
-59.9377
  0
LINE
  8
0
 10
153.822
 20
-59.9377
 11
153.766
 21
-59.8431
  0
LINE
  8
0
 10
153.766
 20
-59.8431
 11
153.717
 21
-59.7451
  0
LINE
  8
0
 10
153.717
 20
-59.7451
 11
153.673
 21
-59.6442
  0
LINE
  8
0
 10
153.673
 20
-59.6442
 11
153.636
 21
-59.5408
  0
LINE
  8
0
 10
153.636
 20
-59.5408
 11
153.605
 21
-59.4352
  0
LINE
  8
0
 10
153.605
 20
-59.4352
 11
153.581
 21
-59.3279
  0
LINE
  8
0
 10
153.581
 20
-59.3279
 11
153.564
 21
-59.2193
  0
LINE
  8
0
 10
153.564
 20
-59.2193
 11
153.553
 21
-59.1099
  0
LINE
  8
0
 10
153.553
 20
-59.1099
 11
153.55
 21
-59
  0
LINE
  8
0
 10
153.55
 20
-59
 11
153.553
 21
-58.8901
  0
LINE
  8
0
 10
153.553
 20
-58.8901
 11
153.564
 21
-58.7807
  0
LINE
  8
0
 10
153.564
 20
-58.7807
 11
153.581
 21
-58.6721
  0
LINE
  8
0
 10
153.581
 20
-58.6721
 11
153.605
 21
-58.5648
  0
LINE
  8
0
 10
153.605
 20
-58.5648
 11
153.636
 21
-58.4592
  0
LINE
  8
0
 10
153.636
 20
-58.4592
 11
153.673
 21
-58.3558
  0
LINE
  8
0
 10
153.673
 20
-58.3558
 11
153.717
 21
-58.2549
  0
LINE
  8
0
 10
153.717
 20
-58.2549
 11
153.766
 21
-58.1569
  0
LINE
  8
0
 10
153.766
 20
-58.1569
 11
153.822
 21
-58.0623
  0
LINE
  8
0
 10
153.822
 20
-58.0623
 11
153.884
 21
-57.9714
  0
LINE
  8
0
 10
153.884
 20
-57.9714
 11
153.952
 21
-57.8845
  0
LINE
  8
0
 10
153.952
 20
-57.8845
 11
154.024
 21
-57.802
  0
LINE
  8
0
 10
154.024
 20
-57.802
 11
154.102
 21
-57.7243
  0
LINE
  8
0
 10
154.102
 20
-57.7243
 11
154.185
 21
-57.6516
  0
LINE
  8
0
 10
154.185
 20
-57.6516
 11
154.271
 21
-57.5842
  0
LINE
  8
0
 10
154.271
 20
-57.5842
 11
154.362
 21
-57.5224
  0
LINE
  8
0
 10
154.362
 20
-57.5224
 11
154.457
 21
-57.4665
  0
LINE
  8
0
 10
154.457
 20
-57.4665
 11
154.555
 21
-57.4165
  0
LINE
  8
0
 10
154.555
 20
-57.4165
 11
154.656
 21
-57.3729
  0
LINE
  8
0
 10
154.656
 20
-57.3729
 11
154.759
 21
-57.3356
  0
LINE
  8
0
 10
154.759
 20
-57.3356
 11
154.865
 21
-57.305
  0
LINE
  8
0
 10
154.865
 20
-57.305
 11
154.972
 21
-57.281
  0
LINE
  8
0
 10
154.972
 20
-57.281
 11
155.081
 21
-57.2638
  0
LINE
  8
0
 10
155.081
 20
-57.2638
 11
155.19
 21
-57.2534
  0
LINE
  8
0
 10
155.19
 20
-57.2534
 11
155.3
 21
-57.25
  0
LINE
  8
0
 10
155.3
 20
-57.25
 11
155.41
 21
-57.2534
  0
LINE
  8
0
 10
155.41
 20
-57.2534
 11
155.519
 21
-57.2638
  0
LINE
  8
0
 10
155.519
 20
-57.2638
 11
155.628
 21
-57.281
  0
LINE
  8
0
 10
155.628
 20
-57.281
 11
155.735
 21
-57.305
  0
LINE
  8
0
 10
155.735
 20
-57.305
 11
155.841
 21
-57.3356
  0
LINE
  8
0
 10
155.841
 20
-57.3356
 11
155.944
 21
-57.3729
  0
LINE
  8
0
 10
155.944
 20
-57.3729
 11
156.045
 21
-57.4165
  0
LINE
  8
0
 10
156.045
 20
-57.4165
 11
156.143
 21
-57.4665
  0
LINE
  8
0
 10
156.143
 20
-57.4665
 11
156.238
 21
-57.5224
  0
LINE
  8
0
 10
156.238
 20
-57.5224
 11
156.329
 21
-57.5842
  0
LINE
  8
0
 10
156.329
 20
-57.5842
 11
156.415
 21
-57.6516
  0
LINE
  8
0
 10
156.415
 20
-57.6516
 11
156.498
 21
-57.7243
  0
LINE
  8
0
 10
156.498
 20
-57.7243
 11
156.576
 21
-57.802
  0
LINE
  8
0
 10
156.576
 20
-57.802
 11
156.648
 21
-57.8845
  0
LINE
  8
0
 10
156.648
 20
-57.8845
 11
156.716
 21
-57.9714
  0
LINE
  8
0
 10
156.716
 20
-57.9714
 11
156.778
 21
-58.0623
  0
LINE
  8
0
 10
156.778
 20
-58.0623
 11
156.834
 21
-58.1569
  0
LINE
  8
0
 10
156.834
 20
-58.1569
 11
156.883
 21
-58.2549
  0
LINE
  8
0
 10
156.883
 20
-58.2549
 11
156.927
 21
-58.3558
  0
LINE
  8
0
 10
156.927
 20
-58.3558
 11
156.964
 21
-58.4592
  0
LINE
  8
0
 10
156.964
 20
-58.4592
 11
156.995
 21
-58.5648
  0
LINE
  8
0
 10
156.995
 20
-58.5648
 11
157.019
 21
-58.6721
  0
LINE
  8
0
 10
157.019
 20
-58.6721
 11
157.036
 21
-58.7807
  0
LINE
  8
0
 10
157.036
 20
-58.7807
 11
157.047
 21
-58.8901
  0
LINE
  8
0
 10
157.047
 20
-58.8901
 11
157.05
 21
-59
  0
LINE
  8
0
 10
157.05
 20
-59
 11
157.047
 21
-59.1099
  0
LINE
  8
0
 10
157.047
 20
-59.1099
 11
157.036
 21
-59.2193
  0
LINE
  8
0
 10
157.036
 20
-59.2193
 11
157.019
 21
-59.3279
  0
LINE
  8
0
 10
157.019
 20
-59.3279
 11
156.995
 21
-59.4352
  0
LINE
  8
0
 10
156.995
 20
-59.4352
 11
156.964
 21
-59.5408
  0
LINE
  8
0
 10
156.964
 20
-59.5408
 11
156.927
 21
-59.6442
  0
LINE
  8
0
 10
156.927
 20
-59.6442
 11
156.883
 21
-59.7451
  0
LINE
  8
0
 10
156.883
 20
-59.7451
 11
156.834
 21
-59.8431
  0
LINE
  8
0
 10
156.834
 20
-59.8431
 11
156.778
 21
-59.9377
  0
LINE
  8
0
 10
156.778
 20
-59.9377
 11
156.716
 21
-60.0286
  0
LINE
  8
0
 10
156.716
 20
-60.0286
 11
156.648
 21
-60.1155
  0
LINE
  8
0
 10
156.648
 20
-60.1155
 11
156.576
 21
-60.198
  0
LINE
  8
0
 10
156.576
 20
-60.198
 11
156.498
 21
-60.2757
  0
LINE
  8
0
 10
156.498
 20
-60.2757
 11
156.415
 21
-60.3484
  0
LINE
  8
0
 10
156.415
 20
-60.3484
 11
156.329
 21
-60.4158
  0
LINE
  8
0
 10
156.329
 20
-60.4158
 11
156.238
 21
-60.4776
  0
LINE
  8
0
 10
156.238
 20
-60.4776
 11
156.143
 21
-60.5335
  0
LINE
  8
0
 10
156.143
 20
-60.5335
 11
156.045
 21
-60.5834
  0
LINE
  8
0
 10
156.045
 20
-60.5834
 11
155.944
 21
-60.6271
  0
LINE
  8
0
 10
155.944
 20
-60.6271
 11
155.841
 21
-60.6643
  0
LINE
  8
0
 10
155.841
 20
-60.6643
 11
155.735
 21
-60.695
  0
LINE
  8
0
 10
155.735
 20
-60.695
 11
155.628
 21
-60.719
  0
LINE
  8
0
 10
155.628
 20
-60.719
 11
155.519
 21
-60.7362
  0
LINE
  8
0
 10
155.519
 20
-60.7362
 11
155.41
 21
-60.7465
  0
LINE
  8
0
 10
155.41
 20
-60.7465
 11
155.3
 21
-60.75
  0
LINE
  8
0
 10
155.3
 20
-60.75
 11
155.19
 21
-60.7465
  0
LINE
  8
0
 10
154.333
 20
-69.0958
 11
165.699
 21
-60.8374
  0
LINE
  8
0
 10
165.699
 20
-60.8374
 11
173.958
 21
-72.2041
  0
LINE
  8
0
 10
173.958
 20
-72.2041
 11
162.591
 21
-80.4625
  0
LINE
  8
0
 10
162.591
 20
-80.4625
 11
154.333
 21
-69.0958
  0
LINE
  8
0
 10
162.39
 20
-86.2465
 11
162.281
 21
-86.2362
  0
LINE
  8
0
 10
162.281
 20
-86.2362
 11
162.172
 21
-86.219
  0
LINE
  8
0
 10
162.172
 20
-86.219
 11
162.065
 21
-86.195
  0
LINE
  8
0
 10
162.065
 20
-86.195
 11
161.959
 21
-86.1643
  0
LINE
  8
0
 10
161.959
 20
-86.1643
 11
161.856
 21
-86.1271
  0
LINE
  8
0
 10
161.856
 20
-86.1271
 11
161.755
 21
-86.0834
  0
LINE
  8
0
 10
161.755
 20
-86.0834
 11
161.657
 21
-86.0335
  0
LINE
  8
0
 10
161.657
 20
-86.0335
 11
161.562
 21
-85.9776
  0
LINE
  8
0
 10
161.562
 20
-85.9776
 11
161.471
 21
-85.9158
  0
LINE
  8
0
 10
161.471
 20
-85.9158
 11
161.385
 21
-85.8484
  0
LINE
  8
0
 10
161.385
 20
-85.8484
 11
161.302
 21
-85.7757
  0
LINE
  8
0
 10
161.302
 20
-85.7757
 11
161.224
 21
-85.698
  0
LINE
  8
0
 10
161.224
 20
-85.698
 11
161.152
 21
-85.6155
  0
LINE
  8
0
 10
161.152
 20
-85.6155
 11
161.084
 21
-85.5286
  0
LINE
  8
0
 10
161.084
 20
-85.5286
 11
161.022
 21
-85.4377
  0
LINE
  8
0
 10
161.022
 20
-85.4377
 11
160.966
 21
-85.3431
  0
LINE
  8
0
 10
160.966
 20
-85.3431
 11
160.917
 21
-85.2451
  0
LINE
  8
0
 10
160.917
 20
-85.2451
 11
160.873
 21
-85.1442
  0
LINE
  8
0
 10
160.873
 20
-85.1442
 11
160.836
 21
-85.0408
  0
LINE
  8
0
 10
160.836
 20
-85.0408
 11
160.805
 21
-84.9352
  0
LINE
  8
0
 10
160.805
 20
-84.9352
 11
160.781
 21
-84.8279
  0
LINE
  8
0
 10
160.781
 20
-84.8279
 11
160.764
 21
-84.7193
  0
LINE
  8
0
 10
160.764
 20
-84.7193
 11
160.753
 21
-84.6099
  0
LINE
  8
0
 10
160.753
 20
-84.6099
 11
160.75
 21
-84.5
  0
LINE
  8
0
 10
160.75
 20
-84.5
 11
160.753
 21
-84.3901
  0
LINE
  8
0
 10
160.753
 20
-84.3901
 11
160.764
 21
-84.2807
  0
LINE
  8
0
 10
160.764
 20
-84.2807
 11
160.781
 21
-84.1721
  0
LINE
  8
0
 10
160.781
 20
-84.1721
 11
160.805
 21
-84.0648
  0
LINE
  8
0
 10
160.805
 20
-84.0648
 11
160.836
 21
-83.9592
  0
LINE
  8
0
 10
160.836
 20
-83.9592
 11
160.873
 21
-83.8558
  0
LINE
  8
0
 10
160.873
 20
-83.8558
 11
160.917
 21
-83.7549
  0
LINE
  8
0
 10
160.917
 20
-83.7549
 11
160.966
 21
-83.6569
  0
LINE
  8
0
 10
160.966
 20
-83.6569
 11
161.022
 21
-83.5623
  0
LINE
  8
0
 10
161.022
 20
-83.5623
 11
161.084
 21
-83.4714
  0
LINE
  8
0
 10
161.084
 20
-83.4714
 11
161.152
 21
-83.3845
  0
LINE
  8
0
 10
161.152
 20
-83.3845
 11
161.224
 21
-83.302
  0
LINE
  8
0
 10
161.224
 20
-83.302
 11
161.302
 21
-83.2243
  0
LINE
  8
0
 10
161.302
 20
-83.2243
 11
161.385
 21
-83.1516
  0
LINE
  8
0
 10
161.385
 20
-83.1516
 11
161.471
 21
-83.0842
  0
LINE
  8
0
 10
161.471
 20
-83.0842
 11
161.562
 21
-83.0224
  0
LINE
  8
0
 10
161.562
 20
-83.0224
 11
161.657
 21
-82.9665
  0
LINE
  8
0
 10
161.657
 20
-82.9665
 11
161.755
 21
-82.9165
  0
LINE
  8
0
 10
161.755
 20
-82.9165
 11
161.856
 21
-82.8729
  0
LINE
  8
0
 10
161.856
 20
-82.8729
 11
161.959
 21
-82.8356
  0
LINE
  8
0
 10
161.959
 20
-82.8356
 11
162.065
 21
-82.805
  0
LINE
  8
0
 10
162.065
 20
-82.805
 11
162.172
 21
-82.781
  0
LINE
  8
0
 10
162.172
 20
-82.781
 11
162.281
 21
-82.7638
  0
LINE
  8
0
 10
162.281
 20
-82.7638
 11
162.39
 21
-82.7534
  0
LINE
  8
0
 10
162.39
 20
-82.7534
 11
162.5
 21
-82.75
  0
LINE
  8
0
 10
162.5
 20
-82.75
 11
162.61
 21
-82.7534
  0
LINE
  8
0
 10
162.61
 20
-82.7534
 11
162.719
 21
-82.7638
  0
LINE
  8
0
 10
162.719
 20
-82.7638
 11
162.828
 21
-82.781
  0
LINE
  8
0
 10
162.828
 20
-82.781
 11
162.935
 21
-82.805
  0
LINE
  8
0
 10
162.935
 20
-82.805
 11
163.041
 21
-82.8356
  0
LINE
  8
0
 10
163.041
 20
-82.8356
 11
163.144
 21
-82.8729
  0
LINE
  8
0
 10
163.144
 20
-82.8729
 11
163.245
 21
-82.9165
  0
LINE
  8
0
 10
163.245
 20
-82.9165
 11
163.343
 21
-82.9665
  0
LINE
  8
0
 10
163.343
 20
-82.9665
 11
163.438
 21
-83.0224
  0
LINE
  8
0
 10
163.438
 20
-83.0224
 11
163.529
 21
-83.0842
  0
LINE
  8
0
 10
163.529
 20
-83.0842
 11
163.615
 21
-83.1516
  0
LINE
  8
0
 10
163.615
 20
-83.1516
 11
163.698
 21
-83.2243
  0
LINE
  8
0
 10
163.698
 20
-83.2243
 11
163.776
 21
-83.302
  0
LINE
  8
0
 10
163.776
 20
-83.302
 11
163.848
 21
-83.3845
  0
LINE
  8
0
 10
163.848
 20
-83.3845
 11
163.916
 21
-83.4714
  0
LINE
  8
0
 10
163.916
 20
-83.4714
 11
163.978
 21
-83.5623
  0
LINE
  8
0
 10
163.978
 20
-83.5623
 11
164.034
 21
-83.6569
  0
LINE
  8
0
 10
164.034
 20
-83.6569
 11
164.083
 21
-83.7549
  0
LINE
  8
0
 10
164.083
 20
-83.7549
 11
164.127
 21
-83.8558
  0
LINE
  8
0
 10
164.127
 20
-83.8558
 11
164.164
 21
-83.9592
  0
LINE
  8
0
 10
164.164
 20
-83.9592
 11
164.195
 21
-84.0648
  0
LINE
  8
0
 10
164.195
 20
-84.0648
 11
164.219
 21
-84.1721
  0
LINE
  8
0
 10
164.219
 20
-84.1721
 11
164.236
 21
-84.2807
  0
LINE
  8
0
 10
164.236
 20
-84.2807
 11
164.247
 21
-84.3901
  0
LINE
  8
0
 10
164.247
 20
-84.3901
 11
164.25
 21
-84.5
  0
LINE
  8
0
 10
164.25
 20
-84.5
 11
164.247
 21
-84.6099
  0
LINE
  8
0
 10
164.247
 20
-84.6099
 11
164.236
 21
-84.7193
  0
LINE
  8
0
 10
164.236
 20
-84.7193
 11
164.219
 21
-84.8279
  0
LINE
  8
0
 10
164.219
 20
-84.8279
 11
164.195
 21
-84.9352
  0
LINE
  8
0
 10
164.195
 20
-84.9352
 11
164.164
 21
-85.0408
  0
LINE
  8
0
 10
164.164
 20
-85.0408
 11
164.127
 21
-85.1442
  0
LINE
  8
0
 10
164.127
 20
-85.1442
 11
164.083
 21
-85.2451
  0
LINE
  8
0
 10
164.083
 20
-85.2451
 11
164.034
 21
-85.3431
  0
LINE
  8
0
 10
164.034
 20
-85.3431
 11
163.978
 21
-85.4377
  0
LINE
  8
0
 10
163.978
 20
-85.4377
 11
163.916
 21
-85.5286
  0
LINE
  8
0
 10
163.916
 20
-85.5286
 11
163.848
 21
-85.6155
  0
LINE
  8
0
 10
163.848
 20
-85.6155
 11
163.776
 21
-85.698
  0
LINE
  8
0
 10
163.776
 20
-85.698
 11
163.698
 21
-85.7757
  0
LINE
  8
0
 10
163.698
 20
-85.7757
 11
163.615
 21
-85.8484
  0
LINE
  8
0
 10
163.615
 20
-85.8484
 11
163.529
 21
-85.9158
  0
LINE
  8
0
 10
163.529
 20
-85.9158
 11
163.438
 21
-85.9776
  0
LINE
  8
0
 10
163.438
 20
-85.9776
 11
163.343
 21
-86.0335
  0
LINE
  8
0
 10
163.343
 20
-86.0335
 11
163.245
 21
-86.0834
  0
LINE
  8
0
 10
163.245
 20
-86.0834
 11
163.144
 21
-86.1271
  0
LINE
  8
0
 10
163.144
 20
-86.1271
 11
163.041
 21
-86.1643
  0
LINE
  8
0
 10
163.041
 20
-86.1643
 11
162.935
 21
-86.195
  0
LINE
  8
0
 10
162.935
 20
-86.195
 11
162.828
 21
-86.219
  0
LINE
  8
0
 10
162.828
 20
-86.219
 11
162.719
 21
-86.2362
  0
LINE
  8
0
 10
162.719
 20
-86.2362
 11
162.61
 21
-86.2465
  0
LINE
  8
0
 10
162.61
 20
-86.2465
 11
162.5
 21
-86.25
  0
LINE
  8
0
 10
162.5
 20
-86.25
 11
162.39
 21
-86.2465
  0
LINE
  8
0
 10
117.646
 20
-89.5479
 11
117.649
 21
-89.5478
  0
LINE
  8
0
 10
117.649
 20
-89.5478
 11
117.989
 21
-89.5263
  0
LINE
  8
0
 10
117.989
 20
-89.5263
 11
117.992
 21
-89.526
  0
LINE
  8
0
 10
117.992
 20
-89.526
 11
118.281
 21
-89.4892
  0
LINE
  8
0
 10
118.281
 20
-89.4892
 11
118.284
 21
-89.4887
  0
LINE
  8
0
 10
118.284
 20
-89.4887
 11
118.607
 21
-89.4272
  0
LINE
  8
0
 10
118.607
 20
-89.4272
 11
118.61
 21
-89.4265
  0
LINE
  8
0
 10
118.61
 20
-89.4265
 11
118.896
 21
-89.3533
  0
LINE
  8
0
 10
118.896
 20
-89.3533
 11
118.899
 21
-89.3524
  0
LINE
  8
0
 10
118.899
 20
-89.3524
 11
119.212
 21
-89.2507
  0
LINE
  8
0
 10
119.212
 20
-89.2507
 11
119.215
 21
-89.2497
  0
LINE
  8
0
 10
119.215
 20
-89.2497
 11
119.508
 21
-89.1334
  0
LINE
  8
0
 10
119.508
 20
-89.1334
 11
119.511
 21
-89.1321
  0
LINE
  8
0
 10
119.511
 20
-89.1321
 11
119.787
 21
-89.0027
  0
LINE
  8
0
 10
119.787
 20
-89.0027
 11
119.789
 21
-89.0012
  0
LINE
  8
0
 10
119.789
 20
-89.0012
 11
120.075
 21
-88.8441
  0
LINE
  8
0
 10
120.075
 20
-88.8441
 11
120.078
 21
-88.8425
  0
LINE
  8
0
 10
120.078
 20
-88.8425
 11
120.334
 21
-88.68
  0
LINE
  8
0
 10
120.334
 20
-88.68
 11
120.336
 21
-88.6782
  0
LINE
  8
0
 10
120.336
 20
-88.6782
 11
120.599
 21
-88.4872
  0
LINE
  8
0
 10
120.599
 20
-88.4872
 11
120.602
 21
-88.4853
  0
LINE
  8
0
 10
120.602
 20
-88.4853
 11
120.83
 21
-88.2969
  0
LINE
  8
0
 10
120.83
 20
-88.2969
 11
120.832
 21
-88.2948
  0
LINE
  8
0
 10
120.832
 20
-88.2948
 11
121.07
 21
-88.072
  0
LINE
  8
0
 10
121.07
 20
-88.072
 11
121.072
 21
-88.0698
  0
LINE
  8
0
 10
121.072
 20
-88.0698
 11
121.295
 21
-87.8319
  0
LINE
  8
0
 10
121.295
 20
-87.8319
 11
121.297
 21
-87.8295
  0
LINE
  8
0
 10
121.297
 20
-87.8295
 11
121.485
 21
-87.6016
  0
LINE
  8
0
 10
121.485
 20
-87.6016
 11
121.487
 21
-87.5991
  0
LINE
  8
0
 10
121.487
 20
-87.5991
 11
121.678
 21
-87.3363
  0
LINE
  8
0
 10
121.678
 20
-87.3363
 11
121.68
 21
-87.3337
  0
LINE
  8
0
 10
121.68
 20
-87.3337
 11
121.842
 21
-87.0778
  0
LINE
  8
0
 10
121.842
 20
-87.0778
 11
121.844
 21
-87.0751
  0
LINE
  8
0
 10
121.844
 20
-87.0751
 11
122.001
 21
-86.7893
  0
LINE
  8
0
 10
122.001
 20
-86.7893
 11
122.003
 21
-86.7865
  0
LINE
  8
0
 10
122.003
 20
-86.7865
 11
122.132
 21
-86.5114
  0
LINE
  8
0
 10
122.132
 20
-86.5114
 11
122.133
 21
-86.5085
  0
LINE
  8
0
 10
122.133
 20
-86.5085
 11
122.25
 21
-86.2154
  0
LINE
  8
0
 10
122.25
 20
-86.2154
 11
122.251
 21
-86.2125
  0
LINE
  8
0
 10
122.251
 20
-86.2125
 11
122.352
 21
-85.8987
  0
LINE
  8
0
 10
122.352
 20
-85.8987
 11
122.353
 21
-85.8956
  0
LINE
  8
0
 10
122.353
 20
-85.8956
 11
122.426
 21
-85.61
  0
LINE
  8
0
 10
122.426
 20
-85.61
 11
122.427
 21
-85.6069
  0
LINE
  8
0
 10
122.427
 20
-85.6069
 11
122.475
 21
-85.3565
  0
LINE
  8
0
 10
122.475
 20
-85.3565
 11
132.471
 21
-71.5978
  0
LINE
  8
0
 10
132.471
 20
-71.5978
 11
132.648
 21
-71.338
  0
LINE
  8
0
 10
132.648
 20
-71.338
 11
132.808
 21
-71.0676
  0
LINE
  8
0
 10
132.808
 20
-71.0676
 11
132.95
 21
-70.7878
  0
LINE
  8
0
 10
132.95
 20
-70.7878
 11
133.075
 21
-70.4995
  0
LINE
  8
0
 10
133.075
 20
-70.4995
 11
133.181
 21
-70.204
  0
LINE
  8
0
 10
133.181
 20
-70.204
 11
133.269
 21
-69.9023
  0
LINE
  8
0
 10
133.269
 20
-69.9023
 11
133.338
 21
-69.5958
  0
LINE
  8
0
 10
133.338
 20
-69.5958
 11
133.387
 21
-69.2855
  0
LINE
  8
0
 10
133.387
 20
-69.2855
 11
133.416
 21
-68.9728
  0
LINE
  8
0
 10
133.416
 20
-68.9728
 11
133.426
 21
-68.6589
  0
LINE
  8
0
 10
133.426
 20
-68.6589
 11
133.416
 21
-68.3449
  0
LINE
  8
0
 10
133.416
 20
-68.3449
 11
133.387
 21
-68.0322
  0
LINE
  8
0
 10
133.387
 20
-68.0322
 11
133.338
 21
-67.722
  0
LINE
  8
0
 10
133.338
 20
-67.722
 11
133.269
 21
-67.4154
  0
LINE
  8
0
 10
133.269
 20
-67.4154
 11
133.181
 21
-67.1138
  0
LINE
  8
0
 10
133.181
 20
-67.1138
 11
133.075
 21
-66.8183
  0
LINE
  8
0
 10
133.075
 20
-66.8183
 11
132.95
 21
-66.53
  0
LINE
  8
0
 10
132.95
 20
-66.53
 11
132.845
 21
-66.3226
  0
LINE
  8
0
 10
132.845
 20
-66.3226
 11
132.746
 21
-66.0285
  0
LINE
  8
0
 10
132.746
 20
-66.0285
 11
125.736
 21
-47.1789
  0
LINE
  8
0
 10
125.736
 20
-47.1789
 11
123.103
 21
-48.158
  0
LINE
  8
0
 10
123.103
 20
-48.158
 11
119.966
 21
-39.7224
  0
LINE
  8
0
 10
119.966
 20
-39.7224
 11
122.598
 21
-38.7433
  0
LINE
  8
0
 10
122.598
 20
-38.7433
 11
116.853
 21
-23.2953
  0
LINE
  8
0
 10
116.853
 20
-23.2953
 11
116.851
 21
-23.2875
  0
LINE
  8
0
 10
116.851
 20
-23.2875
 11
116.85
 21
-23.2845
  0
LINE
  8
0
 10
116.85
 20
-23.2845
 11
116.843
 21
-23.2682
  0
LINE
  8
0
 10
116.843
 20
-23.2682
 11
116.835
 21
-23.2472
  0
LINE
  8
0
 10
116.835
 20
-23.2472
 11
116.835
 21
-23.2474
  0
LINE
  8
0
 10
116.835
 20
-23.2474
 11
116.829
 21
-23.2329
  0
LINE
  8
0
 10
116.829
 20
-23.2329
 11
116.83
 21
-23.2326
  0
LINE
  8
0
 10
116.83
 20
-23.2326
 11
111.095
 21
-7.81302
  0
LINE
  8
0
 10
111.095
 20
-7.81302
 11
108.463
 21
-8.79211
  0
LINE
  8
0
 10
108.463
 20
-8.79211
 11
105.326
 21
-0.356567
  0
LINE
  8
0
 10
105.326
 20
-0.356567
 11
107.958
 21
0.622528
  0
LINE
  8
0
 10
107.958
 20
0.622528
 11
106.254
 21
5.20486
  0
LINE
  8
0
 10
106.254
 20
5.20486
 11
106.135
 21
5.49568
  0
LINE
  8
0
 10
106.135
 20
5.49568
 11
105.999
 21
5.77849
  0
LINE
  8
0
 10
105.999
 20
5.77849
 11
105.912
 21
5.93213
  0
LINE
  8
0
 10
105.912
 20
5.93213
 11
105.911
 21
5.9369
  0
LINE
  8
0
 10
105.911
 20
5.9369
 11
105.843
 21
6.24345
  0
LINE
  8
0
 10
105.843
 20
6.24345
 11
105.755
 21
6.54509
  0
LINE
  8
0
 10
105.755
 20
6.54509
 11
105.649
 21
6.84062
  0
LINE
  8
0
 10
105.649
 20
6.84062
 11
105.524
 21
7.12889
  0
LINE
  8
0
 10
105.524
 20
7.12889
 11
105.382
 21
7.40877
  0
LINE
  8
0
 10
105.382
 20
7.40877
 11
105.222
 21
7.67914
  0
LINE
  8
0
 10
105.222
 20
7.67914
 11
105.045
 21
7.93892
  0
LINE
  8
0
 10
105.045
 20
7.93892
 11
104.853
 21
8.18712
  0
LINE
  8
0
 10
104.853
 20
8.18712
 11
104.645
 21
8.42273
  0
LINE
  8
0
 10
104.645
 20
8.42273
 11
104.423
 21
8.64484
  0
LINE
  8
0
 10
104.423
 20
8.64484
 11
104.187
 21
8.85257
  0
LINE
  8
0
 10
104.187
 20
8.85257
 11
103.939
 21
9.04509
  0
LINE
  8
0
 10
103.939
 20
9.04509
 11
103.679
 21
9.22163
  0
LINE
  8
0
 10
103.679
 20
9.22163
 11
103.409
 21
9.38153
  0
LINE
  8
0
 10
103.409
 20
9.38153
 11
103.129
 21
9.52414
  0
LINE
  8
0
 10
103.129
 20
9.52414
 11
102.841
 21
9.64888
  0
LINE
  8
0
 10
102.841
 20
9.64888
 11
102.545
 21
9.75528
  0
LINE
  8
0
 10
102.545
 20
9.75528
 11
102.243
 21
9.84291
  0
LINE
  8
0
 10
102.243
 20
9.84291
 11
101.937
 21
9.91144
  0
LINE
  8
0
 10
101.937
 20
9.91144
 11
101.627
 21
9.96057
  0
LINE
  8
0
 10
101.627
 20
9.96057
 11
101.314
 21
9.99013
  0
LINE
  8
0
 10
101.314
 20
9.99013
 11
101
 21
10
  0
LINE
  8
0
 10
101
 20
10
 11
90.1367
 21
10
  0
LINE
  8
0
 10
90.1367
 20
10
 11
90.1334
 21
10.0085
  0
LINE
  8
0
 10
90.1334
 20
10.0085
 11
90.1321
 21
10.0114
  0
LINE
  8
0
 10
90.1321
 20
10.0114
 11
90.0027
 21
10.2865
  0
LINE
  8
0
 10
90.0027
 20
10.2865
 11
90.0012
 21
10.2893
  0
LINE
  8
0
 10
90.0012
 20
10.2893
 11
89.8441
 21
10.5751
  0
LINE
  8
0
 10
89.8441
 20
10.5751
 11
89.8425
 21
10.5778
  0
LINE
  8
0
 10
89.8425
 20
10.5778
 11
89.68
 21
10.8337
  0
LINE
  8
0
 10
89.68
 20
10.8337
 11
89.6782
 21
10.8363
  0
LINE
  8
0
 10
89.6782
 20
10.8363
 11
89.4872
 21
11.0991
  0
LINE
  8
0
 10
89.4872
 20
11.0991
 11
89.4853
 21
11.1016
  0
LINE
  8
0
 10
89.4853
 20
11.1016
 11
89.2969
 21
11.3295
  0
LINE
  8
0
 10
89.2969
 20
11.3295
 11
89.2948
 21
11.3319
  0
LINE
  8
0
 10
89.2948
 20
11.3319
 11
89.072
 21
11.5698
  0
LINE
  8
0
 10
89.072
 20
11.5698
 11
89.0698
 21
11.572
  0
LINE
  8
0
 10
89.0698
 20
11.572
 11
88.8319
 21
11.7948
  0
LINE
  8
0
 10
88.8319
 20
11.7948
 11
88.8295
 21
11.7969
  0
LINE
  8
0
 10
88.8295
 20
11.7969
 11
88.6016
 21
11.9853
  0
LINE
  8
0
 10
88.6016
 20
11.9853
 11
88.5991
 21
11.9872
  0
LINE
  8
0
 10
88.5991
 20
11.9872
 11
88.3363
 21
12.1782
  0
LINE
  8
0
 10
88.3363
 20
12.1782
 11
88.3337
 21
12.18
  0
LINE
  8
0
 10
88.3337
 20
12.18
 11
88.0778
 21
12.3425
  0
LINE
  8
0
 10
88.0778
 20
12.3425
 11
88.0751
 21
12.3441
  0
LINE
  8
0
 10
88.0751
 20
12.3441
 11
87.7893
 21
12.5012
  0
LINE
  8
0
 10
87.7893
 20
12.5012
 11
87.7865
 21
12.5027
  0
LINE
  8
0
 10
87.7865
 20
12.5027
 11
87.5114
 21
12.6321
  0
LINE
  8
0
 10
87.5114
 20
12.6321
 11
87.5085
 21
12.6334
  0
LINE
  8
0
 10
87.5085
 20
12.6334
 11
87.2154
 21
12.7497
  0
LINE
  8
0
 10
87.2154
 20
12.7497
 11
87.2125
 21
12.7507
  0
LINE
  8
0
 10
87.2125
 20
12.7507
 11
86.8987
 21
12.8524
  0
LINE
  8
0
 10
86.8987
 20
12.8524
 11
86.8956
 21
12.8533
  0
LINE
  8
0
 10
86.8956
 20
12.8533
 11
86.61
 21
12.9265
  0
LINE
  8
0
 10
86.61
 20
12.9265
 11
86.6069
 21
12.9272
  0
LINE
  8
0
 10
86.6069
 20
12.9272
 11
86.2842
 21
12.9887
  0
LINE
  8
0
 10
86.2842
 20
12.9887
 11
86.2811
 21
12.9892
  0
LINE
  8
0
 10
86.2811
 20
12.9892
 11
85.9918
 21
13.026
  0
LINE
  8
0
 10
85.9918
 20
13.026
 11
85.9886
 21
13.0263
  0
LINE
  8
0
 10
85.9886
 20
13.0263
 11
85.6494
 21
13.0478
  0
LINE
  8
0
 10
85.6494
 20
13.0478
 11
85.6463
 21
13.0479
  0
LINE
  8
0
 10
85.6463
 20
13.0479
 11
85.3544
 21
13.0479
  0
LINE
  8
0
 10
85.3544
 20
13.0479
 11
85.3513
 21
13.0478
  0
LINE
  8
0
 10
85.3513
 20
13.0478
 11
85.0114
 21
13.0263
  0
LINE
  8
0
 10
85.0114
 20
13.0263
 11
85.0082
 21
13.026
  0
LINE
  8
0
 10
85.0082
 20
13.026
 11
84.7189
 21
12.9892
  0
LINE
  8
0
 10
84.7189
 20
12.9892
 11
84.7158
 21
12.9887
  0
LINE
  8
0
 10
84.7158
 20
12.9887
 11
84.3931
 21
12.9272
  0
LINE
  8
0
 10
84.3931
 20
12.9272
 11
84.39
 21
12.9265
  0
LINE
  8
0
 10
84.39
 20
12.9265
 11
84.1043
 21
12.8533
  0
LINE
  8
0
 10
84.1043
 20
12.8533
 11
84.1013
 21
12.8524
  0
LINE
  8
0
 10
84.1013
 20
12.8524
 11
83.7875
 21
12.7507
  0
LINE
  8
0
 10
83.7875
 20
12.7507
 11
83.7845
 21
12.7497
  0
LINE
  8
0
 10
83.7845
 20
12.7497
 11
83.4915
 21
12.6334
  0
LINE
  8
0
 10
83.4915
 20
12.6334
 11
83.4886
 21
12.6321
  0
LINE
  8
0
 10
83.4886
 20
12.6321
 11
83.2135
 21
12.5027
  0
LINE
  8
0
 10
83.2135
 20
12.5027
 11
83.2107
 21
12.5012
  0
LINE
  8
0
 10
83.2107
 20
12.5012
 11
82.9249
 21
12.3441
  0
LINE
  8
0
 10
82.9249
 20
12.3441
 11
82.9222
 21
12.3425
  0
LINE
  8
0
 10
82.9222
 20
12.3425
 11
82.6663
 21
12.18
  0
LINE
  8
0
 10
82.6663
 20
12.18
 11
82.6637
 21
12.1782
  0
LINE
  8
0
 10
82.6637
 20
12.1782
 11
82.4009
 21
11.9872
  0
LINE
  8
0
 10
82.4009
 20
11.9872
 11
82.3984
 21
11.9853
  0
LINE
  8
0
 10
82.3984
 20
11.9853
 11
82.1705
 21
11.7969
  0
LINE
  8
0
 10
82.1705
 20
11.7969
 11
82.1681
 21
11.7948
  0
LINE
  8
0
 10
82.1681
 20
11.7948
 11
81.9302
 21
11.572
  0
LINE
  8
0
 10
81.9302
 20
11.572
 11
81.928
 21
11.5698
  0
LINE
  8
0
 10
81.928
 20
11.5698
 11
81.8627
 21
11.5
  0
LINE
  8
0
 10
81.8627
 20
11.5
 11
72.3276
 21
11.5
  0
LINE
  8
0
 10
72.3276
 20
11.5
 11
72.2216
 21
11.6791
  0
LINE
  8
0
 10
72.2216
 20
11.6791
 11
72.0451
 21
11.9389
  0
LINE
  8
0
 10
72.0451
 20
11.9389
 11
71.8526
 21
12.1871
  0
LINE
  8
0
 10
71.8526
 20
12.1871
 11
71.6448
 21
12.4227
  0
LINE
  8
0
 10
71.6448
 20
12.4227
 11
71.4227
 21
12.6448
  0
LINE
  8
0
 10
71.4227
 20
12.6448
 11
71.1871
 21
12.8526
  0
LINE
  8
0
 10
71.1871
 20
12.8526
 11
70.9389
 21
13.0451
  0
LINE
  8
0
 10
70.9389
 20
13.0451
 11
70.6791
 21
13.2216
  0
LINE
  8
0
 10
70.6791
 20
13.2216
 11
70.4088
 21
13.3815
  0
LINE
  8
0
 10
70.4088
 20
13.3815
 11
70.1289
 21
13.5241
  0
LINE
  8
0
 10
70.1289
 20
13.5241
 11
69.8406
 21
13.6489
  0
LINE
  8
0
 10
69.8406
 20
13.6489
 11
69.5451
 21
13.7553
  0
LINE
  8
0
 10
69.5451
 20
13.7553
 11
69.2435
 21
13.8429
  0
LINE
  8
0
 10
69.2435
 20
13.8429
 11
68.9369
 21
13.9114
  0
LINE
  8
0
 10
68.9369
 20
13.9114
 11
68.6267
 21
13.9606
  0
LINE
  8
0
 10
68.6267
 20
13.9606
 11
68.3139
 21
13.9901
  0
LINE
  8
0
 10
68.3139
 20
13.9901
 11
68
 21
14
  0
LINE
  8
0
 10
68
 20
14
 11
48
 21
14
  0
LINE
  8
0
 10
48
 20
14
 11
47.6861
 21
13.9901
  0
LINE
  8
0
 10
47.6861
 20
13.9901
 11
47.3733
 21
13.9606
  0
LINE
  8
0
 10
47.3733
 20
13.9606
 11
47.0631
 21
13.9114
  0
LINE
  8
0
 10
47.0631
 20
13.9114
 11
46.7565
 21
13.8429
  0
LINE
  8
0
 10
46.7565
 20
13.8429
 11
46.4549
 21
13.7553
  0
LINE
  8
0
 10
46.4549
 20
13.7553
 11
46.1594
 21
13.6489
  0
LINE
  8
0
 10
46.1594
 20
13.6489
 11
45.8711
 21
13.5241
  0
LINE
  8
0
 10
45.8711
 20
13.5241
 11
45.5912
 21
13.3815
  0
LINE
  8
0
 10
45.5912
 20
13.3815
 11
45.3209
 21
13.2216
  0
LINE
  8
0
 10
45.3209
 20
13.2216
 11
45.0611
 21
13.0451
  0
LINE
  8
0
 10
45.0611
 20
13.0451
 11
44.8129
 21
12.8526
  0
LINE
  8
0
 10
44.8129
 20
12.8526
 11
44.5773
 21
12.6448
  0
LINE
  8
0
 10
44.5773
 20
12.6448
 11
44.3552
 21
12.4227
  0
LINE
  8
0
 10
44.3552
 20
12.4227
 11
44.1474
 21
12.1871
  0
LINE
  8
0
 10
44.1474
 20
12.1871
 11
43.9761
 21
11.9662
  0
LINE
  8
0
 10
43.9761
 20
11.9662
 11
43.7584
 21
11.7863
  0
LINE
  8
0
 10
43.7584
 20
11.7863
 11
43.756
 21
11.7842
  0
LINE
  8
0
 10
43.756
 20
11.7842
 11
43.5424
 21
11.5841
  0
LINE
  8
0
 10
43.5424
 20
11.5841
 11
43.5402
 21
11.5819
  0
LINE
  8
0
 10
43.5402
 20
11.5819
 11
43.4632
 21
11.5
  0
LINE
  8
0
 10
43.4632
 20
11.5
 11
28
 21
11.5
  0
LINE
  8
0
 10
28
 20
11.5
 11
27.6861
 21
11.4901
  0
LINE
  8
0
 10
27.6861
 20
11.4901
 11
27.3733
 21
11.4606
  0
LINE
  8
0
 10
27.3733
 20
11.4606
 11
27.0631
 21
11.4114
  0
LINE
  8
0
 10
27.0631
 20
11.4114
 11
26.7565
 21
11.3429
  0
LINE
  8
0
 10
26.7565
 20
11.3429
 11
26.4549
 21
11.2553
  0
LINE
  8
0
 10
26.4549
 20
11.2553
 11
26.1594
 21
11.1489
  0
LINE
  8
0
 10
26.1594
 20
11.1489
 11
25.8711
 21
11.0241
  0
LINE
  8
0
 10
25.8711
 20
11.0241
 11
25.5912
 21
10.8815
  0
LINE
  8
0
 10
25.5912
 20
10.8815
 11
25.3209
 21
10.7216
  0
LINE
  8
0
 10
25.3209
 20
10.7216
 11
25.0611
 21
10.5451
  0
LINE
  8
0
 10
25.0611
 20
10.5451
 11
24.8129
 21
10.3526
  0
LINE
  8
0
 10
24.8129
 20
10.3526
 11
24.5773
 21
10.1448
  0
LINE
  8
0
 10
24.5773
 20
10.1448
 11
24.4324
 21
10
  0
LINE
  8
0
 10
24.4324
 20
10
 11
8
 21
10
  0
LINE
  8
0
 10
8
 20
10
 11
7.68605
 21
9.99013
  0
LINE
  8
0
 10
7.68605
 20
9.99013
 11
7.37334
 21
9.96057
  0
LINE
  8
0
 10
7.37334
 20
9.96057
 11
7.0631
 21
9.91144
  0
LINE
  8
0
 10
7.0631
 20
9.91144
 11
6.75655
 21
9.84291
  0
LINE
  8
0
 10
6.75655
 20
9.84291
 11
6.45491
 21
9.75528
  0
LINE
  8
0
 10
6.45491
 20
9.75528
 11
6.15938
 21
9.64888
  0
LINE
  8
0
 10
6.15938
 20
9.64888
 11
5.87111
 21
9.52414
  0
LINE
  8
0
 10
5.87111
 20
9.52414
 11
5.59123
 21
9.38153
  0
LINE
  8
0
 10
5.59123
 20
9.38153
 11
5.32086
 21
9.22163
  0
LINE
  8
0
 10
5.32086
 20
9.22163
 11
5.06108
 21
9.04509
  0
LINE
  8
0
 10
5.06108
 20
9.04509
 11
4.81288
 21
8.85257
  0
LINE
  8
0
 10
4.81288
 20
8.85257
 11
4.57727
 21
8.64484
  0
LINE
  8
0
 10
4.57727
 20
8.64484
 11
4.35516
 21
8.42273
  0
LINE
  8
0
 10
4.35516
 20
8.42273
 11
4.14743
 21
8.18712
  0
LINE
  8
0
 10
4.14743
 20
8.18712
 11
3.95491
 21
7.93892
  0
LINE
  8
0
 10
3.95491
 20
7.93892
 11
3.77837
 21
7.67914
  0
LINE
  8
0
 10
3.77837
 20
7.67914
 11
3.61847
 21
7.40877
  0
LINE
  8
0
 10
3.61847
 20
7.40877
 11
3.47586
 21
7.12889
  0
LINE
  8
0
 10
3.47586
 20
7.12889
 11
3.35112
 21
6.84062
  0
LINE
  8
0
 10
3.35112
 20
6.84062
 11
3.24472
 21
6.54509
  0
LINE
  8
0
 10
3.24472
 20
6.54509
 11
3.17072
 21
6.29034
  0
LINE
  8
0
 10
3.17072
 20
6.29034
 11
3.01471
 21
6.10156
  0
LINE
  8
0
 10
3.01471
 20
6.10156
 11
3.01279
 21
6.09909
  0
LINE
  8
0
 10
3.01279
 20
6.09909
 11
2.82176
 21
5.8363
  0
LINE
  8
0
 10
2.82176
 20
5.8363
 11
2.81999
 21
5.83369
  0
LINE
  8
0
 10
2.81999
 20
5.83369
 11
2.6575
 21
5.57779
  0
LINE
  8
0
 10
2.6575
 20
5.57779
 11
2.6559
 21
5.57509
  0
LINE
  8
0
 10
2.6559
 20
5.57509
 11
2.49875
 21
5.28932
  0
LINE
  8
0
 10
2.49875
 20
5.28932
 11
2.49733
 21
5.28653
  0
LINE
  8
0
 10
2.49733
 20
5.28653
 11
2.36786
 21
5.01137
  0
LINE
  8
0
 10
2.36786
 20
5.01137
 11
2.36661
 21
5.00848
  0
LINE
  8
0
 10
2.36661
 20
5.00848
 11
2.36324
 21
5
  0
LINE
  8
0
 10
2.36324
 20
5
 11
-8
 21
5
  0
LINE
  8
0
 10
-8
 20
5
 11
-8.31395
 21
4.99013
  0
LINE
  8
0
 10
-8.31395
 20
4.99013
 11
-8.62666
 21
4.96057
  0
LINE
  8
0
 10
-8.62666
 20
4.96057
 11
-8.9369
 21
4.91144
  0
LINE
  8
0
 10
-8.9369
 20
4.91144
 11
-9.24345
 21
4.84291
  0
LINE
  8
0
 10
-9.24345
 20
4.84291
 11
-9.54509
 21
4.75528
  0
LINE
  8
0
 10
-9.54509
 20
4.75528
 11
-9.84062
 21
4.64888
  0
LINE
  8
0
 10
-9.84062
 20
4.64888
 11
-10.1289
 21
4.52414
  0
LINE
  8
0
 10
-10.1289
 20
4.52414
 11
-10.4088
 21
4.38153
  0
LINE
  8
0
 10
-10.4088
 20
4.38153
 11
-10.6791
 21
4.22163
  0
LINE
  8
0
 10
-10.6791
 20
4.22163
 11
-10.9389
 21
4.04509
  0
LINE
  8
0
 10
-10.9389
 20
4.04509
 11
-11.1871
 21
3.85257
  0
LINE
  8
0
 10
-11.1871
 20
3.85257
 11
-11.4227
 21
3.64484
  0
LINE
  8
0
 10
-11.4227
 20
3.64484
 11
-11.6448
 21
3.42273
  0
LINE
  8
0
 10
-11.6448
 20
3.42273
 11
-11.8526
 21
3.18712
  0
LINE
  8
0
 10
-11.8526
 20
3.18712
 11
-12.0451
 21
2.93892
  0
LINE
  8
0
 10
-12.0451
 20
2.93892
 11
-12.2216
 21
2.67914
  0
LINE
  8
0
 10
-12.2216
 20
2.67914
 11
-12.3815
 21
2.40877
  0
LINE
  8
0
 10
-12.3815
 20
2.40877
 11
-12.5241
 21
2.12889
  0
LINE
  8
0
 10
-12.5241
 20
2.12889
 11
-12.6489
 21
1.84062
  0
LINE
  8
0
 10
-12.6489
 20
1.84062
 11
-12.7553
 21
1.54509
  0
LINE
  8
0
 10
-12.7553
 20
1.54509
 11
-12.8429
 21
1.24345
  0
LINE
  8
0
 10
-12.8429
 20
1.24345
 11
-12.9114
 21
0.936905
  0
LINE
  8
0
 10
-12.9114
 20
0.936905
 11
-12.9606
 21
0.626663
  0
LINE
  8
0
 10
-12.9606
 20
0.626663
 11
-12.9901
 21
0.31395
  0
LINE
  8
0
 10
-12.9901
 20
0.31395
 11
-13
 21
0
  0
LINE
  8
0
 10
-13
 20
0
 11
-13
 21
-32
  0
LINE
  8
0
 10
-13
 20
-32
 11
-12.9901
 21
-32.3139
  0
LINE
  8
0
 10
-12.9901
 20
-32.3139
 11
-12.9606
 21
-32.6267
  0
LINE
  8
0
 10
-12.9606
 20
-32.6267
 11
-12.9114
 21
-32.9369
  0
LINE
  8
0
 10
-12.9114
 20
-32.9369
 11
-12.8429
 21
-33.2435
  0
LINE
  8
0
 10
-12.8429
 20
-33.2435
 11
-12.7553
 21
-33.5451
  0
LINE
  8
0
 10
-12.7553
 20
-33.5451
 11
-12.6489
 21
-33.8406
  0
LINE
  8
0
 10
-12.6489
 20
-33.8406
 11
-12.5241
 21
-34.1289
  0
LINE
  8
0
 10
-12.5241
 20
-34.1289
 11
-12.3815
 21
-34.4088
  0
LINE
  8
0
 10
-12.3815
 20
-34.4088
 11
-12.2216
 21
-34.6791
  0
LINE
  8
0
 10
-12.2216
 20
-34.6791
 11
-12.0451
 21
-34.9389
  0
LINE
  8
0
 10
-12.0451
 20
-34.9389
 11
-11.8526
 21
-35.1871
  0
LINE
  8
0
 10
-11.8526
 20
-35.1871
 11
-11.6448
 21
-35.4227
  0
LINE
  8
0
 10
-11.6448
 20
-35.4227
 11
-11.4227
 21
-35.6448
  0
LINE
  8
0
 10
-11.4227
 20
-35.6448
 11
-11.1871
 21
-35.8526
  0
LINE
  8
0
 10
-11.1871
 20
-35.8526
 11
-10.9389
 21
-36.0451
  0
LINE
  8
0
 10
-10.9389
 20
-36.0451
 11
-10.6791
 21
-36.2216
  0
LINE
  8
0
 10
-10.6791
 20
-36.2216
 11
-10.4088
 21
-36.3815
  0
LINE
  8
0
 10
-10.4088
 20
-36.3815
 11
-10.1289
 21
-36.5241
  0
LINE
  8
0
 10
-10.1289
 20
-36.5241
 11
-9.84062
 21
-36.6489
  0
LINE
  8
0
 10
-9.84062
 20
-36.6489
 11
-9.54509
 21
-36.7553
  0
LINE
  8
0
 10
-9.54509
 20
-36.7553
 11
-9.24345
 21
-36.8429
  0
LINE
  8
0
 10
-9.24345
 20
-36.8429
 11
-8.9369
 21
-36.9114
  0
LINE
  8
0
 10
-8.9369
 20
-36.9114
 11
-8.62666
 21
-36.9606
  0
LINE
  8
0
 10
-8.62666
 20
-36.9606
 11
-8.31395
 21
-36.9901
  0
LINE
  8
0
 10
-8.31395
 20
-36.9901
 11
-8
 21
-37
  0
LINE
  8
0
 10
-8
 20
-37
 11
2.36324
 21
-37
  0
LINE
  8
0
 10
2.36324
 20
-37
 11
2.36661
 21
-37.0085
  0
LINE
  8
0
 10
2.36661
 20
-37.0085
 11
2.36786
 21
-37.0114
  0
LINE
  8
0
 10
2.36786
 20
-37.0114
 11
2.49733
 21
-37.2865
  0
LINE
  8
0
 10
2.49733
 20
-37.2865
 11
2.49875
 21
-37.2893
  0
LINE
  8
0
 10
2.49875
 20
-37.2893
 11
2.6559
 21
-37.5751
  0
LINE
  8
0
 10
2.6559
 20
-37.5751
 11
2.6575
 21
-37.5778
  0
LINE
  8
0
 10
2.6575
 20
-37.5778
 11
2.81999
 21
-37.8337
  0
LINE
  8
0
 10
2.81999
 20
-37.8337
 11
2.82176
 21
-37.8363
  0
LINE
  8
0
 10
2.82176
 20
-37.8363
 11
3
 21
-38.0815
  0
LINE
  8
0
 10
3
 20
-38.0815
 11
3
 21
-49
  0
LINE
  8
0
 10
3
 20
-49
 11
3.00987
 21
-49.3139
  0
LINE
  8
0
 10
3.00987
 20
-49.3139
 11
3.03943
 21
-49.6267
  0
LINE
  8
0
 10
3.03943
 20
-49.6267
 11
3.08856
 21
-49.9369
  0
LINE
  8
0
 10
3.08856
 20
-49.9369
 11
3.15709
 21
-50.2435
  0
LINE
  8
0
 10
3.15709
 20
-50.2435
 11
3.24472
 21
-50.5451
  0
LINE
  8
0
 10
3.24472
 20
-50.5451
 11
3.35112
 21
-50.8406
  0
LINE
  8
0
 10
3.35112
 20
-50.8406
 11
3.47586
 21
-51.1289
  0
LINE
  8
0
 10
3.47586
 20
-51.1289
 11
3.61847
 21
-51.4088
  0
LINE
  8
0
 10
3.61847
 20
-51.4088
 11
3.77837
 21
-51.6791
  0
LINE
  8
0
 10
3.77837
 20
-51.6791
 11
3.95491
 21
-51.9389
  0
LINE
  8
0
 10
3.95491
 20
-51.9389
 11
4.14743
 21
-52.1871
  0
LINE
  8
0
 10
4.14743
 20
-52.1871
 11
4.35516
 21
-52.4227
  0
LINE
  8
0
 10
4.35516
 20
-52.4227
 11
4.57727
 21
-52.6448
  0
LINE
  8
0
 10
4.57727
 20
-52.6448
 11
4.81288
 21
-52.8526
  0
LINE
  8
0
 10
4.81288
 20
-52.8526
 11
5.06108
 21
-53.0451
  0
LINE
  8
0
 10
5.06108
 20
-53.0451
 11
5.32086
 21
-53.2216
  0
LINE
  8
0
 10
5.32086
 20
-53.2216
 11
5.59123
 21
-53.3815
  0
LINE
  8
0
 10
5.59123
 20
-53.3815
 11
5.87111
 21
-53.5241
  0
LINE
  8
0
 10
5.87111
 20
-53.5241
 11
6.15938
 21
-53.6489
  0
LINE
  8
0
 10
6.15938
 20
-53.6489
 11
6.45491
 21
-53.7553
  0
LINE
  8
0
 10
6.45491
 20
-53.7553
 11
6.75655
 21
-53.8429
  0
LINE
  8
0
 10
6.75655
 20
-53.8429
 11
7.0631
 21
-53.9114
  0
LINE
  8
0
 10
7.0631
 20
-53.9114
 11
7.37334
 21
-53.9606
  0
LINE
  8
0
 10
7.37334
 20
-53.9606
 11
7.68605
 21
-53.9901
  0
LINE
  8
0
 10
7.68605
 20
-53.9901
 11
8
 21
-54
  0
LINE
  8
0
 10
8
 20
-54
 11
28
 21
-54
  0
LINE
  8
0
 10
28
 20
-54
 11
28.3139
 21
-53.9901
  0
LINE
  8
0
 10
28.3139
 20
-53.9901
 11
28.6267
 21
-53.9606
  0
LINE
  8
0
 10
28.6267
 20
-53.9606
 11
28.9369
 21
-53.9114
  0
LINE
  8
0
 10
28.9369
 20
-53.9114
 11
29.2435
 21
-53.8429
  0
LINE
  8
0
 10
29.2435
 20
-53.8429
 11
29.5451
 21
-53.7553
  0
LINE
  8
0
 10
29.5451
 20
-53.7553
 11
29.8406
 21
-53.6489
  0
LINE
  8
0
 10
29.8406
 20
-53.6489
 11
30.1289
 21
-53.5241
  0
LINE
  8
0
 10
30.1289
 20
-53.5241
 11
30.4088
 21
-53.3815
  0
LINE
  8
0
 10
30.4088
 20
-53.3815
 11
30.6791
 21
-53.2216
  0
LINE
  8
0
 10
30.6791
 20
-53.2216
 11
30.9389
 21
-53.0451
  0
LINE
  8
0
 10
30.9389
 20
-53.0451
 11
31.1871
 21
-52.8526
  0
LINE
  8
0
 10
31.1871
 20
-52.8526
 11
31.4227
 21
-52.6448
  0
LINE
  8
0
 10
31.4227
 20
-52.6448
 11
31.5676
 21
-52.5
  0
LINE
  8
0
 10
31.5676
 20
-52.5
 11
44.3627
 21
-52.5
  0
LINE
  8
0
 10
44.3627
 20
-52.5
 11
44.428
 21
-52.5698
  0
LINE
  8
0
 10
44.428
 20
-52.5698
 11
44.4302
 21
-52.572
  0
LINE
  8
0
 10
44.4302
 20
-52.572
 11
44.5128
 21
-52.6494
  0
LINE
  8
0
 10
44.5128
 20
-52.6494
 11
44.5128
 21
-66.8997
  0
LINE
  8
0
 10
44.5128
 20
-66.8997
 11
44.5227
 21
-67.2137
  0
LINE
  8
0
 10
44.5227
 20
-67.2137
 11
44.5522
 21
-67.5264
  0
LINE
  8
0
 10
44.5522
 20
-67.5264
 11
44.6014
 21
-67.8367
  0
LINE
  8
0
 10
44.6014
 20
-67.8367
 11
44.6699
 21
-68.1432
  0
LINE
  8
0
 10
44.6699
 20
-68.1432
 11
44.7575
 21
-68.4448
  0
LINE
  8
0
 10
44.7575
 20
-68.4448
 11
44.8639
 21
-68.7404
  0
LINE
  8
0
 10
44.8639
 20
-68.7404
 11
44.9887
 21
-69.0286
  0
LINE
  8
0
 10
44.9887
 20
-69.0286
 11
45.1313
 21
-69.3085
  0
LINE
  8
0
 10
45.1313
 20
-69.3085
 11
45.2912
 21
-69.5789
  0
LINE
  8
0
 10
45.2912
 20
-69.5789
 11
45.4677
 21
-69.8387
  0
LINE
  8
0
 10
45.4677
 20
-69.8387
 11
45.6602
 21
-70.0869
  0
LINE
  8
0
 10
45.6602
 20
-70.0869
 11
45.868
 21
-70.3225
  0
LINE
  8
0
 10
45.868
 20
-70.3225
 11
46.0901
 21
-70.5446
  0
LINE
  8
0
 10
46.0901
 20
-70.5446
 11
46.3257
 21
-70.7523
  0
LINE
  8
0
 10
46.3257
 20
-70.7523
 11
46.5739
 21
-70.9448
  0
LINE
  8
0
 10
46.5739
 20
-70.9448
 11
46.8337
 21
-71.1214
  0
LINE
  8
0
 10
46.8337
 20
-71.1214
 11
47.104
 21
-71.2813
  0
LINE
  8
0
 10
47.104
 20
-71.2813
 11
47.3839
 21
-71.4239
  0
LINE
  8
0
 10
47.3839
 20
-71.4239
 11
47.6722
 21
-71.5486
  0
LINE
  8
0
 10
47.6722
 20
-71.5486
 11
47.9677
 21
-71.655
  0
LINE
  8
0
 10
47.9677
 20
-71.655
 11
48.2694
 21
-71.7427
  0
LINE
  8
0
 10
48.2694
 20
-71.7427
 11
48.5759
 21
-71.8112
  0
LINE
  8
0
 10
48.5759
 20
-71.8112
 11
48.8862
 21
-71.8603
  0
LINE
  8
0
 10
48.8862
 20
-71.8603
 11
49.1989
 21
-71.8899
  0
LINE
  8
0
 10
49.1989
 20
-71.8899
 11
49.5128
 21
-71.8997
  0
LINE
  8
0
 10
49.5128
 20
-71.8997
 11
83.5144
 21
-71.8997
  0
LINE
  8
0
 10
83.5144
 20
-71.8997
 11
83.7301
 21
-72.0191
  0
LINE
  8
0
 10
83.7301
 20
-72.0191
 11
84.0139
 21
-72.1537
  0
LINE
  8
0
 10
84.0139
 20
-72.1537
 11
84.3057
 21
-72.2701
  0
LINE
  8
0
 10
84.3057
 20
-72.2701
 11
84.6041
 21
-72.368
  0
LINE
  8
0
 10
84.6041
 20
-72.368
 11
101.045
 21
-77.1948
  0
LINE
  8
0
 10
101.045
 20
-77.1948
 11
112.565
 21
-85.5645
  0
LINE
  8
0
 10
112.565
 20
-85.5645
 11
112.573
 21
-85.6069
  0
LINE
  8
0
 10
112.573
 20
-85.6069
 11
112.574
 21
-85.61
  0
LINE
  8
0
 10
112.574
 20
-85.61
 11
112.647
 21
-85.8956
  0
LINE
  8
0
 10
112.647
 20
-85.8956
 11
112.648
 21
-85.8987
  0
LINE
  8
0
 10
112.648
 20
-85.8987
 11
112.749
 21
-86.2125
  0
LINE
  8
0
 10
112.749
 20
-86.2125
 11
112.75
 21
-86.2154
  0
LINE
  8
0
 10
112.75
 20
-86.2154
 11
112.867
 21
-86.5085
  0
LINE
  8
0
 10
112.867
 20
-86.5085
 11
112.868
 21
-86.5114
  0
LINE
  8
0
 10
112.868
 20
-86.5114
 11
112.997
 21
-86.7865
  0
LINE
  8
0
 10
112.997
 20
-86.7865
 11
112.999
 21
-86.7893
  0
LINE
  8
0
 10
112.999
 20
-86.7893
 11
113.156
 21
-87.0751
  0
LINE
  8
0
 10
113.156
 20
-87.0751
 11
113.158
 21
-87.0778
  0
LINE
  8
0
 10
113.158
 20
-87.0778
 11
113.32
 21
-87.3337
  0
LINE
  8
0
 10
113.32
 20
-87.3337
 11
113.322
 21
-87.3363
  0
LINE
  8
0
 10
113.322
 20
-87.3363
 11
113.513
 21
-87.5991
  0
LINE
  8
0
 10
113.513
 20
-87.5991
 11
113.515
 21
-87.6016
  0
LINE
  8
0
 10
113.515
 20
-87.6016
 11
113.703
 21
-87.8295
  0
LINE
  8
0
 10
113.703
 20
-87.8295
 11
113.705
 21
-87.8319
  0
LINE
  8
0
 10
113.705
 20
-87.8319
 11
113.928
 21
-88.0698
  0
LINE
  8
0
 10
113.928
 20
-88.0698
 11
113.93
 21
-88.072
  0
LINE
  8
0
 10
113.93
 20
-88.072
 11
114.168
 21
-88.2948
  0
LINE
  8
0
 10
114.168
 20
-88.2948
 11
114.17
 21
-88.2969
  0
LINE
  8
0
 10
114.17
 20
-88.2969
 11
114.398
 21
-88.4853
  0
LINE
  8
0
 10
114.398
 20
-88.4853
 11
114.401
 21
-88.4872
  0
LINE
  8
0
 10
114.401
 20
-88.4872
 11
114.664
 21
-88.6782
  0
LINE
  8
0
 10
114.664
 20
-88.6782
 11
114.666
 21
-88.68
  0
LINE
  8
0
 10
114.666
 20
-88.68
 11
114.922
 21
-88.8425
  0
LINE
  8
0
 10
114.922
 20
-88.8425
 11
114.925
 21
-88.8441
  0
LINE
  8
0
 10
114.925
 20
-88.8441
 11
115.211
 21
-89.0012
  0
LINE
  8
0
 10
115.211
 20
-89.0012
 11
115.213
 21
-89.0027
  0
LINE
  8
0
 10
115.213
 20
-89.0027
 11
115.489
 21
-89.1321
  0
LINE
  8
0
 10
115.489
 20
-89.1321
 11
115.492
 21
-89.1334
  0
LINE
  8
0
 10
115.492
 20
-89.1334
 11
115.785
 21
-89.2497
  0
LINE
  8
0
 10
115.785
 20
-89.2497
 11
115.788
 21
-89.2507
  0
LINE
  8
0
 10
115.788
 20
-89.2507
 11
116.101
 21
-89.3524
  0
LINE
  8
0
 10
116.101
 20
-89.3524
 11
116.104
 21
-89.3533
  0
LINE
  8
0
 10
116.104
 20
-89.3533
 11
116.39
 21
-89.4265
  0
LINE
  8
0
 10
116.39
 20
-89.4265
 11
116.393
 21
-89.4272
  0
LINE
  8
0
 10
116.393
 20
-89.4272
 11
116.716
 21
-89.4887
  0
LINE
  8
0
 10
116.716
 20
-89.4887
 11
116.719
 21
-89.4892
  0
LINE
  8
0
 10
116.719
 20
-89.4892
 11
117.008
 21
-89.526
  0
LINE
  8
0
 10
117.008
 20
-89.526
 11
117.011
 21
-89.5263
  0
LINE
  8
0
 10
117.011
 20
-89.5263
 11
117.351
 21
-89.5478
  0
LINE
  8
0
 10
117.351
 20
-89.5478
 11
117.354
 21
-89.5479
  0
LINE
  8
0
 10
117.354
 20
-89.5479
 11
117.646
 21
-89.5479
  0
LINE
  8
0
 10
46.9901
 20
6.25345
 11
46.8807
 21
6.26379
  0
LINE
  8
0
 10
46.8807
 20
6.26379
 11
46.7721
 21
6.28099
  0
LINE
  8
0
 10
46.7721
 20
6.28099
 11
46.6648
 21
6.30498
  0
LINE
  8
0
 10
46.6648
 20
6.30498
 11
46.5592
 21
6.33565
  0
LINE
  8
0
 10
46.5592
 20
6.33565
 11
46.4558
 21
6.37288
  0
LINE
  8
0
 10
46.4558
 20
6.37288
 11
46.3549
 21
6.41655
  0
LINE
  8
0
 10
46.3549
 20
6.41655
 11
46.2569
 21
6.46646
  0
LINE
  8
0
 10
46.2569
 20
6.46646
 11
46.1623
 21
6.52242
  0
LINE
  8
0
 10
46.1623
 20
6.52242
 11
46.0714
 21
6.58421
  0
LINE
  8
0
 10
46.0714
 20
6.58421
 11
45.9845
 21
6.6516
  0
LINE
  8
0
 10
45.9845
 20
6.6516
 11
45.902
 21
6.7243
  0
LINE
  8
0
 10
45.902
 20
6.7243
 11
45.8243
 21
6.80203
  0
LINE
  8
0
 10
45.8243
 20
6.80203
 11
45.7516
 21
6.88451
  0
LINE
  8
0
 10
45.7516
 20
6.88451
 11
45.6842
 21
6.97137
  0
LINE
  8
0
 10
45.6842
 20
6.97137
 11
45.6224
 21
7.0623
  0
LINE
  8
0
 10
45.6224
 20
7.0623
 11
45.5665
 21
7.15692
  0
LINE
  8
0
 10
45.5665
 20
7.15692
 11
45.5165
 21
7.25488
  0
LINE
  8
0
 10
45.5165
 20
7.25488
 11
45.4729
 21
7.35577
  0
LINE
  8
0
 10
45.4729
 20
7.35577
 11
45.4356
 21
7.45921
  0
LINE
  8
0
 10
45.4356
 20
7.45921
 11
45.405
 21
7.56479
  0
LINE
  8
0
 10
45.405
 20
7.56479
 11
45.381
 21
7.67207
  0
LINE
  8
0
 10
45.381
 20
7.67207
 11
45.3638
 21
7.78065
  0
LINE
  8
0
 10
45.3638
 20
7.78065
 11
45.3534
 21
7.89011
  0
LINE
  8
0
 10
45.3534
 20
7.89011
 11
45.35
 21
8
  0
LINE
  8
0
 10
45.35
 20
8
 11
45.3534
 21
8.10988
  0
LINE
  8
0
 10
45.3534
 20
8.10988
 11
45.3638
 21
8.21933
  0
LINE
  8
0
 10
45.3638
 20
8.21933
 11
45.381
 21
8.32791
  0
LINE
  8
0
 10
45.381
 20
8.32791
 11
45.405
 21
8.4352
  0
LINE
  8
0
 10
45.405
 20
8.4352
 11
45.4356
 21
8.54077
  0
LINE
  8
0
 10
45.4356
 20
8.54077
 11
45.4729
 21
8.64421
  0
LINE
  8
0
 10
45.4729
 20
8.64421
 11
45.5165
 21
8.7451
  0
LINE
  8
0
 10
45.5165
 20
8.7451
 11
45.5665
 21
8.84306
  0
LINE
  8
0
 10
45.5665
 20
8.84306
 11
45.6224
 21
8.93768
  0
LINE
  8
0
 10
45.6224
 20
8.93768
 11
45.6842
 21
9.02861
  0
LINE
  8
0
 10
45.6842
 20
9.02861
 11
45.7516
 21
9.11548
  0
LINE
  8
0
 10
45.7516
 20
9.11548
 11
45.8243
 21
9.19795
  0
LINE
  8
0
 10
45.8243
 20
9.19795
 11
45.902
 21
9.27568
  0
LINE
  8
0
 10
45.902
 20
9.27568
 11
45.9845
 21
9.34839
  0
LINE
  8
0
 10
45.9845
 20
9.34839
 11
46.0714
 21
9.41577
  0
LINE
  8
0
 10
46.0714
 20
9.41577
 11
46.1623
 21
9.47757
  0
LINE
  8
0
 10
46.1623
 20
9.47757
 11
46.2569
 21
9.53352
  0
LINE
  8
0
 10
46.2569
 20
9.53352
 11
46.3549
 21
9.58344
  0
LINE
  8
0
 10
46.3549
 20
9.58344
 11
46.4558
 21
9.62711
  0
LINE
  8
0
 10
46.4558
 20
9.62711
 11
46.5592
 21
9.66434
  0
LINE
  8
0
 10
46.5592
 20
9.66434
 11
46.6648
 21
9.69501
  0
LINE
  8
0
 10
46.6648
 20
9.69501
 11
46.7721
 21
9.71899
  0
LINE
  8
0
 10
46.7721
 20
9.71899
 11
46.8807
 21
9.73619
  0
LINE
  8
0
 10
46.8807
 20
9.73619
 11
46.9901
 21
9.74654
  0
LINE
  8
0
 10
46.9901
 20
9.74654
 11
47.1
 21
9.75
  0
LINE
  8
0
 10
47.1
 20
9.75
 11
47.2099
 21
9.74654
  0
LINE
  8
0
 10
47.2099
 20
9.74654
 11
47.3193
 21
9.73619
  0
LINE
  8
0
 10
47.3193
 20
9.73619
 11
47.4279
 21
9.71899
  0
LINE
  8
0
 10
47.4279
 20
9.71899
 11
47.5352
 21
9.69501
  0
LINE
  8
0
 10
47.5352
 20
9.69501
 11
47.6408
 21
9.66434
  0
LINE
  8
0
 10
47.6408
 20
9.66434
 11
47.7442
 21
9.62711
  0
LINE
  8
0
 10
47.7442
 20
9.62711
 11
47.8451
 21
9.58344
  0
LINE
  8
0
 10
47.8451
 20
9.58344
 11
47.9431
 21
9.53352
  0
LINE
  8
0
 10
47.9431
 20
9.53352
 11
48.0377
 21
9.47757
  0
LINE
  8
0
 10
48.0377
 20
9.47757
 11
48.1286
 21
9.41577
  0
LINE
  8
0
 10
48.1286
 20
9.41577
 11
48.2155
 21
9.34839
  0
LINE
  8
0
 10
48.2155
 20
9.34839
 11
48.2979
 21
9.27568
  0
LINE
  8
0
 10
48.2979
 20
9.27568
 11
48.3757
 21
9.19795
  0
LINE
  8
0
 10
48.3757
 20
9.19795
 11
48.4484
 21
9.11548
  0
LINE
  8
0
 10
48.4484
 20
9.11548
 11
48.5158
 21
9.02861
  0
LINE
  8
0
 10
48.5158
 20
9.02861
 11
48.5776
 21
8.93768
  0
LINE
  8
0
 10
48.5776
 20
8.93768
 11
48.6335
 21
8.84306
  0
LINE
  8
0
 10
48.6335
 20
8.84306
 11
48.6834
 21
8.7451
  0
LINE
  8
0
 10
48.6834
 20
8.7451
 11
48.7271
 21
8.64421
  0
LINE
  8
0
 10
48.7271
 20
8.64421
 11
48.7643
 21
8.54077
  0
LINE
  8
0
 10
48.7643
 20
8.54077
 11
48.795
 21
8.4352
  0
LINE
  8
0
 10
48.795
 20
8.4352
 11
48.819
 21
8.32791
  0
LINE
  8
0
 10
48.819
 20
8.32791
 11
48.8362
 21
8.21933
  0
LINE
  8
0
 10
48.8362
 20
8.21933
 11
48.8465
 21
8.10988
  0
LINE
  8
0
 10
48.8465
 20
8.10988
 11
48.85
 21
8
  0
LINE
  8
0
 10
48.85
 20
8
 11
48.8465
 21
7.89011
  0
LINE
  8
0
 10
48.8465
 20
7.89011
 11
48.8362
 21
7.78065
  0
LINE
  8
0
 10
48.8362
 20
7.78065
 11
48.819
 21
7.67207
  0
LINE
  8
0
 10
48.819
 20
7.67207
 11
48.795
 21
7.56479
  0
LINE
  8
0
 10
48.795
 20
7.56479
 11
48.7643
 21
7.45921
  0
LINE
  8
0
 10
48.7643
 20
7.45921
 11
48.7271
 21
7.35577
  0
LINE
  8
0
 10
48.7271
 20
7.35577
 11
48.6834
 21
7.25488
  0
LINE
  8
0
 10
48.6834
 20
7.25488
 11
48.6335
 21
7.15692
  0
LINE
  8
0
 10
48.6335
 20
7.15692
 11
48.5776
 21
7.0623
  0
LINE
  8
0
 10
48.5776
 20
7.0623
 11
48.5158
 21
6.97137
  0
LINE
  8
0
 10
48.5158
 20
6.97137
 11
48.4484
 21
6.88451
  0
LINE
  8
0
 10
48.4484
 20
6.88451
 11
48.3757
 21
6.80203
  0
LINE
  8
0
 10
48.3757
 20
6.80203
 11
48.2979
 21
6.7243
  0
LINE
  8
0
 10
48.2979
 20
6.7243
 11
48.2155
 21
6.6516
  0
LINE
  8
0
 10
48.2155
 20
6.6516
 11
48.1286
 21
6.58421
  0
LINE
  8
0
 10
48.1286
 20
6.58421
 11
48.0377
 21
6.52242
  0
LINE
  8
0
 10
48.0377
 20
6.52242
 11
47.9431
 21
6.46646
  0
LINE
  8
0
 10
47.9431
 20
6.46646
 11
47.8451
 21
6.41655
  0
LINE
  8
0
 10
47.8451
 20
6.41655
 11
47.7442
 21
6.37288
  0
LINE
  8
0
 10
47.7442
 20
6.37288
 11
47.6408
 21
6.33565
  0
LINE
  8
0
 10
47.6408
 20
6.33565
 11
47.5352
 21
6.30498
  0
LINE
  8
0
 10
47.5352
 20
6.30498
 11
47.4279
 21
6.28099
  0
LINE
  8
0
 10
47.4279
 20
6.28099
 11
47.3193
 21
6.26379
  0
LINE
  8
0
 10
47.3193
 20
6.26379
 11
47.2099
 21
6.25345
  0
LINE
  8
0
 10
47.2099
 20
6.25345
 11
47.1
 21
6.25
  0
LINE
  8
0
 10
47.1
 20
6.25
 11
46.9901
 21
6.25345
  0
LINE
  8
0
 10
85.3901
 20
6.25345
 11
85.2807
 21
6.26379
  0
LINE
  8
0
 10
85.2807
 20
6.26379
 11
85.1721
 21
6.28099
  0
LINE
  8
0
 10
85.1721
 20
6.28099
 11
85.0648
 21
6.30498
  0
LINE
  8
0
 10
85.0648
 20
6.30498
 11
84.9592
 21
6.33565
  0
LINE
  8
0
 10
84.9592
 20
6.33565
 11
84.8558
 21
6.37288
  0
LINE
  8
0
 10
84.8558
 20
6.37288
 11
84.7549
 21
6.41655
  0
LINE
  8
0
 10
84.7549
 20
6.41655
 11
84.6569
 21
6.46646
  0
LINE
  8
0
 10
84.6569
 20
6.46646
 11
84.5623
 21
6.52242
  0
LINE
  8
0
 10
84.5623
 20
6.52242
 11
84.4714
 21
6.58421
  0
LINE
  8
0
 10
84.4714
 20
6.58421
 11
84.3845
 21
6.6516
  0
LINE
  8
0
 10
84.3845
 20
6.6516
 11
84.302
 21
6.7243
  0
LINE
  8
0
 10
84.302
 20
6.7243
 11
84.2243
 21
6.80203
  0
LINE
  8
0
 10
84.2243
 20
6.80203
 11
84.1516
 21
6.88451
  0
LINE
  8
0
 10
84.1516
 20
6.88451
 11
84.0842
 21
6.97137
  0
LINE
  8
0
 10
84.0842
 20
6.97137
 11
84.0224
 21
7.0623
  0
LINE
  8
0
 10
84.0224
 20
7.0623
 11
83.9665
 21
7.15692
  0
LINE
  8
0
 10
83.9665
 20
7.15692
 11
83.9165
 21
7.25488
  0
LINE
  8
0
 10
83.9165
 20
7.25488
 11
83.8729
 21
7.35577
  0
LINE
  8
0
 10
83.8729
 20
7.35577
 11
83.8356
 21
7.45921
  0
LINE
  8
0
 10
83.8356
 20
7.45921
 11
83.805
 21
7.56479
  0
LINE
  8
0
 10
83.805
 20
7.56479
 11
83.781
 21
7.67207
  0
LINE
  8
0
 10
83.781
 20
7.67207
 11
83.7638
 21
7.78065
  0
LINE
  8
0
 10
83.7638
 20
7.78065
 11
83.7534
 21
7.89011
  0
LINE
  8
0
 10
83.7534
 20
7.89011
 11
83.75
 21
8
  0
LINE
  8
0
 10
83.75
 20
8
 11
83.7534
 21
8.10988
  0
LINE
  8
0
 10
83.7534
 20
8.10988
 11
83.7638
 21
8.21933
  0
LINE
  8
0
 10
83.7638
 20
8.21933
 11
83.781
 21
8.32791
  0
LINE
  8
0
 10
83.781
 20
8.32791
 11
83.805
 21
8.4352
  0
LINE
  8
0
 10
83.805
 20
8.4352
 11
83.8356
 21
8.54077
  0
LINE
  8
0
 10
83.8356
 20
8.54077
 11
83.8729
 21
8.64421
  0
LINE
  8
0
 10
83.8729
 20
8.64421
 11
83.9165
 21
8.7451
  0
LINE
  8
0
 10
83.9165
 20
8.7451
 11
83.9665
 21
8.84306
  0
LINE
  8
0
 10
83.9665
 20
8.84306
 11
84.0224
 21
8.93768
  0
LINE
  8
0
 10
84.0224
 20
8.93768
 11
84.0842
 21
9.02861
  0
LINE
  8
0
 10
84.0842
 20
9.02861
 11
84.1516
 21
9.11548
  0
LINE
  8
0
 10
84.1516
 20
9.11548
 11
84.2243
 21
9.19795
  0
LINE
  8
0
 10
84.2243
 20
9.19795
 11
84.302
 21
9.27568
  0
LINE
  8
0
 10
84.302
 20
9.27568
 11
84.3845
 21
9.34839
  0
LINE
  8
0
 10
84.3845
 20
9.34839
 11
84.4714
 21
9.41577
  0
LINE
  8
0
 10
84.4714
 20
9.41577
 11
84.5623
 21
9.47757
  0
LINE
  8
0
 10
84.5623
 20
9.47757
 11
84.6569
 21
9.53352
  0
LINE
  8
0
 10
84.6569
 20
9.53352
 11
84.7549
 21
9.58344
  0
LINE
  8
0
 10
84.7549
 20
9.58344
 11
84.8558
 21
9.62711
  0
LINE
  8
0
 10
84.8558
 20
9.62711
 11
84.9592
 21
9.66434
  0
LINE
  8
0
 10
84.9592
 20
9.66434
 11
85.0648
 21
9.69501
  0
LINE
  8
0
 10
85.0648
 20
9.69501
 11
85.1721
 21
9.71899
  0
LINE
  8
0
 10
85.1721
 20
9.71899
 11
85.2807
 21
9.73619
  0
LINE
  8
0
 10
85.2807
 20
9.73619
 11
85.3901
 21
9.74654
  0
LINE
  8
0
 10
85.3901
 20
9.74654
 11
85.5
 21
9.75
  0
LINE
  8
0
 10
85.5
 20
9.75
 11
85.6099
 21
9.74654
  0
LINE
  8
0
 10
85.6099
 20
9.74654
 11
85.7193
 21
9.73619
  0
LINE
  8
0
 10
85.7193
 20
9.73619
 11
85.8279
 21
9.71899
  0
LINE
  8
0
 10
85.8279
 20
9.71899
 11
85.9352
 21
9.69501
  0
LINE
  8
0
 10
85.9352
 20
9.69501
 11
86.0408
 21
9.66434
  0
LINE
  8
0
 10
86.0408
 20
9.66434
 11
86.1442
 21
9.62711
  0
LINE
  8
0
 10
86.1442
 20
9.62711
 11
86.2451
 21
9.58344
  0
LINE
  8
0
 10
86.2451
 20
9.58344
 11
86.3431
 21
9.53352
  0
LINE
  8
0
 10
86.3431
 20
9.53352
 11
86.4377
 21
9.47757
  0
LINE
  8
0
 10
86.4377
 20
9.47757
 11
86.5286
 21
9.41577
  0
LINE
  8
0
 10
86.5286
 20
9.41577
 11
86.6155
 21
9.34839
  0
LINE
  8
0
 10
86.6155
 20
9.34839
 11
86.698
 21
9.27568
  0
LINE
  8
0
 10
86.698
 20
9.27568
 11
86.7757
 21
9.19795
  0
LINE
  8
0
 10
86.7757
 20
9.19795
 11
86.8484
 21
9.11548
  0
LINE
  8
0
 10
86.8484
 20
9.11548
 11
86.9158
 21
9.02861
  0
LINE
  8
0
 10
86.9158
 20
9.02861
 11
86.9776
 21
8.93768
  0
LINE
  8
0
 10
86.9776
 20
8.93768
 11
87.0335
 21
8.84306
  0
LINE
  8
0
 10
87.0335
 20
8.84306
 11
87.0834
 21
8.7451
  0
LINE
  8
0
 10
87.0834
 20
8.7451
 11
87.1271
 21
8.64421
  0
LINE
  8
0
 10
87.1271
 20
8.64421
 11
87.1643
 21
8.54077
  0
LINE
  8
0
 10
87.1643
 20
8.54077
 11
87.195
 21
8.4352
  0
LINE
  8
0
 10
87.195
 20
8.4352
 11
87.219
 21
8.32791
  0
LINE
  8
0
 10
87.219
 20
8.32791
 11
87.2362
 21
8.21933
  0
LINE
  8
0
 10
87.2362
 20
8.21933
 11
87.2465
 21
8.10988
  0
LINE
  8
0
 10
87.2465
 20
8.10988
 11
87.25
 21
8
  0
LINE
  8
0
 10
87.25
 20
8
 11
87.2465
 21
7.89011
  0
LINE
  8
0
 10
87.2465
 20
7.89011
 11
87.2362
 21
7.78065
  0
LINE
  8
0
 10
87.2362
 20
7.78065
 11
87.219
 21
7.67207
  0
LINE
  8
0
 10
87.219
 20
7.67207
 11
87.195
 21
7.56479
  0
LINE
  8
0
 10
87.195
 20
7.56479
 11
87.1643
 21
7.45921
  0
LINE
  8
0
 10
87.1643
 20
7.45921
 11
87.1271
 21
7.35577
  0
LINE
  8
0
 10
87.1271
 20
7.35577
 11
87.0834
 21
7.25488
  0
LINE
  8
0
 10
87.0834
 20
7.25488
 11
87.0335
 21
7.15692
  0
LINE
  8
0
 10
87.0335
 20
7.15692
 11
86.9776
 21
7.0623
  0
LINE
  8
0
 10
86.9776
 20
7.0623
 11
86.9158
 21
6.97137
  0
LINE
  8
0
 10
86.9158
 20
6.97137
 11
86.8484
 21
6.88451
  0
LINE
  8
0
 10
86.8484
 20
6.88451
 11
86.7757
 21
6.80203
  0
LINE
  8
0
 10
86.7757
 20
6.80203
 11
86.698
 21
6.7243
  0
LINE
  8
0
 10
86.698
 20
6.7243
 11
86.6155
 21
6.6516
  0
LINE
  8
0
 10
86.6155
 20
6.6516
 11
86.5286
 21
6.58421
  0
LINE
  8
0
 10
86.5286
 20
6.58421
 11
86.4377
 21
6.52242
  0
LINE
  8
0
 10
86.4377
 20
6.52242
 11
86.3431
 21
6.46646
  0
LINE
  8
0
 10
86.3431
 20
6.46646
 11
86.2451
 21
6.41655
  0
LINE
  8
0
 10
86.2451
 20
6.41655
 11
86.1442
 21
6.37288
  0
LINE
  8
0
 10
86.1442
 20
6.37288
 11
86.0408
 21
6.33565
  0
LINE
  8
0
 10
86.0408
 20
6.33565
 11
85.9352
 21
6.30498
  0
LINE
  8
0
 10
85.9352
 20
6.30498
 11
85.8279
 21
6.28099
  0
LINE
  8
0
 10
85.8279
 20
6.28099
 11
85.7193
 21
6.26379
  0
LINE
  8
0
 10
85.7193
 20
6.26379
 11
85.6099
 21
6.25345
  0
LINE
  8
0
 10
85.6099
 20
6.25345
 11
85.5
 21
6.25
  0
LINE
  8
0
 10
85.5
 20
6.25
 11
85.3901
 21
6.25345
  0
LINE
  8
0
 10
50.975
 20
-7.02499
 11
50.975
 21
7.02499
  0
LINE
  8
0
 10
50.975
 20
7.02499
 11
65.025
 21
7.02499
  0
LINE
  8
0
 10
65.025
 20
7.02499
 11
65.025
 21
-7.02499
  0
LINE
  8
0
 10
65.025
 20
-7.02499
 11
50.975
 21
-7.02499
  0
LINE
  8
0
 10
6.89011
 20
1.25345
 11
6.78065
 21
1.26379
  0
LINE
  8
0
 10
6.78065
 20
1.26379
 11
6.67207
 21
1.28099
  0
LINE
  8
0
 10
6.67207
 20
1.28099
 11
6.56479
 21
1.30498
  0
LINE
  8
0
 10
6.56479
 20
1.30498
 11
6.45921
 21
1.33565
  0
LINE
  8
0
 10
6.45921
 20
1.33565
 11
6.35577
 21
1.37288
  0
LINE
  8
0
 10
6.35577
 20
1.37288
 11
6.25488
 21
1.41655
  0
LINE
  8
0
 10
6.25488
 20
1.41655
 11
6.15692
 21
1.46646
  0
LINE
  8
0
 10
6.15692
 20
1.46646
 11
6.0623
 21
1.52242
  0
LINE
  8
0
 10
6.0623
 20
1.52242
 11
5.97137
 21
1.58421
  0
LINE
  8
0
 10
5.97137
 20
1.58421
 11
5.88451
 21
1.6516
  0
LINE
  8
0
 10
5.88451
 20
1.6516
 11
5.80203
 21
1.7243
  0
LINE
  8
0
 10
5.80203
 20
1.7243
 11
5.7243
 21
1.80203
  0
LINE
  8
0
 10
5.7243
 20
1.80203
 11
5.6516
 21
1.88451
  0
LINE
  8
0
 10
5.6516
 20
1.88451
 11
5.58421
 21
1.97137
  0
LINE
  8
0
 10
5.58421
 20
1.97137
 11
5.52242
 21
2.0623
  0
LINE
  8
0
 10
5.52242
 20
2.0623
 11
5.46646
 21
2.15692
  0
LINE
  8
0
 10
5.46646
 20
2.15692
 11
5.41655
 21
2.25488
  0
LINE
  8
0
 10
5.41655
 20
2.25488
 11
5.37288
 21
2.35577
  0
LINE
  8
0
 10
5.37288
 20
2.35577
 11
5.33565
 21
2.45921
  0
LINE
  8
0
 10
5.33565
 20
2.45921
 11
5.30498
 21
2.56479
  0
LINE
  8
0
 10
5.30498
 20
2.56479
 11
5.28099
 21
2.67207
  0
LINE
  8
0
 10
5.28099
 20
2.67207
 11
5.26379
 21
2.78065
  0
LINE
  8
0
 10
5.26379
 20
2.78065
 11
5.25345
 21
2.89011
  0
LINE
  8
0
 10
5.25345
 20
2.89011
 11
5.25
 21
3
  0
LINE
  8
0
 10
5.25
 20
3
 11
5.25345
 21
3.10988
  0
LINE
  8
0
 10
5.25345
 20
3.10988
 11
5.26379
 21
3.21933
  0
LINE
  8
0
 10
5.26379
 20
3.21933
 11
5.28099
 21
3.32791
  0
LINE
  8
0
 10
5.28099
 20
3.32791
 11
5.30498
 21
3.4352
  0
LINE
  8
0
 10
5.30498
 20
3.4352
 11
5.33565
 21
3.54077
  0
LINE
  8
0
 10
5.33565
 20
3.54077
 11
5.37288
 21
3.64421
  0
LINE
  8
0
 10
5.37288
 20
3.64421
 11
5.41655
 21
3.7451
  0
LINE
  8
0
 10
5.41655
 20
3.7451
 11
5.46646
 21
3.84306
  0
LINE
  8
0
 10
5.46646
 20
3.84306
 11
5.52242
 21
3.93768
  0
LINE
  8
0
 10
5.52242
 20
3.93768
 11
5.58421
 21
4.02861
  0
LINE
  8
0
 10
5.58421
 20
4.02861
 11
5.6516
 21
4.11548
  0
LINE
  8
0
 10
5.6516
 20
4.11548
 11
5.7243
 21
4.19795
  0
LINE
  8
0
 10
5.7243
 20
4.19795
 11
5.80203
 21
4.27568
  0
LINE
  8
0
 10
5.80203
 20
4.27568
 11
5.88451
 21
4.34839
  0
LINE
  8
0
 10
5.88451
 20
4.34839
 11
5.97137
 21
4.41577
  0
LINE
  8
0
 10
5.97137
 20
4.41577
 11
6.0623
 21
4.47757
  0
LINE
  8
0
 10
6.0623
 20
4.47757
 11
6.15692
 21
4.53352
  0
LINE
  8
0
 10
6.15692
 20
4.53352
 11
6.25488
 21
4.58344
  0
LINE
  8
0
 10
6.25488
 20
4.58344
 11
6.35577
 21
4.62711
  0
LINE
  8
0
 10
6.35577
 20
4.62711
 11
6.45921
 21
4.66434
  0
LINE
  8
0
 10
6.45921
 20
4.66434
 11
6.56479
 21
4.69501
  0
LINE
  8
0
 10
6.56479
 20
4.69501
 11
6.67207
 21
4.71899
  0
LINE
  8
0
 10
6.67207
 20
4.71899
 11
6.78065
 21
4.73619
  0
LINE
  8
0
 10
6.78065
 20
4.73619
 11
6.89011
 21
4.74654
  0
LINE
  8
0
 10
6.89011
 20
4.74654
 11
7
 21
4.75
  0
LINE
  8
0
 10
7
 20
4.75
 11
7.10988
 21
4.74654
  0
LINE
  8
0
 10
7.10988
 20
4.74654
 11
7.21933
 21
4.73619
  0
LINE
  8
0
 10
7.21933
 20
4.73619
 11
7.32791
 21
4.71899
  0
LINE
  8
0
 10
7.32791
 20
4.71899
 11
7.4352
 21
4.69501
  0
LINE
  8
0
 10
7.4352
 20
4.69501
 11
7.54077
 21
4.66434
  0
LINE
  8
0
 10
7.54077
 20
4.66434
 11
7.64421
 21
4.62711
  0
LINE
  8
0
 10
7.64421
 20
4.62711
 11
7.7451
 21
4.58344
  0
LINE
  8
0
 10
7.7451
 20
4.58344
 11
7.84306
 21
4.53352
  0
LINE
  8
0
 10
7.84306
 20
4.53352
 11
7.93768
 21
4.47757
  0
LINE
  8
0
 10
7.93768
 20
4.47757
 11
8.02861
 21
4.41577
  0
LINE
  8
0
 10
8.02861
 20
4.41577
 11
8.11548
 21
4.34839
  0
LINE
  8
0
 10
8.11548
 20
4.34839
 11
8.19795
 21
4.27568
  0
LINE
  8
0
 10
8.19795
 20
4.27568
 11
8.27568
 21
4.19795
  0
LINE
  8
0
 10
8.27568
 20
4.19795
 11
8.34839
 21
4.11548
  0
LINE
  8
0
 10
8.34839
 20
4.11548
 11
8.41577
 21
4.02861
  0
LINE
  8
0
 10
8.41577
 20
4.02861
 11
8.47757
 21
3.93768
  0
LINE
  8
0
 10
8.47757
 20
3.93768
 11
8.53352
 21
3.84306
  0
LINE
  8
0
 10
8.53352
 20
3.84306
 11
8.58344
 21
3.7451
  0
LINE
  8
0
 10
8.58344
 20
3.7451
 11
8.62711
 21
3.64421
  0
LINE
  8
0
 10
8.62711
 20
3.64421
 11
8.66434
 21
3.54077
  0
LINE
  8
0
 10
8.66434
 20
3.54077
 11
8.69501
 21
3.4352
  0
LINE
  8
0
 10
8.69501
 20
3.4352
 11
8.71899
 21
3.32791
  0
LINE
  8
0
 10
8.71899
 20
3.32791
 11
8.73619
 21
3.21933
  0
LINE
  8
0
 10
8.73619
 20
3.21933
 11
8.74654
 21
3.10988
  0
LINE
  8
0
 10
8.74654
 20
3.10988
 11
8.75
 21
3
  0
LINE
  8
0
 10
8.75
 20
3
 11
8.74654
 21
2.89011
  0
LINE
  8
0
 10
8.74654
 20
2.89011
 11
8.73619
 21
2.78065
  0
LINE
  8
0
 10
8.73619
 20
2.78065
 11
8.71899
 21
2.67207
  0
LINE
  8
0
 10
8.71899
 20
2.67207
 11
8.69501
 21
2.56479
  0
LINE
  8
0
 10
8.69501
 20
2.56479
 11
8.66434
 21
2.45921
  0
LINE
  8
0
 10
8.66434
 20
2.45921
 11
8.62711
 21
2.35577
  0
LINE
  8
0
 10
8.62711
 20
2.35577
 11
8.58344
 21
2.25488
  0
LINE
  8
0
 10
8.58344
 20
2.25488
 11
8.53352
 21
2.15692
  0
LINE
  8
0
 10
8.53352
 20
2.15692
 11
8.47757
 21
2.0623
  0
LINE
  8
0
 10
8.47757
 20
2.0623
 11
8.41577
 21
1.97137
  0
LINE
  8
0
 10
8.41577
 20
1.97137
 11
8.34839
 21
1.88451
  0
LINE
  8
0
 10
8.34839
 20
1.88451
 11
8.27568
 21
1.80203
  0
LINE
  8
0
 10
8.27568
 20
1.80203
 11
8.19795
 21
1.7243
  0
LINE
  8
0
 10
8.19795
 20
1.7243
 11
8.11548
 21
1.6516
  0
LINE
  8
0
 10
8.11548
 20
1.6516
 11
8.02861
 21
1.58421
  0
LINE
  8
0
 10
8.02861
 20
1.58421
 11
7.93768
 21
1.52242
  0
LINE
  8
0
 10
7.93768
 20
1.52242
 11
7.84306
 21
1.46646
  0
LINE
  8
0
 10
7.84306
 20
1.46646
 11
7.7451
 21
1.41655
  0
LINE
  8
0
 10
7.7451
 20
1.41655
 11
7.64421
 21
1.37288
  0
LINE
  8
0
 10
7.64421
 20
1.37288
 11
7.54077
 21
1.33565
  0
LINE
  8
0
 10
7.54077
 20
1.33565
 11
7.4352
 21
1.30498
  0
LINE
  8
0
 10
7.4352
 20
1.30498
 11
7.32791
 21
1.28099
  0
LINE
  8
0
 10
7.32791
 20
1.28099
 11
7.21933
 21
1.26379
  0
LINE
  8
0
 10
7.21933
 20
1.26379
 11
7.10988
 21
1.25345
  0
LINE
  8
0
 10
7.10988
 20
1.25345
 11
7
 21
1.25
  0
LINE
  8
0
 10
7
 20
1.25
 11
6.89011
 21
1.25345
  0
LINE
  8
0
 10
69.475
 20
-9.52499
 11
69.475
 21
4.52499
  0
LINE
  8
0
 10
69.475
 20
4.52499
 11
83.525
 21
4.52499
  0
LINE
  8
0
 10
83.525
 20
4.52499
 11
83.525
 21
-9.52499
  0
LINE
  8
0
 10
83.525
 20
-9.52499
 11
69.475
 21
-9.52499
  0
LINE
  8
0
 10
30.975
 20
-9.52499
 11
30.975
 21
4.52499
  0
LINE
  8
0
 10
30.975
 20
4.52499
 11
45.025
 21
4.52499
  0
LINE
  8
0
 10
45.025
 20
4.52499
 11
45.025
 21
-9.52499
  0
LINE
  8
0
 10
45.025
 20
-9.52499
 11
30.975
 21
-9.52499
  0
LINE
  8
0
 10
85.975
 20
-10.025
 11
85.975
 21
4.02499
  0
LINE
  8
0
 10
85.975
 20
4.02499
 11
100.025
 21
4.02499
  0
LINE
  8
0
 10
100.025
 20
4.02499
 11
100.025
 21
-10.025
  0
LINE
  8
0
 10
100.025
 20
-10.025
 11
85.975
 21
-10.025
  0
LINE
  8
0
 10
10.975
 20
-11.025
 11
10.975
 21
3.02499
  0
LINE
  8
0
 10
10.975
 20
3.02499
 11
25.025
 21
3.02499
  0
LINE
  8
0
 10
25.025
 20
3.02499
 11
25.025
 21
-11.025
  0
LINE
  8
0
 10
25.025
 20
-11.025
 11
10.975
 21
-11.025
  0
LINE
  8
0
 10
-7.02499
 20
-15.025
 11
-7.02499
 21
-0.974991
  0
LINE
  8
0
 10
-7.02499
 20
-0.974991
 11
7.02499
 21
-0.974991
  0
LINE
  8
0
 10
7.02499
 20
-0.974991
 11
7.02499
 21
-15.025
  0
LINE
  8
0
 10
7.02499
 20
-15.025
 11
-7.02499
 21
-15.025
  0
LINE
  8
0
 10
50.975
 20
-25.025
 11
50.975
 21
-10.975
  0
LINE
  8
0
 10
50.975
 20
-10.975
 11
65.025
 21
-10.975
  0
LINE
  8
0
 10
65.025
 20
-10.975
 11
65.025
 21
-25.025
  0
LINE
  8
0
 10
65.025
 20
-25.025
 11
50.975
 21
-25.025
  0
LINE
  8
0
 10
85.975
 20
-26.025
 11
85.975
 21
-11.975
  0
LINE
  8
0
 10
85.975
 20
-11.975
 11
100.025
 21
-11.975
  0
LINE
  8
0
 10
100.025
 20
-11.975
 11
100.025
 21
-26.025
  0
LINE
  8
0
 10
100.025
 20
-26.025
 11
85.975
 21
-26.025
  0
LINE
  8
0
 10
69.475
 20
-27.525
 11
69.475
 21
-13.475
  0
LINE
  8
0
 10
69.475
 20
-13.475
 11
83.525
 21
-13.475
  0
LINE
  8
0
 10
83.525
 20
-13.475
 11
83.525
 21
-27.525
  0
LINE
  8
0
 10
83.525
 20
-27.525
 11
69.475
 21
-27.525
  0
LINE
  8
0
 10
30.975
 20
-27.525
 11
30.975
 21
-13.475
  0
LINE
  8
0
 10
30.975
 20
-13.475
 11
45.025
 21
-13.475
  0
LINE
  8
0
 10
45.025
 20
-13.475
 11
45.025
 21
-27.525
  0
LINE
  8
0
 10
45.025
 20
-27.525
 11
30.975
 21
-27.525
  0
LINE
  8
0
 10
10.975
 20
-29.025
 11
10.975
 21
-14.975
  0
LINE
  8
0
 10
10.975
 20
-14.975
 11
25.025
 21
-14.975
  0
LINE
  8
0
 10
25.025
 20
-14.975
 11
25.025
 21
-29.025
  0
LINE
  8
0
 10
25.025
 20
-29.025
 11
10.975
 21
-29.025
  0
LINE
  8
0
 10
-7.02499
 20
-31.025
 11
-7.02499
 21
-16.975
  0
LINE
  8
0
 10
-7.02499
 20
-16.975
 11
7.02499
 21
-16.975
  0
LINE
  8
0
 10
7.02499
 20
-16.975
 11
7.02499
 21
-31.025
  0
LINE
  8
0
 10
7.02499
 20
-31.025
 11
-7.02499
 21
-31.025
  0
LINE
  8
0
 10
111.99
 20
-26.7465
 11
111.881
 21
-26.7362
  0
LINE
  8
0
 10
111.881
 20
-26.7362
 11
111.772
 21
-26.719
  0
LINE
  8
0
 10
111.772
 20
-26.719
 11
111.665
 21
-26.695
  0
LINE
  8
0
 10
111.665
 20
-26.695
 11
111.559
 21
-26.6643
  0
LINE
  8
0
 10
111.559
 20
-26.6643
 11
111.456
 21
-26.6271
  0
LINE
  8
0
 10
111.456
 20
-26.6271
 11
111.355
 21
-26.5834
  0
LINE
  8
0
 10
111.355
 20
-26.5834
 11
111.257
 21
-26.5335
  0
LINE
  8
0
 10
111.257
 20
-26.5335
 11
111.162
 21
-26.4776
  0
LINE
  8
0
 10
111.162
 20
-26.4776
 11
111.071
 21
-26.4158
  0
LINE
  8
0
 10
111.071
 20
-26.4158
 11
110.984
 21
-26.3484
  0
LINE
  8
0
 10
110.984
 20
-26.3484
 11
110.902
 21
-26.2757
  0
LINE
  8
0
 10
110.902
 20
-26.2757
 11
110.824
 21
-26.198
  0
LINE
  8
0
 10
110.824
 20
-26.198
 11
110.752
 21
-26.1155
  0
LINE
  8
0
 10
110.752
 20
-26.1155
 11
110.684
 21
-26.0286
  0
LINE
  8
0
 10
110.684
 20
-26.0286
 11
110.622
 21
-25.9377
  0
LINE
  8
0
 10
110.622
 20
-25.9377
 11
110.566
 21
-25.8431
  0
LINE
  8
0
 10
110.566
 20
-25.8431
 11
110.517
 21
-25.7451
  0
LINE
  8
0
 10
110.517
 20
-25.7451
 11
110.473
 21
-25.6442
  0
LINE
  8
0
 10
110.473
 20
-25.6442
 11
110.436
 21
-25.5408
  0
LINE
  8
0
 10
110.436
 20
-25.5408
 11
110.405
 21
-25.4352
  0
LINE
  8
0
 10
110.405
 20
-25.4352
 11
110.381
 21
-25.3279
  0
LINE
  8
0
 10
110.381
 20
-25.3279
 11
110.364
 21
-25.2193
  0
LINE
  8
0
 10
110.364
 20
-25.2193
 11
110.353
 21
-25.1099
  0
LINE
  8
0
 10
110.353
 20
-25.1099
 11
110.35
 21
-25
  0
LINE
  8
0
 10
110.35
 20
-25
 11
110.353
 21
-24.8901
  0
LINE
  8
0
 10
110.353
 20
-24.8901
 11
110.364
 21
-24.7807
  0
LINE
  8
0
 10
110.364
 20
-24.7807
 11
110.381
 21
-24.6721
  0
LINE
  8
0
 10
110.381
 20
-24.6721
 11
110.405
 21
-24.5648
  0
LINE
  8
0
 10
110.405
 20
-24.5648
 11
110.436
 21
-24.4592
  0
LINE
  8
0
 10
110.436
 20
-24.4592
 11
110.473
 21
-24.3558
  0
LINE
  8
0
 10
110.473
 20
-24.3558
 11
110.517
 21
-24.2549
  0
LINE
  8
0
 10
110.517
 20
-24.2549
 11
110.566
 21
-24.1569
  0
LINE
  8
0
 10
110.566
 20
-24.1569
 11
110.622
 21
-24.0623
  0
LINE
  8
0
 10
110.622
 20
-24.0623
 11
110.684
 21
-23.9714
  0
LINE
  8
0
 10
110.684
 20
-23.9714
 11
110.752
 21
-23.8845
  0
LINE
  8
0
 10
110.752
 20
-23.8845
 11
110.824
 21
-23.802
  0
LINE
  8
0
 10
110.824
 20
-23.802
 11
110.902
 21
-23.7243
  0
LINE
  8
0
 10
110.902
 20
-23.7243
 11
110.984
 21
-23.6516
  0
LINE
  8
0
 10
110.984
 20
-23.6516
 11
111.071
 21
-23.5842
  0
LINE
  8
0
 10
111.071
 20
-23.5842
 11
111.162
 21
-23.5224
  0
LINE
  8
0
 10
111.162
 20
-23.5224
 11
111.257
 21
-23.4665
  0
LINE
  8
0
 10
111.257
 20
-23.4665
 11
111.355
 21
-23.4165
  0
LINE
  8
0
 10
111.355
 20
-23.4165
 11
111.456
 21
-23.3729
  0
LINE
  8
0
 10
111.456
 20
-23.3729
 11
111.559
 21
-23.3356
  0
LINE
  8
0
 10
111.559
 20
-23.3356
 11
111.665
 21
-23.305
  0
LINE
  8
0
 10
111.665
 20
-23.305
 11
111.772
 21
-23.281
  0
LINE
  8
0
 10
111.772
 20
-23.281
 11
111.881
 21
-23.2638
  0
LINE
  8
0
 10
111.881
 20
-23.2638
 11
111.99
 21
-23.2534
  0
LINE
  8
0
 10
111.99
 20
-23.2534
 11
112.1
 21
-23.25
  0
LINE
  8
0
 10
112.1
 20
-23.25
 11
112.21
 21
-23.2534
  0
LINE
  8
0
 10
112.21
 20
-23.2534
 11
112.319
 21
-23.2638
  0
LINE
  8
0
 10
112.319
 20
-23.2638
 11
112.428
 21
-23.281
  0
LINE
  8
0
 10
112.428
 20
-23.281
 11
112.535
 21
-23.305
  0
LINE
  8
0
 10
112.535
 20
-23.305
 11
112.641
 21
-23.3356
  0
LINE
  8
0
 10
112.641
 20
-23.3356
 11
112.744
 21
-23.3729
  0
LINE
  8
0
 10
112.744
 20
-23.3729
 11
112.845
 21
-23.4165
  0
LINE
  8
0
 10
112.845
 20
-23.4165
 11
112.943
 21
-23.4665
  0
LINE
  8
0
 10
112.943
 20
-23.4665
 11
113.038
 21
-23.5224
  0
LINE
  8
0
 10
113.038
 20
-23.5224
 11
113.129
 21
-23.5842
  0
LINE
  8
0
 10
113.129
 20
-23.5842
 11
113.215
 21
-23.6516
  0
LINE
  8
0
 10
113.215
 20
-23.6516
 11
113.298
 21
-23.7243
  0
LINE
  8
0
 10
113.298
 20
-23.7243
 11
113.376
 21
-23.802
  0
LINE
  8
0
 10
113.376
 20
-23.802
 11
113.448
 21
-23.8845
  0
LINE
  8
0
 10
113.448
 20
-23.8845
 11
113.516
 21
-23.9714
  0
LINE
  8
0
 10
113.516
 20
-23.9714
 11
113.578
 21
-24.0623
  0
LINE
  8
0
 10
113.578
 20
-24.0623
 11
113.634
 21
-24.1569
  0
LINE
  8
0
 10
113.634
 20
-24.1569
 11
113.683
 21
-24.2549
  0
LINE
  8
0
 10
113.683
 20
-24.2549
 11
113.727
 21
-24.3558
  0
LINE
  8
0
 10
113.727
 20
-24.3558
 11
113.764
 21
-24.4592
  0
LINE
  8
0
 10
113.764
 20
-24.4592
 11
113.795
 21
-24.5648
  0
LINE
  8
0
 10
113.795
 20
-24.5648
 11
113.819
 21
-24.6721
  0
LINE
  8
0
 10
113.819
 20
-24.6721
 11
113.836
 21
-24.7807
  0
LINE
  8
0
 10
113.836
 20
-24.7807
 11
113.847
 21
-24.8901
  0
LINE
  8
0
 10
113.847
 20
-24.8901
 11
113.85
 21
-25
  0
LINE
  8
0
 10
113.85
 20
-25
 11
113.847
 21
-25.1099
  0
LINE
  8
0
 10
113.847
 20
-25.1099
 11
113.836
 21
-25.2193
  0
LINE
  8
0
 10
113.836
 20
-25.2193
 11
113.819
 21
-25.3279
  0
LINE
  8
0
 10
113.819
 20
-25.3279
 11
113.795
 21
-25.4352
  0
LINE
  8
0
 10
113.795
 20
-25.4352
 11
113.764
 21
-25.5408
  0
LINE
  8
0
 10
113.764
 20
-25.5408
 11
113.727
 21
-25.6442
  0
LINE
  8
0
 10
113.727
 20
-25.6442
 11
113.683
 21
-25.7451
  0
LINE
  8
0
 10
113.683
 20
-25.7451
 11
113.634
 21
-25.8431
  0
LINE
  8
0
 10
113.634
 20
-25.8431
 11
113.578
 21
-25.9377
  0
LINE
  8
0
 10
113.578
 20
-25.9377
 11
113.516
 21
-26.0286
  0
LINE
  8
0
 10
113.516
 20
-26.0286
 11
113.448
 21
-26.1155
  0
LINE
  8
0
 10
113.448
 20
-26.1155
 11
113.376
 21
-26.198
  0
LINE
  8
0
 10
113.376
 20
-26.198
 11
113.298
 21
-26.2757
  0
LINE
  8
0
 10
113.298
 20
-26.2757
 11
113.215
 21
-26.3484
  0
LINE
  8
0
 10
113.215
 20
-26.3484
 11
113.129
 21
-26.4158
  0
LINE
  8
0
 10
113.129
 20
-26.4158
 11
113.038
 21
-26.4776
  0
LINE
  8
0
 10
113.038
 20
-26.4776
 11
112.943
 21
-26.5335
  0
LINE
  8
0
 10
112.943
 20
-26.5335
 11
112.845
 21
-26.5834
  0
LINE
  8
0
 10
112.845
 20
-26.5834
 11
112.744
 21
-26.6271
  0
LINE
  8
0
 10
112.744
 20
-26.6271
 11
112.641
 21
-26.6643
  0
LINE
  8
0
 10
112.641
 20
-26.6643
 11
112.535
 21
-26.695
  0
LINE
  8
0
 10
112.535
 20
-26.695
 11
112.428
 21
-26.719
  0
LINE
  8
0
 10
112.428
 20
-26.719
 11
112.319
 21
-26.7362
  0
LINE
  8
0
 10
112.319
 20
-26.7362
 11
112.21
 21
-26.7465
  0
LINE
  8
0
 10
112.21
 20
-26.7465
 11
112.1
 21
-26.75
  0
LINE
  8
0
 10
112.1
 20
-26.75
 11
111.99
 21
-26.7465
  0
LINE
  8
0
 10
85.975
 20
-42.025
 11
85.975
 21
-27.975
  0
LINE
  8
0
 10
85.975
 20
-27.975
 11
100.025
 21
-27.975
  0
LINE
  8
0
 10
100.025
 20
-27.975
 11
100.025
 21
-42.025
  0
LINE
  8
0
 10
100.025
 20
-42.025
 11
85.975
 21
-42.025
  0
LINE
  8
0
 10
50.975
 20
-43.025
 11
50.975
 21
-28.975
  0
LINE
  8
0
 10
50.975
 20
-28.975
 11
65.025
 21
-28.975
  0
LINE
  8
0
 10
65.025
 20
-28.975
 11
65.025
 21
-43.025
  0
LINE
  8
0
 10
65.025
 20
-43.025
 11
50.975
 21
-43.025
  0
LINE
  8
0
 10
69.475
 20
-45.525
 11
69.475
 21
-31.475
  0
LINE
  8
0
 10
69.475
 20
-31.475
 11
83.525
 21
-31.475
  0
LINE
  8
0
 10
83.525
 20
-31.475
 11
83.525
 21
-45.525
  0
LINE
  8
0
 10
83.525
 20
-45.525
 11
69.475
 21
-45.525
  0
LINE
  8
0
 10
30.975
 20
-45.525
 11
30.975
 21
-31.475
  0
LINE
  8
0
 10
30.975
 20
-31.475
 11
45.025
 21
-31.475
  0
LINE
  8
0
 10
45.025
 20
-31.475
 11
45.025
 21
-45.525
  0
LINE
  8
0
 10
45.025
 20
-45.525
 11
30.975
 21
-45.525
  0
LINE
  8
0
 10
10.975
 20
-47.025
 11
10.975
 21
-32.975
  0
LINE
  8
0
 10
10.975
 20
-32.975
 11
25.025
 21
-32.975
  0
LINE
  8
0
 10
25.025
 20
-32.975
 11
25.025
 21
-47.025
  0
LINE
  8
0
 10
25.025
 20
-47.025
 11
10.975
 21
-47.025
  0
LINE
  8
0
 10
6.89011
 20
-36.7465
 11
6.78065
 21
-36.7362
  0
LINE
  8
0
 10
6.78065
 20
-36.7362
 11
6.67207
 21
-36.719
  0
LINE
  8
0
 10
6.67207
 20
-36.719
 11
6.56479
 21
-36.695
  0
LINE
  8
0
 10
6.56479
 20
-36.695
 11
6.45921
 21
-36.6643
  0
LINE
  8
0
 10
6.45921
 20
-36.6643
 11
6.35577
 21
-36.6271
  0
LINE
  8
0
 10
6.35577
 20
-36.6271
 11
6.25488
 21
-36.5834
  0
LINE
  8
0
 10
6.25488
 20
-36.5834
 11
6.15692
 21
-36.5335
  0
LINE
  8
0
 10
6.15692
 20
-36.5335
 11
6.0623
 21
-36.4776
  0
LINE
  8
0
 10
6.0623
 20
-36.4776
 11
5.97137
 21
-36.4158
  0
LINE
  8
0
 10
5.97137
 20
-36.4158
 11
5.88451
 21
-36.3484
  0
LINE
  8
0
 10
5.88451
 20
-36.3484
 11
5.80203
 21
-36.2757
  0
LINE
  8
0
 10
5.80203
 20
-36.2757
 11
5.7243
 21
-36.198
  0
LINE
  8
0
 10
5.7243
 20
-36.198
 11
5.6516
 21
-36.1155
  0
LINE
  8
0
 10
5.6516
 20
-36.1155
 11
5.58421
 21
-36.0286
  0
LINE
  8
0
 10
5.58421
 20
-36.0286
 11
5.52242
 21
-35.9377
  0
LINE
  8
0
 10
5.52242
 20
-35.9377
 11
5.46646
 21
-35.8431
  0
LINE
  8
0
 10
5.46646
 20
-35.8431
 11
5.41655
 21
-35.7451
  0
LINE
  8
0
 10
5.41655
 20
-35.7451
 11
5.37288
 21
-35.6442
  0
LINE
  8
0
 10
5.37288
 20
-35.6442
 11
5.33565
 21
-35.5408
  0
LINE
  8
0
 10
5.33565
 20
-35.5408
 11
5.30498
 21
-35.4352
  0
LINE
  8
0
 10
5.30498
 20
-35.4352
 11
5.28099
 21
-35.3279
  0
LINE
  8
0
 10
5.28099
 20
-35.3279
 11
5.26379
 21
-35.2193
  0
LINE
  8
0
 10
5.26379
 20
-35.2193
 11
5.25345
 21
-35.1099
  0
LINE
  8
0
 10
5.25345
 20
-35.1099
 11
5.25
 21
-35
  0
LINE
  8
0
 10
5.25
 20
-35
 11
5.25345
 21
-34.8901
  0
LINE
  8
0
 10
5.25345
 20
-34.8901
 11
5.26379
 21
-34.7807
  0
LINE
  8
0
 10
5.26379
 20
-34.7807
 11
5.28099
 21
-34.6721
  0
LINE
  8
0
 10
5.28099
 20
-34.6721
 11
5.30498
 21
-34.5648
  0
LINE
  8
0
 10
5.30498
 20
-34.5648
 11
5.33565
 21
-34.4592
  0
LINE
  8
0
 10
5.33565
 20
-34.4592
 11
5.37288
 21
-34.3558
  0
LINE
  8
0
 10
5.37288
 20
-34.3558
 11
5.41655
 21
-34.2549
  0
LINE
  8
0
 10
5.41655
 20
-34.2549
 11
5.46646
 21
-34.1569
  0
LINE
  8
0
 10
5.46646
 20
-34.1569
 11
5.52242
 21
-34.0623
  0
LINE
  8
0
 10
5.52242
 20
-34.0623
 11
5.58421
 21
-33.9714
  0
LINE
  8
0
 10
5.58421
 20
-33.9714
 11
5.6516
 21
-33.8845
  0
LINE
  8
0
 10
5.6516
 20
-33.8845
 11
5.7243
 21
-33.802
  0
LINE
  8
0
 10
5.7243
 20
-33.802
 11
5.80203
 21
-33.7243
  0
LINE
  8
0
 10
5.80203
 20
-33.7243
 11
5.88451
 21
-33.6516
  0
LINE
  8
0
 10
5.88451
 20
-33.6516
 11
5.97137
 21
-33.5842
  0
LINE
  8
0
 10
5.97137
 20
-33.5842
 11
6.0623
 21
-33.5224
  0
LINE
  8
0
 10
6.0623
 20
-33.5224
 11
6.15692
 21
-33.4665
  0
LINE
  8
0
 10
6.15692
 20
-33.4665
 11
6.25488
 21
-33.4165
  0
LINE
  8
0
 10
6.25488
 20
-33.4165
 11
6.35577
 21
-33.3729
  0
LINE
  8
0
 10
6.35577
 20
-33.3729
 11
6.45921
 21
-33.3356
  0
LINE
  8
0
 10
6.45921
 20
-33.3356
 11
6.56479
 21
-33.305
  0
LINE
  8
0
 10
6.56479
 20
-33.305
 11
6.67207
 21
-33.281
  0
LINE
  8
0
 10
6.67207
 20
-33.281
 11
6.78065
 21
-33.2638
  0
LINE
  8
0
 10
6.78065
 20
-33.2638
 11
6.89011
 21
-33.2534
  0
LINE
  8
0
 10
6.89011
 20
-33.2534
 11
7
 21
-33.25
  0
LINE
  8
0
 10
7
 20
-33.25
 11
7.10988
 21
-33.2534
  0
LINE
  8
0
 10
7.10988
 20
-33.2534
 11
7.21933
 21
-33.2638
  0
LINE
  8
0
 10
7.21933
 20
-33.2638
 11
7.32791
 21
-33.281
  0
LINE
  8
0
 10
7.32791
 20
-33.281
 11
7.4352
 21
-33.305
  0
LINE
  8
0
 10
7.4352
 20
-33.305
 11
7.54077
 21
-33.3356
  0
LINE
  8
0
 10
7.54077
 20
-33.3356
 11
7.64421
 21
-33.3729
  0
LINE
  8
0
 10
7.64421
 20
-33.3729
 11
7.7451
 21
-33.4165
  0
LINE
  8
0
 10
7.7451
 20
-33.4165
 11
7.84306
 21
-33.4665
  0
LINE
  8
0
 10
7.84306
 20
-33.4665
 11
7.93768
 21
-33.5224
  0
LINE
  8
0
 10
7.93768
 20
-33.5224
 11
8.02861
 21
-33.5842
  0
LINE
  8
0
 10
8.02861
 20
-33.5842
 11
8.11548
 21
-33.6516
  0
LINE
  8
0
 10
8.11548
 20
-33.6516
 11
8.19795
 21
-33.7243
  0
LINE
  8
0
 10
8.19795
 20
-33.7243
 11
8.27568
 21
-33.802
  0
LINE
  8
0
 10
8.27568
 20
-33.802
 11
8.34839
 21
-33.8845
  0
LINE
  8
0
 10
8.34839
 20
-33.8845
 11
8.41577
 21
-33.9714
  0
LINE
  8
0
 10
8.41577
 20
-33.9714
 11
8.47757
 21
-34.0623
  0
LINE
  8
0
 10
8.47757
 20
-34.0623
 11
8.53352
 21
-34.1569
  0
LINE
  8
0
 10
8.53352
 20
-34.1569
 11
8.58344
 21
-34.2549
  0
LINE
  8
0
 10
8.58344
 20
-34.2549
 11
8.62711
 21
-34.3558
  0
LINE
  8
0
 10
8.62711
 20
-34.3558
 11
8.66434
 21
-34.4592
  0
LINE
  8
0
 10
8.66434
 20
-34.4592
 11
8.69501
 21
-34.5648
  0
LINE
  8
0
 10
8.69501
 20
-34.5648
 11
8.71899
 21
-34.6721
  0
LINE
  8
0
 10
8.71899
 20
-34.6721
 11
8.73619
 21
-34.7807
  0
LINE
  8
0
 10
8.73619
 20
-34.7807
 11
8.74654
 21
-34.8901
  0
LINE
  8
0
 10
8.74654
 20
-34.8901
 11
8.75
 21
-35
  0
LINE
  8
0
 10
8.75
 20
-35
 11
8.74654
 21
-35.1099
  0
LINE
  8
0
 10
8.74654
 20
-35.1099
 11
8.73619
 21
-35.2193
  0
LINE
  8
0
 10
8.73619
 20
-35.2193
 11
8.71899
 21
-35.3279
  0
LINE
  8
0
 10
8.71899
 20
-35.3279
 11
8.69501
 21
-35.4352
  0
LINE
  8
0
 10
8.69501
 20
-35.4352
 11
8.66434
 21
-35.5408
  0
LINE
  8
0
 10
8.66434
 20
-35.5408
 11
8.62711
 21
-35.6442
  0
LINE
  8
0
 10
8.62711
 20
-35.6442
 11
8.58344
 21
-35.7451
  0
LINE
  8
0
 10
8.58344
 20
-35.7451
 11
8.53352
 21
-35.8431
  0
LINE
  8
0
 10
8.53352
 20
-35.8431
 11
8.47757
 21
-35.9377
  0
LINE
  8
0
 10
8.47757
 20
-35.9377
 11
8.41577
 21
-36.0286
  0
LINE
  8
0
 10
8.41577
 20
-36.0286
 11
8.34839
 21
-36.1155
  0
LINE
  8
0
 10
8.34839
 20
-36.1155
 11
8.27568
 21
-36.198
  0
LINE
  8
0
 10
8.27568
 20
-36.198
 11
8.19795
 21
-36.2757
  0
LINE
  8
0
 10
8.19795
 20
-36.2757
 11
8.11548
 21
-36.3484
  0
LINE
  8
0
 10
8.11548
 20
-36.3484
 11
8.02861
 21
-36.4158
  0
LINE
  8
0
 10
8.02861
 20
-36.4158
 11
7.93768
 21
-36.4776
  0
LINE
  8
0
 10
7.93768
 20
-36.4776
 11
7.84306
 21
-36.5335
  0
LINE
  8
0
 10
7.84306
 20
-36.5335
 11
7.7451
 21
-36.5834
  0
LINE
  8
0
 10
7.7451
 20
-36.5834
 11
7.64421
 21
-36.6271
  0
LINE
  8
0
 10
7.64421
 20
-36.6271
 11
7.54077
 21
-36.6643
  0
LINE
  8
0
 10
7.54077
 20
-36.6643
 11
7.4352
 21
-36.695
  0
LINE
  8
0
 10
7.4352
 20
-36.695
 11
7.32791
 21
-36.719
  0
LINE
  8
0
 10
7.32791
 20
-36.719
 11
7.21933
 21
-36.7362
  0
LINE
  8
0
 10
7.21933
 20
-36.7362
 11
7.10988
 21
-36.7465
  0
LINE
  8
0
 10
7.10988
 20
-36.7465
 11
7
 21
-36.75
  0
LINE
  8
0
 10
7
 20
-36.75
 11
6.89011
 21
-36.7465
  0
LINE
  8
0
 10
86.3901
 20
-49.9465
 11
86.2807
 21
-49.9362
  0
LINE
  8
0
 10
86.2807
 20
-49.9362
 11
86.1721
 21
-49.919
  0
LINE
  8
0
 10
86.1721
 20
-49.919
 11
86.0648
 21
-49.895
  0
LINE
  8
0
 10
86.0648
 20
-49.895
 11
85.9592
 21
-49.8643
  0
LINE
  8
0
 10
85.9592
 20
-49.8643
 11
85.8558
 21
-49.8271
  0
LINE
  8
0
 10
85.8558
 20
-49.8271
 11
85.7549
 21
-49.7834
  0
LINE
  8
0
 10
85.7549
 20
-49.7834
 11
85.6569
 21
-49.7335
  0
LINE
  8
0
 10
85.6569
 20
-49.7335
 11
85.5623
 21
-49.6776
  0
LINE
  8
0
 10
85.5623
 20
-49.6776
 11
85.4714
 21
-49.6158
  0
LINE
  8
0
 10
85.4714
 20
-49.6158
 11
85.3845
 21
-49.5484
  0
LINE
  8
0
 10
85.3845
 20
-49.5484
 11
85.302
 21
-49.4757
  0
LINE
  8
0
 10
85.302
 20
-49.4757
 11
85.2243
 21
-49.3979
  0
LINE
  8
0
 10
85.2243
 20
-49.3979
 11
85.1516
 21
-49.3155
  0
LINE
  8
0
 10
85.1516
 20
-49.3155
 11
85.0842
 21
-49.2286
  0
LINE
  8
0
 10
85.0842
 20
-49.2286
 11
85.0224
 21
-49.1377
  0
LINE
  8
0
 10
85.0224
 20
-49.1377
 11
84.9665
 21
-49.0431
  0
LINE
  8
0
 10
84.9665
 20
-49.0431
 11
84.9165
 21
-48.9451
  0
LINE
  8
0
 10
84.9165
 20
-48.9451
 11
84.8729
 21
-48.8442
  0
LINE
  8
0
 10
84.8729
 20
-48.8442
 11
84.8356
 21
-48.7408
  0
LINE
  8
0
 10
84.8356
 20
-48.7408
 11
84.805
 21
-48.6352
  0
LINE
  8
0
 10
84.805
 20
-48.6352
 11
84.781
 21
-48.5279
  0
LINE
  8
0
 10
84.781
 20
-48.5279
 11
84.7638
 21
-48.4193
  0
LINE
  8
0
 10
84.7638
 20
-48.4193
 11
84.7534
 21
-48.3099
  0
LINE
  8
0
 10
84.7534
 20
-48.3099
 11
84.75
 21
-48.2
  0
LINE
  8
0
 10
84.75
 20
-48.2
 11
84.7534
 21
-48.0901
  0
LINE
  8
0
 10
84.7534
 20
-48.0901
 11
84.7638
 21
-47.9807
  0
LINE
  8
0
 10
84.7638
 20
-47.9807
 11
84.781
 21
-47.8721
  0
LINE
  8
0
 10
84.781
 20
-47.8721
 11
84.805
 21
-47.7648
  0
LINE
  8
0
 10
84.805
 20
-47.7648
 11
84.8356
 21
-47.6592
  0
LINE
  8
0
 10
84.8356
 20
-47.6592
 11
84.8729
 21
-47.5558
  0
LINE
  8
0
 10
84.8729
 20
-47.5558
 11
84.9165
 21
-47.4549
  0
LINE
  8
0
 10
84.9165
 20
-47.4549
 11
84.9665
 21
-47.3569
  0
LINE
  8
0
 10
84.9665
 20
-47.3569
 11
85.0224
 21
-47.2623
  0
LINE
  8
0
 10
85.0224
 20
-47.2623
 11
85.0842
 21
-47.1714
  0
LINE
  8
0
 10
85.0842
 20
-47.1714
 11
85.1516
 21
-47.0845
  0
LINE
  8
0
 10
85.1516
 20
-47.0845
 11
85.2243
 21
-47.002
  0
LINE
  8
0
 10
85.2243
 20
-47.002
 11
85.302
 21
-46.9243
  0
LINE
  8
0
 10
85.302
 20
-46.9243
 11
85.3845
 21
-46.8516
  0
LINE
  8
0
 10
85.3845
 20
-46.8516
 11
85.4714
 21
-46.7842
  0
LINE
  8
0
 10
85.4714
 20
-46.7842
 11
85.5623
 21
-46.7224
  0
LINE
  8
0
 10
85.5623
 20
-46.7224
 11
85.6569
 21
-46.6665
  0
LINE
  8
0
 10
85.6569
 20
-46.6665
 11
85.7549
 21
-46.6165
  0
LINE
  8
0
 10
85.7549
 20
-46.6165
 11
85.8558
 21
-46.5729
  0
LINE
  8
0
 10
85.8558
 20
-46.5729
 11
85.9592
 21
-46.5356
  0
LINE
  8
0
 10
85.9592
 20
-46.5356
 11
86.0648
 21
-46.505
  0
LINE
  8
0
 10
86.0648
 20
-46.505
 11
86.1721
 21
-46.481
  0
LINE
  8
0
 10
86.1721
 20
-46.481
 11
86.2807
 21
-46.4638
  0
LINE
  8
0
 10
86.2807
 20
-46.4638
 11
86.3901
 21
-46.4534
  0
LINE
  8
0
 10
86.3901
 20
-46.4534
 11
86.5
 21
-46.45
  0
LINE
  8
0
 10
86.5
 20
-46.45
 11
86.6099
 21
-46.4534
  0
LINE
  8
0
 10
86.6099
 20
-46.4534
 11
86.7193
 21
-46.4638
  0
LINE
  8
0
 10
86.7193
 20
-46.4638
 11
86.8279
 21
-46.481
  0
LINE
  8
0
 10
86.8279
 20
-46.481
 11
86.9352
 21
-46.505
  0
LINE
  8
0
 10
86.9352
 20
-46.505
 11
87.0408
 21
-46.5356
  0
LINE
  8
0
 10
87.0408
 20
-46.5356
 11
87.1442
 21
-46.5729
  0
LINE
  8
0
 10
87.1442
 20
-46.5729
 11
87.2451
 21
-46.6165
  0
LINE
  8
0
 10
87.2451
 20
-46.6165
 11
87.3431
 21
-46.6665
  0
LINE
  8
0
 10
87.3431
 20
-46.6665
 11
87.4377
 21
-46.7224
  0
LINE
  8
0
 10
87.4377
 20
-46.7224
 11
87.5286
 21
-46.7842
  0
LINE
  8
0
 10
87.5286
 20
-46.7842
 11
87.6155
 21
-46.8516
  0
LINE
  8
0
 10
87.6155
 20
-46.8516
 11
87.698
 21
-46.9243
  0
LINE
  8
0
 10
87.698
 20
-46.9243
 11
87.7757
 21
-47.002
  0
LINE
  8
0
 10
87.7757
 20
-47.002
 11
87.8484
 21
-47.0845
  0
LINE
  8
0
 10
87.8484
 20
-47.0845
 11
87.9158
 21
-47.1714
  0
LINE
  8
0
 10
87.9158
 20
-47.1714
 11
87.9776
 21
-47.2623
  0
LINE
  8
0
 10
87.9776
 20
-47.2623
 11
88.0335
 21
-47.3569
  0
LINE
  8
0
 10
88.0335
 20
-47.3569
 11
88.0834
 21
-47.4549
  0
LINE
  8
0
 10
88.0834
 20
-47.4549
 11
88.1271
 21
-47.5558
  0
LINE
  8
0
 10
88.1271
 20
-47.5558
 11
88.1643
 21
-47.6592
  0
LINE
  8
0
 10
88.1643
 20
-47.6592
 11
88.195
 21
-47.7648
  0
LINE
  8
0
 10
88.195
 20
-47.7648
 11
88.219
 21
-47.8721
  0
LINE
  8
0
 10
88.219
 20
-47.8721
 11
88.2362
 21
-47.9807
  0
LINE
  8
0
 10
88.2362
 20
-47.9807
 11
88.2465
 21
-48.0901
  0
LINE
  8
0
 10
88.2465
 20
-48.0901
 11
88.25
 21
-48.2
  0
LINE
  8
0
 10
88.25
 20
-48.2
 11
88.2465
 21
-48.3099
  0
LINE
  8
0
 10
88.2465
 20
-48.3099
 11
88.2362
 21
-48.4193
  0
LINE
  8
0
 10
88.2362
 20
-48.4193
 11
88.219
 21
-48.5279
  0
LINE
  8
0
 10
88.219
 20
-48.5279
 11
88.195
 21
-48.6352
  0
LINE
  8
0
 10
88.195
 20
-48.6352
 11
88.1643
 21
-48.7408
  0
LINE
  8
0
 10
88.1643
 20
-48.7408
 11
88.1271
 21
-48.8442
  0
LINE
  8
0
 10
88.1271
 20
-48.8442
 11
88.0834
 21
-48.9451
  0
LINE
  8
0
 10
88.0834
 20
-48.9451
 11
88.0335
 21
-49.0431
  0
LINE
  8
0
 10
88.0335
 20
-49.0431
 11
87.9776
 21
-49.1377
  0
LINE
  8
0
 10
87.9776
 20
-49.1377
 11
87.9158
 21
-49.2286
  0
LINE
  8
0
 10
87.9158
 20
-49.2286
 11
87.8484
 21
-49.3155
  0
LINE
  8
0
 10
87.8484
 20
-49.3155
 11
87.7757
 21
-49.3979
  0
LINE
  8
0
 10
87.7757
 20
-49.3979
 11
87.698
 21
-49.4757
  0
LINE
  8
0
 10
87.698
 20
-49.4757
 11
87.6155
 21
-49.5484
  0
LINE
  8
0
 10
87.6155
 20
-49.5484
 11
87.5286
 21
-49.6158
  0
LINE
  8
0
 10
87.5286
 20
-49.6158
 11
87.4377
 21
-49.6776
  0
LINE
  8
0
 10
87.4377
 20
-49.6776
 11
87.3431
 21
-49.7335
  0
LINE
  8
0
 10
87.3431
 20
-49.7335
 11
87.2451
 21
-49.7834
  0
LINE
  8
0
 10
87.2451
 20
-49.7834
 11
87.1442
 21
-49.8271
  0
LINE
  8
0
 10
87.1442
 20
-49.8271
 11
87.0408
 21
-49.8643
  0
LINE
  8
0
 10
87.0408
 20
-49.8643
 11
86.9352
 21
-49.895
  0
LINE
  8
0
 10
86.9352
 20
-49.895
 11
86.8279
 21
-49.919
  0
LINE
  8
0
 10
86.8279
 20
-49.919
 11
86.7193
 21
-49.9362
  0
LINE
  8
0
 10
86.7193
 20
-49.9362
 11
86.6099
 21
-49.9465
  0
LINE
  8
0
 10
86.6099
 20
-49.9465
 11
86.5
 21
-49.95
  0
LINE
  8
0
 10
86.5
 20
-49.95
 11
86.3901
 21
-49.9465
  0
LINE
  8
0
 10
47.8901
 20
-50.7465
 11
47.7807
 21
-50.7362
  0
LINE
  8
0
 10
47.7807
 20
-50.7362
 11
47.6721
 21
-50.719
  0
LINE
  8
0
 10
47.6721
 20
-50.719
 11
47.5648
 21
-50.695
  0
LINE
  8
0
 10
47.5648
 20
-50.695
 11
47.4592
 21
-50.6643
  0
LINE
  8
0
 10
47.4592
 20
-50.6643
 11
47.3558
 21
-50.6271
  0
LINE
  8
0
 10
47.3558
 20
-50.6271
 11
47.2549
 21
-50.5834
  0
LINE
  8
0
 10
47.2549
 20
-50.5834
 11
47.1569
 21
-50.5335
  0
LINE
  8
0
 10
47.1569
 20
-50.5335
 11
47.0623
 21
-50.4776
  0
LINE
  8
0
 10
47.0623
 20
-50.4776
 11
46.9714
 21
-50.4158
  0
LINE
  8
0
 10
46.9714
 20
-50.4158
 11
46.8845
 21
-50.3484
  0
LINE
  8
0
 10
46.8845
 20
-50.3484
 11
46.802
 21
-50.2757
  0
LINE
  8
0
 10
46.802
 20
-50.2757
 11
46.7243
 21
-50.198
  0
LINE
  8
0
 10
46.7243
 20
-50.198
 11
46.6516
 21
-50.1155
  0
LINE
  8
0
 10
46.6516
 20
-50.1155
 11
46.5842
 21
-50.0286
  0
LINE
  8
0
 10
46.5842
 20
-50.0286
 11
46.5224
 21
-49.9377
  0
LINE
  8
0
 10
46.5224
 20
-49.9377
 11
46.4665
 21
-49.8431
  0
LINE
  8
0
 10
46.4665
 20
-49.8431
 11
46.4165
 21
-49.7451
  0
LINE
  8
0
 10
46.4165
 20
-49.7451
 11
46.3729
 21
-49.6442
  0
LINE
  8
0
 10
46.3729
 20
-49.6442
 11
46.3356
 21
-49.5408
  0
LINE
  8
0
 10
46.3356
 20
-49.5408
 11
46.305
 21
-49.4352
  0
LINE
  8
0
 10
46.305
 20
-49.4352
 11
46.281
 21
-49.3279
  0
LINE
  8
0
 10
46.281
 20
-49.3279
 11
46.2638
 21
-49.2193
  0
LINE
  8
0
 10
46.2638
 20
-49.2193
 11
46.2534
 21
-49.1099
  0
LINE
  8
0
 10
46.2534
 20
-49.1099
 11
46.25
 21
-49
  0
LINE
  8
0
 10
46.25
 20
-49
 11
46.2534
 21
-48.8901
  0
LINE
  8
0
 10
46.2534
 20
-48.8901
 11
46.2638
 21
-48.7807
  0
LINE
  8
0
 10
46.2638
 20
-48.7807
 11
46.281
 21
-48.6721
  0
LINE
  8
0
 10
46.281
 20
-48.6721
 11
46.305
 21
-48.5648
  0
LINE
  8
0
 10
46.305
 20
-48.5648
 11
46.3356
 21
-48.4592
  0
LINE
  8
0
 10
46.3356
 20
-48.4592
 11
46.3729
 21
-48.3558
  0
LINE
  8
0
 10
46.3729
 20
-48.3558
 11
46.4165
 21
-48.2549
  0
LINE
  8
0
 10
46.4165
 20
-48.2549
 11
46.4665
 21
-48.1569
  0
LINE
  8
0
 10
46.4665
 20
-48.1569
 11
46.5224
 21
-48.0623
  0
LINE
  8
0
 10
46.5224
 20
-48.0623
 11
46.5842
 21
-47.9714
  0
LINE
  8
0
 10
46.5842
 20
-47.9714
 11
46.6516
 21
-47.8845
  0
LINE
  8
0
 10
46.6516
 20
-47.8845
 11
46.7243
 21
-47.802
  0
LINE
  8
0
 10
46.7243
 20
-47.802
 11
46.802
 21
-47.7243
  0
LINE
  8
0
 10
46.802
 20
-47.7243
 11
46.8845
 21
-47.6516
  0
LINE
  8
0
 10
46.8845
 20
-47.6516
 11
46.9714
 21
-47.5842
  0
LINE
  8
0
 10
46.9714
 20
-47.5842
 11
47.0623
 21
-47.5224
  0
LINE
  8
0
 10
47.0623
 20
-47.5224
 11
47.1569
 21
-47.4665
  0
LINE
  8
0
 10
47.1569
 20
-47.4665
 11
47.2549
 21
-47.4165
  0
LINE
  8
0
 10
47.2549
 20
-47.4165
 11
47.3558
 21
-47.3729
  0
LINE
  8
0
 10
47.3558
 20
-47.3729
 11
47.4592
 21
-47.3356
  0
LINE
  8
0
 10
47.4592
 20
-47.3356
 11
47.5648
 21
-47.305
  0
LINE
  8
0
 10
47.5648
 20
-47.305
 11
47.6721
 21
-47.281
  0
LINE
  8
0
 10
47.6721
 20
-47.281
 11
47.7807
 21
-47.2638
  0
LINE
  8
0
 10
47.7807
 20
-47.2638
 11
47.8901
 21
-47.2534
  0
LINE
  8
0
 10
47.8901
 20
-47.2534
 11
48
 21
-47.25
  0
LINE
  8
0
 10
48
 20
-47.25
 11
48.1099
 21
-47.2534
  0
LINE
  8
0
 10
48.1099
 20
-47.2534
 11
48.2193
 21
-47.2638
  0
LINE
  8
0
 10
48.2193
 20
-47.2638
 11
48.3279
 21
-47.281
  0
LINE
  8
0
 10
48.3279
 20
-47.281
 11
48.4352
 21
-47.305
  0
LINE
  8
0
 10
48.4352
 20
-47.305
 11
48.5408
 21
-47.3356
  0
LINE
  8
0
 10
48.5408
 20
-47.3356
 11
48.6442
 21
-47.3729
  0
LINE
  8
0
 10
48.6442
 20
-47.3729
 11
48.7451
 21
-47.4165
  0
LINE
  8
0
 10
48.7451
 20
-47.4165
 11
48.8431
 21
-47.4665
  0
LINE
  8
0
 10
48.8431
 20
-47.4665
 11
48.9377
 21
-47.5224
  0
LINE
  8
0
 10
48.9377
 20
-47.5224
 11
49.0286
 21
-47.5842
  0
LINE
  8
0
 10
49.0286
 20
-47.5842
 11
49.1155
 21
-47.6516
  0
LINE
  8
0
 10
49.1155
 20
-47.6516
 11
49.198
 21
-47.7243
  0
LINE
  8
0
 10
49.198
 20
-47.7243
 11
49.2757
 21
-47.802
  0
LINE
  8
0
 10
49.2757
 20
-47.802
 11
49.3484
 21
-47.8845
  0
LINE
  8
0
 10
49.3484
 20
-47.8845
 11
49.4158
 21
-47.9714
  0
LINE
  8
0
 10
49.4158
 20
-47.9714
 11
49.4776
 21
-48.0623
  0
LINE
  8
0
 10
49.4776
 20
-48.0623
 11
49.5335
 21
-48.1569
  0
LINE
  8
0
 10
49.5335
 20
-48.1569
 11
49.5834
 21
-48.2549
  0
LINE
  8
0
 10
49.5834
 20
-48.2549
 11
49.6271
 21
-48.3558
  0
LINE
  8
0
 10
49.6271
 20
-48.3558
 11
49.6643
 21
-48.4592
  0
LINE
  8
0
 10
49.6643
 20
-48.4592
 11
49.695
 21
-48.5648
  0
LINE
  8
0
 10
49.695
 20
-48.5648
 11
49.719
 21
-48.6721
  0
LINE
  8
0
 10
49.719
 20
-48.6721
 11
49.7362
 21
-48.7807
  0
LINE
  8
0
 10
49.7362
 20
-48.7807
 11
49.7465
 21
-48.8901
  0
LINE
  8
0
 10
49.7465
 20
-48.8901
 11
49.75
 21
-49
  0
LINE
  8
0
 10
49.75
 20
-49
 11
49.7465
 21
-49.1099
  0
LINE
  8
0
 10
49.7465
 20
-49.1099
 11
49.7362
 21
-49.2193
  0
LINE
  8
0
 10
49.7362
 20
-49.2193
 11
49.719
 21
-49.3279
  0
LINE
  8
0
 10
49.719
 20
-49.3279
 11
49.695
 21
-49.4352
  0
LINE
  8
0
 10
49.695
 20
-49.4352
 11
49.6643
 21
-49.5408
  0
LINE
  8
0
 10
49.6643
 20
-49.5408
 11
49.6271
 21
-49.6442
  0
LINE
  8
0
 10
49.6271
 20
-49.6442
 11
49.5834
 21
-49.7451
  0
LINE
  8
0
 10
49.5834
 20
-49.7451
 11
49.5335
 21
-49.8431
  0
LINE
  8
0
 10
49.5335
 20
-49.8431
 11
49.4776
 21
-49.9377
  0
LINE
  8
0
 10
49.4776
 20
-49.9377
 11
49.4158
 21
-50.0286
  0
LINE
  8
0
 10
49.4158
 20
-50.0286
 11
49.3484
 21
-50.1155
  0
LINE
  8
0
 10
49.3484
 20
-50.1155
 11
49.2757
 21
-50.198
  0
LINE
  8
0
 10
49.2757
 20
-50.198
 11
49.198
 21
-50.2757
  0
LINE
  8
0
 10
49.198
 20
-50.2757
 11
49.1155
 21
-50.3484
  0
LINE
  8
0
 10
49.1155
 20
-50.3484
 11
49.0286
 21
-50.4158
  0
LINE
  8
0
 10
49.0286
 20
-50.4158
 11
48.9377
 21
-50.4776
  0
LINE
  8
0
 10
48.9377
 20
-50.4776
 11
48.8431
 21
-50.5335
  0
LINE
  8
0
 10
48.8431
 20
-50.5335
 11
48.7451
 21
-50.5834
  0
LINE
  8
0
 10
48.7451
 20
-50.5834
 11
48.6442
 21
-50.6271
  0
LINE
  8
0
 10
48.6442
 20
-50.6271
 11
48.5408
 21
-50.6643
  0
LINE
  8
0
 10
48.5408
 20
-50.6643
 11
48.4352
 21
-50.695
  0
LINE
  8
0
 10
48.4352
 20
-50.695
 11
48.3279
 21
-50.719
  0
LINE
  8
0
 10
48.3279
 20
-50.719
 11
48.2193
 21
-50.7362
  0
LINE
  8
0
 10
48.2193
 20
-50.7362
 11
48.1099
 21
-50.7465
  0
LINE
  8
0
 10
48.1099
 20
-50.7465
 11
48
 21
-50.75
  0
LINE
  8
0
 10
48
 20
-50.75
 11
47.8901
 21
-50.7465
  0
LINE
  8
0
 10
51.4878
 20
-64.9247
 11
51.4878
 21
-50.8748
  0
LINE
  8
0
 10
51.4878
 20
-50.8748
 11
65.5378
 21
-50.8748
  0
LINE
  8
0
 10
65.5378
 20
-50.8748
 11
65.5378
 21
-64.9247
  0
LINE
  8
0
 10
65.5378
 20
-64.9247
 11
51.4878
 21
-64.9247
  0
LINE
  8
0
 10
69.4878
 20
-64.9247
 11
69.4878
 21
-50.8748
  0
LINE
  8
0
 10
69.4878
 20
-50.8748
 11
83.5378
 21
-50.8748
  0
LINE
  8
0
 10
83.5378
 20
-50.8748
 11
83.5378
 21
-64.9247
  0
LINE
  8
0
 10
83.5378
 20
-64.9247
 11
69.4878
 21
-64.9247
  0
LINE
  8
0
 10
88.464
 20
-66.2319
 11
92.4218
 21
-52.7508
  0
LINE
  8
0
 10
92.4218
 20
-52.7508
 11
105.903
 21
-56.7086
  0
LINE
  8
0
 10
105.903
 20
-56.7086
 11
101.945
 21
-70.1897
  0
LINE
  8
0
 10
101.945
 20
-70.1897
 11
88.464
 21
-66.2319
  0
LINE
  8
0
 10
124.59
 20
-60.7465
 11
124.481
 21
-60.7362
  0
LINE
  8
0
 10
124.481
 20
-60.7362
 11
124.372
 21
-60.719
  0
LINE
  8
0
 10
124.372
 20
-60.719
 11
124.265
 21
-60.695
  0
LINE
  8
0
 10
124.265
 20
-60.695
 11
124.159
 21
-60.6643
  0
LINE
  8
0
 10
124.159
 20
-60.6643
 11
124.056
 21
-60.6271
  0
LINE
  8
0
 10
124.056
 20
-60.6271
 11
123.955
 21
-60.5834
  0
LINE
  8
0
 10
123.955
 20
-60.5834
 11
123.857
 21
-60.5335
  0
LINE
  8
0
 10
123.857
 20
-60.5335
 11
123.762
 21
-60.4776
  0
LINE
  8
0
 10
123.762
 20
-60.4776
 11
123.671
 21
-60.4158
  0
LINE
  8
0
 10
123.671
 20
-60.4158
 11
123.585
 21
-60.3484
  0
LINE
  8
0
 10
123.585
 20
-60.3484
 11
123.502
 21
-60.2757
  0
LINE
  8
0
 10
123.502
 20
-60.2757
 11
123.424
 21
-60.198
  0
LINE
  8
0
 10
123.424
 20
-60.198
 11
123.352
 21
-60.1155
  0
LINE
  8
0
 10
123.352
 20
-60.1155
 11
123.284
 21
-60.0286
  0
LINE
  8
0
 10
123.284
 20
-60.0286
 11
123.222
 21
-59.9377
  0
LINE
  8
0
 10
123.222
 20
-59.9377
 11
123.166
 21
-59.8431
  0
LINE
  8
0
 10
123.166
 20
-59.8431
 11
123.117
 21
-59.7451
  0
LINE
  8
0
 10
123.117
 20
-59.7451
 11
123.073
 21
-59.6442
  0
LINE
  8
0
 10
123.073
 20
-59.6442
 11
123.036
 21
-59.5408
  0
LINE
  8
0
 10
123.036
 20
-59.5408
 11
123.005
 21
-59.4352
  0
LINE
  8
0
 10
123.005
 20
-59.4352
 11
122.981
 21
-59.3279
  0
LINE
  8
0
 10
122.981
 20
-59.3279
 11
122.964
 21
-59.2193
  0
LINE
  8
0
 10
122.964
 20
-59.2193
 11
122.953
 21
-59.1099
  0
LINE
  8
0
 10
122.953
 20
-59.1099
 11
122.95
 21
-59
  0
LINE
  8
0
 10
122.95
 20
-59
 11
122.953
 21
-58.8901
  0
LINE
  8
0
 10
122.953
 20
-58.8901
 11
122.964
 21
-58.7807
  0
LINE
  8
0
 10
122.964
 20
-58.7807
 11
122.981
 21
-58.6721
  0
LINE
  8
0
 10
122.981
 20
-58.6721
 11
123.005
 21
-58.5648
  0
LINE
  8
0
 10
123.005
 20
-58.5648
 11
123.036
 21
-58.4592
  0
LINE
  8
0
 10
123.036
 20
-58.4592
 11
123.073
 21
-58.3558
  0
LINE
  8
0
 10
123.073
 20
-58.3558
 11
123.117
 21
-58.2549
  0
LINE
  8
0
 10
123.117
 20
-58.2549
 11
123.166
 21
-58.1569
  0
LINE
  8
0
 10
123.166
 20
-58.1569
 11
123.222
 21
-58.0623
  0
LINE
  8
0
 10
123.222
 20
-58.0623
 11
123.284
 21
-57.9714
  0
LINE
  8
0
 10
123.284
 20
-57.9714
 11
123.352
 21
-57.8845
  0
LINE
  8
0
 10
123.352
 20
-57.8845
 11
123.424
 21
-57.802
  0
LINE
  8
0
 10
123.424
 20
-57.802
 11
123.502
 21
-57.7243
  0
LINE
  8
0
 10
123.502
 20
-57.7243
 11
123.585
 21
-57.6516
  0
LINE
  8
0
 10
123.585
 20
-57.6516
 11
123.671
 21
-57.5842
  0
LINE
  8
0
 10
123.671
 20
-57.5842
 11
123.762
 21
-57.5224
  0
LINE
  8
0
 10
123.762
 20
-57.5224
 11
123.857
 21
-57.4665
  0
LINE
  8
0
 10
123.857
 20
-57.4665
 11
123.955
 21
-57.4165
  0
LINE
  8
0
 10
123.955
 20
-57.4165
 11
124.056
 21
-57.3729
  0
LINE
  8
0
 10
124.056
 20
-57.3729
 11
124.159
 21
-57.3356
  0
LINE
  8
0
 10
124.159
 20
-57.3356
 11
124.265
 21
-57.305
  0
LINE
  8
0
 10
124.265
 20
-57.305
 11
124.372
 21
-57.281
  0
LINE
  8
0
 10
124.372
 20
-57.281
 11
124.481
 21
-57.2638
  0
LINE
  8
0
 10
124.481
 20
-57.2638
 11
124.59
 21
-57.2534
  0
LINE
  8
0
 10
124.59
 20
-57.2534
 11
124.7
 21
-57.25
  0
LINE
  8
0
 10
124.7
 20
-57.25
 11
124.81
 21
-57.2534
  0
LINE
  8
0
 10
124.81
 20
-57.2534
 11
124.919
 21
-57.2638
  0
LINE
  8
0
 10
124.919
 20
-57.2638
 11
125.028
 21
-57.281
  0
LINE
  8
0
 10
125.028
 20
-57.281
 11
125.135
 21
-57.305
  0
LINE
  8
0
 10
125.135
 20
-57.305
 11
125.241
 21
-57.3356
  0
LINE
  8
0
 10
125.241
 20
-57.3356
 11
125.344
 21
-57.3729
  0
LINE
  8
0
 10
125.344
 20
-57.3729
 11
125.445
 21
-57.4165
  0
LINE
  8
0
 10
125.445
 20
-57.4165
 11
125.543
 21
-57.4665
  0
LINE
  8
0
 10
125.543
 20
-57.4665
 11
125.638
 21
-57.5224
  0
LINE
  8
0
 10
125.638
 20
-57.5224
 11
125.729
 21
-57.5842
  0
LINE
  8
0
 10
125.729
 20
-57.5842
 11
125.815
 21
-57.6516
  0
LINE
  8
0
 10
125.815
 20
-57.6516
 11
125.898
 21
-57.7243
  0
LINE
  8
0
 10
125.898
 20
-57.7243
 11
125.976
 21
-57.802
  0
LINE
  8
0
 10
125.976
 20
-57.802
 11
126.048
 21
-57.8845
  0
LINE
  8
0
 10
126.048
 20
-57.8845
 11
126.116
 21
-57.9714
  0
LINE
  8
0
 10
126.116
 20
-57.9714
 11
126.178
 21
-58.0623
  0
LINE
  8
0
 10
126.178
 20
-58.0623
 11
126.234
 21
-58.1569
  0
LINE
  8
0
 10
126.234
 20
-58.1569
 11
126.283
 21
-58.2549
  0
LINE
  8
0
 10
126.283
 20
-58.2549
 11
126.327
 21
-58.3558
  0
LINE
  8
0
 10
126.327
 20
-58.3558
 11
126.364
 21
-58.4592
  0
LINE
  8
0
 10
126.364
 20
-58.4592
 11
126.395
 21
-58.5648
  0
LINE
  8
0
 10
126.395
 20
-58.5648
 11
126.419
 21
-58.6721
  0
LINE
  8
0
 10
126.419
 20
-58.6721
 11
126.436
 21
-58.7807
  0
LINE
  8
0
 10
126.436
 20
-58.7807
 11
126.447
 21
-58.8901
  0
LINE
  8
0
 10
126.447
 20
-58.8901
 11
126.45
 21
-59
  0
LINE
  8
0
 10
126.45
 20
-59
 11
126.447
 21
-59.1099
  0
LINE
  8
0
 10
126.447
 20
-59.1099
 11
126.436
 21
-59.2193
  0
LINE
  8
0
 10
126.436
 20
-59.2193
 11
126.419
 21
-59.3279
  0
LINE
  8
0
 10
126.419
 20
-59.3279
 11
126.395
 21
-59.4352
  0
LINE
  8
0
 10
126.395
 20
-59.4352
 11
126.364
 21
-59.5408
  0
LINE
  8
0
 10
126.364
 20
-59.5408
 11
126.327
 21
-59.6442
  0
LINE
  8
0
 10
126.327
 20
-59.6442
 11
126.283
 21
-59.7451
  0
LINE
  8
0
 10
126.283
 20
-59.7451
 11
126.234
 21
-59.8431
  0
LINE
  8
0
 10
126.234
 20
-59.8431
 11
126.178
 21
-59.9377
  0
LINE
  8
0
 10
126.178
 20
-59.9377
 11
126.116
 21
-60.0286
  0
LINE
  8
0
 10
126.116
 20
-60.0286
 11
126.048
 21
-60.1155
  0
LINE
  8
0
 10
126.048
 20
-60.1155
 11
125.976
 21
-60.198
  0
LINE
  8
0
 10
125.976
 20
-60.198
 11
125.898
 21
-60.2757
  0
LINE
  8
0
 10
125.898
 20
-60.2757
 11
125.815
 21
-60.3484
  0
LINE
  8
0
 10
125.815
 20
-60.3484
 11
125.729
 21
-60.4158
  0
LINE
  8
0
 10
125.729
 20
-60.4158
 11
125.638
 21
-60.4776
  0
LINE
  8
0
 10
125.638
 20
-60.4776
 11
125.543
 21
-60.5335
  0
LINE
  8
0
 10
125.543
 20
-60.5335
 11
125.445
 21
-60.5834
  0
LINE
  8
0
 10
125.445
 20
-60.5834
 11
125.344
 21
-60.6271
  0
LINE
  8
0
 10
125.344
 20
-60.6271
 11
125.241
 21
-60.6643
  0
LINE
  8
0
 10
125.241
 20
-60.6643
 11
125.135
 21
-60.695
  0
LINE
  8
0
 10
125.135
 20
-60.695
 11
125.028
 21
-60.719
  0
LINE
  8
0
 10
125.028
 20
-60.719
 11
124.919
 21
-60.7362
  0
LINE
  8
0
 10
124.919
 20
-60.7362
 11
124.81
 21
-60.7465
  0
LINE
  8
0
 10
124.81
 20
-60.7465
 11
124.7
 21
-60.75
  0
LINE
  8
0
 10
124.7
 20
-60.75
 11
124.59
 21
-60.7465
  0
LINE
  8
0
 10
106.042
 20
-72.2041
 11
114.301
 21
-60.8374
  0
LINE
  8
0
 10
114.301
 20
-60.8374
 11
125.667
 21
-69.0958
  0
LINE
  8
0
 10
125.667
 20
-69.0958
 11
117.409
 21
-80.4625
  0
LINE
  8
0
 10
117.409
 20
-80.4625
 11
106.042
 21
-72.2041
  0
LINE
  8
0
 10
117.39
 20
-86.2465
 11
117.281
 21
-86.2362
  0
LINE
  8
0
 10
117.281
 20
-86.2362
 11
117.172
 21
-86.219
  0
LINE
  8
0
 10
117.172
 20
-86.219
 11
117.065
 21
-86.195
  0
LINE
  8
0
 10
117.065
 20
-86.195
 11
116.959
 21
-86.1643
  0
LINE
  8
0
 10
116.959
 20
-86.1643
 11
116.856
 21
-86.1271
  0
LINE
  8
0
 10
116.856
 20
-86.1271
 11
116.755
 21
-86.0834
  0
LINE
  8
0
 10
116.755
 20
-86.0834
 11
116.657
 21
-86.0335
  0
LINE
  8
0
 10
116.657
 20
-86.0335
 11
116.562
 21
-85.9776
  0
LINE
  8
0
 10
116.562
 20
-85.9776
 11
116.471
 21
-85.9158
  0
LINE
  8
0
 10
116.471
 20
-85.9158
 11
116.385
 21
-85.8484
  0
LINE
  8
0
 10
116.385
 20
-85.8484
 11
116.302
 21
-85.7757
  0
LINE
  8
0
 10
116.302
 20
-85.7757
 11
116.224
 21
-85.698
  0
LINE
  8
0
 10
116.224
 20
-85.698
 11
116.152
 21
-85.6155
  0
LINE
  8
0
 10
116.152
 20
-85.6155
 11
116.084
 21
-85.5286
  0
LINE
  8
0
 10
116.084
 20
-85.5286
 11
116.022
 21
-85.4377
  0
LINE
  8
0
 10
116.022
 20
-85.4377
 11
115.966
 21
-85.3431
  0
LINE
  8
0
 10
115.966
 20
-85.3431
 11
115.917
 21
-85.2451
  0
LINE
  8
0
 10
115.917
 20
-85.2451
 11
115.873
 21
-85.1442
  0
LINE
  8
0
 10
115.873
 20
-85.1442
 11
115.836
 21
-85.0408
  0
LINE
  8
0
 10
115.836
 20
-85.0408
 11
115.805
 21
-84.9352
  0
LINE
  8
0
 10
115.805
 20
-84.9352
 11
115.781
 21
-84.8279
  0
LINE
  8
0
 10
115.781
 20
-84.8279
 11
115.764
 21
-84.7193
  0
LINE
  8
0
 10
115.764
 20
-84.7193
 11
115.753
 21
-84.6099
  0
LINE
  8
0
 10
115.753
 20
-84.6099
 11
115.75
 21
-84.5
  0
LINE
  8
0
 10
115.75
 20
-84.5
 11
115.753
 21
-84.3901
  0
LINE
  8
0
 10
115.753
 20
-84.3901
 11
115.764
 21
-84.2807
  0
LINE
  8
0
 10
115.764
 20
-84.2807
 11
115.781
 21
-84.1721
  0
LINE
  8
0
 10
115.781
 20
-84.1721
 11
115.805
 21
-84.0648
  0
LINE
  8
0
 10
115.805
 20
-84.0648
 11
115.836
 21
-83.9592
  0
LINE
  8
0
 10
115.836
 20
-83.9592
 11
115.873
 21
-83.8558
  0
LINE
  8
0
 10
115.873
 20
-83.8558
 11
115.917
 21
-83.7549
  0
LINE
  8
0
 10
115.917
 20
-83.7549
 11
115.966
 21
-83.6569
  0
LINE
  8
0
 10
115.966
 20
-83.6569
 11
116.022
 21
-83.5623
  0
LINE
  8
0
 10
116.022
 20
-83.5623
 11
116.084
 21
-83.4714
  0
LINE
  8
0
 10
116.084
 20
-83.4714
 11
116.152
 21
-83.3845
  0
LINE
  8
0
 10
116.152
 20
-83.3845
 11
116.224
 21
-83.302
  0
LINE
  8
0
 10
116.224
 20
-83.302
 11
116.302
 21
-83.2243
  0
LINE
  8
0
 10
116.302
 20
-83.2243
 11
116.385
 21
-83.1516
  0
LINE
  8
0
 10
116.385
 20
-83.1516
 11
116.471
 21
-83.0842
  0
LINE
  8
0
 10
116.471
 20
-83.0842
 11
116.562
 21
-83.0224
  0
LINE
  8
0
 10
116.562
 20
-83.0224
 11
116.657
 21
-82.9665
  0
LINE
  8
0
 10
116.657
 20
-82.9665
 11
116.755
 21
-82.9165
  0
LINE
  8
0
 10
116.755
 20
-82.9165
 11
116.856
 21
-82.8729
  0
LINE
  8
0
 10
116.856
 20
-82.8729
 11
116.959
 21
-82.8356
  0
LINE
  8
0
 10
116.959
 20
-82.8356
 11
117.065
 21
-82.805
  0
LINE
  8
0
 10
117.065
 20
-82.805
 11
117.172
 21
-82.781
  0
LINE
  8
0
 10
117.172
 20
-82.781
 11
117.281
 21
-82.7638
  0
LINE
  8
0
 10
117.281
 20
-82.7638
 11
117.39
 21
-82.7534
  0
LINE
  8
0
 10
117.39
 20
-82.7534
 11
117.5
 21
-82.75
  0
LINE
  8
0
 10
117.5
 20
-82.75
 11
117.61
 21
-82.7534
  0
LINE
  8
0
 10
117.61
 20
-82.7534
 11
117.719
 21
-82.7638
  0
LINE
  8
0
 10
117.719
 20
-82.7638
 11
117.828
 21
-82.781
  0
LINE
  8
0
 10
117.828
 20
-82.781
 11
117.935
 21
-82.805
  0
LINE
  8
0
 10
117.935
 20
-82.805
 11
118.041
 21
-82.8356
  0
LINE
  8
0
 10
118.041
 20
-82.8356
 11
118.144
 21
-82.8729
  0
LINE
  8
0
 10
118.144
 20
-82.8729
 11
118.245
 21
-82.9165
  0
LINE
  8
0
 10
118.245
 20
-82.9165
 11
118.343
 21
-82.9665
  0
LINE
  8
0
 10
118.343
 20
-82.9665
 11
118.438
 21
-83.0224
  0
LINE
  8
0
 10
118.438
 20
-83.0224
 11
118.529
 21
-83.0842
  0
LINE
  8
0
 10
118.529
 20
-83.0842
 11
118.615
 21
-83.1516
  0
LINE
  8
0
 10
118.615
 20
-83.1516
 11
118.698
 21
-83.2243
  0
LINE
  8
0
 10
118.698
 20
-83.2243
 11
118.776
 21
-83.302
  0
LINE
  8
0
 10
118.776
 20
-83.302
 11
118.848
 21
-83.3845
  0
LINE
  8
0
 10
118.848
 20
-83.3845
 11
118.916
 21
-83.4714
  0
LINE
  8
0
 10
118.916
 20
-83.4714
 11
118.978
 21
-83.5623
  0
LINE
  8
0
 10
118.978
 20
-83.5623
 11
119.034
 21
-83.6569
  0
LINE
  8
0
 10
119.034
 20
-83.6569
 11
119.083
 21
-83.7549
  0
LINE
  8
0
 10
119.083
 20
-83.7549
 11
119.127
 21
-83.8558
  0
LINE
  8
0
 10
119.127
 20
-83.8558
 11
119.164
 21
-83.9592
  0
LINE
  8
0
 10
119.164
 20
-83.9592
 11
119.195
 21
-84.0648
  0
LINE
  8
0
 10
119.195
 20
-84.0648
 11
119.219
 21
-84.1721
  0
LINE
  8
0
 10
119.219
 20
-84.1721
 11
119.236
 21
-84.2807
  0
LINE
  8
0
 10
119.236
 20
-84.2807
 11
119.247
 21
-84.3901
  0
LINE
  8
0
 10
119.247
 20
-84.3901
 11
119.25
 21
-84.5
  0
LINE
  8
0
 10
119.25
 20
-84.5
 11
119.247
 21
-84.6099
  0
LINE
  8
0
 10
119.247
 20
-84.6099
 11
119.236
 21
-84.7193
  0
LINE
  8
0
 10
119.236
 20
-84.7193
 11
119.219
 21
-84.8279
  0
LINE
  8
0
 10
119.219
 20
-84.8279
 11
119.195
 21
-84.9352
  0
LINE
  8
0
 10
119.195
 20
-84.9352
 11
119.164
 21
-85.0408
  0
LINE
  8
0
 10
119.164
 20
-85.0408
 11
119.127
 21
-85.1442
  0
LINE
  8
0
 10
119.127
 20
-85.1442
 11
119.083
 21
-85.2451
  0
LINE
  8
0
 10
119.083
 20
-85.2451
 11
119.034
 21
-85.3431
  0
LINE
  8
0
 10
119.034
 20
-85.3431
 11
118.978
 21
-85.4377
  0
LINE
  8
0
 10
118.978
 20
-85.4377
 11
118.916
 21
-85.5286
  0
LINE
  8
0
 10
118.916
 20
-85.5286
 11
118.848
 21
-85.6155
  0
LINE
  8
0
 10
118.848
 20
-85.6155
 11
118.776
 21
-85.698
  0
LINE
  8
0
 10
118.776
 20
-85.698
 11
118.698
 21
-85.7757
  0
LINE
  8
0
 10
118.698
 20
-85.7757
 11
118.615
 21
-85.8484
  0
LINE
  8
0
 10
118.615
 20
-85.8484
 11
118.529
 21
-85.9158
  0
LINE
  8
0
 10
118.529
 20
-85.9158
 11
118.438
 21
-85.9776
  0
LINE
  8
0
 10
118.438
 20
-85.9776
 11
118.343
 21
-86.0335
  0
LINE
  8
0
 10
118.343
 20
-86.0335
 11
118.245
 21
-86.0834
  0
LINE
  8
0
 10
118.245
 20
-86.0834
 11
118.144
 21
-86.1271
  0
LINE
  8
0
 10
118.144
 20
-86.1271
 11
118.041
 21
-86.1643
  0
LINE
  8
0
 10
118.041
 20
-86.1643
 11
117.935
 21
-86.195
  0
LINE
  8
0
 10
117.935
 20
-86.195
 11
117.828
 21
-86.219
  0
LINE
  8
0
 10
117.828
 20
-86.219
 11
117.719
 21
-86.2362
  0
LINE
  8
0
 10
117.719
 20
-86.2362
 11
117.61
 21
-86.2465
  0
LINE
  8
0
 10
117.61
 20
-86.2465
 11
117.5
 21
-86.25
  0
LINE
  8
0
 10
117.5
 20
-86.25
 11
117.39
 21
-86.2465
  0
ENDSEC
  0
SECTION
  2
OBJECTS
  0
DICTIONARY
  0
ENDSEC
  0
EOF
