  0
SECTION
  2
BLOCKS
  0
ENDSEC
  0
SECTION
  2
ENTITIES
  0
LINE
  8
0
 10
27.2467
 20
-60.7374
 11
29.8726
 21
-59.0364
  0
LINE
  8
0
 10
29.8726
 20
-59.0364
 11
42.6676
 21
-47.5424
  0
LINE
  8
0
 10
42.6676
 20
-47.5424
 11
44.083
 21
-47
  0
LINE
  8
0
 10
44.083
 20
-47
 11
157
 21
-47
  0
LINE
  8
0
 10
157
 20
-47
 11
159.472
 21
-46.6085
  0
LINE
  8
0
 10
159.472
 20
-46.6085
 11
161.702
 21
-45.4721
  0
LINE
  8
0
 10
161.702
 20
-45.4721
 11
163.472
 21
-43.7023
  0
LINE
  8
0
 10
163.472
 20
-43.7023
 11
164.608
 21
-41.4721
  0
LINE
  8
0
 10
164.608
 20
-41.4721
 11
165
 21
-39
  0
LINE
  8
0
 10
165
 20
-39
 11
165
 21
52
  0
LINE
  8
0
 10
165
 20
52
 11
164.608
 21
54.4721
  0
LINE
  8
0
 10
164.608
 20
54.4721
 11
163.472
 21
56.7023
  0
LINE
  8
0
 10
163.472
 20
56.7023
 11
161.702
 21
58.4721
  0
LINE
  8
0
 10
161.702
 20
58.4721
 11
159.472
 21
59.6085
  0
LINE
  8
0
 10
159.472
 20
59.6085
 11
157
 21
60
  0
LINE
  8
0
 10
157
 20
60
 11
8
 21
60
  0
LINE
  8
0
 10
8
 20
60
 11
5.52786
 21
59.6085
  0
LINE
  8
0
 10
5.52786
 20
59.6085
 11
3.29771
 21
58.4721
  0
LINE
  8
0
 10
3.29771
 20
58.4721
 11
1.52786
 21
56.7023
  0
LINE
  8
0
 10
1.52786
 20
56.7023
 11
0.391541
 21
54.4721
  0
LINE
  8
0
 10
0.391541
 20
54.4721
 11
0
 21
52
  0
LINE
  8
0
 10
0
 20
52
 11
0
 21
-39
  0
LINE
  8
0
 10
0
 20
-39
 11
0.391541
 21
-41.4721
  0
LINE
  8
0
 10
0.391541
 20
-41.4721
 11
1.52786
 21
-43.7023
  0
LINE
  8
0
 10
1.52786
 20
-43.7023
 11
3.29771
 21
-45.4721
  0
LINE
  8
0
 10
3.29771
 20
-45.4721
 11
5.04471
 21
-46.3623
  0
LINE
  8
0
 10
5.04471
 20
-46.3623
 11
15.7507
 21
-58.28
  0
LINE
  8
0
 10
15.7507
 20
-58.28
 11
18.1799
 21
-60.2518
  0
LINE
  8
0
 10
18.1799
 20
-60.2518
 11
21.0994
 21
-61.3763
  0
LINE
  8
0
 10
21.0994
 20
-61.3763
 11
24.2236
 21
-61.5437
  0
LINE
  8
0
 10
24.2236
 20
-61.5437
 11
27.2467
 21
-60.7374
  0
LINE
  8
0
 10
119.459
 20
51.3357
 11
118.971
 21
51.5842
  0
LINE
  8
0
 10
118.971
 20
51.5842
 11
118.584
 21
51.9714
  0
LINE
  8
0
 10
118.584
 20
51.9714
 11
118.336
 21
52.4592
  0
LINE
  8
0
 10
118.336
 20
52.4592
 11
118.25
 21
53
  0
LINE
  8
0
 10
118.25
 20
53
 11
118.336
 21
53.5408
  0
LINE
  8
0
 10
118.336
 20
53.5408
 11
118.584
 21
54.0286
  0
LINE
  8
0
 10
118.584
 20
54.0286
 11
118.971
 21
54.4158
  0
LINE
  8
0
 10
118.971
 20
54.4158
 11
119.459
 21
54.6644
  0
LINE
  8
0
 10
119.459
 20
54.6644
 11
120
 21
54.75
  0
LINE
  8
0
 10
120
 20
54.75
 11
120.541
 21
54.6644
  0
LINE
  8
0
 10
120.541
 20
54.6644
 11
121.029
 21
54.4158
  0
LINE
  8
0
 10
121.029
 20
54.4158
 11
121.416
 21
54.0286
  0
LINE
  8
0
 10
121.416
 20
54.0286
 11
121.664
 21
53.5408
  0
LINE
  8
0
 10
121.664
 20
53.5408
 11
121.75
 21
53
  0
LINE
  8
0
 10
121.75
 20
53
 11
121.664
 21
52.4592
  0
LINE
  8
0
 10
121.664
 20
52.4592
 11
121.416
 21
51.9714
  0
LINE
  8
0
 10
121.416
 20
51.9714
 11
121.029
 21
51.5842
  0
LINE
  8
0
 10
121.029
 20
51.5842
 11
120.541
 21
51.3357
  0
LINE
  8
0
 10
120.541
 20
51.3357
 11
120
 21
51.25
  0
LINE
  8
0
 10
120
 20
51.25
 11
119.459
 21
51.3357
  0
LINE
  8
0
 10
17.4592
 20
51.3357
 11
16.9714
 21
51.5842
  0
LINE
  8
0
 10
16.9714
 20
51.5842
 11
16.5842
 21
51.9714
  0
LINE
  8
0
 10
16.5842
 20
51.9714
 11
16.3357
 21
52.4592
  0
LINE
  8
0
 10
16.3357
 20
52.4592
 11
16.25
 21
53
  0
LINE
  8
0
 10
16.25
 20
53
 11
16.3357
 21
53.5408
  0
LINE
  8
0
 10
16.3357
 20
53.5408
 11
16.5842
 21
54.0286
  0
LINE
  8
0
 10
16.5842
 20
54.0286
 11
16.9714
 21
54.4158
  0
LINE
  8
0
 10
16.9714
 20
54.4158
 11
17.4592
 21
54.6644
  0
LINE
  8
0
 10
17.4592
 20
54.6644
 11
18
 21
54.75
  0
LINE
  8
0
 10
18
 20
54.75
 11
18.5408
 21
54.6644
  0
LINE
  8
0
 10
18.5408
 20
54.6644
 11
19.0286
 21
54.4158
  0
LINE
  8
0
 10
19.0286
 20
54.4158
 11
19.4158
 21
54.0286
  0
LINE
  8
0
 10
19.4158
 20
54.0286
 11
19.6644
 21
53.5408
  0
LINE
  8
0
 10
19.6644
 20
53.5408
 11
19.75
 21
53
  0
LINE
  8
0
 10
19.75
 20
53
 11
19.6644
 21
52.4592
  0
LINE
  8
0
 10
19.6644
 20
52.4592
 11
19.4158
 21
51.9714
  0
LINE
  8
0
 10
19.4158
 20
51.9714
 11
19.0286
 21
51.5842
  0
LINE
  8
0
 10
19.0286
 20
51.5842
 11
18.5408
 21
51.3357
  0
LINE
  8
0
 10
18.5408
 20
51.3357
 11
18
 21
51.25
  0
LINE
  8
0
 10
18
 20
51.25
 11
17.4592
 21
51.3357
  0
LINE
  8
0
 10
75.375
 20
33.475
 11
75.375
 21
47.475
  0
LINE
  8
0
 10
75.375
 20
47.475
 11
89.375
 21
47.475
  0
LINE
  8
0
 10
89.375
 20
47.475
 11
89.375
 21
33.475
  0
LINE
  8
0
 10
89.375
 20
33.475
 11
75.375
 21
33.475
  0
LINE
  8
0
 10
94.425
 20
31.475
 11
94.425
 21
45.475
  0
LINE
  8
0
 10
94.425
 20
45.475
 11
108.425
 21
45.475
  0
LINE
  8
0
 10
108.425
 20
45.475
 11
108.425
 21
31.475
  0
LINE
  8
0
 10
108.425
 20
31.475
 11
94.425
 21
31.475
  0
LINE
  8
0
 10
56.325
 20
30.975
 11
56.325
 21
44.975
  0
LINE
  8
0
 10
56.325
 20
44.975
 11
70.325
 21
44.975
  0
LINE
  8
0
 10
70.325
 20
44.975
 11
70.325
 21
30.975
  0
LINE
  8
0
 10
70.325
 20
30.975
 11
56.325
 21
30.975
  0
LINE
  8
0
 10
37.275
 20
30.475
 11
37.275
 21
44.475
  0
LINE
  8
0
 10
37.275
 20
44.475
 11
51.275
 21
44.475
  0
LINE
  8
0
 10
51.275
 20
44.475
 11
51.275
 21
30.475
  0
LINE
  8
0
 10
51.275
 20
30.475
 11
37.275
 21
30.475
  0
LINE
  8
0
 10
113.475
 20
29.475
 11
113.475
 21
43.475
  0
LINE
  8
0
 10
113.475
 20
43.475
 11
127.475
 21
43.475
  0
LINE
  8
0
 10
127.475
 20
43.475
 11
127.475
 21
29.475
  0
LINE
  8
0
 10
127.475
 20
29.475
 11
113.475
 21
29.475
  0
LINE
  8
0
 10
19.5751
 20
31.8593
 11
19.1918
 21
32.0546
  0
LINE
  8
0
 10
19.1918
 20
32.0546
 11
18.8876
 21
32.3588
  0
LINE
  8
0
 10
18.8876
 20
32.3588
 11
18.6923
 21
32.7421
  0
LINE
  8
0
 10
18.6923
 20
32.7421
 11
18.625
 21
33.167
  0
LINE
  8
0
 10
18.625
 20
33.167
 11
18.6923
 21
33.5919
  0
LINE
  8
0
 10
18.6923
 20
33.5919
 11
18.8876
 21
33.9752
  0
LINE
  8
0
 10
18.8876
 20
33.9752
 11
19.1918
 21
34.2794
  0
LINE
  8
0
 10
19.1918
 20
34.2794
 11
19.5751
 21
34.4747
  0
LINE
  8
0
 10
19.5751
 20
34.4747
 11
20
 21
34.542
  0
LINE
  8
0
 10
20
 20
34.542
 11
20.4249
 21
34.4747
  0
LINE
  8
0
 10
20.4249
 20
34.4747
 11
20.8082
 21
34.2794
  0
LINE
  8
0
 10
20.8082
 20
34.2794
 11
21.1124
 21
33.9752
  0
LINE
  8
0
 10
21.1124
 20
33.9752
 11
21.3077
 21
33.5919
  0
LINE
  8
0
 10
21.3077
 20
33.5919
 11
21.375
 21
33.167
  0
LINE
  8
0
 10
21.375
 20
33.167
 11
21.3077
 21
32.7421
  0
LINE
  8
0
 10
21.3077
 20
32.7421
 11
21.1124
 21
32.3588
  0
LINE
  8
0
 10
21.1124
 20
32.3588
 11
20.8082
 21
32.0546
  0
LINE
  8
0
 10
20.8082
 20
32.0546
 11
20.4249
 21
31.8593
  0
LINE
  8
0
 10
20.4249
 20
31.8593
 11
20
 21
31.792
  0
LINE
  8
0
 10
20
 20
31.792
 11
19.5751
 21
31.8593
  0
LINE
  8
0
 10
27.9689
 20
17.0187
 11
27.619
 21
17.381
  0
LINE
  8
0
 10
27.619
 20
17.381
 11
26.7987
 21
19.3583
  0
LINE
  8
0
 10
26.7987
 20
19.3583
 11
25.8606
 21
20.4631
  0
LINE
  8
0
 10
25.8606
 20
20.4631
 11
26.8231
 21
21.1879
  0
LINE
  8
0
 10
26.8231
 20
21.1879
 11
27.3274
 21
21.7331
  0
LINE
  8
0
 10
27.3274
 20
21.7331
 11
27.8642
 21
22.7671
  0
LINE
  8
0
 10
27.8642
 20
22.7671
 11
28.0165
 21
23.6926
  0
LINE
  8
0
 10
28.0165
 20
23.6926
 11
27.9436
 21
24.4504
  0
LINE
  8
0
 10
27.9436
 20
24.4504
 11
27.3093
 21
25.8832
  0
LINE
  8
0
 10
27.3093
 20
25.8832
 11
26.2182
 21
26.9653
  0
LINE
  8
0
 10
26.2182
 20
26.9653
 11
25.1765
 21
27.5091
  0
LINE
  8
0
 10
25.1765
 20
27.5091
 11
24.2921
 21
27.7497
  0
LINE
  8
0
 10
24.2921
 20
27.7497
 11
17.8786
 21
27.7687
  0
LINE
  8
0
 10
17.8786
 20
27.7687
 11
11.4651
 21
27.7846
  0
LINE
  8
0
 10
11.4651
 20
27.7846
 11
13.2417
 21
29.3523
  0
LINE
  8
0
 10
13.2417
 20
29.3523
 11
16.2753
 21
30.9215
  0
LINE
  8
0
 10
16.2753
 20
30.9215
 11
17.8748
 21
31.2858
  0
LINE
  8
0
 10
17.8748
 20
31.2858
 11
19.4871
 21
29.7662
  0
LINE
  8
0
 10
19.4871
 20
29.7662
 11
19.8474
 21
29.6
  0
LINE
  8
0
 10
19.8474
 20
29.6
 11
20.3904
 21
29.6934
  0
LINE
  8
0
 10
20.3904
 20
29.6934
 11
22.1617
 21
31.3247
  0
LINE
  8
0
 10
22.1617
 20
31.3247
 11
25.3389
 21
30.2171
  0
LINE
  8
0
 10
25.3389
 20
30.2171
 11
27.5602
 21
28.7014
  0
LINE
  8
0
 10
27.5602
 20
28.7014
 11
29.1404
 21
27.0195
  0
LINE
  8
0
 10
29.1404
 20
27.0195
 11
30.1246
 21
25.5113
  0
LINE
  8
0
 10
30.1246
 20
25.5113
 11
29.0864
 21
23.4666
  0
LINE
  8
0
 10
29.0864
 20
23.4666
 11
29.1895
 21
22.8049
  0
LINE
  8
0
 10
29.1895
 20
22.8049
 11
29.8695
 21
22.2874
  0
LINE
  8
0
 10
29.8695
 20
22.2874
 11
31.4422
 21
21.4822
  0
LINE
  8
0
 10
31.4422
 20
21.4822
 11
31.4994
 21
19.0851
  0
LINE
  8
0
 10
31.4994
 20
19.0851
 11
30.1933
 21
19.0497
  0
LINE
  8
0
 10
30.1933
 20
19.0497
 11
30.1547
 21
17.9934
  0
LINE
  8
0
 10
30.1547
 20
17.9934
 11
29.878
 21
17.238
  0
LINE
  8
0
 10
29.878
 20
17.238
 11
29.4171
 21
16.8494
  0
LINE
  8
0
 10
29.4171
 20
16.8494
 11
28.6114
 21
16.7438
  0
LINE
  8
0
 10
28.6114
 20
16.7438
 11
27.9689
 21
17.0187
  0
LINE
  8
0
 10
75.375
 20
14.425
 11
75.375
 21
28.425
  0
LINE
  8
0
 10
75.375
 20
28.425
 11
89.375
 21
28.425
  0
LINE
  8
0
 10
89.375
 20
28.425
 11
89.375
 21
14.425
  0
LINE
  8
0
 10
89.375
 20
14.425
 11
75.375
 21
14.425
  0
LINE
  8
0
 10
94.425
 20
12.425
 11
94.425
 21
26.425
  0
LINE
  8
0
 10
94.425
 20
26.425
 11
108.425
 21
26.425
  0
LINE
  8
0
 10
108.425
 20
26.425
 11
108.425
 21
12.425
  0
LINE
  8
0
 10
108.425
 20
12.425
 11
94.425
 21
12.425
  0
LINE
  8
0
 10
56.325
 20
11.925
 11
56.325
 21
25.925
  0
LINE
  8
0
 10
56.325
 20
25.925
 11
70.325
 21
25.925
  0
LINE
  8
0
 10
70.325
 20
25.925
 11
70.325
 21
11.925
  0
LINE
  8
0
 10
70.325
 20
11.925
 11
56.325
 21
11.925
  0
LINE
  8
0
 10
7.05255
 20
22.7611
 11
6.66924
 21
22.9564
  0
LINE
  8
0
 10
6.66924
 20
22.9564
 11
6.36505
 21
23.2606
  0
LINE
  8
0
 10
6.36505
 20
23.2606
 11
6.16974
 21
23.6439
  0
LINE
  8
0
 10
6.16974
 20
23.6439
 11
6.10245
 21
24.0688
  0
LINE
  8
0
 10
6.10245
 20
24.0688
 11
6.16974
 21
24.4937
  0
LINE
  8
0
 10
6.16974
 20
24.4937
 11
6.36505
 21
24.877
  0
LINE
  8
0
 10
6.36505
 20
24.877
 11
6.66924
 21
25.1812
  0
LINE
  8
0
 10
6.66924
 20
25.1812
 11
7.05255
 21
25.3765
  0
LINE
  8
0
 10
7.05255
 20
25.3765
 11
7.47745
 21
25.4438
  0
LINE
  8
0
 10
7.47745
 20
25.4438
 11
7.90234
 21
25.3765
  0
LINE
  8
0
 10
7.90234
 20
25.3765
 11
8.28564
 21
25.1812
  0
LINE
  8
0
 10
8.28564
 20
25.1812
 11
8.58984
 21
24.877
  0
LINE
  8
0
 10
8.58984
 20
24.877
 11
8.78516
 21
24.4937
  0
LINE
  8
0
 10
8.78516
 20
24.4937
 11
8.85245
 21
24.0688
  0
LINE
  8
0
 10
8.85245
 20
24.0688
 11
8.78516
 21
23.6439
  0
LINE
  8
0
 10
8.78516
 20
23.6439
 11
8.58984
 21
23.2606
  0
LINE
  8
0
 10
8.58984
 20
23.2606
 11
8.28564
 21
22.9564
  0
LINE
  8
0
 10
8.28564
 20
22.9564
 11
7.90234
 21
22.7611
  0
LINE
  8
0
 10
7.90234
 20
22.7611
 11
7.47745
 21
22.6938
  0
LINE
  8
0
 10
7.47745
 20
22.6938
 11
7.05255
 21
22.7611
  0
LINE
  8
0
 10
32.0977
 20
22.7611
 11
31.7144
 21
22.9564
  0
LINE
  8
0
 10
31.7144
 20
22.9564
 11
31.4102
 21
23.2606
  0
LINE
  8
0
 10
31.4102
 20
23.2606
 11
31.2148
 21
23.6439
  0
LINE
  8
0
 10
31.2148
 20
23.6439
 11
31.1476
 21
24.0688
  0
LINE
  8
0
 10
31.1476
 20
24.0688
 11
31.2148
 21
24.4937
  0
LINE
  8
0
 10
31.2148
 20
24.4937
 11
31.4102
 21
24.877
  0
LINE
  8
0
 10
31.4102
 20
24.877
 11
31.7144
 21
25.1812
  0
LINE
  8
0
 10
31.7144
 20
25.1812
 11
32.0977
 21
25.3765
  0
LINE
  8
0
 10
32.0977
 20
25.3765
 11
32.5226
 21
25.4438
  0
LINE
  8
0
 10
32.5226
 20
25.4438
 11
32.9474
 21
25.3765
  0
LINE
  8
0
 10
32.9474
 20
25.3765
 11
33.3308
 21
25.1812
  0
LINE
  8
0
 10
33.3308
 20
25.1812
 11
33.6349
 21
24.877
  0
LINE
  8
0
 10
33.6349
 20
24.877
 11
33.8303
 21
24.4937
  0
LINE
  8
0
 10
33.8303
 20
24.4937
 11
33.8976
 21
24.0688
  0
LINE
  8
0
 10
33.8976
 20
24.0688
 11
33.8303
 21
23.6439
  0
LINE
  8
0
 10
33.8303
 20
23.6439
 11
33.6349
 21
23.2606
  0
LINE
  8
0
 10
33.6349
 20
23.2606
 11
33.3308
 21
22.9564
  0
LINE
  8
0
 10
33.3308
 20
22.9564
 11
32.9474
 21
22.7611
  0
LINE
  8
0
 10
32.9474
 20
22.7611
 11
32.5226
 21
22.6938
  0
LINE
  8
0
 10
32.5226
 20
22.6938
 11
32.0977
 21
22.7611
  0
LINE
  8
0
 10
37.275
 20
11.425
 11
37.275
 21
25.425
  0
LINE
  8
0
 10
37.275
 20
25.425
 11
51.275
 21
25.425
  0
LINE
  8
0
 10
51.275
 20
25.425
 11
51.275
 21
11.425
  0
LINE
  8
0
 10
51.275
 20
11.425
 11
37.275
 21
11.425
  0
LINE
  8
0
 10
113.475
 20
10.425
 11
113.475
 21
24.425
  0
LINE
  8
0
 10
113.475
 20
24.425
 11
127.475
 21
24.425
  0
LINE
  8
0
 10
127.475
 20
24.425
 11
127.475
 21
10.425
  0
LINE
  8
0
 10
127.475
 20
10.425
 11
113.475
 21
10.425
  0
LINE
  8
0
 10
17.577
 20
24.181
 11
20.1071
 21
24.1807
  0
LINE
  8
0
 10
20.1071
 20
24.1807
 11
21.8198
 21
24.1487
  0
LINE
  8
0
 10
21.8198
 20
24.1487
 11
22.4547
 21
23.9407
  0
LINE
  8
0
 10
22.4547
 20
23.9407
 11
22.6844
 21
23.7754
  0
LINE
  8
0
 10
22.6844
 20
23.7754
 11
22.9407
 21
23.401
  0
LINE
  8
0
 10
22.9407
 20
23.401
 11
22.9913
 21
23.0591
  0
LINE
  8
0
 10
22.9913
 20
23.0591
 11
22.8573
 21
22.6997
  0
LINE
  8
0
 10
22.8573
 20
22.6997
 11
22.548
 21
22.392
  0
LINE
  8
0
 10
22.548
 20
22.392
 11
21.8791
 21
22.1014
  0
LINE
  8
0
 10
21.8791
 20
22.1014
 11
17.577
 21
22.0823
  0
LINE
  8
0
 10
17.577
 20
22.0823
 11
17.577
 21
24.181
  0
LINE
  8
0
 10
8.53806
 20
18.5311
 11
8.53778
 21
21.4822
  0
LINE
  8
0
 10
8.53778
 20
21.4822
 11
10.3042
 21
22.388
  0
LINE
  8
0
 10
10.3042
 20
22.388
 11
10.8683
 21
22.9688
  0
LINE
  8
0
 10
10.8683
 20
22.9688
 11
10.858
 21
23.5081
  0
LINE
  8
0
 10
10.858
 20
23.5081
 11
10.5285
 21
24.181
  0
LINE
  8
0
 10
10.5285
 20
24.181
 11
12.5287
 21
24.181
  0
LINE
  8
0
 10
12.5287
 20
24.181
 11
12.5129
 21
16.7039
  0
LINE
  8
0
 10
12.5129
 20
16.7039
 11
10.7127
 21
16.6944
  0
LINE
  8
0
 10
10.7127
 20
16.6944
 11
8.9156
 21
16.688
  0
LINE
  8
0
 10
8.9156
 20
16.688
 11
8.53806
 21
18.5311
  0
LINE
  8
0
 10
15.0548
 20
9.57446
 11
14.6295
 21
11.856
  0
LINE
  8
0
 10
14.6295
 20
11.856
 11
14.3602
 21
12.2151
  0
LINE
  8
0
 10
14.3602
 20
12.2151
 11
13.9035
 21
12.3873
  0
LINE
  8
0
 10
13.9035
 20
12.3873
 11
11.6239
 21
12.0525
  0
LINE
  8
0
 10
11.6239
 20
12.0525
 11
10.7543
 21
13.0723
  0
LINE
  8
0
 10
10.7543
 20
13.0723
 11
10.7508
 21
13.0812
  0
LINE
  8
0
 10
10.7508
 20
13.0812
 11
11.4594
 21
13.0908
  0
LINE
  8
0
 10
11.4594
 20
13.0908
 11
20.2473
 21
13.1424
  0
LINE
  8
0
 10
20.2473
 20
13.1424
 11
20.2578
 21
16.6618
  0
LINE
  8
0
 10
20.2578
 20
16.6618
 11
17.577
 21
16.688
  0
LINE
  8
0
 10
17.577
 20
16.688
 11
17.5992
 21
18.7962
  0
LINE
  8
0
 10
17.5992
 20
18.7962
 11
20.962
 21
18.7491
  0
LINE
  8
0
 10
20.962
 20
18.7491
 11
21.6621
 21
18.3604
  0
LINE
  8
0
 10
21.6621
 20
18.3604
 11
22.1574
 21
17.6445
  0
LINE
  8
0
 10
22.1574
 20
17.6445
 11
23.0278
 21
14.4423
  0
LINE
  8
0
 10
23.0278
 20
14.4423
 11
23.724
 21
13.3966
  0
LINE
  8
0
 10
23.724
 20
13.3966
 11
24.3239
 21
13.1161
  0
LINE
  8
0
 10
24.3239
 20
13.1161
 11
29.2292
 21
13.0749
  0
LINE
  8
0
 10
29.2292
 20
13.0749
 11
28.3561
 21
12.0557
  0
LINE
  8
0
 10
28.3561
 20
12.0557
 11
27.1709
 21
12.2474
  0
LINE
  8
0
 10
27.1709
 20
12.2474
 11
26.0922
 21
12.3878
  0
LINE
  8
0
 10
26.0922
 20
12.3878
 11
25.3137
 21
11.7251
  0
LINE
  8
0
 10
25.3137
 20
11.7251
 11
24.9335
 21
9.55696
  0
LINE
  8
0
 10
24.9335
 20
9.55696
 11
24.9227
 21
9.54964
  0
LINE
  8
0
 10
24.9227
 20
9.54964
 11
22.1009
 21
8.64394
  0
LINE
  8
0
 10
22.1009
 20
8.64394
 11
18.3134
 21
8.57306
  0
LINE
  8
0
 10
18.3134
 20
8.57306
 11
15.0548
 21
9.57446
  0
LINE
  8
0
 10
27.3145
 20
8.03998
 11
26.9312
 21
8.23528
  0
LINE
  8
0
 10
26.9312
 20
8.23528
 11
26.627
 21
8.53947
  0
LINE
  8
0
 10
26.627
 20
8.53947
 11
26.4317
 21
8.92278
  0
LINE
  8
0
 10
26.4317
 20
8.92278
 11
26.3644
 21
9.34769
  0
LINE
  8
0
 10
26.3644
 20
9.34769
 11
26.4317
 21
9.77258
  0
LINE
  8
0
 10
26.4317
 20
9.77258
 11
26.627
 21
10.1559
  0
LINE
  8
0
 10
26.627
 20
10.1559
 11
26.9312
 21
10.4601
  0
LINE
  8
0
 10
26.9312
 20
10.4601
 11
27.3145
 21
10.6554
  0
LINE
  8
0
 10
27.3145
 20
10.6554
 11
27.7394
 21
10.7227
  0
LINE
  8
0
 10
27.7394
 20
10.7227
 11
28.1643
 21
10.6554
  0
LINE
  8
0
 10
28.1643
 20
10.6554
 11
28.5476
 21
10.4601
  0
LINE
  8
0
 10
28.5476
 20
10.4601
 11
28.8518
 21
10.1559
  0
LINE
  8
0
 10
28.8518
 20
10.1559
 11
29.0471
 21
9.77258
  0
LINE
  8
0
 10
29.0471
 20
9.77258
 11
29.1144
 21
9.34769
  0
LINE
  8
0
 10
29.1144
 20
9.34769
 11
29.0471
 21
8.92278
  0
LINE
  8
0
 10
29.0471
 20
8.92278
 11
28.8518
 21
8.53947
  0
LINE
  8
0
 10
28.8518
 20
8.53947
 11
28.5476
 21
8.23528
  0
LINE
  8
0
 10
28.5476
 20
8.23528
 11
28.1643
 21
8.03998
  0
LINE
  8
0
 10
28.1643
 20
8.03998
 11
27.7394
 21
7.97269
  0
LINE
  8
0
 10
27.7394
 20
7.97269
 11
27.3145
 21
8.03998
  0
LINE
  8
0
 10
11.8357
 20
8.03998
 11
11.4524
 21
8.23528
  0
LINE
  8
0
 10
11.4524
 20
8.23528
 11
11.1482
 21
8.53947
  0
LINE
  8
0
 10
11.1482
 20
8.53947
 11
10.9529
 21
8.92278
  0
LINE
  8
0
 10
10.9529
 20
8.92278
 11
10.8856
 21
9.34769
  0
LINE
  8
0
 10
10.8856
 20
9.34769
 11
10.9529
 21
9.77258
  0
LINE
  8
0
 10
10.9529
 20
9.77258
 11
11.1482
 21
10.1559
  0
LINE
  8
0
 10
11.1482
 20
10.1559
 11
11.4524
 21
10.4601
  0
LINE
  8
0
 10
11.4524
 20
10.4601
 11
11.8357
 21
10.6554
  0
LINE
  8
0
 10
11.8357
 20
10.6554
 11
12.2606
 21
10.7227
  0
LINE
  8
0
 10
12.2606
 20
10.7227
 11
12.6855
 21
10.6554
  0
LINE
  8
0
 10
12.6855
 20
10.6554
 11
13.0688
 21
10.4601
  0
LINE
  8
0
 10
13.0688
 20
10.4601
 11
13.373
 21
10.1559
  0
LINE
  8
0
 10
13.373
 20
10.1559
 11
13.5683
 21
9.77258
  0
LINE
  8
0
 10
13.5683
 20
9.77258
 11
13.6356
 21
9.34769
  0
LINE
  8
0
 10
13.6356
 20
9.34769
 11
13.5683
 21
8.92278
  0
LINE
  8
0
 10
13.5683
 20
8.92278
 11
13.373
 21
8.53947
  0
LINE
  8
0
 10
13.373
 20
8.53947
 11
13.0688
 21
8.23528
  0
LINE
  8
0
 10
13.0688
 20
8.23528
 11
12.6855
 21
8.03998
  0
LINE
  8
0
 10
12.6855
 20
8.03998
 11
12.2606
 21
7.97269
  0
LINE
  8
0
 10
12.2606
 20
7.97269
 11
11.8357
 21
8.03998
  0
LINE
  8
0
 10
75.375
 20
-4.62498
 11
75.375
 21
9.37502
  0
LINE
  8
0
 10
75.375
 20
9.37502
 11
89.375
 21
9.37502
  0
LINE
  8
0
 10
89.375
 20
9.37502
 11
89.375
 21
-4.62498
  0
LINE
  8
0
 10
89.375
 20
-4.62498
 11
75.375
 21
-4.62498
  0
LINE
  8
0
 10
94.425
 20
-6.62498
 11
94.425
 21
7.37502
  0
LINE
  8
0
 10
94.425
 20
7.37502
 11
108.425
 21
7.37502
  0
LINE
  8
0
 10
108.425
 20
7.37502
 11
108.425
 21
-6.62498
  0
LINE
  8
0
 10
108.425
 20
-6.62498
 11
94.425
 21
-6.62498
  0
LINE
  8
0
 10
56.325
 20
-7.12498
 11
56.325
 21
6.87502
  0
LINE
  8
0
 10
56.325
 20
6.87502
 11
70.325
 21
6.87502
  0
LINE
  8
0
 10
70.325
 20
6.87502
 11
70.325
 21
-7.12498
  0
LINE
  8
0
 10
70.325
 20
-7.12498
 11
56.325
 21
-7.12498
  0
LINE
  8
0
 10
37.275
 20
-7.62498
 11
37.275
 21
6.37502
  0
LINE
  8
0
 10
37.275
 20
6.37502
 11
51.275
 21
6.37502
  0
LINE
  8
0
 10
51.275
 20
6.37502
 11
51.275
 21
-7.62498
  0
LINE
  8
0
 10
51.275
 20
-7.62498
 11
37.275
 21
-7.62498
  0
LINE
  8
0
 10
113.475
 20
-8.62498
 11
113.475
 21
5.37502
  0
LINE
  8
0
 10
113.475
 20
5.37502
 11
127.475
 21
5.37502
  0
LINE
  8
0
 10
127.475
 20
5.37502
 11
127.475
 21
-8.62498
  0
LINE
  8
0
 10
127.475
 20
-8.62498
 11
113.475
 21
-8.62498
  0
LINE
  8
0
 10
113.003
 20
-30.1334
 11
110.773
 21
-28.9971
  0
LINE
  8
0
 10
110.773
 20
-28.9971
 11
109.003
 21
-27.2273
  0
LINE
  8
0
 10
109.003
 20
-27.2273
 11
107.867
 21
-24.9971
  0
LINE
  8
0
 10
107.867
 20
-24.9971
 11
107.475
 21
-22.525
  0
LINE
  8
0
 10
107.475
 20
-22.525
 11
107.867
 21
-20.0529
  0
LINE
  8
0
 10
107.867
 20
-20.0529
 11
109.003
 21
-17.8227
  0
LINE
  8
0
 10
109.003
 20
-17.8227
 11
110.773
 21
-16.0529
  0
LINE
  8
0
 10
110.773
 20
-16.0529
 11
113.003
 21
-14.9165
  0
LINE
  8
0
 10
113.003
 20
-14.9165
 11
115.475
 21
-14.525
  0
LINE
  8
0
 10
115.475
 20
-14.525
 11
117.947
 21
-14.9165
  0
LINE
  8
0
 10
117.947
 20
-14.9165
 11
120.177
 21
-16.0529
  0
LINE
  8
0
 10
120.177
 20
-16.0529
 11
121.947
 21
-17.8227
  0
LINE
  8
0
 10
121.947
 20
-17.8227
 11
123.083
 21
-20.0529
  0
LINE
  8
0
 10
123.083
 20
-20.0529
 11
123.475
 21
-22.525
  0
LINE
  8
0
 10
123.475
 20
-22.525
 11
123.083
 21
-24.9971
  0
LINE
  8
0
 10
123.083
 20
-24.9971
 11
121.947
 21
-27.2273
  0
LINE
  8
0
 10
121.947
 20
-27.2273
 11
120.177
 21
-28.9971
  0
LINE
  8
0
 10
120.177
 20
-28.9971
 11
117.947
 21
-30.1334
  0
LINE
  8
0
 10
117.947
 20
-30.1334
 11
115.475
 21
-30.525
  0
LINE
  8
0
 10
115.475
 20
-30.525
 11
113.003
 21
-30.1334
  0
LINE
  8
0
 10
57.675
 20
-29.525
 11
57.675
 21
-15.525
  0
LINE
  8
0
 10
57.675
 20
-15.525
 11
71.675
 21
-15.525
  0
LINE
  8
0
 10
71.675
 20
-15.525
 11
71.675
 21
-29.525
  0
LINE
  8
0
 10
71.675
 20
-29.525
 11
57.675
 21
-29.525
  0
LINE
  8
0
 10
33.8061
 20
-22.5323
 11
46.8791
 21
-17.5227
  0
LINE
  8
0
 10
46.8791
 20
-17.5227
 11
51.8887
 21
-30.5957
  0
LINE
  8
0
 10
51.8887
 20
-30.5957
 11
38.8157
 21
-35.6053
  0
LINE
  8
0
 10
38.8157
 20
-35.6053
 11
33.8061
 21
-22.5323
  0
LINE
  8
0
 10
82
 20
-26.275
 11
82
 21
-18.775
  0
LINE
  8
0
 10
82
 20
-18.775
 11
98
 21
-18.775
  0
LINE
  8
0
 10
98
 20
-18.775
 11
98
 21
-26.275
  0
LINE
  8
0
 10
98
 20
-26.275
 11
82
 21
-26.275
  0
LINE
  8
0
 10
99.1137
 20
-23.7138
 11
98.7653
 21
-23.5363
  0
LINE
  8
0
 10
98.7653
 20
-23.5363
 11
98.4887
 21
-23.2597
  0
LINE
  8
0
 10
98.4887
 20
-23.2597
 11
98.3112
 21
-22.9113
  0
LINE
  8
0
 10
98.3112
 20
-22.9113
 11
98.25
 21
-22.525
  0
LINE
  8
0
 10
98.25
 20
-22.525
 11
98.3112
 21
-22.1387
  0
LINE
  8
0
 10
98.3112
 20
-22.1387
 11
98.4887
 21
-21.7903
  0
LINE
  8
0
 10
98.4887
 20
-21.7903
 11
98.7653
 21
-21.5137
  0
LINE
  8
0
 10
98.7653
 20
-21.5137
 11
99.1137
 21
-21.3362
  0
LINE
  8
0
 10
99.1137
 20
-21.3362
 11
99.5
 21
-21.275
  0
LINE
  8
0
 10
99.5
 20
-21.275
 11
99.8863
 21
-21.3362
  0
LINE
  8
0
 10
99.8863
 20
-21.3362
 11
100.235
 21
-21.5137
  0
LINE
  8
0
 10
100.235
 20
-21.5137
 11
100.511
 21
-21.7903
  0
LINE
  8
0
 10
100.511
 20
-21.7903
 11
100.689
 21
-22.1387
  0
LINE
  8
0
 10
100.689
 20
-22.1387
 11
100.75
 21
-22.525
  0
LINE
  8
0
 10
100.75
 20
-22.525
 11
100.689
 21
-22.9113
  0
LINE
  8
0
 10
100.689
 20
-22.9113
 11
100.511
 21
-23.2597
  0
LINE
  8
0
 10
100.511
 20
-23.2597
 11
100.235
 21
-23.5363
  0
LINE
  8
0
 10
100.235
 20
-23.5363
 11
99.8863
 21
-23.7138
  0
LINE
  8
0
 10
99.8863
 20
-23.7138
 11
99.5
 21
-23.775
  0
LINE
  8
0
 10
99.5
 20
-23.775
 11
99.1137
 21
-23.7138
  0
LINE
  8
0
 10
80.1137
 20
-23.7138
 11
79.7653
 21
-23.5363
  0
LINE
  8
0
 10
79.7653
 20
-23.5363
 11
79.4887
 21
-23.2597
  0
LINE
  8
0
 10
79.4887
 20
-23.2597
 11
79.3112
 21
-22.9113
  0
LINE
  8
0
 10
79.3112
 20
-22.9113
 11
79.25
 21
-22.525
  0
LINE
  8
0
 10
79.25
 20
-22.525
 11
79.3112
 21
-22.1387
  0
LINE
  8
0
 10
79.3112
 20
-22.1387
 11
79.4887
 21
-21.7903
  0
LINE
  8
0
 10
79.4887
 20
-21.7903
 11
79.7653
 21
-21.5137
  0
LINE
  8
0
 10
79.7653
 20
-21.5137
 11
80.1137
 21
-21.3362
  0
LINE
  8
0
 10
80.1137
 20
-21.3362
 11
80.5
 21
-21.275
  0
LINE
  8
0
 10
80.5
 20
-21.275
 11
80.8863
 21
-21.3362
  0
LINE
  8
0
 10
80.8863
 20
-21.3362
 11
81.2347
 21
-21.5137
  0
LINE
  8
0
 10
81.2347
 20
-21.5137
 11
81.5113
 21
-21.7903
  0
LINE
  8
0
 10
81.5113
 20
-21.7903
 11
81.6888
 21
-22.1387
  0
LINE
  8
0
 10
81.6888
 20
-22.1387
 11
81.75
 21
-22.525
  0
LINE
  8
0
 10
81.75
 20
-22.525
 11
81.6888
 21
-22.9113
  0
LINE
  8
0
 10
81.6888
 20
-22.9113
 11
81.5113
 21
-23.2597
  0
LINE
  8
0
 10
81.5113
 20
-23.2597
 11
81.2347
 21
-23.5363
  0
LINE
  8
0
 10
81.2347
 20
-23.5363
 11
80.8863
 21
-23.7138
  0
LINE
  8
0
 10
80.8863
 20
-23.7138
 11
80.5
 21
-23.775
  0
LINE
  8
0
 10
80.5
 20
-23.775
 11
80.1137
 21
-23.7138
  0
LINE
  8
0
 10
14.025
 20
-37.6167
 11
24.4398
 21
-28.2608
  0
LINE
  8
0
 10
24.4398
 20
-28.2608
 11
33.7956
 21
-38.6756
  0
LINE
  8
0
 10
33.7956
 20
-38.6756
 11
23.3808
 21
-48.0315
  0
LINE
  8
0
 10
23.3808
 20
-48.0315
 11
14.025
 21
-37.6167
  0
LINE
  8
0
 10
52.4592
 20
-41.6643
 11
51.9714
 21
-41.4158
  0
LINE
  8
0
 10
51.9714
 20
-41.4158
 11
51.5842
 21
-41.0286
  0
LINE
  8
0
 10
51.5842
 20
-41.0286
 11
51.3357
 21
-40.5408
  0
LINE
  8
0
 10
51.3357
 20
-40.5408
 11
51.25
 21
-40
  0
LINE
  8
0
 10
51.25
 20
-40
 11
51.3357
 21
-39.4592
  0
LINE
  8
0
 10
51.3357
 20
-39.4592
 11
51.5842
 21
-38.9714
  0
LINE
  8
0
 10
51.5842
 20
-38.9714
 11
51.9714
 21
-38.5842
  0
LINE
  8
0
 10
51.9714
 20
-38.5842
 11
52.4592
 21
-38.3356
  0
LINE
  8
0
 10
52.4592
 20
-38.3356
 11
53
 21
-38.25
  0
LINE
  8
0
 10
53
 20
-38.25
 11
53.5408
 21
-38.3356
  0
LINE
  8
0
 10
53.5408
 20
-38.3356
 11
54.0286
 21
-38.5842
  0
LINE
  8
0
 10
54.0286
 20
-38.5842
 11
54.4158
 21
-38.9714
  0
LINE
  8
0
 10
54.4158
 20
-38.9714
 11
54.6644
 21
-39.4592
  0
LINE
  8
0
 10
54.6644
 20
-39.4592
 11
54.75
 21
-40
  0
LINE
  8
0
 10
54.75
 20
-40
 11
54.6644
 21
-40.5408
  0
LINE
  8
0
 10
54.6644
 20
-40.5408
 11
54.4158
 21
-41.0286
  0
LINE
  8
0
 10
54.4158
 20
-41.0286
 11
54.0286
 21
-41.4158
  0
LINE
  8
0
 10
54.0286
 20
-41.4158
 11
53.5408
 21
-41.6643
  0
LINE
  8
0
 10
53.5408
 20
-41.6643
 11
53
 21
-41.75
  0
LINE
  8
0
 10
53
 20
-41.75
 11
52.4592
 21
-41.6643
  0
LINE
  8
0
 10
119.459
 20
-41.6643
 11
118.971
 21
-41.4158
  0
LINE
  8
0
 10
118.971
 20
-41.4158
 11
118.584
 21
-41.0286
  0
LINE
  8
0
 10
118.584
 20
-41.0286
 11
118.336
 21
-40.5408
  0
LINE
  8
0
 10
118.336
 20
-40.5408
 11
118.25
 21
-40
  0
LINE
  8
0
 10
118.25
 20
-40
 11
118.336
 21
-39.4592
  0
LINE
  8
0
 10
118.336
 20
-39.4592
 11
118.584
 21
-38.9714
  0
LINE
  8
0
 10
118.584
 20
-38.9714
 11
118.971
 21
-38.5842
  0
LINE
  8
0
 10
118.971
 20
-38.5842
 11
119.459
 21
-38.3356
  0
LINE
  8
0
 10
119.459
 20
-38.3356
 11
120
 21
-38.25
  0
LINE
  8
0
 10
120
 20
-38.25
 11
120.541
 21
-38.3356
  0
LINE
  8
0
 10
120.541
 20
-38.3356
 11
121.029
 21
-38.5842
  0
LINE
  8
0
 10
121.029
 20
-38.5842
 11
121.416
 21
-38.9714
  0
LINE
  8
0
 10
121.416
 20
-38.9714
 11
121.664
 21
-39.4592
  0
LINE
  8
0
 10
121.664
 20
-39.4592
 11
121.75
 21
-40
  0
LINE
  8
0
 10
121.75
 20
-40
 11
121.664
 21
-40.5408
  0
LINE
  8
0
 10
121.664
 20
-40.5408
 11
121.416
 21
-41.0286
  0
LINE
  8
0
 10
121.416
 20
-41.0286
 11
121.029
 21
-41.4158
  0
LINE
  8
0
 10
121.029
 20
-41.4158
 11
120.541
 21
-41.6643
  0
LINE
  8
0
 10
120.541
 20
-41.6643
 11
120
 21
-41.75
  0
LINE
  8
0
 10
120
 20
-41.75
 11
119.459
 21
-41.6643
  0
LINE
  8
0
 10
-41.0994
 20
-61.3763
 11
-38.1799
 21
-60.2518
  0
LINE
  8
0
 10
-38.1799
 20
-60.2518
 11
-35.7507
 21
-58.28
  0
LINE
  8
0
 10
-35.7507
 20
-58.28
 11
-25.6176
 21
-47
  0
LINE
  8
0
 10
-25.6176
 20
-47
 11
-13
 21
-47
  0
LINE
  8
0
 10
-13
 20
-47
 11
-10.5279
 21
-46.6085
  0
LINE
  8
0
 10
-10.5279
 20
-46.6085
 11
-8.29771
 21
-45.4721
  0
LINE
  8
0
 10
-8.29771
 20
-45.4721
 11
-6.52786
 21
-43.7023
  0
LINE
  8
0
 10
-6.52786
 20
-43.7023
 11
-5.39154
 21
-41.4721
  0
LINE
  8
0
 10
-5.39154
 20
-41.4721
 11
-5
 21
-39
  0
LINE
  8
0
 10
-5
 20
-39
 11
-5
 21
52
  0
LINE
  8
0
 10
-5
 20
52
 11
-5.39154
 21
54.4721
  0
LINE
  8
0
 10
-5.39154
 20
54.4721
 11
-6.52786
 21
56.7023
  0
LINE
  8
0
 10
-6.52786
 20
56.7023
 11
-8.29771
 21
58.4721
  0
LINE
  8
0
 10
-8.29771
 20
58.4721
 11
-10.5279
 21
59.6085
  0
LINE
  8
0
 10
-10.5279
 20
59.6085
 11
-13
 21
60
  0
LINE
  8
0
 10
-13
 20
60
 11
-152
 21
60
  0
LINE
  8
0
 10
-152
 20
60
 11
-154.472
 21
59.6085
  0
LINE
  8
0
 10
-154.472
 20
59.6085
 11
-156.702
 21
58.4721
  0
LINE
  8
0
 10
-156.702
 20
58.4721
 11
-158.472
 21
56.7023
  0
LINE
  8
0
 10
-158.472
 20
56.7023
 11
-159.608
 21
54.4721
  0
LINE
  8
0
 10
-159.608
 20
54.4721
 11
-160
 21
52
  0
LINE
  8
0
 10
-160
 20
52
 11
-160
 21
-39
  0
LINE
  8
0
 10
-160
 20
-39
 11
-159.608
 21
-41.4721
  0
LINE
  8
0
 10
-159.608
 20
-41.4721
 11
-158.472
 21
-43.7023
  0
LINE
  8
0
 10
-158.472
 20
-43.7023
 11
-156.702
 21
-45.4721
  0
LINE
  8
0
 10
-156.702
 20
-45.4721
 11
-154.472
 21
-46.6085
  0
LINE
  8
0
 10
-154.472
 20
-46.6085
 11
-152
 21
-47
  0
LINE
  8
0
 10
-152
 20
-47
 11
-64.083
 21
-47
  0
LINE
  8
0
 10
-64.083
 20
-47
 11
-62.6676
 21
-47.5424
  0
LINE
  8
0
 10
-62.6676
 20
-47.5424
 11
-49.8726
 21
-59.0364
  0
LINE
  8
0
 10
-49.8726
 20
-59.0364
 11
-47.2467
 21
-60.7374
  0
LINE
  8
0
 10
-47.2467
 20
-60.7374
 11
-44.2236
 21
-61.5437
  0
LINE
  8
0
 10
-44.2236
 20
-61.5437
 11
-41.0994
 21
-61.3763
  0
LINE
  8
0
 10
-140.541
 20
51.3357
 11
-141.029
 21
51.5842
  0
LINE
  8
0
 10
-141.029
 20
51.5842
 11
-141.416
 21
51.9714
  0
LINE
  8
0
 10
-141.416
 20
51.9714
 11
-141.664
 21
52.4592
  0
LINE
  8
0
 10
-141.664
 20
52.4592
 11
-141.75
 21
53
  0
LINE
  8
0
 10
-141.75
 20
53
 11
-141.664
 21
53.5408
  0
LINE
  8
0
 10
-141.664
 20
53.5408
 11
-141.416
 21
54.0286
  0
LINE
  8
0
 10
-141.416
 20
54.0286
 11
-141.029
 21
54.4158
  0
LINE
  8
0
 10
-141.029
 20
54.4158
 11
-140.541
 21
54.6644
  0
LINE
  8
0
 10
-140.541
 20
54.6644
 11
-140
 21
54.75
  0
LINE
  8
0
 10
-140
 20
54.75
 11
-139.459
 21
54.6644
  0
LINE
  8
0
 10
-139.459
 20
54.6644
 11
-138.971
 21
54.4158
  0
LINE
  8
0
 10
-138.971
 20
54.4158
 11
-138.584
 21
54.0286
  0
LINE
  8
0
 10
-138.584
 20
54.0286
 11
-138.336
 21
53.5408
  0
LINE
  8
0
 10
-138.336
 20
53.5408
 11
-138.25
 21
53
  0
LINE
  8
0
 10
-138.25
 20
53
 11
-138.336
 21
52.4592
  0
LINE
  8
0
 10
-138.336
 20
52.4592
 11
-138.584
 21
51.9714
  0
LINE
  8
0
 10
-138.584
 20
51.9714
 11
-138.971
 21
51.5842
  0
LINE
  8
0
 10
-138.971
 20
51.5842
 11
-139.459
 21
51.3357
  0
LINE
  8
0
 10
-139.459
 20
51.3357
 11
-140
 21
51.25
  0
LINE
  8
0
 10
-140
 20
51.25
 11
-140.541
 21
51.3357
  0
LINE
  8
0
 10
-20.5408
 20
51.3357
 11
-21.0286
 21
51.5842
  0
LINE
  8
0
 10
-21.0286
 20
51.5842
 11
-21.4158
 21
51.9714
  0
LINE
  8
0
 10
-21.4158
 20
51.9714
 11
-21.6644
 21
52.4592
  0
LINE
  8
0
 10
-21.6644
 20
52.4592
 11
-21.75
 21
53
  0
LINE
  8
0
 10
-21.75
 20
53
 11
-21.6644
 21
53.5408
  0
LINE
  8
0
 10
-21.6644
 20
53.5408
 11
-21.4158
 21
54.0286
  0
LINE
  8
0
 10
-21.4158
 20
54.0286
 11
-21.0286
 21
54.4158
  0
LINE
  8
0
 10
-21.0286
 20
54.4158
 11
-20.5408
 21
54.6644
  0
LINE
  8
0
 10
-20.5408
 20
54.6644
 11
-20
 21
54.75
  0
LINE
  8
0
 10
-20
 20
54.75
 11
-19.4592
 21
54.6644
  0
LINE
  8
0
 10
-19.4592
 20
54.6644
 11
-18.9714
 21
54.4158
  0
LINE
  8
0
 10
-18.9714
 20
54.4158
 11
-18.5842
 21
54.0286
  0
LINE
  8
0
 10
-18.5842
 20
54.0286
 11
-18.3357
 21
53.5408
  0
LINE
  8
0
 10
-18.3357
 20
53.5408
 11
-18.25
 21
53
  0
LINE
  8
0
 10
-18.25
 20
53
 11
-18.3357
 21
52.4592
  0
LINE
  8
0
 10
-18.3357
 20
52.4592
 11
-18.5842
 21
51.9714
  0
LINE
  8
0
 10
-18.5842
 20
51.9714
 11
-18.9714
 21
51.5842
  0
LINE
  8
0
 10
-18.9714
 20
51.5842
 11
-19.4592
 21
51.3357
  0
LINE
  8
0
 10
-19.4592
 20
51.3357
 11
-20
 21
51.25
  0
LINE
  8
0
 10
-20
 20
51.25
 11
-20.5408
 21
51.3357
  0
LINE
  8
0
 10
-109.375
 20
33.475
 11
-109.375
 21
47.475
  0
LINE
  8
0
 10
-109.375
 20
47.475
 11
-95.375
 21
47.475
  0
LINE
  8
0
 10
-95.375
 20
47.475
 11
-95.375
 21
33.475
  0
LINE
  8
0
 10
-95.375
 20
33.475
 11
-109.375
 21
33.475
  0
LINE
  8
0
 10
-128.425
 20
31.475
 11
-128.425
 21
45.475
  0
LINE
  8
0
 10
-128.425
 20
45.475
 11
-114.425
 21
45.475
  0
LINE
  8
0
 10
-114.425
 20
45.475
 11
-114.425
 21
31.475
  0
LINE
  8
0
 10
-114.425
 20
31.475
 11
-128.425
 21
31.475
  0
LINE
  8
0
 10
-90.325
 20
30.975
 11
-90.325
 21
44.975
  0
LINE
  8
0
 10
-90.325
 20
44.975
 11
-76.325
 21
44.975
  0
LINE
  8
0
 10
-76.325
 20
44.975
 11
-76.325
 21
30.975
  0
LINE
  8
0
 10
-76.325
 20
30.975
 11
-90.325
 21
30.975
  0
LINE
  8
0
 10
-71.275
 20
30.475
 11
-71.275
 21
44.475
  0
LINE
  8
0
 10
-71.275
 20
44.475
 11
-57.275
 21
44.475
  0
LINE
  8
0
 10
-57.275
 20
44.475
 11
-57.275
 21
30.475
  0
LINE
  8
0
 10
-57.275
 20
30.475
 11
-71.275
 21
30.475
  0
LINE
  8
0
 10
-147.475
 20
29.475
 11
-147.475
 21
43.475
  0
LINE
  8
0
 10
-147.475
 20
43.475
 11
-133.475
 21
43.475
  0
LINE
  8
0
 10
-133.475
 20
43.475
 11
-133.475
 21
29.475
  0
LINE
  8
0
 10
-133.475
 20
29.475
 11
-147.475
 21
29.475
  0
LINE
  8
0
 10
-19.3408
 20
32.0356
 11
-20.2158
 21
32.6714
  0
LINE
  8
0
 10
-20.2158
 20
32.6714
 11
-20.55
 21
33.7
  0
LINE
  8
0
 10
-20.55
 20
33.7
 11
-20.2158
 21
34.7286
  0
LINE
  8
0
 10
-20.2158
 20
34.7286
 11
-19.3408
 21
35.3643
  0
LINE
  8
0
 10
-19.3408
 20
35.3643
 11
-18.2592
 21
35.3643
  0
LINE
  8
0
 10
-18.2592
 20
35.3643
 11
-17.3842
 21
34.7286
  0
LINE
  8
0
 10
-17.3842
 20
34.7286
 11
-17.05
 21
33.7
  0
LINE
  8
0
 10
-17.05
 20
33.7
 11
-17.3842
 21
32.6714
  0
LINE
  8
0
 10
-17.3842
 20
32.6714
 11
-18.2592
 21
32.0356
  0
LINE
  8
0
 10
-18.2592
 20
32.0356
 11
-19.3408
 21
32.0356
  0
LINE
  8
0
 10
-49.7408
 20
32.0356
 11
-50.6158
 21
32.6714
  0
LINE
  8
0
 10
-50.6158
 20
32.6714
 11
-50.95
 21
33.7
  0
LINE
  8
0
 10
-50.95
 20
33.7
 11
-50.6158
 21
34.7286
  0
LINE
  8
0
 10
-50.6158
 20
34.7286
 11
-49.7408
 21
35.3643
  0
LINE
  8
0
 10
-49.7408
 20
35.3643
 11
-48.6592
 21
35.3643
  0
LINE
  8
0
 10
-48.6592
 20
35.3643
 11
-47.7842
 21
34.7286
  0
LINE
  8
0
 10
-47.7842
 20
34.7286
 11
-47.45
 21
33.7
  0
LINE
  8
0
 10
-47.45
 20
33.7
 11
-47.7842
 21
32.6714
  0
LINE
  8
0
 10
-47.7842
 20
32.6714
 11
-48.6592
 21
32.0356
  0
LINE
  8
0
 10
-48.6592
 20
32.0356
 11
-49.7408
 21
32.0356
  0
LINE
  8
0
 10
-52
 20
10
 11
-52
 21
30
  0
LINE
  8
0
 10
-52
 20
30
 11
-16
 21
30
  0
LINE
  8
0
 10
-16
 20
30
 11
-16
 21
10
  0
LINE
  8
0
 10
-16
 20
10
 11
-52
 21
10
  0
LINE
  8
0
 10
-109.375
 20
14.425
 11
-109.375
 21
28.425
  0
LINE
  8
0
 10
-109.375
 20
28.425
 11
-95.375
 21
28.425
  0
LINE
  8
0
 10
-95.375
 20
28.425
 11
-95.375
 21
14.425
  0
LINE
  8
0
 10
-95.375
 20
14.425
 11
-109.375
 21
14.425
  0
LINE
  8
0
 10
-128.425
 20
12.425
 11
-128.425
 21
26.425
  0
LINE
  8
0
 10
-128.425
 20
26.425
 11
-114.425
 21
26.425
  0
LINE
  8
0
 10
-114.425
 20
26.425
 11
-114.425
 21
12.425
  0
LINE
  8
0
 10
-114.425
 20
12.425
 11
-128.425
 21
12.425
  0
LINE
  8
0
 10
-90.325
 20
11.925
 11
-90.325
 21
25.925
  0
LINE
  8
0
 10
-90.325
 20
25.925
 11
-76.325
 21
25.925
  0
LINE
  8
0
 10
-76.325
 20
25.925
 11
-76.325
 21
11.925
  0
LINE
  8
0
 10
-76.325
 20
11.925
 11
-90.325
 21
11.925
  0
LINE
  8
0
 10
-71.275
 20
11.425
 11
-71.275
 21
25.425
  0
LINE
  8
0
 10
-71.275
 20
25.425
 11
-57.275
 21
25.425
  0
LINE
  8
0
 10
-57.275
 20
25.425
 11
-57.275
 21
11.425
  0
LINE
  8
0
 10
-57.275
 20
11.425
 11
-71.275
 21
11.425
  0
LINE
  8
0
 10
-147.475
 20
10.425
 11
-147.475
 21
24.425
  0
LINE
  8
0
 10
-147.475
 20
24.425
 11
-133.475
 21
24.425
  0
LINE
  8
0
 10
-133.475
 20
24.425
 11
-133.475
 21
10.425
  0
LINE
  8
0
 10
-133.475
 20
10.425
 11
-147.475
 21
10.425
  0
LINE
  8
0
 10
-109.375
 20
-4.62498
 11
-109.375
 21
9.37502
  0
LINE
  8
0
 10
-109.375
 20
9.37502
 11
-95.375
 21
9.37502
  0
LINE
  8
0
 10
-95.375
 20
9.37502
 11
-95.375
 21
-4.62498
  0
LINE
  8
0
 10
-95.375
 20
-4.62498
 11
-109.375
 21
-4.62498
  0
LINE
  8
0
 10
-128.425
 20
-6.62498
 11
-128.425
 21
7.37502
  0
LINE
  8
0
 10
-128.425
 20
7.37502
 11
-114.425
 21
7.37502
  0
LINE
  8
0
 10
-114.425
 20
7.37502
 11
-114.425
 21
-6.62498
  0
LINE
  8
0
 10
-114.425
 20
-6.62498
 11
-128.425
 21
-6.62498
  0
LINE
  8
0
 10
-90.325
 20
-7.12498
 11
-90.325
 21
6.87502
  0
LINE
  8
0
 10
-90.325
 20
6.87502
 11
-76.325
 21
6.87502
  0
LINE
  8
0
 10
-76.325
 20
6.87502
 11
-76.325
 21
-7.12498
  0
LINE
  8
0
 10
-76.325
 20
-7.12498
 11
-90.325
 21
-7.12498
  0
LINE
  8
0
 10
-19.3408
 20
3.33566
 11
-20.2158
 21
3.97139
  0
LINE
  8
0
 10
-20.2158
 20
3.97139
 11
-20.55
 21
5
  0
LINE
  8
0
 10
-20.55
 20
5
 11
-20.2158
 21
6.02863
  0
LINE
  8
0
 10
-20.2158
 20
6.02863
 11
-19.3408
 21
6.66435
  0
LINE
  8
0
 10
-19.3408
 20
6.66435
 11
-18.2592
 21
6.66435
  0
LINE
  8
0
 10
-18.2592
 20
6.66435
 11
-17.3842
 21
6.02863
  0
LINE
  8
0
 10
-17.3842
 20
6.02863
 11
-17.05
 21
5
  0
LINE
  8
0
 10
-17.05
 20
5
 11
-17.3842
 21
3.97139
  0
LINE
  8
0
 10
-17.3842
 20
3.97139
 11
-18.2592
 21
3.33566
  0
LINE
  8
0
 10
-18.2592
 20
3.33566
 11
-19.3408
 21
3.33566
  0
LINE
  8
0
 10
-49.7408
 20
3.33566
 11
-50.6158
 21
3.97139
  0
LINE
  8
0
 10
-50.6158
 20
3.97139
 11
-50.95
 21
5
  0
LINE
  8
0
 10
-50.95
 20
5
 11
-50.6158
 21
6.02863
  0
LINE
  8
0
 10
-50.6158
 20
6.02863
 11
-49.7408
 21
6.66435
  0
LINE
  8
0
 10
-49.7408
 20
6.66435
 11
-48.6592
 21
6.66435
  0
LINE
  8
0
 10
-48.6592
 20
6.66435
 11
-47.7842
 21
6.02863
  0
LINE
  8
0
 10
-47.7842
 20
6.02863
 11
-47.45
 21
5
  0
LINE
  8
0
 10
-47.45
 20
5
 11
-47.7842
 21
3.97139
  0
LINE
  8
0
 10
-47.7842
 20
3.97139
 11
-48.6592
 21
3.33566
  0
LINE
  8
0
 10
-48.6592
 20
3.33566
 11
-49.7408
 21
3.33566
  0
LINE
  8
0
 10
-71.275
 20
-7.62498
 11
-71.275
 21
6.37502
  0
LINE
  8
0
 10
-71.275
 20
6.37502
 11
-57.275
 21
6.37502
  0
LINE
  8
0
 10
-57.275
 20
6.37502
 11
-57.275
 21
-7.62498
  0
LINE
  8
0
 10
-57.275
 20
-7.62498
 11
-71.275
 21
-7.62498
  0
LINE
  8
0
 10
-147.475
 20
-8.62498
 11
-147.475
 21
5.37502
  0
LINE
  8
0
 10
-147.475
 20
5.37502
 11
-133.475
 21
5.37502
  0
LINE
  8
0
 10
-133.475
 20
5.37502
 11
-133.475
 21
-8.62498
  0
LINE
  8
0
 10
-133.475
 20
-8.62498
 11
-147.475
 21
-8.62498
  0
LINE
  8
0
 10
-47
 20
-11.5
 11
-47
 21
-6.75
  0
LINE
  8
0
 10
-47
 20
-6.75
 11
-21
 21
-6.75
  0
LINE
  8
0
 10
-21
 20
-6.75
 11
-21
 21
-11.5
  0
LINE
  8
0
 10
-21
 20
-11.5
 11
-47
 21
-11.5
  0
LINE
  8
0
 10
-47
 20
-19.25
 11
-47
 21
-14.5
  0
LINE
  8
0
 10
-47
 20
-14.5
 11
-21
 21
-14.5
  0
LINE
  8
0
 10
-21
 20
-14.5
 11
-21
 21
-19.25
  0
LINE
  8
0
 10
-21
 20
-19.25
 11
-47
 21
-19.25
  0
LINE
  8
0
 10
-137.947
 20
-30.1334
 11
-140.177
 21
-28.9971
  0
LINE
  8
0
 10
-140.177
 20
-28.9971
 11
-141.947
 21
-27.2273
  0
LINE
  8
0
 10
-141.947
 20
-27.2273
 11
-143.083
 21
-24.9971
  0
LINE
  8
0
 10
-143.083
 20
-24.9971
 11
-143.475
 21
-22.525
  0
LINE
  8
0
 10
-143.475
 20
-22.525
 11
-143.083
 21
-20.0529
  0
LINE
  8
0
 10
-143.083
 20
-20.0529
 11
-141.947
 21
-17.8227
  0
LINE
  8
0
 10
-141.947
 20
-17.8227
 11
-140.177
 21
-16.0529
  0
LINE
  8
0
 10
-140.177
 20
-16.0529
 11
-137.947
 21
-14.9165
  0
LINE
  8
0
 10
-137.947
 20
-14.9165
 11
-135.475
 21
-14.525
  0
LINE
  8
0
 10
-135.475
 20
-14.525
 11
-133.003
 21
-14.9165
  0
LINE
  8
0
 10
-133.003
 20
-14.9165
 11
-130.773
 21
-16.0529
  0
LINE
  8
0
 10
-130.773
 20
-16.0529
 11
-129.003
 21
-17.8227
  0
LINE
  8
0
 10
-129.003
 20
-17.8227
 11
-127.867
 21
-20.0529
  0
LINE
  8
0
 10
-127.867
 20
-20.0529
 11
-127.475
 21
-22.525
  0
LINE
  8
0
 10
-127.475
 20
-22.525
 11
-127.867
 21
-24.9971
  0
LINE
  8
0
 10
-127.867
 20
-24.9971
 11
-129.003
 21
-27.2273
  0
LINE
  8
0
 10
-129.003
 20
-27.2273
 11
-130.773
 21
-28.9971
  0
LINE
  8
0
 10
-130.773
 20
-28.9971
 11
-133.003
 21
-30.1334
  0
LINE
  8
0
 10
-133.003
 20
-30.1334
 11
-135.475
 21
-30.525
  0
LINE
  8
0
 10
-135.475
 20
-30.525
 11
-137.947
 21
-30.1334
  0
LINE
  8
0
 10
-91.675
 20
-15.525
 11
-77.675
 21
-15.525
  0
LINE
  8
0
 10
-77.675
 20
-15.525
 11
-77.675
 21
-29.525
  0
LINE
  8
0
 10
-77.675
 20
-29.525
 11
-91.675
 21
-29.525
  0
LINE
  8
0
 10
-91.675
 20
-29.525
 11
-91.675
 21
-15.525
  0
LINE
  8
0
 10
-110.725
 20
-29.525
 11
-110.725
 21
-15.525
  0
LINE
  8
0
 10
-110.725
 20
-15.525
 11
-96.725
 21
-15.525
  0
LINE
  8
0
 10
-96.725
 20
-15.525
 11
-96.725
 21
-29.525
  0
LINE
  8
0
 10
-96.725
 20
-29.525
 11
-110.725
 21
-29.525
  0
LINE
  8
0
 10
-71.8887
 20
-30.5957
 11
-66.8791
 21
-17.5227
  0
LINE
  8
0
 10
-66.8791
 20
-17.5227
 11
-53.8061
 21
-22.5323
  0
LINE
  8
0
 10
-53.8061
 20
-22.5323
 11
-58.8157
 21
-35.6053
  0
LINE
  8
0
 10
-58.8157
 20
-35.6053
 11
-71.8887
 21
-30.5957
  0
LINE
  8
0
 10
-53.7956
 20
-38.6756
 11
-44.4398
 21
-28.2608
  0
LINE
  8
0
 10
-44.4398
 20
-28.2608
 11
-34.025
 21
-37.6167
  0
LINE
  8
0
 10
-34.025
 20
-37.6167
 11
-43.3808
 21
-48.0315
  0
LINE
  8
0
 10
-43.3808
 20
-48.0315
 11
-53.7956
 21
-38.6756
  0
LINE
  8
0
 10
-20.5408
 20
-41.6643
 11
-21.0286
 21
-41.4158
  0
LINE
  8
0
 10
-21.0286
 20
-41.4158
 11
-21.4158
 21
-41.0286
  0
LINE
  8
0
 10
-21.4158
 20
-41.0286
 11
-21.6644
 21
-40.5408
  0
LINE
  8
0
 10
-21.6644
 20
-40.5408
 11
-21.75
 21
-40
  0
LINE
  8
0
 10
-21.75
 20
-40
 11
-21.6644
 21
-39.4592
  0
LINE
  8
0
 10
-21.6644
 20
-39.4592
 11
-21.4158
 21
-38.9714
  0
LINE
  8
0
 10
-21.4158
 20
-38.9714
 11
-21.0286
 21
-38.5842
  0
LINE
  8
0
 10
-21.0286
 20
-38.5842
 11
-20.5408
 21
-38.3356
  0
LINE
  8
0
 10
-20.5408
 20
-38.3356
 11
-20
 21
-38.25
  0
LINE
  8
0
 10
-20
 20
-38.25
 11
-19.4592
 21
-38.3356
  0
LINE
  8
0
 10
-19.4592
 20
-38.3356
 11
-18.9714
 21
-38.5842
  0
LINE
  8
0
 10
-18.9714
 20
-38.5842
 11
-18.5842
 21
-38.9714
  0
LINE
  8
0
 10
-18.5842
 20
-38.9714
 11
-18.3357
 21
-39.4592
  0
LINE
  8
0
 10
-18.3357
 20
-39.4592
 11
-18.25
 21
-40
  0
LINE
  8
0
 10
-18.25
 20
-40
 11
-18.3357
 21
-40.5408
  0
LINE
  8
0
 10
-18.3357
 20
-40.5408
 11
-18.5842
 21
-41.0286
  0
LINE
  8
0
 10
-18.5842
 20
-41.0286
 11
-18.9714
 21
-41.4158
  0
LINE
  8
0
 10
-18.9714
 20
-41.4158
 11
-19.4592
 21
-41.6643
  0
LINE
  8
0
 10
-19.4592
 20
-41.6643
 11
-20
 21
-41.75
  0
LINE
  8
0
 10
-20
 20
-41.75
 11
-20.5408
 21
-41.6643
  0
LINE
  8
0
 10
-140.541
 20
-41.6643
 11
-141.029
 21
-41.4158
  0
LINE
  8
0
 10
-141.029
 20
-41.4158
 11
-141.416
 21
-41.0286
  0
LINE
  8
0
 10
-141.416
 20
-41.0286
 11
-141.664
 21
-40.5408
  0
LINE
  8
0
 10
-141.664
 20
-40.5408
 11
-141.75
 21
-40
  0
LINE
  8
0
 10
-141.75
 20
-40
 11
-141.664
 21
-39.4592
  0
LINE
  8
0
 10
-141.664
 20
-39.4592
 11
-141.416
 21
-38.9714
  0
LINE
  8
0
 10
-141.416
 20
-38.9714
 11
-141.029
 21
-38.5842
  0
LINE
  8
0
 10
-141.029
 20
-38.5842
 11
-140.541
 21
-38.3356
  0
LINE
  8
0
 10
-140.541
 20
-38.3356
 11
-140
 21
-38.25
  0
LINE
  8
0
 10
-140
 20
-38.25
 11
-139.459
 21
-38.3356
  0
LINE
  8
0
 10
-139.459
 20
-38.3356
 11
-138.971
 21
-38.5842
  0
LINE
  8
0
 10
-138.971
 20
-38.5842
 11
-138.584
 21
-38.9714
  0
LINE
  8
0
 10
-138.584
 20
-38.9714
 11
-138.336
 21
-39.4592
  0
LINE
  8
0
 10
-138.336
 20
-39.4592
 11
-138.25
 21
-40
  0
LINE
  8
0
 10
-138.25
 20
-40
 11
-138.336
 21
-40.5408
  0
LINE
  8
0
 10
-138.336
 20
-40.5408
 11
-138.584
 21
-41.0286
  0
LINE
  8
0
 10
-138.584
 20
-41.0286
 11
-138.971
 21
-41.4158
  0
LINE
  8
0
 10
-138.971
 20
-41.4158
 11
-139.459
 21
-41.6643
  0
LINE
  8
0
 10
-139.459
 20
-41.6643
 11
-140
 21
-41.75
  0
LINE
  8
0
 10
-140
 20
-41.75
 11
-140.541
 21
-41.6643
  0
ENDSEC
  0
SECTION
  2
OBJECTS
  0
DICTIONARY
  0
ENDSEC
  0
EOF
