  0
SECTION
  2
BLOCKS
  0
ENDSEC
  0
SECTION
  2
ENTITIES
  0
LINE
  8
0
 10
46.5451
 20
-19.7553
 11
47.9389
 21
-19.0451
  0
LINE
  8
0
 10
47.9389
 20
-19.0451
 11
49.0451
 21
-17.9389
  0
LINE
  8
0
 10
49.0451
 20
-17.9389
 11
49.7553
 21
-16.5451
  0
LINE
  8
0
 10
49.7553
 20
-16.5451
 11
50
 21
-15
  0
LINE
  8
0
 10
50
 20
-15
 11
50
 21
15
  0
LINE
  8
0
 10
50
 20
15
 11
49.7553
 21
16.5451
  0
LINE
  8
0
 10
49.7553
 20
16.5451
 11
49.0451
 21
17.9389
  0
LINE
  8
0
 10
49.0451
 20
17.9389
 11
47.9389
 21
19.0451
  0
LINE
  8
0
 10
47.9389
 20
19.0451
 11
46.5451
 21
19.7553
  0
LINE
  8
0
 10
46.5451
 20
19.7553
 11
45
 21
20
  0
LINE
  8
0
 10
45
 20
20
 11
-45
 21
20
  0
LINE
  8
0
 10
-45
 20
20
 11
-46.5451
 21
19.7553
  0
LINE
  8
0
 10
-46.5451
 20
19.7553
 11
-47.9389
 21
19.0451
  0
LINE
  8
0
 10
-47.9389
 20
19.0451
 11
-49.0451
 21
17.9389
  0
LINE
  8
0
 10
-49.0451
 20
17.9389
 11
-49.7553
 21
16.5451
  0
LINE
  8
0
 10
-49.7553
 20
16.5451
 11
-50
 21
15
  0
LINE
  8
0
 10
-50
 20
15
 11
-50
 21
-15
  0
LINE
  8
0
 10
-50
 20
-15
 11
-49.7553
 21
-16.5451
  0
LINE
  8
0
 10
-49.7553
 20
-16.5451
 11
-49.0451
 21
-17.9389
  0
LINE
  8
0
 10
-49.0451
 20
-17.9389
 11
-47.9389
 21
-19.0451
  0
LINE
  8
0
 10
-47.9389
 20
-19.0451
 11
-46.5451
 21
-19.7553
  0
LINE
  8
0
 10
-46.5451
 20
-19.7553
 11
-45
 21
-20
  0
LINE
  8
0
 10
-45
 20
-20
 11
45
 21
-20
  0
LINE
  8
0
 10
45
 20
-20
 11
46.5451
 21
-19.7553
  0
LINE
  8
0
 10
23.1459
 20
-5.70633
 11
21.4733
 21
-4.8541
  0
LINE
  8
0
 10
21.4733
 20
-4.8541
 11
20.1459
 21
-3.5267
  0
LINE
  8
0
 10
20.1459
 20
-3.5267
 11
19.2937
 21
-1.8541
  0
LINE
  8
0
 10
19.2937
 20
-1.8541
 11
19
 21
0
  0
LINE
  8
0
 10
19
 20
0
 11
19.2937
 21
1.8541
  0
LINE
  8
0
 10
19.2937
 20
1.8541
 11
20.1459
 21
3.5267
  0
LINE
  8
0
 10
20.1459
 20
3.5267
 11
21.4733
 21
4.8541
  0
LINE
  8
0
 10
21.4733
 20
4.8541
 11
23.1459
 21
5.70633
  0
LINE
  8
0
 10
23.1459
 20
5.70633
 11
25
 21
6
  0
LINE
  8
0
 10
25
 20
6
 11
26.8541
 21
5.70633
  0
LINE
  8
0
 10
26.8541
 20
5.70633
 11
28.5267
 21
4.8541
  0
LINE
  8
0
 10
28.5267
 20
4.8541
 11
29.8541
 21
3.5267
  0
LINE
  8
0
 10
29.8541
 20
3.5267
 11
30.7063
 21
1.8541
  0
LINE
  8
0
 10
30.7063
 20
1.8541
 11
31
 21
0
  0
LINE
  8
0
 10
31
 20
0
 11
30.7063
 21
-1.8541
  0
LINE
  8
0
 10
30.7063
 20
-1.8541
 11
29.8541
 21
-3.5267
  0
LINE
  8
0
 10
29.8541
 20
-3.5267
 11
28.5267
 21
-4.8541
  0
LINE
  8
0
 10
28.5267
 20
-4.8541
 11
26.8541
 21
-5.70633
  0
LINE
  8
0
 10
26.8541
 20
-5.70633
 11
25
 21
-6
  0
LINE
  8
0
 10
25
 20
-6
 11
23.1459
 21
-5.70633
  0
LINE
  8
0
 10
-43.5408
 20
-1.66434
 11
-44.0286
 21
-1.41577
  0
LINE
  8
0
 10
-44.0286
 20
-1.41577
 11
-44.4158
 21
-1.02861
  0
LINE
  8
0
 10
-44.4158
 20
-1.02861
 11
-44.6643
 21
-0.540771
  0
LINE
  8
0
 10
-44.6643
 20
-0.540771
 11
-44.75
 21
0
  0
LINE
  8
0
 10
-44.75
 20
0
 11
-44.6643
 21
0.540771
  0
LINE
  8
0
 10
-44.6643
 20
0.540771
 11
-44.4158
 21
1.02861
  0
LINE
  8
0
 10
-44.4158
 20
1.02861
 11
-44.0286
 21
1.41577
  0
LINE
  8
0
 10
-44.0286
 20
1.41577
 11
-43.5408
 21
1.66434
  0
LINE
  8
0
 10
-43.5408
 20
1.66434
 11
-43
 21
1.75
  0
LINE
  8
0
 10
-43
 20
1.75
 11
-42.4592
 21
1.66434
  0
LINE
  8
0
 10
-42.4592
 20
1.66434
 11
-41.9714
 21
1.41577
  0
LINE
  8
0
 10
-41.9714
 20
1.41577
 11
-41.5842
 21
1.02861
  0
LINE
  8
0
 10
-41.5842
 20
1.02861
 11
-41.3356
 21
0.540771
  0
LINE
  8
0
 10
-41.3356
 20
0.540771
 11
-41.25
 21
0
  0
LINE
  8
0
 10
-41.25
 20
0
 11
-41.3356
 21
-0.540771
  0
LINE
  8
0
 10
-41.3356
 20
-0.540771
 11
-41.5842
 21
-1.02861
  0
LINE
  8
0
 10
-41.5842
 20
-1.02861
 11
-41.9714
 21
-1.41577
  0
LINE
  8
0
 10
-41.9714
 20
-1.41577
 11
-42.4592
 21
-1.66434
  0
LINE
  8
0
 10
-42.4592
 20
-1.66434
 11
-43
 21
-1.75
  0
LINE
  8
0
 10
-43
 20
-1.75
 11
-43.5408
 21
-1.66434
  0
ENDSEC
  0
SECTION
  2
OBJECTS
  0
DICTIONARY
  0
ENDSEC
  0
EOF
