  0
SECTION
  2
BLOCKS
  0
ENDSEC
  0
SECTION
  2
ENTITIES
  0
LINE
  8
0
 10
89.5644
 20
-29.8769
 11
91.1095
 21
-29.6322
  0
LINE
  8
0
 10
91.1095
 20
-29.6322
 11
94.085
 21
-28.6653
  0
LINE
  8
0
 10
94.085
 20
-28.6653
 11
95.4788
 21
-27.9552
  0
LINE
  8
0
 10
95.4788
 20
-27.9552
 11
98.01
 21
-26.1162
  0
LINE
  8
0
 10
98.01
 20
-26.1162
 11
99.1162
 21
-25.01
  0
LINE
  8
0
 10
99.1162
 20
-25.01
 11
100.955
 21
-22.4788
  0
LINE
  8
0
 10
100.955
 20
-22.4788
 11
101.665
 21
-21.085
  0
LINE
  8
0
 10
101.665
 20
-21.085
 11
102.632
 21
-18.1095
  0
LINE
  8
0
 10
102.632
 20
-18.1095
 11
102.877
 21
-16.5644
  0
LINE
  8
0
 10
102.877
 20
-16.5644
 11
103
 21
-15
  0
LINE
  8
0
 10
103
 20
-15
 11
103
 21
15
  0
LINE
  8
0
 10
103
 20
15
 11
102.877
 21
16.5644
  0
LINE
  8
0
 10
102.877
 20
16.5644
 11
102.632
 21
18.1095
  0
LINE
  8
0
 10
102.632
 20
18.1095
 11
101.665
 21
21.085
  0
LINE
  8
0
 10
101.665
 20
21.085
 11
100.955
 21
22.4788
  0
LINE
  8
0
 10
100.955
 20
22.4788
 11
99.1162
 21
25.01
  0
LINE
  8
0
 10
99.1162
 20
25.01
 11
98.01
 21
26.1162
  0
LINE
  8
0
 10
98.01
 20
26.1162
 11
95.4788
 21
27.9552
  0
LINE
  8
0
 10
95.4788
 20
27.9552
 11
94.085
 21
28.6653
  0
LINE
  8
0
 10
94.085
 20
28.6653
 11
91.1095
 21
29.6322
  0
LINE
  8
0
 10
91.1095
 20
29.6322
 11
89.5644
 21
29.8769
  0
LINE
  8
0
 10
89.5644
 20
29.8769
 11
88
 21
30
  0
LINE
  8
0
 10
88
 20
30
 11
52
 21
30
  0
LINE
  8
0
 10
52
 20
30
 11
52
 21
-30
  0
LINE
  8
0
 10
52
 20
-30
 11
88
 21
-30
  0
LINE
  8
0
 10
88
 20
-30
 11
89.5644
 21
-29.8769
  0
LINE
  8
0
 10
62.4592
 20
23.3357
 11
61.9714
 21
23.5842
  0
LINE
  8
0
 10
61.9714
 20
23.5842
 11
61.5842
 21
23.9714
  0
LINE
  8
0
 10
61.5842
 20
23.9714
 11
61.3357
 21
24.4592
  0
LINE
  8
0
 10
61.3357
 20
24.4592
 11
61.25
 21
25
  0
LINE
  8
0
 10
61.25
 20
25
 11
61.3357
 21
25.5408
  0
LINE
  8
0
 10
61.3357
 20
25.5408
 11
61.5842
 21
26.0286
  0
LINE
  8
0
 10
61.5842
 20
26.0286
 11
61.9714
 21
26.4158
  0
LINE
  8
0
 10
61.9714
 20
26.4158
 11
62.4592
 21
26.6644
  0
LINE
  8
0
 10
62.4592
 20
26.6644
 11
63
 21
26.75
  0
LINE
  8
0
 10
63
 20
26.75
 11
63.5408
 21
26.6644
  0
LINE
  8
0
 10
63.5408
 20
26.6644
 11
64.0286
 21
26.4158
  0
LINE
  8
0
 10
64.0286
 20
26.4158
 11
64.4158
 21
26.0286
  0
LINE
  8
0
 10
64.4158
 20
26.0286
 11
64.6644
 21
25.5408
  0
LINE
  8
0
 10
64.6644
 20
25.5408
 11
64.75
 21
25
  0
LINE
  8
0
 10
64.75
 20
25
 11
64.6644
 21
24.4592
  0
LINE
  8
0
 10
64.6644
 20
24.4592
 11
64.4158
 21
23.9714
  0
LINE
  8
0
 10
64.4158
 20
23.9714
 11
64.0286
 21
23.5842
  0
LINE
  8
0
 10
64.0286
 20
23.5842
 11
63.5408
 21
23.3357
  0
LINE
  8
0
 10
63.5408
 20
23.3357
 11
63
 21
23.25
  0
LINE
  8
0
 10
63
 20
23.25
 11
62.4592
 21
23.3357
  0
LINE
  8
0
 10
66.4549
 20
-4.75528
 11
65.0611
 21
-4.04507
  0
LINE
  8
0
 10
65.0611
 20
-4.04507
 11
63.9549
 21
-2.93892
  0
LINE
  8
0
 10
63.9549
 20
-2.93892
 11
63.2447
 21
-1.54507
  0
LINE
  8
0
 10
63.2447
 20
-1.54507
 11
63
 21
0
  0
LINE
  8
0
 10
63
 20
0
 11
63.2447
 21
1.54507
  0
LINE
  8
0
 10
63.2447
 20
1.54507
 11
63.9549
 21
2.93892
  0
LINE
  8
0
 10
63.9549
 20
2.93892
 11
65.0611
 21
4.04507
  0
LINE
  8
0
 10
65.0611
 20
4.04507
 11
66.4549
 21
4.75528
  0
LINE
  8
0
 10
66.4549
 20
4.75528
 11
68
 21
5
  0
LINE
  8
0
 10
68
 20
5
 11
69.5451
 21
4.75528
  0
LINE
  8
0
 10
69.5451
 20
4.75528
 11
70.9389
 21
4.04507
  0
LINE
  8
0
 10
70.9389
 20
4.04507
 11
72.0451
 21
2.93892
  0
LINE
  8
0
 10
72.0451
 20
2.93892
 11
72.7553
 21
1.54507
  0
LINE
  8
0
 10
72.7553
 20
1.54507
 11
73
 21
0
  0
LINE
  8
0
 10
73
 20
0
 11
72.7553
 21
-1.54507
  0
LINE
  8
0
 10
72.7553
 20
-1.54507
 11
72.0451
 21
-2.93892
  0
LINE
  8
0
 10
72.0451
 20
-2.93892
 11
70.9389
 21
-4.04507
  0
LINE
  8
0
 10
70.9389
 20
-4.04507
 11
69.5451
 21
-4.75528
  0
LINE
  8
0
 10
69.5451
 20
-4.75528
 11
68
 21
-5
  0
LINE
  8
0
 10
68
 20
-5
 11
66.4549
 21
-4.75528
  0
LINE
  8
0
 10
97.4592
 20
-1.66434
 11
96.9714
 21
-1.41577
  0
LINE
  8
0
 10
96.9714
 20
-1.41577
 11
96.5842
 21
-1.02861
  0
LINE
  8
0
 10
96.5842
 20
-1.02861
 11
96.3357
 21
-0.540771
  0
LINE
  8
0
 10
96.3357
 20
-0.540771
 11
96.25
 21
0
  0
LINE
  8
0
 10
96.25
 20
0
 11
96.3357
 21
0.540787
  0
LINE
  8
0
 10
96.3357
 20
0.540787
 11
96.5842
 21
1.02863
  0
LINE
  8
0
 10
96.5842
 20
1.02863
 11
96.9714
 21
1.41579
  0
LINE
  8
0
 10
96.9714
 20
1.41579
 11
97.4592
 21
1.66435
  0
LINE
  8
0
 10
97.4592
 20
1.66435
 11
98
 21
1.75
  0
LINE
  8
0
 10
98
 20
1.75
 11
98.5408
 21
1.66435
  0
LINE
  8
0
 10
98.5408
 20
1.66435
 11
99.0286
 21
1.41579
  0
LINE
  8
0
 10
99.0286
 20
1.41579
 11
99.4158
 21
1.02863
  0
LINE
  8
0
 10
99.4158
 20
1.02863
 11
99.6644
 21
0.540787
  0
LINE
  8
0
 10
99.6644
 20
0.540787
 11
99.75
 21
0
  0
LINE
  8
0
 10
99.75
 20
0
 11
99.6644
 21
-0.540771
  0
LINE
  8
0
 10
99.6644
 20
-0.540771
 11
99.4158
 21
-1.02861
  0
LINE
  8
0
 10
99.4158
 20
-1.02861
 11
99.0286
 21
-1.41577
  0
LINE
  8
0
 10
99.0286
 20
-1.41577
 11
98.5408
 21
-1.66434
  0
LINE
  8
0
 10
98.5408
 20
-1.66434
 11
98
 21
-1.75
  0
LINE
  8
0
 10
98
 20
-1.75
 11
97.4592
 21
-1.66434
  0
LINE
  8
0
 10
62.4592
 20
-26.6643
 11
61.9714
 21
-26.4158
  0
LINE
  8
0
 10
61.9714
 20
-26.4158
 11
61.5842
 21
-26.0286
  0
LINE
  8
0
 10
61.5842
 20
-26.0286
 11
61.3357
 21
-25.5408
  0
LINE
  8
0
 10
61.3357
 20
-25.5408
 11
61.25
 21
-25
  0
LINE
  8
0
 10
61.25
 20
-25
 11
61.3357
 21
-24.4592
  0
LINE
  8
0
 10
61.3357
 20
-24.4592
 11
61.5842
 21
-23.9714
  0
LINE
  8
0
 10
61.5842
 20
-23.9714
 11
61.9714
 21
-23.5842
  0
LINE
  8
0
 10
61.9714
 20
-23.5842
 11
62.4592
 21
-23.3356
  0
LINE
  8
0
 10
62.4592
 20
-23.3356
 11
63
 21
-23.25
  0
LINE
  8
0
 10
63
 20
-23.25
 11
63.5408
 21
-23.3356
  0
LINE
  8
0
 10
63.5408
 20
-23.3356
 11
64.0286
 21
-23.5842
  0
LINE
  8
0
 10
64.0286
 20
-23.5842
 11
64.4158
 21
-23.9714
  0
LINE
  8
0
 10
64.4158
 20
-23.9714
 11
64.6644
 21
-24.4592
  0
LINE
  8
0
 10
64.6644
 20
-24.4592
 11
64.75
 21
-25
  0
LINE
  8
0
 10
64.75
 20
-25
 11
64.6644
 21
-25.5408
  0
LINE
  8
0
 10
64.6644
 20
-25.5408
 11
64.4158
 21
-26.0286
  0
LINE
  8
0
 10
64.4158
 20
-26.0286
 11
64.0286
 21
-26.4158
  0
LINE
  8
0
 10
64.0286
 20
-26.4158
 11
63.5408
 21
-26.6643
  0
LINE
  8
0
 10
63.5408
 20
-26.6643
 11
63
 21
-26.75
  0
LINE
  8
0
 10
63
 20
-26.75
 11
62.4592
 21
-26.6643
  0
LINE
  8
0
 10
48
 20
30
 11
-38
 21
30
  0
LINE
  8
0
 10
-38
 20
30
 11
-39.5644
 21
29.8769
  0
LINE
  8
0
 10
-39.5644
 20
29.8769
 11
-41.1095
 21
29.6322
  0
LINE
  8
0
 10
-41.1095
 20
29.6322
 11
-44.085
 21
28.6653
  0
LINE
  8
0
 10
-44.085
 20
28.6653
 11
-45.4788
 21
27.9552
  0
LINE
  8
0
 10
-45.4788
 20
27.9552
 11
-48.01
 21
26.1162
  0
LINE
  8
0
 10
-48.01
 20
26.1162
 11
-49.1162
 21
25.01
  0
LINE
  8
0
 10
-49.1162
 20
25.01
 11
-50.9552
 21
22.4788
  0
LINE
  8
0
 10
-50.9552
 20
22.4788
 11
-51.6653
 21
21.085
  0
LINE
  8
0
 10
-51.6653
 20
21.085
 11
-52.6322
 21
18.1095
  0
LINE
  8
0
 10
-52.6322
 20
18.1095
 11
-52.8769
 21
16.5644
  0
LINE
  8
0
 10
-52.8769
 20
16.5644
 11
-53
 21
15
  0
LINE
  8
0
 10
-53
 20
15
 11
-53
 21
-15
  0
LINE
  8
0
 10
-53
 20
-15
 11
-52.8769
 21
-16.5644
  0
LINE
  8
0
 10
-52.8769
 20
-16.5644
 11
-52.6322
 21
-18.1095
  0
LINE
  8
0
 10
-52.6322
 20
-18.1095
 11
-51.6653
 21
-21.085
  0
LINE
  8
0
 10
-51.6653
 20
-21.085
 11
-50.9552
 21
-22.4788
  0
LINE
  8
0
 10
-50.9552
 20
-22.4788
 11
-49.1162
 21
-25.01
  0
LINE
  8
0
 10
-49.1162
 20
-25.01
 11
-48.01
 21
-26.1162
  0
LINE
  8
0
 10
-48.01
 20
-26.1162
 11
-45.4788
 21
-27.9552
  0
LINE
  8
0
 10
-45.4788
 20
-27.9552
 11
-44.085
 21
-28.6653
  0
LINE
  8
0
 10
-44.085
 20
-28.6653
 11
-41.1095
 21
-29.6322
  0
LINE
  8
0
 10
-41.1095
 20
-29.6322
 11
-39.5644
 21
-29.8769
  0
LINE
  8
0
 10
-39.5644
 20
-29.8769
 11
-38
 21
-30
  0
LINE
  8
0
 10
-38
 20
-30
 11
48
 21
-30
  0
LINE
  8
0
 10
48
 20
-30
 11
48
 21
30
  0
LINE
  8
0
 10
-30.5408
 20
23.3357
 11
-31.0286
 21
23.5842
  0
LINE
  8
0
 10
-31.0286
 20
23.5842
 11
-31.4158
 21
23.9714
  0
LINE
  8
0
 10
-31.4158
 20
23.9714
 11
-31.6644
 21
24.4592
  0
LINE
  8
0
 10
-31.6644
 20
24.4592
 11
-31.75
 21
25
  0
LINE
  8
0
 10
-31.75
 20
25
 11
-31.6644
 21
25.5408
  0
LINE
  8
0
 10
-31.6644
 20
25.5408
 11
-31.4158
 21
26.0286
  0
LINE
  8
0
 10
-31.4158
 20
26.0286
 11
-31.0286
 21
26.4158
  0
LINE
  8
0
 10
-31.0286
 20
26.4158
 11
-30.5408
 21
26.6644
  0
LINE
  8
0
 10
-30.5408
 20
26.6644
 11
-30
 21
26.75
  0
LINE
  8
0
 10
-30
 20
26.75
 11
-29.4592
 21
26.6644
  0
LINE
  8
0
 10
-29.4592
 20
26.6644
 11
-28.9714
 21
26.4158
  0
LINE
  8
0
 10
-28.9714
 20
26.4158
 11
-28.5842
 21
26.0286
  0
LINE
  8
0
 10
-28.5842
 20
26.0286
 11
-28.3357
 21
25.5408
  0
LINE
  8
0
 10
-28.3357
 20
25.5408
 11
-28.25
 21
25
  0
LINE
  8
0
 10
-28.25
 20
25
 11
-28.3357
 21
24.4592
  0
LINE
  8
0
 10
-28.3357
 20
24.4592
 11
-28.5842
 21
23.9714
  0
LINE
  8
0
 10
-28.5842
 20
23.9714
 11
-28.9714
 21
23.5842
  0
LINE
  8
0
 10
-28.9714
 20
23.5842
 11
-29.4592
 21
23.3357
  0
LINE
  8
0
 10
-29.4592
 20
23.3357
 11
-30
 21
23.25
  0
LINE
  8
0
 10
-30
 20
23.25
 11
-30.5408
 21
23.3357
  0
LINE
  8
0
 10
39.4592
 20
23.3357
 11
38.9714
 21
23.5842
  0
LINE
  8
0
 10
38.9714
 20
23.5842
 11
38.5842
 21
23.9714
  0
LINE
  8
0
 10
38.5842
 20
23.9714
 11
38.3356
 21
24.4592
  0
LINE
  8
0
 10
38.3356
 20
24.4592
 11
38.25
 21
25
  0
LINE
  8
0
 10
38.25
 20
25
 11
38.3356
 21
25.5408
  0
LINE
  8
0
 10
38.3356
 20
25.5408
 11
38.5842
 21
26.0286
  0
LINE
  8
0
 10
38.5842
 20
26.0286
 11
38.9714
 21
26.4158
  0
LINE
  8
0
 10
38.9714
 20
26.4158
 11
39.4592
 21
26.6644
  0
LINE
  8
0
 10
39.4592
 20
26.6644
 11
40
 21
26.75
  0
LINE
  8
0
 10
40
 20
26.75
 11
40.5408
 21
26.6644
  0
LINE
  8
0
 10
40.5408
 20
26.6644
 11
41.0286
 21
26.4158
  0
LINE
  8
0
 10
41.0286
 20
26.4158
 11
41.4158
 21
26.0286
  0
LINE
  8
0
 10
41.4158
 20
26.0286
 11
41.6643
 21
25.5408
  0
LINE
  8
0
 10
41.6643
 20
25.5408
 11
41.75
 21
25
  0
LINE
  8
0
 10
41.75
 20
25
 11
41.6643
 21
24.4592
  0
LINE
  8
0
 10
41.6643
 20
24.4592
 11
41.4158
 21
23.9714
  0
LINE
  8
0
 10
41.4158
 20
23.9714
 11
41.0286
 21
23.5842
  0
LINE
  8
0
 10
41.0286
 20
23.5842
 11
40.5408
 21
23.3357
  0
LINE
  8
0
 10
40.5408
 20
23.3357
 11
40
 21
23.25
  0
LINE
  8
0
 10
40
 20
23.25
 11
39.4592
 21
23.3357
  0
LINE
  8
0
 10
30.4549
 20
-4.75528
 11
29.0611
 21
-4.04507
  0
LINE
  8
0
 10
29.0611
 20
-4.04507
 11
27.9549
 21
-2.93892
  0
LINE
  8
0
 10
27.9549
 20
-2.93892
 11
27.2447
 21
-1.54507
  0
LINE
  8
0
 10
27.2447
 20
-1.54507
 11
27
 21
0
  0
LINE
  8
0
 10
27
 20
0
 11
27.2447
 21
1.54507
  0
LINE
  8
0
 10
27.2447
 20
1.54507
 11
27.9549
 21
2.93892
  0
LINE
  8
0
 10
27.9549
 20
2.93892
 11
29.0611
 21
4.04507
  0
LINE
  8
0
 10
29.0611
 20
4.04507
 11
30.4549
 21
4.75528
  0
LINE
  8
0
 10
30.4549
 20
4.75528
 11
32
 21
5
  0
LINE
  8
0
 10
32
 20
5
 11
33.5451
 21
4.75528
  0
LINE
  8
0
 10
33.5451
 20
4.75528
 11
34.9389
 21
4.04507
  0
LINE
  8
0
 10
34.9389
 20
4.04507
 11
36.0451
 21
2.93892
  0
LINE
  8
0
 10
36.0451
 20
2.93892
 11
36.7553
 21
1.54507
  0
LINE
  8
0
 10
36.7553
 20
1.54507
 11
37
 21
0
  0
LINE
  8
0
 10
37
 20
0
 11
36.7553
 21
-1.54507
  0
LINE
  8
0
 10
36.7553
 20
-1.54507
 11
36.0451
 21
-2.93892
  0
LINE
  8
0
 10
36.0451
 20
-2.93892
 11
34.9389
 21
-4.04507
  0
LINE
  8
0
 10
34.9389
 20
-4.04507
 11
33.5451
 21
-4.75528
  0
LINE
  8
0
 10
33.5451
 20
-4.75528
 11
32
 21
-5
  0
LINE
  8
0
 10
32
 20
-5
 11
30.4549
 21
-4.75528
  0
LINE
  8
0
 10
-38.3
 20
-1.79999
 11
-38.3
 21
1.8
  0
LINE
  8
0
 10
-38.3
 20
1.8
 11
15.3
 21
1.8
  0
LINE
  8
0
 10
15.3
 20
1.8
 11
15.3
 21
-1.79999
  0
LINE
  8
0
 10
15.3
 20
-1.79999
 11
-38.3
 21
-1.79999
  0
LINE
  8
0
 10
39.4592
 20
-26.6643
 11
38.9714
 21
-26.4158
  0
LINE
  8
0
 10
38.9714
 20
-26.4158
 11
38.5842
 21
-26.0286
  0
LINE
  8
0
 10
38.5842
 20
-26.0286
 11
38.3356
 21
-25.5408
  0
LINE
  8
0
 10
38.3356
 20
-25.5408
 11
38.25
 21
-25
  0
LINE
  8
0
 10
38.25
 20
-25
 11
38.3356
 21
-24.4592
  0
LINE
  8
0
 10
38.3356
 20
-24.4592
 11
38.5842
 21
-23.9714
  0
LINE
  8
0
 10
38.5842
 20
-23.9714
 11
38.9714
 21
-23.5842
  0
LINE
  8
0
 10
38.9714
 20
-23.5842
 11
39.4592
 21
-23.3356
  0
LINE
  8
0
 10
39.4592
 20
-23.3356
 11
40
 21
-23.25
  0
LINE
  8
0
 10
40
 20
-23.25
 11
40.5408
 21
-23.3356
  0
LINE
  8
0
 10
40.5408
 20
-23.3356
 11
41.0286
 21
-23.5842
  0
LINE
  8
0
 10
41.0286
 20
-23.5842
 11
41.4158
 21
-23.9714
  0
LINE
  8
0
 10
41.4158
 20
-23.9714
 11
41.6643
 21
-24.4592
  0
LINE
  8
0
 10
41.6643
 20
-24.4592
 11
41.75
 21
-25
  0
LINE
  8
0
 10
41.75
 20
-25
 11
41.6643
 21
-25.5408
  0
LINE
  8
0
 10
41.6643
 20
-25.5408
 11
41.4158
 21
-26.0286
  0
LINE
  8
0
 10
41.4158
 20
-26.0286
 11
41.0286
 21
-26.4158
  0
LINE
  8
0
 10
41.0286
 20
-26.4158
 11
40.5408
 21
-26.6643
  0
LINE
  8
0
 10
40.5408
 20
-26.6643
 11
40
 21
-26.75
  0
LINE
  8
0
 10
40
 20
-26.75
 11
39.4592
 21
-26.6643
  0
LINE
  8
0
 10
-30.5408
 20
-26.6643
 11
-31.0286
 21
-26.4158
  0
LINE
  8
0
 10
-31.0286
 20
-26.4158
 11
-31.4158
 21
-26.0286
  0
LINE
  8
0
 10
-31.4158
 20
-26.0286
 11
-31.6644
 21
-25.5408
  0
LINE
  8
0
 10
-31.6644
 20
-25.5408
 11
-31.75
 21
-25
  0
LINE
  8
0
 10
-31.75
 20
-25
 11
-31.6644
 21
-24.4592
  0
LINE
  8
0
 10
-31.6644
 20
-24.4592
 11
-31.4158
 21
-23.9714
  0
LINE
  8
0
 10
-31.4158
 20
-23.9714
 11
-31.0286
 21
-23.5842
  0
LINE
  8
0
 10
-31.0286
 20
-23.5842
 11
-30.5408
 21
-23.3356
  0
LINE
  8
0
 10
-30.5408
 20
-23.3356
 11
-30
 21
-23.25
  0
LINE
  8
0
 10
-30
 20
-23.25
 11
-29.4592
 21
-23.3356
  0
LINE
  8
0
 10
-29.4592
 20
-23.3356
 11
-28.9714
 21
-23.5842
  0
LINE
  8
0
 10
-28.9714
 20
-23.5842
 11
-28.5842
 21
-23.9714
  0
LINE
  8
0
 10
-28.5842
 20
-23.9714
 11
-28.3357
 21
-24.4592
  0
LINE
  8
0
 10
-28.3357
 20
-24.4592
 11
-28.25
 21
-25
  0
LINE
  8
0
 10
-28.25
 20
-25
 11
-28.3357
 21
-25.5408
  0
LINE
  8
0
 10
-28.3357
 20
-25.5408
 11
-28.5842
 21
-26.0286
  0
LINE
  8
0
 10
-28.5842
 20
-26.0286
 11
-28.9714
 21
-26.4158
  0
LINE
  8
0
 10
-28.9714
 20
-26.4158
 11
-29.4592
 21
-26.6643
  0
LINE
  8
0
 10
-29.4592
 20
-26.6643
 11
-30
 21
-26.75
  0
LINE
  8
0
 10
-30
 20
-26.75
 11
-30.5408
 21
-26.6643
  0
LINE
  8
0
 10
125.284
 20
-16.2631
 11
130.051
 21
-13.8342
  0
LINE
  8
0
 10
130.051
 20
-13.8342
 11
133.834
 21
-10.0511
  0
LINE
  8
0
 10
133.834
 20
-10.0511
 11
136.263
 21
-5.28418
  0
LINE
  8
0
 10
136.263
 20
-5.28418
 11
137.1
 21
0
  0
LINE
  8
0
 10
137.1
 20
0
 11
136.263
 21
5.28418
  0
LINE
  8
0
 10
136.263
 20
5.28418
 11
133.834
 21
10.0511
  0
LINE
  8
0
 10
133.834
 20
10.0511
 11
130.051
 21
13.8342
  0
LINE
  8
0
 10
130.051
 20
13.8342
 11
125.284
 21
16.2631
  0
LINE
  8
0
 10
125.284
 20
16.2631
 11
120
 21
17.1
  0
LINE
  8
0
 10
120
 20
17.1
 11
114.716
 21
16.2631
  0
LINE
  8
0
 10
114.716
 20
16.2631
 11
109.949
 21
13.8342
  0
LINE
  8
0
 10
109.949
 20
13.8342
 11
107.7
 21
11.5853
  0
LINE
  8
0
 10
107.7
 20
11.5853
 11
107.7
 21
5.40857
  0
LINE
  8
0
 10
107.7
 20
5.40857
 11
107.902
 21
5.37653
  0
LINE
  8
0
 10
107.902
 20
5.37653
 11
108.286
 21
5.18121
  0
LINE
  8
0
 10
108.286
 20
5.18121
 11
108.59
 21
4.87703
  0
LINE
  8
0
 10
108.59
 20
4.87703
 11
108.785
 21
4.49371
  0
LINE
  8
0
 10
108.785
 20
4.49371
 11
108.852
 21
4.06882
  0
LINE
  8
0
 10
108.852
 20
4.06882
 11
108.785
 21
3.64392
  0
LINE
  8
0
 10
108.785
 20
3.64392
 11
108.59
 21
3.26062
  0
LINE
  8
0
 10
108.59
 20
3.26062
 11
108.286
 21
2.95642
  0
LINE
  8
0
 10
108.286
 20
2.95642
 11
107.902
 21
2.76112
  0
LINE
  8
0
 10
107.902
 20
2.76112
 11
107.7
 21
2.72908
  0
LINE
  8
0
 10
107.7
 20
2.72908
 11
107.7
 21
-11.5853
  0
LINE
  8
0
 10
107.7
 20
-11.5853
 11
109.949
 21
-13.8342
  0
LINE
  8
0
 10
109.949
 20
-13.8342
 11
114.716
 21
-16.2631
  0
LINE
  8
0
 10
114.716
 20
-16.2631
 11
120
 21
-17.1
  0
LINE
  8
0
 10
120
 20
-17.1
 11
125.284
 21
-16.2631
  0
LINE
  8
0
 10
119.575
 20
11.8593
 11
119.192
 21
12.0546
  0
LINE
  8
0
 10
119.192
 20
12.0546
 11
118.888
 21
12.3588
  0
LINE
  8
0
 10
118.888
 20
12.3588
 11
118.692
 21
12.7421
  0
LINE
  8
0
 10
118.692
 20
12.7421
 11
118.625
 21
13.167
  0
LINE
  8
0
 10
118.625
 20
13.167
 11
118.692
 21
13.5919
  0
LINE
  8
0
 10
118.692
 20
13.5919
 11
118.888
 21
13.9752
  0
LINE
  8
0
 10
118.888
 20
13.9752
 11
119.192
 21
14.2794
  0
LINE
  8
0
 10
119.192
 20
14.2794
 11
119.575
 21
14.4747
  0
LINE
  8
0
 10
119.575
 20
14.4747
 11
120
 21
14.542
  0
LINE
  8
0
 10
120
 20
14.542
 11
120.425
 21
14.4747
  0
LINE
  8
0
 10
120.425
 20
14.4747
 11
120.808
 21
14.2794
  0
LINE
  8
0
 10
120.808
 20
14.2794
 11
121.112
 21
13.9752
  0
LINE
  8
0
 10
121.112
 20
13.9752
 11
121.308
 21
13.5919
  0
LINE
  8
0
 10
121.308
 20
13.5919
 11
121.375
 21
13.167
  0
LINE
  8
0
 10
121.375
 20
13.167
 11
121.308
 21
12.7421
  0
LINE
  8
0
 10
121.308
 20
12.7421
 11
121.112
 21
12.3588
  0
LINE
  8
0
 10
121.112
 20
12.3588
 11
120.808
 21
12.0546
  0
LINE
  8
0
 10
120.808
 20
12.0546
 11
120.425
 21
11.8593
  0
LINE
  8
0
 10
120.425
 20
11.8593
 11
120
 21
11.792
  0
LINE
  8
0
 10
120
 20
11.792
 11
119.575
 21
11.8593
  0
LINE
  8
0
 10
132.098
 20
2.76112
 11
131.714
 21
2.95642
  0
LINE
  8
0
 10
131.714
 20
2.95642
 11
131.41
 21
3.26062
  0
LINE
  8
0
 10
131.41
 20
3.26062
 11
131.215
 21
3.64392
  0
LINE
  8
0
 10
131.215
 20
3.64392
 11
131.148
 21
4.06882
  0
LINE
  8
0
 10
131.148
 20
4.06882
 11
131.215
 21
4.49371
  0
LINE
  8
0
 10
131.215
 20
4.49371
 11
131.41
 21
4.87703
  0
LINE
  8
0
 10
131.41
 20
4.87703
 11
131.714
 21
5.18121
  0
LINE
  8
0
 10
131.714
 20
5.18121
 11
132.098
 21
5.37653
  0
LINE
  8
0
 10
132.098
 20
5.37653
 11
132.523
 21
5.44382
  0
LINE
  8
0
 10
132.523
 20
5.44382
 11
132.947
 21
5.37653
  0
LINE
  8
0
 10
132.947
 20
5.37653
 11
133.331
 21
5.18121
  0
LINE
  8
0
 10
133.331
 20
5.18121
 11
133.635
 21
4.87703
  0
LINE
  8
0
 10
133.635
 20
4.87703
 11
133.83
 21
4.49371
  0
LINE
  8
0
 10
133.83
 20
4.49371
 11
133.898
 21
4.06882
  0
LINE
  8
0
 10
133.898
 20
4.06882
 11
133.83
 21
3.64392
  0
LINE
  8
0
 10
133.83
 20
3.64392
 11
133.635
 21
3.26062
  0
LINE
  8
0
 10
133.635
 20
3.26062
 11
133.331
 21
2.95642
  0
LINE
  8
0
 10
133.331
 20
2.95642
 11
132.947
 21
2.76112
  0
LINE
  8
0
 10
132.947
 20
2.76112
 11
132.523
 21
2.69382
  0
LINE
  8
0
 10
132.523
 20
2.69382
 11
132.098
 21
2.76112
  0
LINE
  8
0
 10
111.836
 20
-11.96
 11
111.452
 21
-11.7647
  0
LINE
  8
0
 10
111.452
 20
-11.7647
 11
111.148
 21
-11.4605
  0
LINE
  8
0
 10
111.148
 20
-11.4605
 11
110.953
 21
-11.0772
  0
LINE
  8
0
 10
110.953
 20
-11.0772
 11
110.886
 21
-10.6523
  0
LINE
  8
0
 10
110.886
 20
-10.6523
 11
110.953
 21
-10.2274
  0
LINE
  8
0
 10
110.953
 20
-10.2274
 11
111.148
 21
-9.84412
  0
LINE
  8
0
 10
111.148
 20
-9.84412
 11
111.452
 21
-9.53992
  0
LINE
  8
0
 10
111.452
 20
-9.53992
 11
111.836
 21
-9.34462
  0
LINE
  8
0
 10
111.836
 20
-9.34462
 11
112.261
 21
-9.27731
  0
LINE
  8
0
 10
112.261
 20
-9.27731
 11
112.686
 21
-9.34462
  0
LINE
  8
0
 10
112.686
 20
-9.34462
 11
113.069
 21
-9.53992
  0
LINE
  8
0
 10
113.069
 20
-9.53992
 11
113.373
 21
-9.84412
  0
LINE
  8
0
 10
113.373
 20
-9.84412
 11
113.568
 21
-10.2274
  0
LINE
  8
0
 10
113.568
 20
-10.2274
 11
113.636
 21
-10.6523
  0
LINE
  8
0
 10
113.636
 20
-10.6523
 11
113.568
 21
-11.0772
  0
LINE
  8
0
 10
113.568
 20
-11.0772
 11
113.373
 21
-11.4605
  0
LINE
  8
0
 10
113.373
 20
-11.4605
 11
113.069
 21
-11.7647
  0
LINE
  8
0
 10
113.069
 20
-11.7647
 11
112.686
 21
-11.96
  0
LINE
  8
0
 10
112.686
 20
-11.96
 11
112.261
 21
-12.0273
  0
LINE
  8
0
 10
112.261
 20
-12.0273
 11
111.836
 21
-11.96
  0
LINE
  8
0
 10
127.314
 20
-11.96
 11
126.931
 21
-11.7647
  0
LINE
  8
0
 10
126.931
 20
-11.7647
 11
126.627
 21
-11.4605
  0
LINE
  8
0
 10
126.627
 20
-11.4605
 11
126.432
 21
-11.0772
  0
LINE
  8
0
 10
126.432
 20
-11.0772
 11
126.364
 21
-10.6523
  0
LINE
  8
0
 10
126.364
 20
-10.6523
 11
126.432
 21
-10.2274
  0
LINE
  8
0
 10
126.432
 20
-10.2274
 11
126.627
 21
-9.84412
  0
LINE
  8
0
 10
126.627
 20
-9.84412
 11
126.931
 21
-9.53992
  0
LINE
  8
0
 10
126.931
 20
-9.53992
 11
127.314
 21
-9.34462
  0
LINE
  8
0
 10
127.314
 20
-9.34462
 11
127.739
 21
-9.27731
  0
LINE
  8
0
 10
127.739
 20
-9.27731
 11
128.164
 21
-9.34462
  0
LINE
  8
0
 10
128.164
 20
-9.34462
 11
128.548
 21
-9.53992
  0
LINE
  8
0
 10
128.548
 20
-9.53992
 11
128.852
 21
-9.84412
  0
LINE
  8
0
 10
128.852
 20
-9.84412
 11
129.047
 21
-10.2274
  0
LINE
  8
0
 10
129.047
 20
-10.2274
 11
129.114
 21
-10.6523
  0
LINE
  8
0
 10
129.114
 20
-10.6523
 11
129.047
 21
-11.0772
  0
LINE
  8
0
 10
129.047
 20
-11.0772
 11
128.852
 21
-11.4605
  0
LINE
  8
0
 10
128.852
 20
-11.4605
 11
128.548
 21
-11.7647
  0
LINE
  8
0
 10
128.548
 20
-11.7647
 11
128.164
 21
-11.96
  0
LINE
  8
0
 10
128.164
 20
-11.96
 11
127.739
 21
-12.0273
  0
LINE
  8
0
 10
127.739
 20
-12.0273
 11
127.314
 21
-11.96
  0
LINE
  8
0
 10
-61.8292
 20
-6.94125
 11
-61.4947
 21
-6.77081
  0
LINE
  8
0
 10
-61.4947
 20
-6.77081
 11
-61.2292
 21
-6.50533
  0
LINE
  8
0
 10
-61.2292
 20
-6.50533
 11
-61.0587
 21
-6.17081
  0
LINE
  8
0
 10
-61.0587
 20
-6.17081
 11
-61
 21
-5.79999
  0
LINE
  8
0
 10
-61
 20
-5.79999
 11
-61
 21
-4.0916
  0
LINE
  8
0
 10
-61
 20
-4.0916
 11
-60
 21
-4.25
  0
LINE
  8
0
 10
-60
 20
-4.25
 11
-58.9
 21
-4.07576
  0
LINE
  8
0
 10
-58.9
 20
-4.07576
 11
-58.9
 21
-4.79999
  0
LINE
  8
0
 10
-58.9
 20
-4.79999
 11
-58.8413
 21
-5.17081
  0
LINE
  8
0
 10
-58.8413
 20
-5.17081
 11
-58.6708
 21
-5.50533
  0
LINE
  8
0
 10
-58.6708
 20
-5.50533
 11
-58.4053
 21
-5.77081
  0
LINE
  8
0
 10
-58.4053
 20
-5.77081
 11
-58.0708
 21
-5.94125
  0
LINE
  8
0
 10
-58.0708
 20
-5.94125
 11
-57.7
 21
-5.99998
  0
LINE
  8
0
 10
-57.7
 20
-5.99998
 11
-56.7
 21
-5.99998
  0
LINE
  8
0
 10
-56.7
 20
-5.99998
 11
-56.3292
 21
-5.94125
  0
LINE
  8
0
 10
-56.3292
 20
-5.94125
 11
-55.9947
 21
-5.77081
  0
LINE
  8
0
 10
-55.9947
 20
-5.77081
 11
-55.7292
 21
-5.50533
  0
LINE
  8
0
 10
-55.7292
 20
-5.50533
 11
-55.5587
 21
-5.17081
  0
LINE
  8
0
 10
-55.5587
 20
-5.17081
 11
-55.5
 21
-4.79999
  0
LINE
  8
0
 10
-55.5
 20
-4.79999
 11
-55.5
 21
2.00801
  0
LINE
  8
0
 10
-55.5
 20
2.00801
 11
-55.3775
 21
2.13054
  0
LINE
  8
0
 10
-55.3775
 20
2.13054
 11
-55.0224
 21
2.82745
  0
LINE
  8
0
 10
-55.0224
 20
2.82745
 11
-54.9
 21
3.59999
  0
LINE
  8
0
 10
-54.9
 20
3.59999
 11
-55.0224
 21
4.37253
  0
LINE
  8
0
 10
-55.0224
 20
4.37253
 11
-55.3775
 21
5.06944
  0
LINE
  8
0
 10
-55.3775
 20
5.06944
 11
-55.9306
 21
5.62253
  0
LINE
  8
0
 10
-55.9306
 20
5.62253
 11
-55.9782
 21
5.6468
  0
LINE
  8
0
 10
-55.9782
 20
5.6468
 11
-56.3594
 21
6.39502
  0
LINE
  8
0
 10
-56.3594
 20
6.39502
 11
-57.355
 21
7.39056
  0
LINE
  8
0
 10
-57.355
 20
7.39056
 11
-58.6094
 21
8.02974
  0
LINE
  8
0
 10
-58.6094
 20
8.02974
 11
-60
 21
8.25
  0
LINE
  8
0
 10
-60
 20
8.25
 11
-61.3906
 21
8.02974
  0
LINE
  8
0
 10
-61.3906
 20
8.02974
 11
-62.645
 21
7.39056
  0
LINE
  8
0
 10
-62.645
 20
7.39056
 11
-63.6406
 21
6.39502
  0
LINE
  8
0
 10
-63.6406
 20
6.39502
 11
-64.2797
 21
5.14056
  0
LINE
  8
0
 10
-64.2797
 20
5.14056
 11
-64.5
 21
3.75
  0
LINE
  8
0
 10
-64.5
 20
3.75
 11
-64.5
 21
3.69998
  0
LINE
  8
0
 10
-64.5
 20
3.69998
 11
-64.8
 21
3.69998
  0
LINE
  8
0
 10
-64.8
 20
3.69998
 11
-65.1708
 21
3.64125
  0
LINE
  8
0
 10
-65.1708
 20
3.64125
 11
-65.5053
 21
3.47081
  0
LINE
  8
0
 10
-65.5053
 20
3.47081
 11
-65.7708
 21
3.20532
  0
LINE
  8
0
 10
-65.7708
 20
3.20532
 11
-65.9413
 21
2.8708
  0
LINE
  8
0
 10
-65.9413
 20
2.8708
 11
-66
 21
2.49998
  0
LINE
  8
0
 10
-66
 20
2.49998
 11
-66
 21
-3.09998
  0
LINE
  8
0
 10
-66
 20
-3.09998
 11
-65.9413
 21
-3.47079
  0
LINE
  8
0
 10
-65.9413
 20
-3.47079
 11
-65.7708
 21
-3.80531
  0
LINE
  8
0
 10
-65.7708
 20
-3.80531
 11
-65.5053
 21
-4.0708
  0
LINE
  8
0
 10
-65.5053
 20
-4.0708
 11
-65.1708
 21
-4.24124
  0
LINE
  8
0
 10
-65.1708
 20
-4.24124
 11
-64.8
 21
-4.29997
  0
LINE
  8
0
 10
-64.8
 20
-4.29997
 11
-64.4
 21
-4.29997
  0
LINE
  8
0
 10
-64.4
 20
-4.29997
 11
-64.4
 21
-5.79999
  0
LINE
  8
0
 10
-64.4
 20
-5.79999
 11
-64.3413
 21
-6.17081
  0
LINE
  8
0
 10
-64.3413
 20
-6.17081
 11
-64.1708
 21
-6.50533
  0
LINE
  8
0
 10
-64.1708
 20
-6.50533
 11
-63.9053
 21
-6.77081
  0
LINE
  8
0
 10
-63.9053
 20
-6.77081
 11
-63.5708
 21
-6.94125
  0
LINE
  8
0
 10
-63.5708
 20
-6.94125
 11
-63.2
 21
-6.99998
  0
LINE
  8
0
 10
-63.2
 20
-6.99998
 11
-62.2
 21
-6.99998
  0
LINE
  8
0
 10
-62.2
 20
-6.99998
 11
-61.8292
 21
-6.94125
  0
LINE
  8
0
 10
-59.7
 20
1.95001
 11
-60.2408
 21
2.03564
  0
LINE
  8
0
 10
-60.2408
 20
2.03564
 11
-60.7286
 21
2.28421
  0
LINE
  8
0
 10
-60.7286
 20
2.28421
 11
-61.1158
 21
2.67137
  0
LINE
  8
0
 10
-61.1158
 20
2.67137
 11
-61.3643
 21
3.15921
  0
LINE
  8
0
 10
-61.3643
 20
3.15921
 11
-61.45
 21
3.7
  0
LINE
  8
0
 10
-61.45
 20
3.7
 11
-61.3643
 21
4.24077
  0
LINE
  8
0
 10
-61.3643
 20
4.24077
 11
-61.1158
 21
4.72861
  0
LINE
  8
0
 10
-61.1158
 20
4.72861
 11
-60.7286
 21
5.11577
  0
LINE
  8
0
 10
-60.7286
 20
5.11577
 11
-60.2408
 21
5.36433
  0
LINE
  8
0
 10
-60.2408
 20
5.36433
 11
-59.7
 21
5.45
  0
LINE
  8
0
 10
-59.7
 20
5.45
 11
-58.3
 21
5.45
  0
LINE
  8
0
 10
-58.3
 20
5.45
 11
-57.7592
 21
5.36433
  0
LINE
  8
0
 10
-57.7592
 20
5.36433
 11
-57.2714
 21
5.11577
  0
LINE
  8
0
 10
-57.2714
 20
5.11577
 11
-56.8842
 21
4.72861
  0
LINE
  8
0
 10
-56.8842
 20
4.72861
 11
-56.6357
 21
4.24077
  0
LINE
  8
0
 10
-56.6357
 20
4.24077
 11
-56.55
 21
3.7
  0
LINE
  8
0
 10
-56.55
 20
3.7
 11
-56.6357
 21
3.15921
  0
LINE
  8
0
 10
-56.6357
 20
3.15921
 11
-56.8842
 21
2.67137
  0
LINE
  8
0
 10
-56.8842
 20
2.67137
 11
-57.2714
 21
2.28421
  0
LINE
  8
0
 10
-57.2714
 20
2.28421
 11
-57.7592
 21
2.03564
  0
LINE
  8
0
 10
-57.7592
 20
2.03564
 11
-58.3
 21
1.95001
  0
LINE
  8
0
 10
-58.3
 20
1.95001
 11
-59.7
 21
1.95001
  0
LINE
  8
0
 10
-60.5408
 20
-2.66434
 11
-61.0286
 21
-2.41577
  0
LINE
  8
0
 10
-61.0286
 20
-2.41577
 11
-61.4158
 21
-2.02861
  0
LINE
  8
0
 10
-61.4158
 20
-2.02861
 11
-61.6643
 21
-1.54077
  0
LINE
  8
0
 10
-61.6643
 20
-1.54077
 11
-61.75
 21
-1
  0
LINE
  8
0
 10
-61.75
 20
-1
 11
-61.6643
 21
-0.459213
  0
LINE
  8
0
 10
-61.6643
 20
-0.459213
 11
-61.4158
 21
0.0286255
  0
LINE
  8
0
 10
-61.4158
 20
0.0286255
 11
-61.0286
 21
0.415787
  0
LINE
  8
0
 10
-61.0286
 20
0.415787
 11
-60.5408
 21
0.664352
  0
LINE
  8
0
 10
-60.5408
 20
0.664352
 11
-60
 21
0.75
  0
LINE
  8
0
 10
-60
 20
0.75
 11
-59.4592
 21
0.664352
  0
LINE
  8
0
 10
-59.4592
 20
0.664352
 11
-58.9714
 21
0.415787
  0
LINE
  8
0
 10
-58.9714
 20
0.415787
 11
-58.5842
 21
0.0286255
  0
LINE
  8
0
 10
-58.5842
 20
0.0286255
 11
-58.3357
 21
-0.459213
  0
LINE
  8
0
 10
-58.3357
 20
-0.459213
 11
-58.25
 21
-1
  0
LINE
  8
0
 10
-58.25
 20
-1
 11
-58.3357
 21
-1.54077
  0
LINE
  8
0
 10
-58.3357
 20
-1.54077
 11
-58.5842
 21
-2.02861
  0
LINE
  8
0
 10
-58.5842
 20
-2.02861
 11
-58.9714
 21
-2.41577
  0
LINE
  8
0
 10
-58.9714
 20
-2.41577
 11
-59.4592
 21
-2.66434
  0
LINE
  8
0
 10
-59.4592
 20
-2.66434
 11
-60
 21
-2.75
  0
LINE
  8
0
 10
-60
 20
-2.75
 11
-60.5408
 21
-2.66434
  0
ENDSEC
  0
SECTION
  2
OBJECTS
  0
DICTIONARY
  0
ENDSEC
  0
EOF
