  0
SECTION
  2
BLOCKS
  0
ENDSEC
  0
SECTION
  2
ENTITIES
  0
LINE
  8
0
 10
27.2467
 20
-60.7374
 11
29.8726
 21
-59.0364
  0
LINE
  8
0
 10
29.8726
 20
-59.0364
 11
42.6676
 21
-47.5424
  0
LINE
  8
0
 10
42.6676
 20
-47.5424
 11
44.083
 21
-47
  0
LINE
  8
0
 10
44.083
 20
-47
 11
157
 21
-47
  0
LINE
  8
0
 10
157
 20
-47
 11
159.472
 21
-46.6085
  0
LINE
  8
0
 10
159.472
 20
-46.6085
 11
161.702
 21
-45.4721
  0
LINE
  8
0
 10
161.702
 20
-45.4721
 11
163.472
 21
-43.7023
  0
LINE
  8
0
 10
163.472
 20
-43.7023
 11
164.608
 21
-41.4721
  0
LINE
  8
0
 10
164.608
 20
-41.4721
 11
165
 21
-39
  0
LINE
  8
0
 10
165
 20
-39
 11
165
 21
52
  0
LINE
  8
0
 10
165
 20
52
 11
164.608
 21
54.4721
  0
LINE
  8
0
 10
164.608
 20
54.4721
 11
163.472
 21
56.7023
  0
LINE
  8
0
 10
163.472
 20
56.7023
 11
161.702
 21
58.4721
  0
LINE
  8
0
 10
161.702
 20
58.4721
 11
159.472
 21
59.6085
  0
LINE
  8
0
 10
159.472
 20
59.6085
 11
157
 21
60
  0
LINE
  8
0
 10
157
 20
60
 11
8
 21
60
  0
LINE
  8
0
 10
8
 20
60
 11
5.52786
 21
59.6085
  0
LINE
  8
0
 10
5.52786
 20
59.6085
 11
3.29771
 21
58.4721
  0
LINE
  8
0
 10
3.29771
 20
58.4721
 11
1.52786
 21
56.7023
  0
LINE
  8
0
 10
1.52786
 20
56.7023
 11
0.391541
 21
54.4721
  0
LINE
  8
0
 10
0.391541
 20
54.4721
 11
0
 21
52
  0
LINE
  8
0
 10
0
 20
52
 11
0
 21
-39
  0
LINE
  8
0
 10
0
 20
-39
 11
0.391541
 21
-41.4721
  0
LINE
  8
0
 10
0.391541
 20
-41.4721
 11
1.52786
 21
-43.7023
  0
LINE
  8
0
 10
1.52786
 20
-43.7023
 11
3.29771
 21
-45.4721
  0
LINE
  8
0
 10
3.29771
 20
-45.4721
 11
5.04471
 21
-46.3623
  0
LINE
  8
0
 10
5.04471
 20
-46.3623
 11
15.7507
 21
-58.28
  0
LINE
  8
0
 10
15.7507
 20
-58.28
 11
18.1799
 21
-60.2518
  0
LINE
  8
0
 10
18.1799
 20
-60.2518
 11
21.0994
 21
-61.3763
  0
LINE
  8
0
 10
21.0994
 20
-61.3763
 11
24.2236
 21
-61.5437
  0
LINE
  8
0
 10
24.2236
 20
-61.5437
 11
27.2467
 21
-60.7374
  0
LINE
  8
0
 10
82.7892
 20
52.9356
 11
82.3014
 21
53.1842
  0
LINE
  8
0
 10
82.3014
 20
53.1842
 11
81.9142
 21
53.5714
  0
LINE
  8
0
 10
81.9142
 20
53.5714
 11
81.6656
 21
54.0592
  0
LINE
  8
0
 10
81.6656
 20
54.0592
 11
81.58
 21
54.6
  0
LINE
  8
0
 10
81.58
 20
54.6
 11
81.6656
 21
55.1408
  0
LINE
  8
0
 10
81.6656
 20
55.1408
 11
81.9142
 21
55.6286
  0
LINE
  8
0
 10
81.9142
 20
55.6286
 11
82.3014
 21
56.0158
  0
LINE
  8
0
 10
82.3014
 20
56.0158
 11
82.7892
 21
56.2643
  0
LINE
  8
0
 10
82.7892
 20
56.2643
 11
83.33
 21
56.35
  0
LINE
  8
0
 10
83.33
 20
56.35
 11
83.8708
 21
56.2643
  0
LINE
  8
0
 10
83.8708
 20
56.2643
 11
84.3586
 21
56.0158
  0
LINE
  8
0
 10
84.3586
 20
56.0158
 11
84.7458
 21
55.6286
  0
LINE
  8
0
 10
84.7458
 20
55.6286
 11
84.9943
 21
55.1408
  0
LINE
  8
0
 10
84.9943
 20
55.1408
 11
85.08
 21
54.6
  0
LINE
  8
0
 10
85.08
 20
54.6
 11
84.9943
 21
54.0592
  0
LINE
  8
0
 10
84.9943
 20
54.0592
 11
84.7458
 21
53.5714
  0
LINE
  8
0
 10
84.7458
 20
53.5714
 11
84.3586
 21
53.1842
  0
LINE
  8
0
 10
84.3586
 20
53.1842
 11
83.8708
 21
52.9356
  0
LINE
  8
0
 10
83.8708
 20
52.9356
 11
83.33
 21
52.85
  0
LINE
  8
0
 10
83.33
 20
52.85
 11
82.7892
 21
52.9356
  0
LINE
  8
0
 10
17.4592
 20
51.3357
 11
16.9714
 21
51.5842
  0
LINE
  8
0
 10
16.9714
 20
51.5842
 11
16.5842
 21
51.9714
  0
LINE
  8
0
 10
16.5842
 20
51.9714
 11
16.3357
 21
52.4592
  0
LINE
  8
0
 10
16.3357
 20
52.4592
 11
16.25
 21
53
  0
LINE
  8
0
 10
16.25
 20
53
 11
16.3357
 21
53.5408
  0
LINE
  8
0
 10
16.3357
 20
53.5408
 11
16.5842
 21
54.0286
  0
LINE
  8
0
 10
16.5842
 20
54.0286
 11
16.9714
 21
54.4158
  0
LINE
  8
0
 10
16.9714
 20
54.4158
 11
17.4592
 21
54.6644
  0
LINE
  8
0
 10
17.4592
 20
54.6644
 11
18
 21
54.75
  0
LINE
  8
0
 10
18
 20
54.75
 11
18.5408
 21
54.6644
  0
LINE
  8
0
 10
18.5408
 20
54.6644
 11
19.0286
 21
54.4158
  0
LINE
  8
0
 10
19.0286
 20
54.4158
 11
19.4158
 21
54.0286
  0
LINE
  8
0
 10
19.4158
 20
54.0286
 11
19.6644
 21
53.5408
  0
LINE
  8
0
 10
19.6644
 20
53.5408
 11
19.75
 21
53
  0
LINE
  8
0
 10
19.75
 20
53
 11
19.6644
 21
52.4592
  0
LINE
  8
0
 10
19.6644
 20
52.4592
 11
19.4158
 21
51.9714
  0
LINE
  8
0
 10
19.4158
 20
51.9714
 11
19.0286
 21
51.5842
  0
LINE
  8
0
 10
19.0286
 20
51.5842
 11
18.5408
 21
51.3357
  0
LINE
  8
0
 10
18.5408
 20
51.3357
 11
18
 21
51.25
  0
LINE
  8
0
 10
18
 20
51.25
 11
17.4592
 21
51.3357
  0
LINE
  8
0
 10
119.459
 20
51.3357
 11
118.971
 21
51.5842
  0
LINE
  8
0
 10
118.971
 20
51.5842
 11
118.584
 21
51.9714
  0
LINE
  8
0
 10
118.584
 20
51.9714
 11
118.336
 21
52.4592
  0
LINE
  8
0
 10
118.336
 20
52.4592
 11
118.25
 21
53
  0
LINE
  8
0
 10
118.25
 20
53
 11
118.336
 21
53.5408
  0
LINE
  8
0
 10
118.336
 20
53.5408
 11
118.584
 21
54.0286
  0
LINE
  8
0
 10
118.584
 20
54.0286
 11
118.971
 21
54.4158
  0
LINE
  8
0
 10
118.971
 20
54.4158
 11
119.459
 21
54.6644
  0
LINE
  8
0
 10
119.459
 20
54.6644
 11
120
 21
54.75
  0
LINE
  8
0
 10
120
 20
54.75
 11
120.541
 21
54.6644
  0
LINE
  8
0
 10
120.541
 20
54.6644
 11
121.029
 21
54.4158
  0
LINE
  8
0
 10
121.029
 20
54.4158
 11
121.416
 21
54.0286
  0
LINE
  8
0
 10
121.416
 20
54.0286
 11
121.664
 21
53.5408
  0
LINE
  8
0
 10
121.664
 20
53.5408
 11
121.75
 21
53
  0
LINE
  8
0
 10
121.75
 20
53
 11
121.664
 21
52.4592
  0
LINE
  8
0
 10
121.664
 20
52.4592
 11
121.416
 21
51.9714
  0
LINE
  8
0
 10
121.416
 20
51.9714
 11
121.029
 21
51.5842
  0
LINE
  8
0
 10
121.029
 20
51.5842
 11
120.541
 21
51.3357
  0
LINE
  8
0
 10
120.541
 20
51.3357
 11
120
 21
51.25
  0
LINE
  8
0
 10
120
 20
51.25
 11
119.459
 21
51.3357
  0
LINE
  8
0
 10
71.5792
 20
45.6057
 11
71.0914
 21
45.8542
  0
LINE
  8
0
 10
71.0914
 20
45.8542
 11
70.7042
 21
46.2414
  0
LINE
  8
0
 10
70.7042
 20
46.2414
 11
70.4556
 21
46.7292
  0
LINE
  8
0
 10
70.4556
 20
46.7292
 11
70.37
 21
47.27
  0
LINE
  8
0
 10
70.37
 20
47.27
 11
70.4556
 21
47.8108
  0
LINE
  8
0
 10
70.4556
 20
47.8108
 11
70.7042
 21
48.2986
  0
LINE
  8
0
 10
70.7042
 20
48.2986
 11
71.0914
 21
48.6858
  0
LINE
  8
0
 10
71.0914
 20
48.6858
 11
71.5792
 21
48.9344
  0
LINE
  8
0
 10
71.5792
 20
48.9344
 11
72.12
 21
49.02
  0
LINE
  8
0
 10
72.12
 20
49.02
 11
72.6608
 21
48.9344
  0
LINE
  8
0
 10
72.6608
 20
48.9344
 11
73.1486
 21
48.6858
  0
LINE
  8
0
 10
73.1486
 20
48.6858
 11
73.5358
 21
48.2986
  0
LINE
  8
0
 10
73.5358
 20
48.2986
 11
73.7843
 21
47.8108
  0
LINE
  8
0
 10
73.7843
 20
47.8108
 11
73.87
 21
47.27
  0
LINE
  8
0
 10
73.87
 20
47.27
 11
73.7843
 21
46.7292
  0
LINE
  8
0
 10
73.7843
 20
46.7292
 11
73.5358
 21
46.2414
  0
LINE
  8
0
 10
73.5358
 20
46.2414
 11
73.1486
 21
45.8542
  0
LINE
  8
0
 10
73.1486
 20
45.8542
 11
72.6608
 21
45.6057
  0
LINE
  8
0
 10
72.6608
 20
45.6057
 11
72.12
 21
45.52
  0
LINE
  8
0
 10
72.12
 20
45.52
 11
71.5792
 21
45.6057
  0
LINE
  8
0
 10
33.5492
 20
43.5807
 11
33.0614
 21
43.8292
  0
LINE
  8
0
 10
33.0614
 20
43.8292
 11
32.6742
 21
44.2164
  0
LINE
  8
0
 10
32.6742
 20
44.2164
 11
32.4257
 21
44.7042
  0
LINE
  8
0
 10
32.4257
 20
44.7042
 11
32.34
 21
45.245
  0
LINE
  8
0
 10
32.34
 20
45.245
 11
32.4257
 21
45.7858
  0
LINE
  8
0
 10
32.4257
 20
45.7858
 11
32.6742
 21
46.2736
  0
LINE
  8
0
 10
32.6742
 20
46.2736
 11
33.0614
 21
46.6608
  0
LINE
  8
0
 10
33.0614
 20
46.6608
 11
33.5492
 21
46.9094
  0
LINE
  8
0
 10
33.5492
 20
46.9094
 11
34.09
 21
46.995
  0
LINE
  8
0
 10
34.09
 20
46.995
 11
34.6308
 21
46.9094
  0
LINE
  8
0
 10
34.6308
 20
46.9094
 11
35.1186
 21
46.6608
  0
LINE
  8
0
 10
35.1186
 20
46.6608
 11
35.5058
 21
46.2736
  0
LINE
  8
0
 10
35.5058
 20
46.2736
 11
35.7544
 21
45.7858
  0
LINE
  8
0
 10
35.7544
 20
45.7858
 11
35.84
 21
45.245
  0
LINE
  8
0
 10
35.84
 20
45.245
 11
35.7544
 21
44.7042
  0
LINE
  8
0
 10
35.7544
 20
44.7042
 11
35.5058
 21
44.2164
  0
LINE
  8
0
 10
35.5058
 20
44.2164
 11
35.1186
 21
43.8292
  0
LINE
  8
0
 10
35.1186
 20
43.8292
 11
34.6308
 21
43.5807
  0
LINE
  8
0
 10
34.6308
 20
43.5807
 11
34.09
 21
43.495
  0
LINE
  8
0
 10
34.09
 20
43.495
 11
33.5492
 21
43.5807
  0
LINE
  8
0
 10
45.3692
 20
43.5807
 11
44.8814
 21
43.8292
  0
LINE
  8
0
 10
44.8814
 20
43.8292
 11
44.4942
 21
44.2164
  0
LINE
  8
0
 10
44.4942
 20
44.2164
 11
44.2456
 21
44.7042
  0
LINE
  8
0
 10
44.2456
 20
44.7042
 11
44.16
 21
45.245
  0
LINE
  8
0
 10
44.16
 20
45.245
 11
44.2456
 21
45.7858
  0
LINE
  8
0
 10
44.2456
 20
45.7858
 11
44.4942
 21
46.2736
  0
LINE
  8
0
 10
44.4942
 20
46.2736
 11
44.8814
 21
46.6608
  0
LINE
  8
0
 10
44.8814
 20
46.6608
 11
45.3692
 21
46.9094
  0
LINE
  8
0
 10
45.3692
 20
46.9094
 11
45.91
 21
46.995
  0
LINE
  8
0
 10
45.91
 20
46.995
 11
46.4508
 21
46.9094
  0
LINE
  8
0
 10
46.4508
 20
46.9094
 11
46.9386
 21
46.6608
  0
LINE
  8
0
 10
46.9386
 20
46.6608
 11
47.3258
 21
46.2736
  0
LINE
  8
0
 10
47.3258
 20
46.2736
 11
47.5743
 21
45.7858
  0
LINE
  8
0
 10
47.5743
 20
45.7858
 11
47.66
 21
45.245
  0
LINE
  8
0
 10
47.66
 20
45.245
 11
47.5743
 21
44.7042
  0
LINE
  8
0
 10
47.5743
 20
44.7042
 11
47.3258
 21
44.2164
  0
LINE
  8
0
 10
47.3258
 20
44.2164
 11
46.9386
 21
43.8292
  0
LINE
  8
0
 10
46.9386
 20
43.8292
 11
46.4508
 21
43.5807
  0
LINE
  8
0
 10
46.4508
 20
43.5807
 11
45.91
 21
43.495
  0
LINE
  8
0
 10
45.91
 20
43.495
 11
45.3692
 21
43.5807
  0
LINE
  8
0
 10
58.1592
 20
40.9857
 11
57.6714
 21
41.2342
  0
LINE
  8
0
 10
57.6714
 20
41.2342
 11
57.2842
 21
41.6214
  0
LINE
  8
0
 10
57.2842
 20
41.6214
 11
57.0357
 21
42.1092
  0
LINE
  8
0
 10
57.0357
 20
42.1092
 11
56.95
 21
42.65
  0
LINE
  8
0
 10
56.95
 20
42.65
 11
57.0357
 21
43.1908
  0
LINE
  8
0
 10
57.0357
 20
43.1908
 11
57.2842
 21
43.6786
  0
LINE
  8
0
 10
57.2842
 20
43.6786
 11
57.6714
 21
44.0658
  0
LINE
  8
0
 10
57.6714
 20
44.0658
 11
58.1592
 21
44.3144
  0
LINE
  8
0
 10
58.1592
 20
44.3144
 11
58.7
 21
44.4
  0
LINE
  8
0
 10
58.7
 20
44.4
 11
59.2408
 21
44.3144
  0
LINE
  8
0
 10
59.2408
 20
44.3144
 11
59.7286
 21
44.0658
  0
LINE
  8
0
 10
59.7286
 20
44.0658
 11
60.1158
 21
43.6786
  0
LINE
  8
0
 10
60.1158
 20
43.6786
 11
60.3643
 21
43.1908
  0
LINE
  8
0
 10
60.3643
 20
43.1908
 11
60.45
 21
42.65
  0
LINE
  8
0
 10
60.45
 20
42.65
 11
60.3643
 21
42.1092
  0
LINE
  8
0
 10
60.3643
 20
42.1092
 11
60.1158
 21
41.6214
  0
LINE
  8
0
 10
60.1158
 20
41.6214
 11
59.7286
 21
41.2342
  0
LINE
  8
0
 10
59.7286
 20
41.2342
 11
59.2408
 21
40.9857
  0
LINE
  8
0
 10
59.2408
 20
40.9857
 11
58.7
 21
40.9
  0
LINE
  8
0
 10
58.7
 20
40.9
 11
58.1592
 21
40.9857
  0
LINE
  8
0
 10
153.5
 20
34.75
 11
153.5
 21
38.25
  0
LINE
  8
0
 10
153.5
 20
38.25
 11
155.5
 21
38.25
  0
LINE
  8
0
 10
155.5
 20
38.25
 11
155.5
 21
34.75
  0
LINE
  8
0
 10
155.5
 20
34.75
 11
153.5
 21
34.75
  0
LINE
  8
0
 10
130.5
 20
34.75
 11
130.5
 21
38.25
  0
LINE
  8
0
 10
130.5
 20
38.25
 11
132.5
 21
38.25
  0
LINE
  8
0
 10
132.5
 20
38.25
 11
132.5
 21
34.75
  0
LINE
  8
0
 10
132.5
 20
34.75
 11
130.5
 21
34.75
  0
LINE
  8
0
 10
17.4592
 20
29.8357
 11
16.9714
 21
30.0842
  0
LINE
  8
0
 10
16.9714
 20
30.0842
 11
16.5842
 21
30.4714
  0
LINE
  8
0
 10
16.5842
 20
30.4714
 11
16.3357
 21
30.9592
  0
LINE
  8
0
 10
16.3357
 20
30.9592
 11
16.25
 21
31.5
  0
LINE
  8
0
 10
16.25
 20
31.5
 11
16.3357
 21
32.0408
  0
LINE
  8
0
 10
16.3357
 20
32.0408
 11
16.5842
 21
32.5286
  0
LINE
  8
0
 10
16.5842
 20
32.5286
 11
16.9714
 21
32.9158
  0
LINE
  8
0
 10
16.9714
 20
32.9158
 11
17.4592
 21
33.1644
  0
LINE
  8
0
 10
17.4592
 20
33.1644
 11
18
 21
33.25
  0
LINE
  8
0
 10
18
 20
33.25
 11
18.5408
 21
33.1644
  0
LINE
  8
0
 10
18.5408
 20
33.1644
 11
19.0286
 21
32.9158
  0
LINE
  8
0
 10
19.0286
 20
32.9158
 11
19.4158
 21
32.5286
  0
LINE
  8
0
 10
19.4158
 20
32.5286
 11
19.6644
 21
32.0408
  0
LINE
  8
0
 10
19.6644
 20
32.0408
 11
19.75
 21
31.5
  0
LINE
  8
0
 10
19.75
 20
31.5
 11
19.6644
 21
30.9592
  0
LINE
  8
0
 10
19.6644
 20
30.9592
 11
19.4158
 21
30.4714
  0
LINE
  8
0
 10
19.4158
 20
30.4714
 11
19.0286
 21
30.0842
  0
LINE
  8
0
 10
19.0286
 20
30.0842
 11
18.5408
 21
29.8357
  0
LINE
  8
0
 10
18.5408
 20
29.8357
 11
18
 21
29.75
  0
LINE
  8
0
 10
18
 20
29.75
 11
17.4592
 21
29.8357
  0
LINE
  8
0
 10
111.409
 20
10.1856
 11
110.921
 21
10.4342
  0
LINE
  8
0
 10
110.921
 20
10.4342
 11
110.534
 21
10.8214
  0
LINE
  8
0
 10
110.534
 20
10.8214
 11
110.286
 21
11.3092
  0
LINE
  8
0
 10
110.286
 20
11.3092
 11
110.2
 21
11.85
  0
LINE
  8
0
 10
110.2
 20
11.85
 11
110.286
 21
12.3908
  0
LINE
  8
0
 10
110.286
 20
12.3908
 11
110.534
 21
12.8786
  0
LINE
  8
0
 10
110.534
 20
12.8786
 11
110.921
 21
13.2658
  0
LINE
  8
0
 10
110.921
 20
13.2658
 11
111.409
 21
13.5143
  0
LINE
  8
0
 10
111.409
 20
13.5143
 11
111.95
 21
13.6
  0
LINE
  8
0
 10
111.95
 20
13.6
 11
112.491
 21
13.5143
  0
LINE
  8
0
 10
112.491
 20
13.5143
 11
112.979
 21
13.2658
  0
LINE
  8
0
 10
112.979
 20
13.2658
 11
113.366
 21
12.8786
  0
LINE
  8
0
 10
113.366
 20
12.8786
 11
113.614
 21
12.3908
  0
LINE
  8
0
 10
113.614
 20
12.3908
 11
113.7
 21
11.85
  0
LINE
  8
0
 10
113.7
 20
11.85
 11
113.614
 21
11.3092
  0
LINE
  8
0
 10
113.614
 20
11.3092
 11
113.366
 21
10.8214
  0
LINE
  8
0
 10
113.366
 20
10.8214
 11
112.979
 21
10.4342
  0
LINE
  8
0
 10
112.979
 20
10.4342
 11
112.491
 21
10.1856
  0
LINE
  8
0
 10
112.491
 20
10.1856
 11
111.95
 21
10.1
  0
LINE
  8
0
 10
111.95
 20
10.1
 11
111.409
 21
10.1856
  0
LINE
  8
0
 10
73.5092
 20
10.1856
 11
73.0214
 21
10.4342
  0
LINE
  8
0
 10
73.0214
 20
10.4342
 11
72.6342
 21
10.8214
  0
LINE
  8
0
 10
72.6342
 20
10.8214
 11
72.3857
 21
11.3092
  0
LINE
  8
0
 10
72.3857
 20
11.3092
 11
72.3
 21
11.85
  0
LINE
  8
0
 10
72.3
 20
11.85
 11
72.3857
 21
12.3908
  0
LINE
  8
0
 10
72.3857
 20
12.3908
 11
72.6342
 21
12.8786
  0
LINE
  8
0
 10
72.6342
 20
12.8786
 11
73.0214
 21
13.2658
  0
LINE
  8
0
 10
73.0214
 20
13.2658
 11
73.5092
 21
13.5143
  0
LINE
  8
0
 10
73.5092
 20
13.5143
 11
74.05
 21
13.6
  0
LINE
  8
0
 10
74.05
 20
13.6
 11
74.5908
 21
13.5143
  0
LINE
  8
0
 10
74.5908
 20
13.5143
 11
75.0786
 21
13.2658
  0
LINE
  8
0
 10
75.0786
 20
13.2658
 11
75.4658
 21
12.8786
  0
LINE
  8
0
 10
75.4658
 20
12.8786
 11
75.7144
 21
12.3908
  0
LINE
  8
0
 10
75.7144
 20
12.3908
 11
75.8
 21
11.85
  0
LINE
  8
0
 10
75.8
 20
11.85
 11
75.7144
 21
11.3092
  0
LINE
  8
0
 10
75.7144
 20
11.3092
 11
75.4658
 21
10.8214
  0
LINE
  8
0
 10
75.4658
 20
10.8214
 11
75.0786
 21
10.4342
  0
LINE
  8
0
 10
75.0786
 20
10.4342
 11
74.5908
 21
10.1856
  0
LINE
  8
0
 10
74.5908
 20
10.1856
 11
74.05
 21
10.1
  0
LINE
  8
0
 10
74.05
 20
10.1
 11
73.5092
 21
10.1856
  0
LINE
  8
0
 10
52.4592
 20
4.83566
 11
51.9714
 21
5.08423
  0
LINE
  8
0
 10
51.9714
 20
5.08423
 11
51.5842
 21
5.47139
  0
LINE
  8
0
 10
51.5842
 20
5.47139
 11
51.3357
 21
5.95923
  0
LINE
  8
0
 10
51.3357
 20
5.95923
 11
51.25
 21
6.5
  0
LINE
  8
0
 10
51.25
 20
6.5
 11
51.3357
 21
7.04079
  0
LINE
  8
0
 10
51.3357
 20
7.04079
 11
51.5842
 21
7.52863
  0
LINE
  8
0
 10
51.5842
 20
7.52863
 11
51.9714
 21
7.91579
  0
LINE
  8
0
 10
51.9714
 20
7.91579
 11
52.4592
 21
8.16435
  0
LINE
  8
0
 10
52.4592
 20
8.16435
 11
53
 21
8.25
  0
LINE
  8
0
 10
53
 20
8.25
 11
53.5408
 21
8.16435
  0
LINE
  8
0
 10
53.5408
 20
8.16435
 11
54.0286
 21
7.91579
  0
LINE
  8
0
 10
54.0286
 20
7.91579
 11
54.4158
 21
7.52863
  0
LINE
  8
0
 10
54.4158
 20
7.52863
 11
54.6644
 21
7.04079
  0
LINE
  8
0
 10
54.6644
 20
7.04079
 11
54.75
 21
6.5
  0
LINE
  8
0
 10
54.75
 20
6.5
 11
54.6644
 21
5.95923
  0
LINE
  8
0
 10
54.6644
 20
5.95923
 11
54.4158
 21
5.47139
  0
LINE
  8
0
 10
54.4158
 20
5.47139
 11
54.0286
 21
5.08423
  0
LINE
  8
0
 10
54.0286
 20
5.08423
 11
53.5408
 21
4.83566
  0
LINE
  8
0
 10
53.5408
 20
4.83566
 11
53
 21
4.75
  0
LINE
  8
0
 10
53
 20
4.75
 11
52.4592
 21
4.83566
  0
LINE
  8
0
 10
130.5
 20
4.75
 11
130.5
 21
8.25
  0
LINE
  8
0
 10
130.5
 20
8.25
 11
132.5
 21
8.25
  0
LINE
  8
0
 10
132.5
 20
8.25
 11
132.5
 21
4.75
  0
LINE
  8
0
 10
132.5
 20
4.75
 11
130.5
 21
4.75
  0
LINE
  8
0
 10
153.5
 20
4.75
 11
153.5
 21
8.25
  0
LINE
  8
0
 10
153.5
 20
8.25
 11
155.5
 21
8.25
  0
LINE
  8
0
 10
155.5
 20
8.25
 11
155.5
 21
4.75
  0
LINE
  8
0
 10
155.5
 20
4.75
 11
153.5
 21
4.75
  0
LINE
  8
0
 10
111.409
 20
-13.0643
 11
110.921
 21
-12.8158
  0
LINE
  8
0
 10
110.921
 20
-12.8158
 11
110.534
 21
-12.4286
  0
LINE
  8
0
 10
110.534
 20
-12.4286
 11
110.286
 21
-11.9408
  0
LINE
  8
0
 10
110.286
 20
-11.9408
 11
110.2
 21
-11.4
  0
LINE
  8
0
 10
110.2
 20
-11.4
 11
110.286
 21
-10.8592
  0
LINE
  8
0
 10
110.286
 20
-10.8592
 11
110.534
 21
-10.3714
  0
LINE
  8
0
 10
110.534
 20
-10.3714
 11
110.921
 21
-9.98421
  0
LINE
  8
0
 10
110.921
 20
-9.98421
 11
111.409
 21
-9.73564
  0
LINE
  8
0
 10
111.409
 20
-9.73564
 11
111.95
 21
-9.64999
  0
LINE
  8
0
 10
111.95
 20
-9.64999
 11
112.491
 21
-9.73564
  0
LINE
  8
0
 10
112.491
 20
-9.73564
 11
112.979
 21
-9.98421
  0
LINE
  8
0
 10
112.979
 20
-9.98421
 11
113.366
 21
-10.3714
  0
LINE
  8
0
 10
113.366
 20
-10.3714
 11
113.614
 21
-10.8592
  0
LINE
  8
0
 10
113.614
 20
-10.8592
 11
113.7
 21
-11.4
  0
LINE
  8
0
 10
113.7
 20
-11.4
 11
113.614
 21
-11.9408
  0
LINE
  8
0
 10
113.614
 20
-11.9408
 11
113.366
 21
-12.4286
  0
LINE
  8
0
 10
113.366
 20
-12.4286
 11
112.979
 21
-12.8158
  0
LINE
  8
0
 10
112.979
 20
-12.8158
 11
112.491
 21
-13.0643
  0
LINE
  8
0
 10
112.491
 20
-13.0643
 11
111.95
 21
-13.15
  0
LINE
  8
0
 10
111.95
 20
-13.15
 11
111.409
 21
-13.0643
  0
LINE
  8
0
 10
73.5092
 20
-13.0643
 11
73.0214
 21
-12.8158
  0
LINE
  8
0
 10
73.0214
 20
-12.8158
 11
72.6342
 21
-12.4286
  0
LINE
  8
0
 10
72.6342
 20
-12.4286
 11
72.3857
 21
-11.9408
  0
LINE
  8
0
 10
72.3857
 20
-11.9408
 11
72.3
 21
-11.4
  0
LINE
  8
0
 10
72.3
 20
-11.4
 11
72.3857
 21
-10.8592
  0
LINE
  8
0
 10
72.3857
 20
-10.8592
 11
72.6342
 21
-10.3714
  0
LINE
  8
0
 10
72.6342
 20
-10.3714
 11
73.0214
 21
-9.98421
  0
LINE
  8
0
 10
73.0214
 20
-9.98421
 11
73.5092
 21
-9.73564
  0
LINE
  8
0
 10
73.5092
 20
-9.73564
 11
74.05
 21
-9.64999
  0
LINE
  8
0
 10
74.05
 20
-9.64999
 11
74.5908
 21
-9.73564
  0
LINE
  8
0
 10
74.5908
 20
-9.73564
 11
75.0786
 21
-9.98421
  0
LINE
  8
0
 10
75.0786
 20
-9.98421
 11
75.4658
 21
-10.3714
  0
LINE
  8
0
 10
75.4658
 20
-10.3714
 11
75.7144
 21
-10.8592
  0
LINE
  8
0
 10
75.7144
 20
-10.8592
 11
75.8
 21
-11.4
  0
LINE
  8
0
 10
75.8
 20
-11.4
 11
75.7144
 21
-11.9408
  0
LINE
  8
0
 10
75.7144
 20
-11.9408
 11
75.4658
 21
-12.4286
  0
LINE
  8
0
 10
75.4658
 20
-12.4286
 11
75.0786
 21
-12.8158
  0
LINE
  8
0
 10
75.0786
 20
-12.8158
 11
74.5908
 21
-13.0643
  0
LINE
  8
0
 10
74.5908
 20
-13.0643
 11
74.05
 21
-13.15
  0
LINE
  8
0
 10
74.05
 20
-13.15
 11
73.5092
 21
-13.0643
  0
LINE
  8
0
 10
17.4592
 20
-20.1643
 11
16.9714
 21
-19.9158
  0
LINE
  8
0
 10
16.9714
 20
-19.9158
 11
16.5842
 21
-19.5286
  0
LINE
  8
0
 10
16.5842
 20
-19.5286
 11
16.3357
 21
-19.0408
  0
LINE
  8
0
 10
16.3357
 20
-19.0408
 11
16.25
 21
-18.5
  0
LINE
  8
0
 10
16.25
 20
-18.5
 11
16.3357
 21
-17.9592
  0
LINE
  8
0
 10
16.3357
 20
-17.9592
 11
16.5842
 21
-17.4714
  0
LINE
  8
0
 10
16.5842
 20
-17.4714
 11
16.9714
 21
-17.0842
  0
LINE
  8
0
 10
16.9714
 20
-17.0842
 11
17.4592
 21
-16.8356
  0
LINE
  8
0
 10
17.4592
 20
-16.8356
 11
18
 21
-16.75
  0
LINE
  8
0
 10
18
 20
-16.75
 11
18.5408
 21
-16.8356
  0
LINE
  8
0
 10
18.5408
 20
-16.8356
 11
19.0286
 21
-17.0842
  0
LINE
  8
0
 10
19.0286
 20
-17.0842
 11
19.4158
 21
-17.4714
  0
LINE
  8
0
 10
19.4158
 20
-17.4714
 11
19.6644
 21
-17.9592
  0
LINE
  8
0
 10
19.6644
 20
-17.9592
 11
19.75
 21
-18.5
  0
LINE
  8
0
 10
19.75
 20
-18.5
 11
19.6644
 21
-19.0408
  0
LINE
  8
0
 10
19.6644
 20
-19.0408
 11
19.4158
 21
-19.5286
  0
LINE
  8
0
 10
19.4158
 20
-19.5286
 11
19.0286
 21
-19.9158
  0
LINE
  8
0
 10
19.0286
 20
-19.9158
 11
18.5408
 21
-20.1643
  0
LINE
  8
0
 10
18.5408
 20
-20.1643
 11
18
 21
-20.25
  0
LINE
  8
0
 10
18
 20
-20.25
 11
17.4592
 21
-20.1643
  0
LINE
  8
0
 10
130.5
 20
-25.25
 11
130.5
 21
-21.75
  0
LINE
  8
0
 10
130.5
 20
-21.75
 11
132.5
 21
-21.75
  0
LINE
  8
0
 10
132.5
 20
-21.75
 11
132.5
 21
-25.25
  0
LINE
  8
0
 10
132.5
 20
-25.25
 11
130.5
 21
-25.25
  0
LINE
  8
0
 10
153.5
 20
-25.25
 11
153.5
 21
-21.75
  0
LINE
  8
0
 10
153.5
 20
-21.75
 11
155.5
 21
-21.75
  0
LINE
  8
0
 10
155.5
 20
-21.75
 11
155.5
 21
-25.25
  0
LINE
  8
0
 10
155.5
 20
-25.25
 11
153.5
 21
-25.25
  0
LINE
  8
0
 10
119.459
 20
-41.6643
 11
118.971
 21
-41.4158
  0
LINE
  8
0
 10
118.971
 20
-41.4158
 11
118.584
 21
-41.0286
  0
LINE
  8
0
 10
118.584
 20
-41.0286
 11
118.336
 21
-40.5408
  0
LINE
  8
0
 10
118.336
 20
-40.5408
 11
118.25
 21
-40
  0
LINE
  8
0
 10
118.25
 20
-40
 11
118.336
 21
-39.4592
  0
LINE
  8
0
 10
118.336
 20
-39.4592
 11
118.584
 21
-38.9714
  0
LINE
  8
0
 10
118.584
 20
-38.9714
 11
118.971
 21
-38.5842
  0
LINE
  8
0
 10
118.971
 20
-38.5842
 11
119.459
 21
-38.3356
  0
LINE
  8
0
 10
119.459
 20
-38.3356
 11
120
 21
-38.25
  0
LINE
  8
0
 10
120
 20
-38.25
 11
120.541
 21
-38.3356
  0
LINE
  8
0
 10
120.541
 20
-38.3356
 11
121.029
 21
-38.5842
  0
LINE
  8
0
 10
121.029
 20
-38.5842
 11
121.416
 21
-38.9714
  0
LINE
  8
0
 10
121.416
 20
-38.9714
 11
121.664
 21
-39.4592
  0
LINE
  8
0
 10
121.664
 20
-39.4592
 11
121.75
 21
-40
  0
LINE
  8
0
 10
121.75
 20
-40
 11
121.664
 21
-40.5408
  0
LINE
  8
0
 10
121.664
 20
-40.5408
 11
121.416
 21
-41.0286
  0
LINE
  8
0
 10
121.416
 20
-41.0286
 11
121.029
 21
-41.4158
  0
LINE
  8
0
 10
121.029
 20
-41.4158
 11
120.541
 21
-41.6643
  0
LINE
  8
0
 10
120.541
 20
-41.6643
 11
120
 21
-41.75
  0
LINE
  8
0
 10
120
 20
-41.75
 11
119.459
 21
-41.6643
  0
LINE
  8
0
 10
52.4592
 20
-41.6643
 11
51.9714
 21
-41.4158
  0
LINE
  8
0
 10
51.9714
 20
-41.4158
 11
51.5842
 21
-41.0286
  0
LINE
  8
0
 10
51.5842
 20
-41.0286
 11
51.3357
 21
-40.5408
  0
LINE
  8
0
 10
51.3357
 20
-40.5408
 11
51.25
 21
-40
  0
LINE
  8
0
 10
51.25
 20
-40
 11
51.3357
 21
-39.4592
  0
LINE
  8
0
 10
51.3357
 20
-39.4592
 11
51.5842
 21
-38.9714
  0
LINE
  8
0
 10
51.5842
 20
-38.9714
 11
51.9714
 21
-38.5842
  0
LINE
  8
0
 10
51.9714
 20
-38.5842
 11
52.4592
 21
-38.3356
  0
LINE
  8
0
 10
52.4592
 20
-38.3356
 11
53
 21
-38.25
  0
LINE
  8
0
 10
53
 20
-38.25
 11
53.5408
 21
-38.3356
  0
LINE
  8
0
 10
53.5408
 20
-38.3356
 11
54.0286
 21
-38.5842
  0
LINE
  8
0
 10
54.0286
 20
-38.5842
 11
54.4158
 21
-38.9714
  0
LINE
  8
0
 10
54.4158
 20
-38.9714
 11
54.6644
 21
-39.4592
  0
LINE
  8
0
 10
54.6644
 20
-39.4592
 11
54.75
 21
-40
  0
LINE
  8
0
 10
54.75
 20
-40
 11
54.6644
 21
-40.5408
  0
LINE
  8
0
 10
54.6644
 20
-40.5408
 11
54.4158
 21
-41.0286
  0
LINE
  8
0
 10
54.4158
 20
-41.0286
 11
54.0286
 21
-41.4158
  0
LINE
  8
0
 10
54.0286
 20
-41.4158
 11
53.5408
 21
-41.6643
  0
LINE
  8
0
 10
53.5408
 20
-41.6643
 11
53
 21
-41.75
  0
LINE
  8
0
 10
53
 20
-41.75
 11
52.4592
 21
-41.6643
  0
LINE
  8
0
 10
-41.0994
 20
-61.3763
 11
-38.1799
 21
-60.2518
  0
LINE
  8
0
 10
-38.1799
 20
-60.2518
 11
-35.7507
 21
-58.28
  0
LINE
  8
0
 10
-35.7507
 20
-58.28
 11
-25.6176
 21
-47
  0
LINE
  8
0
 10
-25.6176
 20
-47
 11
-13
 21
-47
  0
LINE
  8
0
 10
-13
 20
-47
 11
-10.5279
 21
-46.6085
  0
LINE
  8
0
 10
-10.5279
 20
-46.6085
 11
-8.29771
 21
-45.4721
  0
LINE
  8
0
 10
-8.29771
 20
-45.4721
 11
-6.52786
 21
-43.7023
  0
LINE
  8
0
 10
-6.52786
 20
-43.7023
 11
-5.39154
 21
-41.4721
  0
LINE
  8
0
 10
-5.39154
 20
-41.4721
 11
-5
 21
-39
  0
LINE
  8
0
 10
-5
 20
-39
 11
-5
 21
52
  0
LINE
  8
0
 10
-5
 20
52
 11
-5.39154
 21
54.4721
  0
LINE
  8
0
 10
-5.39154
 20
54.4721
 11
-6.52786
 21
56.7023
  0
LINE
  8
0
 10
-6.52786
 20
56.7023
 11
-8.29771
 21
58.4721
  0
LINE
  8
0
 10
-8.29771
 20
58.4721
 11
-10.5279
 21
59.6085
  0
LINE
  8
0
 10
-10.5279
 20
59.6085
 11
-13
 21
60
  0
LINE
  8
0
 10
-13
 20
60
 11
-152
 21
60
  0
LINE
  8
0
 10
-152
 20
60
 11
-154.472
 21
59.6085
  0
LINE
  8
0
 10
-154.472
 20
59.6085
 11
-156.702
 21
58.4721
  0
LINE
  8
0
 10
-156.702
 20
58.4721
 11
-158.472
 21
56.7023
  0
LINE
  8
0
 10
-158.472
 20
56.7023
 11
-159.608
 21
54.4721
  0
LINE
  8
0
 10
-159.608
 20
54.4721
 11
-160
 21
52
  0
LINE
  8
0
 10
-160
 20
52
 11
-160
 21
-39
  0
LINE
  8
0
 10
-160
 20
-39
 11
-159.608
 21
-41.4721
  0
LINE
  8
0
 10
-159.608
 20
-41.4721
 11
-158.472
 21
-43.7023
  0
LINE
  8
0
 10
-158.472
 20
-43.7023
 11
-156.702
 21
-45.4721
  0
LINE
  8
0
 10
-156.702
 20
-45.4721
 11
-154.472
 21
-46.6085
  0
LINE
  8
0
 10
-154.472
 20
-46.6085
 11
-152
 21
-47
  0
LINE
  8
0
 10
-152
 20
-47
 11
-64.083
 21
-47
  0
LINE
  8
0
 10
-64.083
 20
-47
 11
-62.6676
 21
-47.5424
  0
LINE
  8
0
 10
-62.6676
 20
-47.5424
 11
-49.8726
 21
-59.0364
  0
LINE
  8
0
 10
-49.8726
 20
-59.0364
 11
-47.2467
 21
-60.7374
  0
LINE
  8
0
 10
-47.2467
 20
-60.7374
 11
-44.2236
 21
-61.5437
  0
LINE
  8
0
 10
-44.2236
 20
-61.5437
 11
-41.0994
 21
-61.3763
  0
LINE
  8
0
 10
-66.7563
 20
52.9612
 11
-67.1047
 21
53.1387
  0
LINE
  8
0
 10
-67.1047
 20
53.1387
 11
-67.3813
 21
53.4153
  0
LINE
  8
0
 10
-67.3813
 20
53.4153
 11
-67.5588
 21
53.7637
  0
LINE
  8
0
 10
-67.5588
 20
53.7637
 11
-67.62
 21
54.15
  0
LINE
  8
0
 10
-67.62
 20
54.15
 11
-67.5588
 21
54.5363
  0
LINE
  8
0
 10
-67.5588
 20
54.5363
 11
-67.3813
 21
54.8847
  0
LINE
  8
0
 10
-67.3813
 20
54.8847
 11
-67.1047
 21
55.1613
  0
LINE
  8
0
 10
-67.1047
 20
55.1613
 11
-66.7563
 21
55.3388
  0
LINE
  8
0
 10
-66.7563
 20
55.3388
 11
-66.37
 21
55.4
  0
LINE
  8
0
 10
-66.37
 20
55.4
 11
-65.9837
 21
55.3388
  0
LINE
  8
0
 10
-65.9837
 20
55.3388
 11
-65.6353
 21
55.1613
  0
LINE
  8
0
 10
-65.6353
 20
55.1613
 11
-65.3587
 21
54.8847
  0
LINE
  8
0
 10
-65.3587
 20
54.8847
 11
-65.1812
 21
54.5363
  0
LINE
  8
0
 10
-65.1812
 20
54.5363
 11
-65.12
 21
54.15
  0
LINE
  8
0
 10
-65.12
 20
54.15
 11
-65.1812
 21
53.7637
  0
LINE
  8
0
 10
-65.1812
 20
53.7637
 11
-65.3587
 21
53.4153
  0
LINE
  8
0
 10
-65.3587
 20
53.4153
 11
-65.6353
 21
53.1387
  0
LINE
  8
0
 10
-65.6353
 20
53.1387
 11
-65.9837
 21
52.9612
  0
LINE
  8
0
 10
-65.9837
 20
52.9612
 11
-66.37
 21
52.9
  0
LINE
  8
0
 10
-66.37
 20
52.9
 11
-66.7563
 21
52.9612
  0
LINE
  8
0
 10
-34.0163
 20
52.9612
 11
-34.3647
 21
53.1387
  0
LINE
  8
0
 10
-34.3647
 20
53.1387
 11
-34.6413
 21
53.4153
  0
LINE
  8
0
 10
-34.6413
 20
53.4153
 11
-34.8188
 21
53.7637
  0
LINE
  8
0
 10
-34.8188
 20
53.7637
 11
-34.88
 21
54.15
  0
LINE
  8
0
 10
-34.88
 20
54.15
 11
-34.8188
 21
54.5363
  0
LINE
  8
0
 10
-34.8188
 20
54.5363
 11
-34.6413
 21
54.8847
  0
LINE
  8
0
 10
-34.6413
 20
54.8847
 11
-34.3647
 21
55.1613
  0
LINE
  8
0
 10
-34.3647
 20
55.1613
 11
-34.0163
 21
55.3388
  0
LINE
  8
0
 10
-34.0163
 20
55.3388
 11
-33.63
 21
55.4
  0
LINE
  8
0
 10
-33.63
 20
55.4
 11
-33.2437
 21
55.3388
  0
LINE
  8
0
 10
-33.2437
 20
55.3388
 11
-32.8953
 21
55.1613
  0
LINE
  8
0
 10
-32.8953
 20
55.1613
 11
-32.6187
 21
54.8847
  0
LINE
  8
0
 10
-32.6187
 20
54.8847
 11
-32.4412
 21
54.5363
  0
LINE
  8
0
 10
-32.4412
 20
54.5363
 11
-32.38
 21
54.15
  0
LINE
  8
0
 10
-32.38
 20
54.15
 11
-32.4412
 21
53.7637
  0
LINE
  8
0
 10
-32.4412
 20
53.7637
 11
-32.6187
 21
53.4153
  0
LINE
  8
0
 10
-32.6187
 20
53.4153
 11
-32.8953
 21
53.1387
  0
LINE
  8
0
 10
-32.8953
 20
53.1387
 11
-33.2437
 21
52.9612
  0
LINE
  8
0
 10
-33.2437
 20
52.9612
 11
-33.63
 21
52.9
  0
LINE
  8
0
 10
-33.63
 20
52.9
 11
-34.0163
 21
52.9612
  0
LINE
  8
0
 10
-20.5408
 20
51.3357
 11
-21.0286
 21
51.5842
  0
LINE
  8
0
 10
-21.0286
 20
51.5842
 11
-21.4158
 21
51.9714
  0
LINE
  8
0
 10
-21.4158
 20
51.9714
 11
-21.6644
 21
52.4592
  0
LINE
  8
0
 10
-21.6644
 20
52.4592
 11
-21.75
 21
53
  0
LINE
  8
0
 10
-21.75
 20
53
 11
-21.6644
 21
53.5408
  0
LINE
  8
0
 10
-21.6644
 20
53.5408
 11
-21.4158
 21
54.0286
  0
LINE
  8
0
 10
-21.4158
 20
54.0286
 11
-21.0286
 21
54.4158
  0
LINE
  8
0
 10
-21.0286
 20
54.4158
 11
-20.5408
 21
54.6644
  0
LINE
  8
0
 10
-20.5408
 20
54.6644
 11
-20
 21
54.75
  0
LINE
  8
0
 10
-20
 20
54.75
 11
-19.4592
 21
54.6644
  0
LINE
  8
0
 10
-19.4592
 20
54.6644
 11
-18.9714
 21
54.4158
  0
LINE
  8
0
 10
-18.9714
 20
54.4158
 11
-18.5842
 21
54.0286
  0
LINE
  8
0
 10
-18.5842
 20
54.0286
 11
-18.3357
 21
53.5408
  0
LINE
  8
0
 10
-18.3357
 20
53.5408
 11
-18.25
 21
53
  0
LINE
  8
0
 10
-18.25
 20
53
 11
-18.3357
 21
52.4592
  0
LINE
  8
0
 10
-18.3357
 20
52.4592
 11
-18.5842
 21
51.9714
  0
LINE
  8
0
 10
-18.5842
 20
51.9714
 11
-18.9714
 21
51.5842
  0
LINE
  8
0
 10
-18.9714
 20
51.5842
 11
-19.4592
 21
51.3357
  0
LINE
  8
0
 10
-19.4592
 20
51.3357
 11
-20
 21
51.25
  0
LINE
  8
0
 10
-20
 20
51.25
 11
-20.5408
 21
51.3357
  0
LINE
  8
0
 10
-140.541
 20
51.3357
 11
-141.029
 21
51.5842
  0
LINE
  8
0
 10
-141.029
 20
51.5842
 11
-141.416
 21
51.9714
  0
LINE
  8
0
 10
-141.416
 20
51.9714
 11
-141.664
 21
52.4592
  0
LINE
  8
0
 10
-141.664
 20
52.4592
 11
-141.75
 21
53
  0
LINE
  8
0
 10
-141.75
 20
53
 11
-141.664
 21
53.5408
  0
LINE
  8
0
 10
-141.664
 20
53.5408
 11
-141.416
 21
54.0286
  0
LINE
  8
0
 10
-141.416
 20
54.0286
 11
-141.029
 21
54.4158
  0
LINE
  8
0
 10
-141.029
 20
54.4158
 11
-140.541
 21
54.6644
  0
LINE
  8
0
 10
-140.541
 20
54.6644
 11
-140
 21
54.75
  0
LINE
  8
0
 10
-140
 20
54.75
 11
-139.459
 21
54.6644
  0
LINE
  8
0
 10
-139.459
 20
54.6644
 11
-138.971
 21
54.4158
  0
LINE
  8
0
 10
-138.971
 20
54.4158
 11
-138.584
 21
54.0286
  0
LINE
  8
0
 10
-138.584
 20
54.0286
 11
-138.336
 21
53.5408
  0
LINE
  8
0
 10
-138.336
 20
53.5408
 11
-138.25
 21
53
  0
LINE
  8
0
 10
-138.25
 20
53
 11
-138.336
 21
52.4592
  0
LINE
  8
0
 10
-138.336
 20
52.4592
 11
-138.584
 21
51.9714
  0
LINE
  8
0
 10
-138.584
 20
51.9714
 11
-138.971
 21
51.5842
  0
LINE
  8
0
 10
-138.971
 20
51.5842
 11
-139.459
 21
51.3357
  0
LINE
  8
0
 10
-139.459
 20
51.3357
 11
-140
 21
51.25
  0
LINE
  8
0
 10
-140
 20
51.25
 11
-140.541
 21
51.3357
  0
LINE
  8
0
 10
-84.6308
 20
43.5807
 11
-85.1186
 21
43.8292
  0
LINE
  8
0
 10
-85.1186
 20
43.8292
 11
-85.5058
 21
44.2164
  0
LINE
  8
0
 10
-85.5058
 20
44.2164
 11
-85.7544
 21
44.7042
  0
LINE
  8
0
 10
-85.7544
 20
44.7042
 11
-85.84
 21
45.245
  0
LINE
  8
0
 10
-85.84
 20
45.245
 11
-85.7544
 21
45.7858
  0
LINE
  8
0
 10
-85.7544
 20
45.7858
 11
-85.5058
 21
46.2736
  0
LINE
  8
0
 10
-85.5058
 20
46.2736
 11
-85.1186
 21
46.6608
  0
LINE
  8
0
 10
-85.1186
 20
46.6608
 11
-84.6308
 21
46.9094
  0
LINE
  8
0
 10
-84.6308
 20
46.9094
 11
-84.09
 21
46.995
  0
LINE
  8
0
 10
-84.09
 20
46.995
 11
-83.5492
 21
46.9094
  0
LINE
  8
0
 10
-83.5492
 20
46.9094
 11
-83.0614
 21
46.6608
  0
LINE
  8
0
 10
-83.0614
 20
46.6608
 11
-82.6742
 21
46.2736
  0
LINE
  8
0
 10
-82.6742
 20
46.2736
 11
-82.4257
 21
45.7858
  0
LINE
  8
0
 10
-82.4257
 20
45.7858
 11
-82.34
 21
45.245
  0
LINE
  8
0
 10
-82.34
 20
45.245
 11
-82.4257
 21
44.7042
  0
LINE
  8
0
 10
-82.4257
 20
44.7042
 11
-82.6742
 21
44.2164
  0
LINE
  8
0
 10
-82.6742
 20
44.2164
 11
-83.0614
 21
43.8292
  0
LINE
  8
0
 10
-83.0614
 20
43.8292
 11
-83.5492
 21
43.5807
  0
LINE
  8
0
 10
-83.5492
 20
43.5807
 11
-84.09
 21
43.495
  0
LINE
  8
0
 10
-84.09
 20
43.495
 11
-84.6308
 21
43.5807
  0
LINE
  8
0
 10
-96.4508
 20
43.5807
 11
-96.9386
 21
43.8292
  0
LINE
  8
0
 10
-96.9386
 20
43.8292
 11
-97.3258
 21
44.2164
  0
LINE
  8
0
 10
-97.3258
 20
44.2164
 11
-97.5743
 21
44.7042
  0
LINE
  8
0
 10
-97.5743
 20
44.7042
 11
-97.66
 21
45.245
  0
LINE
  8
0
 10
-97.66
 20
45.245
 11
-97.5743
 21
45.7858
  0
LINE
  8
0
 10
-97.5743
 20
45.7858
 11
-97.3258
 21
46.2736
  0
LINE
  8
0
 10
-97.3258
 20
46.2736
 11
-96.9386
 21
46.6608
  0
LINE
  8
0
 10
-96.9386
 20
46.6608
 11
-96.4508
 21
46.9094
  0
LINE
  8
0
 10
-96.4508
 20
46.9094
 11
-95.91
 21
46.995
  0
LINE
  8
0
 10
-95.91
 20
46.995
 11
-95.3692
 21
46.9094
  0
LINE
  8
0
 10
-95.3692
 20
46.9094
 11
-94.8814
 21
46.6608
  0
LINE
  8
0
 10
-94.8814
 20
46.6608
 11
-94.4942
 21
46.2736
  0
LINE
  8
0
 10
-94.4942
 20
46.2736
 11
-94.2456
 21
45.7858
  0
LINE
  8
0
 10
-94.2456
 20
45.7858
 11
-94.16
 21
45.245
  0
LINE
  8
0
 10
-94.16
 20
45.245
 11
-94.2456
 21
44.7042
  0
LINE
  8
0
 10
-94.2456
 20
44.7042
 11
-94.4942
 21
44.2164
  0
LINE
  8
0
 10
-94.4942
 20
44.2164
 11
-94.8814
 21
43.8292
  0
LINE
  8
0
 10
-94.8814
 20
43.8292
 11
-95.3692
 21
43.5807
  0
LINE
  8
0
 10
-95.3692
 20
43.5807
 11
-95.91
 21
43.495
  0
LINE
  8
0
 10
-95.91
 20
43.495
 11
-96.4508
 21
43.5807
  0
LINE
  8
0
 10
-20.5408
 20
29.8357
 11
-21.0286
 21
30.0842
  0
LINE
  8
0
 10
-21.0286
 20
30.0842
 11
-21.4158
 21
30.4714
  0
LINE
  8
0
 10
-21.4158
 20
30.4714
 11
-21.6644
 21
30.9592
  0
LINE
  8
0
 10
-21.6644
 20
30.9592
 11
-21.75
 21
31.5
  0
LINE
  8
0
 10
-21.75
 20
31.5
 11
-21.6644
 21
32.0408
  0
LINE
  8
0
 10
-21.6644
 20
32.0408
 11
-21.4158
 21
32.5286
  0
LINE
  8
0
 10
-21.4158
 20
32.5286
 11
-21.0286
 21
32.9158
  0
LINE
  8
0
 10
-21.0286
 20
32.9158
 11
-20.5408
 21
33.1644
  0
LINE
  8
0
 10
-20.5408
 20
33.1644
 11
-20
 21
33.25
  0
LINE
  8
0
 10
-20
 20
33.25
 11
-19.4592
 21
33.1644
  0
LINE
  8
0
 10
-19.4592
 20
33.1644
 11
-18.9714
 21
32.9158
  0
LINE
  8
0
 10
-18.9714
 20
32.9158
 11
-18.5842
 21
32.5286
  0
LINE
  8
0
 10
-18.5842
 20
32.5286
 11
-18.3357
 21
32.0408
  0
LINE
  8
0
 10
-18.3357
 20
32.0408
 11
-18.25
 21
31.5
  0
LINE
  8
0
 10
-18.25
 20
31.5
 11
-18.3357
 21
30.9592
  0
LINE
  8
0
 10
-18.3357
 20
30.9592
 11
-18.5842
 21
30.4714
  0
LINE
  8
0
 10
-18.5842
 20
30.4714
 11
-18.9714
 21
30.0842
  0
LINE
  8
0
 10
-18.9714
 20
30.0842
 11
-19.4592
 21
29.8357
  0
LINE
  8
0
 10
-19.4592
 20
29.8357
 11
-20
 21
29.75
  0
LINE
  8
0
 10
-20
 20
29.75
 11
-20.5408
 21
29.8357
  0
LINE
  8
0
 10
-90.5408
 20
29.8357
 11
-91.0286
 21
30.0842
  0
LINE
  8
0
 10
-91.0286
 20
30.0842
 11
-91.4158
 21
30.4714
  0
LINE
  8
0
 10
-91.4158
 20
30.4714
 11
-91.6644
 21
30.9592
  0
LINE
  8
0
 10
-91.6644
 20
30.9592
 11
-91.75
 21
31.5
  0
LINE
  8
0
 10
-91.75
 20
31.5
 11
-91.6644
 21
32.0408
  0
LINE
  8
0
 10
-91.6644
 20
32.0408
 11
-91.4158
 21
32.5286
  0
LINE
  8
0
 10
-91.4158
 20
32.5286
 11
-91.0286
 21
32.9158
  0
LINE
  8
0
 10
-91.0286
 20
32.9158
 11
-90.5408
 21
33.1644
  0
LINE
  8
0
 10
-90.5408
 20
33.1644
 11
-90
 21
33.25
  0
LINE
  8
0
 10
-90
 20
33.25
 11
-89.4592
 21
33.1644
  0
LINE
  8
0
 10
-89.4592
 20
33.1644
 11
-88.9714
 21
32.9158
  0
LINE
  8
0
 10
-88.9714
 20
32.9158
 11
-88.5842
 21
32.5286
  0
LINE
  8
0
 10
-88.5842
 20
32.5286
 11
-88.3357
 21
32.0408
  0
LINE
  8
0
 10
-88.3357
 20
32.0408
 11
-88.25
 21
31.5
  0
LINE
  8
0
 10
-88.25
 20
31.5
 11
-88.3357
 21
30.9592
  0
LINE
  8
0
 10
-88.3357
 20
30.9592
 11
-88.5842
 21
30.4714
  0
LINE
  8
0
 10
-88.5842
 20
30.4714
 11
-88.9714
 21
30.0842
  0
LINE
  8
0
 10
-88.9714
 20
30.0842
 11
-89.4592
 21
29.8357
  0
LINE
  8
0
 10
-89.4592
 20
29.8357
 11
-90
 21
29.75
  0
LINE
  8
0
 10
-90
 20
29.75
 11
-90.5408
 21
29.8357
  0
LINE
  8
0
 10
-139.086
 20
28.3112
 11
-139.435
 21
28.4887
  0
LINE
  8
0
 10
-139.435
 20
28.4887
 11
-139.711
 21
28.7653
  0
LINE
  8
0
 10
-139.711
 20
28.7653
 11
-139.889
 21
29.1137
  0
LINE
  8
0
 10
-139.889
 20
29.1137
 11
-139.95
 21
29.5
  0
LINE
  8
0
 10
-139.95
 20
29.5
 11
-139.889
 21
29.8863
  0
LINE
  8
0
 10
-139.889
 20
29.8863
 11
-139.711
 21
30.2347
  0
LINE
  8
0
 10
-139.711
 20
30.2347
 11
-139.435
 21
30.5113
  0
LINE
  8
0
 10
-139.435
 20
30.5113
 11
-139.086
 21
30.6888
  0
LINE
  8
0
 10
-139.086
 20
30.6888
 11
-138.7
 21
30.75
  0
LINE
  8
0
 10
-138.7
 20
30.75
 11
-138.314
 21
30.6888
  0
LINE
  8
0
 10
-138.314
 20
30.6888
 11
-137.965
 21
30.5113
  0
LINE
  8
0
 10
-137.965
 20
30.5113
 11
-137.689
 21
30.2347
  0
LINE
  8
0
 10
-137.689
 20
30.2347
 11
-137.511
 21
29.8863
  0
LINE
  8
0
 10
-137.511
 20
29.8863
 11
-137.45
 21
29.5
  0
LINE
  8
0
 10
-137.45
 20
29.5
 11
-137.511
 21
29.1137
  0
LINE
  8
0
 10
-137.511
 20
29.1137
 11
-137.689
 21
28.7653
  0
LINE
  8
0
 10
-137.689
 20
28.7653
 11
-137.965
 21
28.4887
  0
LINE
  8
0
 10
-137.965
 20
28.4887
 11
-138.314
 21
28.3112
  0
LINE
  8
0
 10
-138.314
 20
28.3112
 11
-138.7
 21
28.25
  0
LINE
  8
0
 10
-138.7
 20
28.25
 11
-139.086
 21
28.3112
  0
LINE
  8
0
 10
-127.686
 20
28.3112
 11
-128.035
 21
28.4887
  0
LINE
  8
0
 10
-128.035
 20
28.4887
 11
-128.311
 21
28.7653
  0
LINE
  8
0
 10
-128.311
 20
28.7653
 11
-128.489
 21
29.1137
  0
LINE
  8
0
 10
-128.489
 20
29.1137
 11
-128.55
 21
29.5
  0
LINE
  8
0
 10
-128.55
 20
29.5
 11
-128.489
 21
29.8863
  0
LINE
  8
0
 10
-128.489
 20
29.8863
 11
-128.311
 21
30.2347
  0
LINE
  8
0
 10
-128.311
 20
30.2347
 11
-128.035
 21
30.5113
  0
LINE
  8
0
 10
-128.035
 20
30.5113
 11
-127.686
 21
30.6888
  0
LINE
  8
0
 10
-127.686
 20
30.6888
 11
-127.3
 21
30.75
  0
LINE
  8
0
 10
-127.3
 20
30.75
 11
-126.914
 21
30.6888
  0
LINE
  8
0
 10
-126.914
 20
30.6888
 11
-126.565
 21
30.5113
  0
LINE
  8
0
 10
-126.565
 20
30.5113
 11
-126.289
 21
30.2347
  0
LINE
  8
0
 10
-126.289
 20
30.2347
 11
-126.111
 21
29.8863
  0
LINE
  8
0
 10
-126.111
 20
29.8863
 11
-126.05
 21
29.5
  0
LINE
  8
0
 10
-126.05
 20
29.5
 11
-126.111
 21
29.1137
  0
LINE
  8
0
 10
-126.111
 20
29.1137
 11
-126.289
 21
28.7653
  0
LINE
  8
0
 10
-126.289
 20
28.7653
 11
-126.565
 21
28.4887
  0
LINE
  8
0
 10
-126.565
 20
28.4887
 11
-126.914
 21
28.3112
  0
LINE
  8
0
 10
-126.914
 20
28.3112
 11
-127.3
 21
28.25
  0
LINE
  8
0
 10
-127.3
 20
28.25
 11
-127.686
 21
28.3112
  0
LINE
  8
0
 10
-91.4
 20
1.40001
 11
-92.1725
 21
1.52237
  0
LINE
  8
0
 10
-92.1725
 20
1.52237
 11
-92.8695
 21
1.87747
  0
LINE
  8
0
 10
-92.8695
 20
1.87747
 11
-92.992
 21
2
  0
LINE
  8
0
 10
-92.992
 20
2
 11
-99.8
 21
2.00002
  0
LINE
  8
0
 10
-99.8
 20
2.00002
 11
-100.171
 21
2.05875
  0
LINE
  8
0
 10
-100.171
 20
2.05875
 11
-100.505
 21
2.22919
  0
LINE
  8
0
 10
-100.505
 20
2.22919
 11
-100.771
 21
2.49467
  0
LINE
  8
0
 10
-100.771
 20
2.49467
 11
-100.941
 21
2.82919
  0
LINE
  8
0
 10
-100.941
 20
2.82919
 11
-101
 21
3.20001
  0
LINE
  8
0
 10
-101
 20
3.20001
 11
-101
 21
4.20001
  0
LINE
  8
0
 10
-101
 20
4.20001
 11
-100.941
 21
4.57083
  0
LINE
  8
0
 10
-100.941
 20
4.57083
 11
-100.771
 21
4.90535
  0
LINE
  8
0
 10
-100.771
 20
4.90535
 11
-100.505
 21
5.17084
  0
LINE
  8
0
 10
-100.505
 20
5.17084
 11
-100.171
 21
5.34128
  0
LINE
  8
0
 10
-100.171
 20
5.34128
 11
-99.8
 21
5.40001
  0
LINE
  8
0
 10
-99.8
 20
5.40001
 11
-99.0758
 21
5.40001
  0
LINE
  8
0
 10
-99.0758
 20
5.40001
 11
-99.25
 21
6.5
  0
LINE
  8
0
 10
-99.25
 20
6.5
 11
-99.0916
 21
7.5
  0
LINE
  8
0
 10
-99.0916
 20
7.5
 11
-100.8
 21
7.5
  0
LINE
  8
0
 10
-100.8
 20
7.5
 11
-101.171
 21
7.55873
  0
LINE
  8
0
 10
-101.171
 20
7.55873
 11
-101.505
 21
7.72917
  0
LINE
  8
0
 10
-101.505
 20
7.72917
 11
-101.771
 21
7.99466
  0
LINE
  8
0
 10
-101.771
 20
7.99466
 11
-101.941
 21
8.32918
  0
LINE
  8
0
 10
-101.941
 20
8.32918
 11
-102
 21
8.7
  0
LINE
  8
0
 10
-102
 20
8.7
 11
-102
 21
9.7
  0
LINE
  8
0
 10
-102
 20
9.7
 11
-101.941
 21
10.0708
  0
LINE
  8
0
 10
-101.941
 20
10.0708
 11
-101.771
 21
10.4053
  0
LINE
  8
0
 10
-101.771
 20
10.4053
 11
-101.505
 21
10.6708
  0
LINE
  8
0
 10
-101.505
 20
10.6708
 11
-101.171
 21
10.8413
  0
LINE
  8
0
 10
-101.171
 20
10.8413
 11
-100.8
 21
10.9
  0
LINE
  8
0
 10
-100.8
 20
10.9
 11
-99.3
 21
10.9
  0
LINE
  8
0
 10
-99.3
 20
10.9
 11
-99.3
 21
11.3
  0
LINE
  8
0
 10
-99.3
 20
11.3
 11
-99.2412
 21
11.6708
  0
LINE
  8
0
 10
-99.2412
 20
11.6708
 11
-99.0708
 21
12.0053
  0
LINE
  8
0
 10
-99.0708
 20
12.0053
 11
-98.8053
 21
12.2708
  0
LINE
  8
0
 10
-98.8053
 20
12.2708
 11
-98.4708
 21
12.4413
  0
LINE
  8
0
 10
-98.4708
 20
12.4413
 11
-98.1
 21
12.5
  0
LINE
  8
0
 10
-98.1
 20
12.5
 11
-42.5
 21
12.5
  0
LINE
  8
0
 10
-42.5
 20
12.5
 11
-42.1292
 21
12.4413
  0
LINE
  8
0
 10
-42.1292
 20
12.4413
 11
-41.7947
 21
12.2708
  0
LINE
  8
0
 10
-41.7947
 20
12.2708
 11
-41.5292
 21
12.0053
  0
LINE
  8
0
 10
-41.5292
 20
12.0053
 11
-41.3587
 21
11.6708
  0
LINE
  8
0
 10
-41.3587
 20
11.6708
 11
-41.3
 21
11.3
  0
LINE
  8
0
 10
-41.3
 20
11.3
 11
-41.3
 21
11
  0
LINE
  8
0
 10
-41.3
 20
11
 11
-41.25
 21
11
  0
LINE
  8
0
 10
-41.25
 20
11
 11
-39.8594
 21
10.7797
  0
LINE
  8
0
 10
-39.8594
 20
10.7797
 11
-38.605
 21
10.1406
  0
LINE
  8
0
 10
-38.605
 20
10.1406
 11
-37.6094
 21
9.14502
  0
LINE
  8
0
 10
-37.6094
 20
9.14502
 11
-36.9703
 21
7.89056
  0
LINE
  8
0
 10
-36.9703
 20
7.89056
 11
-36.75
 21
6.5
  0
LINE
  8
0
 10
-36.75
 20
6.5
 11
-36.9703
 21
5.10944
  0
LINE
  8
0
 10
-36.9703
 20
5.10944
 11
-37.6094
 21
3.85498
  0
LINE
  8
0
 10
-37.6094
 20
3.85498
 11
-38.605
 21
2.85944
  0
LINE
  8
0
 10
-38.605
 20
2.85944
 11
-39.3532
 21
2.4782
  0
LINE
  8
0
 10
-39.3532
 20
2.4782
 11
-39.3775
 21
2.43056
  0
LINE
  8
0
 10
-39.3775
 20
2.43056
 11
-39.9306
 21
1.87747
  0
LINE
  8
0
 10
-39.9306
 20
1.87747
 11
-40.6275
 21
1.52237
  0
LINE
  8
0
 10
-40.6275
 20
1.52237
 11
-41.4
 21
1.40001
  0
LINE
  8
0
 10
-41.4
 20
1.40001
 11
-91.4
 21
1.40001
  0
LINE
  8
0
 10
-127.686
 20
-17.6888
 11
-128.035
 21
-17.5113
  0
LINE
  8
0
 10
-128.035
 20
-17.5113
 11
-128.311
 21
-17.2347
  0
LINE
  8
0
 10
-128.311
 20
-17.2347
 11
-128.489
 21
-16.8863
  0
LINE
  8
0
 10
-128.489
 20
-16.8863
 11
-128.55
 21
-16.5
  0
LINE
  8
0
 10
-128.55
 20
-16.5
 11
-128.489
 21
-16.1137
  0
LINE
  8
0
 10
-128.489
 20
-16.1137
 11
-128.311
 21
-15.7653
  0
LINE
  8
0
 10
-128.311
 20
-15.7653
 11
-128.035
 21
-15.4887
  0
LINE
  8
0
 10
-128.035
 20
-15.4887
 11
-127.686
 21
-15.3112
  0
LINE
  8
0
 10
-127.686
 20
-15.3112
 11
-127.3
 21
-15.25
  0
LINE
  8
0
 10
-127.3
 20
-15.25
 11
-126.914
 21
-15.3112
  0
LINE
  8
0
 10
-126.914
 20
-15.3112
 11
-126.565
 21
-15.4887
  0
LINE
  8
0
 10
-126.565
 20
-15.4887
 11
-126.289
 21
-15.7653
  0
LINE
  8
0
 10
-126.289
 20
-15.7653
 11
-126.111
 21
-16.1137
  0
LINE
  8
0
 10
-126.111
 20
-16.1137
 11
-126.05
 21
-16.5
  0
LINE
  8
0
 10
-126.05
 20
-16.5
 11
-126.111
 21
-16.8863
  0
LINE
  8
0
 10
-126.111
 20
-16.8863
 11
-126.289
 21
-17.2347
  0
LINE
  8
0
 10
-126.289
 20
-17.2347
 11
-126.565
 21
-17.5113
  0
LINE
  8
0
 10
-126.565
 20
-17.5113
 11
-126.914
 21
-17.6888
  0
LINE
  8
0
 10
-126.914
 20
-17.6888
 11
-127.3
 21
-17.75
  0
LINE
  8
0
 10
-127.3
 20
-17.75
 11
-127.686
 21
-17.6888
  0
LINE
  8
0
 10
-139.086
 20
-17.6888
 11
-139.435
 21
-17.5113
  0
LINE
  8
0
 10
-139.435
 20
-17.5113
 11
-139.711
 21
-17.2347
  0
LINE
  8
0
 10
-139.711
 20
-17.2347
 11
-139.889
 21
-16.8863
  0
LINE
  8
0
 10
-139.889
 20
-16.8863
 11
-139.95
 21
-16.5
  0
LINE
  8
0
 10
-139.95
 20
-16.5
 11
-139.889
 21
-16.1137
  0
LINE
  8
0
 10
-139.889
 20
-16.1137
 11
-139.711
 21
-15.7653
  0
LINE
  8
0
 10
-139.711
 20
-15.7653
 11
-139.435
 21
-15.4887
  0
LINE
  8
0
 10
-139.435
 20
-15.4887
 11
-139.086
 21
-15.3112
  0
LINE
  8
0
 10
-139.086
 20
-15.3112
 11
-138.7
 21
-15.25
  0
LINE
  8
0
 10
-138.7
 20
-15.25
 11
-138.314
 21
-15.3112
  0
LINE
  8
0
 10
-138.314
 20
-15.3112
 11
-137.965
 21
-15.4887
  0
LINE
  8
0
 10
-137.965
 20
-15.4887
 11
-137.689
 21
-15.7653
  0
LINE
  8
0
 10
-137.689
 20
-15.7653
 11
-137.511
 21
-16.1137
  0
LINE
  8
0
 10
-137.511
 20
-16.1137
 11
-137.45
 21
-16.5
  0
LINE
  8
0
 10
-137.45
 20
-16.5
 11
-137.511
 21
-16.8863
  0
LINE
  8
0
 10
-137.511
 20
-16.8863
 11
-137.689
 21
-17.2347
  0
LINE
  8
0
 10
-137.689
 20
-17.2347
 11
-137.965
 21
-17.5113
  0
LINE
  8
0
 10
-137.965
 20
-17.5113
 11
-138.314
 21
-17.6888
  0
LINE
  8
0
 10
-138.314
 20
-17.6888
 11
-138.7
 21
-17.75
  0
LINE
  8
0
 10
-138.7
 20
-17.75
 11
-139.086
 21
-17.6888
  0
LINE
  8
0
 10
-90.5408
 20
-20.1643
 11
-91.0286
 21
-19.9158
  0
LINE
  8
0
 10
-91.0286
 20
-19.9158
 11
-91.4158
 21
-19.5286
  0
LINE
  8
0
 10
-91.4158
 20
-19.5286
 11
-91.6644
 21
-19.0408
  0
LINE
  8
0
 10
-91.6644
 20
-19.0408
 11
-91.75
 21
-18.5
  0
LINE
  8
0
 10
-91.75
 20
-18.5
 11
-91.6644
 21
-17.9592
  0
LINE
  8
0
 10
-91.6644
 20
-17.9592
 11
-91.4158
 21
-17.4714
  0
LINE
  8
0
 10
-91.4158
 20
-17.4714
 11
-91.0286
 21
-17.0842
  0
LINE
  8
0
 10
-91.0286
 20
-17.0842
 11
-90.5408
 21
-16.8356
  0
LINE
  8
0
 10
-90.5408
 20
-16.8356
 11
-90
 21
-16.75
  0
LINE
  8
0
 10
-90
 20
-16.75
 11
-89.4592
 21
-16.8356
  0
LINE
  8
0
 10
-89.4592
 20
-16.8356
 11
-88.9714
 21
-17.0842
  0
LINE
  8
0
 10
-88.9714
 20
-17.0842
 11
-88.5842
 21
-17.4714
  0
LINE
  8
0
 10
-88.5842
 20
-17.4714
 11
-88.3357
 21
-17.9592
  0
LINE
  8
0
 10
-88.3357
 20
-17.9592
 11
-88.25
 21
-18.5
  0
LINE
  8
0
 10
-88.25
 20
-18.5
 11
-88.3357
 21
-19.0408
  0
LINE
  8
0
 10
-88.3357
 20
-19.0408
 11
-88.5842
 21
-19.5286
  0
LINE
  8
0
 10
-88.5842
 20
-19.5286
 11
-88.9714
 21
-19.9158
  0
LINE
  8
0
 10
-88.9714
 20
-19.9158
 11
-89.4592
 21
-20.1643
  0
LINE
  8
0
 10
-89.4592
 20
-20.1643
 11
-90
 21
-20.25
  0
LINE
  8
0
 10
-90
 20
-20.25
 11
-90.5408
 21
-20.1643
  0
LINE
  8
0
 10
-20.5408
 20
-20.1643
 11
-21.0286
 21
-19.9158
  0
LINE
  8
0
 10
-21.0286
 20
-19.9158
 11
-21.4158
 21
-19.5286
  0
LINE
  8
0
 10
-21.4158
 20
-19.5286
 11
-21.6644
 21
-19.0408
  0
LINE
  8
0
 10
-21.6644
 20
-19.0408
 11
-21.75
 21
-18.5
  0
LINE
  8
0
 10
-21.75
 20
-18.5
 11
-21.6644
 21
-17.9592
  0
LINE
  8
0
 10
-21.6644
 20
-17.9592
 11
-21.4158
 21
-17.4714
  0
LINE
  8
0
 10
-21.4158
 20
-17.4714
 11
-21.0286
 21
-17.0842
  0
LINE
  8
0
 10
-21.0286
 20
-17.0842
 11
-20.5408
 21
-16.8356
  0
LINE
  8
0
 10
-20.5408
 20
-16.8356
 11
-20
 21
-16.75
  0
LINE
  8
0
 10
-20
 20
-16.75
 11
-19.4592
 21
-16.8356
  0
LINE
  8
0
 10
-19.4592
 20
-16.8356
 11
-18.9714
 21
-17.0842
  0
LINE
  8
0
 10
-18.9714
 20
-17.0842
 11
-18.5842
 21
-17.4714
  0
LINE
  8
0
 10
-18.5842
 20
-17.4714
 11
-18.3357
 21
-17.9592
  0
LINE
  8
0
 10
-18.3357
 20
-17.9592
 11
-18.25
 21
-18.5
  0
LINE
  8
0
 10
-18.25
 20
-18.5
 11
-18.3357
 21
-19.0408
  0
LINE
  8
0
 10
-18.3357
 20
-19.0408
 11
-18.5842
 21
-19.5286
  0
LINE
  8
0
 10
-18.5842
 20
-19.5286
 11
-18.9714
 21
-19.9158
  0
LINE
  8
0
 10
-18.9714
 20
-19.9158
 11
-19.4592
 21
-20.1643
  0
LINE
  8
0
 10
-19.4592
 20
-20.1643
 11
-20
 21
-20.25
  0
LINE
  8
0
 10
-20
 20
-20.25
 11
-20.5408
 21
-20.1643
  0
LINE
  8
0
 10
-140.541
 20
-41.6643
 11
-141.029
 21
-41.4158
  0
LINE
  8
0
 10
-141.029
 20
-41.4158
 11
-141.416
 21
-41.0286
  0
LINE
  8
0
 10
-141.416
 20
-41.0286
 11
-141.664
 21
-40.5408
  0
LINE
  8
0
 10
-141.664
 20
-40.5408
 11
-141.75
 21
-40
  0
LINE
  8
0
 10
-141.75
 20
-40
 11
-141.664
 21
-39.4592
  0
LINE
  8
0
 10
-141.664
 20
-39.4592
 11
-141.416
 21
-38.9714
  0
LINE
  8
0
 10
-141.416
 20
-38.9714
 11
-141.029
 21
-38.5842
  0
LINE
  8
0
 10
-141.029
 20
-38.5842
 11
-140.541
 21
-38.3356
  0
LINE
  8
0
 10
-140.541
 20
-38.3356
 11
-140
 21
-38.25
  0
LINE
  8
0
 10
-140
 20
-38.25
 11
-139.459
 21
-38.3356
  0
LINE
  8
0
 10
-139.459
 20
-38.3356
 11
-138.971
 21
-38.5842
  0
LINE
  8
0
 10
-138.971
 20
-38.5842
 11
-138.584
 21
-38.9714
  0
LINE
  8
0
 10
-138.584
 20
-38.9714
 11
-138.336
 21
-39.4592
  0
LINE
  8
0
 10
-138.336
 20
-39.4592
 11
-138.25
 21
-40
  0
LINE
  8
0
 10
-138.25
 20
-40
 11
-138.336
 21
-40.5408
  0
LINE
  8
0
 10
-138.336
 20
-40.5408
 11
-138.584
 21
-41.0286
  0
LINE
  8
0
 10
-138.584
 20
-41.0286
 11
-138.971
 21
-41.4158
  0
LINE
  8
0
 10
-138.971
 20
-41.4158
 11
-139.459
 21
-41.6643
  0
LINE
  8
0
 10
-139.459
 20
-41.6643
 11
-140
 21
-41.75
  0
LINE
  8
0
 10
-140
 20
-41.75
 11
-140.541
 21
-41.6643
  0
LINE
  8
0
 10
-20.5408
 20
-41.6643
 11
-21.0286
 21
-41.4158
  0
LINE
  8
0
 10
-21.0286
 20
-41.4158
 11
-21.4158
 21
-41.0286
  0
LINE
  8
0
 10
-21.4158
 20
-41.0286
 11
-21.6644
 21
-40.5408
  0
LINE
  8
0
 10
-21.6644
 20
-40.5408
 11
-21.75
 21
-40
  0
LINE
  8
0
 10
-21.75
 20
-40
 11
-21.6644
 21
-39.4592
  0
LINE
  8
0
 10
-21.6644
 20
-39.4592
 11
-21.4158
 21
-38.9714
  0
LINE
  8
0
 10
-21.4158
 20
-38.9714
 11
-21.0286
 21
-38.5842
  0
LINE
  8
0
 10
-21.0286
 20
-38.5842
 11
-20.5408
 21
-38.3356
  0
LINE
  8
0
 10
-20.5408
 20
-38.3356
 11
-20
 21
-38.25
  0
LINE
  8
0
 10
-20
 20
-38.25
 11
-19.4592
 21
-38.3356
  0
LINE
  8
0
 10
-19.4592
 20
-38.3356
 11
-18.9714
 21
-38.5842
  0
LINE
  8
0
 10
-18.9714
 20
-38.5842
 11
-18.5842
 21
-38.9714
  0
LINE
  8
0
 10
-18.5842
 20
-38.9714
 11
-18.3357
 21
-39.4592
  0
LINE
  8
0
 10
-18.3357
 20
-39.4592
 11
-18.25
 21
-40
  0
LINE
  8
0
 10
-18.25
 20
-40
 11
-18.3357
 21
-40.5408
  0
LINE
  8
0
 10
-18.3357
 20
-40.5408
 11
-18.5842
 21
-41.0286
  0
LINE
  8
0
 10
-18.5842
 20
-41.0286
 11
-18.9714
 21
-41.4158
  0
LINE
  8
0
 10
-18.9714
 20
-41.4158
 11
-19.4592
 21
-41.6643
  0
LINE
  8
0
 10
-19.4592
 20
-41.6643
 11
-20
 21
-41.75
  0
LINE
  8
0
 10
-20
 20
-41.75
 11
-20.5408
 21
-41.6643
  0
ENDSEC
  0
SECTION
  2
OBJECTS
  0
DICTIONARY
  0
ENDSEC
  0
EOF
