  0
SECTION
  2
BLOCKS
  0
ENDSEC
  0
SECTION
  2
ENTITIES
  0
LINE
  8
0
 10
26.7391
 20
-63.4761
 11
29.7621
 21
-62.6698
  0
LINE
  8
0
 10
29.7621
 20
-62.6698
 11
30.334
 21
-62.416
  0
LINE
  8
0
 10
30.334
 20
-62.416
 11
32.9599
 21
-60.715
  0
LINE
  8
0
 10
32.9599
 20
-60.715
 11
33.2091
 21
-60.5242
  0
LINE
  8
0
 10
33.2091
 20
-60.5242
 11
45.7288
 21
-49.2775
  0
LINE
  8
0
 10
45.7288
 20
-49.2775
 11
46.453
 21
-49
  0
LINE
  8
0
 10
46.453
 20
-49
 11
159
 21
-49
  0
LINE
  8
0
 10
159
 20
-49
 11
159.313
 21
-48.9754
  0
LINE
  8
0
 10
159.313
 20
-48.9754
 11
161.785
 21
-48.5838
  0
LINE
  8
0
 10
161.785
 20
-48.5838
 11
162.38
 21
-48.3905
  0
LINE
  8
0
 10
162.38
 20
-48.3905
 11
164.61
 21
-47.2542
  0
LINE
  8
0
 10
164.61
 20
-47.2542
 11
165.117
 21
-46.8864
  0
LINE
  8
0
 10
165.117
 20
-46.8864
 11
166.886
 21
-45.1165
  0
LINE
  8
0
 10
166.886
 20
-45.1165
 11
167.254
 21
-44.6103
  0
LINE
  8
0
 10
167.254
 20
-44.6103
 11
168.39
 21
-42.3801
  0
LINE
  8
0
 10
168.39
 20
-42.3801
 11
168.584
 21
-41.785
  0
LINE
  8
0
 10
168.584
 20
-41.785
 11
168.975
 21
-39.3129
  0
LINE
  8
0
 10
168.975
 20
-39.3129
 11
169
 21
-39
  0
LINE
  8
0
 10
169
 20
-39
 11
169
 21
52
  0
LINE
  8
0
 10
169
 20
52
 11
168.975
 21
52.3129
  0
LINE
  8
0
 10
168.975
 20
52.3129
 11
168.584
 21
54.785
  0
LINE
  8
0
 10
168.584
 20
54.785
 11
168.39
 21
55.3801
  0
LINE
  8
0
 10
168.39
 20
55.3801
 11
167.254
 21
57.6103
  0
LINE
  8
0
 10
167.254
 20
57.6103
 11
166.886
 21
58.1165
  0
LINE
  8
0
 10
166.886
 20
58.1165
 11
165.117
 21
59.8864
  0
LINE
  8
0
 10
165.117
 20
59.8864
 11
164.61
 21
60.2542
  0
LINE
  8
0
 10
164.61
 20
60.2542
 11
162.38
 21
61.3905
  0
LINE
  8
0
 10
162.38
 20
61.3905
 11
161.785
 21
61.5838
  0
LINE
  8
0
 10
161.785
 20
61.5838
 11
159.313
 21
61.9754
  0
LINE
  8
0
 10
159.313
 20
61.9754
 11
159
 21
62
  0
LINE
  8
0
 10
159
 20
62
 11
67.8
 21
62
  0
LINE
  8
0
 10
67.8
 20
62
 11
67.8
 21
47.75
  0
LINE
  8
0
 10
67.8
 20
47.75
 11
58.7
 21
47.75
  0
LINE
  8
0
 10
58.7
 20
47.75
 11
58.7
 21
62
  0
LINE
  8
0
 10
58.7
 20
62
 11
10
 21
62
  0
LINE
  8
0
 10
10
 20
62
 11
9.68713
 21
61.9754
  0
LINE
  8
0
 10
9.68713
 20
61.9754
 11
7.215
 21
61.5838
  0
LINE
  8
0
 10
7.215
 20
61.5838
 11
6.61987
 21
61.3905
  0
LINE
  8
0
 10
6.61987
 20
61.3905
 11
4.38972
 21
60.2542
  0
LINE
  8
0
 10
4.38972
 20
60.2542
 11
3.8835
 21
59.8864
  0
LINE
  8
0
 10
3.8835
 20
59.8864
 11
2.11365
 21
58.1165
  0
LINE
  8
0
 10
2.11365
 20
58.1165
 11
1.74585
 21
57.6103
  0
LINE
  8
0
 10
1.74585
 20
57.6103
 11
0.609528
 21
55.3801
  0
LINE
  8
0
 10
0.609528
 20
55.3801
 11
0.416168
 21
54.785
  0
LINE
  8
0
 10
0.416168
 20
54.785
 11
0.0246277
 21
52.3129
  0
LINE
  8
0
 10
0.0246277
 20
52.3129
 11
0
 21
52
  0
LINE
  8
0
 10
0
 20
52
 11
0
 21
-39
  0
LINE
  8
0
 10
0
 20
-39
 11
0.0246277
 21
-39.3129
  0
LINE
  8
0
 10
0.0246277
 20
-39.3129
 11
0.416168
 21
-41.785
  0
LINE
  8
0
 10
0.416168
 20
-41.785
 11
0.609528
 21
-42.3801
  0
LINE
  8
0
 10
0.609528
 20
-42.3801
 11
1.74585
 21
-44.6103
  0
LINE
  8
0
 10
1.74585
 20
-44.6103
 11
2.11365
 21
-45.1165
  0
LINE
  8
0
 10
2.11365
 20
-45.1165
 11
3.8835
 21
-46.8864
  0
LINE
  8
0
 10
3.8835
 20
-46.8864
 11
4.38974
 21
-47.2542
  0
LINE
  8
0
 10
4.38974
 20
-47.2542
 11
5.8054
 21
-47.9755
  0
LINE
  8
0
 10
5.8054
 20
-47.9755
 11
16.2628
 21
-59.6166
  0
LINE
  8
0
 10
16.2628
 20
-59.6166
 11
16.4902
 21
-59.8329
  0
LINE
  8
0
 10
16.4902
 20
-59.8329
 11
18.9194
 21
-61.8046
  0
LINE
  8
0
 10
18.9194
 20
-61.8046
 11
19.461
 21
-62.1181
  0
LINE
  8
0
 10
19.461
 20
-62.1181
 11
22.3806
 21
-63.2427
  0
LINE
  8
0
 10
22.3806
 20
-63.2427
 11
22.9925
 21
-63.3735
  0
LINE
  8
0
 10
22.9925
 20
-63.3735
 11
26.1167
 21
-63.5408
  0
LINE
  8
0
 10
26.1167
 20
-63.5408
 11
26.7391
 21
-63.4761
  0
LINE
  8
0
 10
120.5
 20
50.4019
 11
119
 21
53
  0
LINE
  8
0
 10
119
 20
53
 11
120.5
 21
55.5981
  0
LINE
  8
0
 10
120.5
 20
55.5981
 11
123.5
 21
55.5981
  0
LINE
  8
0
 10
123.5
 20
55.5981
 11
125
 21
53
  0
LINE
  8
0
 10
125
 20
53
 11
123.5
 21
50.4019
  0
LINE
  8
0
 10
123.5
 20
50.4019
 11
120.5
 21
50.4019
  0
LINE
  8
0
 10
18.5
 20
50.4019
 11
17
 21
53
  0
LINE
  8
0
 10
17
 20
53
 11
18.5
 21
55.5981
  0
LINE
  8
0
 10
18.5
 20
55.5981
 11
21.5
 21
55.5981
  0
LINE
  8
0
 10
21.5
 20
55.5981
 11
23
 21
53
  0
LINE
  8
0
 10
23
 20
53
 11
21.5
 21
50.4019
  0
LINE
  8
0
 10
21.5
 20
50.4019
 11
18.5
 21
50.4019
  0
LINE
  8
0
 10
24.581
 20
-54.4456
 11
23.7305
 21
-54.1181
  0
LINE
  8
0
 10
23.7305
 20
-54.1181
 11
22.5899
 21
-53.1923
  0
LINE
  8
0
 10
22.5899
 20
-53.1923
 11
12.2521
 21
-41.6844
  0
LINE
  8
0
 10
12.2521
 20
-41.6844
 11
10.2226
 21
-40.1252
  0
LINE
  8
0
 10
10.2226
 20
-40.1252
 11
9.46352
 21
-39.7384
  0
LINE
  8
0
 10
9.46352
 20
-39.7384
 11
9.26157
 21
-39.5365
  0
LINE
  8
0
 10
9.26157
 20
-39.5365
 11
9.13191
 21
-39.282
  0
LINE
  8
0
 10
9.13191
 20
-39.282
 11
9
 21
-38.4491
  0
LINE
  8
0
 10
9
 20
-38.4491
 11
9
 21
51.4491
  0
LINE
  8
0
 10
9
 20
51.4491
 11
9.13191
 21
52.282
  0
LINE
  8
0
 10
9.13191
 20
52.282
 11
9.26157
 21
52.5365
  0
LINE
  8
0
 10
9.26157
 20
52.5365
 11
9.46352
 21
52.7384
  0
LINE
  8
0
 10
9.46352
 20
52.7384
 11
9.71797
 21
52.8681
  0
LINE
  8
0
 10
9.71797
 20
52.8681
 11
10.5509
 21
53
  0
LINE
  8
0
 10
10.5509
 20
53
 11
14
 21
53
  0
LINE
  8
0
 10
14
 20
53
 11
17
 21
47.8038
  0
LINE
  8
0
 10
17
 20
47.8038
 11
23
 21
47.8038
  0
LINE
  8
0
 10
23
 20
47.8038
 11
26
 21
53
  0
LINE
  8
0
 10
26
 20
53
 11
53.7
 21
53
  0
LINE
  8
0
 10
53.7
 20
53
 11
53.7
 21
40.75
  0
LINE
  8
0
 10
53.7
 20
40.75
 11
72.8
 21
40.75
  0
LINE
  8
0
 10
72.8
 20
40.75
 11
72.8
 21
53
  0
LINE
  8
0
 10
72.8
 20
53
 11
116
 21
53
  0
LINE
  8
0
 10
116
 20
53
 11
119
 21
47.8038
  0
LINE
  8
0
 10
119
 20
47.8038
 11
125
 21
47.8038
  0
LINE
  8
0
 10
125
 20
47.8038
 11
128
 21
53
  0
LINE
  8
0
 10
128
 20
53
 11
158.449
 21
53
  0
LINE
  8
0
 10
158.449
 20
53
 11
159.282
 21
52.8681
  0
LINE
  8
0
 10
159.282
 20
52.8681
 11
159.536
 21
52.7384
  0
LINE
  8
0
 10
159.536
 20
52.7384
 11
159.738
 21
52.5365
  0
LINE
  8
0
 10
159.738
 20
52.5365
 11
159.868
 21
52.282
  0
LINE
  8
0
 10
159.868
 20
52.282
 11
160
 21
51.4491
  0
LINE
  8
0
 10
160
 20
51.4491
 11
160
 21
-38.4491
  0
LINE
  8
0
 10
160
 20
-38.4491
 11
159.868
 21
-39.282
  0
LINE
  8
0
 10
159.868
 20
-39.282
 11
159.738
 21
-39.5365
  0
LINE
  8
0
 10
159.738
 20
-39.5365
 11
159.536
 21
-39.7384
  0
LINE
  8
0
 10
159.536
 20
-39.7384
 11
159.282
 21
-39.8681
  0
LINE
  8
0
 10
159.282
 20
-39.8681
 11
158.449
 21
-40
  0
LINE
  8
0
 10
158.449
 20
-40
 11
128
 21
-40
  0
LINE
  8
0
 10
128
 20
-40
 11
125
 21
-34.8038
  0
LINE
  8
0
 10
125
 20
-34.8038
 11
119
 21
-34.8038
  0
LINE
  8
0
 10
119
 20
-34.8038
 11
116
 21
-40
  0
LINE
  8
0
 10
116
 20
-40
 11
61
 21
-40
  0
LINE
  8
0
 10
61
 20
-40
 11
58
 21
-34.8038
  0
LINE
  8
0
 10
58
 20
-34.8038
 11
52
 21
-34.8038
  0
LINE
  8
0
 10
52
 20
-34.8038
 11
49
 21
-40
  0
LINE
  8
0
 10
49
 20
-40
 11
46.083
 21
-40
  0
LINE
  8
0
 10
46.083
 20
-40
 11
43.5781
 21
-40.4635
  0
LINE
  8
0
 10
43.5781
 20
-40.4635
 11
42.1627
 21
-41.0059
  0
LINE
  8
0
 10
42.1627
 20
-41.0059
 11
39.9896
 21
-42.335
  0
LINE
  8
0
 10
39.9896
 20
-42.335
 11
27.6045
 21
-53.4608
  0
LINE
  8
0
 10
27.6045
 20
-53.4608
 11
26.3714
 21
-54.2596
  0
LINE
  8
0
 10
26.3714
 20
-54.2596
 11
25.491
 21
-54.4944
  0
LINE
  8
0
 10
25.491
 20
-54.4944
 11
24.581
 21
-54.4456
  0
LINE
  8
0
 10
2
 20
29.95
 11
2
 21
50.05
  0
LINE
  8
0
 10
2
 20
50.05
 11
4.05
 21
50.05
  0
LINE
  8
0
 10
4.05
 20
50.05
 11
4.05
 21
29.95
  0
LINE
  8
0
 10
4.05
 20
29.95
 11
2
 21
29.95
  0
LINE
  8
0
 10
2
 20
-37.05
 11
2
 21
-16.95
  0
LINE
  8
0
 10
2
 20
-16.95
 11
4.05
 21
-16.95
  0
LINE
  8
0
 10
4.05
 20
-16.95
 11
4.05
 21
-37.05
  0
LINE
  8
0
 10
4.05
 20
-37.05
 11
2
 21
-37.05
  0
LINE
  8
0
 10
53.5
 20
-42.5981
 11
52
 21
-40
  0
LINE
  8
0
 10
52
 20
-40
 11
53.5
 21
-37.4019
  0
LINE
  8
0
 10
53.5
 20
-37.4019
 11
56.5
 21
-37.4019
  0
LINE
  8
0
 10
56.5
 20
-37.4019
 11
58
 21
-40
  0
LINE
  8
0
 10
58
 20
-40
 11
56.5
 21
-42.5981
  0
LINE
  8
0
 10
56.5
 20
-42.5981
 11
53.5
 21
-42.5981
  0
LINE
  8
0
 10
120.5
 20
-42.5981
 11
119
 21
-40
  0
LINE
  8
0
 10
119
 20
-40
 11
120.5
 21
-37.4019
  0
LINE
  8
0
 10
120.5
 20
-37.4019
 11
123.5
 21
-37.4019
  0
LINE
  8
0
 10
123.5
 20
-37.4019
 11
125
 21
-40
  0
LINE
  8
0
 10
125
 20
-40
 11
123.5
 21
-42.5981
  0
LINE
  8
0
 10
123.5
 20
-42.5981
 11
120.5
 21
-42.5981
  0
LINE
  8
0
 10
-40.9925
 20
-63.3735
 11
-40.3806
 21
-63.2427
  0
LINE
  8
0
 10
-40.3806
 20
-63.2427
 11
-37.461
 21
-62.1181
  0
LINE
  8
0
 10
-37.461
 20
-62.1181
 11
-36.9194
 21
-61.8046
  0
LINE
  8
0
 10
-36.9194
 20
-61.8046
 11
-34.4902
 21
-59.8329
  0
LINE
  8
0
 10
-34.4902
 20
-59.8329
 11
-34.2628
 21
-59.6166
  0
LINE
  8
0
 10
-34.2628
 20
-59.6166
 11
-24.7258
 21
-49
  0
LINE
  8
0
 10
-24.7258
 20
-49
 11
-13
 21
-49
  0
LINE
  8
0
 10
-13
 20
-49
 11
-12.6871
 21
-48.9754
  0
LINE
  8
0
 10
-12.6871
 20
-48.9754
 11
-10.215
 21
-48.5838
  0
LINE
  8
0
 10
-10.215
 20
-48.5838
 11
-9.61987
 21
-48.3905
  0
LINE
  8
0
 10
-9.61987
 20
-48.3905
 11
-7.38972
 21
-47.2542
  0
LINE
  8
0
 10
-7.38972
 20
-47.2542
 11
-6.8835
 21
-46.8864
  0
LINE
  8
0
 10
-6.8835
 20
-46.8864
 11
-5.11365
 21
-45.1165
  0
LINE
  8
0
 10
-5.11365
 20
-45.1165
 11
-4.74585
 21
-44.6103
  0
LINE
  8
0
 10
-4.74585
 20
-44.6103
 11
-3.60953
 21
-42.3801
  0
LINE
  8
0
 10
-3.60953
 20
-42.3801
 11
-3.41617
 21
-41.785
  0
LINE
  8
0
 10
-3.41617
 20
-41.785
 11
-3.02463
 21
-39.3129
  0
LINE
  8
0
 10
-3.02463
 20
-39.3129
 11
-3
 21
-39
  0
LINE
  8
0
 10
-3
 20
-39
 11
-3
 21
52
  0
LINE
  8
0
 10
-3
 20
52
 11
-3.02463
 21
52.3129
  0
LINE
  8
0
 10
-3.02463
 20
52.3129
 11
-3.41617
 21
54.785
  0
LINE
  8
0
 10
-3.41617
 20
54.785
 11
-3.60953
 21
55.3801
  0
LINE
  8
0
 10
-3.60953
 20
55.3801
 11
-4.74585
 21
57.6103
  0
LINE
  8
0
 10
-4.74585
 20
57.6103
 11
-5.11365
 21
58.1165
  0
LINE
  8
0
 10
-5.11365
 20
58.1165
 11
-6.8835
 21
59.8864
  0
LINE
  8
0
 10
-6.8835
 20
59.8864
 11
-7.38972
 21
60.2542
  0
LINE
  8
0
 10
-7.38972
 20
60.2542
 11
-9.61987
 21
61.3905
  0
LINE
  8
0
 10
-9.61987
 20
61.3905
 11
-10.215
 21
61.5838
  0
LINE
  8
0
 10
-10.215
 20
61.5838
 11
-12.6871
 21
61.9754
  0
LINE
  8
0
 10
-12.6871
 20
61.9754
 11
-13
 21
62
  0
LINE
  8
0
 10
-13
 20
62
 11
-152
 21
62
  0
LINE
  8
0
 10
-152
 20
62
 11
-152.313
 21
61.9754
  0
LINE
  8
0
 10
-152.313
 20
61.9754
 11
-154.785
 21
61.5838
  0
LINE
  8
0
 10
-154.785
 20
61.5838
 11
-155.38
 21
61.3905
  0
LINE
  8
0
 10
-155.38
 20
61.3905
 11
-157.61
 21
60.2542
  0
LINE
  8
0
 10
-157.61
 20
60.2542
 11
-158.117
 21
59.8864
  0
LINE
  8
0
 10
-158.117
 20
59.8864
 11
-159.886
 21
58.1165
  0
LINE
  8
0
 10
-159.886
 20
58.1165
 11
-160.254
 21
57.6103
  0
LINE
  8
0
 10
-160.254
 20
57.6103
 11
-161.39
 21
55.3801
  0
LINE
  8
0
 10
-161.39
 20
55.3801
 11
-161.584
 21
54.785
  0
LINE
  8
0
 10
-161.584
 20
54.785
 11
-161.975
 21
52.3129
  0
LINE
  8
0
 10
-161.975
 20
52.3129
 11
-162
 21
52
  0
LINE
  8
0
 10
-162
 20
52
 11
-162
 21
-39
  0
LINE
  8
0
 10
-162
 20
-39
 11
-161.975
 21
-39.3129
  0
LINE
  8
0
 10
-161.975
 20
-39.3129
 11
-161.584
 21
-41.785
  0
LINE
  8
0
 10
-161.584
 20
-41.785
 11
-161.39
 21
-42.3801
  0
LINE
  8
0
 10
-161.39
 20
-42.3801
 11
-160.254
 21
-44.6103
  0
LINE
  8
0
 10
-160.254
 20
-44.6103
 11
-159.886
 21
-45.1165
  0
LINE
  8
0
 10
-159.886
 20
-45.1165
 11
-158.117
 21
-46.8864
  0
LINE
  8
0
 10
-158.117
 20
-46.8864
 11
-157.61
 21
-47.2542
  0
LINE
  8
0
 10
-157.61
 20
-47.2542
 11
-155.38
 21
-48.3905
  0
LINE
  8
0
 10
-155.38
 20
-48.3905
 11
-154.785
 21
-48.5838
  0
LINE
  8
0
 10
-154.785
 20
-48.5838
 11
-152.313
 21
-48.9754
  0
LINE
  8
0
 10
-152.313
 20
-48.9754
 11
-152
 21
-49
  0
LINE
  8
0
 10
-152
 20
-49
 11
-64.453
 21
-49
  0
LINE
  8
0
 10
-64.453
 20
-49
 11
-63.7288
 21
-49.2775
  0
LINE
  8
0
 10
-63.7288
 20
-49.2775
 11
-51.2091
 21
-60.5242
  0
LINE
  8
0
 10
-51.2091
 20
-60.5242
 11
-50.9599
 21
-60.715
  0
LINE
  8
0
 10
-50.9599
 20
-60.715
 11
-48.334
 21
-62.416
  0
LINE
  8
0
 10
-48.334
 20
-62.416
 11
-47.7621
 21
-62.6698
  0
LINE
  8
0
 10
-47.7621
 20
-62.6698
 11
-44.7391
 21
-63.4761
  0
LINE
  8
0
 10
-44.7391
 20
-63.4761
 11
-44.1167
 21
-63.5408
  0
LINE
  8
0
 10
-44.1167
 20
-63.5408
 11
-40.9925
 21
-63.3735
  0
LINE
  8
0
 10
-21.5
 20
50.4019
 11
-23
 21
53
  0
LINE
  8
0
 10
-23
 20
53
 11
-21.5
 21
55.5981
  0
LINE
  8
0
 10
-21.5
 20
55.5981
 11
-18.5
 21
55.5981
  0
LINE
  8
0
 10
-18.5
 20
55.5981
 11
-17
 21
53
  0
LINE
  8
0
 10
-17
 20
53
 11
-18.5
 21
50.4019
  0
LINE
  8
0
 10
-18.5
 20
50.4019
 11
-21.5
 21
50.4019
  0
LINE
  8
0
 10
-141.5
 20
50.4019
 11
-143
 21
53
  0
LINE
  8
0
 10
-143
 20
53
 11
-141.5
 21
55.5981
  0
LINE
  8
0
 10
-141.5
 20
55.5981
 11
-138.5
 21
55.5981
  0
LINE
  8
0
 10
-138.5
 20
55.5981
 11
-137
 21
53
  0
LINE
  8
0
 10
-137
 20
53
 11
-138.5
 21
50.4019
  0
LINE
  8
0
 10
-138.5
 20
50.4019
 11
-141.5
 21
50.4019
  0
LINE
  8
0
 10
-44.3714
 20
-54.2596
 11
-45.6045
 21
-53.4608
  0
LINE
  8
0
 10
-45.6045
 20
-53.4608
 11
-57.9896
 21
-42.335
  0
LINE
  8
0
 10
-57.9896
 20
-42.335
 11
-60.1627
 21
-41.0059
  0
LINE
  8
0
 10
-60.1627
 20
-41.0059
 11
-61.5781
 21
-40.4635
  0
LINE
  8
0
 10
-61.5781
 20
-40.4635
 11
-64.083
 21
-40
  0
LINE
  8
0
 10
-64.083
 20
-40
 11
-134
 21
-40
  0
LINE
  8
0
 10
-134
 20
-40
 11
-137
 21
-34.8038
  0
LINE
  8
0
 10
-137
 20
-34.8038
 11
-143
 21
-34.8038
  0
LINE
  8
0
 10
-143
 20
-34.8038
 11
-146
 21
-40
  0
LINE
  8
0
 10
-146
 20
-40
 11
-151.449
 21
-40
  0
LINE
  8
0
 10
-151.449
 20
-40
 11
-152.282
 21
-39.8681
  0
LINE
  8
0
 10
-152.282
 20
-39.8681
 11
-152.536
 21
-39.7384
  0
LINE
  8
0
 10
-152.536
 20
-39.7384
 11
-152.738
 21
-39.5365
  0
LINE
  8
0
 10
-152.738
 20
-39.5365
 11
-152.868
 21
-39.282
  0
LINE
  8
0
 10
-152.868
 20
-39.282
 11
-153
 21
-38.4491
  0
LINE
  8
0
 10
-153
 20
-38.4491
 11
-153
 21
51.4491
  0
LINE
  8
0
 10
-153
 20
51.4491
 11
-152.868
 21
52.282
  0
LINE
  8
0
 10
-152.868
 20
52.282
 11
-152.738
 21
52.5365
  0
LINE
  8
0
 10
-152.738
 20
52.5365
 11
-152.536
 21
52.7384
  0
LINE
  8
0
 10
-152.536
 20
52.7384
 11
-152.282
 21
52.8681
  0
LINE
  8
0
 10
-152.282
 20
52.8681
 11
-151.449
 21
53
  0
LINE
  8
0
 10
-151.449
 20
53
 11
-146
 21
53
  0
LINE
  8
0
 10
-146
 20
53
 11
-143
 21
47.8038
  0
LINE
  8
0
 10
-143
 20
47.8038
 11
-137
 21
47.8038
  0
LINE
  8
0
 10
-137
 20
47.8038
 11
-134
 21
53
  0
LINE
  8
0
 10
-134
 20
53
 11
-26
 21
53
  0
LINE
  8
0
 10
-26
 20
53
 11
-23
 21
47.8038
  0
LINE
  8
0
 10
-23
 20
47.8038
 11
-17
 21
47.8038
  0
LINE
  8
0
 10
-17
 20
47.8038
 11
-14
 21
53
  0
LINE
  8
0
 10
-14
 20
53
 11
-13.5509
 21
53
  0
LINE
  8
0
 10
-13.5509
 20
53
 11
-12.718
 21
52.8681
  0
LINE
  8
0
 10
-12.718
 20
52.8681
 11
-12.4635
 21
52.7384
  0
LINE
  8
0
 10
-12.4635
 20
52.7384
 11
-12.2616
 21
52.5365
  0
LINE
  8
0
 10
-12.2616
 20
52.5365
 11
-12.1319
 21
52.282
  0
LINE
  8
0
 10
-12.1319
 20
52.282
 11
-12
 21
51.4491
  0
LINE
  8
0
 10
-12
 20
51.4491
 11
-12
 21
-38.4491
  0
LINE
  8
0
 10
-12
 20
-38.4491
 11
-12.1319
 21
-39.282
  0
LINE
  8
0
 10
-12.1319
 20
-39.282
 11
-12.2616
 21
-39.5365
  0
LINE
  8
0
 10
-12.2616
 20
-39.5365
 11
-12.4635
 21
-39.7384
  0
LINE
  8
0
 10
-12.4635
 20
-39.7384
 11
-12.718
 21
-39.8681
  0
LINE
  8
0
 10
-12.718
 20
-39.8681
 11
-13.5509
 21
-40
  0
LINE
  8
0
 10
-13.5509
 20
-40
 11
-14
 21
-40
  0
LINE
  8
0
 10
-14
 20
-40
 11
-17
 21
-34.8038
  0
LINE
  8
0
 10
-17
 20
-34.8038
 11
-23
 21
-34.8038
  0
LINE
  8
0
 10
-23
 20
-34.8038
 11
-26
 21
-40
  0
LINE
  8
0
 10
-26
 20
-40
 11
-25.978
 21
-40.0381
  0
LINE
  8
0
 10
-25.978
 20
-40.0381
 11
-27.0808
 21
-40.1546
  0
LINE
  8
0
 10
-27.0808
 20
-40.1546
 11
-29.1246
 21
-40.9418
  0
LINE
  8
0
 10
-29.1246
 20
-40.9418
 11
-30.825
 21
-42.3221
  0
LINE
  8
0
 10
-30.825
 20
-42.3221
 11
-40.5899
 21
-53.1923
  0
LINE
  8
0
 10
-40.5899
 20
-53.1923
 11
-41.7305
 21
-54.1181
  0
LINE
  8
0
 10
-41.7305
 20
-54.1181
 11
-42.581
 21
-54.4456
  0
LINE
  8
0
 10
-42.581
 20
-54.4456
 11
-43.491
 21
-54.4944
  0
LINE
  8
0
 10
-43.491
 20
-54.4944
 11
-44.3714
 21
-54.2596
  0
LINE
  8
0
 10
-7.05
 20
29.95
 11
-7.05
 21
50.05
  0
LINE
  8
0
 10
-7.05
 20
50.05
 11
-5
 21
50.05
  0
LINE
  8
0
 10
-5
 20
50.05
 11
-5
 21
29.95
  0
LINE
  8
0
 10
-5
 20
29.95
 11
-7.05
 21
29.95
  0
LINE
  8
0
 10
-7.05
 20
-37.05
 11
-7.05
 21
-16.95
  0
LINE
  8
0
 10
-7.05
 20
-16.95
 11
-5
 21
-16.95
  0
LINE
  8
0
 10
-5
 20
-16.95
 11
-5
 21
-37.05
  0
LINE
  8
0
 10
-5
 20
-37.05
 11
-7.05
 21
-37.05
  0
LINE
  8
0
 10
-21.5
 20
-42.5981
 11
-23
 21
-40
  0
LINE
  8
0
 10
-23
 20
-40
 11
-21.5
 21
-37.4019
  0
LINE
  8
0
 10
-21.5
 20
-37.4019
 11
-18.5
 21
-37.4019
  0
LINE
  8
0
 10
-18.5
 20
-37.4019
 11
-17
 21
-40
  0
LINE
  8
0
 10
-17
 20
-40
 11
-18.5
 21
-42.5981
  0
LINE
  8
0
 10
-18.5
 20
-42.5981
 11
-21.5
 21
-42.5981
  0
LINE
  8
0
 10
-141.5
 20
-42.5981
 11
-143
 21
-40
  0
LINE
  8
0
 10
-143
 20
-40
 11
-141.5
 21
-37.4019
  0
LINE
  8
0
 10
-141.5
 20
-37.4019
 11
-138.5
 21
-37.4019
  0
LINE
  8
0
 10
-138.5
 20
-37.4019
 11
-137
 21
-40
  0
LINE
  8
0
 10
-137
 20
-40
 11
-138.5
 21
-42.5981
  0
LINE
  8
0
 10
-138.5
 20
-42.5981
 11
-141.5
 21
-42.5981
  0
LINE
  8
0
 10
-119
 20
-178.75
 11
-130
 21
-178.75
  0
LINE
  8
0
 10
-130
 20
-178.75
 11
-130
 21
-173
  0
LINE
  8
0
 10
-130
 20
-173
 11
-134
 21
-173
  0
LINE
  8
0
 10
-134
 20
-173
 11
-137
 21
-167.804
  0
LINE
  8
0
 10
-137
 20
-167.804
 11
-143
 21
-167.804
  0
LINE
  8
0
 10
-143
 20
-167.804
 11
-146
 21
-173
  0
LINE
  8
0
 10
-146
 20
-173
 11
-146.449
 21
-173
  0
LINE
  8
0
 10
-146.449
 20
-173
 11
-147.282
 21
-172.868
  0
LINE
  8
0
 10
-147.282
 20
-172.868
 11
-147.536
 21
-172.738
  0
LINE
  8
0
 10
-147.536
 20
-172.738
 11
-147.738
 21
-172.536
  0
LINE
  8
0
 10
-147.738
 20
-172.536
 11
-147.868
 21
-172.282
  0
LINE
  8
0
 10
-147.868
 20
-172.282
 11
-148
 21
-171.449
  0
LINE
  8
0
 10
-148
 20
-171.449
 11
-148
 21
-156.5
  0
LINE
  8
0
 10
-148
 20
-156.5
 11
-130
 21
-156.5
  0
LINE
  8
0
 10
-130
 20
-156.5
 11
-130
 21
-153.25
  0
LINE
  8
0
 10
-130
 20
-153.25
 11
-90
 21
-153.25
  0
LINE
  8
0
 10
-90
 20
-153.25
 11
-90
 21
-178.75
  0
LINE
  8
0
 10
-90
 20
-178.75
 11
-101
 21
-178.75
  0
LINE
  8
0
 10
-101
 20
-178.75
 11
-101
 21
-182
  0
LINE
  8
0
 10
-101
 20
-182
 11
-77.25
 21
-182
  0
LINE
  8
0
 10
-77.25
 20
-182
 11
-77.25
 21
-176.555
  0
LINE
  8
0
 10
-77.25
 20
-176.555
 11
-78.405
 21
-176.555
  0
LINE
  8
0
 10
-78.405
 20
-176.555
 11
-78.405
 21
-173
  0
LINE
  8
0
 10
-78.405
 20
-173
 11
-86.5
 21
-173
  0
LINE
  8
0
 10
-86.5
 20
-173
 11
-86.5
 21
-156.5
  0
LINE
  8
0
 10
-86.5
 20
-156.5
 11
-62
 21
-156.5
  0
LINE
  8
0
 10
-62
 20
-156.5
 11
-60.4356
 21
-156.377
  0
LINE
  8
0
 10
-60.4356
 20
-156.377
 11
-58.8905
 21
-156.132
  0
LINE
  8
0
 10
-58.8905
 20
-156.132
 11
-55.915
 21
-155.165
  0
LINE
  8
0
 10
-55.915
 20
-155.165
 11
-55.5
 21
-154.954
  0
LINE
  8
0
 10
-55.5
 20
-154.954
 11
-55.5
 21
-173
  0
LINE
  8
0
 10
-55.5
 20
-173
 11
-61.595
 21
-173
  0
LINE
  8
0
 10
-61.595
 20
-173
 11
-61.595
 21
-176.555
  0
LINE
  8
0
 10
-61.595
 20
-176.555
 11
-62.75
 21
-176.555
  0
LINE
  8
0
 10
-62.75
 20
-176.555
 11
-62.75
 21
-182
  0
LINE
  8
0
 10
-62.75
 20
-182
 11
-8
 21
-182
  0
LINE
  8
0
 10
-8
 20
-182
 11
-7.68713
 21
-181.975
  0
LINE
  8
0
 10
-7.68713
 20
-181.975
 11
-5.215
 21
-181.584
  0
LINE
  8
0
 10
-5.215
 20
-181.584
 11
-4.61987
 21
-181.39
  0
LINE
  8
0
 10
-4.61987
 20
-181.39
 11
-2.38972
 21
-180.254
  0
LINE
  8
0
 10
-2.38972
 20
-180.254
 11
-1.8835
 21
-179.886
  0
LINE
  8
0
 10
-1.8835
 20
-179.886
 11
-0.113647
 21
-178.117
  0
LINE
  8
0
 10
-0.113647
 20
-178.117
 11
0.25415
 21
-177.61
  0
LINE
  8
0
 10
0.25415
 20
-177.61
 11
1.39047
 21
-175.38
  0
LINE
  8
0
 10
1.39047
 20
-175.38
 11
1.58383
 21
-174.785
  0
LINE
  8
0
 10
1.58383
 20
-174.785
 11
1.97537
 21
-172.313
  0
LINE
  8
0
 10
1.97537
 20
-172.313
 11
2
 21
-172
  0
LINE
  8
0
 10
2
 20
-172
 11
2
 21
-81
  0
LINE
  8
0
 10
2
 20
-81
 11
1.97537
 21
-80.6871
  0
LINE
  8
0
 10
1.97537
 20
-80.6871
 11
1.58383
 21
-78.215
  0
LINE
  8
0
 10
1.58383
 20
-78.215
 11
1.39047
 21
-77.6199
  0
LINE
  8
0
 10
1.39047
 20
-77.6199
 11
0.25415
 21
-75.3897
  0
LINE
  8
0
 10
0.25415
 20
-75.3897
 11
-0.113647
 21
-74.8835
  0
LINE
  8
0
 10
-0.113647
 20
-74.8835
 11
-1.8835
 21
-73.1136
  0
LINE
  8
0
 10
-1.8835
 20
-73.1136
 11
-2.38972
 21
-72.7458
  0
LINE
  8
0
 10
-2.38972
 20
-72.7458
 11
-4.61987
 21
-71.6095
  0
LINE
  8
0
 10
-4.61987
 20
-71.6095
 11
-5.215
 21
-71.4162
  0
LINE
  8
0
 10
-5.215
 20
-71.4162
 11
-7.68713
 21
-71.0246
  0
LINE
  8
0
 10
-7.68713
 20
-71.0246
 11
-8
 21
-71
  0
LINE
  8
0
 10
-8
 20
-71
 11
-95.547
 21
-71
  0
LINE
  8
0
 10
-95.547
 20
-71
 11
-96.2712
 21
-70.7225
  0
LINE
  8
0
 10
-96.2712
 20
-70.7225
 11
-108.791
 21
-59.4758
  0
LINE
  8
0
 10
-108.791
 20
-59.4758
 11
-109.04
 21
-59.285
  0
LINE
  8
0
 10
-109.04
 20
-59.285
 11
-111.666
 21
-57.584
  0
LINE
  8
0
 10
-111.666
 20
-57.584
 11
-112.238
 21
-57.3302
  0
LINE
  8
0
 10
-112.238
 20
-57.3302
 11
-115.261
 21
-56.5239
  0
LINE
  8
0
 10
-115.261
 20
-56.5239
 11
-115.883
 21
-56.4592
  0
LINE
  8
0
 10
-115.883
 20
-56.4592
 11
-119.008
 21
-56.6265
  0
LINE
  8
0
 10
-119.008
 20
-56.6265
 11
-119.619
 21
-56.7573
  0
LINE
  8
0
 10
-119.619
 20
-56.7573
 11
-122.539
 21
-57.8819
  0
LINE
  8
0
 10
-122.539
 20
-57.8819
 11
-123.081
 21
-58.1954
  0
LINE
  8
0
 10
-123.081
 20
-58.1954
 11
-125.51
 21
-60.1671
  0
LINE
  8
0
 10
-125.51
 20
-60.1671
 11
-125.737
 21
-60.3834
  0
LINE
  8
0
 10
-125.737
 20
-60.3834
 11
-135.274
 21
-71
  0
LINE
  8
0
 10
-135.274
 20
-71
 11
-147
 21
-71
  0
LINE
  8
0
 10
-147
 20
-71
 11
-147.313
 21
-71.0246
  0
LINE
  8
0
 10
-147.313
 20
-71.0246
 11
-149.785
 21
-71.4162
  0
LINE
  8
0
 10
-149.785
 20
-71.4162
 11
-150.38
 21
-71.6095
  0
LINE
  8
0
 10
-150.38
 20
-71.6095
 11
-152.61
 21
-72.7458
  0
LINE
  8
0
 10
-152.61
 20
-72.7458
 11
-153.117
 21
-73.1136
  0
LINE
  8
0
 10
-153.117
 20
-73.1136
 11
-154.886
 21
-74.8835
  0
LINE
  8
0
 10
-154.886
 20
-74.8835
 11
-155.254
 21
-75.3897
  0
LINE
  8
0
 10
-155.254
 20
-75.3897
 11
-156.39
 21
-77.6199
  0
LINE
  8
0
 10
-156.39
 20
-77.6199
 11
-156.584
 21
-78.215
  0
LINE
  8
0
 10
-156.584
 20
-78.215
 11
-156.975
 21
-80.6871
  0
LINE
  8
0
 10
-156.975
 20
-80.6871
 11
-157
 21
-81
  0
LINE
  8
0
 10
-157
 20
-81
 11
-157
 21
-106.5
  0
LINE
  8
0
 10
-157
 20
-106.5
 11
-62
 21
-106.5
  0
LINE
  8
0
 10
-62
 20
-106.5
 11
-60.4549
 21
-106.745
  0
LINE
  8
0
 10
-60.4549
 20
-106.745
 11
-59.0611
 21
-107.455
  0
LINE
  8
0
 10
-59.0611
 20
-107.455
 11
-57.9549
 21
-108.561
  0
LINE
  8
0
 10
-57.9549
 20
-108.561
 11
-57.2447
 21
-109.955
  0
LINE
  8
0
 10
-57.2447
 20
-109.955
 11
-57
 21
-111.5
  0
LINE
  8
0
 10
-57
 20
-111.5
 11
-57
 21
-141.5
  0
LINE
  8
0
 10
-57
 20
-141.5
 11
-57.2447
 21
-143.045
  0
LINE
  8
0
 10
-57.2447
 20
-143.045
 11
-57.9549
 21
-144.439
  0
LINE
  8
0
 10
-57.9549
 20
-144.439
 11
-59.0611
 21
-145.545
  0
LINE
  8
0
 10
-59.0611
 20
-145.545
 11
-60.4549
 21
-146.255
  0
LINE
  8
0
 10
-60.4549
 20
-146.255
 11
-62
 21
-146.5
  0
LINE
  8
0
 10
-62
 20
-146.5
 11
-157
 21
-146.5
  0
LINE
  8
0
 10
-157
 20
-146.5
 11
-157
 21
-172
  0
LINE
  8
0
 10
-157
 20
-172
 11
-156.975
 21
-172.313
  0
LINE
  8
0
 10
-156.975
 20
-172.313
 11
-156.584
 21
-174.785
  0
LINE
  8
0
 10
-156.584
 20
-174.785
 11
-156.39
 21
-175.38
  0
LINE
  8
0
 10
-156.39
 20
-175.38
 11
-155.254
 21
-177.61
  0
LINE
  8
0
 10
-155.254
 20
-177.61
 11
-154.886
 21
-178.117
  0
LINE
  8
0
 10
-154.886
 20
-178.117
 11
-153.117
 21
-179.886
  0
LINE
  8
0
 10
-153.117
 20
-179.886
 11
-152.61
 21
-180.254
  0
LINE
  8
0
 10
-152.61
 20
-180.254
 11
-150.38
 21
-181.39
  0
LINE
  8
0
 10
-150.38
 20
-181.39
 11
-149.785
 21
-181.584
  0
LINE
  8
0
 10
-149.785
 20
-181.584
 11
-147.313
 21
-181.975
  0
LINE
  8
0
 10
-147.313
 20
-181.975
 11
-147
 21
-182
  0
LINE
  8
0
 10
-147
 20
-182
 11
-119
 21
-182
  0
LINE
  8
0
 10
-119
 20
-182
 11
-119
 21
-178.75
  0
LINE
  8
0
 10
-55.915
 20
-97.8347
 11
-58.8905
 21
-96.8678
  0
LINE
  8
0
 10
-58.8905
 20
-96.8678
 11
-60.4356
 21
-96.6231
  0
LINE
  8
0
 10
-60.4356
 20
-96.6231
 11
-62
 21
-96.5
  0
LINE
  8
0
 10
-62
 20
-96.5
 11
-148
 21
-96.5
  0
LINE
  8
0
 10
-148
 20
-96.5
 11
-148
 21
-81.5509
  0
LINE
  8
0
 10
-148
 20
-81.5509
 11
-147.868
 21
-80.718
  0
LINE
  8
0
 10
-147.868
 20
-80.718
 11
-147.738
 21
-80.4635
  0
LINE
  8
0
 10
-147.738
 20
-80.4635
 11
-147.536
 21
-80.2616
  0
LINE
  8
0
 10
-147.536
 20
-80.2616
 11
-147.282
 21
-80.1319
  0
LINE
  8
0
 10
-147.282
 20
-80.1319
 11
-146.449
 21
-80
  0
LINE
  8
0
 10
-146.449
 20
-80
 11
-146
 21
-80
  0
LINE
  8
0
 10
-146
 20
-80
 11
-143
 21
-85.1962
  0
LINE
  8
0
 10
-143
 20
-85.1962
 11
-137
 21
-85.1962
  0
LINE
  8
0
 10
-137
 20
-85.1962
 11
-134
 21
-80
  0
LINE
  8
0
 10
-134
 20
-80
 11
-134.022
 21
-79.9619
  0
LINE
  8
0
 10
-134.022
 20
-79.9619
 11
-132.919
 21
-79.8454
  0
LINE
  8
0
 10
-132.919
 20
-79.8454
 11
-130.875
 21
-79.0582
  0
LINE
  8
0
 10
-130.875
 20
-79.0582
 11
-129.175
 21
-77.6779
  0
LINE
  8
0
 10
-129.175
 20
-77.6779
 11
-119.41
 21
-66.8077
  0
LINE
  8
0
 10
-119.41
 20
-66.8077
 11
-118.27
 21
-65.8819
  0
LINE
  8
0
 10
-118.27
 20
-65.8819
 11
-117.419
 21
-65.5544
  0
LINE
  8
0
 10
-117.419
 20
-65.5544
 11
-116.509
 21
-65.5056
  0
LINE
  8
0
 10
-116.509
 20
-65.5056
 11
-115.629
 21
-65.7404
  0
LINE
  8
0
 10
-115.629
 20
-65.7404
 11
-114.395
 21
-66.5392
  0
LINE
  8
0
 10
-114.395
 20
-66.5392
 11
-102.01
 21
-77.665
  0
LINE
  8
0
 10
-102.01
 20
-77.665
 11
-99.8373
 21
-78.9941
  0
LINE
  8
0
 10
-99.8373
 20
-78.9941
 11
-98.4219
 21
-79.5365
  0
LINE
  8
0
 10
-98.4219
 20
-79.5365
 11
-95.917
 21
-80
  0
LINE
  8
0
 10
-95.917
 20
-80
 11
-55.5
 21
-80
  0
LINE
  8
0
 10
-55.5
 20
-80
 11
-55.5
 21
-98.0461
  0
LINE
  8
0
 10
-55.5
 20
-98.0461
 11
-55.915
 21
-97.8347
  0
LINE
  8
0
 10
-141.5
 20
-82.5981
 11
-143
 21
-80
  0
LINE
  8
0
 10
-143
 20
-80
 11
-141.5
 21
-77.4019
  0
LINE
  8
0
 10
-141.5
 20
-77.4019
 11
-138.5
 21
-77.4019
  0
LINE
  8
0
 10
-138.5
 20
-77.4019
 11
-137
 21
-80
  0
LINE
  8
0
 10
-137
 20
-80
 11
-138.5
 21
-82.5981
  0
LINE
  8
0
 10
-138.5
 20
-82.5981
 11
-141.5
 21
-82.5981
  0
LINE
  8
0
 10
-21.5
 20
-82.5981
 11
-23
 21
-80
  0
LINE
  8
0
 10
-23
 20
-80
 11
-21.5
 21
-77.4019
  0
LINE
  8
0
 10
-21.5
 20
-77.4019
 11
-18.5
 21
-77.4019
  0
LINE
  8
0
 10
-18.5
 20
-77.4019
 11
-17
 21
-80
  0
LINE
  8
0
 10
-17
 20
-80
 11
-18.5
 21
-82.5981
  0
LINE
  8
0
 10
-18.5
 20
-82.5981
 11
-21.5
 21
-82.5981
  0
LINE
  8
0
 10
-50.5
 20
-173
 11
-50.5
 21
-150.982
  0
LINE
  8
0
 10
-50.5
 20
-150.982
 11
-49.0448
 21
-148.979
  0
LINE
  8
0
 10
-49.0448
 20
-148.979
 11
-48.3347
 21
-147.585
  0
LINE
  8
0
 10
-48.3347
 20
-147.585
 11
-47.3678
 21
-144.609
  0
LINE
  8
0
 10
-47.3678
 20
-144.609
 11
-47.1231
 21
-143.064
  0
LINE
  8
0
 10
-47.1231
 20
-143.064
 11
-47
 21
-141.5
  0
LINE
  8
0
 10
-47
 20
-141.5
 11
-47
 21
-111.5
  0
LINE
  8
0
 10
-47
 20
-111.5
 11
-47.1231
 21
-109.936
  0
LINE
  8
0
 10
-47.1231
 20
-109.936
 11
-47.3678
 21
-108.391
  0
LINE
  8
0
 10
-47.3678
 20
-108.391
 11
-48.3347
 21
-105.415
  0
LINE
  8
0
 10
-48.3347
 20
-105.415
 11
-49.0448
 21
-104.021
  0
LINE
  8
0
 10
-49.0448
 20
-104.021
 11
-50.5
 21
-102.018
  0
LINE
  8
0
 10
-50.5
 20
-102.018
 11
-50.5
 21
-80
  0
LINE
  8
0
 10
-50.5
 20
-80
 11
-26
 21
-80
  0
LINE
  8
0
 10
-26
 20
-80
 11
-23
 21
-85.1962
  0
LINE
  8
0
 10
-23
 20
-85.1962
 11
-17
 21
-85.1962
  0
LINE
  8
0
 10
-17
 20
-85.1962
 11
-14
 21
-80
  0
LINE
  8
0
 10
-14
 20
-80
 11
-8.55087
 21
-80
  0
LINE
  8
0
 10
-8.55087
 20
-80
 11
-7.71797
 21
-80.1319
  0
LINE
  8
0
 10
-7.71797
 20
-80.1319
 11
-7.46352
 21
-80.2616
  0
LINE
  8
0
 10
-7.46352
 20
-80.2616
 11
-7.26157
 21
-80.4635
  0
LINE
  8
0
 10
-7.26157
 20
-80.4635
 11
-7.13191
 21
-80.718
  0
LINE
  8
0
 10
-7.13191
 20
-80.718
 11
-7
 21
-81.5509
  0
LINE
  8
0
 10
-7
 20
-81.5509
 11
-7
 21
-171.449
  0
LINE
  8
0
 10
-7
 20
-171.449
 11
-7.13191
 21
-172.282
  0
LINE
  8
0
 10
-7.13191
 20
-172.282
 11
-7.26157
 21
-172.536
  0
LINE
  8
0
 10
-7.26157
 20
-172.536
 11
-7.46352
 21
-172.738
  0
LINE
  8
0
 10
-7.46352
 20
-172.738
 11
-7.71797
 21
-172.868
  0
LINE
  8
0
 10
-7.71797
 20
-172.868
 11
-8.55087
 21
-173
  0
LINE
  8
0
 10
-8.55087
 20
-173
 11
-14
 21
-173
  0
LINE
  8
0
 10
-14
 20
-173
 11
-17
 21
-167.804
  0
LINE
  8
0
 10
-17
 20
-167.804
 11
-23
 21
-167.804
  0
LINE
  8
0
 10
-23
 20
-167.804
 11
-26
 21
-173
  0
LINE
  8
0
 10
-26
 20
-173
 11
-50.5
 21
-173
  0
LINE
  8
0
 10
-155
 20
-103.05
 11
-155
 21
-82.95
  0
LINE
  8
0
 10
-155
 20
-82.95
 11
-152.95
 21
-82.95
  0
LINE
  8
0
 10
-152.95
 20
-82.95
 11
-152.95
 21
-103.05
  0
LINE
  8
0
 10
-152.95
 20
-103.05
 11
-155
 21
-103.05
  0
LINE
  8
0
 10
-140.541
 20
-103.164
 11
-141.029
 21
-102.916
  0
LINE
  8
0
 10
-141.029
 20
-102.916
 11
-141.416
 21
-102.529
  0
LINE
  8
0
 10
-141.416
 20
-102.529
 11
-141.664
 21
-102.041
  0
LINE
  8
0
 10
-141.664
 20
-102.041
 11
-141.75
 21
-101.5
  0
LINE
  8
0
 10
-141.75
 20
-101.5
 11
-141.664
 21
-100.959
  0
LINE
  8
0
 10
-141.664
 20
-100.959
 11
-141.416
 21
-100.471
  0
LINE
  8
0
 10
-141.416
 20
-100.471
 11
-141.029
 21
-100.084
  0
LINE
  8
0
 10
-141.029
 20
-100.084
 11
-140.541
 21
-99.8357
  0
LINE
  8
0
 10
-140.541
 20
-99.8357
 11
-140
 21
-99.75
  0
LINE
  8
0
 10
-140
 20
-99.75
 11
-139.459
 21
-99.8357
  0
LINE
  8
0
 10
-139.459
 20
-99.8357
 11
-138.971
 21
-100.084
  0
LINE
  8
0
 10
-138.971
 20
-100.084
 11
-138.584
 21
-100.471
  0
LINE
  8
0
 10
-138.584
 20
-100.471
 11
-138.336
 21
-100.959
  0
LINE
  8
0
 10
-138.336
 20
-100.959
 11
-138.25
 21
-101.5
  0
LINE
  8
0
 10
-138.25
 20
-101.5
 11
-138.336
 21
-102.041
  0
LINE
  8
0
 10
-138.336
 20
-102.041
 11
-138.584
 21
-102.529
  0
LINE
  8
0
 10
-138.584
 20
-102.529
 11
-138.971
 21
-102.916
  0
LINE
  8
0
 10
-138.971
 20
-102.916
 11
-139.459
 21
-103.164
  0
LINE
  8
0
 10
-139.459
 20
-103.164
 11
-140
 21
-103.25
  0
LINE
  8
0
 10
-140
 20
-103.25
 11
-140.541
 21
-103.164
  0
LINE
  8
0
 10
-70.5408
 20
-103.164
 11
-71.0286
 21
-102.916
  0
LINE
  8
0
 10
-71.0286
 20
-102.916
 11
-71.4158
 21
-102.529
  0
LINE
  8
0
 10
-71.4158
 20
-102.529
 11
-71.6643
 21
-102.041
  0
LINE
  8
0
 10
-71.6643
 20
-102.041
 11
-71.75
 21
-101.5
  0
LINE
  8
0
 10
-71.75
 20
-101.5
 11
-71.6643
 21
-100.959
  0
LINE
  8
0
 10
-71.6643
 20
-100.959
 11
-71.4158
 21
-100.471
  0
LINE
  8
0
 10
-71.4158
 20
-100.471
 11
-71.0286
 21
-100.084
  0
LINE
  8
0
 10
-71.0286
 20
-100.084
 11
-70.5408
 21
-99.8357
  0
LINE
  8
0
 10
-70.5408
 20
-99.8357
 11
-70
 21
-99.75
  0
LINE
  8
0
 10
-70
 20
-99.75
 11
-69.4592
 21
-99.8357
  0
LINE
  8
0
 10
-69.4592
 20
-99.8357
 11
-68.9714
 21
-100.084
  0
LINE
  8
0
 10
-68.9714
 20
-100.084
 11
-68.5842
 21
-100.471
  0
LINE
  8
0
 10
-68.5842
 20
-100.471
 11
-68.3356
 21
-100.959
  0
LINE
  8
0
 10
-68.3356
 20
-100.959
 11
-68.25
 21
-101.5
  0
LINE
  8
0
 10
-68.25
 20
-101.5
 11
-68.3356
 21
-102.041
  0
LINE
  8
0
 10
-68.3356
 20
-102.041
 11
-68.5842
 21
-102.529
  0
LINE
  8
0
 10
-68.5842
 20
-102.529
 11
-68.9714
 21
-102.916
  0
LINE
  8
0
 10
-68.9714
 20
-102.916
 11
-69.4592
 21
-103.164
  0
LINE
  8
0
 10
-69.4592
 20
-103.164
 11
-70
 21
-103.25
  0
LINE
  8
0
 10
-70
 20
-103.25
 11
-70.5408
 21
-103.164
  0
LINE
  8
0
 10
-140.541
 20
-153.164
 11
-141.029
 21
-152.916
  0
LINE
  8
0
 10
-141.029
 20
-152.916
 11
-141.416
 21
-152.529
  0
LINE
  8
0
 10
-141.416
 20
-152.529
 11
-141.664
 21
-152.041
  0
LINE
  8
0
 10
-141.664
 20
-152.041
 11
-141.75
 21
-151.5
  0
LINE
  8
0
 10
-141.75
 20
-151.5
 11
-141.664
 21
-150.959
  0
LINE
  8
0
 10
-141.664
 20
-150.959
 11
-141.416
 21
-150.471
  0
LINE
  8
0
 10
-141.416
 20
-150.471
 11
-141.029
 21
-150.084
  0
LINE
  8
0
 10
-141.029
 20
-150.084
 11
-140.541
 21
-149.836
  0
LINE
  8
0
 10
-140.541
 20
-149.836
 11
-140
 21
-149.75
  0
LINE
  8
0
 10
-140
 20
-149.75
 11
-139.459
 21
-149.836
  0
LINE
  8
0
 10
-139.459
 20
-149.836
 11
-138.971
 21
-150.084
  0
LINE
  8
0
 10
-138.971
 20
-150.084
 11
-138.584
 21
-150.471
  0
LINE
  8
0
 10
-138.584
 20
-150.471
 11
-138.336
 21
-150.959
  0
LINE
  8
0
 10
-138.336
 20
-150.959
 11
-138.25
 21
-151.5
  0
LINE
  8
0
 10
-138.25
 20
-151.5
 11
-138.336
 21
-152.041
  0
LINE
  8
0
 10
-138.336
 20
-152.041
 11
-138.584
 21
-152.529
  0
LINE
  8
0
 10
-138.584
 20
-152.529
 11
-138.971
 21
-152.916
  0
LINE
  8
0
 10
-138.971
 20
-152.916
 11
-139.459
 21
-153.164
  0
LINE
  8
0
 10
-139.459
 20
-153.164
 11
-140
 21
-153.25
  0
LINE
  8
0
 10
-140
 20
-153.25
 11
-140.541
 21
-153.164
  0
LINE
  8
0
 10
-70.5408
 20
-153.164
 11
-71.0286
 21
-152.916
  0
LINE
  8
0
 10
-71.0286
 20
-152.916
 11
-71.4158
 21
-152.529
  0
LINE
  8
0
 10
-71.4158
 20
-152.529
 11
-71.6643
 21
-152.041
  0
LINE
  8
0
 10
-71.6643
 20
-152.041
 11
-71.75
 21
-151.5
  0
LINE
  8
0
 10
-71.75
 20
-151.5
 11
-71.6643
 21
-150.959
  0
LINE
  8
0
 10
-71.6643
 20
-150.959
 11
-71.4158
 21
-150.471
  0
LINE
  8
0
 10
-71.4158
 20
-150.471
 11
-71.0286
 21
-150.084
  0
LINE
  8
0
 10
-71.0286
 20
-150.084
 11
-70.5408
 21
-149.836
  0
LINE
  8
0
 10
-70.5408
 20
-149.836
 11
-70
 21
-149.75
  0
LINE
  8
0
 10
-70
 20
-149.75
 11
-69.4592
 21
-149.836
  0
LINE
  8
0
 10
-69.4592
 20
-149.836
 11
-68.9714
 21
-150.084
  0
LINE
  8
0
 10
-68.9714
 20
-150.084
 11
-68.5842
 21
-150.471
  0
LINE
  8
0
 10
-68.5842
 20
-150.471
 11
-68.3356
 21
-150.959
  0
LINE
  8
0
 10
-68.3356
 20
-150.959
 11
-68.25
 21
-151.5
  0
LINE
  8
0
 10
-68.25
 20
-151.5
 11
-68.3356
 21
-152.041
  0
LINE
  8
0
 10
-68.3356
 20
-152.041
 11
-68.5842
 21
-152.529
  0
LINE
  8
0
 10
-68.5842
 20
-152.529
 11
-68.9714
 21
-152.916
  0
LINE
  8
0
 10
-68.9714
 20
-152.916
 11
-69.4592
 21
-153.164
  0
LINE
  8
0
 10
-69.4592
 20
-153.164
 11
-70
 21
-153.25
  0
LINE
  8
0
 10
-70
 20
-153.25
 11
-70.5408
 21
-153.164
  0
LINE
  8
0
 10
-155
 20
-170.05
 11
-155
 21
-149.95
  0
LINE
  8
0
 10
-155
 20
-149.95
 11
-152.95
 21
-149.95
  0
LINE
  8
0
 10
-152.95
 20
-149.95
 11
-152.95
 21
-170.05
  0
LINE
  8
0
 10
-152.95
 20
-170.05
 11
-155
 21
-170.05
  0
LINE
  8
0
 10
-141.5
 20
-175.598
 11
-143
 21
-173
  0
LINE
  8
0
 10
-143
 20
-173
 11
-141.5
 21
-170.402
  0
LINE
  8
0
 10
-141.5
 20
-170.402
 11
-138.5
 21
-170.402
  0
LINE
  8
0
 10
-138.5
 20
-170.402
 11
-137
 21
-173
  0
LINE
  8
0
 10
-137
 20
-173
 11
-138.5
 21
-175.598
  0
LINE
  8
0
 10
-138.5
 20
-175.598
 11
-141.5
 21
-175.598
  0
LINE
  8
0
 10
-21.5
 20
-175.598
 11
-23
 21
-173
  0
LINE
  8
0
 10
-23
 20
-173
 11
-21.5
 21
-170.402
  0
LINE
  8
0
 10
-21.5
 20
-170.402
 11
-18.5
 21
-170.402
  0
LINE
  8
0
 10
-18.5
 20
-170.402
 11
-17
 21
-173
  0
LINE
  8
0
 10
-17
 20
-173
 11
-18.5
 21
-175.598
  0
LINE
  8
0
 10
-18.5
 20
-175.598
 11
-21.5
 21
-175.598
  0
LINE
  8
0
 10
82.7
 20
-173
 11
58
 21
-173
  0
LINE
  8
0
 10
58
 20
-173
 11
55
 21
-167.804
  0
LINE
  8
0
 10
55
 20
-167.804
 11
49
 21
-167.804
  0
LINE
  8
0
 10
49
 20
-167.804
 11
46
 21
-173
  0
LINE
  8
0
 10
46
 20
-173
 11
15.5509
 21
-173
  0
LINE
  8
0
 10
15.5509
 20
-173
 11
14.718
 21
-172.868
  0
LINE
  8
0
 10
14.718
 20
-172.868
 11
14.4635
 21
-172.738
  0
LINE
  8
0
 10
14.4635
 20
-172.738
 11
14.2616
 21
-172.536
  0
LINE
  8
0
 10
14.2616
 20
-172.536
 11
14.1319
 21
-172.282
  0
LINE
  8
0
 10
14.1319
 20
-172.282
 11
14
 21
-171.449
  0
LINE
  8
0
 10
14
 20
-171.449
 11
14
 21
-81.5509
  0
LINE
  8
0
 10
14
 20
-81.5509
 11
14.1319
 21
-80.718
  0
LINE
  8
0
 10
14.1319
 20
-80.718
 11
14.2616
 21
-80.4635
  0
LINE
  8
0
 10
14.2616
 20
-80.4635
 11
14.4635
 21
-80.2616
  0
LINE
  8
0
 10
14.4635
 20
-80.2616
 11
14.718
 21
-80.1319
  0
LINE
  8
0
 10
14.718
 20
-80.1319
 11
15.5509
 21
-80
  0
LINE
  8
0
 10
15.5509
 20
-80
 11
46
 21
-80
  0
LINE
  8
0
 10
46
 20
-80
 11
49
 21
-85.1962
  0
LINE
  8
0
 10
49
 20
-85.1962
 11
55
 21
-85.1962
  0
LINE
  8
0
 10
55
 20
-85.1962
 11
58
 21
-80
  0
LINE
  8
0
 10
58
 20
-80
 11
113
 21
-80
  0
LINE
  8
0
 10
113
 20
-80
 11
116
 21
-85.1962
  0
LINE
  8
0
 10
116
 20
-85.1962
 11
116.5
 21
-85.1962
  0
LINE
  8
0
 10
116.5
 20
-85.1962
 11
116.5
 21
-103.395
  0
LINE
  8
0
 10
116.5
 20
-103.395
 11
116.045
 21
-104.021
  0
LINE
  8
0
 10
116.045
 20
-104.021
 11
115.335
 21
-105.415
  0
LINE
  8
0
 10
115.335
 20
-105.415
 11
114.368
 21
-108.391
  0
LINE
  8
0
 10
114.368
 20
-108.391
 11
114.123
 21
-109.936
  0
LINE
  8
0
 10
114.123
 20
-109.936
 11
114
 21
-111.5
  0
LINE
  8
0
 10
114
 20
-111.5
 11
114
 21
-141.5
  0
LINE
  8
0
 10
114
 20
-141.5
 11
114.123
 21
-143.064
  0
LINE
  8
0
 10
114.123
 20
-143.064
 11
114.368
 21
-144.609
  0
LINE
  8
0
 10
114.368
 20
-144.609
 11
115.335
 21
-147.585
  0
LINE
  8
0
 10
115.335
 20
-147.585
 11
116.045
 21
-148.979
  0
LINE
  8
0
 10
116.045
 20
-148.979
 11
117.884
 21
-151.51
  0
LINE
  8
0
 10
117.884
 20
-151.51
 11
118.99
 21
-152.616
  0
LINE
  8
0
 10
118.99
 20
-152.616
 11
119.5
 21
-152.987
  0
LINE
  8
0
 10
119.5
 20
-152.987
 11
119.5
 21
-156.85
  0
LINE
  8
0
 10
119.5
 20
-156.85
 11
121.3
 21
-156.85
  0
LINE
  8
0
 10
121.3
 20
-156.85
 11
121.3
 21
-182
  0
LINE
  8
0
 10
121.3
 20
-182
 11
124.75
 21
-182
  0
LINE
  8
0
 10
124.75
 20
-182
 11
124.75
 21
-176.555
  0
LINE
  8
0
 10
124.75
 20
-176.555
 11
123.595
 21
-176.555
  0
LINE
  8
0
 10
123.595
 20
-176.555
 11
123.595
 21
-159.445
  0
LINE
  8
0
 10
123.595
 20
-159.445
 11
124.5
 21
-159.445
  0
LINE
  8
0
 10
124.5
 20
-159.445
 11
124.5
 21
-155.68
  0
LINE
  8
0
 10
124.5
 20
-155.68
 11
125.891
 21
-156.132
  0
LINE
  8
0
 10
125.891
 20
-156.132
 11
127.436
 21
-156.377
  0
LINE
  8
0
 10
127.436
 20
-156.377
 11
129
 21
-156.5
  0
LINE
  8
0
 10
129
 20
-156.5
 11
165
 21
-156.5
  0
LINE
  8
0
 10
165
 20
-156.5
 11
165
 21
-171.449
  0
LINE
  8
0
 10
165
 20
-171.449
 11
164.868
 21
-172.282
  0
LINE
  8
0
 10
164.868
 20
-172.282
 11
164.738
 21
-172.536
  0
LINE
  8
0
 10
164.738
 20
-172.536
 11
164.536
 21
-172.738
  0
LINE
  8
0
 10
164.536
 20
-172.738
 11
164.282
 21
-172.868
  0
LINE
  8
0
 10
164.282
 20
-172.868
 11
163.449
 21
-173
  0
LINE
  8
0
 10
163.449
 20
-173
 11
160
 21
-173
  0
LINE
  8
0
 10
160
 20
-173
 11
157
 21
-167.804
  0
LINE
  8
0
 10
157
 20
-167.804
 11
151
 21
-167.804
  0
LINE
  8
0
 10
151
 20
-167.804
 11
148
 21
-173
  0
LINE
  8
0
 10
148
 20
-173
 11
140.405
 21
-173
  0
LINE
  8
0
 10
140.405
 20
-173
 11
140.405
 21
-176.555
  0
LINE
  8
0
 10
140.405
 20
-176.555
 11
139.25
 21
-176.555
  0
LINE
  8
0
 10
139.25
 20
-176.555
 11
139.25
 21
-182
  0
LINE
  8
0
 10
139.25
 20
-182
 11
164
 21
-182
  0
LINE
  8
0
 10
164
 20
-182
 11
164.313
 21
-181.975
  0
LINE
  8
0
 10
164.313
 20
-181.975
 11
166.785
 21
-181.584
  0
LINE
  8
0
 10
166.785
 20
-181.584
 11
167.38
 21
-181.39
  0
LINE
  8
0
 10
167.38
 20
-181.39
 11
169.61
 21
-180.254
  0
LINE
  8
0
 10
169.61
 20
-180.254
 11
170.117
 21
-179.886
  0
LINE
  8
0
 10
170.117
 20
-179.886
 11
171.886
 21
-178.117
  0
LINE
  8
0
 10
171.886
 20
-178.117
 11
172.254
 21
-177.61
  0
LINE
  8
0
 10
172.254
 20
-177.61
 11
173.39
 21
-175.38
  0
LINE
  8
0
 10
173.39
 20
-175.38
 11
173.584
 21
-174.785
  0
LINE
  8
0
 10
173.584
 20
-174.785
 11
173.975
 21
-172.313
  0
LINE
  8
0
 10
173.975
 20
-172.313
 11
174
 21
-172
  0
LINE
  8
0
 10
174
 20
-172
 11
174
 21
-146.5
  0
LINE
  8
0
 10
174
 20
-146.5
 11
129
 21
-146.5
  0
LINE
  8
0
 10
129
 20
-146.5
 11
127.455
 21
-146.255
  0
LINE
  8
0
 10
127.455
 20
-146.255
 11
126.061
 21
-145.545
  0
LINE
  8
0
 10
126.061
 20
-145.545
 11
124.955
 21
-144.439
  0
LINE
  8
0
 10
124.955
 20
-144.439
 11
124.245
 21
-143.045
  0
LINE
  8
0
 10
124.245
 20
-143.045
 11
124
 21
-141.5
  0
LINE
  8
0
 10
124
 20
-141.5
 11
124
 21
-111.5
  0
LINE
  8
0
 10
124
 20
-111.5
 11
124.245
 21
-109.955
  0
LINE
  8
0
 10
124.245
 20
-109.955
 11
124.955
 21
-108.561
  0
LINE
  8
0
 10
124.955
 20
-108.561
 11
126.061
 21
-107.455
  0
LINE
  8
0
 10
126.061
 20
-107.455
 11
127.455
 21
-106.745
  0
LINE
  8
0
 10
127.455
 20
-106.745
 11
129
 21
-106.5
  0
LINE
  8
0
 10
129
 20
-106.5
 11
174
 21
-106.5
  0
LINE
  8
0
 10
174
 20
-106.5
 11
174
 21
-81
  0
LINE
  8
0
 10
174
 20
-81
 11
173.975
 21
-80.6871
  0
LINE
  8
0
 10
173.975
 20
-80.6871
 11
173.584
 21
-78.215
  0
LINE
  8
0
 10
173.584
 20
-78.215
 11
173.39
 21
-77.6199
  0
LINE
  8
0
 10
173.39
 20
-77.6199
 11
172.254
 21
-75.3897
  0
LINE
  8
0
 10
172.254
 20
-75.3897
 11
171.886
 21
-74.8835
  0
LINE
  8
0
 10
171.886
 20
-74.8835
 11
170.117
 21
-73.1136
  0
LINE
  8
0
 10
170.117
 20
-73.1136
 11
169.61
 21
-72.7458
  0
LINE
  8
0
 10
169.61
 20
-72.7458
 11
168.195
 21
-72.0245
  0
LINE
  8
0
 10
168.195
 20
-72.0245
 11
157.737
 21
-60.3834
  0
LINE
  8
0
 10
157.737
 20
-60.3834
 11
157.51
 21
-60.1671
  0
LINE
  8
0
 10
157.51
 20
-60.1671
 11
155.081
 21
-58.1954
  0
LINE
  8
0
 10
155.081
 20
-58.1954
 11
154.539
 21
-57.8819
  0
LINE
  8
0
 10
154.539
 20
-57.8819
 11
151.619
 21
-56.7573
  0
LINE
  8
0
 10
151.619
 20
-56.7573
 11
151.008
 21
-56.6265
  0
LINE
  8
0
 10
151.008
 20
-56.6265
 11
147.883
 21
-56.4592
  0
LINE
  8
0
 10
147.883
 20
-56.4592
 11
147.261
 21
-56.5239
  0
LINE
  8
0
 10
147.261
 20
-56.5239
 11
144.238
 21
-57.3302
  0
LINE
  8
0
 10
144.238
 20
-57.3302
 11
143.666
 21
-57.584
  0
LINE
  8
0
 10
143.666
 20
-57.584
 11
141.04
 21
-59.285
  0
LINE
  8
0
 10
141.04
 20
-59.285
 11
140.791
 21
-59.4758
  0
LINE
  8
0
 10
140.791
 20
-59.4758
 11
128.271
 21
-70.7225
  0
LINE
  8
0
 10
128.271
 20
-70.7225
 11
127.547
 21
-71
  0
LINE
  8
0
 10
127.547
 20
-71
 11
15
 21
-71
  0
LINE
  8
0
 10
15
 20
-71
 11
14.6871
 21
-71.0246
  0
LINE
  8
0
 10
14.6871
 20
-71.0246
 11
12.215
 21
-71.4162
  0
LINE
  8
0
 10
12.215
 20
-71.4162
 11
11.6199
 21
-71.6095
  0
LINE
  8
0
 10
11.6199
 20
-71.6095
 11
9.38972
 21
-72.7458
  0
LINE
  8
0
 10
9.38972
 20
-72.7458
 11
8.8835
 21
-73.1136
  0
LINE
  8
0
 10
8.8835
 20
-73.1136
 11
7.11365
 21
-74.8835
  0
LINE
  8
0
 10
7.11365
 20
-74.8835
 11
6.74585
 21
-75.3897
  0
LINE
  8
0
 10
6.74585
 20
-75.3897
 11
5.60953
 21
-77.6199
  0
LINE
  8
0
 10
5.60953
 20
-77.6199
 11
5.41617
 21
-78.215
  0
LINE
  8
0
 10
5.41617
 20
-78.215
 11
5.02463
 21
-80.6871
  0
LINE
  8
0
 10
5.02463
 20
-80.6871
 11
5
 21
-81
  0
LINE
  8
0
 10
5
 20
-81
 11
5
 21
-172
  0
LINE
  8
0
 10
5
 20
-172
 11
5.02463
 21
-172.313
  0
LINE
  8
0
 10
5.02463
 20
-172.313
 11
5.41617
 21
-174.785
  0
LINE
  8
0
 10
5.41617
 20
-174.785
 11
5.60953
 21
-175.38
  0
LINE
  8
0
 10
5.60953
 20
-175.38
 11
6.74585
 21
-177.61
  0
LINE
  8
0
 10
6.74585
 20
-177.61
 11
7.11365
 21
-178.117
  0
LINE
  8
0
 10
7.11365
 20
-178.117
 11
8.8835
 21
-179.886
  0
LINE
  8
0
 10
8.8835
 20
-179.886
 11
9.38972
 21
-180.254
  0
LINE
  8
0
 10
9.38972
 20
-180.254
 11
11.6199
 21
-181.39
  0
LINE
  8
0
 10
11.6199
 20
-181.39
 11
12.215
 21
-181.584
  0
LINE
  8
0
 10
12.215
 20
-181.584
 11
14.6871
 21
-181.975
  0
LINE
  8
0
 10
14.6871
 20
-181.975
 11
15
 21
-182
  0
LINE
  8
0
 10
15
 20
-182
 11
82.7
 21
-182
  0
LINE
  8
0
 10
82.7
 20
-182
 11
82.7
 21
-173
  0
LINE
  8
0
 10
121.5
 20
-85.1962
 11
122
 21
-85.1962
  0
LINE
  8
0
 10
122
 20
-85.1962
 11
125
 21
-80
  0
LINE
  8
0
 10
125
 20
-80
 11
127.917
 21
-80
  0
LINE
  8
0
 10
127.917
 20
-80
 11
130.422
 21
-79.5365
  0
LINE
  8
0
 10
130.422
 20
-79.5365
 11
131.837
 21
-78.9941
  0
LINE
  8
0
 10
131.837
 20
-78.9941
 11
134.01
 21
-77.665
  0
LINE
  8
0
 10
134.01
 20
-77.665
 11
146.395
 21
-66.5392
  0
LINE
  8
0
 10
146.395
 20
-66.5392
 11
147.629
 21
-65.7404
  0
LINE
  8
0
 10
147.629
 20
-65.7404
 11
148.509
 21
-65.5056
  0
LINE
  8
0
 10
148.509
 20
-65.5056
 11
149.419
 21
-65.5544
  0
LINE
  8
0
 10
149.419
 20
-65.5544
 11
150.27
 21
-65.8819
  0
LINE
  8
0
 10
150.27
 20
-65.8819
 11
151.41
 21
-66.8077
  0
LINE
  8
0
 10
151.41
 20
-66.8077
 11
161.748
 21
-78.3156
  0
LINE
  8
0
 10
161.748
 20
-78.3156
 11
163.777
 21
-79.8748
  0
LINE
  8
0
 10
163.777
 20
-79.8748
 11
164.536
 21
-80.2616
  0
LINE
  8
0
 10
164.536
 20
-80.2616
 11
164.738
 21
-80.4635
  0
LINE
  8
0
 10
164.738
 20
-80.4635
 11
164.868
 21
-80.718
  0
LINE
  8
0
 10
164.868
 20
-80.718
 11
165
 21
-81.5509
  0
LINE
  8
0
 10
165
 20
-81.5509
 11
165
 21
-96.5
  0
LINE
  8
0
 10
165
 20
-96.5
 11
129
 21
-96.5
  0
LINE
  8
0
 10
129
 20
-96.5
 11
127.436
 21
-96.6231
  0
LINE
  8
0
 10
127.436
 20
-96.6231
 11
125.891
 21
-96.8678
  0
LINE
  8
0
 10
125.891
 20
-96.8678
 11
122.915
 21
-97.8347
  0
LINE
  8
0
 10
122.915
 20
-97.8347
 11
121.521
 21
-98.5448
  0
LINE
  8
0
 10
121.521
 20
-98.5448
 11
121.5
 21
-98.5602
  0
LINE
  8
0
 10
121.5
 20
-98.5602
 11
121.5
 21
-85.1962
  0
LINE
  8
0
 10
117.5
 20
-82.5981
 11
116
 21
-80
  0
LINE
  8
0
 10
116
 20
-80
 11
117.5
 21
-77.4019
  0
LINE
  8
0
 10
117.5
 20
-77.4019
 11
120.5
 21
-77.4019
  0
LINE
  8
0
 10
120.5
 20
-77.4019
 11
122
 21
-80
  0
LINE
  8
0
 10
122
 20
-80
 11
120.5
 21
-82.5981
  0
LINE
  8
0
 10
120.5
 20
-82.5981
 11
117.5
 21
-82.5981
  0
LINE
  8
0
 10
50.5
 20
-82.5981
 11
49
 21
-80
  0
LINE
  8
0
 10
49
 20
-80
 11
50.5
 21
-77.4019
  0
LINE
  8
0
 10
50.5
 20
-77.4019
 11
53.5
 21
-77.4019
  0
LINE
  8
0
 10
53.5
 20
-77.4019
 11
55
 21
-80
  0
LINE
  8
0
 10
55
 20
-80
 11
53.5
 21
-82.5981
  0
LINE
  8
0
 10
53.5
 20
-82.5981
 11
50.5
 21
-82.5981
  0
LINE
  8
0
 10
169.95
 20
-103.05
 11
169.95
 21
-82.95
  0
LINE
  8
0
 10
169.95
 20
-82.95
 11
172
 21
-82.95
  0
LINE
  8
0
 10
172
 20
-82.95
 11
172
 21
-103.05
  0
LINE
  8
0
 10
172
 20
-103.05
 11
169.95
 21
-103.05
  0
LINE
  8
0
 10
153.459
 20
-103.164
 11
152.971
 21
-102.916
  0
LINE
  8
0
 10
152.971
 20
-102.916
 11
152.584
 21
-102.529
  0
LINE
  8
0
 10
152.584
 20
-102.529
 11
152.336
 21
-102.041
  0
LINE
  8
0
 10
152.336
 20
-102.041
 11
152.25
 21
-101.5
  0
LINE
  8
0
 10
152.25
 20
-101.5
 11
152.336
 21
-100.959
  0
LINE
  8
0
 10
152.336
 20
-100.959
 11
152.584
 21
-100.471
  0
LINE
  8
0
 10
152.584
 20
-100.471
 11
152.971
 21
-100.084
  0
LINE
  8
0
 10
152.971
 20
-100.084
 11
153.459
 21
-99.8357
  0
LINE
  8
0
 10
153.459
 20
-99.8357
 11
154
 21
-99.75
  0
LINE
  8
0
 10
154
 20
-99.75
 11
154.541
 21
-99.8357
  0
LINE
  8
0
 10
154.541
 20
-99.8357
 11
155.029
 21
-100.084
  0
LINE
  8
0
 10
155.029
 20
-100.084
 11
155.416
 21
-100.471
  0
LINE
  8
0
 10
155.416
 20
-100.471
 11
155.664
 21
-100.959
  0
LINE
  8
0
 10
155.664
 20
-100.959
 11
155.75
 21
-101.5
  0
LINE
  8
0
 10
155.75
 20
-101.5
 11
155.664
 21
-102.041
  0
LINE
  8
0
 10
155.664
 20
-102.041
 11
155.416
 21
-102.529
  0
LINE
  8
0
 10
155.416
 20
-102.529
 11
155.029
 21
-102.916
  0
LINE
  8
0
 10
155.029
 20
-102.916
 11
154.541
 21
-103.164
  0
LINE
  8
0
 10
154.541
 20
-103.164
 11
154
 21
-103.25
  0
LINE
  8
0
 10
154
 20
-103.25
 11
153.459
 21
-103.164
  0
LINE
  8
0
 10
118.459
 20
-128.164
 11
117.971
 21
-127.916
  0
LINE
  8
0
 10
117.971
 20
-127.916
 11
117.584
 21
-127.529
  0
LINE
  8
0
 10
117.584
 20
-127.529
 11
117.336
 21
-127.041
  0
LINE
  8
0
 10
117.336
 20
-127.041
 11
117.25
 21
-126.5
  0
LINE
  8
0
 10
117.25
 20
-126.5
 11
117.336
 21
-125.959
  0
LINE
  8
0
 10
117.336
 20
-125.959
 11
117.584
 21
-125.471
  0
LINE
  8
0
 10
117.584
 20
-125.471
 11
117.971
 21
-125.084
  0
LINE
  8
0
 10
117.971
 20
-125.084
 11
118.459
 21
-124.836
  0
LINE
  8
0
 10
118.459
 20
-124.836
 11
119
 21
-124.75
  0
LINE
  8
0
 10
119
 20
-124.75
 11
119.541
 21
-124.836
  0
LINE
  8
0
 10
119.541
 20
-124.836
 11
120.029
 21
-125.084
  0
LINE
  8
0
 10
120.029
 20
-125.084
 11
120.416
 21
-125.471
  0
LINE
  8
0
 10
120.416
 20
-125.471
 11
120.664
 21
-125.959
  0
LINE
  8
0
 10
120.664
 20
-125.959
 11
120.75
 21
-126.5
  0
LINE
  8
0
 10
120.75
 20
-126.5
 11
120.664
 21
-127.041
  0
LINE
  8
0
 10
120.664
 20
-127.041
 11
120.416
 21
-127.529
  0
LINE
  8
0
 10
120.416
 20
-127.529
 11
120.029
 21
-127.916
  0
LINE
  8
0
 10
120.029
 20
-127.916
 11
119.541
 21
-128.164
  0
LINE
  8
0
 10
119.541
 20
-128.164
 11
119
 21
-128.25
  0
LINE
  8
0
 10
119
 20
-128.25
 11
118.459
 21
-128.164
  0
LINE
  8
0
 10
153.459
 20
-153.164
 11
152.971
 21
-152.916
  0
LINE
  8
0
 10
152.971
 20
-152.916
 11
152.584
 21
-152.529
  0
LINE
  8
0
 10
152.584
 20
-152.529
 11
152.336
 21
-152.041
  0
LINE
  8
0
 10
152.336
 20
-152.041
 11
152.25
 21
-151.5
  0
LINE
  8
0
 10
152.25
 20
-151.5
 11
152.336
 21
-150.959
  0
LINE
  8
0
 10
152.336
 20
-150.959
 11
152.584
 21
-150.471
  0
LINE
  8
0
 10
152.584
 20
-150.471
 11
152.971
 21
-150.084
  0
LINE
  8
0
 10
152.971
 20
-150.084
 11
153.459
 21
-149.836
  0
LINE
  8
0
 10
153.459
 20
-149.836
 11
154
 21
-149.75
  0
LINE
  8
0
 10
154
 20
-149.75
 11
154.541
 21
-149.836
  0
LINE
  8
0
 10
154.541
 20
-149.836
 11
155.029
 21
-150.084
  0
LINE
  8
0
 10
155.029
 20
-150.084
 11
155.416
 21
-150.471
  0
LINE
  8
0
 10
155.416
 20
-150.471
 11
155.664
 21
-150.959
  0
LINE
  8
0
 10
155.664
 20
-150.959
 11
155.75
 21
-151.5
  0
LINE
  8
0
 10
155.75
 20
-151.5
 11
155.664
 21
-152.041
  0
LINE
  8
0
 10
155.664
 20
-152.041
 11
155.416
 21
-152.529
  0
LINE
  8
0
 10
155.416
 20
-152.529
 11
155.029
 21
-152.916
  0
LINE
  8
0
 10
155.029
 20
-152.916
 11
154.541
 21
-153.164
  0
LINE
  8
0
 10
154.541
 20
-153.164
 11
154
 21
-153.25
  0
LINE
  8
0
 10
154
 20
-153.25
 11
153.459
 21
-153.164
  0
LINE
  8
0
 10
169.95
 20
-170.05
 11
169.95
 21
-149.95
  0
LINE
  8
0
 10
169.95
 20
-149.95
 11
172
 21
-149.95
  0
LINE
  8
0
 10
172
 20
-149.95
 11
172
 21
-170.05
  0
LINE
  8
0
 10
172
 20
-170.05
 11
169.95
 21
-170.05
  0
LINE
  8
0
 10
50.5
 20
-175.598
 11
49
 21
-173
  0
LINE
  8
0
 10
49
 20
-173
 11
50.5
 21
-170.402
  0
LINE
  8
0
 10
50.5
 20
-170.402
 11
53.5
 21
-170.402
  0
LINE
  8
0
 10
53.5
 20
-170.402
 11
55
 21
-173
  0
LINE
  8
0
 10
55
 20
-173
 11
53.5
 21
-175.598
  0
LINE
  8
0
 10
53.5
 20
-175.598
 11
50.5
 21
-175.598
  0
LINE
  8
0
 10
152.5
 20
-175.598
 11
151
 21
-173
  0
LINE
  8
0
 10
151
 20
-173
 11
152.5
 21
-170.402
  0
LINE
  8
0
 10
152.5
 20
-170.402
 11
155.5
 21
-170.402
  0
LINE
  8
0
 10
155.5
 20
-170.402
 11
157
 21
-173
  0
LINE
  8
0
 10
157
 20
-173
 11
155.5
 21
-175.598
  0
LINE
  8
0
 10
155.5
 20
-175.598
 11
152.5
 21
-175.598
  0
ENDSEC
  0
SECTION
  2
OBJECTS
  0
DICTIONARY
  0
ENDSEC
  0
EOF
