<?xml version="1.0" standalone="no"?>
<!DOCTYPE svg PUBLIC "-//W3C//DTD SVG 20010904//EN"
 "http://www.w3.org/TR/2001/REC-SVG-20010904/DTD/svg10.dtd">
<svg version="1.0" xmlns="http://www.w3.org/2000/svg"
 width="1000.000000pt" height="1000.000000pt" viewBox="0 0 1000.000000 1000.000000"
 preserveAspectRatio="xMidYMid meet">
<metadata>
Created by potrace 1.16, written by Peter Selinger 2001-2019
</metadata>
<g transform="translate(0.000000,1000.000000) scale(0.100000,-0.100000)"
fill="#000000" stroke="none">
<path d="M0 5000 l0 -5000 5000 0 5000 0 0 5000 0 5000 -5000 0 -5000 0 0
-5000z m5087 4045 c68 -20 143 -88 173 -157 84 -190 -53 -398 -262 -398 -55 0
-76 5 -129 33 -182 94 -208 329 -53 466 76 66 170 86 271 56z m-497 -729 c280
-277 299 -291 410 -291 111 0 130 14 410 291 145 144 264 254 274 254 35 0
312 -71 436 -111 784 -256 1452 -763 1904 -1444 51 -77 110 -170 131 -208 l37
-68 -163 -322 -164 -322 0 -75 c0 -65 4 -82 30 -129 16 -29 45 -66 63 -81 19
-15 172 -98 342 -184 l307 -156 7 -63 c14 -135 24 -429 17 -557 l-6 -135 -194
-3 c-123 -1 -199 -6 -208 -13 -10 -9 -13 -49 -13 -158 0 -170 -16 -257 -61
-350 -102 -206 -345 -279 -569 -169 -73 36 -157 114 -188 175 -12 22 -32 85
-46 139 -69 273 -216 532 -409 725 l-88 88 58 37 c150 96 313 242 404 363 255
341 287 763 88 1152 -184 359 -535 627 -946 721 l-98 22 -2020 6 -2020 5 118
118 c394 393 866 687 1397 870 123 42 439 125 480 126 19 1 81 -55 280 -253z
m-3052 -1897 c104 -51 156 -137 155 -254 0 -86 -18 -130 -80 -196 -173 -185
-485 -59 -485 197 0 125 83 239 202 275 14 4 52 8 86 8 49 1 73 -5 122 -30z
m7177 4 c180 -94 212 -334 63 -468 -117 -105 -286 -98 -393 16 -25 27 -52 64
-60 83 -58 139 1 297 137 366 58 29 69 31 138 27 50 -2 88 -11 115 -24z
m-6067 -1280 l-3 -1178 -567 -3 -566 -2 -40 167 c-67 280 -87 421 -102 699 -8
162 -2 411 16 576 l7 68 310 156 c171 87 324 170 342 185 17 15 44 52 61 81
25 46 29 63 29 128 -1 71 -3 81 -58 188 l-57 112 315 0 315 0 -2 -1177z m2960
1162 c184 -38 303 -135 333 -270 9 -43 9 -61 -4 -106 -32 -109 -116 -184 -263
-236 l-79 -28 -677 -3 -678 -3 0 331 0 330 649 0 c532 0 662 -3 719 -15z
m-294 -1698 c204 -60 337 -216 429 -502 20 -60 56 -204 81 -320 93 -423 122
-528 179 -640 78 -156 163 -238 299 -287 l63 -23 773 -3 c424 -2 772 -6 772
-10 0 -9 -210 -260 -246 -294 l-29 -27 -340 55 c-227 37 -355 53 -385 49 -60
-7 -143 -49 -176 -88 -50 -59 -63 -109 -119 -457 -30 -188 -56 -344 -58 -346
-11 -11 -261 -112 -371 -150 -858 -295 -1778 -261 -2623 96 -106 45 -122 55
-127 78 -3 15 -28 171 -56 347 -54 347 -69 397 -133 451 -42 35 -104 63 -159
69 -28 4 -163 -14 -383 -49 l-340 -56 -60 63 c-61 63 -215 251 -215 261 0 3
668 6 1484 6 1336 0 1486 2 1500 16 14 14 16 78 16 554 0 523 -1 540 -19 550
-13 6 -165 10 -425 10 l-406 0 0 328 c0 181 3 332 7 336 4 4 233 6 508 4 436
-4 508 -6 559 -21z m-2432 -2393 c136 -46 215 -206 173 -349 -24 -83 -108
-166 -190 -190 -140 -41 -286 26 -346 159 -28 61 -25 167 5 231 64 136 214
198 358 149z m4453 -8 c107 -50 165 -143 165 -261 0 -46 -7 -84 -19 -111 -60
-133 -206 -200 -346 -159 -82 24 -166 107 -190 190 -41 141 37 302 169 349 66
23 162 20 221 -8z"/>
</g>
</svg>
